<svg xmlns="http://www.w3.org/2000/svg" xmlns:xlink="http://www.w3.org/1999/xlink" width="194" height="194" viewBox="0 0 194 194">
  <defs>
    <filter id="Elipse_5144" x="0" y="0" width="194" height="194" filterUnits="userSpaceOnUse">
      <feOffset dy="3" input="SourceAlpha"/>
      <feGaussianBlur stdDeviation="3" result="blur"/>
      <feFlood flood-opacity="0.161"/>
      <feComposite operator="in" in2="blur"/>
      <feComposite in="SourceGraphic"/>
    </filter>
    <clipPath id="clip-path">
      <rect id="Rectángulo_345265" data-name="Rectángulo 345265" width="130.955" height="131" fill="none"/>
    </clipPath>
  </defs>
  <g id="Grupo_999373" data-name="Grupo 999373" transform="translate(-394 -903)">
    <g transform="matrix(1, 0, 0, 1, 394, 903)" filter="url(#Elipse_5144)">
      <circle id="Elipse_5144-2" data-name="Elipse 5144" cx="88" cy="88" r="88" transform="translate(9 6)" fill="#fff"/>
    </g>
    <g id="Grupo_999387" data-name="Grupo 999387" transform="translate(430.003 956)">
      <g id="Grupo_999386" data-name="Grupo 999386" clip-path="url(#clip-path)">
        <path id="Trazado_704902" data-name="Trazado 704902" d="M89.47,54.554c3.225-1.423,4.9-3,5.124-6.7.9-14.868,2.362-29.7,3.5-44.556C98.278.844,99.215-.1,101.63.007c2.812.124,5.639.123,8.451,0,2.452-.106,3.34.907,3.471,3.342.6,11.158,1.349,22.308,2.077,33.968,1.153-.72,2-1.3,2.888-1.794,2.063-1.138,3.5-.324,3.67,2.054.044.634.009,1.272.009,1.909,0,14.729.1,29.459-.076,44.186-.039,3.254.706,5.64,3.205,7.8,3.084,2.67,2.91,2.823.344,6.079-.383.486-.752,1.484-.516,1.842a2.781,2.781,0,0,0,1.912.986c3.751.3,3.853.36,3.858,4.247,0,1.819-.081,3.642.02,5.454.134,2.394-.755,3.571-3.294,3.488a7.8,7.8,0,0,0-2.564.877,7.6,7.6,0,0,0,1.14,2.469c1.782,1.7,1.77,3.164-.036,4.816-1.676,1.532-3.256,3.172-4.832,4.809-1.437,1.494-2.727,1.4-4.212-.006a11.381,11.381,0,0,0-2.646-1.433,8.468,8.468,0,0,0-.974,2.766c.066,2.922-1.68,3.13-3.93,3.128q-49.9-.045-99.8-.021c-2.272,0-4.546-.042-6.817.011C.918,131.038,0,130.129,0,128.052Q.033,96,.031,63.954c0-.6.055-1.517.429-1.764,2.281-1.508,1.724-3.769,1.727-5.873q.023-15.82,0-31.639c0-1.308.315-2.679-1.36-3.442-.461-.21-.756-1.226-.778-1.883C-.035,16.72.022,14.082.012,11.445A2.34,2.34,0,0,1,2.676,8.767c.545,0,1.091,0,1.636,0q41.585,0,83.171,0c3.93,0,4.163.238,4.168,4.174a51.156,51.156,0,0,1-.06,5.721,11.032,11.032,0,0,1-1.29,3.022c-.268.592-.792,1.175-.8,1.764-.05,10.267-.036,20.535-.036,31.106M4.572,96.062v30.329H41.466c0-6.032,0-11.844,0-17.656,0-3.635.3-3.943,3.845-3.945q15.4-.009,30.793,0c4.577,0,4.635.056,4.636,4.52q0,8.541,0,17.083H92.736c-2.061-1.9-3.575-3.333-5.128-4.72-1.691-1.51-1.813-2.928-.13-4.61a8.772,8.772,0,0,0,1.254-2.675,11.6,11.6,0,0,0-2.882-.82c-2.07-.045-3-.94-2.94-3,.051-1.816.01-3.634.01-5.451,0-4.258,0-4.225,4.184-4.733a2.409,2.409,0,0,0,1.616-1.022,1.675,1.675,0,0,0-.4-1.611c-1.264-.69-2.654-1.613-4-1.618-25.706-.094-51.413-.069-77.119-.069H4.572M4.546,67.5H117.6V41.4C106.37,48.89,95.451,56.219,84.454,63.428c-1.383.907-3.18,1.183-4.786,1.75A24.12,24.12,0,0,1,78.607,60.4c-.125-6.214-.051-12.432-.051-19.043-1.315.829-2.228,1.376-3.111,1.965-10.5,7-20.97,14.022-31.506,20.956-.946.623-2.561,1.214-3.35.811s-1.228-2.071-1.249-3.2c-.117-6.085-.049-12.174-.065-18.261,0-.656-.131-1.311-.228-2.222-11.078,7.388-21.839,14.63-32.69,21.735C4.62,64.278,4.011,65.485,4.546,67.5m78.377-8.874,1.082.35a11.722,11.722,0,0,0,1.048-3.293c.08-10.547.051-21.095.039-31.642,0-.689-.125-1.379-.189-2.041H6.814V57.6l10.744-7.185c-4.333-.383-4.453-.513-4.454-4.366,0-6.183.076-12.367-.037-18.549-.048-2.622.989-3.588,3.557-3.494,3.541.129,7.092.116,10.634,0,2.508-.079,3.387,1.011,3.332,3.434-.1,4.595-.029,9.193-.029,14.242A39.157,39.157,0,0,1,34.312,39.3a4.581,4.581,0,0,0,2.839-5.17c-.232-2.249.023-4.544-.069-6.814-.093-2.294.812-3.351,3.185-3.294,3.725.089,7.455.075,11.18,0,2.18-.041,3.15.847,3.131,3.07-.055,6.637-.066,13.276.006,19.912.025,2.323-.891,3.337-3.233,3.249-2.506-.093-5.019-.021-7.481-.021v8.842c5.572-3.717,10.888-7.187,16.087-10.823a3.8,3.8,0,0,0,1.094-2.743q.145-9.136.025-18.276c-.029-2.353.957-3.271,3.269-3.215,3.725.09,7.455.074,11.181.007,2.233-.04,3.111.977,3.051,3.147-.075,2.718-.018,5.441-.018,8.191,3.778-.707,4.36-.2,4.363,3.636q.007,9.816,0,19.632M91.4,94.679c2.981,1.862,2.492,3.895,1.519,6.641-1.057,2.988-2.792,3.855-5.5,3.513v4.514c5.107-1.7,5.094,2.68,6.14,5.314.491,1.237-.692,3.138-1.116,4.738l-.886.045,3.13,2.907c1.762-2.719,3.755-2.43,6.527-1.406,2.943,1.087,3.919,2.734,3.609,5.465h3.4c1.011-1.876,1.439-4.021,2.568-4.5,2.71-1.139,5.843-4.229,8.051-.147l3.5-2.3-.893-.152c-.461-1.517-1.668-3.306-1.233-4.5,1.019-2.789,1.253-6.961,6.165-5.627v-4.574c-4.51,1.447-4.593-2.255-5.965-4.647-1.438-2.508.364-3.8,1.725-5.265l-2.754-3.116q-.035.465-.07.929c-1.6.411-3.486,1.563-4.739,1.079-2.656-1.027-6.925-1.122-5.384-6.11H104.55c1.593,4.906-2.5,5.1-5.127,6.024-1.372.48-3.289-.6-4.96-.973q0-.419,0-.838L91.4,94.679M87.159,13.314H4.5v4.039H87.159ZM118.52,80.786H6.838c-.273,0-.546.015-.818,0-1.779-.106-1.928.725-1.292,2.18H109.252c3.9,0,3.963.1,4.255,3.849.053.687.461,1.707.964,1.9a2.153,2.153,0,0,0,2-.678c.782-2.178,1.295-4.454,2.053-7.249M56.928,126.4h8.4V109.284h-8.4ZM17.579,45.86a35.128,35.128,0,0,0,5.966-.1c.973-.177,2.49-1.309,2.524-2.065.226-5.026.117-10.067.117-15.095H17.579Zm93.06-12.966h-10.5c-.4,5.057-.8,10.067-1.24,15.653,2.874-1.906,5.166-3.919,7.828-5.085,4.774-2.091,5.178-5.626,4.146-9.94a6.27,6.27,0,0,0-.232-.628m-69.307-4.36c.171,2.277-.444,5.147.651,6.149,1.8,1.648,1.612,3.262,1.657,5.092.049,1.969.011,3.939.011,5.887h6.4V28.534ZM65.57,44.592c2.839-1.9,5.259-3.469,7.62-5.127A2.255,2.255,0,0,0,74.14,38c.087-3.141.044-6.286.044-9.369H65.57Zm36.873,27.6h-25.9v4.05h25.9ZM19.771,91.509H45.709V87.473H19.771ZM45.782,72.216H19.846v4H45.782Zm.247,54.265h6.2V109.272h-6.2Zm30.156-17.1H69.974v17.111h6.211Zm34.457-81.131c-.226-3.636-.438-7.052-.658-10.587h-8.617c-.288,3.57-.565,6.993-.857,10.587Zm-60.3,63.289H71.818V87.448H50.338Zm-.024-15.3H71.89V72.2H50.314Zm59.471-63.2c-.237-3.039-.449-5.775-.661-8.492H102.38c-.2,2.868-.386,5.621-.582,8.492ZM91.981,87.507h-15.4v4.186a58.167,58.167,0,0,1,6.953.051,7.771,7.771,0,0,0,8.444-4.237m-87.481,4H15.169V87.476H4.5ZM117.719,72.19H107.084V76.24h10.635Zm-102.482.031H4.576v3.985H15.237Z" transform="translate(0 0)" fill="#161615"/>
        <path id="Trazado_704903" data-name="Trazado 704903" d="M8.384,176.156h2.633c25.706,0,51.413-.025,77.119.069,1.345,0,2.736.929,4,1.618a1.676,1.676,0,0,1,.4,1.611,2.409,2.409,0,0,1-1.616,1.022c-4.179.508-4.183.476-4.184,4.733,0,1.817.041,3.636-.01,5.451-.058,2.059.87,2.953,2.94,3a11.623,11.623,0,0,1,2.882.82,8.794,8.794,0,0,1-1.254,2.676c-1.682,1.681-1.561,3.1.13,4.609,1.554,1.387,3.067,2.82,5.128,4.721H84.554q0-8.545,0-17.084c0-4.463-.058-4.519-4.636-4.52q-15.4,0-30.793,0c-3.545,0-3.841.31-3.845,3.945-.005,5.813,0,11.625,0,17.656H8.384Z" transform="translate(-3.812 -80.093)" fill="#5cbdd2"/>
        <path id="Trazado_704904" data-name="Trazado 704904" d="M8.18,101.984c-.536-2.018.074-3.226,1.809-4.362,10.852-7.1,21.612-14.346,32.69-21.735.1.91.227,1.566.228,2.222.016,6.087-.052,12.175.064,18.26.022,1.125.473,2.8,1.249,3.2s2.4-.188,3.351-.811C58.108,91.822,68.583,84.8,79.078,77.8c.884-.589,1.8-1.136,3.112-1.965,0,6.611-.074,12.829.051,19.043A24.139,24.139,0,0,0,83.3,99.659c1.605-.568,3.4-.844,4.786-1.75,11-7.209,21.915-14.538,33.149-22.024v26.1Z" transform="translate(-3.634 -34.481)" fill="#3d3181"/>
        <path id="Trazado_704905" data-name="Trazado 704905" d="M88.6,76.976q0-9.816,0-19.631c0-3.84-.585-4.343-4.363-3.636,0-2.75-.057-5.472.018-8.19.06-2.17-.818-3.188-3.051-3.148-3.726.067-7.456.083-11.181-.006-2.312-.056-3.3.862-3.269,3.215q.114,9.137-.024,18.275A3.8,3.8,0,0,1,65.64,66.6c-5.2,3.636-10.515,7.106-16.087,10.823V68.58c2.462,0,4.974-.073,7.481.021,2.343.088,3.258-.926,3.233-3.249-.072-6.637-.061-13.276-.006-19.913.018-2.222-.951-3.111-3.131-3.069-3.726.07-7.456.085-11.181,0-2.373-.057-3.278,1-3.185,3.294.092,2.269-.164,4.564.069,6.814a4.582,4.582,0,0,1-2.84,5.17,39.1,39.1,0,0,0-3.751,2.392c0-5.049-.073-9.647.03-14.242.054-2.423-.825-3.513-3.333-3.434-3.542.112-7.094.125-10.634,0-2.568-.094-3.605.873-3.557,3.494.113,6.181.034,12.366.037,18.549,0,3.853.122,3.983,4.455,4.366L12.5,75.951v-35.6h78.09c.064.662.189,1.351.189,2.04.013,10.548.041,21.1-.039,31.643a11.735,11.735,0,0,1-1.047,3.292l-1.083-.35" transform="translate(-5.681 -18.347)" fill="#5cbdd2"/>
        <path id="Trazado_704906" data-name="Trazado 704906" d="M164.293,167.622l3.062-2.982q0,.42,0,.839c1.671.375,3.588,1.453,4.96.973,2.626-.919,6.719-1.118,5.127-6.024h4.646c-1.541,4.989,2.728,5.082,5.384,6.11,1.253.485,3.139-.667,4.739-1.078q.035-.465.07-.929l2.754,3.116c-1.361,1.463-3.163,2.757-1.725,5.265,1.372,2.392,1.454,6.093,5.965,4.647v4.574c-4.912-1.335-5.146,2.838-6.165,5.627-.435,1.189.772,2.979,1.233,4.5l.893.153-3.5,2.3c-2.208-4.082-5.341-.992-8.05.147-1.129.475-1.557,2.619-2.568,4.5h-3.4c.309-2.731-.666-4.378-3.609-5.465-2.772-1.024-4.764-1.313-6.526,1.406l-3.13-2.907.886-.045c.424-1.6,1.607-3.5,1.116-4.737-1.045-2.634-1.032-7.019-6.14-5.314v-4.514c2.712.342,4.447-.525,5.5-3.514.972-2.746,1.462-4.779-1.519-6.641m13.794,26.2c2.644-1.645,5.259-3.265,7.866-4.9,4.683-2.93,6.4-10.5,3.01-14.27l-3.145,1.785c.889,5.64.156,7.484-3.424,9.334l-4.289-2.354c-3.064,3.562-3.107,6.864-.017,10.4m3.416-27.8c-.731.35-1.934.522-2.276,1.159-1.22,2.271-3.684,2.454-5.516,3.659-5.063,3.33-6.212,10.749-3.158,14.3,1.989-.845,3.82-1.414,2.86-4.544-.858-2.8,1.119-5.34,3.967-6.535l4.111,2.366c3.04-3.5,3.251-6.8.012-10.407" transform="translate(-72.889 -72.943)" fill="#ffdb5e"/>
        <rect id="Rectángulo_345253" data-name="Rectángulo 345253" width="82.662" height="4.039" transform="translate(4.497 13.314)" fill="#ffdb5e"/>
        <path id="Trazado_704907" data-name="Trazado 704907" d="M122.175,148.137c-.759,2.8-1.271,5.071-2.053,7.249a2.15,2.15,0,0,1-2,.678c-.5-.191-.91-1.212-.964-1.9-.292-3.749-.351-3.849-4.255-3.849H8.383c-.636-1.454-.486-2.285,1.293-2.18.272.016.545,0,.818,0H122.175" transform="translate(-3.656 -67.35)" fill="#ffdb5e"/>
        <rect id="Rectángulo_345254" data-name="Rectángulo 345254" width="8.398" height="17.112" transform="translate(56.928 109.285)" fill="#c8e2f5"/>
        <path id="Trazado_704908" data-name="Trazado 704908" d="M32.237,69.711V52.456h8.607c0,5.027.109,10.069-.117,15.094-.034.756-1.552,1.888-2.525,2.065a35.067,35.067,0,0,1-5.966.1" transform="translate(-14.658 -23.851)" fill="#c8e2f5"/>
        <path id="Trazado_704909" data-name="Trazado 704909" d="M193.1,60.321a6.562,6.562,0,0,1,.232.628c1.032,4.315.628,7.849-4.146,9.94-2.663,1.166-4.955,3.179-7.828,5.085.443-5.586.839-10.6,1.24-15.653Z" transform="translate(-82.459 -27.427)" fill="#003576"/>
        <path id="Trazado_704910" data-name="Trazado 704910" d="M75.778,52.326H84.5V69.453H78.1c0-1.947.038-3.918-.011-5.886-.045-1.83.142-3.444-1.657-5.092-1.094-1-.48-3.872-.651-6.149" transform="translate(-34.445 -23.792)" fill="#c8e2f5"/>
        <path id="Trazado_704911" data-name="Trazado 704911" d="M120.241,68.462V52.5h8.614c0,3.083.043,6.228-.044,9.369a2.253,2.253,0,0,1-.95,1.469c-2.361,1.658-4.781,3.231-7.62,5.127" transform="translate(-54.671 -23.869)" fill="#c8e2f5"/>
        <rect id="Rectángulo_345255" data-name="Rectángulo 345255" width="25.901" height="4.05" transform="translate(76.542 72.191)" fill="#c8e2f5"/>
        <rect id="Rectángulo_345256" data-name="Rectángulo 345256" width="25.938" height="4.036" transform="translate(19.771 87.473)" fill="#c8e2f5"/>
        <rect id="Rectángulo_345257" data-name="Rectángulo 345257" width="25.936" height="3.997" transform="translate(19.846 72.216)" fill="#c8e2f5"/>
        <rect id="Rectángulo_345258" data-name="Rectángulo 345258" width="6.197" height="17.209" transform="translate(46.029 109.272)" fill="#c8e2f5"/>
        <rect id="Rectángulo_345259" data-name="Rectángulo 345259" width="6.211" height="17.111" transform="translate(69.974 109.377)" fill="#c8e2f5"/>
        <path id="Trazado_704912" data-name="Trazado 704912" d="M194.447,42.97H184.315c.291-3.594.568-7.017.857-10.587h8.617c.22,3.536.432,6.951.658,10.587" transform="translate(-83.804 -14.724)" fill="#003576"/>
        <rect id="Rectángulo_345260" data-name="Rectángulo 345260" width="21.479" height="4.087" transform="translate(50.338 87.448)" fill="#c8e2f5"/>
        <rect id="Rectángulo_345261" data-name="Rectángulo 345261" width="21.575" height="4.034" transform="translate(50.314 72.198)" fill="#c8e2f5"/>
        <path id="Trazado_704913" data-name="Trazado 704913" d="M194.664,16.813h-7.988c.2-2.871.386-5.623.582-8.492H194c.211,2.717.424,5.453.66,8.492" transform="translate(-84.878 -3.783)" fill="#003576"/>
        <path id="Trazado_704914" data-name="Trazado 704914" d="M155.836,160.47a7.771,7.771,0,0,1-8.444,4.237,58.275,58.275,0,0,0-6.952-.05V160.47Z" transform="translate(-63.855 -72.963)" fill="#c8e2f5"/>
        <rect id="Rectángulo_345262" data-name="Rectángulo 345262" width="10.669" height="4.035" transform="translate(4.5 87.476)" fill="#c8e2f5"/>
        <rect id="Rectángulo_345263" data-name="Rectángulo 345263" width="10.635" height="4.051" transform="translate(107.084 72.19)" fill="#c8e2f5"/>
        <rect id="Rectángulo_345264" data-name="Rectángulo 345264" width="10.662" height="3.985" transform="translate(4.576 72.221)" fill="#c8e2f5"/>
        <path id="Trazado_704915" data-name="Trazado 704915" d="M190.994,205.686c-3.09-3.536-3.047-6.838.017-10.4l4.289,2.354c3.58-1.85,4.313-3.695,3.424-9.334l3.145-1.784c3.386,3.769,1.673,11.339-3.01,14.269-2.607,1.631-5.222,3.251-7.866,4.9" transform="translate(-85.795 -84.807)" fill="#161615"/>
        <path id="Trazado_704916" data-name="Trazado 704916" d="M188.646,170.7c3.239,3.6,3.028,6.9-.012,10.407l-4.111-2.366c-2.848,1.195-4.824,3.739-3.967,6.535.96,3.13-.871,3.7-2.86,4.544-3.054-3.554-1.9-10.972,3.158-14.3,1.832-1.2,4.3-1.387,5.516-3.659.342-.636,1.544-.809,2.276-1.159" transform="translate(-80.032 -77.612)" fill="#161615"/>
      </g>
    </g>
  </g>
</svg>
