<svg xmlns="http://www.w3.org/2000/svg" xmlns:xlink="http://www.w3.org/1999/xlink" width="210" height="168.626" viewBox="0 0 210 168.626">
  <defs>
    <clipPath id="clip-path">
      <rect id="Rectángulo_345709" data-name="Rectángulo 345709" width="210" height="123.025" fill="none"/>
    </clipPath>
    <clipPath id="clip-path-3">
      <rect id="Rectángulo_345589" data-name="Rectángulo 345589" width="93.937" height="2.963" fill="none"/>
    </clipPath>
    <clipPath id="clip-path-4">
      <rect id="Rectángulo_345593" data-name="Rectángulo 345593" width="93.94" height="3.328" fill="none"/>
    </clipPath>
    <clipPath id="clip-path-5">
      <rect id="Rectángulo_345610" data-name="Rectángulo 345610" width="9.682" height="6.724" fill="none"/>
    </clipPath>
    <clipPath id="clip-path-6">
      <rect id="Rectángulo_345611" data-name="Rectángulo 345611" width="9.682" height="7.242" fill="none"/>
    </clipPath>
    <clipPath id="clip-path-11">
      <rect id="Rectángulo_345664" data-name="Rectángulo 345664" width="9.684" height="6.724" fill="none"/>
    </clipPath>
    <clipPath id="clip-path-12">
      <rect id="Rectángulo_345665" data-name="Rectángulo 345665" width="9.684" height="7.242" fill="none"/>
    </clipPath>
    <clipPath id="clip-path-15">
      <rect id="Rectángulo_345705" data-name="Rectángulo 345705" width="74.269" height="3.129" fill="none"/>
    </clipPath>
  </defs>
  <g id="Grupo_999980" data-name="Grupo 999980" transform="translate(-1083.293 -14807)">
    <ellipse id="Elipse_7905" data-name="Elipse 7905" cx="84.5" cy="84" rx="84.5" ry="84" transform="translate(1097.309 14807)" fill="#25ffff" opacity="0.5"/>
    <g id="Grupo_999533" data-name="Grupo 999533" transform="translate(1083.293 14852.602)">
      <g id="Grupo_999532" data-name="Grupo 999532" clip-path="url(#clip-path)">
        <path id="Trazado_706371" data-name="Trazado 706371" d="M231.052,39.415l-1.456-.433,5.134-16.342,1.456.434Z" transform="translate(-48.875 -4.819)" fill="#5e5d5d"/>
        <path id="Trazado_706372" data-name="Trazado 706372" d="M235.238,39.317,229.6,23.389l1.441-.483,5.633,15.927Z" transform="translate(-48.876 -4.876)" fill="#5e5d5d"/>
        <path id="Trazado_706373" data-name="Trazado 706373" d="M237.472,103.938l-7.627-14.1,1.346-.691,7.63,14.1Z" transform="translate(-48.928 -18.977)" fill="#5e5d5d"/>
        <path id="Trazado_706374" data-name="Trazado 706374" d="M239.541,139.454l-1.509-.209,2.647-18.036-8.616-16.357,3.8-14.782,1.477.361-3.666,14.241,8.577,16.282Z" transform="translate(-49.4 -19.173)" fill="#5e5d5d"/>
        <path id="Trazado_706375" data-name="Trazado 706375" d="M244.177,142.975l-8.769-17.354.032-.226,2.8-19.067,1.507.21-2.77,18.84,8.563,16.941Z" transform="translate(-50.112 -22.635)" fill="#5e5d5d"/>
        <path id="Trazado_706376" data-name="Trazado 706376" d="M230.534,83.973l-1.442-.479,6.161-17.54,1.442.481Z" transform="translate(-48.767 -14.04)" fill="#5e5d5d"/>
        <path id="Trazado_706377" data-name="Trazado 706377" d="M235.186,83.668l-5.593-17.443,1.455-.442,5.594,17.444Z" transform="translate(-48.874 -14.003)" fill="#5e5d5d"/>
        <path id="Trazado_706378" data-name="Trazado 706378" d="M224.422.008V.449l10.432.028.138.107.617.465V.008Z" transform="translate(-47.773 -0.002)" fill="#5e5d5d"/>
        <path id="Trazado_706379" data-name="Trazado 706379" d="M236.718,39.058l.754,0,.138.111.616.5V22.856l-1.508-.011Z" transform="translate(-50.391 -4.863)" fill="#5e5d5d"/>
        <path id="Trazado_706380" data-name="Trazado 706380" d="M224.422,1.77h5.692l-5.692-.016Z" transform="translate(-47.773 -0.373)" fill="#5e5d5d"/>
        <path id="Trazado_706381" data-name="Trazado 706381" d="M236.718,86.326l7.588,47.775h1.527l-7.607-47.887V65.756l-1.508-.012Z" transform="translate(-50.391 -13.995)" fill="#5e5d5d"/>
        <path id="Trazado_706382" data-name="Trazado 706382" d="M235.608,61l21.3.172-21.3-17.125-.616-.5-.138-.112-.754,0-9.679-.026v.978l9.679.029h.391l1.117.9,18.478,14.855-18.478-.149L234.1,60.01l-9.679-.077v.98l9.679.077Z" transform="translate(-47.773 -9.241)" fill="#5e5d5d"/>
        <path id="Trazado_706383" data-name="Trazado 706383" d="M224.422,1.493l5.841.017,4.093.011h.4l1.148.9,18.967,14.9-18.967-.147-1.55-.013-9.934-.079v.982l9.934.077,1.55.013,21.867.172L235.906,1.15l-.634-.5-.142-.112L224.422.511Z" transform="translate(-47.773 -0.109)" fill="#5e5d5d"/>
        <path id="Trazado_706384" data-name="Trazado 706384" d="M243.216,152.587H224.422v2.447h28.9v-2.447Z" transform="translate(-47.773 -32.482)" fill="#5e5d5d"/>
        <path id="Trazado_706385" data-name="Trazado 706385" d="M202.756,72.774l.01-.057V1.466h18.949V72.4l7.668,48.287H195.1ZM201.255,0V72.6l-7.919,49.55h37.806l-7.92-49.868V0Z" transform="translate(-41.156)" fill="#424141"/>
        <path id="Trazado_706386" data-name="Trazado 706386" d="M194.635,149.666l-.493-.853,33.268-18.128.49.854Z" transform="translate(-41.328 -27.819)" fill="#424141"/>
        <path id="Trazado_706387" data-name="Trazado 706387" d="M230.923,149.908l-33.376-17.244.472-.866L231.4,149.044Z" transform="translate(-42.052 -28.056)" fill="#424141"/>
        <path id="Trazado_706388" data-name="Trazado 706388" d="M198.443,126.868l-.575-.8,27.15-18.353.575.8Z" transform="translate(-42.121 -22.929)" fill="#424141"/>
        <path id="Trazado_706389" data-name="Trazado 706389" d="M228.6,124.982l-26.9-17.864.568-.807,26.9,17.861Z" transform="translate(-42.937 -22.631)" fill="#424141"/>
        <rect id="Rectángulo_345572" data-name="Rectángulo 345572" width="20.46" height="1.467" transform="translate(160.842 68.359) rotate(-1.014)" fill="#424141"/>
        <path id="Trazado_706390" data-name="Trazado 706390" d="M202.262,103.344l-.545-.823,22.268-13.979.544.823Z" transform="translate(-42.94 -18.848)" fill="#424141"/>
        <path id="Trazado_706391" data-name="Trazado 706391" d="M226.135,103.805,203.621,89.8l.543-.825,22.512,14.006Z" transform="translate(-43.345 -18.94)" fill="#424141"/>
        <path id="Trazado_706392" data-name="Trazado 706392" d="M204.579,81.957l-.635-.76,20.282-16.1.634.76Z" transform="translate(-43.414 -13.858)" fill="#424141"/>
        <path id="Trazado_706393" data-name="Trazado 706393" d="M224.194,82.849l-19.867-15.8.635-.757,19.868,15.8Z" transform="translate(-43.496 -14.112)" fill="#424141"/>
        <path id="Trazado_706394" data-name="Trazado 706394" d="M204.579,60.533l-.635-.76,20.282-16.1.634.757Z" transform="translate(-43.414 -9.297)" fill="#424141"/>
        <path id="Trazado_706395" data-name="Trazado 706395" d="M224.194,61.424l-19.867-15.8.635-.759,19.868,15.8Z" transform="translate(-43.496 -9.551)" fill="#424141"/>
        <path id="Trazado_706396" data-name="Trazado 706396" d="M204.579,39.1l-.635-.758,20.282-16.1.634.758Z" transform="translate(-43.414 -4.736)" fill="#424141"/>
        <path id="Trazado_706397" data-name="Trazado 706397" d="M224.194,40,204.327,24.2l.635-.758,19.868,15.8Z" transform="translate(-43.496 -4.99)" fill="#424141"/>
        <path id="Trazado_706398" data-name="Trazado 706398" d="M204.579,17.68l-.635-.76L224.226.823l.634.76Z" transform="translate(-43.414 -0.175)" fill="#424141"/>
        <path id="Trazado_706399" data-name="Trazado 706399" d="M224.194,18.571l-19.867-15.8.635-.758,19.868,15.8Z" transform="translate(-43.496 -0.429)" fill="#424141"/>
        <path id="Trazado_706400" data-name="Trazado 706400" d="M241.165,61.252l-63.607-.51,20.95-17.282,20.6.059.139.112Zm-60.893-1.469,58.07.468L218.745,44.5l-19.869-.055Z" transform="translate(-37.797 -9.251)" fill="#424141"/>
        <path id="Trazado_706401" data-name="Trazado 706401" d="M241.165,18.355l-63.607-.51L198.508.563l20.6.059.139.112Zm-60.893-1.469,58.07.467L218.745,1.6l-19.869-.056Z" transform="translate(-37.797 -0.12)" fill="#424141"/>
        <path id="Trazado_706402" data-name="Trazado 706402" d="M231.063,19.872l-.693-.71,9.427-8.687.694.711Z" transform="translate(-49.04 -2.23)" fill="#424141"/>
        <path id="Trazado_706403" data-name="Trazado 706403" d="M201.05,19.7,192.5,11.018l.727-.676,8.547,8.686Z" transform="translate(-40.978 -2.201)" fill="#424141"/>
        <path id="Trazado_706404" data-name="Trazado 706404" d="M230.915,62.969l-.727-.678,8.925-9.054.726.679Z" transform="translate(-49.001 -11.333)" fill="#424141"/>
        <path id="Trazado_706405" data-name="Trazado 706405" d="M200.964,62.541l-8.169-9.419.767-.633,8.172,9.42Z" transform="translate(-41.041 -11.174)" fill="#424141"/>
        <rect id="Rectángulo_345573" data-name="Rectángulo 345573" width="56.313" height="2.447" transform="translate(143.464 120.175)" fill="#424141"/>
        <rect id="Rectángulo_345574" data-name="Rectángulo 345574" width="0.726" height="4.417" transform="translate(206.838 51.568)" fill="#5e5d5d"/>
        <rect id="Rectángulo_345575" data-name="Rectángulo 345575" width="0.725" height="4.416" transform="translate(140.921 51.54)" fill="#424141"/>
        <rect id="Rectángulo_345576" data-name="Rectángulo 345576" width="0.726" height="4.416" transform="translate(141.163 17.393)" fill="#424141"/>
        <rect id="Rectángulo_345577" data-name="Rectángulo 345577" width="0.727" height="4.415" transform="translate(207.698 18.1)" fill="#5e5d5d"/>
        <g id="Grupo_999531" data-name="Grupo 999531">
          <g id="Grupo_999530" data-name="Grupo 999530" clip-path="url(#clip-path)">
            <path id="Trazado_706406" data-name="Trazado 706406" d="M181.214,32.258a1.86,1.86,0,0,1-3.719,0v-5.21a1.86,1.86,0,0,1,3.719,0Z" transform="translate(-37.784 -5.372)" fill="#424141"/>
            <path id="Trazado_706407" data-name="Trazado 706407" d="M264.65,75.678a1.86,1.86,0,0,1-3.719,0v-5.21a1.86,1.86,0,0,1,3.719,0Z" transform="translate(-55.545 -14.615)" fill="#5e5d5d"/>
            <path id="Trazado_706408" data-name="Trazado 706408" d="M265.745,33.157a1.86,1.86,0,0,1-3.719,0V27.947a1.86,1.86,0,0,1,3.719,0Z" transform="translate(-55.778 -5.564)" fill="#5e5d5d"/>
            <path id="Trazado_706409" data-name="Trazado 706409" d="M180.906,75.638a1.86,1.86,0,0,1-3.719,0V70.428a1.86,1.86,0,0,1,3.719,0Z" transform="translate(-37.718 -14.607)" fill="#424141"/>
            <path id="Trazado_706410" data-name="Trazado 706410" d="M53.863,39.415l-1.456-.433L57.542,22.64,59,23.075Z" transform="translate(-11.156 -4.819)" fill="#5e5d5d"/>
            <path id="Trazado_706411" data-name="Trazado 706411" d="M58.05,39.317,52.415,23.389l1.44-.483,5.633,15.927Z" transform="translate(-11.158 -4.876)" fill="#5e5d5d"/>
            <path id="Trazado_706412" data-name="Trazado 706412" d="M60.283,103.938l-7.628-14.1L54,89.148l7.628,14.1Z" transform="translate(-11.209 -18.977)" fill="#5e5d5d"/>
            <path id="Trazado_706413" data-name="Trazado 706413" d="M62.35,139.454l-1.507-.209,2.647-18.036-8.617-16.357,3.806-14.782,1.477.361L56.49,104.67l8.579,16.282Z" transform="translate(-11.681 -19.173)" fill="#5e5d5d"/>
            <path id="Trazado_706414" data-name="Trazado 706414" d="M66.987,142.975l-8.769-17.354.034-.226,2.8-19.067,1.509.21-2.769,18.84,8.563,16.941Z" transform="translate(-12.393 -22.635)" fill="#5e5d5d"/>
            <path id="Trazado_706415" data-name="Trazado 706415" d="M53.343,83.973,51.9,83.493l6.162-17.54,1.442.481Z" transform="translate(-11.048 -14.04)" fill="#5e5d5d"/>
            <path id="Trazado_706416" data-name="Trazado 706416" d="M58,83.668,52.406,66.225l1.452-.442,5.595,17.444Z" transform="translate(-11.156 -14.003)" fill="#5e5d5d"/>
            <path id="Trazado_706417" data-name="Trazado 706417" d="M57.8.584l.616.465V.008H47.231V.449L57.666.477Z" transform="translate(-10.054 -0.002)" fill="#5e5d5d"/>
            <path id="Trazado_706418" data-name="Trazado 706418" d="M59.53,39.058l.754,0,.138.111.616.5V22.856l-1.507-.011Z" transform="translate(-12.672 -4.863)" fill="#5e5d5d"/>
            <path id="Trazado_706419" data-name="Trazado 706419" d="M47.231,1.754v.017h5.692Z" transform="translate(-10.054 -0.373)" fill="#5e5d5d"/>
            <path id="Trazado_706420" data-name="Trazado 706420" d="M59.53,86.326,67.117,134.1h1.526L61.038,86.213V65.756l-1.507-.012Z" transform="translate(-12.672 -13.995)" fill="#5e5d5d"/>
            <path id="Trazado_706421" data-name="Trazado 706421" d="M58.42,61l21.3.172L58.42,44.048l-.616-.5-.138-.112-.754,0-9.681-.026v.978l9.681.029h.39l1.118.9L76.9,60.171,58.42,60.022l-1.507-.013-9.681-.077v.98l9.681.077Z" transform="translate(-10.054 -9.241)" fill="#5e5d5d"/>
            <path id="Trazado_706422" data-name="Trazado 706422" d="M58.717,18.16l21.867.172L58.717,1.151l-.634-.5L57.943.541,47.231.511v.982l5.841.017,4.095.011h.4l1.149.9,18.967,14.9L58.717,17.18l-1.55-.013-9.936-.078v.982l9.936.077Z" transform="translate(-10.054 -0.109)" fill="#5e5d5d"/>
            <path id="Trazado_706423" data-name="Trazado 706423" d="M76.13,152.587h-28.9v2.447h28.9Z" transform="translate(-10.054 -32.482)" fill="#5e5d5d"/>
            <path id="Trazado_706424" data-name="Trazado 706424" d="M53.954,122.154h-37.8L24.068,72.6V0H46.035V72.287Zm-36.045-1.468H52.2L44.526,72.4V1.466H25.577V72.718l-.009.056Z" transform="translate(-3.438)" fill="#424141"/>
            <path id="Trazado_706425" data-name="Trazado 706425" d="M17.446,149.666l-.493-.853,33.266-18.128.491.854Z" transform="translate(-3.609 -27.819)" fill="#424141"/>
            <path id="Trazado_706426" data-name="Trazado 706426" d="M53.734,149.908,20.358,132.664l.473-.866,33.376,17.247Z" transform="translate(-4.334 -28.056)" fill="#424141"/>
            <path id="Trazado_706427" data-name="Trazado 706427" d="M21.252,126.868l-.574-.8,27.15-18.353.574.8Z" transform="translate(-4.402 -22.929)" fill="#424141"/>
            <path id="Trazado_706428" data-name="Trazado 706428" d="M51.416,124.982l-26.9-17.864.568-.807,26.9,17.861Z" transform="translate(-5.218 -22.631)" fill="#424141"/>
            <rect id="Rectángulo_345578" data-name="Rectángulo 345578" width="20.462" height="1.467" transform="translate(21.372 68.354) rotate(-0.984)" fill="#424141"/>
            <path id="Trazado_706429" data-name="Trazado 706429" d="M25.074,103.344l-.543-.823L46.8,88.542l.542.823Z" transform="translate(-5.222 -18.848)" fill="#424141"/>
            <path id="Trazado_706430" data-name="Trazado 706430" d="M48.945,103.805,26.431,89.8l.544-.825,22.512,14.006Z" transform="translate(-5.626 -18.94)" fill="#424141"/>
            <path id="Trazado_706431" data-name="Trazado 706431" d="M27.39,81.957l-.636-.76L47.037,65.1l.634.76Z" transform="translate(-5.695 -13.858)" fill="#424141"/>
            <path id="Trazado_706432" data-name="Trazado 706432" d="M47,82.849l-19.866-15.8.635-.757,19.867,15.8Z" transform="translate(-5.777 -14.112)" fill="#424141"/>
            <path id="Trazado_706433" data-name="Trazado 706433" d="M27.39,60.533l-.636-.76,20.283-16.1.634.757Z" transform="translate(-5.695 -9.297)" fill="#424141"/>
            <path id="Trazado_706434" data-name="Trazado 706434" d="M47,61.424l-19.866-15.8.635-.759,19.867,15.8Z" transform="translate(-5.777 -9.551)" fill="#424141"/>
            <path id="Trazado_706435" data-name="Trazado 706435" d="M27.39,39.1l-.636-.758,20.283-16.1.634.758Z" transform="translate(-5.695 -4.736)" fill="#424141"/>
            <path id="Trazado_706436" data-name="Trazado 706436" d="M47,40,27.138,24.2l.635-.758,19.867,15.8Z" transform="translate(-5.777 -4.99)" fill="#424141"/>
            <path id="Trazado_706437" data-name="Trazado 706437" d="M27.39,17.68l-.636-.76L47.037.823l.634.76Z" transform="translate(-5.695 -0.175)" fill="#424141"/>
            <path id="Trazado_706438" data-name="Trazado 706438" d="M47,18.571,27.138,2.773l.635-.758,19.867,15.8Z" transform="translate(-5.777 -0.429)" fill="#424141"/>
            <path id="Trazado_706439" data-name="Trazado 706439" d="M63.976,61.252.368,60.742,21.318,43.46l20.6.059.137.112ZM3.084,59.783l58.069.468L41.555,44.5l-19.87-.055Z" transform="translate(-0.078 -9.251)" fill="#424141"/>
            <path id="Trazado_706440" data-name="Trazado 706440" d="M63.976,18.355.368,17.845,21.318.563l20.6.059.137.112ZM3.084,16.886l58.069.467L41.555,1.6l-19.87-.056Z" transform="translate(-0.078 -0.12)" fill="#424141"/>
            <path id="Trazado_706441" data-name="Trazado 706441" d="M53.872,19.872l-.692-.71,9.428-8.687.692.711Z" transform="translate(-11.321 -2.23)" fill="#424141"/>
            <path id="Trazado_706442" data-name="Trazado 706442" d="M23.86,19.7l-8.547-8.686.728-.676,8.545,8.686Z" transform="translate(-3.26 -2.201)" fill="#424141"/>
            <path id="Trazado_706443" data-name="Trazado 706443" d="M53.725,62.969,53,62.291l8.924-9.054.727.679Z" transform="translate(-11.282 -11.333)" fill="#424141"/>
            <path id="Trazado_706444" data-name="Trazado 706444" d="M23.775,62.541,15.6,53.123l.77-.633,8.171,9.42Z" transform="translate(-3.322 -11.174)" fill="#424141"/>
            <rect id="Rectángulo_345579" data-name="Rectángulo 345579" width="56.313" height="2.448" transform="translate(3.994 120.175)" fill="#424141"/>
            <rect id="Rectángulo_345580" data-name="Rectángulo 345580" width="0.727" height="4.416" transform="translate(67.368 51.569)" fill="#5e5d5d"/>
            <rect id="Rectángulo_345581" data-name="Rectángulo 345581" width="0.724" height="4.416" transform="translate(1.451 51.54)" fill="#424141"/>
            <rect id="Rectángulo_345582" data-name="Rectángulo 345582" width="0.725" height="4.416" transform="translate(1.692 17.393)" fill="#424141"/>
            <rect id="Rectángulo_345583" data-name="Rectángulo 345583" width="0.727" height="4.414" transform="translate(68.229 18.101)" fill="#5e5d5d"/>
            <path id="Trazado_706445" data-name="Trazado 706445" d="M4.025,32.258a1.837,1.837,0,0,1-1.858,1.813A1.838,1.838,0,0,1,.306,32.258v-5.21a1.837,1.837,0,0,1,1.862-1.811,1.836,1.836,0,0,1,1.858,1.811Z" transform="translate(-0.065 -5.372)" fill="#424141"/>
            <path id="Trazado_706446" data-name="Trazado 706446" d="M87.463,75.678a1.861,1.861,0,0,1-3.722,0v-5.21a1.861,1.861,0,0,1,3.722,0Z" transform="translate(-17.826 -14.615)" fill="#5e5d5d"/>
            <path id="Trazado_706447" data-name="Trazado 706447" d="M88.557,33.157a1.861,1.861,0,0,1-3.72,0V27.947a1.861,1.861,0,0,1,3.72,0Z" transform="translate(-18.059 -5.564)" fill="#5e5d5d"/>
            <path id="Trazado_706448" data-name="Trazado 706448" d="M3.718,75.638A1.835,1.835,0,0,1,1.858,77.45,1.835,1.835,0,0,1,0,75.638V70.428a1.836,1.836,0,0,1,1.858-1.81,1.836,1.836,0,0,1,1.859,1.81Z" transform="translate(0 -14.607)" fill="#424141"/>
            <path id="Trazado_706449" data-name="Trazado 706449" d="M90.14,74.895c-32,0-52.964-8.564-65.51-16.492C8.4,48.142,2.348,36.681,2.29,36.566l.6-.293c.058.113,6.047,11.444,22.149,21.608C39.9,67.265,66.672,77.544,109.806,73.228l.068.648A197.485,197.485,0,0,1,90.14,74.895" transform="translate(-0.487 -7.722)" fill="#123d46"/>
            <path id="Trazado_706450" data-name="Trazado 706450" d="M179.492,74.061c-35.625-.672-58.906-10.568-72.166-18.751C92.94,46.43,86.9,37.573,86.844,37.484l.562-.357c.057.087,6.036,8.848,20.316,17.654,13.184,8.129,36.339,17.958,71.786,18.627Z" transform="translate(-18.487 -7.903)" fill="#123d46"/>
            <rect id="Rectángulo_345584" data-name="Rectángulo 345584" width="53.275" height="21.423" transform="translate(96.75 74.148)" fill="#dadadf"/>
            <rect id="Rectángulo_345585" data-name="Rectángulo 345585" width="21.103" height="21.423" transform="translate(149.819 74.148)" fill="#ededed"/>
            <rect id="Rectángulo_345586" data-name="Rectángulo 345586" width="71.412" height="25.582" transform="translate(86.919 97.443)" fill="#123d46"/>
            <rect id="Rectángulo_345587" data-name="Rectángulo 345587" width="23.007" height="25.582" transform="translate(157.85 97.443)" fill="#217482"/>
            <g id="Grupo_999493" data-name="Grupo 999493" transform="translate(86.92 98.379)" opacity="0.1">
              <g id="Grupo_999492" data-name="Grupo 999492">
                <g id="Grupo_999491" data-name="Grupo 999491" clip-path="url(#clip-path-3)">
                  <rect id="Rectángulo_345588" data-name="Rectángulo 345588" width="93.937" height="2.963" transform="translate(0 0)"/>
                </g>
              </g>
            </g>
            <rect id="Rectángulo_345590" data-name="Rectángulo 345590" width="72.612" height="3.431" transform="translate(85.48 95.26)" fill="#086d6d"/>
            <rect id="Rectángulo_345591" data-name="Rectángulo 345591" width="24.805" height="3.431" transform="translate(157.85 95.26)" fill="#06808b"/>
            <g id="Grupo_999496" data-name="Grupo 999496" transform="translate(86.917 119.696)" opacity="0.2">
              <g id="Grupo_999495" data-name="Grupo 999495">
                <g id="Grupo_999494" data-name="Grupo 999494" clip-path="url(#clip-path-4)">
                  <rect id="Rectángulo_345592" data-name="Rectángulo 345592" width="93.94" height="3.329" transform="translate(0 0)"/>
                </g>
              </g>
            </g>
            <rect id="Rectángulo_345594" data-name="Rectángulo 345594" width="2.038" height="2.069" transform="translate(90.242 105.893)" fill="#5ad9ed"/>
            <rect id="Rectángulo_345595" data-name="Rectángulo 345595" width="2.037" height="2.069" transform="translate(92.79 105.893)" fill="#5ad9ed"/>
            <rect id="Rectángulo_345596" data-name="Rectángulo 345596" width="2.036" height="2.069" transform="translate(95.338 105.893)" fill="#5ad9ed"/>
            <rect id="Rectángulo_345597" data-name="Rectángulo 345597" width="2.037" height="2.069" transform="translate(97.886 105.893)" fill="#5ad9ed"/>
            <rect id="Rectángulo_345598" data-name="Rectángulo 345598" width="2.038" height="2.069" transform="translate(90.242 108.479)" fill="#5ad9ed"/>
            <rect id="Rectángulo_345599" data-name="Rectángulo 345599" width="2.037" height="2.069" transform="translate(92.79 108.479)" fill="#5ad9ed"/>
            <rect id="Rectángulo_345600" data-name="Rectángulo 345600" width="2.036" height="2.069" transform="translate(95.338 108.479)" fill="#5ad9ed"/>
            <rect id="Rectángulo_345601" data-name="Rectángulo 345601" width="2.037" height="2.069" transform="translate(97.886 108.479)" fill="#5ad9ed"/>
            <rect id="Rectángulo_345602" data-name="Rectángulo 345602" width="2.038" height="2.069" transform="translate(90.242 111.064)" fill="#5ad9ed"/>
            <rect id="Rectángulo_345603" data-name="Rectángulo 345603" width="2.037" height="2.069" transform="translate(92.79 111.064)" fill="#5ad9ed"/>
            <rect id="Rectángulo_345604" data-name="Rectángulo 345604" width="2.036" height="2.069" transform="translate(95.338 111.064)" fill="#5ad9ed"/>
            <rect id="Rectángulo_345605" data-name="Rectángulo 345605" width="2.037" height="2.069" transform="translate(97.886 111.064)" fill="#5ad9ed"/>
            <rect id="Rectángulo_345606" data-name="Rectángulo 345606" width="2.038" height="2.069" transform="translate(90.242 113.652)" fill="#5ad9ed"/>
            <rect id="Rectángulo_345607" data-name="Rectángulo 345607" width="2.037" height="2.069" transform="translate(92.79 113.652)" fill="#5ad9ed"/>
            <rect id="Rectángulo_345608" data-name="Rectángulo 345608" width="2.036" height="2.069" transform="translate(95.338 113.652)" fill="#5ad9ed"/>
            <rect id="Rectángulo_345609" data-name="Rectángulo 345609" width="2.037" height="2.069" transform="translate(97.886 113.652)" fill="#5ad9ed"/>
            <g id="Grupo_999499" data-name="Grupo 999499" transform="translate(90.242 105.893)" opacity="0.2">
              <g id="Grupo_999498" data-name="Grupo 999498">
                <g id="Grupo_999497" data-name="Grupo 999497" clip-path="url(#clip-path-5)">
                  <path id="Trazado_706451" data-name="Trazado 706451" d="M114.647,134.531l9.682,6.724V139.7l-7.644-5.171Z" transform="translate(-114.647 -134.531)" fill="#fff"/>
                </g>
              </g>
            </g>
            <g id="Grupo_999502" data-name="Grupo 999502" transform="translate(90.242 108.479)" opacity="0.2">
              <g id="Grupo_999501" data-name="Grupo 999501">
                <g id="Grupo_999500" data-name="Grupo 999500" clip-path="url(#clip-path-6)">
                  <path id="Trazado_706452" data-name="Trazado 706452" d="M114.647,137.816l9.682,7.242h-4.586l-5.1-3.88Z" transform="translate(-114.647 -137.816)" fill="#fff"/>
                </g>
              </g>
            </g>
            <rect id="Rectángulo_345612" data-name="Rectángulo 345612" width="2.039" height="2.069" transform="translate(103.695 105.893)" fill="#5ad9ed"/>
            <rect id="Rectángulo_345613" data-name="Rectángulo 345613" width="2.039" height="2.069" transform="translate(106.243 105.893)" fill="#5ad9ed"/>
            <rect id="Rectángulo_345614" data-name="Rectángulo 345614" width="2.037" height="2.069" transform="translate(108.79 105.893)" fill="#5ad9ed"/>
            <rect id="Rectángulo_345615" data-name="Rectángulo 345615" width="2.037" height="2.069" transform="translate(111.34 105.893)" fill="#5ad9ed"/>
            <rect id="Rectángulo_345616" data-name="Rectángulo 345616" width="2.039" height="2.069" transform="translate(103.695 108.479)" fill="#5ad9ed"/>
            <rect id="Rectángulo_345617" data-name="Rectángulo 345617" width="2.039" height="2.069" transform="translate(106.243 108.479)" fill="#5ad9ed"/>
            <rect id="Rectángulo_345618" data-name="Rectángulo 345618" width="2.037" height="2.069" transform="translate(108.79 108.479)" fill="#5ad9ed"/>
            <rect id="Rectángulo_345619" data-name="Rectángulo 345619" width="2.037" height="2.069" transform="translate(111.34 108.479)" fill="#5ad9ed"/>
            <rect id="Rectángulo_345620" data-name="Rectángulo 345620" width="2.039" height="2.069" transform="translate(103.695 111.064)" fill="#5ad9ed"/>
            <rect id="Rectángulo_345621" data-name="Rectángulo 345621" width="2.039" height="2.069" transform="translate(106.243 111.064)" fill="#5ad9ed"/>
            <rect id="Rectángulo_345622" data-name="Rectángulo 345622" width="2.037" height="2.069" transform="translate(108.79 111.064)" fill="#5ad9ed"/>
            <rect id="Rectángulo_345623" data-name="Rectángulo 345623" width="2.037" height="2.069" transform="translate(111.34 111.064)" fill="#5ad9ed"/>
            <rect id="Rectángulo_345624" data-name="Rectángulo 345624" width="2.039" height="2.069" transform="translate(103.695 113.652)" fill="#5ad9ed"/>
            <rect id="Rectángulo_345625" data-name="Rectángulo 345625" width="2.039" height="2.069" transform="translate(106.243 113.652)" fill="#5ad9ed"/>
            <rect id="Rectángulo_345626" data-name="Rectángulo 345626" width="2.037" height="2.069" transform="translate(108.79 113.652)" fill="#5ad9ed"/>
            <rect id="Rectángulo_345627" data-name="Rectángulo 345627" width="2.037" height="2.069" transform="translate(111.34 113.652)" fill="#5ad9ed"/>
            <g id="Grupo_999505" data-name="Grupo 999505" transform="translate(103.695 105.893)" opacity="0.2">
              <g id="Grupo_999504" data-name="Grupo 999504">
                <g id="Grupo_999503" data-name="Grupo 999503" clip-path="url(#clip-path-5)">
                  <path id="Trazado_706453" data-name="Trazado 706453" d="M131.738,134.531l9.682,6.724V139.7l-7.644-5.171Z" transform="translate(-131.738 -134.531)" fill="#fff"/>
                </g>
              </g>
            </g>
            <g id="Grupo_999508" data-name="Grupo 999508" transform="translate(103.695 108.479)" opacity="0.2">
              <g id="Grupo_999507" data-name="Grupo 999507">
                <g id="Grupo_999506" data-name="Grupo 999506" clip-path="url(#clip-path-6)">
                  <path id="Trazado_706454" data-name="Trazado 706454" d="M131.738,137.816l9.682,7.242h-4.587l-5.1-3.88Z" transform="translate(-131.738 -137.816)" fill="#fff"/>
                </g>
              </g>
            </g>
            <rect id="Rectángulo_345630" data-name="Rectángulo 345630" width="2.039" height="2.069" transform="translate(117.987 105.893)" fill="#5ad9ed"/>
            <rect id="Rectángulo_345631" data-name="Rectángulo 345631" width="2.038" height="2.069" transform="translate(120.537 105.893)" fill="#5ad9ed"/>
            <rect id="Rectángulo_345632" data-name="Rectángulo 345632" width="2.04" height="2.069" transform="translate(123.083 105.893)" fill="#5ad9ed"/>
            <rect id="Rectángulo_345633" data-name="Rectángulo 345633" width="2.037" height="2.069" transform="translate(125.633 105.893)" fill="#5ad9ed"/>
            <rect id="Rectángulo_345634" data-name="Rectángulo 345634" width="2.039" height="2.069" transform="translate(117.987 108.479)" fill="#5ad9ed"/>
            <rect id="Rectángulo_345635" data-name="Rectángulo 345635" width="2.038" height="2.069" transform="translate(120.537 108.479)" fill="#5ad9ed"/>
            <rect id="Rectángulo_345636" data-name="Rectángulo 345636" width="2.04" height="2.069" transform="translate(123.083 108.479)" fill="#5ad9ed"/>
            <rect id="Rectángulo_345637" data-name="Rectángulo 345637" width="2.037" height="2.069" transform="translate(125.633 108.479)" fill="#5ad9ed"/>
            <rect id="Rectángulo_345638" data-name="Rectángulo 345638" width="2.039" height="2.069" transform="translate(117.987 111.064)" fill="#5ad9ed"/>
            <rect id="Rectángulo_345639" data-name="Rectángulo 345639" width="2.038" height="2.069" transform="translate(120.537 111.064)" fill="#5ad9ed"/>
            <rect id="Rectángulo_345640" data-name="Rectángulo 345640" width="2.04" height="2.069" transform="translate(123.083 111.064)" fill="#5ad9ed"/>
            <rect id="Rectángulo_345641" data-name="Rectángulo 345641" width="2.037" height="2.069" transform="translate(125.633 111.064)" fill="#5ad9ed"/>
            <rect id="Rectángulo_345642" data-name="Rectángulo 345642" width="2.039" height="2.069" transform="translate(117.987 113.652)" fill="#5ad9ed"/>
            <rect id="Rectángulo_345643" data-name="Rectángulo 345643" width="2.038" height="2.069" transform="translate(120.537 113.652)" fill="#5ad9ed"/>
            <rect id="Rectángulo_345644" data-name="Rectángulo 345644" width="2.04" height="2.069" transform="translate(123.083 113.652)" fill="#5ad9ed"/>
            <rect id="Rectángulo_345645" data-name="Rectángulo 345645" width="2.037" height="2.069" transform="translate(125.633 113.652)" fill="#5ad9ed"/>
            <g id="Grupo_999511" data-name="Grupo 999511" transform="translate(117.987 105.893)" opacity="0.2">
              <g id="Grupo_999510" data-name="Grupo 999510">
                <g id="Grupo_999509" data-name="Grupo 999509" clip-path="url(#clip-path-5)">
                  <path id="Trazado_706455" data-name="Trazado 706455" d="M149.9,134.531l9.682,6.724V139.7l-7.644-5.171Z" transform="translate(-149.896 -134.531)" fill="#fff"/>
                </g>
              </g>
            </g>
            <g id="Grupo_999514" data-name="Grupo 999514" transform="translate(117.987 108.479)" opacity="0.2">
              <g id="Grupo_999513" data-name="Grupo 999513">
                <g id="Grupo_999512" data-name="Grupo 999512" clip-path="url(#clip-path-6)">
                  <path id="Trazado_706456" data-name="Trazado 706456" d="M149.9,137.816l9.682,7.242h-4.587l-5.1-3.88Z" transform="translate(-149.896 -137.816)" fill="#fff"/>
                </g>
              </g>
            </g>
            <rect id="Rectángulo_345648" data-name="Rectángulo 345648" width="2.039" height="2.069" transform="translate(131.441 105.893)" fill="#5ad9ed"/>
            <rect id="Rectángulo_345649" data-name="Rectángulo 345649" width="2.039" height="2.069" transform="translate(133.99 105.893)" fill="#5ad9ed"/>
            <rect id="Rectángulo_345650" data-name="Rectángulo 345650" width="2.039" height="2.069" transform="translate(136.537 105.893)" fill="#5ad9ed"/>
            <rect id="Rectángulo_345651" data-name="Rectángulo 345651" width="2.039" height="2.069" transform="translate(139.086 105.893)" fill="#5ad9ed"/>
            <rect id="Rectángulo_345652" data-name="Rectángulo 345652" width="2.039" height="2.069" transform="translate(131.441 108.479)" fill="#5ad9ed"/>
            <rect id="Rectángulo_345653" data-name="Rectángulo 345653" width="2.039" height="2.069" transform="translate(133.99 108.479)" fill="#5ad9ed"/>
            <rect id="Rectángulo_345654" data-name="Rectángulo 345654" width="2.039" height="2.069" transform="translate(136.537 108.479)" fill="#5ad9ed"/>
            <rect id="Rectángulo_345655" data-name="Rectángulo 345655" width="2.039" height="2.069" transform="translate(139.086 108.479)" fill="#5ad9ed"/>
            <rect id="Rectángulo_345656" data-name="Rectángulo 345656" width="2.039" height="2.069" transform="translate(131.441 111.064)" fill="#5ad9ed"/>
            <rect id="Rectángulo_345657" data-name="Rectángulo 345657" width="2.039" height="2.069" transform="translate(133.99 111.064)" fill="#5ad9ed"/>
            <rect id="Rectángulo_345658" data-name="Rectángulo 345658" width="2.039" height="2.069" transform="translate(136.537 111.064)" fill="#5ad9ed"/>
            <rect id="Rectángulo_345659" data-name="Rectángulo 345659" width="2.039" height="2.069" transform="translate(139.086 111.064)" fill="#5ad9ed"/>
            <rect id="Rectángulo_345660" data-name="Rectángulo 345660" width="2.039" height="2.069" transform="translate(131.441 113.652)" fill="#5ad9ed"/>
            <rect id="Rectángulo_345661" data-name="Rectángulo 345661" width="2.039" height="2.069" transform="translate(133.99 113.652)" fill="#5ad9ed"/>
            <rect id="Rectángulo_345662" data-name="Rectángulo 345662" width="2.039" height="2.069" transform="translate(136.537 113.652)" fill="#5ad9ed"/>
            <rect id="Rectángulo_345663" data-name="Rectángulo 345663" width="2.039" height="2.069" transform="translate(139.086 113.652)" fill="#5ad9ed"/>
            <g id="Grupo_999517" data-name="Grupo 999517" transform="translate(131.441 105.893)" opacity="0.2">
              <g id="Grupo_999516" data-name="Grupo 999516">
                <g id="Grupo_999515" data-name="Grupo 999515" clip-path="url(#clip-path-11)">
                  <path id="Trazado_706457" data-name="Trazado 706457" d="M166.988,134.531l9.684,6.724V139.7l-7.645-5.171Z" transform="translate(-166.988 -134.531)" fill="#fff"/>
                </g>
              </g>
            </g>
            <g id="Grupo_999520" data-name="Grupo 999520" transform="translate(131.441 108.479)" opacity="0.2">
              <g id="Grupo_999519" data-name="Grupo 999519">
                <g id="Grupo_999518" data-name="Grupo 999518" clip-path="url(#clip-path-12)">
                  <path id="Trazado_706458" data-name="Trazado 706458" d="M166.988,137.816l9.684,7.242h-4.588l-5.1-3.88Z" transform="translate(-166.988 -137.816)" fill="#fff"/>
                </g>
              </g>
            </g>
            <rect id="Rectángulo_345666" data-name="Rectángulo 345666" width="2.038" height="2.069" transform="translate(144.894 105.893)" fill="#5ad9ed"/>
            <rect id="Rectángulo_345667" data-name="Rectángulo 345667" width="2.039" height="2.069" transform="translate(147.441 105.893)" fill="#5ad9ed"/>
            <rect id="Rectángulo_345668" data-name="Rectángulo 345668" width="2.036" height="2.069" transform="translate(149.991 105.893)" fill="#5ad9ed"/>
            <rect id="Rectángulo_345669" data-name="Rectángulo 345669" width="2.037" height="2.069" transform="translate(152.539 105.893)" fill="#5ad9ed"/>
            <rect id="Rectángulo_345670" data-name="Rectángulo 345670" width="2.038" height="2.069" transform="translate(144.894 108.479)" fill="#5ad9ed"/>
            <rect id="Rectángulo_345671" data-name="Rectángulo 345671" width="2.039" height="2.069" transform="translate(147.441 108.479)" fill="#5ad9ed"/>
            <rect id="Rectángulo_345672" data-name="Rectángulo 345672" width="2.036" height="2.069" transform="translate(149.991 108.479)" fill="#5ad9ed"/>
            <rect id="Rectángulo_345673" data-name="Rectángulo 345673" width="2.037" height="2.069" transform="translate(152.539 108.479)" fill="#5ad9ed"/>
            <rect id="Rectángulo_345674" data-name="Rectángulo 345674" width="2.038" height="2.069" transform="translate(144.894 111.064)" fill="#5ad9ed"/>
            <rect id="Rectángulo_345675" data-name="Rectángulo 345675" width="2.039" height="2.069" transform="translate(147.441 111.064)" fill="#5ad9ed"/>
            <rect id="Rectángulo_345676" data-name="Rectángulo 345676" width="2.036" height="2.069" transform="translate(149.991 111.064)" fill="#5ad9ed"/>
            <rect id="Rectángulo_345677" data-name="Rectángulo 345677" width="2.037" height="2.069" transform="translate(152.539 111.064)" fill="#5ad9ed"/>
            <rect id="Rectángulo_345678" data-name="Rectángulo 345678" width="2.038" height="2.069" transform="translate(144.894 113.652)" fill="#5ad9ed"/>
            <rect id="Rectángulo_345679" data-name="Rectángulo 345679" width="2.039" height="2.069" transform="translate(147.441 113.652)" fill="#5ad9ed"/>
            <rect id="Rectángulo_345680" data-name="Rectángulo 345680" width="2.036" height="2.069" transform="translate(149.991 113.652)" fill="#5ad9ed"/>
            <rect id="Rectángulo_345681" data-name="Rectángulo 345681" width="2.037" height="2.069" transform="translate(152.539 113.652)" fill="#5ad9ed"/>
            <g id="Grupo_999523" data-name="Grupo 999523" transform="translate(144.894 105.893)" opacity="0.2">
              <g id="Grupo_999522" data-name="Grupo 999522">
                <g id="Grupo_999521" data-name="Grupo 999521" clip-path="url(#clip-path-5)">
                  <path id="Trazado_706459" data-name="Trazado 706459" d="M184.08,134.531l9.682,6.724V139.7l-7.644-5.171Z" transform="translate(-184.08 -134.531)" fill="#fff"/>
                </g>
              </g>
            </g>
            <g id="Grupo_999526" data-name="Grupo 999526" transform="translate(144.894 108.479)" opacity="0.2">
              <g id="Grupo_999525" data-name="Grupo 999525">
                <g id="Grupo_999524" data-name="Grupo 999524" clip-path="url(#clip-path-6)">
                  <path id="Trazado_706460" data-name="Trazado 706460" d="M184.08,137.816l9.682,7.242h-4.585l-5.1-3.88Z" transform="translate(-184.08 -137.816)" fill="#fff"/>
                </g>
              </g>
            </g>
            <rect id="Rectángulo_345684" data-name="Rectángulo 345684" width="55.732" height="2.289" transform="translate(94.088 73.524)" fill="#086d6d"/>
            <rect id="Rectángulo_345685" data-name="Rectángulo 345685" width="24.067" height="2.289" transform="translate(149.726 73.524)" fill="#06808b"/>
            <rect id="Rectángulo_345686" data-name="Rectángulo 345686" width="7.359" height="8.82" transform="translate(102.55 81.275)" fill="#c5c4c6"/>
            <rect id="Rectángulo_345687" data-name="Rectángulo 345687" width="5.847" height="7.644" transform="translate(103.306 81.862)" fill="#353535"/>
            <rect id="Rectángulo_345688" data-name="Rectángulo 345688" width="5.012" height="6.998" transform="translate(104.14 82.507)" fill="#4c4b4c"/>
            <rect id="Rectángulo_345689" data-name="Rectángulo 345689" width="0.487" height="8.453" transform="translate(105.882 81.378)" fill="#c5c4c6"/>
            <rect id="Rectángulo_345690" data-name="Rectángulo 345690" width="7.356" height="8.82" transform="translate(114.23 81.275)" fill="#c5c4c6"/>
            <rect id="Rectángulo_345691" data-name="Rectángulo 345691" width="5.846" height="7.644" transform="translate(114.985 81.862)" fill="#353535"/>
            <rect id="Rectángulo_345692" data-name="Rectángulo 345692" width="5.011" height="6.998" transform="translate(115.82 82.507)" fill="#4c4b4c"/>
            <rect id="Rectángulo_345693" data-name="Rectángulo 345693" width="0.49" height="8.453" transform="translate(117.559 81.378)" fill="#c5c4c6"/>
            <rect id="Rectángulo_345694" data-name="Rectángulo 345694" width="7.355" height="8.82" transform="translate(124.682 81.275)" fill="#c5c4c6"/>
            <rect id="Rectángulo_345695" data-name="Rectángulo 345695" width="5.849" height="7.644" transform="translate(125.433 81.862)" fill="#353535"/>
            <rect id="Rectángulo_345696" data-name="Rectángulo 345696" width="5.012" height="6.998" transform="translate(126.269 82.507)" fill="#4c4b4c"/>
            <rect id="Rectángulo_345697" data-name="Rectángulo 345697" width="0.488" height="8.453" transform="translate(128.009 81.378)" fill="#c5c4c6"/>
            <rect id="Rectángulo_345698" data-name="Rectángulo 345698" width="7.356" height="8.82" transform="translate(136.36 81.275)" fill="#c5c4c6"/>
            <rect id="Rectángulo_345699" data-name="Rectángulo 345699" width="5.844" height="7.644" transform="translate(137.115 81.862)" fill="#353535"/>
            <rect id="Rectángulo_345700" data-name="Rectángulo 345700" width="5.011" height="6.998" transform="translate(137.949 82.507)" fill="#4c4b4c"/>
            <rect id="Rectángulo_345701" data-name="Rectángulo 345701" width="0.489" height="8.453" transform="translate(139.688 81.378)" fill="#c5c4c6"/>
            <path id="Trazado_706461" data-name="Trazado 706461" d="M138.58,83.05a.2.2,0,0,1-.4,0v-.9a.2.2,0,0,1,.4,0Z" transform="translate(-29.415 -17.446)" fill="#06808b"/>
            <path id="Trazado_706462" data-name="Trazado 706462" d="M138.971,84.188a.686.686,0,0,1-1.372,0v-.842a.686.686,0,0,1,1.372,0Z" transform="translate(-29.291 -17.598)" fill="#592306"/>
            <path id="Trazado_706463" data-name="Trazado 706463" d="M139.743,88.559c0,.714-.818,1.293-1.826,1.293s-1.829-.579-1.829-1.293V85.518c0-.714.819-1.292,1.829-1.292s1.826.579,1.826,1.292Z" transform="translate(-28.969 -17.929)" fill="#086d6d"/>
            <path id="Trazado_706464" data-name="Trazado 706464" d="M140.645,92.983a.4.4,0,0,1-.4.394h-4.628a.394.394,0,1,1,0-.787h4.628a.4.4,0,0,1,.4.394" transform="translate(-28.784 -19.71)" fill="#353535"/>
            <rect id="Rectángulo_345702" data-name="Rectángulo 345702" width="2.516" height="1.407" transform="translate(107.747 71.473)" fill="#4c4b4c"/>
            <path id="Trazado_706465" data-name="Trazado 706465" d="M181.714,83.706a.182.182,0,1,1-.364,0v-.843a.182.182,0,1,1,.364,0Z" transform="translate(-38.604 -17.599)" fill="#06808b"/>
            <path id="Trazado_706466" data-name="Trazado 706466" d="M182.069,84.773a.625.625,0,1,1-1.249,0v-.793a.625.625,0,1,1,1.249,0Z" transform="translate(-38.492 -17.742)" fill="#592306"/>
            <path id="Trazado_706467" data-name="Trazado 706467" d="M182.774,88.871c0,.671-.742,1.213-1.663,1.213s-1.662-.542-1.662-1.213v-2.85c0-.671.745-1.215,1.662-1.215s1.663.544,1.663,1.215Z" transform="translate(-38.2 -18.053)" fill="#086d6d"/>
            <path id="Trazado_706468" data-name="Trazado 706468" d="M183.594,93.021a.37.37,0,0,1-.365.369h-4.211a.37.37,0,0,1,0-.74h4.211a.37.37,0,0,1,.365.371" transform="translate(-38.031 -19.723)" fill="#353535"/>
            <rect id="Rectángulo_345703" data-name="Rectángulo 345703" width="2.288" height="1.319" transform="translate(141.819 71.608)" fill="#4c4b4c"/>
            <g id="Grupo_999529" data-name="Grupo 999529" transform="translate(96.65 92.103)" opacity="0.1">
              <g id="Grupo_999528" data-name="Grupo 999528">
                <g id="Grupo_999527" data-name="Grupo 999527" clip-path="url(#clip-path-15)">
                  <rect id="Rectángulo_345704" data-name="Rectángulo 345704" width="74.269" height="3.13" transform="translate(0.001 -0.001)" fill="#353535"/>
                </g>
              </g>
            </g>
            <path id="Trazado_706469" data-name="Trazado 706469" d="M205.163,83.05a.2.2,0,0,1-.4,0v-.9a.2.2,0,0,1,.4,0Z" transform="translate(-43.589 -17.446)" fill="#06808b"/>
            <path id="Trazado_706470" data-name="Trazado 706470" d="M205.553,84.188a.686.686,0,0,1-1.371,0v-.842a.686.686,0,0,1,1.371,0Z" transform="translate(-43.465 -17.598)" fill="#592306"/>
            <path id="Trazado_706471" data-name="Trazado 706471" d="M206.329,88.559c0,.714-.817,1.293-1.829,1.293s-1.827-.579-1.827-1.293V85.518c0-.714.817-1.292,1.827-1.292s1.829.579,1.829,1.292Z" transform="translate(-43.144 -17.929)" fill="#086d6d"/>
            <path id="Trazado_706472" data-name="Trazado 706472" d="M207.23,92.983a.4.4,0,0,1-.4.394H202.2a.394.394,0,1,1,0-.787h4.628a.4.4,0,0,1,.4.394" transform="translate(-42.958 -19.71)" fill="#353535"/>
            <rect id="Rectángulo_345706" data-name="Rectángulo 345706" width="2.516" height="1.407" transform="translate(160.157 71.473)" fill="#4c4b4c"/>
            <path id="Trazado_706473" data-name="Trazado 706473" d="M161.034,82.682a.2.2,0,0,1-.2.2.2.2,0,0,1-.2-.2v-.9a.2.2,0,0,1,.2-.2.2.2,0,0,1,.2.2Z" transform="translate(-34.195 -17.367)" fill="#06808b"/>
            <path id="Trazado_706474" data-name="Trazado 706474" d="M161.423,83.819a.685.685,0,0,1-1.37,0v-.842a.685.685,0,0,1,1.37,0Z" transform="translate(-34.071 -17.519)" fill="#592306"/>
            <path id="Trazado_706475" data-name="Trazado 706475" d="M162.2,88.19c0,.715-.819,1.293-1.829,1.293s-1.827-.579-1.827-1.293V85.148c0-.713.819-1.292,1.827-1.292s1.829.579,1.829,1.292Z" transform="translate(-33.75 -17.851)" fill="#086d6d"/>
            <path id="Trazado_706476" data-name="Trazado 706476" d="M163.1,92.615a.4.4,0,0,1-.4.392H158.07a.392.392,0,1,1,0-.785H162.7a.4.4,0,0,1,.4.393" transform="translate(-33.564 -19.632)" fill="#353535"/>
            <rect id="Rectángulo_345707" data-name="Rectángulo 345707" width="2.516" height="1.407" transform="translate(125.422 71.183)" fill="#4c4b4c"/>
          </g>
        </g>
      </g>
    </g>
  </g>
</svg>
