<svg xmlns="http://www.w3.org/2000/svg" xmlns:xlink="http://www.w3.org/1999/xlink" width="215.996" height="183.416" viewBox="0 0 215.996 183.416">
  <defs>
    <clipPath id="clip-path">
      <rect id="Rectángulo_345335" data-name="Rectángulo 345335" width="215.996" height="93.626" fill="none"/>
    </clipPath>
  </defs>
  <g id="Grupo_999976" data-name="Grupo 999976" transform="translate(-556.31 -9639.292)">
    <circle id="Elipse_7900" data-name="Elipse 7900" cx="91.708" cy="91.708" r="91.708" transform="translate(572.941 9639.292)" fill="#25ffff" opacity="0.5"/>
    <g id="Grupo_999430" data-name="Grupo 999430" transform="translate(556.309 9684.226)">
      <g id="Grupo_999429" data-name="Grupo 999429" transform="translate(0.001 0)" clip-path="url(#clip-path)">
        <path id="Trazado_705901" data-name="Trazado 705901" d="M51.84,2.348l11.845.163-.027,1.941,1.245.017L64.93,2.53l3.885.054c-.076-.128-.157-.25-.244-.367a3.8,3.8,0,0,0-.917-.9L51.857,1.1l-.132,0-.019,1.249c.029,0,.054,0,.083,0h.052" transform="translate(55.035 1.171)" fill="#37344c"/>
        <path id="Trazado_705902" data-name="Trazado 705902" d="M49.532,4.131l1.365.019a3.6,3.6,0,0,1,.656-.859,3.636,3.636,0,0,1,1.218-.784l.019-1.317a4.907,4.907,0,0,0-3.258,2.942" transform="translate(52.721 1.265)" fill="#37344c"/>
        <path id="Trazado_705903" data-name="Trazado 705903" d="M61.067,2.477l14.5.2c.153-.105.306-.209.467-.3a7.531,7.531,0,0,1,2.376-.9L60.313,1.22c.033.043.068.087.1.132a6.209,6.209,0,0,1,.652,1.125" transform="translate(64.196 1.298)" fill="#37344c"/>
        <path id="Trazado_705904" data-name="Trazado 705904" d="M80.09,1.493l-5.553-.076,6.625.211a4.991,4.991,0,0,0-1.071-.134" transform="translate(79.336 1.508)" fill="#37344c"/>
        <path id="Trazado_705905" data-name="Trazado 705905" d="M1.005,22.011a.818.818,0,0,1,.268.475l.59,3.633a.585.585,0,0,1-.118.471l3.792.054A32.821,32.821,0,0,1,4,22.052Z" transform="translate(1.07 23.428)" fill="#524d6b"/>
        <path id="Trazado_705906" data-name="Trazado 705906" d="M2.933,26.236,2.345,22.6a.82.82,0,0,0-.27-.475.8.8,0,0,0-.516-.213L.575,21.9a.552.552,0,0,0-.566.669L.6,26.2a.841.841,0,0,0,.784.687l.985.014a.564.564,0,0,0,.45-.2.588.588,0,0,0,.116-.471" transform="translate(0.001 23.311)" fill="#3b3a51"/>
        <path id="Trazado_705907" data-name="Trazado 705907" d="M4.318,29.336,3.73,25.7a.826.826,0,0,0-.27-.475.8.8,0,0,0-.516-.213L1.96,25a.552.552,0,0,0-.566.669L1.983,29.3a.841.841,0,0,0,.784.687l.985.014a.564.564,0,0,0,.45-.2.588.588,0,0,0,.116-.471" transform="translate(1.475 26.61)" fill="#3b3a51"/>
        <path id="Trazado_705908" data-name="Trazado 705908" d="M59.923,29.29l-1.3-.107a.8.8,0,0,1-.745.473l-.027,0-9.909-.138A10.065,10.065,0,0,1,51.4,32.137l10.852.221a30.67,30.67,0,0,1-2.265-2.973l-.062-.095" transform="translate(51.032 31.061)" fill="#ffc043"/>
        <path id="Trazado_705909" data-name="Trazado 705909" d="M33.684,28.469l2.12.029,1.063-1.565Q34.73,26.484,32.573,26q.508,1.254,1.111,2.467" transform="translate(34.67 27.676)" fill="#ffc043"/>
        <path id="Trazado_705910" data-name="Trazado 705910" d="M36.182,27.68l5.483.076q-2.449-.449-4.882-.931Z" transform="translate(38.511 28.552)" fill="#ffc043"/>
        <path id="Trazado_705911" data-name="Trazado 705911" d="M9.265,23.6l7.291.008q2.586.009,5.171.023A115.758,115.758,0,0,1,4.051,12.568,32.647,32.647,0,0,0,1.974,23.6l3.646-.012Z" transform="translate(2.101 13.377)" fill="#ffc043"/>
        <path id="Trazado_705912" data-name="Trazado 705912" d="M14.564,28.882l-8.509-.118Q7,29.817,8.026,30.787l3.613.074a9.313,9.313,0,0,1,2.925-1.98" transform="translate(6.445 30.615)" fill="#ffc043"/>
        <path id="Trazado_705913" data-name="Trazado 705913" d="M35.963,26.968a109.461,109.461,0,0,1-10.636-3.276l.9,2.834-2.894,4.123,19.385.268q-.647-1.3-1.187-2.653-2.753-.619-5.57-1.3" transform="translate(24.837 25.217)" fill="#ffc043"/>
        <path id="Trazado_705914" data-name="Trazado 705914" d="M15.518,19.9a41.631,41.631,0,0,0,1.249,7.576,37.139,37.139,0,0,0,2.63,7.035l8.039.111,4.851-7.137.735.01c-5.755-2.122-11.272-4.624-16.887-7.3-.206-.1-.411-.2-.617-.3" transform="translate(16.517 21.182)" fill="#ffc043"/>
        <path id="Trazado_705915" data-name="Trazado 705915" d="M36.078,31.556l17.349.355A9.627,9.627,0,0,1,56.8,29.467l-22.549-.312q.852,1.245,1.825,2.4" transform="translate(36.458 31.032)" fill="#ffc043"/>
        <path id="Trazado_705916" data-name="Trazado 705916" d="M30.445,29.1A9.9,9.9,0,0,1,33.68,31.48l5.675.118q-.972-1.155-1.825-2.4Z" transform="translate(32.405 30.975)" fill="#ffc043"/>
        <path id="Trazado_705917" data-name="Trazado 705917" d="M12.946,28.86a9.773,9.773,0,0,1,3,2.137l9.409.192q-.87-1.053-1.643-2.18Z" transform="translate(13.779 30.718)" fill="#ffc043"/>
        <path id="Trazado_705918" data-name="Trazado 705918" d="M20.182,31.123l14.065.287A9.486,9.486,0,0,1,37.4,29.2l-18.864-.262q.771,1.13,1.643,2.186" transform="translate(19.733 30.8)" fill="#ffc043"/>
        <path id="Trazado_705919" data-name="Trazado 705919" d="M8.026,37.071a.8.8,0,0,1,.77-.789h.017l.027,0,.029,0,6.466.089,4.891-7.2,1.29.019.972,3.055L19.55,36.431l13.468.186A37.963,37.963,0,0,1,30.427,29.8a41.783,41.783,0,0,1-1.338-8.185q-3.2-1.536-6.344-3.148-3.1-.071-6.193-.145l-7.289-.194-3.644-.1-3.644-.114A32.686,32.686,0,0,0,4.509,31c.256.609.528,1.212.817,1.8a33.421,33.421,0,0,0,2.7,4.529Z" transform="translate(2.099 19.067)" fill="#ffc043"/>
        <path id="Trazado_705920" data-name="Trazado 705920" d="M38.571,17.949c0,.2.008.394.012.592,3.931.07,7.859.136,11.788.221-.006-.217-.012-.434-.014-.65Z" transform="translate(41.054 19.104)" fill="#ffd364"/>
        <path id="Trazado_705921" data-name="Trazado 705921" d="M45.753,18.667l-.848-.006c.045,1.1.132,2.194.262,3.276l.82.01c-.12-1.084-.2-2.18-.233-3.28" transform="translate(47.796 19.862)" fill="#ffd364"/>
        <path id="Trazado_705922" data-name="Trazado 705922" d="M37.891,15a41.941,41.941,0,0,0-.341,4.556l.867.012a43.3,43.3,0,0,1,.359-4.556Z" transform="translate(39.967 15.963)" fill="#ffd364"/>
        <path id="Trazado_705923" data-name="Trazado 705923" d="M45.746,18.048l-.857-.012c0,.221.006.44.014.659l.851.019c0-.221-.008-.444-.008-.665" transform="translate(47.779 19.197)" fill="#ffd364"/>
        <path id="Trazado_705924" data-name="Trazado 705924" d="M38.8,12.2a40.7,40.7,0,0,0-1,4.548l.89.012a41.428,41.428,0,0,1,1-4.548Z" transform="translate(40.235 12.985)" fill="#ffd364"/>
        <path id="Trazado_705925" data-name="Trazado 705925" d="M53.118,30.135c.431.037.865.072,1.3.107q-.638-.954-1.206-1.953l-.021,1.528a.813.813,0,0,1-.07.318" transform="translate(56.538 30.11)" fill="#ffd364"/>
        <path id="Trazado_705926" data-name="Trazado 705926" d="M38.811,21.537,50.6,21.7c-.109-.989-.188-1.986-.227-2.989-3.926-.023-7.855-.066-11.781-.105.039.985.116,1.961.223,2.931" transform="translate(41.072 19.803)" fill="#ffd364"/>
        <path id="Trazado_705927" data-name="Trazado 705927" d="M38.579,19.425l11.781.163c.035-1.443.14-2.874.316-4.279l-11.767-.163a42.322,42.322,0,0,0-.33,4.279" transform="translate(41.063 16.121)" fill="#ffd364"/>
        <path id="Trazado_705928" data-name="Trazado 705928" d="M39.674,25.054l11.761.163a42.065,42.065,0,0,1-.863-4.3L38.79,20.758a40,40,0,0,0,.884,4.3" transform="translate(41.287 22.094)" fill="#ffd364"/>
        <path id="Trazado_705929" data-name="Trazado 705929" d="M38.848,16.619l11.757.163a41.806,41.806,0,0,1,.917-4.271L39.8,12.348a39.95,39.95,0,0,0-.952,4.271" transform="translate(41.349 13.143)" fill="#ffd364"/>
        <path id="Trazado_705930" data-name="Trazado 705930" d="M37.765,20.609a39.861,39.861,0,0,0,.958,4.575l.739.01a41.359,41.359,0,0,1-.89-4.575Z" transform="translate(40.196 21.935)" fill="#ffd364"/>
        <path id="Trazado_705931" data-name="Trazado 705931" d="M38.406,17.813l-.859-.012c0,.287.008.574.017.861l.853.017c-.006-.289-.01-.576-.01-.865" transform="translate(39.964 18.947)" fill="#ffd364"/>
        <path id="Trazado_705932" data-name="Trazado 705932" d="M37.569,18.6c.047.981.126,1.957.239,2.923l.822.012q-.158-1.455-.219-2.927l-.842-.008" transform="translate(39.988 19.793)" fill="#ffd364"/>
        <path id="Trazado_705933" data-name="Trazado 705933" d="M71.637,18.883q-5.007-.022-10.014-.054a39.459,39.459,0,0,0,3.462,15.051.628.628,0,0,1-1.142.524,38.4,38.4,0,0,1-1.955-5.262l-.71-.01a36.512,36.512,0,0,0,1.691,4.443.628.628,0,0,1-1.142.524,37.985,37.985,0,0,1-1.87-4.985L48.2,28.951a36.629,36.629,0,0,0,1.724,4.535.628.628,0,0,1-1.142.524,38.352,38.352,0,0,1-1.98-5.355l-.714-.01a36.735,36.735,0,0,0,1.72,4.535.628.628,0,0,1-.57.89.633.633,0,0,1-.572-.365,40.616,40.616,0,0,1-3.555-15.039l-11.938-.149A42.426,42.426,0,0,0,32.54,29.4a37.472,37.472,0,0,0,1.521,4.566q2.158.483,4.294.931l3.745-5.51,1.29.019.972,3.055L42.11,35.669q2.437.483,4.882.931l16.819.233,4.769-7.015,1.29.017.97,3.055-2.81,4L75.66,37a37.966,37.966,0,0,1-2.591-6.821,42.719,42.719,0,0,1-1.433-11.292" transform="translate(33.184 19.71)" fill="#ffd364"/>
        <path id="Trazado_705934" data-name="Trazado 705934" d="M45.917,20.856l-.8-.01a39.847,39.847,0,0,0,.968,4.573l.735.01a41.737,41.737,0,0,1-.9-4.573" transform="translate(48.018 22.188)" fill="#ffd364"/>
        <path id="Trazado_705935" data-name="Trazado 705935" d="M39.532,13.815l11.7.161a38.756,38.756,0,0,1,1.608-4.253L41.2,9.56a37.628,37.628,0,0,0-1.672,4.255" transform="translate(42.077 10.175)" fill="#ffd364"/>
        <path id="Trazado_705936" data-name="Trazado 705936" d="M43.064,33.083C43.233,20.891,48.52,9.7,56.86,3.88a.628.628,0,0,1,.718,1.03,26.414,26.414,0,0,0-5.223,4.857l.741.01a28.023,28.023,0,0,1,5.879-5.592.628.628,0,0,1,.718,1.03A26.406,26.406,0,0,0,54.7,9.8l11.366.157a27.9,27.9,0,0,1,5.95-5.683.635.635,0,0,1,.242-.1l.021-1.418-1.854-.027L69.062,2.71,55.677,2.524c-.155.008-.31.017-.464.029l-.714.074c-.237.027-.477.047-.712.095l-.706.12c-.12.021-.237.035-.355.062l-.349.083-.7.163c-.233.052-.458.132-.687.2a21.711,21.711,0,0,0-5.2,2.349,24.869,24.869,0,0,0-4.469,3.53A30.046,30.046,0,0,0,37.678,13.6,36.218,36.218,0,0,0,32.847,23.88a42.245,42.245,0,0,0-1.664,10.838l11.9.184c-.017-.6-.025-1.212-.017-1.819" transform="translate(33.191 2.686)" fill="#ffd364"/>
        <path id="Trazado_705937" data-name="Trazado 705937" d="M58.454,4.452a.628.628,0,1,1,.718,1.03c-8.014,5.592-13.094,16.4-13.257,28.191-.006.485,0,.968.008,1.451q5.016.105,10.035.223A42.823,42.823,0,0,1,57.7,24.1a38.255,38.255,0,0,1,2.108-5.417,33.4,33.4,0,0,1,2.946-5.01,27.369,27.369,0,0,1,8.439-7.88,22.258,22.258,0,0,1,4.608-2,7.021,7.021,0,0,0-.107-.9l-4.624-.064-1.247-.017L57.847,2.644l-.025,1.724a.621.621,0,0,1-.584.609.6.6,0,0,1-.182.2,26.568,26.568,0,0,0-5.3,4.948l.741.01a28.115,28.115,0,0,1,5.954-5.683" transform="translate(48.867 2.814)" fill="#ffd364"/>
        <path id="Trazado_705938" data-name="Trazado 705938" d="M18.286,18.313q-3.124-.065-6.251-.134c2.1,1.08,4.215,2.124,6.346,3.15-.066-1-.1-2.011-.095-3.016" transform="translate(12.81 19.349)" fill="#ffd364"/>
        <path id="Trazado_705939" data-name="Trazado 705939" d="M48.4,9.66l-.861-.012a37.218,37.218,0,0,0-1.753,4.529l.886.012A38.688,38.688,0,0,1,48.4,9.66" transform="translate(48.738 10.269)" fill="#ffd364"/>
        <path id="Trazado_705940" data-name="Trazado 705940" d="M50.491,6.876l-.776-.01a32.761,32.761,0,0,0-2.783,4.507l.851.012a34.357,34.357,0,0,1,2.708-4.509" transform="translate(49.953 7.308)" fill="#ffd364"/>
        <path id="Trazado_705941" data-name="Trazado 705941" d="M61.942,3.124l.355-.07c.118-.025.237-.035.357-.054l.716-.095c.237-.037.479-.047.718-.062l.345-.023-3.481-.047c.027.178.05.357.064.541.072-.019.142-.035.215-.047Z" transform="translate(64.877 2.951)" fill="#ffd364"/>
        <path id="Trazado_705942" data-name="Trazado 705942" d="M58.954,18.706,51.663,18.7l-.485,0a42.354,42.354,0,0,0,1.36,11.086,36.323,36.323,0,0,0,4.544,10.411c.07.109.145.219.217.326,5.227.419,10.442.743,15.665,1.047A38.585,38.585,0,0,1,66.246,18.7L62.6,18.71Z" transform="translate(54.471 19.899)" fill="#ffd364"/>
        <path id="Trazado_705943" data-name="Trazado 705943" d="M44.341,32.758q2.821.678,5.57,1.3a38.754,38.754,0,0,1-1.4-4.168,42.755,42.755,0,0,1-1.435-11.1l-1.142-.014-14.581-.225c-4.86-.089-9.719-.165-14.579-.27q-.656-.012-1.309-.029-.009,1.706.111,3.4l.617.3c5.615,2.678,11.131,5.18,16.887,7.3l.555.008.07.221a109.461,109.461,0,0,0,10.636,3.276" transform="translate(16.459 19.427)" fill="#ffd364"/>
        <path id="Trazado_705944" data-name="Trazado 705944" d="M61.328,9.5a29.936,29.936,0,0,0-3.648,4.372A36.218,36.218,0,0,0,52.85,24.157,42.351,42.351,0,0,0,51.18,35.2c.163,0,.324.008.487.01l7.287.2,3.646.1,3.644.114c.163-11.79,5.074-22.068,12.326-27.8a23.651,23.651,0,0,1,3.951-2.547,6.286,6.286,0,0,1,.915-2.358L75.68,2.8c-.155.008-.31.017-.464.027L74.5,2.9c-.237.027-.477.047-.712.095l-.708.118c-.116.023-.235.037-.353.064l-.349.083-.7.163c-.083.019-.163.041-.246.064q.025.344.019.694a.622.622,0,0,1-.623.615h-.008a.623.623,0,0,1-.615-.632c0-.1,0-.194,0-.289a21.8,21.8,0,0,0-4.41,2.1A24.778,24.778,0,0,0,61.328,9.5" transform="translate(54.475 2.981)" fill="#ffd364"/>
        <path id="Trazado_705945" data-name="Trazado 705945" d="M46.1,15.245l-.884-.012a42.019,42.019,0,0,0-.33,4.556l.863.012a43.339,43.339,0,0,1,.351-4.556" transform="translate(47.781 16.213)" fill="#ffd364"/>
        <path id="Trazado_705946" data-name="Trazado 705946" d="M39.1,4.191A.627.627,0,0,1,39,4.5a21.628,21.628,0,0,1,3.6-1.311c.233-.058.464-.134.7-.178l.708-.142.355-.07c.118-.025.239-.035.357-.054l.716-.095c.239-.037.479-.047.72-.062l.345-.023-7.39-.1Z" transform="translate(41.514 2.628)" fill="#ffd364"/>
        <path id="Trazado_705947" data-name="Trazado 705947" d="M42.414,6.63a32.661,32.661,0,0,0-2.8,4.507l.851.012A34.532,34.532,0,0,1,43.189,6.64Z" transform="translate(42.163 7.056)" fill="#ffd364"/>
        <path id="Trazado_705948" data-name="Trazado 705948" d="M40.707,11.01l11.594.161a34.657,34.657,0,0,1,2.512-4.234L43.364,6.778a32.318,32.318,0,0,0-2.657,4.232" transform="translate(43.328 7.214)" fill="#ffd364"/>
        <path id="Trazado_705949" data-name="Trazado 705949" d="M47.011,12.448l-.888-.012a40.224,40.224,0,0,0-.987,4.548l.886.012a41.3,41.3,0,0,1,.989-4.548" transform="translate(48.043 13.236)" fill="#ffd364"/>
        <path id="Trazado_705950" data-name="Trazado 705950" d="M27.932,34.732a42.662,42.662,0,0,1,1.742-11.158,38.344,38.344,0,0,1,2.106-5.417,33.756,33.756,0,0,1,2.946-5.01,27.441,27.441,0,0,1,8.439-7.88A22.053,22.053,0,0,1,48.51,3.056c.235-.058.464-.134.7-.178l.71-.142.355-.07c.118-.025.237-.035.357-.054l.716-.095c.237-.037.479-.047.718-.062l.347-.023L34.3,2.181A33.074,33.074,0,0,0,2.98,23.63,116.2,116.2,0,0,0,20.659,34.688q3.635.015,7.273.043" transform="translate(3.172 2.317)" fill="#ffd364"/>
        <path id="Trazado_705951" data-name="Trazado 705951" d="M40.226,9.413a37.258,37.258,0,0,0-1.763,4.529l.884.012a38.62,38.62,0,0,1,1.744-4.529Z" transform="translate(40.939 10.019)" fill="#ffd364"/>
        <path id="Trazado_705952" data-name="Trazado 705952" d="M38.786,2.409c-.237.025-.477.047-.712.093l-.708.12c-.118.021-.235.035-.353.064l-.349.081-.7.163c-.233.052-.458.134-.687.2a21.755,21.755,0,0,0-5.2,2.347,24.775,24.775,0,0,0-4.467,3.532,29.9,29.9,0,0,0-3.648,4.37A36.27,36.27,0,0,0,17.135,23.66,42.377,42.377,0,0,0,15.467,34.6c.438,0,.873,0,1.311.008,4.86.029,9.721.089,14.581.132l14.581.18,1.144.019a42.58,42.58,0,0,1,1.738-11.053,38.246,38.246,0,0,1,2.106-5.417,33.589,33.589,0,0,1,2.948-5.01,27.387,27.387,0,0,1,8.437-7.88q.56-.319,1.135-.607a.622.622,0,0,1-.547-.626l.025-1.722-14.345-.2a7.622,7.622,0,0,0-.217,1.715l-1.245-.017v0a8.98,8.98,0,0,1,.188-1.713l-7.341-.1c-.155.006-.31.014-.464.027Z" transform="translate(16.463 2.454)" fill="#ffd364"/>
        <path id="Trazado_705953" data-name="Trazado 705953" d="M73.58,54.232c.452-12.715.535-25.34,1.173-38.053.173-3.65.349-7.3.663-10.952-7.25,5.737-12.161,16.015-12.324,27.805A38.57,38.57,0,0,0,69.807,55.9c-5.221-.3-10.437-.628-15.665-1.047a30.339,30.339,0,0,0,2.287,3.018l11.561.235,5.477.076q.04-1.976.114-3.951" transform="translate(57.628 5.564)" fill="#ffc043"/>
        <path id="Trazado_705954" data-name="Trazado 705954" d="M69.32,5.2A6.081,6.081,0,0,1,69.405,4a23.751,23.751,0,0,0-3.953,2.547c-.314,3.648-.489,7.3-.663,10.949-.638,12.712-.72,25.338-1.173,38.053Q63.542,57.52,63.5,59.5l4.583.064Z" transform="translate(67.591 4.252)" fill="#ffb32c"/>
        <path id="Trazado_705955" data-name="Trazado 705955" d="M62.68,56.687a36.291,36.291,0,0,1-4.544-10.411,42.354,42.354,0,0,1-1.36-11.086l.485,0,7.291.008,3.646,0,3.646-.012L68.2,35.079l-3.646-.1-7.287-.194c-.163,0-.324-.008-.485-.01A42.277,42.277,0,0,1,58.45,23.731a36.327,36.327,0,0,1,4.831-10.281,30.029,30.029,0,0,1,3.648-4.37A24.687,24.687,0,0,1,71.4,5.55a21.853,21.853,0,0,1,4.41-2.1c0-.087-.006-.171-.01-.256a22.188,22.188,0,0,0-4.608,2,27.418,27.418,0,0,0-8.439,7.88,33.4,33.4,0,0,0-2.946,5.01A38.352,38.352,0,0,0,57.7,23.506a42.748,42.748,0,0,0-1.742,11.249q-5.02-.118-10.037-.223c0,.2.008.4.014.6q5.007.034,10.016.054a42.634,42.634,0,0,0,1.433,11.292A37.957,37.957,0,0,0,59.969,53.3l.1,0,.027,0a.8.8,0,0,1,.793.813l-.012.881q.57.994,1.206,1.953l.062.095a30.668,30.668,0,0,0,2.265,2.973l.776.014A30.054,30.054,0,0,1,62.9,57.013c-.072-.109-.147-.217-.217-.326" transform="translate(48.873 3.405)" fill="#ffb32c"/>
        <path id="Trazado_705956" data-name="Trazado 705956" d="M61.944,3.285l.349-.083c.116-.027.235-.041.353-.062l.708-.12c.235-.047.473-.068.712-.093l.714-.076c.155-.012.31-.021.464-.027.324-.017.648-.025.972-.041-.479,0-.96-.01-1.441.006l-.376.023-.345.023c-.239.014-.481.025-.718.062l-.716.095c-.12.019-.239.029-.357.052l-.355.072-.71.142c-.072.012-.142.029-.215.047.006.068.012.138.017.209.081-.025.163-.047.246-.066Z" transform="translate(64.91 2.96)" fill="#ffb32c"/>
        <path id="Trazado_705957" data-name="Trazado 705957" d="M33.877,29.15q.852,1.242,1.825,2.4l.776.017a29.9,29.9,0,0,1-1.825-2.4Z" transform="translate(36.058 31.026)" fill="#ffb32c"/>
        <path id="Trazado_705958" data-name="Trazado 705958" d="M18.163,28.932q.771,1.124,1.643,2.18l.776.017q-.87-1.056-1.643-2.186Z" transform="translate(19.332 30.794)" fill="#ffb32c"/>
        <path id="Trazado_705959" data-name="Trazado 705959" d="M9.263,34.759l7.289.194q3.1.074,6.191.142,3.124.071,6.251.134c0,1.005.029,2.013.095,3.016a41.629,41.629,0,0,0,1.338,8.185,38.015,38.015,0,0,0,2.589,6.821l.8.01a37.18,37.18,0,0,1-2.632-7.033,41.84,41.84,0,0,1-1.249-7.576q-.121-1.7-.111-3.4l1.309.027c4.86.105,9.719.182,14.579.27l14.581.225,1.144.014a42.652,42.652,0,0,0,1.433,11.1,38.6,38.6,0,0,0,1.4,4.168q.542,1.35,1.187,2.653l.8.01q-.6-1.211-1.111-2.467a37.5,37.5,0,0,1-1.521-4.568A42.41,42.41,0,0,1,62.26,35.8l11.938.149c-.012-.262-.021-.526-.029-.789l-11.9-.182a42.337,42.337,0,0,1,1.664-10.84,36.274,36.274,0,0,1,4.831-10.281,30.046,30.046,0,0,1,3.648-4.372,24.869,24.869,0,0,1,4.469-3.53A21.711,21.711,0,0,1,82.08,3.6c.229-.064.454-.147.687-.2l.7-.163.349-.083c.116-.027.235-.041.353-.062l.708-.12c.235-.047.473-.068.71-.093l.716-.076c.153-.012.31-.021.464-.029.324-.014.648-.023.972-.039-.479,0-.96-.01-1.441,0l-.376.025-.345.021c-.239.014-.481.027-.718.064l-.716.095c-.12.019-.242.029-.359.052l-.353.072-.71.14c-.237.045-.467.12-.7.18a21.35,21.35,0,0,0-3.6,1.309.628.628,0,0,1-.533.3h-.008a.384.384,0,0,1-.068-.008c-.382.194-.762.394-1.133.609a27.369,27.369,0,0,0-8.439,7.88,33.484,33.484,0,0,0-2.946,5.008,38.377,38.377,0,0,0-2.108,5.419,42.754,42.754,0,0,0-1.738,11.051L60.3,34.943l-14.581-.18c-4.86-.045-9.719-.1-14.581-.132l-1.309-.01A42.373,42.373,0,0,1,31.5,23.684,36.3,36.3,0,0,1,36.327,13.4a30.155,30.155,0,0,1,3.648-4.372A24.942,24.942,0,0,1,44.444,5.5a21.747,21.747,0,0,1,5.2-2.349c.229-.064.456-.147.69-.2l.7-.163.349-.083c.116-.027.235-.041.353-.062l.708-.12c.235-.047.473-.068.71-.093l.716-.076c.155-.012.31-.021.464-.027.324-.017.648-.025.972-.041-.479,0-.96-.01-1.441,0l-.376.025-.345.021c-.239.017-.481.027-.718.064L51.7,2.5c-.12.019-.239.029-.359.054l-.353.07-.71.142c-.237.043-.467.12-.7.178a22.019,22.019,0,0,0-5.345,2.211,27.394,27.394,0,0,0-8.439,7.88,33.4,33.4,0,0,0-2.946,5.01,38.247,38.247,0,0,0-2.106,5.417A42.662,42.662,0,0,0,29,34.616q-3.638-.028-7.273-.045-2.586-.012-5.173-.023L9.265,34.54l-3.646,0-3.646.012,3.646.114Z" transform="translate(2.101 2.433)" fill="#ffb32c"/>
        <path id="Trazado_705960" data-name="Trazado 705960" d="M38.6,19c3.926.039,7.855.083,11.781.105-.008-.215-.012-.431-.017-.648-3.931-.085-7.859-.151-11.788-.221.006.256.012.51.023.764" transform="translate(41.061 19.41)" fill="#ffb32c"/>
        <path id="Trazado_705961" data-name="Trazado 705961" d="M45.749,18.374l-.853-.019q.006.316.019.632l.848.006c-.006-.206-.01-.413-.014-.619" transform="translate(47.786 19.536)" fill="#ffb32c"/>
        <path id="Trazado_705962" data-name="Trazado 705962" d="M38.407,18.234l-.851-.017c.006.262.017.522.029.782l.842.008c-.01-.258-.014-.516-.021-.774" transform="translate(39.974 19.389)" fill="#ffb32c"/>
        <path id="Trazado_705963" data-name="Trazado 705963" d="M51.324,46.76c-.064-.749-.1-1.513-.095-2.287.008-5.7,1.819-10.714,4.585-13.732l-17.349-.353-.778-.017-5.675-.116c2.874,3.1,4.756,8.288,4.748,14.131,0,.729-.035,1.447-.093,2.149l7.807.132-.006.091,8.208.114,0-.085Z" transform="translate(34.073 32.202)" fill="#3b3a51"/>
        <path id="Trazado_705964" data-name="Trazado 705964" d="M33.942,46.641c-.064-.749-.1-1.513-.095-2.287.008-5.853,1.914-10.976,4.8-13.963L24.587,30.1l-.776-.017L14.4,29.9c3,3.068,4.985,8.375,4.977,14.372,0,.729-.033,1.447-.093,2.149l7.807.132-.006.091,8.208.114,0-.085Z" transform="translate(15.328 31.819)" fill="#3b3a51"/>
        <path id="Trazado_705965" data-name="Trazado 705965" d="M66.7,44.522l.155-11.1a2.419,2.419,0,0,1,2.446-2.38l3.507.047-11.561-.235-.776-.017-10.852-.221c2.75,3.123,4.538,8.2,4.529,13.889,0,.729-.033,1.447-.091,2.151l7.807.13-.008.091,15.165.211,0-.006-7.944-.111a2.42,2.42,0,0,1-2.38-2.446" transform="translate(52.811 32.585)" fill="#3b3a51"/>
        <path id="Trazado_705966" data-name="Trazado 705966" d="M10.012,46.354c-.064-.749-.1-1.513-.095-2.287.008-6.007,2.017-11.247,5.035-14.195L11.339,29.8l-5.049-.1a3.277,3.277,0,0,0-3.264,3.995L5.317,43.87a3.274,3.274,0,0,0,3.15,2.556l2.9.039c0-.029,0-.058,0-.087Z" transform="translate(3.134 31.605)" fill="#3b3a51"/>
        <path id="Trazado_705967" data-name="Trazado 705967" d="M62.885,48.044c.058-.7.091-1.42.091-2.149C62.986,40.2,61.2,35.13,58.446,32a10.058,10.058,0,0,0-3.452-2.62l-5.714-.078A9.628,9.628,0,0,0,45.9,31.748c-2.766,3.018-4.577,8.028-4.585,13.732,0,.774.033,1.538.095,2.287l1.348.027q-.04-.7-.039-1.414c.012-8.14,4.011-14.663,8.931-14.57s8.9,6.771,8.885,14.911-4.009,14.665-8.931,14.57l10.338.235-.054-.052c4.612.045,8.357-5.758,8.792-13.208,0-.031,0-.06.006-.091Z" transform="translate(43.98 31.192)" fill="#292938"/>
        <path id="Trazado_705968" data-name="Trazado 705968" d="M59.816,45.432c.012-8.14-3.966-14.816-8.885-14.911S42.012,36.951,42,45.091q0,.715.039,1.414l0,.085c.444,7.446,4.228,13.324,8.844,13.412,4.919.095,8.916-6.428,8.928-14.57M45.051,47.874a16.215,16.215,0,0,1-.223-2.729c.008-5.557,2.737-10.01,6.1-9.944a5.057,5.057,0,0,1,3.912,2.44,13.652,13.652,0,0,1,2.153,7.737c-.008,5.557-2.737,10.01-6.1,9.946-2.787-.054-5.13-3.2-5.842-7.45" transform="translate(44.704 32.484)" fill="#3b3b4c"/>
        <path id="Trazado_705969" data-name="Trazado 705969" d="M45.405,45.005a11.882,11.882,0,0,1,.008-4.476,9.07,9.07,0,0,1,.692-2.141,5.748,5.748,0,0,1,1.311-1.837,3.558,3.558,0,0,1,.96-.619,2.776,2.776,0,0,1,1.135-.219,3.251,3.251,0,0,1,2.093.91,6.049,6.049,0,0,1,1.3,1.765,31.613,31.613,0,0,0,.473-3.163,5.061,5.061,0,0,0-3.91-2.44c-3.359-.064-6.088,4.389-6.1,9.946a16.207,16.207,0,0,0,.223,2.727,8.563,8.563,0,0,0,1.984.281c-.064-.244-.124-.489-.171-.735" transform="translate(46.162 34.896)" fill="#aeaccc"/>
        <path id="Trazado_705970" data-name="Trazado 705970" d="M44.664,44.131a6.088,6.088,0,0,0,4.967-2.219,10.2,10.2,0,0,0,2.2-4.571c-.043-.107-.087-.217-.134-.322a6.042,6.042,0,0,0-1.222-1.806,3.021,3.021,0,0,0-1.918-.91,2.62,2.62,0,0,0-1.065.171,3.4,3.4,0,0,0-.941.566A5.566,5.566,0,0,0,45.213,36.8a9.92,9.92,0,0,0-.958,4.354,10.954,10.954,0,0,0,.409,2.973" transform="translate(47.104 36.506)" fill="#aeaccc"/>
        <path id="Trazado_705971" data-name="Trazado 705971" d="M55.416,41.706a13.652,13.652,0,0,0-2.153-7.737,31.7,31.7,0,0,1-.475,3.163c.017.031.033.062.047.093a10.346,10.346,0,0,1,.952,4.447,10.115,10.115,0,0,1-.981,4.44,5.753,5.753,0,0,1-1.389,1.829,3.64,3.64,0,0,1-1,.6,2.8,2.8,0,0,1-1.148.184,3.21,3.21,0,0,1-2.044-.962,6.225,6.225,0,0,1-1.268-1.866,8.852,8.852,0,0,1-.5-1.414,8.576,8.576,0,0,1-1.986-.279c.712,4.246,3.055,7.4,5.842,7.45,3.359.064,6.088-4.389,6.1-9.946" transform="translate(46.277 36.156)" fill="#9b9bbc"/>
        <path id="Trazado_705972" data-name="Trazado 705972" d="M44.453,42.562a8.611,8.611,0,0,0,.524,1.389,5.927,5.927,0,0,0,1.3,1.8,3.054,3.054,0,0,0,1.965.857,2.6,2.6,0,0,0,1.055-.2,3.417,3.417,0,0,0,.9-.586,5.587,5.587,0,0,0,1.263-1.773,8.856,8.856,0,0,0,.675-2.093,11.069,11.069,0,0,0,.213-2.2,11.384,11.384,0,0,0-.2-2.2,9.518,9.518,0,0,0-.524-1.779,10.2,10.2,0,0,1-2.2,4.571,6.088,6.088,0,0,1-4.967,2.219" transform="translate(47.315 38.075)" fill="#9b9bbc"/>
        <path id="Trazado_705973" data-name="Trazado 705973" d="M50.665,35.115a3.256,3.256,0,0,0-2.1-.91,2.807,2.807,0,0,0-1.133.219,3.527,3.527,0,0,0-.962.621,5.757,5.757,0,0,0-1.309,1.835,8.885,8.885,0,0,0-.692,2.141,11.327,11.327,0,0,0-.219,2.238,9.922,9.922,0,0,1,.96-4.354,5.507,5.507,0,0,1,1.342-1.765,3.362,3.362,0,0,1,.939-.566,2.63,2.63,0,0,1,1.067-.171,3.021,3.021,0,0,1,1.916.91A6,6,0,0,1,51.7,37.12c.05.105.091.215.134.322a9.518,9.518,0,0,1,.524,1.779,11.226,11.226,0,0,1,.206,2.2,11.071,11.071,0,0,1-.215,2.2,8.856,8.856,0,0,1-.675,2.093,5.581,5.581,0,0,1-1.261,1.773,3.4,3.4,0,0,1-.906.586,2.6,2.6,0,0,1-1.053.2,3.055,3.055,0,0,1-1.967-.857,5.962,5.962,0,0,1-1.3-1.8,8.809,8.809,0,0,1-.524-1.389,10.954,10.954,0,0,1-.409-2.973,11.477,11.477,0,0,0,.211,2.238c.047.248.105.491.171.735a8.767,8.767,0,0,0,.5,1.412A6.13,6.13,0,0,0,46.4,47.51a3.207,3.207,0,0,0,2.044.964A2.8,2.8,0,0,0,49.6,48.29a3.647,3.647,0,0,0,1-.6,5.728,5.728,0,0,0,1.391-1.827,10.113,10.113,0,0,0,.979-4.44,10.338,10.338,0,0,0-.95-4.447c-.017-.031-.033-.062-.047-.093a6.068,6.068,0,0,0-1.3-1.767" transform="translate(47.104 36.405)" fill="#7f7fa5"/>
        <path id="Trazado_705974" data-name="Trazado 705974" d="M45.386,47.8c.058-.7.091-1.42.091-2.151.01-5.842-1.874-11.03-4.746-14.129a9.939,9.939,0,0,0-3.235-2.38l-5.714-.078a9.456,9.456,0,0,0-3.156,2.211c-2.89,2.987-4.8,8.111-4.8,13.963,0,.774.031,1.538.095,2.287l1.348.027q-.04-.7-.039-1.414c.012-8.14,4.011-14.663,8.931-14.57s8.9,6.771,8.885,14.911S39.029,61.144,34.11,61.05l10.338.235-.054-.052c4.612.045,8.357-5.758,8.792-13.208,0-.031,0-.06.006-.091Z" transform="translate(25.355 30.935)" fill="#292938"/>
        <path id="Trazado_705975" data-name="Trazado 705975" d="M42.317,45.189c.012-8.14-3.966-14.816-8.885-14.911s-8.918,6.431-8.931,14.57c0,.477.014.948.039,1.412l0,.087c.444,7.446,4.23,13.324,8.844,13.412,4.919.095,8.916-6.428,8.928-14.57M27.552,47.631a16.215,16.215,0,0,1-.223-2.729c.008-5.557,2.737-10.01,6.1-9.944a5.057,5.057,0,0,1,3.912,2.44,13.652,13.652,0,0,1,2.153,7.737c-.008,5.557-2.737,10.01-6.1,9.946-2.787-.054-5.13-3.2-5.842-7.45" transform="translate(26.078 32.225)" fill="#3b3b4c"/>
        <path id="Trazado_705976" data-name="Trazado 705976" d="M27.907,44.763a11.882,11.882,0,0,1,.008-4.476,9.071,9.071,0,0,1,.692-2.141,5.718,5.718,0,0,1,1.311-1.835,3.516,3.516,0,0,1,.96-.621,2.776,2.776,0,0,1,1.135-.219,3.251,3.251,0,0,1,2.093.91,6.049,6.049,0,0,1,1.3,1.765c.215-1.028.359-2.1.473-3.163a5.061,5.061,0,0,0-3.91-2.44c-3.359-.064-6.088,4.389-6.1,9.946a16.209,16.209,0,0,0,.223,2.727,8.563,8.563,0,0,0,1.984.281c-.064-.244-.124-.487-.171-.735" transform="translate(27.537 34.638)" fill="#aeaccc"/>
        <path id="Trazado_705977" data-name="Trazado 705977" d="M27.165,43.888a6.088,6.088,0,0,0,4.967-2.219,10.187,10.187,0,0,0,2.2-4.571c-.043-.107-.087-.217-.134-.322A6.016,6.016,0,0,0,32.98,34.97a3.021,3.021,0,0,0-1.918-.91A2.62,2.62,0,0,0,30,34.231a3.362,3.362,0,0,0-.939.566,5.542,5.542,0,0,0-1.344,1.765,9.92,9.92,0,0,0-.958,4.354,10.954,10.954,0,0,0,.409,2.973" transform="translate(28.479 36.247)" fill="#aeaccc"/>
        <path id="Trazado_705978" data-name="Trazado 705978" d="M37.917,41.463a13.636,13.636,0,0,0-2.153-7.737,31.708,31.708,0,0,1-.475,3.163c.017.031.033.062.047.093a10.346,10.346,0,0,1,.952,4.447,10.115,10.115,0,0,1-.981,4.44A5.753,5.753,0,0,1,33.919,47.7a3.64,3.64,0,0,1-1,.6,2.8,2.8,0,0,1-1.148.184,3.21,3.21,0,0,1-2.044-.962,6.181,6.181,0,0,1-1.265-1.866,8.662,8.662,0,0,1-.5-1.414,8.576,8.576,0,0,1-1.986-.279c.712,4.246,3.055,7.4,5.842,7.45,3.359.064,6.088-4.389,6.1-9.946" transform="translate(27.652 35.897)" fill="#9b9bbc"/>
        <path id="Trazado_705979" data-name="Trazado 705979" d="M26.954,42.319a8.61,8.61,0,0,0,.524,1.389,5.9,5.9,0,0,0,1.3,1.8,3.055,3.055,0,0,0,1.967.857,2.6,2.6,0,0,0,1.053-.2,3.462,3.462,0,0,0,.906-.586A5.581,5.581,0,0,0,33.967,43.8a8.857,8.857,0,0,0,.675-2.093,11.07,11.07,0,0,0,.213-2.2,11.384,11.384,0,0,0-.2-2.2,9.518,9.518,0,0,0-.524-1.779,10.187,10.187,0,0,1-2.2,4.571,6.088,6.088,0,0,1-4.967,2.219" transform="translate(28.689 37.816)" fill="#9b9bbc"/>
        <path id="Trazado_705980" data-name="Trazado 705980" d="M33.165,34.872a3.251,3.251,0,0,0-2.1-.91,2.807,2.807,0,0,0-1.133.219,3.576,3.576,0,0,0-.962.621,5.757,5.757,0,0,0-1.309,1.835,8.977,8.977,0,0,0-.692,2.141,11.328,11.328,0,0,0-.219,2.238,9.922,9.922,0,0,1,.96-4.354A5.507,5.507,0,0,1,29.057,34.9,3.391,3.391,0,0,1,30,34.331a2.63,2.63,0,0,1,1.067-.171,3.021,3.021,0,0,1,1.916.91A5.978,5.978,0,0,1,34.2,36.877c.05.105.091.215.134.322a9.518,9.518,0,0,1,.524,1.779,11.226,11.226,0,0,1,.206,2.2,11.071,11.071,0,0,1-.215,2.2,8.856,8.856,0,0,1-.675,2.093,5.549,5.549,0,0,1-1.261,1.773,3.4,3.4,0,0,1-.906.586,2.6,2.6,0,0,1-1.053.2,3.059,3.059,0,0,1-1.967-.857,5.936,5.936,0,0,1-1.3-1.8,8.808,8.808,0,0,1-.524-1.389,10.954,10.954,0,0,1-.409-2.973,11.476,11.476,0,0,0,.211,2.238c.047.248.107.491.171.735a8.766,8.766,0,0,0,.5,1.412A6.131,6.131,0,0,0,28.9,47.267a3.207,3.207,0,0,0,2.044.964,2.8,2.8,0,0,0,1.148-.184,3.692,3.692,0,0,0,1-.6,5.759,5.759,0,0,0,1.391-1.829,10.084,10.084,0,0,0,.979-4.44,10.344,10.344,0,0,0-.95-4.447c-.017-.031-.033-.062-.047-.093a6.068,6.068,0,0,0-1.3-1.767" transform="translate(28.477 36.146)" fill="#7f7fa5"/>
        <path id="Trazado_705981" data-name="Trazado 705981" d="M27.886,47.559c.058-.7.091-1.42.091-2.149.01-6-1.976-11.3-4.975-14.372A9.73,9.73,0,0,0,20,28.9l-5.714-.078a9.255,9.255,0,0,0-2.925,1.98C8.34,33.751,6.329,38.988,6.321,45c0,.774.033,1.538.1,2.287l1.348.027c-.029-.467-.039-.937-.039-1.414.01-8.14,4.009-14.663,8.928-14.57s8.9,6.771,8.885,14.911S21.529,60.9,16.612,60.807l10.336.235-.054-.052c4.612.045,8.357-5.758,8.792-13.208,0-.031,0-.06.006-.091Z" transform="translate(6.728 30.676)" fill="#292938"/>
        <path id="Trazado_705982" data-name="Trazado 705982" d="M24.817,44.947c.012-8.14-3.966-14.816-8.885-14.911S7.013,36.464,7,44.606c0,.477.014.948.039,1.412l0,.087c.444,7.446,4.23,13.324,8.844,13.412,4.919.095,8.916-6.428,8.928-14.57M10.052,47.389a16.215,16.215,0,0,1-.223-2.729c.008-5.557,2.737-10.01,6.1-9.944a5.057,5.057,0,0,1,3.912,2.44,13.652,13.652,0,0,1,2.153,7.737c-.008,5.557-2.737,10.01-6.1,9.946-2.787-.054-5.13-3.2-5.842-7.45" transform="translate(7.452 31.968)" fill="#3b3b4c"/>
        <path id="Trazado_705983" data-name="Trazado 705983" d="M10.408,44.52a11.825,11.825,0,0,1,.006-4.476,9.071,9.071,0,0,1,.692-2.141,5.746,5.746,0,0,1,1.313-1.835,3.474,3.474,0,0,1,.958-.621,2.776,2.776,0,0,1,1.135-.219,3.246,3.246,0,0,1,2.093.91,6.075,6.075,0,0,1,1.3,1.767c.215-1.03.357-2.1.473-3.165a5.068,5.068,0,0,0-3.914-2.44c-3.357-.064-6.086,4.389-6.092,9.946a16.04,16.04,0,0,0,.221,2.729,8.67,8.67,0,0,0,1.984.279c-.064-.244-.124-.487-.169-.735" transform="translate(8.911 34.38)" fill="#aeaccc"/>
        <path id="Trazado_705984" data-name="Trazado 705984" d="M9.665,43.646a6.088,6.088,0,0,0,4.967-2.219,10.187,10.187,0,0,0,2.2-4.571c-.043-.107-.087-.215-.134-.322a6.042,6.042,0,0,0-1.222-1.806,3.021,3.021,0,0,0-1.918-.91,2.62,2.62,0,0,0-1.065.171,3.362,3.362,0,0,0-.939.566,5.542,5.542,0,0,0-1.344,1.765,9.92,9.92,0,0,0-.958,4.354,10.954,10.954,0,0,0,.409,2.973" transform="translate(9.852 35.989)" fill="#aeaccc"/>
        <path id="Trazado_705985" data-name="Trazado 705985" d="M20.417,41.22a13.636,13.636,0,0,0-2.153-7.737,31.616,31.616,0,0,1-.475,3.163c.017.031.033.062.047.093a10.346,10.346,0,0,1,.952,4.447,10.108,10.108,0,0,1-.981,4.44,5.753,5.753,0,0,1-1.389,1.829,3.641,3.641,0,0,1-1,.6,2.832,2.832,0,0,1-1.148.186,3.223,3.223,0,0,1-2.044-.964,6.181,6.181,0,0,1-1.265-1.866,8.86,8.86,0,0,1-.5-1.414,8.576,8.576,0,0,1-1.986-.279c.712,4.246,3.055,7.4,5.842,7.45,3.359.064,6.088-4.389,6.1-9.946" transform="translate(9.025 35.638)" fill="#9b9bbc"/>
        <path id="Trazado_705986" data-name="Trazado 705986" d="M9.454,42.077a8.8,8.8,0,0,0,.522,1.389,5.943,5.943,0,0,0,1.3,1.8,3.055,3.055,0,0,0,1.967.857,2.585,2.585,0,0,0,1.051-.2,3.4,3.4,0,0,0,.906-.586,5.587,5.587,0,0,0,1.263-1.773,8.856,8.856,0,0,0,.675-2.093,11.07,11.07,0,0,0,.213-2.2,11.4,11.4,0,0,0-.2-2.2,9.519,9.519,0,0,0-.524-1.779,10.187,10.187,0,0,1-2.2,4.571,6.088,6.088,0,0,1-4.967,2.219" transform="translate(10.063 37.558)" fill="#9b9bbc"/>
        <path id="Trazado_705987" data-name="Trazado 705987" d="M15.666,34.63a3.256,3.256,0,0,0-2.1-.91,2.766,2.766,0,0,0-1.133.219,3.527,3.527,0,0,0-.962.621A5.756,5.756,0,0,0,10.166,36.4a8.885,8.885,0,0,0-.692,2.141,11.313,11.313,0,0,0-.219,2.238,9.922,9.922,0,0,1,.96-4.354,5.507,5.507,0,0,1,1.342-1.765,3.391,3.391,0,0,1,.939-.566,2.63,2.63,0,0,1,1.067-.171,3.021,3.021,0,0,1,1.916.91A5.978,5.978,0,0,1,16.7,36.635c.05.105.091.215.134.322a9.473,9.473,0,0,1,.524,1.779,11.226,11.226,0,0,1,.206,2.2,11.036,11.036,0,0,1-.215,2.2,8.842,8.842,0,0,1-.675,2.1A5.55,5.55,0,0,1,15.416,47a3.353,3.353,0,0,1-.906.588,2.594,2.594,0,0,1-1.053.2,3.055,3.055,0,0,1-1.967-.857,5.962,5.962,0,0,1-1.3-1.8,8.808,8.808,0,0,1-.524-1.389,10.965,10.965,0,0,1-.409-2.973,11.477,11.477,0,0,0,.211,2.238c.047.248.105.491.171.735a8.766,8.766,0,0,0,.5,1.412,6.131,6.131,0,0,0,1.265,1.866,3.207,3.207,0,0,0,2.044.964A2.83,2.83,0,0,0,14.6,47.8a3.647,3.647,0,0,0,1-.6,5.728,5.728,0,0,0,1.391-1.827,10.084,10.084,0,0,0,.979-4.44,10.344,10.344,0,0,0-.95-4.447c-.017-.031-.033-.062-.047-.093a6.068,6.068,0,0,0-1.3-1.767" transform="translate(9.852 35.889)" fill="#7f7fa5"/>
        <path id="Trazado_705988" data-name="Trazado 705988" d="M101.439,14.086l.287,1.123,1.645.014a.68.68,0,0,0,.58-1.022l-.506-1.171a2.9,2.9,0,0,1-2.007,1.055" transform="translate(107.97 13.87)" fill="#47445e"/>
        <path id="Trazado_705989" data-name="Trazado 705989" d="M103.7,13.491l-.031-.07a.976.976,0,0,0-.737-.584l-1.658-.231c-.027,0-.054-.006-.081-.008l.5,1.949a2.9,2.9,0,0,0,2.007-1.055" transform="translate(107.712 13.408)" fill="#524d6b"/>
        <path id="Trazado_705990" data-name="Trazado 705990" d="M102.62,19.92l.97,3.792c.039,0,.081-.006.122-.012l1.9-.291a1.067,1.067,0,0,0,.782-1.48l-1.8-5.425a4.27,4.27,0,0,1-.687,2.046,5.883,5.883,0,0,1-1.282,1.371" transform="translate(109.227 17.565)" fill="#47445e"/>
        <path id="Trazado_705991" data-name="Trazado 705991" d="M103.663,22.237a5.883,5.883,0,0,0,1.282-1.371,4.27,4.27,0,0,0,.687-2.046l-1.119-3.369a1.542,1.542,0,0,0-1.332-1.061l-1.484-.064h-.058l.838,3.282Z" transform="translate(108.184 15.248)" fill="#524d6b"/>
        <path id="Trazado_705992" data-name="Trazado 705992" d="M92.632,51.858l10.338.235-.056-.054c4.546.047,8.245-5.586,8.769-12.878L101.5,39.02c-.531,7.314-4.3,12.925-8.867,12.838" transform="translate(98.596 41.532)" fill="#292938"/>
        <path id="Trazado_705993" data-name="Trazado 705993" d="M106.045,39.148l-2.859-.039c-.508,4.713-3,8.255-6,8.2-2.789-.052-5.132-3.2-5.842-7.448-.052-.3-.091-.607-.124-.917L88.359,38.9c.533,7.289,4.273,13,8.819,13.084,4.566.087,8.336-5.524,8.867-12.838" transform="translate(94.048 41.406)" fill="#3b3b4c"/>
        <path id="Trazado_705994" data-name="Trazado 705994" d="M89.745,38.921c.033.31.072.615.124.915a8.558,8.558,0,0,0,1.984.279c-.064-.242-.124-.487-.171-.733-.029-.144-.052-.289-.074-.436l-.444,0Z" transform="translate(95.523 41.426)" fill="#aeaccc"/>
        <path id="Trazado_705995" data-name="Trazado 705995" d="M94.7,38.99l-4.046-.056a9.839,9.839,0,0,0,.26,1.168A6.3,6.3,0,0,0,94.7,38.99" transform="translate(96.49 41.44)" fill="#aeaccc"/>
        <path id="Trazado_705996" data-name="Trazado 705996" d="M90.78,40.074a8.611,8.611,0,0,0,.524,1.389,5.927,5.927,0,0,0,1.3,1.8,3.054,3.054,0,0,0,1.967.857,2.6,2.6,0,0,0,1.053-.2,3.418,3.418,0,0,0,.906-.588,5.55,5.55,0,0,0,1.261-1.771,8.842,8.842,0,0,0,.675-2.1c.031-.147.054-.3.078-.444l-3.98-.056a6.292,6.292,0,0,1-3.786,1.113" transform="translate(96.624 41.469)" fill="#9b9bbc"/>
        <path id="Trazado_705997" data-name="Trazado 705997" d="M97.745,43.5a3.59,3.59,0,0,1-1,.6,2.837,2.837,0,0,1-1.148.186,3.213,3.213,0,0,1-2.044-.964,6.181,6.181,0,0,1-1.265-1.866,8.661,8.661,0,0,1-.5-1.414,8.465,8.465,0,0,1-1.986-.279c.712,4.246,3.055,7.4,5.842,7.45,3,.058,5.493-3.485,6-8.2l-1.676-.023a9.26,9.26,0,0,1-.836,2.684A5.751,5.751,0,0,1,97.745,43.5" transform="translate(95.587 41.5)" fill="#9b9bbc"/>
        <path id="Trazado_705998" data-name="Trazado 705998" d="M90.894,40.1a8.767,8.767,0,0,0,.5,1.412,6.165,6.165,0,0,0,1.265,1.868,3.215,3.215,0,0,0,2.044.962,2.8,2.8,0,0,0,1.148-.184,3.64,3.64,0,0,0,1-.6,5.759,5.759,0,0,0,1.391-1.829,9.247,9.247,0,0,0,.836-2.682l-.388-.006c-.023.149-.047.3-.078.446a8.827,8.827,0,0,1-.675,2.093,5.582,5.582,0,0,1-1.261,1.773,3.462,3.462,0,0,1-.906.586,2.594,2.594,0,0,1-1.053.2,3.055,3.055,0,0,1-1.967-.857,5.877,5.877,0,0,1-1.3-1.8,8.734,8.734,0,0,1-.524-1.389,10.261,10.261,0,0,1-.26-1.168h-.012c.023.145.045.291.074.436.047.246.105.489.171.733" transform="translate(96.484 41.44)" fill="#7f7fa5"/>
        <path id="Trazado_705999" data-name="Trazado 705999" d="M70.313,1.779c-.161.095-.314.2-.467.3A6.881,6.881,0,0,0,68,4a6.252,6.252,0,0,0-.915,2.358A6.081,6.081,0,0,0,67,7.555L65.763,61.919l-.078,3.5L71.8,65.5c1.978-4.131,5.149-6.771,8.718-6.7a7.136,7.136,0,0,1,2.033.339l-.45-17.39C71.323,31.424,68.606,16.071,70.313,1.779" transform="translate(69.914 1.893)" fill="#bc4646"/>
        <path id="Trazado_706000" data-name="Trazado 706000" d="M79.961,42.292,79.953,42,79.175,20.22c-.023-.27-.035-.516-.041-.727a.893.893,0,0,1,.673-.884l.169-2.692a7.544,7.544,0,0,1,2.3-4.99c-.149-.456-.308-.908-.483-1.356l-.237-.562c-.083-.184-.149-.378-.242-.557-.18-.363-.341-.737-.547-1.084a13.477,13.477,0,0,0-1.319-2.025,10.394,10.394,0,0,0-1.668-1.726,9.719,9.719,0,0,0-2.017-1.3,9.411,9.411,0,0,0-2.289-.76A8.826,8.826,0,0,0,71.037,1.4a6.156,6.156,0,0,1,.824-.128,7.865,7.865,0,0,0-1.315.147,7.5,7.5,0,0,0-2.376.9c-1.707,14.29,1.009,29.644,11.792,39.971" transform="translate(72.057 1.352)" fill="#d65454"/>
        <path id="Trazado_706001" data-name="Trazado 706001" d="M71.69,1.506a8.982,8.982,0,0,1,1.189.409,9.928,9.928,0,0,1,3.939,3.074,13.616,13.616,0,0,1,1.426,2.287c8.121,1.232,16.591,1.2,24.4-1.761a18.731,18.731,0,0,0,5.221-2.9,7.936,7.936,0,0,0-1.5-.186l-20.98-.667L78.76,1.551l-8.191-.26a9.935,9.935,0,0,1,1.121.215" transform="translate(75.112 1.374)" fill="#d65454"/>
        <path id="Trazado_706002" data-name="Trazado 706002" d="M74.893,5.384a3.911,3.911,0,0,0-.467-.9c.225.5.425,1.009.6,1.526.136.411.26.824.372,1.243.023-.021.047-.041.072-.062-.2-.595-.4-1.2-.58-1.806" transform="translate(79.218 4.772)" fill="#d65454"/>
        <path id="Trazado_706003" data-name="Trazado 706003" d="M71.751,1.573a9.457,9.457,0,0,1,2.291.76,10.005,10.005,0,0,1,2.017,1.3,10.574,10.574,0,0,1,1.668,1.728,13.389,13.389,0,0,1,1.317,2.023c.206.349.37.72.547,1.084.095.182.159.374.242.559l.239.562c.173.446.332.9.483,1.356.091-.089.186-.175.283-.258q-.164-.626-.372-1.243c-.175-.516-.378-1.026-.6-1.526a3.947,3.947,0,0,1,.464.9c.184.611.378,1.212.58,1.808a7.025,7.025,0,0,1,4.523-1.664c8.082-.006,21.585.078,30.006.65l-.731-2.2A7.383,7.383,0,0,0,109.2,2.651a18.667,18.667,0,0,1-5.223,2.9c-7.8,2.96-16.273,2.993-24.395,1.761a13.659,13.659,0,0,0-1.429-2.285,9.912,9.912,0,0,0-3.937-3.076,9.113,9.113,0,0,0-1.191-.409A9.9,9.9,0,0,0,71.9,1.327l-.111-.014a8.357,8.357,0,0,0-1.654-.027,6.151,6.151,0,0,0-.824.126,8.821,8.821,0,0,1,2.436.161" transform="translate(73.778 1.337)" fill="#bc4646"/>
        <path id="Trazado_706004" data-name="Trazado 706004" d="M80.5,16.711l.138,1.107q1.449,1.725,2.824,3.509a5.126,5.126,0,0,0,.2-1.672l-.941-4.222A2.7,2.7,0,0,0,80.5,16.711" transform="translate(85.682 16.426)" fill="#dee7ff"/>
        <path id="Trazado_706005" data-name="Trazado 706005" d="M79.519,16.13a1.517,1.517,0,0,1,1.652.979l2.312.12-1.04-4.672a19.387,19.387,0,0,1-2.923,3.573" transform="translate(84.638 13.365)" fill="#dee7ff"/>
        <path id="Trazado_706006" data-name="Trazado 706006" d="M80.693,16.738l.159-1.412.01-.085a.961.961,0,0,1,.677-.811l1.941-.584a.958.958,0,0,1,1.226.778l.206,1.416.043.3a.957.957,0,0,1-.791,1.084l-2.366.394a1.013,1.013,0,0,1-.134.012c.171.192.341.384.512.578l1.6-.322a.459.459,0,0,1,.074-.01A19.4,19.4,0,0,0,86.774,14.5l-.066-.293c-.51-1.53-1.577-3.458-3.724-3.439-1.843-.025-4.626-.045-7.535-.029,1.726,2.054,3.491,4.036,5.244,6" transform="translate(80.306 11.422)" fill="#f3f7ff"/>
        <path id="Trazado_706007" data-name="Trazado 706007" d="M79.475,21.781a17.065,17.065,0,0,0,2.618-1.317l.008-.555a1.516,1.516,0,0,1,1.218-1.468l.194-.039L83,17.824a.958.958,0,0,1-.974-1.065l0-.025c-1.755-1.963-3.518-3.945-5.246-6-.859,0-1.728.012-2.589.027l.246,3.423c.427.7.873,1.406,1.352,2.114q1.873,2.805,3.683,5.483" transform="translate(78.971 11.426)" fill="#dee7ff"/>
        <path id="Trazado_706008" data-name="Trazado 706008" d="M79.37,15.448a17.065,17.065,0,0,1-2.618,1.317q1.282,1.9,2.547,3.747l.021-1.552Z" transform="translate(81.693 16.442)" fill="#c2d1f2"/>
        <path id="Trazado_706009" data-name="Trazado 706009" d="M81.237,21.947l.021.169A2.915,2.915,0,0,0,83.39,20.1q-1.372-1.79-2.824-3.509Z" transform="translate(85.753 17.656)" fill="#c2d1f2"/>
        <path id="Trazado_706010" data-name="Trazado 706010" d="M74.631,16.838,74.93,21l1.877.167a47.921,47.921,0,0,1-2.176-4.329" transform="translate(79.436 17.922)" fill="#c2d1f2"/>
        <path id="Trazado_706011" data-name="Trazado 706011" d="M75.667,14.52c-.479-.708-.927-1.412-1.354-2.114l.623,8.664A16,16,0,0,0,79.35,20c-1.212-1.79-2.434-3.613-3.683-5.483" transform="translate(79.097 13.204)" fill="#f3f7ff"/>
        <path id="Trazado_706012" data-name="Trazado 706012" d="M81.54,22.386l.035-2.554q-1.266-1.855-2.547-3.747a16,16,0,0,1-4.414,1.067l.035.485c.646,1.48,1.381,2.917,2.174,4.329Z" transform="translate(79.418 17.121)" fill="#dee7ff"/>
        <path id="Trazado_706013" data-name="Trazado 706013" d="M103.085,45.046l-.361.006a58.727,58.727,0,0,1-6.495-.33L94.572,28.463A10.9,10.9,0,0,0,88.8,20.622l.037.291a2.294,2.294,0,0,1-2.246,2.578l-2.44.033a1.517,1.517,0,0,1-1.538-1.538l.035-2.434-4.717-.419-1.877-.167-2.475-.219L73.7,23.4l.008.293.45,17.388c2.7.855,5.039,3.268,6.623,6.606l23,.32ZM76.114,19.093c.246,2.9.431,5.809.6,8.716.023.361.037.733.066,1.084a4.2,4.2,0,0,0,.2,1.007,4.327,4.327,0,0,0,1.065,1.734,4.384,4.384,0,0,0,.8.632,4.5,4.5,0,0,0,.45.244l.235.1.254.1a18.717,18.717,0,0,1,2.007.948,13.482,13.482,0,0,1,3.5,2.731,10.044,10.044,0,0,1,1.3,1.819c.1.157.173.33.26.5l.237.485a4.79,4.79,0,0,0,.559.873,4.684,4.684,0,0,0,1.631,1.274,4.482,4.482,0,0,0,.989.341,7.04,7.04,0,0,0,1.059.124c1.453.1,2.907.206,4.358.334-1.457,0-2.913-.019-4.37-.041a7.093,7.093,0,0,1-1.113-.078,4.875,4.875,0,0,1-1.084-.32A5.022,5.022,0,0,1,87.3,40.366a5.275,5.275,0,0,1-.648-.943l-.252-.487c-.085-.155-.157-.318-.254-.464a9.45,9.45,0,0,0-1.272-1.7A13,13,0,0,0,81.5,34.183a17.517,17.517,0,0,0-1.934-.929l-.252-.1-.264-.116a5.3,5.3,0,0,1-.51-.279,4.692,4.692,0,0,1-.9-.727,5.2,5.2,0,0,1-.7-.917,4.86,4.86,0,0,1-.462-1.057,4.585,4.585,0,0,1-.2-1.131c-.019-.376-.021-.731-.033-1.1-.076-2.911-.132-5.824-.13-8.736m13.6,25.615c-.262,0-.545,0-.824-.029a3.553,3.553,0,0,1-.417-.058l-.206-.037-.2-.052a5.478,5.478,0,0,1-1.548-.654,5.54,5.54,0,0,1-1.278-1.1c-.1-.1-.175-.221-.262-.332s-.157-.235-.237-.353l-.394-.71a12.33,12.33,0,0,0-4.325-4.459,16.36,16.36,0,0,0-2.841-1.4,17.2,17.2,0,0,0-3.074-.869,13.753,13.753,0,0,1,3.169.592,16.234,16.234,0,0,1,1.526.555,14.532,14.532,0,0,1,1.46.725,12.694,12.694,0,0,1,2.616,1.959,11.775,11.775,0,0,1,1.992,2.605l.38.7c.07.105.134.215.209.318s.147.206.231.3a5.084,5.084,0,0,0,1.133,1,4.952,4.952,0,0,0,1.381.63l.184.05.188.039c.124.031.25.045.376.064.252.037.506.045.778.06,2.141.107,4.279.235,6.416.423-2.145.062-4.286.064-6.426.045" transform="translate(78.314 19.955)" fill="#ed6464"/>
        <path id="Trazado_706014" data-name="Trazado 706014" d="M101.706,29.971h0L100.6,40.718l6.228.087a1.62,1.62,0,0,1,.576.118l.136-15a37.517,37.517,0,0,1-5.834,4.046" transform="translate(107.076 27.594)" fill="#ed6464"/>
        <path id="Trazado_706015" data-name="Trazado 706015" d="M80.451,10.137a10.433,10.433,0,0,1,.32,1.79c.062.239.12.479.175.718,11.3.047,26.145.316,34.894,1.3-.029-1.206-.287-4.688-2.258-7.145a46.012,46.012,0,0,1-10.629,2.768c-7.64,1.1-15.053.8-22.5.568" transform="translate(85.63 7.238)" fill="#303044"/>
        <path id="Trazado_706016" data-name="Trazado 706016" d="M80.914,4.99a7.031,7.031,0,0,0-4.523,1.662c-.025.021-.05.041-.072.062-.1.083-.192.167-.285.256a7.535,7.535,0,0,0-2.3,4.99l-.171,2.692a1.015,1.015,0,0,1,.211-.029c2.058-.025,7.622-.078,14.5-.047-.056-.239-.114-.479-.175-.718.019.209.033.419.039.63a15.338,15.338,0,0,0-1.016-3.237,10.563,10.563,0,0,0-.813-1.466,9.157,9.157,0,0,0-1.03-1.313,10.857,10.857,0,0,0-2.622-2.064,12.447,12.447,0,0,0-1.521-.735,11.429,11.429,0,0,0-1.618-.535,7.786,7.786,0,0,1,1.695.314,9.933,9.933,0,0,1,1.618.626,9.759,9.759,0,0,1,1.495.9,10,10,0,0,1,1.307,1.166A9.213,9.213,0,0,1,87.471,11.1q.18.474.312.962c7.446.233,14.859.531,22.5-.568a45.9,45.9,0,0,0,10.627-2.77,6.659,6.659,0,0,0-3.163-2.2,35.633,35.633,0,0,0-6.829-.886C102.5,5.069,89,4.984,80.914,4.99" transform="translate(78.299 5.311)" fill="#3b3a51"/>
        <path id="Trazado_706017" data-name="Trazado 706017" d="M93.778,20.527q2.688,2.607,5.514,5.159l8.152.035c-2.227-2.368-4.372-4.824-6.554-7.271a56.889,56.889,0,0,1-7.112,2.077m9.092,2.013c-.066-.012-.128-.027-.192-.045.064.019.126.033.192.045m-.25-.062a.619.619,0,0,1-.066-.021h0l.068.021" transform="translate(99.815 19.637)" fill="#dee7ff"/>
        <path id="Trazado_706018" data-name="Trazado 706018" d="M99.36,25.209a56.788,56.788,0,0,0,7.112-2.077c-2.273-2.545-4.587-5.08-7.083-7.488q-.722-.694-1.433-1.379l-9.424-.215c3.493,3.8,7.071,7.516,10.828,11.158" transform="translate(94.232 14.955)" fill="#f3f7ff"/>
        <path id="Trazado_706019" data-name="Trazado 706019" d="M103.776,27.952l2.69.012a1.821,1.821,0,0,0,.19-.021c1.546-.175,1.466-1.726,1.344-2.442l-2.126-9.147a41.852,41.852,0,0,1-8.652,4.327c2.184,2.446,4.329,4.9,6.554,7.271" transform="translate(103.481 17.406)" fill="#c2d1f2"/>
        <path id="Trazado_706020" data-name="Trazado 706020" d="M106.423,14.458l-13.326-.3q.712.687,1.433,1.379c2.5,2.407,4.81,4.942,7.083,7.488a41.648,41.648,0,0,0,8.652-4.327l-.231-1q-1.307-1.189-2.624-2.366-.492-.437-.987-.871" transform="translate(99.091 15.066)" fill="#dee7ff"/>
        <path id="Trazado_706021" data-name="Trazado 706021" d="M100.539,15.173q1.319,1.174,2.622,2.366l-.737-3.171L99.552,14.3q.5.434.987.871" transform="translate(105.961 15.222)" fill="#f3f7ff"/>
        <path id="Trazado_706022" data-name="Trazado 706022" d="M91.562,20.333q1.877,2.13,3.718,4.257l6.371.027q-2.827-2.555-5.516-5.161c-1.511.341-3.039.632-4.573.877" transform="translate(97.457 20.708)" fill="#c2d1f2"/>
        <path id="Trazado_706023" data-name="Trazado 706023" d="M90.989,14.107,86.224,14c1.984,2.126,3.982,4.261,5.966,6.482q2.57,2.83,5.054,5.663c1.534-.248,3.061-.537,4.573-.877-3.757-3.642-7.333-7.362-10.828-11.158" transform="translate(91.775 14.899)" fill="#dee7ff"/>
        <path id="Trazado_706024" data-name="Trazado 706024" d="M92.536,20.3a51.283,51.283,0,0,1-8.48.054l.159.764A3.126,3.126,0,0,0,86.6,23.546a7.383,7.383,0,0,0,.865.081l8.274.035q-1.607-1.678-3.206-3.365" transform="translate(89.468 21.603)" fill="#c2d1f2"/>
        <path id="Trazado_706025" data-name="Trazado 706025" d="M93.817,26.416q-5.549-5.868-10.964-11.868L85.336,26.47a51.284,51.284,0,0,0,8.48-.054" transform="translate(88.187 15.484)" fill="#dee7ff"/>
        <path id="Trazado_706026" data-name="Trazado 706026" d="M89.619,20.6c-.487.052-.97.095-1.455.136q1.6,1.688,3.206,3.365l7.529.033q-1.849-2.127-3.72-4.257c-1.848.3-3.706.533-5.559.723" transform="translate(93.84 21.161)" fill="#dee7ff"/>
        <path id="Trazado_706027" data-name="Trazado 706027" d="M93.956,27.086c.483-.041.968-.085,1.455-.136,1.854-.19,3.712-.425,5.559-.723q-2.49-2.827-5.056-5.661c-1.982-2.221-3.982-4.358-5.964-6.482l-7.229-.165.27,1.3q5.413,6,10.964,11.868" transform="translate(88.048 14.815)" fill="#f3f7ff"/>
        <path id="Trazado_706028" data-name="Trazado 706028" d="M95.021,16.994l9.424.215,13.326.3,2.872.064-.481-2.071a5.38,5.38,0,0,0-5.382-3.4c-3.456-.122-18.926-.644-29.118-.813-2.841-.12-3.367.974-3.2,2.721l.564,2.706,7.229.163Z" transform="translate(87.742 12.012)" fill="#524d6b"/>
        <path id="Trazado_706029" data-name="Trazado 706029" d="M88.624,9.636c-6.883-.029-12.446.025-14.5.05a.888.888,0,0,0-.882.912c0,.211.017.456.041.727L74.058,33.1l-.12-4.651,2.475.221-.3-4.162-.035-.485-.621-8.664-.246-3.423c.861-.014,1.732-.023,2.591-.027,2.909-.019,5.692,0,7.535.029,2.149-.021,3.214,1.907,3.724,3.437l.066.3,1.04,4.672.537.027a.455.455,0,0,1,.421.361l.066.322a.454.454,0,0,1-.45.545c-.091,0-.19,0-.293.008l.941,4.222a5.2,5.2,0,0,1-.2,1.674,2.919,2.919,0,0,1-2.132,2.019l.1.805a10.9,10.9,0,0,1,5.774,7.841L96.59,54.427a58.7,58.7,0,0,0,6.495.332l.361-.006L98.8,34.983h.18a7.331,7.331,0,0,1-.863-.081,3.12,3.12,0,0,1-2.388-2.432l-.161-.764L93.087,19.785l-.27-1.3-.564-2.706c-.169-1.746.359-2.841,3.2-2.721,10.192.169,25.662.692,29.118.815a5.376,5.376,0,0,1,5.382,3.4l.483,2.071.737,3.173.231,1v0l2.128,9.147c.122.716.2,2.265-1.344,2.442-.043.006-.107.012-.19.019h.087l-.44,4.269c-.033.345-.043.464-.043.464h0l-.768,7.461a37.53,37.53,0,0,0,5.834-4.048L136.728,36a2.178,2.178,0,0,0-1.088-1.932l-.778-3.039-.968-3.792-1.185-4.628-.84-3.282-.126-.5-.287-1.121-.5-1.949-.171-.671a4.33,4.33,0,0,0-3.472-3.6c-1.069-.2-2.349-.386-3.8-.549-8.747-.987-23.6-1.255-34.892-1.3" transform="translate(77.953 10.247)" fill="#ff7676"/>
        <path id="Trazado_706030" data-name="Trazado 706030" d="M100.263,40.558l-3.549-.029a1.057,1.057,0,0,1-.925-.673l-.229-.508h-.031l-.132-.357,10.417.14q2.143-.653,4.255-1.455l-14.186-.153a1.194,1.194,0,0,1-1.04-.677l-.446-.867,19.11.3c.19-.083.38-.165.568-.25q1.846-.811,3.573-1.784l.768-7.461-5.089-.161s.9-2.159,5.312-2.023c-.089.848-.142,1.389-.175,1.72l.44-4.269h-.087l-2.692-.01L107.973,22l-6.369-.027-7.529-.033L85.8,21.91h-.18l4.643,19.771a53.279,53.279,0,0,0,10-1.123m14.721-6.728a1.381,1.381,0,0,1-1.292.993l-18.637-.2a1.328,1.328,0,0,1-1.156-.758l-.5-.968c.1-.033,21.779.339,21.779.339Zm1.8-3.563-.12.374h-.017l-.087.244a1.548,1.548,0,0,1-1.47,1.03l-21.22-.264a1.534,1.534,0,0,1-1.319-.791l-.568-1.009c.237,0,24.8.417,24.8.417M86.128,24.059c6.47.149,6.9,2.388,6.9,2.388L86.654,26.3s-.339-1.447-.526-2.244" transform="translate(91.134 23.32)" fill="#524d6b"/>
        <path id="Trazado_706031" data-name="Trazado 706031" d="M111.68,29.669c-.188.085-.378.167-.568.25l.491.006-.18.533a1.238,1.238,0,0,1-1.162.886l-2.587-.027q-2.112.8-4.255,1.455l6.994.095-.1.339-.06.194a1.137,1.137,0,0,1-1.036.89L97.869,34.2a53.109,53.109,0,0,1-10,1.125l.694,2.958,5.584.076,20,.277,1.107-10.747q-1.728.972-3.573,1.784m-3,6.66c-.138.539-.485.9-.867.9l-12.4-.043a.89.89,0,0,1-.766-.667l-.322-.863,14.49.145Z" transform="translate(93.528 29.68)" fill="#47445e"/>
        <path id="Trazado_706032" data-name="Trazado 706032" d="M104.354,23.216c-4.414-.136-5.312,2.023-5.312,2.023l5.089.161h.006s.008-.118.041-.462.087-.871.175-1.722" transform="translate(105.418 24.704)" fill="#3b3a51"/>
        <path id="Trazado_706033" data-name="Trazado 706033" d="M85.867,22.951c.188.8.526,2.244.526,2.244l6.377.145s-.434-2.24-6.9-2.388" transform="translate(91.395 24.428)" fill="#3b3a51"/>
        <path id="Trazado_706034" data-name="Trazado 706034" d="M88.705,25.755l.566,1.009a1.539,1.539,0,0,0,1.321.791l21.22.264a1.545,1.545,0,0,0,1.468-1.028l.089-.246-24.4-.339Z" transform="translate(94.416 27.413)" fill="#3b3a51"/>
        <path id="Trazado_706035" data-name="Trazado 706035" d="M89.6,27.621l-.213-.388.5.968a1.325,1.325,0,0,0,1.158.756l18.635.2a1.379,1.379,0,0,0,1.292-.991l.2-.592-.147.407Z" transform="translate(95.146 28.986)" fill="#3b3a51"/>
        <path id="Trazado_706036" data-name="Trazado 706036" d="M90.068,29.1l-.2-.378.446.867a1.2,1.2,0,0,0,1.043.675l14.184.153,2.587.029a1.244,1.244,0,0,0,1.164-.888l.178-.531-.14.339Z" transform="translate(95.658 30.574)" fill="#3b3a51"/>
        <path id="Trazado_706037" data-name="Trazado 706037" d="M90.436,30.357l.231.508a1.057,1.057,0,0,0,.923.673l3.549.029,11.35.093a1.143,1.143,0,0,0,1.036-.892l.058-.194Z" transform="translate(96.258 32.311)" fill="#3b3a51"/>
        <path id="Trazado_706038" data-name="Trazado 706038" d="M91.126,31.959,91,31.647l.322.863a.89.89,0,0,0,.766.667l12.4.043c.382,0,.729-.357.867-.9l.136-.533-.078.306Z" transform="translate(96.854 33.684)" fill="#3b3a51"/>
        <path id="Trazado_706039" data-name="Trazado 706039" d="M66.171,32.605a1.145,1.145,0,0,0-1.16,1.127l-.136,9.944a1.256,1.256,0,0,0,1.239,1.274l4.981.07-.467-.01c-.064-.749-.1-1.511-.095-2.287A23.472,23.472,0,0,1,72.667,32.7l-6.119-.085Z" transform="translate(69.051 34.704)" fill="#313144"/>
        <path id="Trazado_706040" data-name="Trazado 706040" d="M104.663,45.494h0l-16.379-.227a2.427,2.427,0,0,1-2.393-2.461L86,35.211a2.32,2.32,0,0,1,2.353-2.289l17.3.239-5.584-.076-23-.32a23.945,23.945,0,0,1,2.149,10.2q0,1.093-.091,2.149l7.805.132,13.454.186,2.863.039Z" transform="translate(82.025 34.874)" fill="#313144"/>
        <path id="Trazado_706041" data-name="Trazado 706041" d="M128.167,38.79l-1.315-.019-2.733-.037a.589.589,0,0,1-.582-.6l.031-2.236a.573.573,0,0,1,.109-.334.6.6,0,0,1,.489-.248l2.733.039.5.006.778.01.041,0,.694.008,0-.31a1.6,1.6,0,0,0-1.012-1.513,1.563,1.563,0,0,0-.574-.116l-6.228-.087-20-.277L83.8,32.84a2.322,2.322,0,0,0-2.353,2.289l-.105,7.6a2.424,2.424,0,0,0,2.393,2.459l16.379.227.442.006.012,0,4.048.056,3.98.054.388.006,1.674.023,2.859.039,10.188.142,2.694.037a2.366,2.366,0,0,0,2.4-2.333l.064-4.645Zm-3.929,2.595a.669.669,0,0,1,.425-.151.619.619,0,0,1,.138.019.606.606,0,0,1,.194-.031.9.9,0,0,1,.766.991,1.2,1.2,0,0,1-.07.39.792.792,0,0,1-.723.578.6.6,0,0,1-.138-.017.623.623,0,0,1-.194.029.9.9,0,0,1-.768-.991,1.058,1.058,0,0,1,.37-.817M84.274,34.572a.409.409,0,0,1,.192-.043l.339,0,.287,0,1.1.014,7.454.1,1.321.019a1.021,1.021,0,0,1,.976,1.061l-.029,2.06-.006.57A1.019,1.019,0,0,1,94.9,39.4l-1.321-.017-7.457-.1-1.094-.017-.289,0-.339,0a.451.451,0,0,1-.429-.467l.054-3.8a.465.465,0,0,1,.25-.411m.118,7a1.278,1.278,0,0,1,.444-.985.8.8,0,0,1,.512-.182.738.738,0,0,1,.165.021.747.747,0,0,1,.235-.035,1.077,1.077,0,0,1,.921,1.191,1.379,1.379,0,0,1-.085.469.96.96,0,0,1-.869.7.883.883,0,0,1-.167-.023.8.8,0,0,1-.233.037,1.081,1.081,0,0,1-.923-1.191m3.117.041a1.3,1.3,0,0,1,.347-.9.822.822,0,0,1,.607-.268.721.721,0,0,1,.163.021.7.7,0,0,1,.237-.035,1.08,1.08,0,0,1,.923,1.191,1.461,1.461,0,0,1-.066.409.978.978,0,0,1-.89.758.882.882,0,0,1-.167-.023.8.8,0,0,1-.233.037,1.079,1.079,0,0,1-.921-1.193M94.79,45.28l4.185-6.168a2.571,2.571,0,0,1,2.143-1.125l17.549.14a2.568,2.568,0,0,1,2.275,1.422l3.031,6.075ZM128.3,42.588a.812.812,0,0,1-.739.63.622.622,0,0,1-.14-.019.667.667,0,0,1-.192.031.9.9,0,0,1-.768-.991,1.092,1.092,0,0,1,.289-.747.7.7,0,0,1,.506-.223.792.792,0,0,1,.14.019.667.667,0,0,1,.192-.031.9.9,0,0,1,.766.991,1.2,1.2,0,0,1-.054.341" transform="translate(86.577 34.954)" fill="#3b3a51"/>
        <path id="Trazado_706042" data-name="Trazado 706042" d="M105.114,35.959c-.192-.031-.382-.064-.566-.1a3.669,3.669,0,0,1-2.628-1.7.564.564,0,0,0-.109.334l-.031,2.234a.589.589,0,0,0,.582.6l2.731.039Z" transform="translate(108.333 36.36)" fill="#f1e3ff"/>
        <path id="Trazado_706043" data-name="Trazado 706043" d="M104.427,34.073h0l-.778-.01Z" transform="translate(110.322 36.255)" fill="#fff"/>
        <path id="Trazado_706044" data-name="Trazado 706044" d="M104.476,35.988l.566.1.029-2.009-2.733-.037a.588.588,0,0,0-.489.246,3.669,3.669,0,0,0,2.628,1.7" transform="translate(108.405 36.232)" fill="#fff"/>
        <path id="Trazado_706045" data-name="Trazado 706045" d="M82.614,37.915a.451.451,0,0,0,.429.467l.339,0,.289,0,1.094.017,7.457.1,1.321.019a1.022,1.022,0,0,0,1.005-1.034l.006-.57.029-2.06a1.021,1.021,0,0,0-.976-1.061l-1.321-.019-7.454-.1-1.1-.014-.287,0-.339,0a.409.409,0,0,0-.192.043.467.467,0,0,0-.25.411Zm.795-3.972a.422.422,0,0,1,.178-.039l.314,0,1.282.019h0l2.878.039,4.05.056,1.228.019a.919.919,0,0,1,.908.933l-.025,1.81-.006.5a.92.92,0,0,1-.933.906l-1.228-.017L90.8,38.158l-6.955-.095-.314,0a.405.405,0,0,1-.4-.411l.045-3.346a.4.4,0,0,1,.233-.359" transform="translate(87.933 35.824)" fill="#313144"/>
        <path id="Trazado_706046" data-name="Trazado 706046" d="M88.124,34.768l-.025,1.81q.616.015,1.228.019l.025-1.813a.922.922,0,0,0-.908-.933l-1.228-.017a.92.92,0,0,1,.908.933" transform="translate(92.831 36.013)" fill="#cfcfe8"/>
        <path id="Trazado_706047" data-name="Trazado 706047" d="M86.738,33.827l-2.878-.039Z" transform="translate(89.259 35.963)" fill="#cfcfe8"/>
        <path id="Trazado_706048" data-name="Trazado 706048" d="M83.237,33.78h0l1.28.019Z" transform="translate(88.596 35.954)" fill="#cfcfe8"/>
        <path id="Trazado_706049" data-name="Trazado 706049" d="M88.128,35.164h0l-.006.5a.923.923,0,0,1-.933.908l1.228.017a.923.923,0,0,0,.933-.908l.006-.5c-.407,0-.817-.008-1.228-.019" transform="translate(92.802 37.427)" fill="#b4b4d3"/>
        <path id="Trazado_706050" data-name="Trazado 706050" d="M83.477,35.8l-.268,0,6.955.1Z" transform="translate(88.566 38.096)" fill="#b4b4d3"/>
        <path id="Trazado_706051" data-name="Trazado 706051" d="M83.869,33.788l-.017,1.224a17.611,17.611,0,0,0,7.828,1.616v0l.025-1.808a.919.919,0,0,0-.908-.933l-4.05-.058Z" transform="translate(89.25 35.963)" fill="#fff"/>
        <path id="Trazado_706052" data-name="Trazado 706052" d="M92.219,36.5l.006-.5A17.587,17.587,0,0,1,84.4,34.382v0l-.039,2.927L83.34,37.3l6.687.093,1.259.019a.922.922,0,0,0,.933-.908" transform="translate(88.705 36.595)" fill="#f1e3ff"/>
        <path id="Trazado_706053" data-name="Trazado 706053" d="M82.864,37.5a.407.407,0,0,0,.4.411l.316,0,.266,0,1.018.014.041-2.929a9.438,9.438,0,0,1-1.761-1.21.411.411,0,0,0-.233.361Z" transform="translate(88.199 35.971)" fill="#ffa543"/>
        <path id="Trazado_706054" data-name="Trazado 706054" d="M84.76,35.026v0l.017-1.224h0l-1.282-.017-.314-.006a.422.422,0,0,0-.178.039,9.438,9.438,0,0,0,1.761,1.21" transform="translate(88.342 35.951)" fill="#ffb757"/>
        <path id="Trazado_706055" data-name="Trazado 706055" d="M103.406,35.032l-.021,1.408,1.317.019-.438-.006.019-1.3c-.3-.033-.59-.074-.877-.122" transform="translate(110.041 37.287)" fill="#eaa149"/>
        <path id="Trazado_706056" data-name="Trazado 706056" d="M104.7,34.077l-.778-.01-.5-.006-.027,2.007c.287.047.58.089.877.122l.029-2.118.438.006Z" transform="translate(110.052 36.252)" fill="#ffb757"/>
        <path id="Trazado_706057" data-name="Trazado 706057" d="M103.83,35.091l-.019,1.3.438.006.694.008.184,0a.334.334,0,0,0,.339-.328l.012-.968a7.593,7.593,0,0,1-1.647-.021" transform="translate(110.494 37.35)" fill="#ffb757"/>
        <path id="Trazado_706058" data-name="Trazado 706058" d="M105.164,34.084l-.184,0-.7-.01-.436-.006-.029,2.116v0a7.59,7.59,0,0,0,1.647.021l.025-1.784a.332.332,0,0,0-.328-.336" transform="translate(110.504 36.258)" fill="#ffc76c"/>
        <path id="Trazado_706059" data-name="Trazado 706059" d="M83.974,38.824a1.136,1.136,0,0,1-.756-1.17,1.264,1.264,0,0,1,.444-.983.827.827,0,0,1,.277-.145.637.637,0,0,0-.165-.023.8.8,0,0,0-.512.182,1.272,1.272,0,0,0-.444.985,1.081,1.081,0,0,0,.923,1.191.8.8,0,0,0,.233-.037" transform="translate(88.15 38.854)" fill="#313144"/>
        <path id="Trazado_706060" data-name="Trazado 706060" d="M85.482,38.845a1.135,1.135,0,0,1-.756-1.168,1.315,1.315,0,0,1,.349-.9.88.88,0,0,1,.37-.233.72.72,0,0,0-.163-.021.83.83,0,0,0-.607.268,1.3,1.3,0,0,0-.347.9,1.078,1.078,0,0,0,.921,1.191.8.8,0,0,0,.233-.037" transform="translate(89.757 38.876)" fill="#313144"/>
        <path id="Trazado_706061" data-name="Trazado 706061" d="M83.456,36.585a1.272,1.272,0,0,0-.444.985,1.135,1.135,0,0,0,.756,1.168.882.882,0,0,0,.167.023.962.962,0,0,0,.869-.7,1.577,1.577,0,0,1-1.348-1.478" transform="translate(88.356 38.94)" fill="#f1e3ff"/>
        <path id="Trazado_706062" data-name="Trazado 706062" d="M84.575,38.158a1.441,1.441,0,0,0,.085-.469,1.08,1.08,0,0,0-.923-1.191.735.735,0,0,0-.233.035.832.832,0,0,0-.277.147,1.577,1.577,0,0,0,1.348,1.478" transform="translate(88.585 38.847)" fill="#fff"/>
        <path id="Trazado_706063" data-name="Trazado 706063" d="M85.1,37.8a2.216,2.216,0,0,0,1.055.314,1.378,1.378,0,0,0,.064-.409,1.078,1.078,0,0,0-.921-1.191.84.84,0,0,0-.239.035.906.906,0,0,0-.37.233A1.075,1.075,0,0,0,85.1,37.8" transform="translate(90.14 38.869)" fill="#fff"/>
        <path id="Trazado_706064" data-name="Trazado 706064" d="M85.279,37.666a1.075,1.075,0,0,1-.411-1.018,1.317,1.317,0,0,0-.347.9,1.135,1.135,0,0,0,.756,1.168.882.882,0,0,0,.167.023.977.977,0,0,0,.89-.758,2.216,2.216,0,0,1-1.055-.314" transform="translate(89.962 39.007)" fill="#f1e3ff"/>
        <path id="Trazado_706065" data-name="Trazado 706065" d="M102.71,38.866a.551.551,0,0,0,.192-.031.941.941,0,0,1-.628-.972,1.057,1.057,0,0,1,.367-.817.687.687,0,0,1,.231-.12.519.519,0,0,0-.138-.019.673.673,0,0,0-.425.151,1.065,1.065,0,0,0-.37.817.9.9,0,0,0,.77.991" transform="translate(108.503 39.283)" fill="#313144"/>
        <path id="Trazado_706066" data-name="Trazado 706066" d="M103.528,37.881a1.087,1.087,0,0,1,.289-.745.736.736,0,0,1,.314-.192.64.64,0,0,0-.14-.021.693.693,0,0,0-.506.225,1.083,1.083,0,0,0-.289.745.9.9,0,0,0,.768.991.667.667,0,0,0,.192-.031.947.947,0,0,1-.628-.972" transform="translate(109.84 39.3)" fill="#313144"/>
        <path id="Trazado_706067" data-name="Trazado 706067" d="M102.472,36.974a1.058,1.058,0,0,0-.37.817.942.942,0,0,0,.63.972.508.508,0,0,0,.138.019.8.8,0,0,0,.723-.578,1.314,1.314,0,0,1-1.121-1.23" transform="translate(108.675 39.354)" fill="#f1e3ff"/>
        <path id="Trazado_706068" data-name="Trazado 706068" d="M103.4,38.281a1.19,1.19,0,0,0,.07-.39.9.9,0,0,0-.766-.991.7.7,0,0,0-.2.031.739.739,0,0,0-.229.12,1.312,1.312,0,0,0,1.121,1.23" transform="translate(108.866 39.275)" fill="#fff"/>
        <path id="Trazado_706069" data-name="Trazado 706069" d="M104,36.918a.667.667,0,0,0-.192.031.736.736,0,0,0-.314.192.894.894,0,0,0,.341.846,1.855,1.855,0,0,0,.877.262,1.225,1.225,0,0,0,.056-.341.9.9,0,0,0-.768-.991" transform="translate(110.159 39.294)" fill="#fff"/>
        <path id="Trazado_706070" data-name="Trazado 706070" d="M103.987,37.872a.894.894,0,0,1-.341-.846,1.092,1.092,0,0,0-.289.747.947.947,0,0,0,.628.972.618.618,0,0,0,.138.017.808.808,0,0,0,.741-.628,1.855,1.855,0,0,1-.877-.262" transform="translate(110.011 39.409)" fill="#f1e3ff"/>
        <path id="Trazado_706071" data-name="Trazado 706071" d="M88.965,26.208l24.4.339h.014l.12-.374s-24.56-.415-24.8-.417Z" transform="translate(94.416 27.414)" fill="#676387"/>
        <path id="Trazado_706072" data-name="Trazado 706072" d="M89.391,27.234l.213.388,21.42.357.147-.407s-21.68-.372-21.779-.339" transform="translate(95.146 28.985)" fill="#676387"/>
        <path id="Trazado_706073" data-name="Trazado 706073" d="M89.872,28.725l.2.378,19.265.266.14-.339-.491-.008Z" transform="translate(95.658 30.574)" fill="#676387"/>
        <path id="Trazado_706074" data-name="Trazado 706074" d="M90.357,30.184l.132.357h.031l17.145.219h0l.1-.339-7-.095Z" transform="translate(96.174 32.126)" fill="#676387"/>
        <path id="Trazado_706075" data-name="Trazado 706075" d="M91,31.647l.13.312,14.281.138.078-.306Z" transform="translate(96.854 33.684)" fill="#676387"/>
        <path id="Trazado_706076" data-name="Trazado 706076" d="M114.007,36.895a2.566,2.566,0,0,0-2.275-1.42l-17.549-.14a2.56,2.56,0,0,0-2.143,1.125l-4.185,6.166,29.182.345Zm-19.5-.332.766.01,16.164.225a.746.746,0,0,1,.737.758l-.019,1.342-.01.758a.747.747,0,0,1-.758.737l-16.93-.233a.749.749,0,0,1-.737-.758l.029-2.1a.747.747,0,0,1,.758-.737" transform="translate(93.511 37.608)" fill="#313144"/>
        <path id="Trazado_706077" data-name="Trazado 706077" d="M106.074,38.636a14,14,0,0,0,2.254-.378l.021-1.342a.747.747,0,0,0-.737-.758l-16.166-.225c4.244,2.665,9.674,3.146,14.628,2.7" transform="translate(97.333 38.247)" fill="#fff"/>
        <path id="Trazado_706078" data-name="Trazado 706078" d="M90.694,38.768a.747.747,0,0,0,.737.758l16.93.235a.749.749,0,0,0,.758-.737l.01-.76a13.818,13.818,0,0,1-2.254.378c-4.957.444-10.384-.037-14.628-2.7l-.766-.012a.749.749,0,0,0-.758.737Z" transform="translate(96.533 38.242)" fill="#f1e3ff"/>
        <path id="Trazado_706079" data-name="Trazado 706079" d="M79.1,15.447l2.364-.392a.962.962,0,0,0,.793-1.086l-.043-.3a5.269,5.269,0,0,1-4.061-.714l-.159,1.412,0,.025a.958.958,0,0,0,.974,1.065,1.013,1.013,0,0,0,.136-.012" transform="translate(83.005 13.791)" fill="#47445e"/>
        <path id="Trazado_706080" data-name="Trazado 706080" d="M82.127,14.457l-.206-1.416a.958.958,0,0,0-1.226-.778l-1.943.584a.962.962,0,0,0-.675.809l-.01.087a5.27,5.27,0,0,0,4.061.714" transform="translate(83.092 13.007)" fill="#524d6b"/>
        <path id="Trazado_706081" data-name="Trazado 706081" d="M80.4,15.093l.291,2.331a2.7,2.7,0,0,1,2.221-1.278c.105-.008.2-.01.293-.01a.454.454,0,0,0,.452-.545l-.068-.322a.453.453,0,0,0-.421-.361l-.537-.027-2.312-.118a1.433,1.433,0,0,1,.081.33" transform="translate(85.49 15.713)" fill="#3a3951"/>
        <path id="Trazado_706082" data-name="Trazado 706082" d="M79.687,19.351a5.97,5.97,0,0,1-1.643-2.2L78.023,18.7l-.035,2.554-.035,2.434a1.517,1.517,0,0,0,1.538,1.538l2.44-.033a2.294,2.294,0,0,0,2.246-2.578l-.037-.291-.1-.805-.021-.169a9.2,9.2,0,0,1-4.331-2" transform="translate(82.972 18.252)" fill="#47445e"/>
        <path id="Trazado_706083" data-name="Trazado 706083" d="M79.64,22.4a9.2,9.2,0,0,0,4.331,2L83.3,19.045l-.138-1.107-.291-2.331a1.477,1.477,0,0,0-.081-.332,1.517,1.517,0,0,0-1.652-.979l-.074.01-1.6.322-.194.039a1.518,1.518,0,0,0-1.22,1.468l-.006.555L78,20.2a5.97,5.97,0,0,0,1.643,2.2" transform="translate(83.018 15.199)" fill="#524d6b"/>
        <path id="Trazado_706084" data-name="Trazado 706084" d="M84.71,11.99a10.04,10.04,0,0,0-.312-.962A9.213,9.213,0,0,0,82.563,8.07,10,10,0,0,0,81.256,6.9,9.566,9.566,0,0,0,79.763,6a10.015,10.015,0,0,0-1.618-.628A8.09,8.09,0,0,0,76.45,5.06a11.792,11.792,0,0,1,1.618.535,12.567,12.567,0,0,1,1.519.735A10.865,10.865,0,0,1,82.212,8.4,9.173,9.173,0,0,1,83.24,9.709a10.331,10.331,0,0,1,.813,1.464,15.139,15.139,0,0,1,1.016,3.237c0-.211-.019-.419-.039-.63a10.431,10.431,0,0,0-.32-1.79" transform="translate(81.372 5.385)" fill="#525272"/>
        <path id="Trazado_706085" data-name="Trazado 706085" d="M95.866,36.463c-2.137-.188-4.275-.316-6.416-.421-.272-.014-.526-.025-.778-.062-.126-.017-.252-.033-.376-.062l-.188-.039-.184-.052a4.947,4.947,0,0,1-1.381-.628,5.192,5.192,0,0,1-1.133-1c-.085-.093-.153-.2-.231-.3s-.138-.211-.209-.316l-.38-.7A11.787,11.787,0,0,0,82.6,30.28a12.769,12.769,0,0,0-2.616-1.959,14.317,14.317,0,0,0-1.46-.725c-.5-.209-1.007-.394-1.526-.553a13.76,13.76,0,0,0-3.167-.595,17.014,17.014,0,0,1,3.072.871,16.144,16.144,0,0,1,2.841,1.4,12.313,12.313,0,0,1,4.325,4.459l.4.708c.078.118.151.239.235.353s.165.229.262.334a5.443,5.443,0,0,0,2.826,1.759l.2.05.206.037a3.552,3.552,0,0,0,.417.058c.279.029.562.027.824.029,2.141.019,4.282.017,6.426-.045" transform="translate(78.584 28.151)" fill="#d65454"/>
        <path id="Trazado_706086" data-name="Trazado 706086" d="M74.936,27.65c.012.367.014.72.033,1.1a4.508,4.508,0,0,0,.2,1.131,4.845,4.845,0,0,0,.462,1.055,5.026,5.026,0,0,0,.7.919,4.545,4.545,0,0,0,.9.725,4.853,4.853,0,0,0,.508.279l.266.118.25.1A17.522,17.522,0,0,1,80.192,34,13.064,13.064,0,0,1,83.565,36.6a9.424,9.424,0,0,1,1.27,1.7c.1.149.171.31.256.467l.252.487a5.259,5.259,0,0,0,.648.941,5.022,5.022,0,0,0,1.827,1.332,4.875,4.875,0,0,0,1.084.32,7.062,7.062,0,0,0,1.113.081c1.455.021,2.913.045,4.368.041-1.451-.13-2.9-.231-4.356-.336a7.042,7.042,0,0,1-1.059-.122,4.7,4.7,0,0,1-2.62-1.616,4.775,4.775,0,0,1-.559-.871l-.239-.487c-.085-.165-.159-.339-.258-.5a10.1,10.1,0,0,0-1.3-1.817,13.448,13.448,0,0,0-3.5-2.731,17.751,17.751,0,0,0-2-.948l-.256-.1-.233-.1a4.113,4.113,0,0,1-.45-.244,4.167,4.167,0,0,1-.8-.632,4.319,4.319,0,0,1-1.065-1.732,4.113,4.113,0,0,1-.2-1.009c-.029-.349-.045-.723-.068-1.082-.165-2.909-.351-5.813-.595-8.718,0,2.915.054,5.826.13,8.736" transform="translate(79.622 20.131)" fill="#d65454"/>
        <path id="Trazado_706087" data-name="Trazado 706087" d="M99.529,48.7c.058-.7.091-1.42.091-2.149a23.945,23.945,0,0,0-2.147-10.2c-1.583-3.338-3.924-5.751-6.623-6.606a7.206,7.206,0,0,0-2.031-.339c-3.569-.068-6.74,2.574-8.718,6.7a23.481,23.481,0,0,0-2.137,10.029c0,.774.033,1.538.095,2.287l.469.008-4.981-.068a1.257,1.257,0,0,1-1.241-1.276l.138-9.942A1.142,1.142,0,0,1,73.6,36.016l.378,0,.081-3.5-4.585-.064L64,32.378l-3.509-.047a2.42,2.42,0,0,0-2.446,2.38l-.155,11.1a2.42,2.42,0,0,0,2.38,2.446l7.944.111,11.2.155q-.043-.737-.043-1.493c.012-8.14,4.011-14.663,8.931-14.57s8.9,6.771,8.885,14.911-4.009,14.665-8.931,14.57l10.34.235-.056-.052c4.63.047,8.388-5.8,8.8-13.3Z" transform="translate(61.617 31.293)" fill="#292938"/>
        <path id="Trazado_706088" data-name="Trazado 706088" d="M86.11,45.8c.012-8.14-3.966-14.816-8.885-14.911s-8.918,6.428-8.931,14.57q0,.756.043,1.493c.442,7.448,4.228,13.33,8.844,13.418,4.919.095,8.916-6.428,8.928-14.57M71.345,48.238a16.215,16.215,0,0,1-.223-2.729c.008-5.557,2.737-10.01,6.1-9.946A5.065,5.065,0,0,1,81.13,38a13.636,13.636,0,0,1,2.153,7.737c-.008,5.557-2.737,10.01-6.1,9.946-2.787-.054-5.13-3.2-5.842-7.45" transform="translate(72.691 32.871)" fill="#3b3b4c"/>
        <path id="Trazado_706089" data-name="Trazado 706089" d="M71.7,45.37a11.883,11.883,0,0,1,.008-4.476,9.07,9.07,0,0,1,.692-2.141,5.74,5.74,0,0,1,1.311-1.835,3.5,3.5,0,0,1,.962-.621,2.76,2.76,0,0,1,1.133-.219,3.251,3.251,0,0,1,2.093.91,6.031,6.031,0,0,1,1.3,1.767,31.747,31.747,0,0,0,.473-3.165,5.061,5.061,0,0,0-3.91-2.44c-3.359-.064-6.088,4.389-6.1,9.946a16.25,16.25,0,0,0,.223,2.729,8.671,8.671,0,0,0,1.984.279c-.064-.244-.124-.487-.171-.735" transform="translate(74.149 35.285)" fill="#aeaccc"/>
        <path id="Trazado_706090" data-name="Trazado 706090" d="M70.958,44.495a6.094,6.094,0,0,0,4.967-2.219,10.2,10.2,0,0,0,2.2-4.571c-.043-.107-.087-.217-.134-.322a6.016,6.016,0,0,0-1.222-1.806,3.021,3.021,0,0,0-1.916-.91,2.59,2.59,0,0,0-1.067.171,3.4,3.4,0,0,0-.939.564,5.574,5.574,0,0,0-1.344,1.767,9.92,9.92,0,0,0-.958,4.354,10.964,10.964,0,0,0,.409,2.973" transform="translate(75.091 36.893)" fill="#aeaccc"/>
        <path id="Trazado_706091" data-name="Trazado 706091" d="M81.71,42.07a13.636,13.636,0,0,0-2.153-7.737,31.709,31.709,0,0,1-.475,3.163c.017.031.033.062.047.093a10.316,10.316,0,0,1,.952,4.447,10.114,10.114,0,0,1-.981,4.44A5.723,5.723,0,0,1,77.712,48.3a3.64,3.64,0,0,1-1,.6,2.8,2.8,0,0,1-1.148.184,3.21,3.21,0,0,1-2.044-.962,6.209,6.209,0,0,1-1.268-1.868,8.757,8.757,0,0,1-.5-1.412,8.576,8.576,0,0,1-1.986-.279c.712,4.246,3.055,7.4,5.842,7.45,3.359.064,6.088-4.389,6.1-9.946" transform="translate(74.264 36.543)" fill="#9b9bbc"/>
        <path id="Trazado_706092" data-name="Trazado 706092" d="M70.747,42.926a8.608,8.608,0,0,0,.524,1.389,5.927,5.927,0,0,0,1.3,1.8,3.055,3.055,0,0,0,1.967.857,2.594,2.594,0,0,0,1.053-.2,3.374,3.374,0,0,0,.9-.588,5.556,5.556,0,0,0,1.263-1.771,8.842,8.842,0,0,0,.675-2.1,11.034,11.034,0,0,0,.213-2.2,11.384,11.384,0,0,0-.2-2.2,9.472,9.472,0,0,0-.524-1.779,10.2,10.2,0,0,1-2.2,4.571,6.094,6.094,0,0,1-4.967,2.219" transform="translate(75.302 38.462)" fill="#9b9bbc"/>
        <path id="Trazado_706093" data-name="Trazado 706093" d="M76.959,35.479a3.256,3.256,0,0,0-2.1-.91,2.807,2.807,0,0,0-1.133.219,3.576,3.576,0,0,0-.962.621,5.757,5.757,0,0,0-1.309,1.835,9.008,9.008,0,0,0-.692,2.141,11.329,11.329,0,0,0-.219,2.238,9.922,9.922,0,0,1,.96-4.354A5.507,5.507,0,0,1,72.851,35.5a3.391,3.391,0,0,1,.939-.566,2.63,2.63,0,0,1,1.067-.171,3.021,3.021,0,0,1,1.916.91A6,6,0,0,1,78,37.484c.05.107.091.215.134.322a9.518,9.518,0,0,1,.524,1.779,11.242,11.242,0,0,1,.206,2.2,11.072,11.072,0,0,1-.215,2.2,8.856,8.856,0,0,1-.675,2.093,5.581,5.581,0,0,1-1.261,1.773,3.4,3.4,0,0,1-.906.586,2.594,2.594,0,0,1-1.053.2,3.059,3.059,0,0,1-1.967-.857,5.936,5.936,0,0,1-1.3-1.8,8.807,8.807,0,0,1-.524-1.389,10.953,10.953,0,0,1-.409-2.973,11.476,11.476,0,0,0,.211,2.238c.047.248.107.491.171.735a8.767,8.767,0,0,0,.5,1.412A6.131,6.131,0,0,0,72.7,47.874a3.212,3.212,0,0,0,2.044.964,2.8,2.8,0,0,0,1.148-.184,3.64,3.64,0,0,0,1-.6,5.759,5.759,0,0,0,1.391-1.829,10.084,10.084,0,0,0,.979-4.44,10.344,10.344,0,0,0-.95-4.447c-.017-.031-.033-.062-.047-.093a6.068,6.068,0,0,0-1.3-1.767" transform="translate(75.091 36.792)" fill="#7f7fa5"/>
        <path id="Trazado_706094" data-name="Trazado 706094" d="M14.98,26.432l-.972-3.055-4.981,7.2,3.016.041Z" transform="translate(9.607 24.882)" fill="#3b3a51"/>
        <path id="Trazado_706095" data-name="Trazado 706095" d="M26.884,23.806l-.07-.221-4.94,7.135,3.016.043,2.9-4.123Z" transform="translate(23.282 25.103)" fill="#3b3a51"/>
        <path id="Trazado_706096" data-name="Trazado 706096" d="M40.59,26.848l-.972-3.055-4.9,7.075,3.016.041.6-.855Z" transform="translate(36.956 25.324)" fill="#3b3a51"/>
        <path id="Trazado_706097" data-name="Trazado 706097" d="M52.423,24l-4.855,7.013,3.018.043,2.81-4Z" transform="translate(50.63 25.545)" fill="#3b3a51"/>
        <path id="Trazado_706098" data-name="Trazado 706098" d="M24.181,34.7l10.77.149.776.01,18.864.262L60.3,35.2l7.087.1.774.01,22.551.314,5.714.078,9.909.136a.8.8,0,0,1-.762-.809l.031-2.409a.8.8,0,0,1,.787-.789l-.1,0-7.628-.105-3.016-.041,4.853-7.015-1.29-.017-4.765,7.013-16.823-.231-5.483-.076-3.016-.041,4.9-7.075-1.29-.019-3.747,5.51L67.931,31.3l-2.122-.031-.8-.01-19.387-.268-3.014-.041,4.94-7.137-.557-.008-.733-.01L41.41,30.933l-8.041-.111-.8-.01-13.466-.186-3.018-.043,4.981-7.194-1.29-.019-4.888,7.2-6.466-.089-.029,0-.027,0-.017,0v0a.8.8,0,0,0-.77.789l0,.264A33.421,33.421,0,0,1,4.883,27l-2.492-.035a.833.833,0,0,1,.27.475l.588,3.635a.581.581,0,0,1-.116.469l4.445.062L7.55,33.674a.8.8,0,0,0,.747.809h.017l.027,0,.029,0,1.585.021,8.509.12Z" transform="translate(2.545 24.873)" fill="#524d6b"/>
        <path id="Trazado_706099" data-name="Trazado 706099" d="M53.91,31.008a.813.813,0,0,0,.07-.318L54,29.163l.012-.879a.8.8,0,0,0-.791-.815l-.029,0a.8.8,0,0,0-.787.791l-.033,2.407a.8.8,0,0,0,.764.811l.029,0a.8.8,0,0,0,.743-.475" transform="translate(55.746 29.236)" fill="#3b3a51"/>
        <path id="Trazado_706100" data-name="Trazado 706100" d="M30.8,6.579l1.245.017a7.623,7.623,0,0,1,.217-1.715,6.132,6.132,0,0,1,.976-2.168,3.134,3.134,0,0,1,2.541-1.466L46.657,1.4,46.6,5.079,46.582,6.8a.622.622,0,0,0,.547.623.683.683,0,0,0,.068.008h.008a.631.631,0,0,0,.623-.615L47.852,5.1,47.9,1.414l24.834.345-.01.7-.019,1.317L72.686,5.44l-.019,1.42a.609.609,0,0,0-.244.1,28.054,28.054,0,0,0-5.95,5.685L55.11,12.488,53.5,12.465l-.739-.01A26.533,26.533,0,0,1,57.986,7.6a.628.628,0,1,0-.718-1.03c-8.34,5.822-13.627,17.01-13.794,29.2-.008.607,0,1.214.014,1.819.008.262.017.524.029.787a40.619,40.619,0,0,0,3.557,15.041.628.628,0,0,0,.572.365.618.618,0,0,0,.26-.058.629.629,0,0,0,.31-.834,36.588,36.588,0,0,1-1.722-4.533l.716.008,13.065.182c.027.093.056.186.085.279a38.205,38.205,0,0,0,1.87,4.985.628.628,0,0,0,.572.365.618.618,0,0,0,.26-.058.629.629,0,0,0,.31-.834,36.359,36.359,0,0,1-1.693-4.44c-.126-.409-.248-.822-.361-1.237a40.233,40.233,0,0,1-.968-4.575q-.093-.613-.167-1.232c-.13-1.082-.219-2.176-.264-3.274-.008-.211-.012-.421-.019-.632s-.012-.44-.014-.659c0-.351,0-.7,0-1.055,0-.058,0-.118,0-.178a42.02,42.02,0,0,1,.332-4.556c.052-.411.111-.82.175-1.228a40.287,40.287,0,0,1,.987-4.546q.17-.619.363-1.226A37.551,37.551,0,0,1,63.5,19.917c.2-.419.4-.832.6-1.239a32.885,32.885,0,0,1,2.783-4.507c.312-.421.63-.832.96-1.232a26.508,26.508,0,0,1,5.3-4.948.618.618,0,0,0,.182-.2.622.622,0,0,0,.584-.611l.025-1.722.027-1.934.017-1.249.006-.5,14.329.2a2.876,2.876,0,0,1,1.6.52,3.8,3.8,0,0,1,.919.9c.085.116.165.239.244.365a5.845,5.845,0,0,1,.712,1.951,7.021,7.021,0,0,1,.107.9c0,.085.008.169.01.256s0,.192,0,.289a.62.62,0,0,0,.613.632h.008a.622.622,0,0,0,.623-.615q.006-.35-.019-.694c0-.07-.008-.138-.014-.206-.017-.184-.039-.365-.066-.543a7.571,7.571,0,0,0-.566-1.947,6.117,6.117,0,0,0-.654-1.127c-.033-.045-.066-.087-.1-.13a4.36,4.36,0,0,0-3.4-1.79L35.8,0a4.363,4.363,0,0,0-3.563,1.978,7.469,7.469,0,0,0-1.245,2.886A8.958,8.958,0,0,0,30.8,6.575ZM59.939,47.312l-11.761-.163-1.3-.019-.739-.01a39.77,39.77,0,0,1-.958-4.575l.809.012,13.053.18c.012.093.023.186.037.279a41.51,41.51,0,0,0,.861,4.3m-1.3-9.445c.006.217.008.434.017.648.041,1,.12,2,.227,2.989L47.1,41.341l-1.263-.017-.822-.012c-.114-.966-.194-1.943-.239-2.923-.012-.26-.023-.52-.029-.78q-.015-.43-.019-.861l.859.012,13.041.18v.277c0,.217.008.434.014.65m0-2.157-11.781-.163L45.6,35.53l-.865-.012a41.944,41.944,0,0,1,.341-4.556l.886.012,13.03.18-.037.277c-.173,1.406-.281,2.836-.316,4.279m.533-5.784-11.757-.163-1.272-.017-.89-.012a40.7,40.7,0,0,1,1-4.548l.89.012,13.022.18-.074.277a41.8,41.8,0,0,0-.917,4.271m1.352-5.772-11.7-.163L47.5,23.972l-.886-.012a37.569,37.569,0,0,1,1.763-4.527l.867.01,13.008.182c-.041.091-.085.182-.126.275a38.622,38.622,0,0,0-1.606,4.255m2.322-5.768-11.594-.161-1.408-.019L49,18.194a32.464,32.464,0,0,1,2.8-4.507l.774.01,12.977.18c-.064.091-.124.184-.188.275a34.814,34.814,0,0,0-2.512,4.234" transform="translate(32.783 -0.001)" fill="#524d6b"/>
        <path id="Trazado_706101" data-name="Trazado 706101" d="M42.751,6.635a34.306,34.306,0,0,0-2.725,4.509l1.406.019A32.76,32.76,0,0,1,44.089,6.93l11.451.159c.062-.091.124-.184.188-.275Z" transform="translate(42.603 7.062)" fill="#ffc043"/>
        <path id="Trazado_706102" data-name="Trazado 706102" d="M38.331,15a43.862,43.862,0,0,0-.361,4.556l1.257.017a42.414,42.414,0,0,1,.33-4.279l11.767.163.037-.275Z" transform="translate(40.415 15.97)" fill="#ffc043"/>
        <path id="Trazado_706103" data-name="Trazado 706103" d="M38.156,20.615a41.229,41.229,0,0,0,.89,4.573l1.3.019a40.3,40.3,0,0,1-.886-4.3l11.783.163-.037-.277Z" transform="translate(40.612 21.942)" fill="#ffc043"/>
        <path id="Trazado_706104" data-name="Trazado 706104" d="M40.635,9.419a38.62,38.62,0,0,0-1.744,4.529l1.323.019a36.72,36.72,0,0,1,1.672-4.255l11.633.161c.041-.091.083-.182.124-.275Z" transform="translate(41.395 10.025)" fill="#ffc043"/>
        <path id="Trazado_706105" data-name="Trazado 706105" d="M48.4,4.418a.628.628,0,0,0-.718-1.03A28.023,28.023,0,0,0,41.8,8.98L43.4,9A26.333,26.333,0,0,1,48.4,4.418" transform="translate(44.489 3.484)" fill="#ffc043"/>
        <path id="Trazado_706106" data-name="Trazado 706106" d="M49.351,50.427a.627.627,0,0,0,.562.365.6.6,0,0,0,.27-.058.627.627,0,0,0,.31-.832,39.461,39.461,0,0,1-3.464-15.051c-.006-.2-.01-.4-.014-.6-.01-.483-.014-.966-.008-1.451C47.169,21,52.249,10.2,60.263,4.608a.628.628,0,1,0-.718-1.03,28.164,28.164,0,0,0-5.954,5.683l-.741-.01c-.328.4-.648.813-.958,1.234l.774.01A34.7,34.7,0,0,0,49.958,15l-.848-.01c-.211.407-.411.82-.6,1.237l.861.012a38.323,38.323,0,0,0-1.728,4.529l-.886-.012c-.128.4-.248.813-.363,1.226l.888.012a41.778,41.778,0,0,0-.989,4.548l-.886-.012c-.064.407-.124.815-.175,1.228l.884.01a43.336,43.336,0,0,0-.351,4.558l-.863-.012-.006.178q-.006.526,0,1.053l.857.012c0,.221.008.442.012.665,0,.206.006.413.012.619q.056,1.65.233,3.28l-.818-.012c.05.413.107.824.169,1.235l.8.01a40.783,40.783,0,0,0,.9,4.573l-.737-.01c.116.417.235.828.361,1.237l.712.01a37.872,37.872,0,0,0,1.955,5.262" transform="translate(47.776 3.688)" fill="#ffc043"/>
        <path id="Trazado_706107" data-name="Trazado 706107" d="M39.231,12.206a41.8,41.8,0,0,0-1,4.548l1.274.017a40.57,40.57,0,0,1,.95-4.271l11.724.163.074-.277Z" transform="translate(40.693 12.991)" fill="#ffc043"/>
        <path id="Trazado_706108" data-name="Trazado 706108" d="M41.291,29.149a.6.6,0,0,0,.27-.058.625.625,0,0,0,.308-.832,37.088,37.088,0,0,1-1.724-4.535l11.753.163c-.027-.093-.056-.186-.083-.279l-13.068-.18a38.2,38.2,0,0,0,1.982,5.355.626.626,0,0,0,.562.365" transform="translate(41.243 24.937)" fill="#ffc043"/>
        <path id="Trazado_706109" data-name="Trazado 706109" d="M39.231,18.693c0-.2-.012-.394-.012-.592L51,18.263c0-.093,0-.184,0-.277l-13.041-.18c0,.287,0,.576.008.863.006.258.01.516.021.774q.059,1.474.219,2.927l1.265.017c-.107-.97-.184-1.947-.223-2.931-.01-.254-.017-.508-.023-.764" transform="translate(40.407 18.953)" fill="#ffc043"/>
        <path id="Trazado_706110" data-name="Trazado 706110" d="M98.1,20.412l-.068-.021h0a.619.619,0,0,0,.066.021" transform="translate(104.339 21.703)" fill="#5a3b72"/>
      </g>
    </g>
  </g>
</svg>
