<svg xmlns="http://www.w3.org/2000/svg" xmlns:xlink="http://www.w3.org/1999/xlink" width="210.268" height="183.485" viewBox="0 0 210.268 183.485">
  <defs>
    <clipPath id="clip-path">
      <rect id="Rectángulo_345857" data-name="Rectángulo 345857" width="210.268" height="125.404" fill="none"/>
    </clipPath>
    <clipPath id="clip-path-3">
      <rect id="Rectángulo_345725" data-name="Rectángulo 345725" width="12.445" height="4.207" fill="none"/>
    </clipPath>
    <clipPath id="clip-path-4">
      <rect id="Rectángulo_345727" data-name="Rectángulo 345727" width="12.445" height="4.205" fill="none"/>
    </clipPath>
    <clipPath id="clip-path-7">
      <rect id="Rectángulo_345733" data-name="Rectángulo 345733" width="12.445" height="4.209" fill="none"/>
    </clipPath>
    <clipPath id="clip-path-9">
      <rect id="Rectángulo_345737" data-name="Rectángulo 345737" width="12.445" height="4.208" fill="none"/>
    </clipPath>
    <clipPath id="clip-path-10">
      <rect id="Rectángulo_345749" data-name="Rectángulo 345749" width="12.447" height="4.207" fill="none"/>
    </clipPath>
    <clipPath id="clip-path-11">
      <rect id="Rectángulo_345751" data-name="Rectángulo 345751" width="12.447" height="4.205" fill="none"/>
    </clipPath>
    <clipPath id="clip-path-14">
      <rect id="Rectángulo_345757" data-name="Rectángulo 345757" width="12.447" height="4.209" fill="none"/>
    </clipPath>
    <clipPath id="clip-path-16">
      <rect id="Rectángulo_345761" data-name="Rectángulo 345761" width="12.447" height="4.208" fill="none"/>
    </clipPath>
    <clipPath id="clip-path-17">
      <rect id="Rectángulo_345796" data-name="Rectángulo 345796" width="14.321" height="9.535" fill="none"/>
    </clipPath>
    <clipPath id="clip-path-18">
      <rect id="Rectángulo_345797" data-name="Rectángulo 345797" width="14.321" height="10.269" fill="none"/>
    </clipPath>
    <clipPath id="clip-path-19">
      <rect id="Rectángulo_345814" data-name="Rectángulo 345814" width="14.319" height="9.535" fill="none"/>
    </clipPath>
    <clipPath id="clip-path-20">
      <rect id="Rectángulo_345815" data-name="Rectángulo 345815" width="14.319" height="10.269" fill="none"/>
    </clipPath>
    <clipPath id="clip-path-21">
      <rect id="Rectángulo_345832" data-name="Rectángulo 345832" width="14.318" height="9.535" fill="none"/>
    </clipPath>
    <clipPath id="clip-path-22">
      <rect id="Rectángulo_345833" data-name="Rectángulo 345833" width="14.318" height="10.269" fill="none"/>
    </clipPath>
    <clipPath id="clip-path-25">
      <rect id="Rectángulo_345853" data-name="Rectángulo 345853" width="95.632" height="2.377" fill="none"/>
    </clipPath>
  </defs>
  <g id="Grupo_999981" data-name="Grupo 999981" transform="translate(-562.037 -15108.292)">
    <circle id="Elipse_7904" data-name="Elipse 7904" cx="91.708" cy="91.708" r="91.708" transform="translate(572.941 15108.292)" fill="#25ffff" opacity="0.5"/>
    <g id="Grupo_999610" data-name="Grupo 999610" transform="translate(562.037 15166.373)">
      <g id="Grupo_999609" data-name="Grupo 999609" clip-path="url(#clip-path)">
        <g id="Grupo_999608" data-name="Grupo 999608">
          <g id="Grupo_999607" data-name="Grupo 999607" clip-path="url(#clip-path)">
            <path id="Trazado_706477" data-name="Trazado 706477" d="M63.7,91.891c-13.655,0-22.236-4.96-22.363-5.036l.373-.6c.187.111,19.044,10.987,45.445.091l.121-.05.125.038c.413.125,41.477,12.315,65.733-6.181l.442.55c-23.875,18.206-63.7,7.081-66.262,6.335A61.863,61.863,0,0,1,63.7,91.891" transform="translate(-6.521 -12.645)" fill="#123d46"/>
            <path id="Trazado_706478" data-name="Trazado 706478" d="M42.29,70.636C17.663,70.636.278,63.122.019,63.008l.3-.636c.387.171,39.056,16.868,82.854.107l.111-.041.119.032c.47.129,47.3,12.6,66.3-16.169l.6.378c-10.091,15.279-27.814,18.937-40.9,19.315a100.455,100.455,0,0,1-26.075-2.822A114.812,114.812,0,0,1,42.29,70.636" transform="translate(-0.003 -7.304)" fill="#123d46"/>
            <path id="Trazado_706479" data-name="Trazado 706479" d="M112.1,105.582A117.83,117.83,0,0,1,83.49,101.8,156.679,156.679,0,0,1,48.44,88.2,61.944,61.944,0,0,1,0,88.01l.333-.621a61.168,61.168,0,0,0,47.988.1l.168-.071.157.091a155.1,155.1,0,0,0,35.043,13.616c18.436,4.667,45.124,7.317,67.554-6.552l.387.588c-12.586,7.78-26.48,10.416-39.525,10.416" transform="translate(0 -13.786)" fill="#123d46"/>
            <rect id="Rectángulo_345714" data-name="Rectángulo 345714" width="12.491" height="123.006" transform="translate(146.789 1.039)" fill="#bababa"/>
            <rect id="Rectángulo_345715" data-name="Rectángulo 345715" width="6.243" height="123.006" transform="translate(153.037 1.039)" fill="#e8e3e8"/>
            <rect id="Rectángulo_345716" data-name="Rectángulo 345716" width="16.599" height="2.494" transform="translate(144.825)" fill="#4c4b4c"/>
            <rect id="Rectángulo_345717" data-name="Rectángulo 345717" width="16.599" height="2.493" transform="translate(144.825 14.961)" fill="#4c4b4c"/>
            <rect id="Rectángulo_345718" data-name="Rectángulo 345718" width="16.599" height="2.493" transform="translate(144.825 29.922)" fill="#4c4b4c"/>
            <rect id="Rectángulo_345719" data-name="Rectángulo 345719" width="16.599" height="2.494" transform="translate(144.825 46.128)" fill="#4c4b4c"/>
            <rect id="Rectángulo_345720" data-name="Rectángulo 345720" width="16.599" height="2.493" transform="translate(144.825 61.088)" fill="#4c4b4c"/>
            <rect id="Rectángulo_345721" data-name="Rectángulo 345721" width="16.599" height="2.492" transform="translate(144.825 76.049)" fill="#4c4b4c"/>
            <rect id="Rectángulo_345722" data-name="Rectángulo 345722" width="16.599" height="2.492" transform="translate(144.825 91.009)" fill="#4c4b4c"/>
            <rect id="Rectángulo_345723" data-name="Rectángulo 345723" width="16.599" height="2.493" transform="translate(144.825 107.215)" fill="#4c4b4c"/>
            <g id="Grupo_999540" data-name="Grupo 999540" transform="translate(146.835 2.494)" opacity="0.1">
              <g id="Grupo_999539" data-name="Grupo 999539">
                <g id="Grupo_999538" data-name="Grupo 999538" clip-path="url(#clip-path-3)">
                  <rect id="Rectángulo_345724" data-name="Rectángulo 345724" width="12.445" height="4.206" transform="translate(0 0.001)"/>
                </g>
              </g>
            </g>
            <g id="Grupo_999543" data-name="Grupo 999543" transform="translate(146.835 17.454)" opacity="0.1">
              <g id="Grupo_999542" data-name="Grupo 999542">
                <g id="Grupo_999541" data-name="Grupo 999541" clip-path="url(#clip-path-4)">
                  <rect id="Rectángulo_345726" data-name="Rectángulo 345726" width="12.445" height="4.205"/>
                </g>
              </g>
            </g>
            <g id="Grupo_999546" data-name="Grupo 999546" transform="translate(146.835 32.415)" opacity="0.1">
              <g id="Grupo_999545" data-name="Grupo 999545">
                <g id="Grupo_999544" data-name="Grupo 999544" clip-path="url(#clip-path-4)">
                  <rect id="Rectángulo_345728" data-name="Rectángulo 345728" width="12.445" height="4.205" transform="translate(0 0)"/>
                </g>
              </g>
            </g>
            <g id="Grupo_999549" data-name="Grupo 999549" transform="translate(146.835 48.621)" opacity="0.1">
              <g id="Grupo_999548" data-name="Grupo 999548">
                <g id="Grupo_999547" data-name="Grupo 999547" clip-path="url(#clip-path-3)">
                  <rect id="Rectángulo_345730" data-name="Rectángulo 345730" width="12.445" height="4.207" transform="translate(0 0)"/>
                </g>
              </g>
            </g>
            <g id="Grupo_999552" data-name="Grupo 999552" transform="translate(146.835 63.58)" opacity="0.1">
              <g id="Grupo_999551" data-name="Grupo 999551">
                <g id="Grupo_999550" data-name="Grupo 999550" clip-path="url(#clip-path-7)">
                  <rect id="Rectángulo_345732" data-name="Rectángulo 345732" width="12.445" height="4.209" transform="translate(0 0)"/>
                </g>
              </g>
            </g>
            <g id="Grupo_999555" data-name="Grupo 999555" transform="translate(146.835 78.542)" opacity="0.1">
              <g id="Grupo_999554" data-name="Grupo 999554">
                <g id="Grupo_999553" data-name="Grupo 999553" clip-path="url(#clip-path-3)">
                  <rect id="Rectángulo_345734" data-name="Rectángulo 345734" width="12.445" height="4.207" transform="translate(0 0)"/>
                </g>
              </g>
            </g>
            <g id="Grupo_999558" data-name="Grupo 999558" transform="translate(146.835 93.501)" opacity="0.1">
              <g id="Grupo_999557" data-name="Grupo 999557">
                <g id="Grupo_999556" data-name="Grupo 999556" clip-path="url(#clip-path-9)">
                  <rect id="Rectángulo_345736" data-name="Rectángulo 345736" width="12.445" height="4.208" transform="translate(0 0)"/>
                </g>
              </g>
            </g>
            <rect id="Rectángulo_345738" data-name="Rectángulo 345738" width="12.491" height="123.006" transform="translate(183.477 1.039)" fill="#bababa"/>
            <rect id="Rectángulo_345739" data-name="Rectángulo 345739" width="6.246" height="123.006" transform="translate(189.721 1.039)" fill="#e8e3e8"/>
            <rect id="Rectángulo_345740" data-name="Rectángulo 345740" width="16.599" height="2.494" transform="translate(181.512)" fill="#4c4b4c"/>
            <rect id="Rectángulo_345741" data-name="Rectángulo 345741" width="16.599" height="2.493" transform="translate(181.512 14.961)" fill="#4c4b4c"/>
            <rect id="Rectángulo_345742" data-name="Rectángulo 345742" width="16.599" height="2.493" transform="translate(181.512 29.922)" fill="#4c4b4c"/>
            <rect id="Rectángulo_345743" data-name="Rectángulo 345743" width="16.599" height="2.494" transform="translate(181.512 46.128)" fill="#4c4b4c"/>
            <rect id="Rectángulo_345744" data-name="Rectángulo 345744" width="16.599" height="2.493" transform="translate(181.512 61.088)" fill="#4c4b4c"/>
            <rect id="Rectángulo_345745" data-name="Rectángulo 345745" width="16.599" height="2.492" transform="translate(181.512 76.049)" fill="#4c4b4c"/>
            <rect id="Rectángulo_345746" data-name="Rectángulo 345746" width="16.599" height="2.492" transform="translate(181.512 91.009)" fill="#4c4b4c"/>
            <rect id="Rectángulo_345747" data-name="Rectángulo 345747" width="16.599" height="2.493" transform="translate(181.512 107.215)" fill="#4c4b4c"/>
            <g id="Grupo_999561" data-name="Grupo 999561" transform="translate(183.521 2.494)" opacity="0.1">
              <g id="Grupo_999560" data-name="Grupo 999560">
                <g id="Grupo_999559" data-name="Grupo 999559" clip-path="url(#clip-path-10)">
                  <rect id="Rectángulo_345748" data-name="Rectángulo 345748" width="12.446" height="4.206" transform="translate(0.001 0.001)"/>
                </g>
              </g>
            </g>
            <g id="Grupo_999564" data-name="Grupo 999564" transform="translate(183.521 17.454)" opacity="0.1">
              <g id="Grupo_999563" data-name="Grupo 999563">
                <g id="Grupo_999562" data-name="Grupo 999562" clip-path="url(#clip-path-11)">
                  <rect id="Rectángulo_345750" data-name="Rectángulo 345750" width="12.446" height="4.205" transform="translate(0.001)"/>
                </g>
              </g>
            </g>
            <g id="Grupo_999567" data-name="Grupo 999567" transform="translate(183.521 32.415)" opacity="0.1">
              <g id="Grupo_999566" data-name="Grupo 999566">
                <g id="Grupo_999565" data-name="Grupo 999565" clip-path="url(#clip-path-11)">
                  <rect id="Rectángulo_345752" data-name="Rectángulo 345752" width="12.446" height="4.205" transform="translate(0.001 0)"/>
                </g>
              </g>
            </g>
            <g id="Grupo_999570" data-name="Grupo 999570" transform="translate(183.521 48.621)" opacity="0.1">
              <g id="Grupo_999569" data-name="Grupo 999569">
                <g id="Grupo_999568" data-name="Grupo 999568" clip-path="url(#clip-path-10)">
                  <rect id="Rectángulo_345754" data-name="Rectángulo 345754" width="12.446" height="4.207" transform="translate(0.001 0)"/>
                </g>
              </g>
            </g>
            <g id="Grupo_999573" data-name="Grupo 999573" transform="translate(183.521 63.58)" opacity="0.1">
              <g id="Grupo_999572" data-name="Grupo 999572">
                <g id="Grupo_999571" data-name="Grupo 999571" clip-path="url(#clip-path-14)">
                  <rect id="Rectángulo_345756" data-name="Rectángulo 345756" width="12.446" height="4.209" transform="translate(0.001 0)"/>
                </g>
              </g>
            </g>
            <g id="Grupo_999576" data-name="Grupo 999576" transform="translate(183.521 78.542)" opacity="0.1">
              <g id="Grupo_999575" data-name="Grupo 999575">
                <g id="Grupo_999574" data-name="Grupo 999574" clip-path="url(#clip-path-10)">
                  <rect id="Rectángulo_345758" data-name="Rectángulo 345758" width="12.446" height="4.207" transform="translate(0.001 0)"/>
                </g>
              </g>
            </g>
            <g id="Grupo_999579" data-name="Grupo 999579" transform="translate(183.521 93.501)" opacity="0.1">
              <g id="Grupo_999578" data-name="Grupo 999578">
                <g id="Grupo_999577" data-name="Grupo 999577" clip-path="url(#clip-path-16)">
                  <rect id="Rectángulo_345760" data-name="Rectángulo 345760" width="12.446" height="4.208" transform="translate(0.001 0)"/>
                </g>
              </g>
            </g>
            <path id="Trazado_706480" data-name="Trazado 706480" d="M18.3,76.331l-7.952-7.676.506-.5,7.454,7.2L25.9,68.323l.494.506Z" transform="translate(-1.633 -10.752)" fill="#424141"/>
            <path id="Trazado_706481" data-name="Trazado 706481" d="M18.147,85.908,10.2,78.231l.5-.5,7.453,7.2L25.743,77.9l.5.5Z" transform="translate(-1.609 -12.263)" fill="#424141"/>
            <rect id="Rectángulo_345762" data-name="Rectángulo 345762" width="1.953" height="69.782" transform="translate(17.249 53.155)" fill="#545252"/>
            <rect id="Rectángulo_345763" data-name="Rectángulo 345763" width="2.841" height="69.826" transform="translate(14.408 53.156)" fill="#424141"/>
            <rect id="Rectángulo_345764" data-name="Rectángulo 345764" width="34.836" height="2.646" transform="translate(0.167 55.386)" fill="#545252"/>
            <rect id="Rectángulo_345765" data-name="Rectángulo 345765" width="32.31" height="2.646" transform="translate(0.166 55.386)" fill="#424141"/>
            <rect id="Rectángulo_345766" data-name="Rectángulo 345766" width="34.836" height="2.647" transform="translate(0.167 64.461)" fill="#545252"/>
            <rect id="Rectángulo_345767" data-name="Rectángulo 345767" width="32.31" height="2.647" transform="translate(0.166 64.461)" fill="#424141"/>
            <rect id="Rectángulo_345768" data-name="Rectángulo 345768" width="34.836" height="2.646" transform="translate(0.167 71.268)" fill="#545252"/>
            <rect id="Rectángulo_345769" data-name="Rectángulo 345769" width="32.31" height="2.646" transform="translate(0.166 71.268)" fill="#424141"/>
            <path id="Trazado_706482" data-name="Trazado 706482" d="M75.645,76.467l-7.95-7.677.5-.494,7.455,7.2,7.588-7.033.493.5Z" transform="translate(-10.679 -10.774)" fill="#424141"/>
            <path id="Trazado_706483" data-name="Trazado 706483" d="M75.49,86.044,67.54,78.369l.505-.5,7.454,7.2,7.585-7.033.494.505Z" transform="translate(-10.654 -12.284)" fill="#424141"/>
            <rect id="Rectángulo_345770" data-name="Rectángulo 345770" width="1.953" height="69.782" transform="translate(65.546 53.27)" fill="#545252"/>
            <rect id="Rectángulo_345771" data-name="Rectángulo 345771" width="2.84" height="69.828" transform="translate(62.705 53.271)" fill="#424141"/>
            <rect id="Rectángulo_345772" data-name="Rectángulo 345772" width="34.837" height="2.648" transform="translate(48.462 55.5)" fill="#545252"/>
            <rect id="Rectángulo_345773" data-name="Rectángulo 345773" width="32.312" height="2.648" transform="translate(48.462 55.5)" fill="#424141"/>
            <rect id="Rectángulo_345774" data-name="Rectángulo 345774" width="34.837" height="2.646" transform="translate(48.462 64.575)" fill="#545252"/>
            <rect id="Rectángulo_345775" data-name="Rectángulo 345775" width="32.312" height="2.646" transform="translate(48.462 64.575)" fill="#424141"/>
            <rect id="Rectángulo_345776" data-name="Rectángulo 345776" width="34.837" height="2.645" transform="translate(48.462 71.383)" fill="#545252"/>
            <rect id="Rectángulo_345777" data-name="Rectángulo 345777" width="32.312" height="2.645" transform="translate(48.462 71.383)" fill="#424141"/>
            <rect id="Rectángulo_345778" data-name="Rectángulo 345778" width="109.749" height="32.09" transform="translate(86.162 93.315)" fill="#cdcdcd"/>
            <rect id="Rectángulo_345779" data-name="Rectángulo 345779" width="22.835" height="32.09" transform="translate(181.85 93.315)" fill="#ebebeb"/>
            <rect id="Rectángulo_345780" data-name="Rectángulo 345780" width="3.015" height="2.931" transform="translate(93.464 100.737)" fill="#4c4b4c"/>
            <rect id="Rectángulo_345781" data-name="Rectángulo 345781" width="3.014" height="2.931" transform="translate(97.233 100.737)" fill="#4c4b4c"/>
            <rect id="Rectángulo_345782" data-name="Rectángulo 345782" width="3.012" height="2.931" transform="translate(101.003 100.737)" fill="#4c4b4c"/>
            <rect id="Rectángulo_345783" data-name="Rectángulo 345783" width="3.011" height="2.931" transform="translate(104.774 100.737)" fill="#4c4b4c"/>
            <rect id="Rectángulo_345784" data-name="Rectángulo 345784" width="3.015" height="2.932" transform="translate(93.464 104.405)" fill="#4c4b4c"/>
            <rect id="Rectángulo_345785" data-name="Rectángulo 345785" width="3.014" height="2.932" transform="translate(97.233 104.405)" fill="#4c4b4c"/>
            <rect id="Rectángulo_345786" data-name="Rectángulo 345786" width="3.012" height="2.932" transform="translate(101.003 104.405)" fill="#4c4b4c"/>
            <rect id="Rectángulo_345787" data-name="Rectángulo 345787" width="3.011" height="2.932" transform="translate(104.774 104.405)" fill="#4c4b4c"/>
            <rect id="Rectángulo_345788" data-name="Rectángulo 345788" width="3.015" height="2.934" transform="translate(93.464 108.072)" fill="#4c4b4c"/>
            <rect id="Rectángulo_345789" data-name="Rectángulo 345789" width="3.014" height="2.934" transform="translate(97.233 108.072)" fill="#4c4b4c"/>
            <rect id="Rectángulo_345790" data-name="Rectángulo 345790" width="3.012" height="2.934" transform="translate(101.003 108.072)" fill="#4c4b4c"/>
            <rect id="Rectángulo_345791" data-name="Rectángulo 345791" width="3.011" height="2.934" transform="translate(104.774 108.072)" fill="#4c4b4c"/>
            <rect id="Rectángulo_345792" data-name="Rectángulo 345792" width="3.015" height="2.934" transform="translate(93.464 111.74)" fill="#4c4b4c"/>
            <rect id="Rectángulo_345793" data-name="Rectángulo 345793" width="3.014" height="2.934" transform="translate(97.233 111.74)" fill="#4c4b4c"/>
            <rect id="Rectángulo_345794" data-name="Rectángulo 345794" width="3.012" height="2.934" transform="translate(101.003 111.74)" fill="#4c4b4c"/>
            <rect id="Rectángulo_345795" data-name="Rectángulo 345795" width="3.011" height="2.934" transform="translate(104.774 111.74)" fill="#4c4b4c"/>
            <g id="Grupo_999582" data-name="Grupo 999582" transform="translate(93.464 100.737)" opacity="0.1">
              <g id="Grupo_999581" data-name="Grupo 999581">
                <g id="Grupo_999580" data-name="Grupo 999580" clip-path="url(#clip-path-17)">
                  <path id="Trazado_706484" data-name="Trazado 706484" d="M110.969,119.6l14.321,9.534v-2.2L113.984,119.6Z" transform="translate(-110.969 -119.604)" fill="#fff"/>
                </g>
              </g>
            </g>
            <g id="Grupo_999585" data-name="Grupo 999585" transform="translate(93.464 104.405)" opacity="0.1">
              <g id="Grupo_999584" data-name="Grupo 999584">
                <g id="Grupo_999583" data-name="Grupo 999583" clip-path="url(#clip-path-18)">
                  <path id="Trazado_706485" data-name="Trazado 706485" d="M110.969,123.959l14.321,10.269h-6.782l-7.539-5.5Z" transform="translate(-110.969 -123.959)" fill="#fff"/>
                </g>
              </g>
            </g>
            <rect id="Rectángulo_345798" data-name="Rectángulo 345798" width="3.014" height="2.931" transform="translate(114.378 100.737)" fill="#4c4b4c"/>
            <rect id="Rectángulo_345799" data-name="Rectángulo 345799" width="3.013" height="2.931" transform="translate(118.147 100.737)" fill="#4c4b4c"/>
            <rect id="Rectángulo_345800" data-name="Rectángulo 345800" width="3.014" height="2.931" transform="translate(121.914 100.737)" fill="#4c4b4c"/>
            <rect id="Rectángulo_345801" data-name="Rectángulo 345801" width="3.016" height="2.931" transform="translate(125.681 100.737)" fill="#4c4b4c"/>
            <rect id="Rectángulo_345802" data-name="Rectángulo 345802" width="3.014" height="2.932" transform="translate(114.378 104.405)" fill="#4c4b4c"/>
            <rect id="Rectángulo_345803" data-name="Rectángulo 345803" width="3.013" height="2.932" transform="translate(118.147 104.405)" fill="#4c4b4c"/>
            <rect id="Rectángulo_345804" data-name="Rectángulo 345804" width="3.014" height="2.932" transform="translate(121.914 104.405)" fill="#4c4b4c"/>
            <rect id="Rectángulo_345805" data-name="Rectángulo 345805" width="3.016" height="2.932" transform="translate(125.681 104.405)" fill="#4c4b4c"/>
            <rect id="Rectángulo_345806" data-name="Rectángulo 345806" width="3.014" height="2.934" transform="translate(114.378 108.072)" fill="#4c4b4c"/>
            <rect id="Rectángulo_345807" data-name="Rectángulo 345807" width="3.013" height="2.934" transform="translate(118.147 108.072)" fill="#4c4b4c"/>
            <rect id="Rectángulo_345808" data-name="Rectángulo 345808" width="3.014" height="2.934" transform="translate(121.914 108.072)" fill="#4c4b4c"/>
            <rect id="Rectángulo_345809" data-name="Rectángulo 345809" width="3.016" height="2.934" transform="translate(125.681 108.072)" fill="#4c4b4c"/>
            <rect id="Rectángulo_345810" data-name="Rectángulo 345810" width="3.014" height="2.934" transform="translate(114.378 111.74)" fill="#4c4b4c"/>
            <rect id="Rectángulo_345811" data-name="Rectángulo 345811" width="3.013" height="2.934" transform="translate(118.147 111.74)" fill="#4c4b4c"/>
            <rect id="Rectángulo_345812" data-name="Rectángulo 345812" width="3.014" height="2.934" transform="translate(121.914 111.74)" fill="#4c4b4c"/>
            <rect id="Rectángulo_345813" data-name="Rectángulo 345813" width="3.016" height="2.934" transform="translate(125.681 111.74)" fill="#4c4b4c"/>
            <g id="Grupo_999588" data-name="Grupo 999588" transform="translate(114.378 100.737)" opacity="0.1">
              <g id="Grupo_999587" data-name="Grupo 999587">
                <g id="Grupo_999586" data-name="Grupo 999586" clip-path="url(#clip-path-19)">
                  <path id="Trazado_706486" data-name="Trazado 706486" d="M135.8,119.6l14.319,9.534v-2.2L138.813,119.6Z" transform="translate(-135.8 -119.604)" fill="#fff"/>
                </g>
              </g>
            </g>
            <g id="Grupo_999591" data-name="Grupo 999591" transform="translate(114.378 104.405)" opacity="0.1">
              <g id="Grupo_999590" data-name="Grupo 999590">
                <g id="Grupo_999589" data-name="Grupo 999589" clip-path="url(#clip-path-20)">
                  <path id="Trazado_706487" data-name="Trazado 706487" d="M135.8,123.959l14.319,10.269h-6.783l-7.536-5.5Z" transform="translate(-135.8 -123.959)" fill="#fff"/>
                </g>
              </g>
            </g>
            <rect id="Rectángulo_345816" data-name="Rectángulo 345816" width="3.014" height="2.931" transform="translate(134.381 100.737)" fill="#4c4b4c"/>
            <rect id="Rectángulo_345817" data-name="Rectángulo 345817" width="3.013" height="2.931" transform="translate(138.149 100.737)" fill="#4c4b4c"/>
            <rect id="Rectángulo_345818" data-name="Rectángulo 345818" width="3.014" height="2.931" transform="translate(141.916 100.737)" fill="#4c4b4c"/>
            <rect id="Rectángulo_345819" data-name="Rectángulo 345819" width="3.014" height="2.931" transform="translate(145.685 100.737)" fill="#4c4b4c"/>
            <rect id="Rectángulo_345820" data-name="Rectángulo 345820" width="3.014" height="2.932" transform="translate(134.381 104.405)" fill="#4c4b4c"/>
            <rect id="Rectángulo_345821" data-name="Rectángulo 345821" width="3.013" height="2.932" transform="translate(138.149 104.405)" fill="#4c4b4c"/>
            <rect id="Rectángulo_345822" data-name="Rectángulo 345822" width="3.014" height="2.932" transform="translate(141.916 104.405)" fill="#4c4b4c"/>
            <rect id="Rectángulo_345823" data-name="Rectángulo 345823" width="3.014" height="2.932" transform="translate(145.685 104.405)" fill="#4c4b4c"/>
            <rect id="Rectángulo_345824" data-name="Rectángulo 345824" width="3.014" height="2.934" transform="translate(134.381 108.072)" fill="#4c4b4c"/>
            <rect id="Rectángulo_345825" data-name="Rectángulo 345825" width="3.013" height="2.934" transform="translate(138.149 108.072)" fill="#4c4b4c"/>
            <rect id="Rectángulo_345826" data-name="Rectángulo 345826" width="3.014" height="2.934" transform="translate(141.916 108.072)" fill="#4c4b4c"/>
            <rect id="Rectángulo_345827" data-name="Rectángulo 345827" width="3.014" height="2.934" transform="translate(145.685 108.072)" fill="#4c4b4c"/>
            <rect id="Rectángulo_345828" data-name="Rectángulo 345828" width="3.014" height="2.934" transform="translate(134.381 111.74)" fill="#4c4b4c"/>
            <rect id="Rectángulo_345829" data-name="Rectángulo 345829" width="3.013" height="2.934" transform="translate(138.149 111.74)" fill="#4c4b4c"/>
            <rect id="Rectángulo_345830" data-name="Rectángulo 345830" width="3.014" height="2.934" transform="translate(141.916 111.74)" fill="#4c4b4c"/>
            <rect id="Rectángulo_345831" data-name="Rectángulo 345831" width="3.014" height="2.934" transform="translate(145.685 111.74)" fill="#4c4b4c"/>
            <g id="Grupo_999594" data-name="Grupo 999594" transform="translate(134.381 100.737)" opacity="0.1">
              <g id="Grupo_999593" data-name="Grupo 999593">
                <g id="Grupo_999592" data-name="Grupo 999592" clip-path="url(#clip-path-21)">
                  <path id="Trazado_706488" data-name="Trazado 706488" d="M159.55,119.6l14.318,9.534v-2.2l-11.3-7.335Z" transform="translate(-159.55 -119.604)" fill="#fff"/>
                </g>
              </g>
            </g>
            <g id="Grupo_999597" data-name="Grupo 999597" transform="translate(134.381 104.405)" opacity="0.1">
              <g id="Grupo_999596" data-name="Grupo 999596">
                <g id="Grupo_999595" data-name="Grupo 999595" clip-path="url(#clip-path-22)">
                  <path id="Trazado_706489" data-name="Trazado 706489" d="M159.55,123.959l14.318,10.269h-6.783l-7.535-5.5Z" transform="translate(-159.55 -123.959)" fill="#fff"/>
                </g>
              </g>
            </g>
            <rect id="Rectángulo_345834" data-name="Rectángulo 345834" width="3.014" height="2.931" transform="translate(154.898 100.737)" fill="#4c4b4c"/>
            <rect id="Rectángulo_345835" data-name="Rectángulo 345835" width="3.014" height="2.931" transform="translate(158.667 100.737)" fill="#4c4b4c"/>
            <rect id="Rectángulo_345836" data-name="Rectángulo 345836" width="3.015" height="2.931" transform="translate(162.435 100.737)" fill="#4c4b4c"/>
            <rect id="Rectángulo_345837" data-name="Rectángulo 345837" width="3.014" height="2.931" transform="translate(166.203 100.737)" fill="#4c4b4c"/>
            <rect id="Rectángulo_345838" data-name="Rectángulo 345838" width="3.014" height="2.932" transform="translate(154.898 104.405)" fill="#4c4b4c"/>
            <rect id="Rectángulo_345839" data-name="Rectángulo 345839" width="3.014" height="2.932" transform="translate(158.667 104.405)" fill="#4c4b4c"/>
            <rect id="Rectángulo_345840" data-name="Rectángulo 345840" width="3.015" height="2.932" transform="translate(162.435 104.405)" fill="#4c4b4c"/>
            <rect id="Rectángulo_345841" data-name="Rectángulo 345841" width="3.014" height="2.932" transform="translate(166.203 104.405)" fill="#4c4b4c"/>
            <rect id="Rectángulo_345842" data-name="Rectángulo 345842" width="3.014" height="2.934" transform="translate(154.898 108.072)" fill="#4c4b4c"/>
            <rect id="Rectángulo_345843" data-name="Rectángulo 345843" width="3.014" height="2.934" transform="translate(158.667 108.072)" fill="#4c4b4c"/>
            <rect id="Rectángulo_345844" data-name="Rectángulo 345844" width="3.015" height="2.934" transform="translate(162.435 108.072)" fill="#4c4b4c"/>
            <rect id="Rectángulo_345845" data-name="Rectángulo 345845" width="3.014" height="2.934" transform="translate(166.203 108.072)" fill="#4c4b4c"/>
            <rect id="Rectángulo_345846" data-name="Rectángulo 345846" width="3.014" height="2.934" transform="translate(154.898 111.74)" fill="#4c4b4c"/>
            <rect id="Rectángulo_345847" data-name="Rectángulo 345847" width="3.014" height="2.934" transform="translate(158.667 111.74)" fill="#4c4b4c"/>
            <rect id="Rectángulo_345848" data-name="Rectángulo 345848" width="3.015" height="2.934" transform="translate(162.435 111.74)" fill="#4c4b4c"/>
            <rect id="Rectángulo_345849" data-name="Rectángulo 345849" width="3.014" height="2.934" transform="translate(166.203 111.74)" fill="#4c4b4c"/>
            <g id="Grupo_999600" data-name="Grupo 999600" transform="translate(154.898 100.737)" opacity="0.1">
              <g id="Grupo_999599" data-name="Grupo 999599">
                <g id="Grupo_999598" data-name="Grupo 999598" clip-path="url(#clip-path-19)">
                  <path id="Trazado_706490" data-name="Trazado 706490" d="M183.909,119.6l14.319,9.534v-2.2l-11.3-7.335Z" transform="translate(-183.909 -119.604)" fill="#fff"/>
                </g>
              </g>
            </g>
            <g id="Grupo_999603" data-name="Grupo 999603" transform="translate(154.898 104.405)" opacity="0.1">
              <g id="Grupo_999602" data-name="Grupo 999602">
                <g id="Grupo_999601" data-name="Grupo 999601" clip-path="url(#clip-path-20)">
                  <path id="Trazado_706491" data-name="Trazado 706491" d="M183.909,123.959l14.319,10.269h-6.782l-7.537-5.5Z" transform="translate(-183.909 -123.959)" fill="#fff"/>
                </g>
              </g>
            </g>
            <g id="Grupo_999606" data-name="Grupo 999606" transform="translate(86.076 119.862)" opacity="0.2">
              <g id="Grupo_999605" data-name="Grupo 999605">
                <g id="Grupo_999604" data-name="Grupo 999604" clip-path="url(#clip-path-25)">
                  <rect id="Rectángulo_345852" data-name="Rectángulo 345852" width="95.632" height="2.377"/>
                </g>
              </g>
            </g>
            <rect id="Rectángulo_345854" data-name="Rectángulo 345854" width="175.067" height="2.248" transform="translate(6.501 122.896)" fill="#123d46"/>
            <rect id="Rectángulo_345855" data-name="Rectángulo 345855" width="49.506" height="2.248" transform="translate(160.762 122.896)" fill="#217482"/>
          </g>
        </g>
      </g>
    </g>
  </g>
</svg>
