<svg xmlns="http://www.w3.org/2000/svg" xmlns:xlink="http://www.w3.org/1999/xlink" width="315.505" height="208.221" viewBox="0 0 315.505 208.221">
  <defs>
    <clipPath id="clip-path">
      <path id="Elipse_4916" data-name="Elipse 4916" d="M112.684,0a111.959,111.959,0,0,1,43.76,8.826A109.222,109.222,0,0,1,191.56,32.61a104.4,104.4,0,0,1,22.706,34.522,100.687,100.687,0,0,1-2.708,80.938,103.878,103.878,0,0,1-23.622,31.653,108.446,108.446,0,0,1-33.707,20.908,112.746,112.746,0,0,1-81.291,0,109.746,109.746,0,0,1-33.894-20.908A105.213,105.213,0,0,1,15.138,148.07,100.787,100.787,0,0,1,11.7,67.132,103.134,103.134,0,0,1,34.1,32.61,107.88,107.88,0,0,1,69,8.826,111.381,111.381,0,0,1,112.684,0Z" transform="translate(-0.504 -0.482)" fill="#fff" stroke="#707070" stroke-width="1"/>
    </clipPath>
    <clipPath id="clip-path-2">
      <rect id="Rectángulo_339744" data-name="Rectángulo 339744" width="10.776" height="13.521" fill="none"/>
    </clipPath>
    <clipPath id="clip-path-3">
      <rect id="Rectángulo_339743" data-name="Rectángulo 339743" width="10.77" height="13.519" fill="none"/>
    </clipPath>
    <clipPath id="clip-path-4">
      <rect id="Rectángulo_339746" data-name="Rectángulo 339746" width="25.603" height="15.213" fill="none"/>
    </clipPath>
    <clipPath id="clip-path-5">
      <rect id="Rectángulo_339745" data-name="Rectángulo 339745" width="25.599" height="15.207" fill="none"/>
    </clipPath>
    <clipPath id="clip-path-6">
      <rect id="Rectángulo_339748" data-name="Rectángulo 339748" width="20.497" height="13.605" fill="none"/>
    </clipPath>
    <clipPath id="clip-path-7">
      <rect id="Rectángulo_339747" data-name="Rectángulo 339747" width="20.497" height="13.603" fill="none"/>
    </clipPath>
    <clipPath id="clip-path-8">
      <rect id="Rectángulo_339750" data-name="Rectángulo 339750" width="32.043" height="11.182" fill="none"/>
    </clipPath>
    <clipPath id="clip-path-9">
      <rect id="Rectángulo_339749" data-name="Rectángulo 339749" width="32.037" height="11.182" fill="none"/>
    </clipPath>
    <clipPath id="clip-path-10">
      <rect id="Rectángulo_339754" data-name="Rectángulo 339754" width="49.947" height="11.277" fill="none"/>
    </clipPath>
    <clipPath id="clip-path-11">
      <rect id="Rectángulo_339753" data-name="Rectángulo 339753" width="49.938" height="11.277" fill="none"/>
    </clipPath>
    <clipPath id="clip-path-12">
      <rect id="Rectángulo_339758" data-name="Rectángulo 339758" width="33.523" height="40.825" fill="none"/>
    </clipPath>
    <clipPath id="clip-path-13">
      <rect id="Rectángulo_339757" data-name="Rectángulo 339757" width="33.519" height="40.817" fill="none"/>
    </clipPath>
  </defs>
  <g id="Grupo_973936" data-name="Grupo 973936" transform="translate(-285.061 -5514.001)">
    <path id="Unión_12" data-name="Unión 12" d="M26.711,57.092h-.669A26.043,26.043,0,0,1,0,31.049V26.042A26.041,26.041,0,0,1,26.042,0H127.208A26.041,26.041,0,0,1,153.25,26.042v5.007a26.043,26.043,0,0,1-26.042,26.042H45.474L26.711,80.4Z" transform="translate(447.317 5514.001)" fill="#25ffff"/>
    <text id="_Recuerda_" data-name="¡Recuerda!" transform="translate(473.359 5531.028)" fill="#12263f" font-size="20" font-family="Roboto-Black, Roboto" font-weight="800"><tspan x="0" y="19">¡Recuerda!</tspan></text>
    <g id="Enmascarar_grupo_78" data-name="Enmascarar grupo 78" transform="translate(285.565 5514.491)" clip-path="url(#clip-path)">
      <g id="Grupo_973915" data-name="Grupo 973915" transform="translate(14.636 48.946)">
        <g id="Grupo_973914" data-name="Grupo 973914" transform="translate(0 0)">
          <g id="Grupo_973922" data-name="Grupo 973922">
            <g id="Grupo_973912" data-name="Grupo 973912">
              <g id="Grupo_973917" data-name="Grupo 973917">
                <path id="Trazado_704803" data-name="Trazado 704803" d="M67.858,70.768c-3.722-7.09-9.718-22.423-9.718-22.423l.13-20.58c-.15.015,2.774.888,3.669,1.1,5.8,2.143,7.393,3.161,9.882,8.276C73.8,41.2,80.446,59.718,82.809,65.984L96.964,55.923c3.565-3,4.4-7.289,6.578-9.954s4.643-3.4,7.11-5.665,3.393-3.938,4.338-2.134-1.743,5.135-2.2,5.939c-.327.57-1.148.992-1.33,1.634-.311,1.1,1.318.914,2.021.769a17.064,17.064,0,0,0,8.72-6.33c.831-1.04,3.874-5.1,4.649-1.827.63,2.666-1.559,4.373-1.72,6.827a9.845,9.845,0,0,1-1.049,3.9,26.592,26.592,0,0,0-.645,3.571c-1.137,3.616-4.02,4.859-7.353,5.986-3.251,1.1-6.944,1.942-9.72,4.075C103,65.306,94.859,74.063,89.914,79.325c-6.286,6.688-10.427,8.282-14.1,4.318S69.232,73.388,67.86,70.759" transform="translate(60.78 26.539)" fill="#ef9296"/>
                <path id="Trazado_704804" data-name="Trazado 704804" d="M109.707,34.131c-.775-3.275-3.815.784-4.649,1.827a17.069,17.069,0,0,1-8.722,6.33c-.7.152-2.332.32-2.019-.769.183-.641,1-1.064,1.33-1.634.461-.8,3.15-4.137,2.2-5.939s-1.869-.13-4.338,2.134-4.934,3-7.11,5.665S83.391,48.69,79.824,51.7l-.972.691a13.066,13.066,0,0,0,6.513,9.606,49.51,49.51,0,0,1,3.854-3.5c2.767-2.131,6.469-2.977,9.72-4.075,3.34-1.127,6.213-2.376,7.353-5.986a26.564,26.564,0,0,1,.645-3.569,9.884,9.884,0,0,0,1.049-3.9c.161-2.454,2.35-4.163,1.72-6.827" transform="translate(77.916 30.77)" fill="#354952"/>
                <path id="Trazado_704805" data-name="Trazado 704805" d="M81.482,43.236A11.538,11.538,0,0,0,83.8,49.88a11.955,11.955,0,0,0,4,2.79l.6-.468s.576.064-.959,1.6S85.55,55.915,84.7,55.789a9.757,9.757,0,0,1-4.916-4.048,12.46,12.46,0,0,1-2.043-5.983c.04-.731,1.1-1.294,2.043-1.981s1.948-1.842,2.48-1.385Z" transform="translate(76.996 38.556)" fill="#8c569b"/>
                <g id="Grupo_973875" data-name="Grupo 973875" transform="translate(154.726 80.841)" opacity="0.2">
                  <g id="Grupo_973874" data-name="Grupo 973874">
                    <g id="Grupo_973873" data-name="Grupo 973873" clip-path="url(#clip-path-2)">
                      <g id="Grupo_973872" data-name="Grupo 973872" transform="translate(-0.001 0)">
                        <g id="Grupo_973871" data-name="Grupo 973871" clip-path="url(#clip-path-3)">
                          <path id="Trazado_704806" data-name="Trazado 704806" d="M81.482,43.236A11.538,11.538,0,0,0,83.8,49.88a11.955,11.955,0,0,0,4,2.79l.6-.468s.576.064-.959,1.6S85.55,55.915,84.7,55.789a9.757,9.757,0,0,1-4.916-4.048,12.46,12.46,0,0,1-2.043-5.983c.04-.731,1.1-1.294,2.043-1.981s1.948-1.842,2.48-1.385Z" transform="translate(-77.729 -42.285)" fill="#040405"/>
                        </g>
                      </g>
                    </g>
                  </g>
                </g>
                <path id="Trazado_704807" data-name="Trazado 704807" d="M61.522,27.949A20.585,20.585,0,0,1,70.082,31.8c2.783,2.4,4.048,6.144,5.937,11.277S82.78,60.638,82.78,60.638a24.6,24.6,0,0,0-13.513,10.6L56.382,44.426Z" transform="translate(59.326 26.692)" fill="#d8d8d8"/>
                <path id="Trazado_704808" data-name="Trazado 704808" d="M74.253,49.328a13.059,13.059,0,0,0-5.774,5.8s-.035-4.135,5.234-7.231Z" transform="translate(69.334 43.194)" fill="#ec797c"/>
                <path id="Trazado_704809" data-name="Trazado 704809" d="M38.088,31.057a20.279,20.279,0,0,0-5.53,8.057c-.548,2.059-1.064,3.777.678,15.2C34.9,65.225,36.08,65.221,36.922,73.537L35.705,94.358c6.527,7.644,37,11.536,52.238,1.239,0,0,.66-31.613-.418-44.629-.731-8.846-4.464-17.928-5.862-22.078-4.143-.718-8.126-1.2-8.126-1.2L58.3,26.8Z" transform="translate(39.185 25.744)" fill="#fafafa"/>
                <path id="Trazado_704810" data-name="Trazado 704810" d="M75.3,20.682c2.01-4.594.042-10.688-2.352-13.55C69.49,2.995,64.1,1.209,55.986,1.714,49.811,2.1,43.743,4.661,42.584,11c-4.963,1.48-4.4,9.63-3.163,13.225,2.505,7.295,7.43,13.643,7.514,17.374Z" transform="translate(44.589 4.917)" fill="#29373e"/>
                <path id="Trazado_704811" data-name="Trazado 704811" d="M75.328,33.665c-.976,3.521-3.015,6.1-6.271,6.611a27.332,27.332,0,0,1-5.144.029l.128,4.484c6.717,8.55-9.055,10.288-16.863.914l-.464-15.143a3.918,3.918,0,0,1-5.281.124A7.166,7.166,0,0,1,39.2,21.914a3.522,3.522,0,0,1,5.893-.972c1,1.043,2.171,3.008,3.006,2.741a3.029,3.029,0,0,0,2.021-2.063,18.4,18.4,0,0,0,1.065-6.659,8.94,8.94,0,0,0,2.549-1.966A8.225,8.225,0,0,0,55.95,7.9c7.039-2.2,15.134-1.166,18.06,1.1,1.685,2.964,1.745,9.868,2.025,13.831a32.606,32.606,0,0,1-.711,10.853" transform="translate(44.561 9.094)" fill="#ef9296"/>
                <path id="Trazado_704812" data-name="Trazado 704812" d="M59.45,29.616c-3.6-.2-10.847-1.884-12.777-3.9A14.854,14.854,0,0,1,43.932,19.6a20.275,20.275,0,0,0,1.782,7.492c1.491,2.291,5.261,3.289,7.549,3.861a56.6,56.6,0,0,0,6.262.95Z" transform="translate(49.025 19.782)" fill="#ec797c"/>
                <path id="Trazado_704813" data-name="Trazado 704813" d="M52.5,14.932a1.462,1.462,0,1,1-1.462-1.513,1.479,1.479,0,0,1,1.462,1.5v.015" transform="translate(53.696 14.67)" fill="#1c262b"/>
                <path id="Trazado_704814" data-name="Trazado 704814" d="M51.531,12.074l-2.949,1.992a1.867,1.867,0,0,1,.5-2.535,1.736,1.736,0,0,1,2.407.484l.04.064" transform="translate(52.628 12.868)" fill="#1c262b"/>
                <path id="Trazado_704815" data-name="Trazado 704815" d="M59.359,13.394l-3.234-1.546a1.719,1.719,0,0,1,2.249-.925.885.885,0,0,1,.086.038,1.883,1.883,0,0,1,.9,2.432" transform="translate(59.113 12.495)" fill="#1c262b"/>
                <path id="Trazado_704816" data-name="Trazado 704816" d="M58.622,14.647a1.462,1.462,0,1,1-1.462-1.513,1.479,1.479,0,0,1,1.462,1.5v.015" transform="translate(58.761 14.435)" fill="#1c262b"/>
                <path id="Trazado_704817" data-name="Trazado 704817" d="M53.008,12.531,54.061,23l5.617-1.7Z" transform="translate(56.535 13.936)" fill="#ec797c"/>
                <path id="Trazado_704818" data-name="Trazado 704818" d="M51.2,19.6l6.03,1.334a3.032,3.032,0,0,1-3.5,2.471l-.111-.022A3.233,3.233,0,0,1,51.2,19.6" transform="translate(54.989 19.781)" fill="#a15155"/>
                <path id="Trazado_704819" data-name="Trazado 704819" d="M53.585,22.888a2.894,2.894,0,0,0,.376.042,2.8,2.8,0,0,0-2.8-2.741,3.19,3.19,0,0,0,2.425,2.69" transform="translate(55.005 20.271)" fill="#ec797c"/>
                <path id="Trazado_704820" data-name="Trazado 704820" d="M38.439,21.159a19.14,19.14,0,0,0,1.3,5.358,19.6,19.6,0,0,1,1.325-1.482A32.222,32.222,0,0,1,50.4,18.61h.016a39.052,39.052,0,0,1,25.724-2.834,18.349,18.349,0,0,0-1.462-4.5,19.058,19.058,0,0,0-36.242,9.888" transform="translate(44.407 3.784)" fill="#0b428a"/>
                <path id="Trazado_704821" data-name="Trazado 704821" d="M44,2.4c.956-.462,5.758-1.9,6.142-2.01a11.388,11.388,0,0,1,10.6,2.672A19.361,19.361,0,0,1,67.172,13.44l-5.1,1.6-1.63.155c-.6-3.748-5.551-11.838-12.5-12.141a6.541,6.541,0,0,0-.983.013,9.015,9.015,0,0,0-2.688.548,26.171,26.171,0,0,0-2.7,2.16A4.265,4.265,0,0,1,44.007,2.4" transform="translate(47.074 3.585)" fill="#8c569b"/>
                <g id="Grupo_973880" data-name="Grupo 973880" transform="translate(88.643 3.568)" opacity="0.45">
                  <g id="Grupo_973879" data-name="Grupo 973879">
                    <g id="Grupo_973878" data-name="Grupo 973878" clip-path="url(#clip-path-4)">
                      <g id="Grupo_973877" data-name="Grupo 973877" transform="translate(-0.001)">
                        <g id="Grupo_973876" data-name="Grupo 973876" clip-path="url(#clip-path-5)">
                          <path id="Trazado_704822" data-name="Trazado 704822" d="M44,2.4c.956-.462,5.758-1.9,6.142-2.01a11.388,11.388,0,0,1,10.6,2.672A19.361,19.361,0,0,1,67.172,13.44l-5.1,1.6-1.63.155c-.6-3.748-5.551-11.838-12.5-12.141a6.541,6.541,0,0,0-.983.013,9.015,9.015,0,0,0-2.688.548,26.171,26.171,0,0,0-2.7,2.16A4.265,4.265,0,0,1,44.007,2.4" transform="translate(-41.569 0.017)" fill="#fff"/>
                        </g>
                      </g>
                    </g>
                  </g>
                </g>
                <path id="Trazado_704823" data-name="Trazado 704823" d="M60.443,14.485C59.732,10.121,53.077-.218,44.274,2.9a26.3,26.3,0,0,0-2.706,2.16,4.3,4.3,0,0,1,2.441-3.373C46.3.586,50.893.038,55.646,3.95a19.325,19.325,0,0,1,6.419,10.379Z" transform="translate(47.069 4.296)" fill="#8c569b"/>
                <g id="Grupo_973885" data-name="Grupo 973885" transform="translate(88.638 5.176)" opacity="0.3">
                  <g id="Grupo_973884" data-name="Grupo 973884">
                    <g id="Grupo_973883" data-name="Grupo 973883" clip-path="url(#clip-path-6)">
                      <g id="Grupo_973882" data-name="Grupo 973882" transform="translate(-0.001)">
                        <g id="Grupo_973881" data-name="Grupo 973881" clip-path="url(#clip-path-7)">
                          <path id="Trazado_704824" data-name="Trazado 704824" d="M60.443,14.485C59.732,10.121,53.077-.218,44.274,2.9a26.3,26.3,0,0,0-2.706,2.16,4.3,4.3,0,0,1,2.441-3.373C46.3.586,50.893.038,55.646,3.95a19.325,19.325,0,0,1,6.419,10.379Z" transform="translate(-41.568 -0.88)" fill="#040405"/>
                        </g>
                      </g>
                    </g>
                  </g>
                </g>
                <path id="Trazado_704825" data-name="Trazado 704825" d="M44.876,13.866a21.353,21.353,0,0,1,8.488-7.54C57.276,4.238,65.295,4.134,68.9,4.194c6.3.1,7.8,1.444,7.88,2.376.018.219.106,1.239.135,1.462a.9.9,0,0,1-.132.6c-.945,1.429-6.03,3.9-6.03,3.9a39.05,39.05,0,0,0-25.731,2.836Z" transform="translate(49.806 7.029)" fill="#8c569b"/>
                <g id="Grupo_973890" data-name="Grupo 973890" transform="translate(94.683 11.212)" opacity="0.15">
                  <g id="Grupo_973889" data-name="Grupo 973889">
                    <g id="Grupo_973888" data-name="Grupo 973888" clip-path="url(#clip-path-8)">
                      <g id="Grupo_973887" data-name="Grupo 973887" transform="translate(-0.001)">
                        <g id="Grupo_973886" data-name="Grupo 973886" clip-path="url(#clip-path-9)">
                          <path id="Trazado_704826" data-name="Trazado 704826" d="M44.876,13.866a21.353,21.353,0,0,1,8.488-7.54C57.276,4.238,65.295,4.134,68.9,4.194c6.3.1,7.8,1.444,7.88,2.376.018.219.106,1.239.135,1.462a.9.9,0,0,1-.132.6c-.945,1.429-6.03,3.9-6.03,3.9a39.05,39.05,0,0,0-25.731,2.836Z" transform="translate(-44.876 -4.183)" fill="#040405"/>
                        </g>
                      </g>
                    </g>
                  </g>
                </g>
                <path id="Trazado_704827" data-name="Trazado 704827" d="M44.957,14.691a39.052,39.052,0,0,1,25.724-2.834s5.087-2.472,6.03-3.9c.5-.791.049-2.81-7.741-2.938-3.6-.058-11.615.046-15.532,2.133a21.365,21.365,0,0,0-8.488,7.54" transform="translate(49.868 7.71)" fill="#2e0877"/>
                <path id="Trazado_704829" data-name="Trazado 704829" d="M91.412,44.934a147.255,147.255,0,0,1-38.6,1.888c0,15.3,1.617,32.85-5.709,32.752l-8.753-.208c-.482,22.913-4.36,70.691-4.36,70.691-.345,2.814-4.42,14.783-4.568,24.962-.236,15.973-.576,28.068-.576,28.068s8.923,3.532,15.476,1.1c0,0,8.525-33.948,10.915-44.543,2.847-12.618,8.729-35.938,8.729-35.938l.707,33.207A91.39,91.39,0,0,0,64.4,177.07c.788,6.728,3.49,25.46,3.49,25.46a36.688,36.688,0,0,0,15.33-.455s4.287-40.225,4.64-46.415c.384-6.726,2.511-68.823,2.71-74.616h.015c1.937-29.17.826-36.1.826-36.1" transform="translate(36.543 40.744)" fill="#354952"/>
                <path id="Trazado_704830" data-name="Trazado 704830" d="M44.787,61.079c-1.076-13.866-1.045-25.254-6.248-31.99l6.639-1.394s5.747,12.724,5.747,33.853Z" transform="translate(44.563 26.482)" fill="#354952"/>
                <path id="Trazado_704831" data-name="Trazado 704831" d="M63.634,61.02c0-15.094-3.328-28.039-8.589-33.691l7.589,1.133S69.741,39.89,69.741,61.02Z" transform="translate(58.22 26.179)" fill="#354952"/>
                <path id="Trazado_704832" data-name="Trazado 704832" d="M46.529,48.236a104.642,104.642,0,0,0,22.445-1.191l.462,10.381L59.2,63.84,46.52,59.7Z" transform="translate(51.166 42.491)" fill="#29373e"/>
                <path id="Trazado_704833" data-name="Trazado 704833" d="M36.159,64.191c5.871,2.44,20.152,3.907,31.613,3.784S85.245,65.1,85.245,65.1l-.183,6.984S64.726,80.608,35.309,70.59Z" transform="translate(41.891 56.676)" fill="#8c569b"/>
                <g id="Grupo_973900" data-name="Grupo 973900" transform="translate(77.19 120.868)" opacity="0.3">
                  <g id="Grupo_973899" data-name="Grupo 973899">
                    <g id="Grupo_973898" data-name="Grupo 973898" clip-path="url(#clip-path-10)">
                      <g id="Grupo_973897" data-name="Grupo 973897" transform="translate(-0.001 0)">
                        <g id="Grupo_973896" data-name="Grupo 973896" clip-path="url(#clip-path-11)">
                          <path id="Trazado_704834" data-name="Trazado 704834" d="M36.159,64.191c5.871,2.44,20.152,3.907,31.613,3.784S85.245,65.1,85.245,65.1l-.183,6.984S64.726,80.608,35.309,70.59Z" transform="translate(-35.298 -64.191)" fill="#040405"/>
                        </g>
                      </g>
                    </g>
                  </g>
                </g>
                <path id="Trazado_704835" data-name="Trazado 704835" d="M52.971,27.183l.046,1.462a54.835,54.835,0,0,1,2.546,10.266c1.579,9.515,1.849,21.983,1.849,36.07V113.7S39.8,114.828,34.2,101.392l2.273-28.172s-3.231-14.558-4.11-22.889-2.449-14.162,5.343-20.521Z" transform="translate(38.837 26.058)" fill="#0b428a"/>
                <path id="Trazado_704836" data-name="Trazado 704836" d="M33.39,48.074c.881,4.461,1.645,7.872,1.645,7.872l-.086,1.107a37.486,37.486,0,0,0,21.015,5.5V54.68a36.525,36.525,0,0,1-22.557-6.606" transform="translate(40.303 43.342)" fill="#ececec"/>
                <path id="Trazado_704837" data-name="Trazado 704837" d="M55.767,70.774V62.9A37.179,37.179,0,0,1,34.188,57.02l-.574,7.457a36.8,36.8,0,0,0,22.153,6.3" transform="translate(40.489 50.744)" fill="#ececec"/>
                <path id="Trazado_704838" data-name="Trazado 704838" d="M52.648,27.1a21.924,21.924,0,0,1,9.919,13.316c2.376,9.329,2.725,16.684,3.05,28.662s-.161,45.384-.161,45.384,5.285-2.306,6.418-4.806c0,0,1.482-42.429-.159-57.463s-7.1-23.518-7.1-23.518A34.41,34.41,0,0,0,52.648,27.1" transform="translate(56.236 25.961)" fill="#0b428a"/>
                <path id="Trazado_704839" data-name="Trazado 704839" d="M59.857,59.088a37.9,37.9,0,0,0,6.79-.806c0-2.626,0-5.276-.033-7.858a37.89,37.89,0,0,1-6.851.8c.048,2.264.077,4.961.093,7.87" transform="translate(62.124 45.287)" fill="#ececec"/>
                <path id="Trazado_704840" data-name="Trazado 704840" d="M66.415,66.877c.049-2.416.1-5.089.133-7.9a37.916,37.916,0,0,1-6.716.791c0,2.662-.011,5.332-.022,7.87a37.837,37.837,0,0,0,6.6-.762" transform="translate(62.163 52.363)" fill="#ececec"/>
                <path id="Trazado_704841" data-name="Trazado 704841" d="M63.4,31.447c-4.51,0-9.745-.183-12.707,6.31-.963,2.116-3.932,14.564-7.227,26.043A160.189,160.189,0,0,1,31.871,47.232c-1.751-3.655-1.773-6.129-3.56-9.9a31.529,31.529,0,0,1-2.376-6.485c-.422-1.515-1.756-.4-2.226.278a7.082,7.082,0,0,0-1.268,3.887c-.016.979-.013,1.974-.077,2.94-.057.861-.4.914-1.18.482a24.6,24.6,0,0,1-4.307-3.7c-1.44-1.341-3.094-2.418-4.506-3.772A48.922,48.922,0,0,1,9.1,26.915c-.863-1.016-2.337-2.326-3.472-.875-.68.873-.053,1.9.249,2.772a4.646,4.646,0,0,1-.183,2.717,5.072,5.072,0,0,0,.1,3.273,4.632,4.632,0,0,1,.879,2.957,11.868,11.868,0,0,0-.336,3.066,7.163,7.163,0,0,0,1.188,2.282,16.547,16.547,0,0,0,2.834,3.624,34.416,34.416,0,0,0,4.225,3.625c3.613,2.81,4.956,3.689,6.162,4.621a25.04,25.04,0,0,1,4.736,6.955c2.05,3.837,6.443,14.632,12.369,22.358,3.413,4.451,8.062,5.875,12.161.839a38.733,38.733,0,0,0,5.16-10c4.556-12.141,7.858-22.147,7.858-22.147s3.677-11.33.365-21.537" transform="translate(17.082 24.579)" fill="#ef9296"/>
                <path id="Trazado_704845" data-name="Trazado 704845" d="M26.191,47.335a34.047,34.047,0,0,1,3.837,13.177c.755-6.842-1.328-13.1-3.253-15.2Z" transform="translate(34.347 41.054)" fill="#ec797c"/>
                <path id="Trazado_704846" data-name="Trazado 704846" d="M46.518,28.184a37.09,37.09,0,0,0-7.953,1.7c-2.741.939-4.709,1.882-7.236,10.136-2.434,7.956-4.7,17.009-4.7,17.009s2.4,6.293,14.239,7.5l6.284-17.522s1.964-10.546-.632-18.822" transform="translate(34.706 26.886)" fill="#e6e6e6"/>
                <path id="Trazado_704842" data-name="Trazado 704842" d="M34.06,50.77C32.891,49,32.1,47.715,31.867,47.233c-1.751-3.655-1.773-6.129-3.56-9.9a31.545,31.545,0,0,1-2.376-6.487c-.422-1.515-1.756-.4-2.226.28a7.082,7.082,0,0,0-1.268,3.887c-.016.979-.013,1.972-.077,2.938-.057.861-.4.914-1.18.484a24.4,24.4,0,0,1-4.307-3.7c-1.44-1.341-3.094-2.418-4.506-3.77a48.921,48.921,0,0,1-3.273-4.046c-.863-1.014-2.337-2.326-3.472-.875-.68.873-.053,1.9.249,2.772a4.641,4.641,0,0,1-.183,2.715,5.072,5.072,0,0,0,.1,3.273,4.642,4.642,0,0,1,.879,2.957,11.868,11.868,0,0,0-.336,3.066,7.2,7.2,0,0,0,1.188,2.282,16.547,16.547,0,0,0,2.834,3.624,34.415,34.415,0,0,0,4.225,3.625c3.613,2.81,4.954,3.688,6.162,4.621A23.73,23.73,0,0,1,25.3,61.621a27.3,27.3,0,0,0,8.746-10.849" transform="translate(17.078 24.58)" fill="#354952"/>
                <path id="Trazado_704843" data-name="Trazado 704843" d="M24.9,38.844l-.563-.839s.227-.983,1.14.42a22.71,22.71,0,0,1,2.127,3.72,11.629,11.629,0,0,1-3.655,7.406A11.078,11.078,0,0,1,17.8,52.423c-.793-.1-1.021-.819-1.477-1.769s-1.6-2.127-1.254-3.039l.645.914a12.862,12.862,0,0,0,6.578-4.1A10.89,10.89,0,0,0,24.9,38.848" transform="translate(25.09 34.735)" fill="#8c569b"/>
                <g id="Grupo_973921" data-name="Grupo 973921">
                  <path id="Trazado_704854" data-name="Trazado 704854" d="M20.228,16.584A16.736,16.736,0,0,0,5.63,35.215v0c1.6,13.188,12.756,14.053,13.4,19.37A2.868,2.868,0,0,0,21,56.723a9.022,9.022,0,0,0,8.106-.987,2.873,2.873,0,0,0,1.4-2.545c-.648-5.318,9.968-8.831,8.362-22.022A16.737,16.737,0,0,0,20.225,16.576h0" transform="translate(9.752 -0.158)" fill="#ffc321"/>
                  <g id="Grupo_973920" data-name="Grupo 973920" transform="translate(27.776 50.95)">
                    <g id="Grupo_973919" data-name="Grupo 973919" transform="translate(0.642 3.172)">
                      <path id="Trazado_704847" data-name="Trazado 704847" d="M18.8,35.4a3.514,3.514,0,1,1-3.914-3.063A3.515,3.515,0,0,1,18.8,35.4" transform="translate(-8.406 -27.229)" fill="#1c262b"/>
                      <path id="Trazado_704849" data-name="Trazado 704849" d="M12.834,37.909a2.567,2.567,0,0,1-.59-4.829,9.309,9.309,0,0,1,8.364-1.019,2.57,2.57,0,0,1,.59,4.829,9.309,9.309,0,0,1-8.364,1.019" transform="translate(-10.088 -28.579)" fill="#29373e"/>
                      <path id="Trazado_704850" data-name="Trazado 704850" d="M12.766,37.567a2.646,2.646,0,0,1-.606-4.979,9.6,9.6,0,0,1,8.621-1.051,2.646,2.646,0,0,1,.606,4.979,9.6,9.6,0,0,1-8.621,1.051" transform="translate(-10.303 -29.48)" fill="#1c262b"/>
                      <path id="Trazado_704851" data-name="Trazado 704851" d="M12.7,37.213a2.727,2.727,0,0,1-.624-5.131A9.9,9.9,0,0,1,20.959,31a2.727,2.727,0,0,1,.624,5.131A9.891,9.891,0,0,1,12.7,37.213" transform="translate(-10.524 -30.406)" fill="#29373e"/>
                    </g>
                    <path id="Trazado_704852" data-name="Trazado 704852" d="M12.627,36.848a2.812,2.812,0,0,1-.646-5.288,10.194,10.194,0,0,1,9.16-1.115,2.812,2.812,0,0,1,.635,5.288,10.194,10.194,0,0,1-9.16,1.115" transform="translate(-10.122 -28.264)" fill="#1c262b"/>
                    <path id="Trazado_704853" data-name="Trazado 704853" d="M12.552,36.413a2.868,2.868,0,0,1-.659-5.395,10.405,10.405,0,0,1,9.338-1.139,2.871,2.871,0,0,1,.659,5.4,10.4,10.4,0,0,1-9.338,1.137" transform="translate(-10.265 -29.257)" fill="#29373e"/>
                    <path id="Trazado_704856" data-name="Trazado 704856" d="M12.6,34.151a1.868,1.868,0,0,1-.43-3.519,6.785,6.785,0,0,1,6.1-.742,1.868,1.868,0,0,1,.43,3.519,6.785,6.785,0,0,1-6.1.742" transform="translate(-8.878 -28.88)" fill="#ffc321"/>
                  </g>
                  <path id="Trazado_704857" data-name="Trazado 704857" d="M21.333,42.785a.569.569,0,0,1-.63-.483,40.691,40.691,0,0,1,0-9.635,20.755,20.755,0,0,1,.5-2.743,7.559,7.559,0,0,1-1.526-.534,9.814,9.814,0,0,1-2.428-1.585,9.824,9.824,0,0,1-1.977,2.134,7.565,7.565,0,0,1-1.355.88,20.506,20.506,0,0,1,1.15,2.54,40.638,40.638,0,0,1,2.321,9.352.576.576,0,0,1-.51.622.569.569,0,0,1-.622-.51,40.424,40.424,0,0,0-2.252-9.072,18.788,18.788,0,0,0-1.161-2.527,3.548,3.548,0,0,1-3.255-.534,1.818,1.818,0,0,1-.534-2.3,1.5,1.5,0,0,1,1.457-.83c.91.067,1.886.875,2.812,2.273a6.277,6.277,0,0,0,1.233-.787,8.631,8.631,0,0,0,1.894-2.057,4.208,4.208,0,0,1-1.209-3.068,1.6,1.6,0,0,1,3.031-.368,4.206,4.206,0,0,1-.438,3.266,8.69,8.69,0,0,0,2.324,1.556,6.364,6.364,0,0,0,1.385.467c.563-1.577,1.315-2.6,2.183-2.882a1.522,1.522,0,0,1,1.6.456,1.818,1.818,0,0,1,.04,2.356,3.545,3.545,0,0,1-3.031,1.3,18.62,18.62,0,0,0-.52,2.732,40.19,40.19,0,0,0,0,9.338.568.568,0,0,1-.483.643m-10.974-14.1c-.1,0-.2.067-.3.251-.227.411.147.774.267.875A2.274,2.274,0,0,0,12.2,30.2c-.736-1.03-1.379-1.481-1.764-1.507a.4.4,0,0,0-.08,0m12.377.224a2.279,2.279,0,0,0,1.729-.822c.093-.128.368-.571.048-.915-.184-.2-.318-.189-.43-.152-.366.12-.883.712-1.35,1.886m-5.977-5.184c-.285.035-.366.168-.392.355a2.73,2.73,0,0,0,.656,1.8,2.737,2.737,0,0,0,.205-1.9.379.379,0,0,0-.467-.251" transform="translate(15.634 9.181)" fill="#fff"/>
                  <g id="Grupo_973910" data-name="Grupo 973910" transform="translate(15.257 16.505)" opacity="0.6">
                    <g id="Grupo_973909" data-name="Grupo 973909">
                      <g id="Grupo_973908" data-name="Grupo 973908" clip-path="url(#clip-path-12)">
                        <g id="Grupo_973907" data-name="Grupo 973907" transform="translate(0.003 0.008)">
                          <g id="Grupo_973906" data-name="Grupo 973906" clip-path="url(#clip-path-13)">
                            <path id="Trazado_704855" data-name="Trazado 704855" d="M20.228,16.584A16.736,16.736,0,0,0,5.63,35.215v0c1.6,13.188,12.756,14.053,13.4,19.37A2.868,2.868,0,0,0,21,56.723a9.022,9.022,0,0,0,8.106-.987,2.873,2.873,0,0,0,1.4-2.545c-.648-5.318,9.968-8.831,8.362-22.022A16.737,16.737,0,0,0,20.225,16.576h0" transform="translate(-5.51 -16.458)" fill="#fff"/>
                          </g>
                        </g>
                      </g>
                    </g>
                  </g>
                  <path id="Trazado_704858" data-name="Trazado 704858" d="M15.468,19.194a1.108,1.108,0,0,1-.606-1.441L17.031,12.4a1.105,1.105,0,0,1,1.441-.611h0a1.105,1.105,0,0,1,.606,1.441l-2.172,5.355a1.105,1.105,0,0,1-1.441.611h0" transform="translate(24.656 -9.767)" fill="#f8d26c"/>
                  <path id="Trazado_704859" data-name="Trazado 704859" d="M11.225,18.837a1.112,1.112,0,0,1-.678-.872l-.8-5.723a1.109,1.109,0,1,1,2.2-.307l.8,5.723a1.109,1.109,0,0,1-1.518,1.179" transform="translate(16.241 -10.979)" fill="#f8d26c"/>
                  <path id="Trazado_704860" data-name="Trazado 704860" d="M8.52,19.956a1.09,1.09,0,0,1-.454-.344l-3.551-4.56a1.11,1.11,0,0,1,1.75-1.363L9.82,18.246a1.11,1.11,0,0,1-1.3,1.708" transform="translate(7.18 -7.125)" fill="#f8d26c"/>
                  <path id="Trazado_704861" data-name="Trazado 704861" d="M1.428,20.126a1.108,1.108,0,1,1,.838-2.052l5.355,2.172A1.108,1.108,0,0,1,6.783,22.3Z" transform="translate(1.233 0.718)" fill="#f8d26c"/>
                  <path id="Trazado_704862" data-name="Trazado 704862" d="M.713,26.493A1.107,1.107,0,0,1,.98,24.358l5.723-.8a1.109,1.109,0,1,1,.307,2.2l-5.723.8a1.109,1.109,0,0,1-.574-.072" transform="translate(0 9.986)" fill="#f8d26c"/>
                  <path id="Trazado_704863" data-name="Trazado 704863" d="M21.166,23.644a1.107,1.107,0,0,1,.267-2.134l5.723-.8a1.109,1.109,0,0,1,.307,2.2l-5.723.8a1.109,1.109,0,0,1-.574-.072" transform="translate(34.118 5.232)" fill="#f8d26c"/>
                  <path id="Trazado_704864" data-name="Trazado 704864" d="M19.285,20.952a1.09,1.09,0,0,1-.454-.344,1.109,1.109,0,0,1,.195-1.556L23.583,15.5a1.108,1.108,0,0,1,1.363,1.748L20.389,20.8a1.108,1.108,0,0,1-1.1.149" transform="translate(31.024 -3.832)" fill="#f8d26c"/>
                </g>
                <rect id="Rectángulo_339759" data-name="Rectángulo 339759" width="205.407" height="242.215" transform="translate(12.678 3.568)" fill="none"/>
              </g>
            </g>
          </g>
        </g>
        <g id="Grupo_973916" data-name="Grupo 973916" transform="translate(122.043 15.138)">
          <path id="Trazado_662513" data-name="Trazado 662513" d="M112.451,118.578c.123.338.63.538.984.584l37.373,5.778a5.27,5.27,0,0,0,3.412-.569,2.154,2.154,0,0,0,.814-.845l5.148-11.111v.692l4.134-8.913V103.5l5.148-11.1a1.174,1.174,0,0,0,.123-.507v2.32a1.123,1.123,0,0,1-.123.507l-14.445,31.1a2.054,2.054,0,0,1-.814.845,5.27,5.27,0,0,1-3.412.569l-37.373-5.778a1.459,1.459,0,0,1-.907-.446.594.594,0,0,1-.123-.323v-2.32h0a.541.541,0,0,0,.031.184" transform="translate(-103.529 -50.316)" fill="#596876"/>
          <path id="Trazado_662514" data-name="Trazado 662514" d="M128.156,87.21s.061-.046.108-.077a2.057,2.057,0,0,1,1.383-.23L167.02,92.68a4.237,4.237,0,0,1,1.844.707,1.569,1.569,0,0,1,.722,1.214,1.123,1.123,0,0,1-.123.507l-5.148,11.1-1.045-.169-4.134,8.913.645.108.4.061-5.148,11.111a2.054,2.054,0,0,1-.814.845,5.27,5.27,0,0,1-3.412.569l-37.373-5.778c-.353-.061-.861-.246-.983-.584a.769.769,0,0,1-.031-.184.3.3,0,0,1,.046-.2l15.506-33.424a.7.7,0,0,1,.2-.261m33.547,17.857a.612.612,0,0,0-.323-.707,2.576,2.576,0,0,0-1.014-.292s-8.667-1.352-8.759-1.352a2,2,0,0,0-1.445.277,1.231,1.231,0,0,0-.2.2c-.061.108-4.733,10.189-4.733,10.2a.823.823,0,0,0-.077.169.612.612,0,0,0,.323.707,2.577,2.577,0,0,0,1.014.292l8.575,1.337a2.747,2.747,0,0,0,.937.031,1.44,1.44,0,0,0,.891-.461c.061-.108,4.733-10.189,4.733-10.2a.826.826,0,0,0,.077-.169" transform="translate(-103.513 -53.017)" fill="#687682"/>
          <path id="Trazado_662515" data-name="Trazado 662515" d="M146.555,99.524v.692l-.768.061-.277-.907,1.045.169Z" transform="translate(-85.753 -46.306)" fill="#1a2738"/>
          <path id="Trazado_662516" data-name="Trazado 662516" d="M146.959,99.365l.277.907-3.765,8.1-.661-.108,4.134-8.913Z" transform="translate(-87.202 -46.317)" fill="#1a2738"/>
          <path id="Trazado_662517" data-name="Trazado 662517" d="M149.955,98.856a.6.6,0,0,1,.323.707.829.829,0,0,1-.077.169s-4.672,10.1-4.733,10.189a1.368,1.368,0,0,1-.891.461,2.41,2.41,0,0,1-.937-.031l-8.575-1.337a2.345,2.345,0,0,1-1.014-.292.6.6,0,0,1-.323-.707.821.821,0,0,1,.077-.169s4.672-10.1,4.733-10.189a1.231,1.231,0,0,1,.2-.2,2.062,2.062,0,0,1,1.445-.277l8.759,1.352a2.344,2.344,0,0,1,1.014.292" transform="translate(-92.088 -47.498)" fill="#596876"/>
          <path id="Trazado_662518" data-name="Trazado 662518" d="M147.768,99.92l-4.134,8.913v-.692l-.384-.061,3.765-8.1.768-.046Z" transform="translate(-86.966 -46.011)" fill="#283c48"/>
          <path id="Trazado_662519" data-name="Trazado 662519" d="M139.716,91.177l-.983,2.105a.527.527,0,0,1-.584.307l-2.536-.4a.553.553,0,0,1-.461-.63.3.3,0,0,1,.046-.154l.984-2.105a.527.527,0,0,1,.584-.307l2.536.384a.545.545,0,0,1,.461.63.585.585,0,0,1-.046.154" transform="translate(-91.315 -51.344)" fill="#1a2738"/>
          <path id="Trazado_662520" data-name="Trazado 662520" d="M138.636,93.507l-.984,2.105a.527.527,0,0,1-.584.307l-2.536-.4a.545.545,0,0,1-.461-.63.586.586,0,0,1,.046-.154l.983-2.105a.527.527,0,0,1,.584-.307l2.536.4a.545.545,0,0,1,.461.63.586.586,0,0,1-.046.154" transform="translate(-91.895 -50.094)" fill="#1a2738"/>
          <path id="Trazado_662521" data-name="Trazado 662521" d="M137.556,95.841l-.984,2.105a.527.527,0,0,1-.584.307l-2.536-.384a.553.553,0,0,1-.461-.63.3.3,0,0,1,.046-.154l.983-2.105a.527.527,0,0,1,.584-.307l2.536.4a.545.545,0,0,1,.461.63.587.587,0,0,1-.046.154" transform="translate(-92.475 -48.832)" fill="#1a2738"/>
          <path id="Trazado_662522" data-name="Trazado 662522" d="M136.776,90.727l-.984,2.105a.527.527,0,0,1-.584.307l-2.536-.4a.545.545,0,0,1-.461-.63.587.587,0,0,1,.046-.154l.968-2.105a.527.527,0,0,1,.584-.307l2.536.4a.545.545,0,0,1,.461.63.585.585,0,0,1-.046.154" transform="translate(-92.893 -51.586)" fill="#1a2738"/>
          <path id="Trazado_662523" data-name="Trazado 662523" d="M136.461,98.177l-.968,2.105a.527.527,0,0,1-.584.307l-2.536-.4a.553.553,0,0,1-.461-.63.586.586,0,0,1,.046-.154l.983-2.105a.527.527,0,0,1,.584-.307l2.536.4a.545.545,0,0,1,.461.63.586.586,0,0,1-.046.154" transform="translate(-93.054 -47.587)" fill="#1a2738"/>
          <path id="Trazado_662524" data-name="Trazado 662524" d="M135.686,93.051l-.983,2.105a.527.527,0,0,1-.584.307l-2.536-.384a.553.553,0,0,1-.461-.63.3.3,0,0,1,.046-.154l.984-2.105a.527.527,0,0,1,.584-.307l2.536.4a.545.545,0,0,1,.461.63.585.585,0,0,1-.046.154" transform="translate(-93.478 -50.33)" fill="#1a2738"/>
          <path id="Trazado_662525" data-name="Trazado 662525" d="M135.386,100.507l-.984,2.105a.527.527,0,0,1-.584.307l-2.536-.4a.553.553,0,0,1-.461-.63.343.343,0,0,1,.046-.154l.984-2.105a.527.527,0,0,1,.584-.307l2.536.4a.545.545,0,0,1,.461.63.587.587,0,0,1-.046.154" transform="translate(-93.64 -46.336)" fill="#1a2738"/>
          <path id="Trazado_662526" data-name="Trazado 662526" d="M134.606,95.387l-.983,2.105a.528.528,0,0,1-.584.307l-2.536-.4a.553.553,0,0,1-.461-.63.344.344,0,0,1,.046-.154l.984-2.105a.527.527,0,0,1,.584-.307l2.536.4a.545.545,0,0,1,.461.63.586.586,0,0,1-.046.154" transform="translate(-94.058 -49.085)" fill="#1a2738"/>
          <path id="Trazado_662527" data-name="Trazado 662527" d="M134.306,102.847l-.984,2.105a.527.527,0,0,1-.584.307l-2.536-.4a.553.553,0,0,1-.461-.63.3.3,0,0,1,.046-.154l.984-2.105a.527.527,0,0,1,.584-.307l2.536.384a.545.545,0,0,1,.461.63.586.586,0,0,1-.046.154" transform="translate(-94.219 -45.08)" fill="#1a2738"/>
          <path id="Trazado_662528" data-name="Trazado 662528" d="M133.826,90.261l-.983,2.105a.527.527,0,0,1-.584.307l-2.536-.384a.553.553,0,0,1-.461-.63.3.3,0,0,1,.046-.154l.984-2.105a.527.527,0,0,1,.584-.307l2.536.4a.545.545,0,0,1,.461.63.584.584,0,0,1-.046.154" transform="translate(-94.477 -51.827)" fill="#1a2738"/>
          <path id="Trazado_662529" data-name="Trazado 662529" d="M133.526,97.727l-.984,2.105a.527.527,0,0,1-.584.307l-2.536-.4a.553.553,0,0,1-.461-.63.342.342,0,0,1,.046-.154l.983-2.105a.527.527,0,0,1,.584-.307l2.536.4a.545.545,0,0,1,.461.63.587.587,0,0,1-.046.154" transform="translate(-94.638 -47.828)" fill="#1a2738"/>
          <path id="Trazado_662530" data-name="Trazado 662530" d="M133.216,105.177l-.984,2.105a.527.527,0,0,1-.584.307l-2.536-.4a.545.545,0,0,1-.461-.63.585.585,0,0,1,.046-.154l.984-2.105a.527.527,0,0,1,.584-.307l2.536.4a.545.545,0,0,1,.461.63.586.586,0,0,1-.046.154" transform="translate(-94.804 -43.83)" fill="#1a2738"/>
          <path id="Trazado_662531" data-name="Trazado 662531" d="M132.736,92.6l-.984,2.105a.527.527,0,0,1-.584.307l-2.536-.4a.553.553,0,0,1-.461-.63.343.343,0,0,1,.046-.154l.983-2.105a.528.528,0,0,1,.584-.307l2.536.4a.545.545,0,0,1,.461.63.586.586,0,0,1-.046.154" transform="translate(-95.062 -50.582)" fill="#1a2738"/>
          <path id="Trazado_662532" data-name="Trazado 662532" d="M132.436,100.057l-.984,2.105a.527.527,0,0,1-.584.307l-2.536-.4a.553.553,0,0,1-.461-.63.3.3,0,0,1,.046-.154l.983-2.105a.527.527,0,0,1,.584-.307l2.536.384a.545.545,0,0,1,.461.63.586.586,0,0,1-.046.154" transform="translate(-95.223 -46.578)" fill="#1a2738"/>
          <path id="Trazado_662533" data-name="Trazado 662533" d="M132.136,107.5l-.984,2.105a.528.528,0,0,1-.584.307l-2.536-.384a.553.553,0,0,1-.461-.63.3.3,0,0,1,.046-.154l.984-2.105a.527.527,0,0,1,.584-.307l2.536.4a.545.545,0,0,1,.461.63.586.586,0,0,1-.046.154" transform="translate(-95.384 -42.574)" fill="#1a2738"/>
          <path id="Trazado_662534" data-name="Trazado 662534" d="M131.656,94.937l-.984,2.105a.527.527,0,0,1-.584.307l-2.536-.4a.545.545,0,0,1-.461-.63.3.3,0,0,1,.046-.154l.968-2.105a.527.527,0,0,1,.584-.307l2.536.4a.545.545,0,0,1,.461.63.584.584,0,0,1-.046.154" transform="translate(-95.641 -49.326)" fill="#1a2738"/>
          <path id="Trazado_662535" data-name="Trazado 662535" d="M131.356,102.387l-.984,2.105a.527.527,0,0,1-.584.307l-2.536-.4a.545.545,0,0,1-.461-.63.585.585,0,0,1,.046-.154l.983-2.105a.527.527,0,0,1,.584-.307l2.536.4a.545.545,0,0,1,.461.63.587.587,0,0,1-.046.154" transform="translate(-95.803 -45.327)" fill="#1a2738"/>
          <path id="Trazado_662536" data-name="Trazado 662536" d="M131.056,109.847l-.984,2.105a.527.527,0,0,1-.584.307l-2.536-.4a.553.553,0,0,1-.461-.63.3.3,0,0,1,.046-.154l.983-2.105a.527.527,0,0,1,.584-.307l2.536.4a.545.545,0,0,1,.461.63.586.586,0,0,1-.046.154" transform="translate(-95.963 -41.323)" fill="#1a2738"/>
          <path id="Trazado_662537" data-name="Trazado 662537" d="M130.876,89.807l-.984,2.105a.527.527,0,0,1-.584.307l-2.536-.4a.553.553,0,0,1-.461-.63.3.3,0,0,1,.046-.154l.984-2.105a.527.527,0,0,1,.584-.307l2.536.4a.545.545,0,0,1,.461.63.587.587,0,0,1-.046.154" transform="translate(-96.06 -52.08)" fill="#1a2738"/>
          <path id="Trazado_662538" data-name="Trazado 662538" d="M130.576,97.267l-.984,2.105a.527.527,0,0,1-.584.307l-2.536-.4a.553.553,0,0,1-.461-.63.3.3,0,0,1,.046-.154l.983-2.105a.527.527,0,0,1,.584-.307l2.536.384a.545.545,0,0,1,.461.63.589.589,0,0,1-.046.154" transform="translate(-96.221 -48.076)" fill="#1a2738"/>
          <path id="Trazado_662539" data-name="Trazado 662539" d="M130.276,104.711l-.984,2.105a.527.527,0,0,1-.584.307l-2.536-.384a.553.553,0,0,1-.461-.63.3.3,0,0,1,.046-.154l.983-2.105a.527.527,0,0,1,.584-.307l2.536.4a.545.545,0,0,1,.461.63.3.3,0,0,1-.046.154" transform="translate(-96.382 -44.071)" fill="#1a2738"/>
          <path id="Trazado_662540" data-name="Trazado 662540" d="M129.8,92.147l-.984,2.105a.527.527,0,0,1-.584.307l-2.536-.4a.553.553,0,0,1-.461-.63.3.3,0,0,1,.046-.154l.984-2.105a.527.527,0,0,1,.584-.307l2.536.4a.545.545,0,0,1,.461.63.587.587,0,0,1-.046.154" transform="translate(-96.64 -50.824)" fill="#1a2738"/>
          <path id="Trazado_662541" data-name="Trazado 662541" d="M129.5,99.6l-.984,2.105a.527.527,0,0,1-.584.307l-2.536-.4a.545.545,0,0,1-.461-.63.585.585,0,0,1,.046-.154l.984-2.105a.527.527,0,0,1,.584-.307l2.536.4a.545.545,0,0,1,.461.63.585.585,0,0,1-.046.154" transform="translate(-96.801 -46.825)" fill="#1a2738"/>
          <path id="Trazado_662542" data-name="Trazado 662542" d="M129.181,107.057l-.968,2.105a.527.527,0,0,1-.584.307l-2.536-.4a.553.553,0,0,1-.461-.63.3.3,0,0,1,.046-.154l.983-2.105a.527.527,0,0,1,.584-.307l2.536.4a.545.545,0,0,1,.461.63.585.585,0,0,1-.046.154" transform="translate(-96.962 -42.821)" fill="#1a2738"/>
          <path id="Trazado_662543" data-name="Trazado 662543" d="M128.716,94.477l-.984,2.105a.527.527,0,0,1-.584.307l-2.536-.4a.553.553,0,0,1-.461-.63.3.3,0,0,1,.046-.154l.984-2.105a.527.527,0,0,1,.584-.307l2.536.384a.545.545,0,0,1,.461.63.586.586,0,0,1-.046.154" transform="translate(-97.219 -49.573)" fill="#1a2738"/>
          <path id="Trazado_662544" data-name="Trazado 662544" d="M128.406,101.931l-.983,2.105a.527.527,0,0,1-.584.307l-2.536-.384a.553.553,0,0,1-.461-.63.3.3,0,0,1,.046-.154l.984-2.105a.527.527,0,0,1,.584-.307l2.536.4a.545.545,0,0,1,.461.63.585.585,0,0,1-.046.154" transform="translate(-97.386 -45.563)" fill="#1a2738"/>
          <path id="Trazado_662545" data-name="Trazado 662545" d="M128.106,109.387l-.984,2.105a.527.527,0,0,1-.584.307L124,111.4a.553.553,0,0,1-.461-.63.343.343,0,0,1,.046-.154l.968-2.105a.527.527,0,0,1,.584-.307l2.536.4a.545.545,0,0,1,.461.63.3.3,0,0,1-.046.154" transform="translate(-97.547 -41.57)" fill="#1a2738"/>
          <path id="Trazado_662546" data-name="Trazado 662546" d="M127.926,89.357l-.984,2.105a.527.527,0,0,1-.584.307l-2.536-.4a.553.553,0,0,1-.461-.63.3.3,0,0,1,.046-.154l.984-2.105a.527.527,0,0,1,.584-.307l2.536.4a.553.553,0,0,1,.461.63.3.3,0,0,1-.046.154" transform="translate(-97.644 -52.321)" fill="#1a2738"/>
          <path id="Trazado_662547" data-name="Trazado 662547" d="M127.626,96.807l-.984,2.105a.527.527,0,0,1-.584.307l-2.536-.4a.545.545,0,0,1-.461-.63.585.585,0,0,1,.046-.154l.984-2.105a.527.527,0,0,1,.584-.307l2.536.4a.545.545,0,0,1,.461.63.586.586,0,0,1-.046.154" transform="translate(-97.804 -48.322)" fill="#1a2738"/>
          <path id="Trazado_662548" data-name="Trazado 662548" d="M127.326,104.267l-.984,2.105a.527.527,0,0,1-.584.307l-2.536-.4a.553.553,0,0,1-.461-.63.343.343,0,0,1,.046-.154l.983-2.105a.527.527,0,0,1,.584-.307l2.536.4a.545.545,0,0,1,.461.63.586.586,0,0,1-.046.154" transform="translate(-97.966 -44.318)" fill="#1a2738"/>
          <path id="Trazado_662549" data-name="Trazado 662549" d="M126.846,91.687l-.983,2.105a.527.527,0,0,1-.584.307l-2.536-.4a.553.553,0,0,1-.461-.63.3.3,0,0,1,.046-.154l.984-2.105a.527.527,0,0,1,.584-.307l2.536.384a.545.545,0,0,1,.461.63.585.585,0,0,1-.046.154" transform="translate(-98.223 -51.07)" fill="#1a2738"/>
          <path id="Trazado_662550" data-name="Trazado 662550" d="M126.546,99.141l-.984,2.105a.527.527,0,0,1-.584.307l-2.536-.384a.545.545,0,0,1-.461-.63.586.586,0,0,1,.046-.154l.983-2.105a.527.527,0,0,1,.584-.307l2.536.4a.545.545,0,0,1,.461.63.586.586,0,0,1-.046.154" transform="translate(-98.384 -47.061)" fill="#1a2738"/>
          <path id="Trazado_662551" data-name="Trazado 662551" d="M126.246,106.6l-.984,2.105a.527.527,0,0,1-.584.307l-2.536-.4a.553.553,0,0,1-.461-.63.344.344,0,0,1,.046-.154l.984-2.105a.527.527,0,0,1,.584-.307l2.536.4a.545.545,0,0,1,.461.63.585.585,0,0,1-.046.154" transform="translate(-98.545 -43.068)" fill="#1a2738"/>
          <path id="Trazado_662552" data-name="Trazado 662552" d="M125.766,94.017l-.984,2.105a.527.527,0,0,1-.584.307l-2.536-.4a.553.553,0,0,1-.461-.63.3.3,0,0,1,.046-.154l.984-2.105a.527.527,0,0,1,.584-.307l2.536.384a.545.545,0,0,1,.461.63.3.3,0,0,1-.046.154" transform="translate(-98.803 -49.82)" fill="#1a2738"/>
          <path id="Trazado_662553" data-name="Trazado 662553" d="M125.466,101.477l-.984,2.105a.527.527,0,0,1-.584.307l-2.536-.4a.553.553,0,0,1-.461-.63.344.344,0,0,1,.046-.154l.984-2.105a.527.527,0,0,1,.584-.307l2.536.4a.545.545,0,0,1,.461.63.585.585,0,0,1-.046.154" transform="translate(-98.964 -45.816)" fill="#1a2738"/>
          <path id="Trazado_662554" data-name="Trazado 662554" d="M125.156,108.927l-.984,2.105a.527.527,0,0,1-.584.307l-2.536-.4a.553.553,0,0,1-.461-.63.3.3,0,0,1,.046-.154l.983-2.105a.528.528,0,0,1,.584-.307l2.536.384a.545.545,0,0,1,.461.63.585.585,0,0,1-.046.154" transform="translate(-99.13 -41.817)" fill="#1a2738"/>
          <path id="Trazado_662555" data-name="Trazado 662555" d="M124.676,96.351l-.984,2.105a.527.527,0,0,1-.584.307l-2.536-.384a.553.553,0,0,1-.461-.63.3.3,0,0,1,.046-.154l.983-2.105a.527.527,0,0,1,.584-.307l2.536.4a.545.545,0,0,1,.461.63.586.586,0,0,1-.046.154" transform="translate(-99.388 -48.558)" fill="#1a2738"/>
          <path id="Trazado_662556" data-name="Trazado 662556" d="M124.376,103.807l-.983,2.105a.527.527,0,0,1-.584.307l-2.536-.4a.553.553,0,0,1-.461-.63.344.344,0,0,1,.046-.154l.984-2.105a.527.527,0,0,1,.584-.307l2.536.4a.545.545,0,0,1,.461.63.583.583,0,0,1-.046.154" transform="translate(-99.549 -44.565)" fill="#1a2738"/>
          <path id="Trazado_662557" data-name="Trazado 662557" d="M123.6,98.687l-.984,2.105a.527.527,0,0,1-.584.307l-2.536-.4a.553.553,0,0,1-.461-.63.344.344,0,0,1,.046-.154l.983-2.105a.527.527,0,0,1,.584-.307l2.536.4a.545.545,0,0,1,.461.63.585.585,0,0,1-.046.154" transform="translate(-99.967 -47.313)" fill="#1a2738"/>
          <path id="Trazado_662558" data-name="Trazado 662558" d="M110.431,108.009h0m-.338-1.936h0m.015.092v0m0,0c.015.092.031.2.061.338a.261.261,0,0,0,.015.108l-.123-.691c-.645-3.734-.63-3.719-.784-4.564-.292-1.675-.246-1.491-.323-1.844a4.241,4.241,0,0,1-.092-.615,2.778,2.778,0,0,1,.108-1.06c.046-.154,14.276-30.781,14.353-30.95a2.673,2.673,0,0,1,.215-.415.248.248,0,0,1,.108-.061c.154,0,.231.323.246.476l5.363,31.288-15,32.318c-2.29-13.354-3.381-19.747-3.857-22.575v-.031h0c-.046-.261-.154-.922-.246-1.4-.015-.123-.046-.246-.061-.338" transform="translate(-105.428 -63.997)" fill="#93d2f0"/>
          <path id="Trazado_662559" data-name="Trazado 662559" d="M123.3,106.137l-.984,2.105a.527.527,0,0,1-.584.307l-2.536-.4a.553.553,0,0,1-.461-.63.3.3,0,0,1,.046-.154l.984-2.105a.527.527,0,0,1,.584-.307l2.536.384a.545.545,0,0,1,.461.63.587.587,0,0,1-.046.154" transform="translate(-100.129 -43.315)" fill="#1a2738"/>
          <path id="Trazado_662560" data-name="Trazado 662560" d="M122.516,101.017l-.983,2.105a.527.527,0,0,1-.584.307l-2.536-.4a.553.553,0,0,1-.461-.63.3.3,0,0,1,.046-.154l.984-2.105a.527.527,0,0,1,.584-.307l2.536.4a.545.545,0,0,1,.461.63.585.585,0,0,1-.046.154" transform="translate(-100.547 -46.063)" fill="#1a2738"/>
          <path id="Trazado_662561" data-name="Trazado 662561" d="M122.216,108.477l-.983,2.105a.527.527,0,0,1-.584.307l-2.536-.4a.545.545,0,0,1-.461-.63.585.585,0,0,1,.046-.154l.983-2.105a.527.527,0,0,1,.584-.307l2.536.4a.545.545,0,0,1,.461.63.584.584,0,0,1-.046.154" transform="translate(-100.708 -42.059)" fill="#1a2738"/>
          <path id="Trazado_662562" data-name="Trazado 662562" d="M121.436,103.357l-.983,2.105a.527.527,0,0,1-.584.307l-2.536-.4a.545.545,0,0,1-.461-.63.585.585,0,0,1,.046-.154l.983-2.105a.527.527,0,0,1,.584-.307l2.536.384a.545.545,0,0,1,.461.63.3.3,0,0,1-.046.154" transform="translate(-101.127 -44.806)" fill="#1a2738"/>
          <path id="Trazado_662563" data-name="Trazado 662563" d="M120.346,105.687l-.984,2.105a.527.527,0,0,1-.584.307l-2.536-.4a.545.545,0,0,1-.461-.63.585.585,0,0,1,.046-.154l.984-2.105a.527.527,0,0,1,.584-.307l2.536.4a.545.545,0,0,1,.461.63.585.585,0,0,1-.046.154" transform="translate(-101.712 -43.556)" fill="#1a2738"/>
          <path id="Trazado_662564" data-name="Trazado 662564" d="M119.266,108.011l-.984,2.105a.527.527,0,0,1-.584.307l-2.536-.384a.553.553,0,0,1-.461-.63.3.3,0,0,1,.046-.154l.983-2.105a.527.527,0,0,1,.584-.307l2.536.4a.545.545,0,0,1,.461.63.585.585,0,0,1-.046.154" transform="translate(-102.292 -42.3)" fill="#1a2738"/>
          <path id="Trazado_662565" data-name="Trazado 662565" d="M122.216,64.84l2.689.077c-.2,0-.4.215-.569.584L109.891,96.62a5.126,5.126,0,0,0-.353,1.168,11.053,11.053,0,0,0-.061,3.627l5.5,32.1a1.386,1.386,0,0,0,.123.43c.046.108.123.184.2.184-.907-.031-1.813-.046-2.72-.077h0c-.184,0-.277-.4-.323-.615l-5.5-32.1a9.78,9.78,0,0,1-.123-2.013,7.689,7.689,0,0,1,.522-2.766L121.6,65.439c.108-.246.323-.6.584-.584" transform="translate(-106.624 -64.84)" fill="#596876"/>
          <path id="Trazado_662566" data-name="Trazado 662566" d="M114.589,132.7a.967.967,0,0,0-.046.2h0v1.045q-.092.161-.184.138a.315.315,0,0,1-.2-.184,1.385,1.385,0,0,1-.123-.43l-5.5-32.1a10.648,10.648,0,0,1,.061-3.627,4.64,4.64,0,0,1,.353-1.168l14.445-31.119c.169-.369.369-.584.569-.584h.015c.23,0,.461.277.645.876.061.215.108.43.154.645l5.5,32.1a2.664,2.664,0,0,1,.046.492.57.57,0,0,0-.2.261L114.6,132.671Zm14.922-33.67-5.363-31.288c-.031-.154-.108-.476-.246-.476a.155.155,0,0,0-.108.061,1.765,1.765,0,0,0-.215.415c-.077.169-14.307,30.8-14.353,30.95a3.081,3.081,0,0,0-.108,1.06,2.832,2.832,0,0,0,.092.615c.061.338.015.169.323,1.844.154.845.138.83.784,4.564.046.261.092.492.123.692a.228.228,0,0,0,.015.108c.015.031,0,.046,0,.077a.261.261,0,0,0,.015.108h0s0,.077.015.092c0,.046.015.092.015.123v.123a.346.346,0,0,0,.015.108c.015.123.031.215.046.292v.061c0,.046,0,.077.015.092s0,.061.015.108h0c.476,2.828,1.583,9.236,3.857,22.575l15-32.318Z" transform="translate(-105.666 -64.824)" fill="#283c48"/>
        </g>
      </g>
    </g>
  </g>
</svg>
