<svg xmlns="http://www.w3.org/2000/svg" xmlns:xlink="http://www.w3.org/1999/xlink" width="169" height="168" viewBox="0 0 169 168">
  <defs>
    <clipPath id="clip-path">
      <rect id="Rectángulo_345336" data-name="Rectángulo 345336" width="126.587" height="168" fill="none"/>
    </clipPath>
  </defs>
  <g id="Grupo_999977" data-name="Grupo 999977" transform="translate(-1097.309 -9647)">
    <ellipse id="Elipse_7901" data-name="Elipse 7901" cx="84.5" cy="84" rx="84.5" ry="84" transform="translate(1097.309 9647)" fill="#25ffff" opacity="0.5"/>
    <g id="Grupo_999434" data-name="Grupo 999434" transform="translate(1125 9647)">
      <path id="Trazado_706111" data-name="Trazado 706111" d="M30.056,36.507l31.858,9.081,5.279-21.241-31.86-9.081Z" transform="translate(58.527 29.727)" fill="#4d85d4"/>
      <path id="Trazado_706112" data-name="Trazado 706112" d="M42.236,17.232l-6.9-1.966L30.055,36.507l6.9,1.966Z" transform="translate(58.526 29.728)" fill="#2968ac"/>
      <path id="Trazado_706113" data-name="Trazado 706113" d="M38.523,38.918l6.9,1.969L50.7,19.645,43.8,17.68Z" transform="translate(75.016 34.427)" fill="#2968ac"/>
      <path id="Trazado_706114" data-name="Trazado 706114" d="M41.478,20.212,37.1,18.966l-1.786,7.186,4.38,1.25Z" transform="translate(68.764 36.932)" fill="#d8e8e9"/>
      <path id="Trazado_706115" data-name="Trazado 706115" d="M37.048,21.665l2.426.693.318-1.273-2.426-.693Z" transform="translate(72.143 39.709)" fill="#8dafd9"/>
      <path id="Trazado_706116" data-name="Trazado 706116" d="M37.725,23.09l1.208.345.684-2.735-1.211-.345Z" transform="translate(73.463 39.637)" fill="#d8e8e9"/>
      <path id="Trazado_706117" data-name="Trazado 706117" d="M40.255,21.884l-4.38-1.247L35.312,22.9l4.38,1.25Z" transform="translate(68.764 40.186)" fill="#8dafd9"/>
      <path id="Trazado_706118" data-name="Trazado 706118" d="M40.67,20.212l-4.38-1.247-.563,2.261,4.38,1.25Z" transform="translate(69.572 36.932)" fill="#8dafd9"/>
      <path id="Trazado_706119" data-name="Trazado 706119" d="M43.815,20.3l-7.76-2.21-.8,3.236,7.76,2.21Z" transform="translate(68.642 35.223)" fill="#d8e8e9"/>
      <path id="Trazado_706120" data-name="Trazado 706120" d="M35.466,21.385l.171.05.8-3.236-.168-.05Z" transform="translate(69.064 35.342)" fill="#8dafd9"/>
      <path id="Trazado_706121" data-name="Trazado 706121" d="M35.895,21.508l.171.047.8-3.236-.168-.047Z" transform="translate(69.898 35.58)" fill="#8dafd9"/>
      <path id="Trazado_706122" data-name="Trazado 706122" d="M36.323,21.63l.171.047.8-3.236-.168-.047Z" transform="translate(70.732 35.818)" fill="#8dafd9"/>
      <path id="Trazado_706123" data-name="Trazado 706123" d="M36.752,21.752l.171.047.8-3.236-.168-.047Z" transform="translate(71.567 36.055)" fill="#8dafd9"/>
      <path id="Trazado_706124" data-name="Trazado 706124" d="M37.18,21.874l.171.047.8-3.236-.168-.047Z" transform="translate(72.401 36.293)" fill="#8dafd9"/>
      <path id="Trazado_706125" data-name="Trazado 706125" d="M37.608,22l.171.047.8-3.236-.168-.047Z" transform="translate(73.235 36.532)" fill="#8dafd9"/>
      <g id="Grupo_999433" data-name="Grupo 999433" transform="translate(0 0)">
        <g id="Grupo_999432" data-name="Grupo 999432" clip-path="url(#clip-path)">
          <path id="Trazado_706126" data-name="Trazado 706126" d="M41.758,21.468h0c-3.56-1.014-7.262,1.444-8.267,5.491l-.251,1.005,12.894,3.675.248-1.008c1.008-4.047-1.064-8.149-4.624-9.163" transform="translate(64.729 41.359)" fill="#d8e8e9"/>
          <path id="Trazado_706127" data-name="Trazado 706127" d="M37.778,22.148c.153.669-.492,1.459-1.435,1.76s-1.833,0-1.986-.666.492-1.459,1.435-1.762,1.833,0,1.986.669" transform="translate(66.86 41.599)" fill="#fff"/>
          <path id="Trazado_706128" data-name="Trazado 706128" d="M60.873,23.3h0C49.732,20.121,38.149,27.811,35,40.475L23.062,88.54c-.808,3.251.858,6.549,3.717,7.365l29.977,8.544c2.862.813,5.839-1.161,6.643-4.412L75.344,51.97c3.145-12.662-3.333-25.5-14.471-28.674" transform="translate(44.511 43.97)" fill="#7dccfb"/>
          <path id="Trazado_706129" data-name="Trazado 706129" d="M59.364,63.048l-35.3-10.059a2.922,2.922,0,0,1-1.81-3.584,2.693,2.693,0,0,1,3.233-2.146l35.3,10.062A2.913,2.913,0,0,1,62.594,60.9a2.685,2.685,0,0,1-3.23,2.146" transform="translate(43.144 91.856)" fill="#7dccfb"/>
          <path id="Trazado_706130" data-name="Trazado 706130" d="M44.348,97.111,28.878,92.7,43.685,33.113c1.205-4.857,5.647-7.807,9.921-6.59s6.755,6.142,5.55,11Z" transform="translate(56.235 51.114)" fill="#4d85d4"/>
          <path id="Trazado_706131" data-name="Trazado 706131" d="M27.423,88.651h0a3.689,3.689,0,0,1-2.287-4.53L39.154,27.709a3.4,3.4,0,0,1,4.088-2.714,3.691,3.691,0,0,1,2.287,4.53L31.511,85.936a3.4,3.4,0,0,1-4.088,2.714" transform="translate(48.703 48.452)" fill="#bbe7fc"/>
          <path id="Trazado_706132" data-name="Trazado 706132" d="M50.215,47.595,36.433,56.749,28.72,41.47,42.5,32.316Z" transform="translate(55.927 62.929)" fill="#fff"/>
          <path id="Trazado_706133" data-name="Trazado 706133" d="M47.041,45.615,35.708,53.139l-6.34-12.561L40.7,33.053Z" transform="translate(57.19 64.364)" fill="#ffcb54"/>
          <path id="Trazado_706134" data-name="Trazado 706134" d="M33.4,38.3s1.471-.068.94-2.744c-1.061.825-.628,2.384-.94,2.744" transform="translate(65.031 69.238)" fill="#fff"/>
          <path id="Trazado_706135" data-name="Trazado 706135" d="M39.057,41.333c-1.1,1.942-3.139.66-1.524-1.989a4.655,4.655,0,0,0-.327-5.108c-.439,3.245-4.937,1.963-6.186,7a4.722,4.722,0,0,0,1.412,4.754c-1.409-2.378,1.3-2.859,1.9-4.607a2.166,2.166,0,0,1-.065,1.907c-.542.943.3,1.533.719.855s.92-.321.92-.321a.847.847,0,0,0-.489.8,2.935,2.935,0,0,1-.781,2.222,3.928,3.928,0,0,0,3.224-1.609h0a6.247,6.247,0,0,0,1.2-3.9" transform="translate(60.108 66.668)" fill="#fff"/>
          <path id="Trazado_706136" data-name="Trazado 706136" d="M23.69,47.317c23.652,17.6,34.106,9.72,34.106,9.72Z" transform="translate(46.132 92.14)" fill="#2968ac"/>
          <path id="Trazado_706137" data-name="Trazado 706137" d="M39.484,19.3l-4.15-4.035L30.055,36.507l4.813,1.37Z" transform="translate(58.527 29.727)" fill="#7dccfb"/>
          <path id="Trazado_706138" data-name="Trazado 706138" d="M37.2,21.776l-5.317-1.515A1.925,1.925,0,0,1,30.69,17.9a1.776,1.776,0,0,1,2.134-1.418l5.317,1.515Z" transform="translate(59.636 31.976)" fill="#6ac0fa"/>
          <path id="Trazado_706139" data-name="Trazado 706139" d="M36.033,26.476l-5.317-1.515A1.925,1.925,0,0,1,29.522,22.6a1.776,1.776,0,0,1,2.134-1.418l5.317,1.515Z" transform="translate(57.362 41.129)" fill="#6ac0fa"/>
          <path id="Trazado_706140" data-name="Trazado 706140" d="M43.848,19.638l5.473-1.291L44.046,39.588l-4.813-1.373Z" transform="translate(76.399 35.727)" fill="#7dccfb"/>
          <path id="Trazado_706141" data-name="Trazado 706141" d="M40.4,22.886,45.717,24.4a1.774,1.774,0,0,0,2.134-1.415,1.925,1.925,0,0,0-1.194-2.364L41.34,19.105Z" transform="translate(78.671 37.203)" fill="#6ac0fa"/>
          <path id="Trazado_706142" data-name="Trazado 706142" d="M39.233,27.586,44.55,29.1a1.774,1.774,0,0,0,2.134-1.415,1.925,1.925,0,0,0-1.194-2.364l-5.317-1.518Z" transform="translate(76.399 46.355)" fill="#6ac0fa"/>
          <path id="Trazado_706143" data-name="Trazado 706143" d="M28.073,55.1c-1.146-2.069-.846-3.36.021-4.1-.672-.251-1.285-.492-1.851-.728a16.477,16.477,0,0,1-2.231-.654c-.112.643-.253,1.356-.41,2.084-.153.693-.327,1.4-.522,2.072a11.3,11.3,0,0,0,5.338,1.863,4.849,4.849,0,0,1-.345-.536" transform="translate(44.944 96.621)" fill="#4b3c4f"/>
          <path id="Trazado_706144" data-name="Trazado 706144" d="M35.3,56.774c-6.39-.743-12.824-2.3-13.024-3.089a2.929,2.929,0,0,0,2.107,3.3,77.236,77.236,0,0,0,11.441,2.208,32.315,32.315,0,0,0,9.543-.233,3.119,3.119,0,0,0,2.555-3.05v-.33c-.987,1.874-6.788,1.874-12.623,1.2" transform="translate(43.304 104.541)" fill="#4b3c4f"/>
          <path id="Trazado_706145" data-name="Trazado 706145" d="M42.059,56.968a5.377,5.377,0,0,1-5.137.625c-.159-.062-.321-.127-.483-.2-.071.053-.141.1-.212.159-.271.212-.539.439-.813.672l.024.015a.439.439,0,1,1-.324-.1,4.764,4.764,0,0,1,.657-1.035c-.5-.221-1.014-.466-1.524-.734-.283.221-.563.46-.849.7a.441.441,0,1,1-.224-.156,4.812,4.812,0,0,1,.519-.849,17.472,17.472,0,0,1-1.592-1,6.656,6.656,0,0,0-.507.5.452.452,0,1,1-.2-.094,2.954,2.954,0,0,1,.309-.7,9.438,9.438,0,0,1-1.167-1.058,8.957,8.957,0,0,0-.816.7.436.436,0,0,1,.015.578.442.442,0,1,1-.262-.713,3.816,3.816,0,0,1,.657-1.055c-.027-.032-.05-.065-.074-.1a11.264,11.264,0,0,1-5.338-1.863c-.33-.212-.519-.354-.519-.354-.952,3.045-2.163,7.244-1.928,8.188.2.79,6.634,2.346,13.024,3.086,5.836.678,11.636.678,12.623-1.194a6.24,6.24,0,0,0-4.91-4.966c-.589-.153-1.22-.348-1.866-.572,1.205.457,2.057.7,2.057.7Z" transform="translate(43.31 99.133)" fill="#ff7676"/>
          <path id="Trazado_706146" data-name="Trazado 706146" d="M24.619,52.2a.443.443,0,0,0,.681.566.447.447,0,0,0-.015-.581c-.139.133-.274.268-.41.413a2.725,2.725,0,0,1,.162-.548.441.441,0,0,0-.419.15" transform="translate(47.743 101.352)" fill="#554560"/>
          <path id="Trazado_706147" data-name="Trazado 706147" d="M26.632,54.142a.443.443,0,0,0,.566-.681l-.024-.015c-.165.139-.327.277-.5.424a3.789,3.789,0,0,1,.195-.51.448.448,0,0,0-.3.159.441.441,0,0,0,.059.622" transform="translate(51.548 103.91)" fill="#554560"/>
          <path id="Trazado_706148" data-name="Trazado 706148" d="M25.858,53.1a.443.443,0,0,0,.681.566.447.447,0,0,0,.012-.551l-.424.363a4.1,4.1,0,0,1,.2-.519.442.442,0,0,0-.469.141" transform="translate(50.156 103.091)" fill="#554560"/>
          <path id="Trazado_706149" data-name="Trazado 706149" d="M25.268,52.61a.443.443,0,1,0,.628-.053c-.1.106-.192.218-.286.336a2.163,2.163,0,0,1,.083-.433.439.439,0,0,0-.424.15" transform="translate(49.007 102.138)" fill="#554560"/>
          <path id="Trazado_706150" data-name="Trazado 706150" d="M25.286,50.087c-.861.737-1.161,2.031-.021,4.1a5.388,5.388,0,0,0,.351.536l.071.1.012-.015a5.255,5.255,0,0,1,1.438-1.135,6.858,6.858,0,0,1,1.689-.637,7.868,7.868,0,0,1,1.167-.18c-.085-.3-.139-.737-.221-1.2-1.712-.557-3.2-1.079-4.486-1.565" transform="translate(47.749 97.534)" fill="#ed6464"/>
          <path id="Trazado_706151" data-name="Trazado 706151" d="M29.616,53a15.335,15.335,0,0,0-1.429.8c-.389.245-.76.51-1.129.79.165.068.324.136.483.2a5.393,5.393,0,0,0,5.137-.625l1.141-.819s-.852-.242-2.057-.7c-.233-.088-.477-.183-.731-.289-.492.215-.964.419-1.415.645" transform="translate(52.69 101.941)" fill="#ed6464"/>
          <path id="Trazado_706152" data-name="Trazado 706152" d="M29.123,52.48a15.6,15.6,0,0,0-2.77,1.748l-.038.032c.51.268,1.023.513,1.521.734l.009-.012a5.846,5.846,0,0,1,3-1.892,4.777,4.777,0,0,1,1.385-.144c-.648-.271-1.344-.589-2.045-.955-.365.159-.722.318-1.061.489" transform="translate(51.242 101.242)" fill="#ed6464"/>
          <path id="Trazado_706153" data-name="Trazado 706153" d="M27.993,51.639c-.519.245-1.023.483-1.509.749a11.29,11.29,0,0,0-1.388.887l-.041.032a9.437,9.437,0,0,0,1.167,1.058,3.378,3.378,0,0,1,.377-.513,5.1,5.1,0,0,1,1.453-1.111,7.072,7.072,0,0,1,1.686-.628c.106-.024.215-.041.324-.056a9.074,9.074,0,0,1-.955-.872.334.334,0,0,1-.05-.071c-.357.189-.713.357-1.064.525" transform="translate(48.79 99.534)" fill="#ed6464"/>
          <path id="Trazado_706154" data-name="Trazado 706154" d="M28.9,51.837c-.5.23-1.014.486-1.5.74A10.993,10.993,0,0,0,26,53.438c-.144.106-.283.218-.419.339a17.1,17.1,0,0,0,1.592,1.005c.047-.065.091-.13.141-.189a5.8,5.8,0,0,1,3-1.892,5.247,5.247,0,0,1,.825-.139,16.153,16.153,0,0,1-1.589-.993c-.221.083-.439.171-.654.268" transform="translate(49.824 100.42)" fill="#ed6464"/>
          <path id="Trazado_706155" data-name="Trazado 706155" d="M29.228,51.519a6.828,6.828,0,0,0-1.686.628,5.1,5.1,0,0,0-1.453,1.111,3.378,3.378,0,0,0-.377.513,2.964,2.964,0,0,0-.312.7,2.7,2.7,0,0,0-.083.43c.094-.118.189-.23.286-.336a6.152,6.152,0,0,1,.507-.5,5.01,5.01,0,0,1,.419-.339,11,11,0,0,1,1.394-.861c.489-.253,1-.513,1.5-.74.215-.1.433-.186.654-.268a7.071,7.071,0,0,1,.955-.277,3,3,0,0,0-1.483-.124c-.109.018-.218.035-.324.059" transform="translate(49.3 100.132)" fill="#fff"/>
          <path id="Trazado_706156" data-name="Trazado 706156" d="M29.743,52.053a5.759,5.759,0,0,0-1.648.713,5.687,5.687,0,0,0-1.353,1.179c-.05.062-.094.124-.141.189a4.643,4.643,0,0,0-.519.849,3.933,3.933,0,0,0-.2.519c.144-.124.283-.245.424-.363.283-.245.566-.48.849-.7l.038-.029a15.966,15.966,0,0,1,1.338-.949,15.335,15.335,0,0,1,1.429-.8c.345-.171.7-.33,1.067-.489l.489-.215a3.794,3.794,0,0,0-.949-.032,4.919,4.919,0,0,0-.825.136" transform="translate(50.4 101.068)" fill="#fff"/>
          <path id="Trazado_706157" data-name="Trazado 706157" d="M30.4,52.465a5.759,5.759,0,0,0-1.648.713A5.687,5.687,0,0,0,27.4,54.357l-.009.012a4.792,4.792,0,0,0-.654,1.035,3.537,3.537,0,0,0-.2.507c.171-.144.333-.283.5-.424.271-.23.539-.457.813-.669.068-.056.141-.106.209-.159.368-.28.743-.545,1.129-.79a15.334,15.334,0,0,1,1.429-.8c.454-.224.923-.427,1.418-.643.047-.021.091-.041.139-.065a3.411,3.411,0,0,0-.389-.038,4.688,4.688,0,0,0-1.385.144" transform="translate(51.684 101.871)" fill="#fff"/>
          <path id="Trazado_706158" data-name="Trazado 706158" d="M28.594,51.22a6.969,6.969,0,0,0-1.689.634,5.21,5.21,0,0,0-1.438,1.138L25.458,53a3.806,3.806,0,0,0-.654,1.055,2.734,2.734,0,0,0-.165.548c.136-.144.274-.28.41-.413a9.991,9.991,0,0,1,.816-.7l.044-.032a11.2,11.2,0,0,1,1.388-.887c.483-.265.99-.5,1.506-.749.354-.168.71-.336,1.064-.522.168-.091.336-.183.5-.283-.2,0-.4.006-.6.021a7.846,7.846,0,0,0-1.17.18" transform="translate(47.98 99.349)" fill="#fff"/>
          <path id="Trazado_706159" data-name="Trazado 706159" d="M6.156,56.425a4.883,4.883,0,0,1-.118-.628c-.274-2.322.477-3.407,1.536-3.776a16.55,16.55,0,0,1-3.065-3.08c-.386.616-.837,1.312-1.323,2.019-.4.581-.831,1.17-1.264,1.721a11.3,11.3,0,0,0,4.235,3.743" transform="translate(3.741 95.305)" fill="#4b3c4f"/>
          <path id="Trazado_706160" data-name="Trazado 706160" d="M11.321,60.145C5.686,57.038.319,53.166.434,52.358a2.926,2.926,0,0,0,.7,3.849,77.311,77.311,0,0,0,9.753,6.375,32.424,32.424,0,0,0,8.922,3.4,3.112,3.112,0,0,0,3.519-1.857l.127-.3c-1.624,1.359-6.994-.837-12.137-3.672" transform="translate(-0.001 101.957)" fill="#4b3c4f"/>
          <path id="Trazado_706161" data-name="Trazado 706161" d="M19.268,62.4a5.388,5.388,0,0,1-4.993-1.365c-.124-.118-.248-.242-.374-.365-.083.021-.168.041-.253.065-.333.094-.666.2-1.008.312l.018.024a.443.443,0,1,1-.6-.18.434.434,0,0,1,.336-.035,4.785,4.785,0,0,1,1-.707c-.38-.395-.76-.816-1.132-1.259-.348.1-.7.212-1.052.33a.44.44,0,1,1-.147-.23,4.778,4.778,0,0,1,.8-.589,17.261,17.261,0,0,1-1.091-1.53,5.918,5.918,0,0,0-.657.268.442.442,0,1,1-.6-.189.435.435,0,0,1,.451.024,2.851,2.851,0,0,1,.551-.531,9.6,9.6,0,0,1-.681-1.421,9.415,9.415,0,0,0-1.02.342.442.442,0,1,1-.622-.239.437.437,0,0,1,.445.018,3.8,3.8,0,0,1,1.005-.728L9.61,54.3a11.325,11.325,0,0,1-4.235-3.743c-.224-.321-.345-.522-.345-.522C3,52.489.285,55.917.149,56.881c-.115.808,5.252,4.68,10.884,7.787C16.18,67.5,21.547,69.7,23.171,68.34A6.245,6.245,0,0,0,20.5,61.885c-.486-.365-1-.784-1.509-1.238.94.881,1.639,1.426,1.639,1.426Z" transform="translate(0.287 97.431)" fill="#ff7676"/>
          <path id="Trazado_706162" data-name="Trazado 706162" d="M3.032,51.8a.442.442,0,1,0,.622.239c-.177.071-.354.144-.536.227a2.921,2.921,0,0,1,.36-.448.444.444,0,0,0-.445-.018" transform="translate(5.447 100.762)" fill="#554560"/>
          <path id="Trazado_706163" data-name="Trazado 706163" d="M4.343,53.752a.442.442,0,1,0,.6.183l-.015-.024c-.2.065-.41.136-.622.2a3.953,3.953,0,0,1,.374-.395.448.448,0,0,0-.336.032" transform="translate(8 104.571)" fill="#554560"/>
          <path id="Trazado_706164" data-name="Trazado 706164" d="M3.84,53.092a.442.442,0,1,0,.634.277l-.531.174a4.137,4.137,0,0,1,.383-.4.442.442,0,0,0-.486-.047" transform="translate(7.021 103.286)" fill="#554560"/>
          <path id="Trazado_706165" data-name="Trazado 706165" d="M3.48,52.415a.442.442,0,1,0,.6.189c-.133.062-.265.13-.395.2a2.7,2.7,0,0,1,.242-.365.436.436,0,0,0-.448-.024" transform="translate(6.319 101.968)" fill="#554560"/>
          <path id="Trazado_706166" data-name="Trazado 706166" d="M10,33.729a7.811,7.811,0,0,0,3.64.083,7.453,7.453,0,0,0,3.283-1.827A14.3,14.3,0,0,0,19.361,29c.024-.041.044-.08.071-.118a36.282,36.282,0,0,0-9.2,2.411q-.075.531-.133,1.061c-.041.457-.071.914-.1,1.37" transform="translate(19.473 56.251)" fill="#c67fb9"/>
          <path id="Trazado_706167" data-name="Trazado 706167" d="M35.862,36.627c1.942-.28,4.518.277,5.1-3.525l.61-4.141a66.807,66.807,0,0,0-12.668.15c-.074.147-.15.292-.227.433a12.064,12.064,0,0,1-2.432,3.2,8.539,8.539,0,0,1-1.668,1.182,6.715,6.715,0,0,1-1.936.657,6.534,6.534,0,0,1-3.734-.513c-.068,1.052-.106,2.107-.147,3.165-.053,1.527-.083,3.056-.118,4.586Q18.529,46.4,18.479,51l-.112,9.178v.1l-.062.077q-2,2.551-3.949,5.143c-1.294,1.733-2.591,3.46-3.843,5.223s-2.476,3.546-3.684,5.338q-.712,1.061-1.4,2.134a26.078,26.078,0,0,0,5.582,12.305c2.458-3.26,6.213-8.264,9.611-12.8-.068-.1-3.469-5.458-.321-9.818,2.67,3.13,5.361,3.068,5.361,3.068l-3.531,4.733c1.309-1.745,2.517-3.36,3.519-4.7,1.951-.46,4.226-1.574,4.925-4.256a10.134,10.134,0,0,0,.256-4.008l4-22.476.634-3.549Z" transform="translate(10.564 55.954)" fill="#c67fb9"/>
          <path id="Trazado_706168" data-name="Trazado 706168" d="M12.837,35.194c.159-.752.339-1.5.554-2.237a18.619,18.619,0,0,1,1.765-4.238,23.911,23.911,0,0,0-2.24,7.722,36.229,36.229,0,0,1,9.2-2.411,25.594,25.594,0,0,0,1.247-2.249,29.962,29.962,0,0,1-9.865-4.89,4.068,4.068,0,0,1-.666-.645c-1.792,3.867-3.991,9.181-4.206,12.4a29.658,29.658,0,0,1,3.949-2.063c.077-.469.168-.931.265-1.391" transform="translate(16.79 51.109)" fill="#af69a5"/>
          <path id="Trazado_706169" data-name="Trazado 706169" d="M27.37,23.719c1,.9,1.9,1.683,2.573,2.208a12.641,12.641,0,0,1,3.313-7c-.212-.245-.43-.5-.648-.757a5.126,5.126,0,0,0-2.066,1.344,32.42,32.42,0,0,0-3.171,4.2" transform="translate(53.298 35.386)" fill="#eebbb0"/>
          <path id="Trazado_706170" data-name="Trazado 706170" d="M28.244,25.426c.224.174.421.315.589.43a15.189,15.189,0,0,0,3.136,1.491c.041-.009,2.42-.492,2.458-.492l.386-1.332C35,24.89,34.8,25.111,35,24.4a3.457,3.457,0,0,1,.38-1.088l.177-.687c-.46-.5-3.445-3.552-4-4.2a12.657,12.657,0,0,0-3.31,7" transform="translate(55 35.886)" fill="#ffd6ca"/>
          <path id="Trazado_706171" data-name="Trazado 706171" d="M23.421,25.875q.473.451.967.9c.884-3.811,2.373-7.9,5.246-10.572-1.533-1.762-2.859-3.218-3.77-4.1a46.479,46.479,0,0,1-2.443,13.764" transform="translate(45.608 23.583)" fill="#473751"/>
          <path id="Trazado_706172" data-name="Trazado 706172" d="M23.749,24.073c1.235,1.141,2.544,2.29,3.852,3.407a16.809,16.809,0,0,0,3.239-.79c2.34-.837,4.014-2.434,5.789-4.091C34.091,19.5,31.309,16.157,29,13.5c-2.877,2.67-4.365,6.758-5.249,10.572" transform="translate(46.247 26.29)" fill="#55425e"/>
          <path id="Trazado_706173" data-name="Trazado 706173" d="M28.292,20.681a16.826,16.826,0,0,1-3.236.787c1.052.9,2.1,1.768,3.118,2.6a16.81,16.81,0,0,0,2.93-2.629,28.322,28.322,0,0,1,3.669-4.005c-.23-.277-.46-.557-.693-.843-1.774,1.659-3.448,3.257-5.789,4.094" transform="translate(48.792 32.299)" fill="#473751"/>
          <path id="Trazado_706174" data-name="Trazado 706174" d="M17.367,29.6q.411-1.322.8-2.653-.389,1.331-.8,2.653" transform="translate(33.819 52.466)" fill="#cac3e0"/>
          <path id="Trazado_706175" data-name="Trazado 706175" d="M13.582,17.448c.312.162.628.321.943.475-.315-.153-.631-.312-.943-.475" transform="translate(26.448 33.976)" fill="#55425e"/>
          <path id="Trazado_706176" data-name="Trazado 706176" d="M13.284,19.121c.245.136.489.268.734.4-.245-.133-.489-.265-.734-.4v0" transform="translate(25.868 37.228)" fill="#55425e"/>
          <path id="Trazado_706177" data-name="Trazado 706177" d="M17.322,20.7l-.041-.009.041.009" transform="translate(33.652 40.285)" fill="#55425e"/>
          <path id="Trazado_706178" data-name="Trazado 706178" d="M14.035,17.674c.283.136.572.268.858.4-.286-.13-.575-.262-.858-.4" transform="translate(27.331 34.416)" fill="#55425e"/>
          <path id="Trazado_706179" data-name="Trazado 706179" d="M15.941,18.427a7.741,7.741,0,0,1,1.76,2.434,7.741,7.741,0,0,0-1.76-2.434" transform="translate(31.042 35.883)" fill="#55425e"/>
          <path id="Trazado_706180" data-name="Trazado 706180" d="M15.586,20.171l-.109-.041.109.041" transform="translate(30.139 39.199)" fill="#55425e"/>
          <path id="Trazado_706181" data-name="Trazado 706181" d="M16.079,20.341l-.156-.053.156.053" transform="translate(31.007 39.506)" fill="#55425e"/>
          <path id="Trazado_706182" data-name="Trazado 706182" d="M15.951,18.427l.029.009-.053-.018Z" transform="translate(31.015 35.865)" fill="#55425e"/>
          <path id="Trazado_706183" data-name="Trazado 706183" d="M14.969,18.079c.127.05.253.1.38.144-.127-.047-.253-.094-.38-.144" transform="translate(29.149 35.205)" fill="#55425e"/>
          <path id="Trazado_706184" data-name="Trazado 706184" d="M16.373,18.554h0" transform="translate(31.884 36.129)" fill="#55425e"/>
          <path id="Trazado_706185" data-name="Trazado 706185" d="M15.446,18.257l.153.053-.153-.053" transform="translate(30.078 35.551)" fill="#55425e"/>
          <path id="Trazado_706186" data-name="Trazado 706186" d="M23.493,14.518l-.015.136c2.393.613,3.224-1.229,3.493-2.956a5.779,5.779,0,0,1-5.565.8,8.59,8.59,0,0,1-1.874-.961,7.085,7.085,0,0,0,3.552,3.012c.088.029.168.05.251.077l.136.032.024-.136" transform="translate(38.035 22.456)" fill="#55425e"/>
          <path id="Trazado_706187" data-name="Trazado 706187" d="M16.954,20.6l-.133-.035.133.035" transform="translate(32.756 40.048)" fill="#55425e"/>
          <path id="Trazado_706188" data-name="Trazado 706188" d="M14.987,20c-.486-.239-.97-.483-1.45-.743q.721.385,1.45.743" transform="translate(26.361 37.499)" fill="#55425e"/>
          <path id="Trazado_706189" data-name="Trazado 706189" d="M14.5,17.884q.389.168.778.327-.389-.159-.778-.327" transform="translate(28.23 34.825)" fill="#55425e"/>
          <path id="Trazado_706190" data-name="Trazado 706190" d="M15.375,20.094c-.121-.047-.239-.094-.36-.144.121.05.239.1.36.144" transform="translate(29.239 38.848)" fill="#55425e"/>
          <path id="Trazado_706191" data-name="Trazado 706191" d="M14.745,19.848c-.209-.1-.421-.2-.631-.3.209.1.421.2.631.3" transform="translate(27.484 38.069)" fill="#55425e"/>
          <path id="Trazado_706192" data-name="Trazado 706192" d="M15.109,20c-.2-.085-.4-.177-.6-.265.2.088.4.18.6.265" transform="translate(28.252 38.426)" fill="#55425e"/>
          <path id="Trazado_706193" data-name="Trazado 706193" d="M24.178,41.722a.84.84,0,0,1-.127-.144l.009.6Z" transform="translate(46.835 80.965)" fill="#af69a5"/>
          <path id="Trazado_706194" data-name="Trazado 706194" d="M42.906,74.1a1.175,1.175,0,0,1,.681-.843l.8-3.106c-.012-.4-.021-.8-.035-1.194-.083-2.346-.15-4.692-.259-7.038s-.2-4.692-.336-7.038-.268-4.689-.424-7.026a1.051,1.051,0,0,0-.062-.336.461.461,0,0,0-.183-.2c-.1-.062-.23-.13-.36-.2l-.389-.2q-.783-.4-1.577-.775-1.587-.743-3.2-1.444c-2.152-.928-4.333-1.807-6.5-2.712s-4.333-1.818-6.49-2.756c2.208.808,4.4,1.65,6.6,2.476,2.193.846,4.389,1.677,6.573,2.555,1.093.442,2.178.9,3.251,1.394.536.245,1.067.5,1.6.76l.395.2a4.6,4.6,0,0,1,.416.224,1.026,1.026,0,0,1,.4.442,1.659,1.659,0,0,1,.115.525c.177,2.349.324,4.692.457,7.041q.314,5.924.424,11.851a1.116,1.116,0,0,1,.657-.707l1.341-5.223a1.039,1.039,0,0,1-.224-1.173,1.167,1.167,0,0,1,.746-.869l1.332-5.19a1.026,1.026,0,0,1-.248-1.194,1.138,1.138,0,0,1,.778-.875l1.975-7.716.716-2.794c-3.407-2.317-10.516-7.029-16.172-10.769-.333-.221-.666-.439-.99-.654a18.656,18.656,0,0,0-1.863.678,18.656,18.656,0,0,1,1.863-.678c-.769-.51-1.5-.993-2.19-1.447a3.606,3.606,0,0,1-2.579,1.48,46.188,46.188,0,0,1-5.582.189c.053-.162.1-.324.153-.483-.053.162-.1.321-.153.483a41.859,41.859,0,0,1-8.444-1.067c-.545-.127-1.091-.271-1.639-.427a15.2,15.2,0,0,1-.875,2.119,66.563,66.563,0,0,1,12.668-.153l-.61,4.141c-.584,3.8-3.16,3.245-5.1,3.525l-.4.059L19.31,41.5q.875.455,1.827.925c3.681,1.816,8.105,3.764,12.037,5.429,2.812,1.188,5.373,2.234,7.23,2.983.062,6.381.265,21.221.881,31.4l1.795-7a1.061,1.061,0,0,1-.174-1.132M26.967,34.058a24.787,24.787,0,0,0-4.335,5.473,24.787,24.787,0,0,1,4.335-5.473m1.267-1.093c-.416.333-.819.678-1.208,1.04.389-.363.793-.707,1.208-1.04m-5.774,6.861c-.1.174-.2.348-.295.525.1-.177.195-.351.295-.525" transform="translate(26.078 54.688)" fill="#af69a5"/>
          <path id="Trazado_706195" data-name="Trazado 706195" d="M23.143,49.378c.029.156.059.309.091.448q.332.137.654.256a16.948,16.948,0,0,0,2.231.657c-1.2-.5-2.175-.946-2.977-1.362" transform="translate(45.067 96.154)" fill="#af69a5"/>
          <path id="Trazado_706196" data-name="Trazado 706196" d="M8.857,51.627c.663-1.205,1.356-2.393,2.063-3.575a33.12,33.12,0,0,1-.448-3.97c-3.366,4.792-6.531,9.812-7.893,13.437.212.312.43.6.648.887a16.574,16.574,0,0,0,3.065,3.083,4.1,4.1,0,0,1,2.768.227,1.653,1.653,0,0,1,.987,1.8,10.058,10.058,0,0,0,3.793.619c.068-.056,1.117-1.432,2.706-3.534A26.122,26.122,0,0,1,10.964,48.3q-1.07,1.653-2.107,3.328" transform="translate(5.022 85.841)" fill="#af69a5"/>
          <path id="Trazado_706197" data-name="Trazado 706197" d="M6.937,73.931c1.138-1.845,2.34-3.646,3.557-5.438s2.464-3.566,3.758-5.305q1.9-2.573,3.864-5.1l.027-4.5c.012-1.53.044-3.059.074-4.592.059-3.059.13-6.122.23-9.184.056-1.53.13-3.059.212-4.589s.18-3.059.345-4.589c.029-.3.074-.592.121-.884a29.658,29.658,0,0,0-3.949,2.063l-.006.065c-.245,4.079.354,18.854.681,26.2-1.58,1.928-6.251,7.722-10.593,13.9a33.188,33.188,0,0,0,.448,3.97q.61-1.017,1.232-2.025" transform="translate(10.237 57.94)" fill="#c67fb9"/>
          <path id="Trazado_706198" data-name="Trazado 706198" d="M16.713,45.083s-2.691.062-5.358-3.068c-3.151,4.359.251,9.714.318,9.818l0,.006,1.509-2.022Z" transform="translate(19.51 81.816)" fill="#af69a5"/>
          <path id="Trazado_706199" data-name="Trazado 706199" d="M29.127,20.893a16.788,16.788,0,0,1-2.93,2.629.308.308,0,0,0-.106.147c-.309,1.836,3.266,3.357,3.734,2.7.021-.032.047-.068.074-.106a32.152,32.152,0,0,1,3.171-4.2,5.107,5.107,0,0,1,2.066-1.344,1.234,1.234,0,0,1,.136-.035s.457-.522-.106-1.9a3.073,3.073,0,0,0-2.314-1.919l-.059.021a28.543,28.543,0,0,0-3.666,4.005" transform="translate(50.771 32.842)" fill="#55425e"/>
          <path id="Trazado_706200" data-name="Trazado 706200" d="M28.023,14c.038-.245.065-.489.083-.722L28,13.325c-1.886.71-5.19.973-9.007-2.977a14.815,14.815,0,0,0,1.592,3.49,8.5,8.5,0,0,0,1.872.961,5.784,5.784,0,0,0,5.567-.8" transform="translate(36.983 20.15)" fill="#473751"/>
          <path id="Trazado_706201" data-name="Trazado 706201" d="M29.733,32.4l-.071.118A14.4,14.4,0,0,1,27.225,35.5a7.448,7.448,0,0,1-3.283,1.824,7.811,7.811,0,0,1-3.64-.083c.029-.457.062-.914.1-1.368.041-.354.085-.71.133-1.064a23.99,23.99,0,0,1,2.243-7.722,18.618,18.618,0,0,0-1.765,4.238c-.215.74-.395,1.485-.554,2.237-.1.46-.189.923-.265,1.391-.047.295-.091.589-.121.884-.165,1.53-.259,3.059-.345,4.589s-.156,3.059-.212,4.592c-.1,3.059-.171,6.122-.23,9.184-.029,1.53-.062,3.059-.074,4.592l-.027,4.495q-1.958,2.529-3.864,5.1c-1.294,1.736-2.532,3.516-3.758,5.3s-2.42,3.593-3.557,5.438q-.623,1.008-1.232,2.025c-.707,1.179-1.4,2.37-2.063,3.575Q5.749,83.053,6.817,81.4q.694-1.074,1.4-2.134c1.208-1.792,2.423-3.581,3.684-5.338s2.552-3.49,3.843-5.223,2.617-3.442,3.952-5.143l.062-.077v-.1l.109-9.178c.038-3.059.088-6.122.168-9.178.035-1.53.065-3.059.118-4.586.035-1.058.08-2.113.144-3.165a6.544,6.544,0,0,0,3.737.513,6.745,6.745,0,0,0,1.936-.657,8.519,8.519,0,0,0,1.665-1.182,12.028,12.028,0,0,0,2.434-3.2c.077-.141.153-.286.227-.43a15.2,15.2,0,0,0,.875-2.119c-.065-.021-.133-.038-.2-.059A25.594,25.594,0,0,1,29.733,32.4" transform="translate(9.172 52.742)" fill="#a35d9d"/>
          <path id="Trazado_706202" data-name="Trazado 706202" d="M36.529,40.44a1.659,1.659,0,0,0-.115-.525,1.064,1.064,0,0,0-.4-.442c-.153-.1-.286-.156-.416-.224l-.395-.2c-.531-.259-1.064-.516-1.6-.76-1.07-.5-2.154-.952-3.248-1.394-2.184-.878-4.383-1.709-6.573-2.555-2.2-.825-4.394-1.668-6.6-2.476,2.154.937,4.327,1.836,6.49,2.756s4.35,1.783,6.5,2.712q1.614.7,3.2,1.444c.531.251,1.052.51,1.574.775l.389.2c.13.068.265.136.36.2a.452.452,0,0,1,.186.2,1.051,1.051,0,0,1,.062.336c.153,2.337.3,4.683.421,7.026s.242,4.692.339,7.038.177,4.692.259,7.038c.012.4.021.8.035,1.194l.43-1.689c0-.2-.006-.4-.009-.6a1.167,1.167,0,0,1-.071-1.011c.015-.053.035-.1.053-.147-.065-3.952-.215-7.9-.421-11.851-.133-2.349-.28-4.692-.457-7.041" transform="translate(33.461 62.052)" fill="#a35d9d"/>
          <path id="Trazado_706203" data-name="Trazado 706203" d="M15.967,27.978c-.271-1.506-.477-3.039-.628-4.583q-1.857-1-3.643-2.163-.486,1.622-.987,3.207a49.678,49.678,0,0,0,5.258,3.54" transform="translate(20.854 41.345)" fill="#e0daef"/>
          <path id="Trazado_706204" data-name="Trazado 706204" d="M29.149,32.859c.436-1.586.861-3.174,1.261-4.772a58.178,58.178,0,0,1-18.132-6.122c.153,1.547.36,3.077.631,4.583a55.932,55.932,0,0,0,16.24,6.31" transform="translate(23.911 42.774)" fill="#fff"/>
          <path id="Trazado_706205" data-name="Trazado 706205" d="M11.336,34.535a29.934,29.934,0,0,0,9.865,4.89l.195.059c.548.156,1.1.3,1.639.427a39.337,39.337,0,0,1-5.164-14.05,49.679,49.679,0,0,1-5.258-3.54c-.846,2.664-1.718,5.211-2.6,7.483a4.1,4.1,0,0,0,.657,4.085,4.209,4.209,0,0,0,.669.645" transform="translate(18.951 43.465)" fill="#ff933b"/>
          <path id="Trazado_706206" data-name="Trazado 706206" d="M26.858,36.259q.411-1.322.8-2.653.557-1.883,1.076-3.776a56.1,56.1,0,0,1-16.24-6.31,39.316,39.316,0,0,0,5.164,14.05A41.91,41.91,0,0,0,26.1,38.638c.053-.162.1-.321.156-.483-.038.1-.074.195-.112.292.23-.734.472-1.459.713-2.187" transform="translate(24.328 45.802)" fill="#ffa757"/>
          <path id="Trazado_706207" data-name="Trazado 706207" d="M14.689,29.241a77.7,77.7,0,0,1-.277-10.389c-.15-.1-.3-.209-.448-.312s-.3-.2-.448-.309c-.763,2.9-1.6,5.909-2.473,8.848q1.786,1.163,3.646,2.163" transform="translate(21.504 35.499)" fill="#ff933b"/>
          <path id="Trazado_706208" data-name="Trazado 706208" d="M32.036,29.116l.106-.454a8.528,8.528,0,0,1-3.6-3.289l-.032-.009c-.413-.091-.822-.189-1.232-.292l-.038-.009c-.413-.1-.819-.212-1.226-.324l-.133-.035c-.085-.027-.174-.047-.259-.074-.749-.212-1.491-.445-2.228-.693l-.159-.053c-.4-.136-.8-.277-1.205-.424l-.109-.041c-.336-.124-.669-.253-1-.386-.121-.047-.239-.094-.36-.144-.3-.121-.6-.245-.893-.374-.2-.085-.4-.174-.6-.265-.18-.08-.357-.159-.533-.242-.212-.1-.421-.195-.631-.295l-.248-.124q-.734-.358-1.45-.743L16.2,20.84c-.248-.13-.492-.265-.737-.4-1.1-.616-2.184-1.279-3.233-2A77.687,77.687,0,0,0,12.5,28.83a58.152,58.152,0,0,0,18.132,6.122q.729-2.9,1.4-5.836" transform="translate(23.692 35.91)" fill="#ffa757"/>
          <path id="Trazado_706209" data-name="Trazado 706209" d="M12.778,21.873c.062-1.736.171-3.463.315-5.175l-.035-.024c-.368,1.477-.763,3.015-1.176,4.586.147.106.3.209.448.309s.3.2.448.3" transform="translate(23.138 32.469)" fill="#e0daef"/>
          <path id="Trazado_706210" data-name="Trazado 706210" d="M16.156,24.265l.012.006c.477.256.964.5,1.45.743.083.038.165.08.251.121.206.1.419.2.628.3.177.083.357.162.533.242.2.088.4.177.6.265.295.127.592.251.893.374l.357.141c.333.133.666.262,1,.386.038.015.074.029.109.041.4.147.8.289,1.205.427l.159.053c.737.248,1.48.48,2.228.693a6.579,6.579,0,0,0-.259-2.992,7.251,7.251,0,0,0-.312-.808,7.784,7.784,0,0,0-1.762-2.432l-.018-.018-.024-.009q-.637-.2-1.264-.424c-.05-.018-.1-.032-.15-.053-.345-.121-.687-.248-1.029-.377l-.38-.147c-.2-.08-.407-.162-.61-.245-.259-.106-.522-.215-.778-.327l-.5-.221c-.289-.13-.575-.262-.861-.4l-.389-.192c-.318-.153-.631-.312-.943-.475l-.283-.15Q15.5,18.52,15,18.232l-.183-.106c-.365-.209-.728-.424-1.085-.648l-.085-.053q-.579-.363-1.147-.743c-.144,1.712-.253,3.44-.315,5.175,1.052.719,2.134,1.385,3.236,2,.245.139.489.271.734.4" transform="translate(23.73 32.484)" fill="#fff"/>
          <path id="Trazado_706211" data-name="Trazado 706211" d="M15.935,18.421l.018.018a7.741,7.741,0,0,1,1.76,2.434,7.225,7.225,0,0,1,.315.8,6.62,6.62,0,0,1,.259,2.992c.085.027.174.047.259.074l.133.035c.407.112.813.221,1.223.324l.041.009c.41.1.819.2,1.232.292l.032.009a2.653,2.653,0,0,1-.439-2.535.229.229,0,0,1,.083-.074c-.869-1.208-1.754-2.452-2.623-3.714-.333-.088-.666-.183-1-.277-.424-.124-.846-.251-1.264-.383l-.029-.009" transform="translate(31.03 35.871)" fill="#cac3e0"/>
          <path id="Trazado_706212" data-name="Trazado 706212" d="M13.463,26.016l.085.053c.36.224.722.439,1.085.648l.183.106c.336.192.675.377,1.017.56.094.047.189.1.283.147.312.165.628.321.943.477l.389.189c.286.136.575.268.864.4l.5.221c.259.112.519.221.778.33l.61.245.38.144c.342.13.684.256,1.029.38l.153.053c.419.147.84.286,1.261.421l.056.018c.419.133.84.259,1.261.383h0c.333.094.663.189,1,.277-2.016-2.915-3.961-5.9-5.523-8.636q-.4-.7-.76-1.368a11.145,11.145,0,0,1-3.746-8.795c-.433,2-1.509,6.873-2.977,12.756-.018.077-.035.15-.056.224l.035.024c.38.256.76.5,1.147.743" transform="translate(23.915 23.893)" fill="#ffa757"/>
          <path id="Trazado_706213" data-name="Trazado 706213" d="M24.043,17.9c1.362,2.632,2.989,5.974,4.648,9.473q.844-4.408,1.683-8.821c-.085-.024-.165-.044-.253-.077a7.079,7.079,0,0,1-3.549-3.012,14.831,14.831,0,0,1-1.594-3.49c-.156-.165-.318-.336-.483-.516a2.384,2.384,0,0,1-.566-1.945L15.917,9.8c5.538-.053,7.463,4.58,8.126,8.1" transform="translate(30.995 18.524)" fill="#ffa757"/>
          <path id="Trazado_706214" data-name="Trazado 706214" d="M27.154,34.172a57.394,57.394,0,0,1-6.962-1.037l.021-.074.9-2.909c.174-.592.339-1.188.5-1.783q3.448.548,6.956.749c.472-1.656.964-3.378,1.468-5.1-.088-.021-.177-.035-.265-.053-3.4-.707-5.093-1.426-5.777-2.1a1.3,1.3,0,0,1-1.482.106c-.035.153-.071.3-.1.454Q21.733,25.364,21,28.272l.147.024-.071.271c-.13.489-.245.981-.386,1.468l-.819,2.924-.029.106-.1-.024q-.522,1.9-1.076,3.778-.389,1.326-.8,2.65v0c-.242.725-.483,1.453-.713,2.187.035-.1.074-.195.109-.292-.05.159-.1.321-.153.48a45.051,45.051,0,0,0,5.585-.189,3.623,3.623,0,0,0,3.136-2.647c.333-1.241.79-2.912,1.323-4.839" transform="translate(33.319 42.593)" fill="#ff933b"/>
          <path id="Trazado_706215" data-name="Trazado 706215" d="M19.58,24.077c-.168.6-.333,1.191-.507,1.783l-.893,2.909-.024.074a57.528,57.528,0,0,0,6.965,1.037c.427-1.547.9-3.263,1.415-5.055q-3.5-.2-6.956-.749" transform="translate(35.355 46.885)" fill="#cac3e0"/>
          <path id="Trazado_706216" data-name="Trazado 706216" d="M18,28.815h0c.035.009.068.015.1.021l.029-.1.819-2.924c.141-.486.256-.981.386-1.471l.071-.271c-.05-.006-.1-.015-.147-.024-.4,1.6-.825,3.186-1.261,4.772" transform="translate(35.057 46.819)" fill="#cac3e0"/>
          <path id="Trazado_706217" data-name="Trazado 706217" d="M21.938,20.929l-.032.012c.374.071.769.147,1.182.233q.309-.977.607-1.889c-.389.009-.778.012-1.167.015.027,1.8-.589,1.63-.589,1.63" transform="translate(42.658 37.551)" fill="#cac3e0"/>
          <path id="Trazado_706218" data-name="Trazado 706218" d="M25.653,12.235c-.018.233-.044.477-.083.722-.268,1.73-1.1,3.569-3.493,2.959,0-.047.009-.091.015-.136l-.024.133c-.044-.012-.088-.018-.136-.032q-.844,4.412-1.683,8.821c.958,2.019,1.928,4.091,2.862,6.107q.314.681.622,1.347l.056.006a3.926,3.926,0,0,1,1.957,3.369c0,.044,0,.083,0,.124.389,0,.778-.006,1.167-.015.669-2.031,1.285-3.776,1.8-5.028.312-.76.6-1.547.872-2.349A46.479,46.479,0,0,0,32.037,14.5v-.027c-.027-1.008-1.653-2.511-2.608-2.838l-2.2-.749a3.35,3.35,0,0,1-1.577,1.35" transform="translate(39.435 21.196)" fill="#ff933b"/>
          <path id="Trazado_706219" data-name="Trazado 706219" d="M20.71,7.543c-.321,1.058-.681,2.255-1.061,3.519a20.766,20.766,0,0,0,3.513,2.057A12.2,12.2,0,0,1,20.71,7.543" transform="translate(38.263 14.688)" fill="#ffd6ca"/>
          <path id="Trazado_706220" data-name="Trazado 706220" d="M26.266,15.055h.021c.189-.813.457-1.692.746-2.546-.584-.209-1.194-.439-1.768-.666a5.585,5.585,0,0,1-3.5-4.471,2.424,2.424,0,0,1-1.276-.36c-.144.477-.3,1-.475,1.568a12.2,12.2,0,0,0,2.452,5.576,8.484,8.484,0,0,0,3.8.9" transform="translate(38.964 13.654)" fill="#eebbb0"/>
          <path id="Trazado_706221" data-name="Trazado 706221" d="M19.221,13.028c.162.18.324.351.483.516,3.817,3.949,7.118,3.687,9.007,2.977l.106-.044a3.356,3.356,0,0,0,1.577-1.353,3.153,3.153,0,0,0,.463-1.536c.032-.976-.324-1.925-1.877-1.833h-.021a8.484,8.484,0,0,1-3.8-.9A20.766,20.766,0,0,1,21.641,8.8l-.015-.012s-2.39-.728-2.959,2.2l-.012.091a2.374,2.374,0,0,0,.566,1.945" transform="translate(36.271 16.954)" fill="#55425e"/>
          <path id="Trazado_706222" data-name="Trazado 706222" d="M17.058,26.245c-1.7-3.148-2.782-5.853-2.706-7.548.327-7.271,8.574-10.484,11.99-5.842a43.9,43.9,0,0,1,2.779,4.857C28.459,14.19,26.537,9.557,21,9.61c-.2,0-.395.009-.6.024-4.875.33-6.988,3.926-7.085,7.816a11.145,11.145,0,0,0,3.746,8.795" transform="translate(25.916 18.713)" fill="#ed9145"/>
          <path id="Trazado_706223" data-name="Trazado 706223" d="M24.339,3.148l.1.469c-.032-.159-.065-.315-.1-.469" transform="translate(47.396 6.13)" fill="#ffd6ca"/>
          <path id="Trazado_706224" data-name="Trazado 706224" d="M30.567,3.127A7.425,7.425,0,0,0,25.7,2.889a9.864,9.864,0,0,0-3.923,1.874,3.147,3.147,0,0,0-1.132,2.829,17.078,17.078,0,0,0,.928,2.523c.021.065.044.13.062.195a1.982,1.982,0,0,1,.085.195s-1.182-3.537.834-4.831a10.652,10.652,0,0,1,9.16-.8l.006.006L31.684,4.7l-.1-.469-.136-.619-.032.006Z" transform="translate(40.153 5.051)" fill="#eebbb0"/>
          <path id="Trazado_706225" data-name="Trazado 706225" d="M25.208,10.847a1.246,1.246,0,0,0,.463-.457.807.807,0,0,0,.024-.716,1.811,1.811,0,0,0-.36-.5,4.768,4.768,0,0,1-.348-.38,2.47,2.47,0,0,1-.227-.43,3.8,3.8,0,0,1-.165-.477c-.041-.162-.083-.33-.109-.5s-.041-.348-.056-.525c-.053-.7-.018-1.429-.027-2.16a8.928,8.928,0,0,0-.36,2.172,5.089,5.089,0,0,0,.012.56A3.765,3.765,0,0,0,24.133,8a2.9,2.9,0,0,0,.477,1.076c.133.165.271.289.392.416a1.377,1.377,0,0,1,.283.365.345.345,0,0,1,0,.33.858.858,0,0,1-.3.295,4.483,4.483,0,0,1-1.989.5,2.354,2.354,0,0,0,2.219-.136" transform="translate(44.767 9.144)" fill="#d8a198"/>
          <path id="Trazado_706226" data-name="Trazado 706226" d="M24.646,4.322a1.365,1.365,0,0,0-.846.525,4.205,4.205,0,0,1,.875.024,2.848,2.848,0,0,1,.728.2,2.786,2.786,0,0,1,.454.256c.065.044.13.083.192.133a4.223,4.223,0,0,1,.619.619,1.357,1.357,0,0,0-.2-.976,1.711,1.711,0,0,0-.654-.607c-.041-.024-.088-.05-.133-.071a1.741,1.741,0,0,0-1.035-.1" transform="translate(46.346 8.345)" fill="#4b3c4f"/>
          <path id="Trazado_706227" data-name="Trazado 706227" d="M21.99,5.9a2.8,2.8,0,0,1,.864-.631,4.716,4.716,0,0,1,1.067-.348,7.265,7.265,0,0,1,1.208-.156,2.287,2.287,0,0,0-1.25-.392,2.807,2.807,0,0,0-1.329.265,2.232,2.232,0,0,0-1.014.952,1.58,1.58,0,0,0-.124,1.323A2.579,2.579,0,0,1,21.99,5.9" transform="translate(41.513 8.51)" fill="#4b3c4f"/>
          <path id="Trazado_706228" data-name="Trazado 706228" d="M21.871,6.777a4.967,4.967,0,0,1,1.152-.946,1.332,1.332,0,0,0,.062.872c.165.371.466.466.669.212a1.208,1.208,0,0,0,.065-1.135.792.792,0,0,0-.147-.23,1.872,1.872,0,0,1,.528-.077c-1.132-.581-1.683.077-2.328,1.3" transform="translate(42.59 10.243)" fill="#4b3c4f"/>
          <path id="Trazado_706229" data-name="Trazado 706229" d="M24.745,5.538a1.118,1.118,0,0,0,.053.737c.141.315.395.395.566.18A1.023,1.023,0,0,0,25.42,5.5a.717.717,0,0,0-.127-.195,1.625,1.625,0,0,1,.445-.065c-.955-.489-1.421.065-1.966,1.1a4.26,4.26,0,0,1,.973-.8" transform="translate(46.292 9.847)" fill="#4b3c4f"/>
          <path id="Trazado_706230" data-name="Trazado 706230" d="M22.233,7.449a4.381,4.381,0,0,0,4.02.622l.08-.622a5.79,5.79,0,0,1-4.1,0" transform="translate(43.295 14.505)" fill="#fff"/>
          <path id="Trazado_706231" data-name="Trazado 706231" d="M22.054,7.712c.177.062.354.118.528.171a5.8,5.8,0,0,0,4.1,0,5.123,5.123,0,0,0,.592-.3,5.662,5.662,0,0,0-.967-.324,1.14,1.14,0,0,0-.8.109l-.242.13-.144-.088a1.133,1.133,0,0,0-.955-.121,4.655,4.655,0,0,1-2.116.427" transform="translate(42.946 14.071)" fill="#d69d94"/>
          <path id="Trazado_706232" data-name="Trazado 706232" d="M21.006,12.424c.174.469.672.875.976,1.48V11.619a7.342,7.342,0,0,0,4.132,3.549,17.2,17.2,0,0,1-.928-2.523,3.141,3.141,0,0,1,1.132-2.829,3.617,3.617,0,0,1,1.6-2.3c2.281-.914,5.476-.457,7.3-2.738,0,.911-.911.911-1.368,1.824A5.185,5.185,0,0,0,37.5,5.23L36.129,6.6a3.471,3.471,0,0,0,3.384-2C38.873,1.7,35.339-1.9,29.226,1.18c-6.561,3.31-8.14,4.335-10.136,6.561a3.886,3.886,0,0,0-.8,2.479,13.21,13.21,0,0,0,3.236,4.595,2.75,2.75,0,0,1-.519-2.39" transform="translate(35.614 -0.002)" fill="#8c6764"/>
          <path id="Trazado_706233" data-name="Trazado 706233" d="M21.233,9.371c1.194-.56,3.333.961,4.226,1.668a2.113,2.113,0,0,0,.8-2.234c-.021-.056-.05-.124-.085-.2-.015-.065-.038-.13-.059-.192a7.357,7.357,0,0,1-4.135-3.549V7.149c-.3-.6-.8-1.008-.973-1.477a2.741,2.741,0,0,0,.519,2.39,13.257,13.257,0,0,1-3.239-4.595A9.72,9.72,0,0,0,20.9,10.253c-.071-.41.021-.734.333-.881" transform="translate(35.612 6.753)" fill="#775452"/>
          <path id="Trazado_706234" data-name="Trazado 706234" d="M30.826,3.557l1.368-1.371a5.183,5.183,0,0,1-3.649,1.371c.454-.914,1.365-.914,1.365-1.824-1.824,2.281-5.016,1.824-7.3,2.738a3.586,3.586,0,0,0-1.6,2.3A9.871,9.871,0,0,1,24.934,4.9a7.435,7.435,0,0,1,4.869.242l.843.483.032,0c.357-.05,3.843-.616,3.628-3.431a4.9,4.9,0,0,0-.1-.625,3.464,3.464,0,0,1-3.381,2" transform="translate(40.921 3.041)" fill="#775452"/>
          <path id="Trazado_706235" data-name="Trazado 706235" d="M23.4,14.922A5.591,5.591,0,0,0,26.9,19.4c.578.224,1.188.454,1.771.663.115.044.23.085.342.124a2.955,2.955,0,0,0,2.841-.5c.1-.083.2-.165.3-.248a8.251,8.251,0,0,0,3.018-6.72c-.059-1.456-.15-2.912-.251-4.362-.018-.259-.032-.525-.047-.79a2.786,2.786,0,0,0-.454-.256,2.848,2.848,0,0,0-.728-.2,4.025,4.025,0,0,0-.875-.021,1.358,1.358,0,0,1,.843-.528,1.748,1.748,0,0,1,1.037.1c.047.021.088.047.136.071a24.165,24.165,0,0,0-.292-2.915,10.629,10.629,0,0,0-9.16.8c-2.013,1.294-.834,4.831-.834,4.831a2.118,2.118,0,0,1-.8,2.234c-.9-.707-3.036-2.228-4.229-1.668-.312.147-.4.472-.333.881a6.591,6.591,0,0,0,2.938,3.661,2.383,2.383,0,0,0,1.276.36M34.708,8.98a1.646,1.646,0,0,0-.448.065.694.694,0,0,1,.127.195,1.023,1.023,0,0,1-.053.958c-.174.215-.427.136-.569-.18a1.137,1.137,0,0,1-.053-.737,4.229,4.229,0,0,0-.973.8c.545-1.037,1.014-1.592,1.969-1.1m-2.287,4.539a.845.845,0,0,0,.307-.295.353.353,0,0,0,0-.33,1.5,1.5,0,0,0-.283-.365,4.991,4.991,0,0,1-.392-.416,2.9,2.9,0,0,1-.477-1.076,3.1,3.1,0,0,1-.077-.569,5.074,5.074,0,0,1-.012-.56,9.069,9.069,0,0,1,.357-2.172c.012.734-.024,1.456.029,2.163.015.174.032.351.056.522s.068.339.109.5a3.932,3.932,0,0,0,.165.475,2.562,2.562,0,0,0,.224.43,4.818,4.818,0,0,0,.348.38,1.816,1.816,0,0,1,.363.5.8.8,0,0,1-.027.716,1.24,1.24,0,0,1-.46.457,2.354,2.354,0,0,1-2.219.136,4.48,4.48,0,0,0,1.986-.5m-1.674,1.857.144.088.242-.13a1.142,1.142,0,0,1,.8-.109,5.574,5.574,0,0,1,.967.324,5.124,5.124,0,0,1-.592.3l-.08.619a4.382,4.382,0,0,1-4.023-.619c-.174-.053-.348-.109-.528-.171a4.7,4.7,0,0,0,2.116-.427,1.133,1.133,0,0,1,.955.121M29.09,9.92a1.215,1.215,0,0,1-.068,1.135c-.2.256-.5.162-.669-.209a1.335,1.335,0,0,1-.062-.872,4.967,4.967,0,0,0-1.152.946c.645-1.226,1.2-1.883,2.328-1.3a1.772,1.772,0,0,0-.528.077.8.8,0,0,1,.15.227M25.724,8a2.225,2.225,0,0,1,1.017-.952,2.829,2.829,0,0,1,1.326-.262,2.3,2.3,0,0,1,1.253.389,7,7,0,0,0-1.211.159,4.712,4.712,0,0,0-1.067.345,2.872,2.872,0,0,0-.864.631A2.637,2.637,0,0,0,25.6,9.319,1.592,1.592,0,0,1,25.724,8m-4.232,4.636a.57.57,0,0,1,.118-.436.714.714,0,0,1,.345-.236.549.549,0,0,1,.1-.021c-.041-.035-.077-.074-.118-.109a9.23,9.23,0,0,0-.813-.648c-.144-.1-.295-.2-.448-.3a.961.961,0,0,0-.489-.2.786.786,0,0,1,.6-.106,2.592,2.592,0,0,1,.578.144,3.161,3.161,0,0,1,1.02.613,3.221,3.221,0,0,1,.734.934,2.484,2.484,0,0,1,.295,1.138c-.259-.3-.489-.578-.731-.837-.05-.056-.1-.109-.156-.165-.047.035-.088.062-.13.088a.994.994,0,0,1-.242.115,1.139,1.139,0,0,1-.265.041c-.1,0-.218,0-.395-.012" transform="translate(37.322 6.101)" fill="#ffd6ca"/>
          <path id="Trazado_706236" data-name="Trazado 706236" d="M21.72,7.583c.041-.027.083-.053.13-.088.053.056.106.106.156.162.242.262.472.539.734.84a2.515,2.515,0,0,0-.3-1.138,3.234,3.234,0,0,0-.734-.937,3.269,3.269,0,0,0-1.02-.613,2.96,2.96,0,0,0-.578-.144.8.8,0,0,0-.6.109,1,1,0,0,1,.492.2c.15.1.3.2.445.3a9.23,9.23,0,0,1,.813.648c.041.032.08.071.118.106a1,1,0,0,0-.1.024.713.713,0,0,0-.345.236.57.57,0,0,0-.118.436,3.23,3.23,0,0,0,.4.009,1,1,0,0,0,.262-.038,1.116,1.116,0,0,0,.242-.115" transform="translate(37.996 11.008)" fill="#d8a198"/>
          <path id="Trazado_706237" data-name="Trazado 706237" d="M7.785,53.513a14.865,14.865,0,0,0-1.627.2c-.451.08-.9.183-1.344.3.127.127.251.248.371.365a5.384,5.384,0,0,0,4.993,1.368l1.365-.327S10.847,54.875,9.9,54c-.18-.171-.371-.354-.566-.545-.539.015-1.049.024-1.553.062" transform="translate(9.374 104.085)" fill="#ed6464"/>
          <path id="Trazado_706238" data-name="Trazado 706238" d="M6.785,51.636c-.572.029-1.129.062-1.68.121a11.229,11.229,0,0,0-1.618.295l-.053.015a9.6,9.6,0,0,0,.678,1.424,3.549,3.549,0,0,1,.545-.333,5.062,5.062,0,0,1,1.765-.477,6.941,6.941,0,0,1,1.8.056c.106.021.215.044.321.071a9.308,9.308,0,0,1-.554-1.167.725.725,0,0,1-.021-.085c-.4.041-.793.059-1.182.083" transform="translate(6.687 100.389)" fill="#ed6464"/>
          <path id="Trazado_706239" data-name="Trazado 706239" d="M7.53,52.874a15.618,15.618,0,0,0-1.627.2,15.274,15.274,0,0,0-1.6.371l-.047.012c.371.442.752.864,1.129,1.258l.015-.009a5.815,5.815,0,0,1,3.493-.616,4.717,4.717,0,0,1,1.341.395c-.5-.5-1.026-1.061-1.536-1.662-.4.009-.787.021-1.17.05" transform="translate(8.292 102.864)" fill="#ed6464"/>
          <path id="Trazado_706240" data-name="Trazado 706240" d="M7.554,52.175c-.554.021-1.123.065-1.671.115a11.262,11.262,0,0,0-1.615.268c-.174.044-.345.1-.516.156a17.3,17.3,0,0,0,1.091,1.533c.068-.041.136-.083.206-.121a5.745,5.745,0,0,1,1.695-.581,5.821,5.821,0,0,1,1.795-.035,5.127,5.127,0,0,1,.816.189,16.961,16.961,0,0,1-1.093-1.524q-.354-.013-.707,0" transform="translate(7.306 101.588)" fill="#ed6464"/>
          <path id="Trazado_706241" data-name="Trazado 706241" d="M7.661,50.315a4.106,4.106,0,0,0-2.77-.227c-1.058.365-1.807,1.45-1.536,3.776a5.447,5.447,0,0,0,.118.628c.012.038.021.077.029.115L3.52,54.6a5.135,5.135,0,0,1,1.76-.507,6.809,6.809,0,0,1,1.8.05,7.256,7.256,0,0,1,1.149.277c.062-.551.377-1.459.416-2.3a1.654,1.654,0,0,0-.984-1.8" transform="translate(6.424 97.241)" fill="#ed6464"/>
          <path id="Trazado_706242" data-name="Trazado 706242" d="M8.3,52.014a6.938,6.938,0,0,0-1.8-.059,5.131,5.131,0,0,0-1.765.48,3.416,3.416,0,0,0-.542.33,2.868,2.868,0,0,0-.554.531,2.45,2.45,0,0,0-.242.365c.133-.071.262-.139.392-.2a6.422,6.422,0,0,1,.657-.268c.171-.059.342-.115.516-.156a10.969,10.969,0,0,1,1.618-.268c.548-.05,1.117-.094,1.671-.115.236-.009.469-.009.707,0a6.509,6.509,0,0,1,.987.106,2.953,2.953,0,0,0-1.323-.675c-.109-.029-.218-.053-.324-.071" transform="translate(6.611 101.11)" fill="#fff"/>
          <path id="Trazado_706243" data-name="Trazado 706243" d="M8.6,52.66a5.816,5.816,0,0,0-3.493.616c-.071.035-.136.08-.2.121a4.494,4.494,0,0,0-.8.589,3.56,3.56,0,0,0-.383.4c.183-.059.357-.118.531-.177.357-.118.7-.23,1.052-.33l.047-.012A15.48,15.48,0,0,1,8.577,53.3c.383-.029.769-.041,1.17-.05.177-.006.354-.009.536-.015a4.017,4.017,0,0,0-.867-.389A5.461,5.461,0,0,0,8.6,52.66" transform="translate(7.244 102.439)" fill="#fff"/>
          <path id="Trazado_706244" data-name="Trazado 706244" d="M9.056,53.291a5.751,5.751,0,0,0-1.8.035,5.662,5.662,0,0,0-1.695.581l-.015.006a4.767,4.767,0,0,0-1,.71,4.005,4.005,0,0,0-.374.4l.619-.206c.345-.112.678-.218,1.011-.312.083-.027.171-.044.253-.068.445-.118.893-.224,1.341-.3a15.682,15.682,0,0,1,1.63-.2c.5-.038,1.017-.047,1.553-.062.05,0,.1,0,.153,0a2.649,2.649,0,0,0-.339-.18,4.717,4.717,0,0,0-1.341-.395" transform="translate(8.13 103.668)" fill="#fff"/>
          <path id="Trazado_706245" data-name="Trazado 706245" d="M7.849,51.422a6.831,6.831,0,0,0-1.8-.05,5.135,5.135,0,0,0-1.76.507l-.015.009a3.734,3.734,0,0,0-1.005.728,2.613,2.613,0,0,0-.36.445c.18-.083.36-.156.536-.227a9.182,9.182,0,0,1,1.02-.339l.053-.018a11.61,11.61,0,0,1,1.621-.295c.548-.059,1.108-.091,1.677-.121.389-.021.784-.041,1.185-.083.189-.018.377-.041.569-.071-.189-.08-.377-.147-.569-.209a7.334,7.334,0,0,0-1.149-.277" transform="translate(5.659 99.963)" fill="#fff"/>
          <path id="Trazado_706246" data-name="Trazado 706246" d="M29.681,21.62l-.047-.056a.477.477,0,0,0-.065,0,.551.551,0,0,0-.118.012.862.862,0,0,0-.386.174l.616-.13" transform="translate(56.599 41.988)" fill="#d65454"/>
          <path id="Trazado_706247" data-name="Trazado 706247" d="M28.936,20.306c-.363-.08-.716-.156-1.058-.227-.413-.085-.8-.165-1.179-.233-5.7,2.187-7.209,5.933-7.209,5.933l-.044.041c.687.666,2.373,1.388,5.78,2.1.088.018.177.032.262.05.928.189,1.863.36,2.794.51,2.591.416,5.17.69,7.592.869-4.117-1.515-7.628-4.778-6.938-9.039" transform="translate(37.867 38.646)" fill="#eebbb0"/>
          <path id="Trazado_706248" data-name="Trazado 706248" d="M34.071,23.166c.9.5,1.306,0,1.306,0l-1.468-.628-.009-.006s-.209.451.171.637" transform="translate(65.902 43.87)" fill="#d89b8b"/>
          <path id="Trazado_706249" data-name="Trazado 706249" d="M34.655,22.1c-.245-.071-.813-.233-1.524-.43Z" transform="translate(64.516 42.188)" fill="#ffd6ca"/>
          <path id="Trazado_706250" data-name="Trazado 706250" d="M33.4,22.28c.955.38,1.273-.183,1.273-.183l-1.524-.43-.006,0s-.141.483.256.616" transform="translate(64.496 42.186)" fill="#d89b8b"/>
          <path id="Trazado_706251" data-name="Trazado 706251" d="M34.048,23.654c.7.386,1.09.18,1.238.062a.468.468,0,0,0,.068-.065l-1.477-.634,0,.006c-.018.044-.186.457.174.631" transform="translate(65.857 44.821)" fill="#d89b8b"/>
          <path id="Trazado_706252" data-name="Trazado 706252" d="M52.977,30.621c-.5-.268-.973-.566-1.441-.878-.239-.162-.477-.327-.716-.492s-.451-.324-.672-.492c-.483-.112-.967-.233-1.447-.371s-.984-.289-1.468-.475c.516.035,1.026.109,1.53.192s1.011.18,1.512.289l.035.006.035.027c.23.162.451.336.675.5.2.029.445.08.713.144,1.176.28,2.85.822,3.991,1.055,1.55.318,1.81-.309,1.81-.309l-.469-.236c-.147.118-.542.327-1.238-.062-.36-.174-.192-.584-.174-.631-.339-.165-.7-.339-1.073-.516.345.071.672.133.964.177,1.556.23,1.78-.416,1.78-.416s-.675-.295-1.592-.684l1.468.631s-.4.5-1.306,0c-.38-.186-.171-.637-.171-.637-.283-.121-.587-.251-.9-.38-.872-.242-1.727-.531-2.573-.84-.466-.174-.931-.345-1.394-.533s-.9-.365-1.341-.557c-.71.085-1.424.159-2.143.192.71-.2,1.424-.365,2.14-.51l.038-.009.044.018c.472.162.937.33,1.4.51s.925.363,1.385.551c.08.032.156.065.236.1.333.021.645.038.925.041,1.556.018,1.68-.66,1.68-.66l-.127-.038s-.318.563-1.276.183c-.395-.136-.253-.616-.253-.616-1.488-.413-3.584-.976-4.568-1.147a16.1,16.1,0,0,0-3.849.348c-1.064.18-2.131.389-2.944.557l-.616.127-.752.165c-4.17-1.258-12.4-3.678-18.111-4.949-.69,4.262,2.821,7.524,6.941,9.039,4.666.345,8.754.333,11.217.271.192-.006.374-.009.545-.015.43.268,1.621.731,4.789.84.672.024,1.429.029,2.287.015,1.023.268,3.6,1.845,5.234,2.573s2.084.13,2.084.13l-.439-.351c-.519-.416-1.441-1.141-2.405-1.883m-.251-3.142c.327.144.648.3.967.469-.354-.071-.7-.159-1.043-.256s-.684-.2-1.023-.307c-.669-.212-1.329-.451-1.984-.7-.392,0-.784-.009-1.176-.027s-.808-.047-1.214-.094c.4-.068.8-.115,1.208-.153s.808-.068,1.211-.088l.029,0,.038.015c.672.224,1.344.463,2,.731.333.133.66.271.984.419M40.819,24.974c.13.271.245.507.365.734s.236.442.368.651.259.419.413.625c.068.112.153.209.227.33a4.128,4.128,0,0,1,.233.365,1.854,1.854,0,0,1-.819-.33,2.223,2.223,0,0,1-.911-1.494,1.513,1.513,0,0,1,.124-.881m14.616,7.583s-.592.407-1.435-.389c-.36-.307.009-.71.009-.71Z" transform="translate(44.078 38.95)" fill="#ffd6ca"/>
          <path id="Trazado_706253" data-name="Trazado 706253" d="M33.389,23.889s-.368.407-.006.713c.84.8,1.432.386,1.432.386Z" transform="translate(64.697 46.519)" fill="#d89b8b"/>
          <path id="Trazado_706254" data-name="Trazado 706254" d="M34.65,22.162c-.463-.18-.931-.348-1.4-.513l-.047-.015-.038.009c-.716.144-1.429.307-2.137.51.719-.032,1.429-.106,2.14-.192.445.192.893.38,1.344.557s.925.36,1.391.533c.846.309,1.7.6,2.576.84l.268.074c-.808-.427-1.639-.8-2.476-1.152-.077-.035-.156-.068-.236-.1-.46-.189-.92-.377-1.385-.551" transform="translate(60.421 42.128)" fill="#eebbb0"/>
          <path id="Trazado_706255" data-name="Trazado 706255" d="M33.437,22.145l-.029,0c-.4.021-.808.047-1.211.085s-.8.085-1.208.153c.407.05.811.077,1.214.1s.784.024,1.176.027c.654.251,1.314.492,1.984.7.339.109.678.212,1.023.307s.69.183,1.043.253c-.318-.171-.64-.324-.967-.469s-.651-.286-.984-.416c-.657-.268-1.329-.507-2-.734Z" transform="translate(60.343 43.123)" fill="#eebbb0"/>
          <path id="Trazado_706256" data-name="Trazado 706256" d="M34.1,23.2l-.035-.027-.038-.006c-.5-.109-1-.209-1.509-.289s-1.017-.156-1.533-.192c.483.186.976.336,1.468.477s.964.256,1.45.368c.218.168.448.327.672.492s.475.33.716.492c.466.312.943.61,1.441.878l.053.029c-.416-.413-.858-.793-1.306-1.161-.224-.186-.454-.365-.684-.542l-.024-.018c-.224-.168-.442-.342-.672-.5" transform="translate(60.33 44.176)" fill="#eebbb0"/>
          <path id="Trazado_706257" data-name="Trazado 706257" d="M27.9,26.062c2.7-1.562,5.727-3.322,6.369-3.319q-.309-.668-.622-1.344a8.558,8.558,0,0,1-4.748.607,27.328,27.328,0,0,1-14.065-6.29c1.562,2.735,3.507,5.724,5.523,8.639.869,1.261,1.751,2.505,2.623,3.714A27.183,27.183,0,0,0,27.9,26.062" transform="translate(28.896 30.605)" fill="#473751"/>
          <path id="Trazado_706258" data-name="Trazado 706258" d="M31.2,33.19a8.586,8.586,0,0,0,4.748-.61c-.934-2.016-1.9-4.088-2.862-6.107-1.659-3.5-3.286-6.841-4.651-9.473a43.416,43.416,0,0,0-2.779-4.857c-3.416-4.642-11.663-1.429-11.99,5.842-.077,1.7,1.005,4.4,2.706,7.548q.363.672.763,1.368A27.352,27.352,0,0,0,31.2,33.19" transform="translate(26.602 19.425)" fill="#55425e"/>
          <path id="Trazado_706259" data-name="Trazado 706259" d="M22.694,21.42a27.183,27.183,0,0,1-4.919,2.007.229.229,0,0,0-.083.074,2.65,2.65,0,0,0,.436,2.535l-.029-.009.032.009a8.522,8.522,0,0,0,3.593,3.289c-.035.15-.071.3-.106.454.035-.153.071-.3.106-.454a1.315,1.315,0,0,0,1.482-.106l.041-.041s1.512-3.746,7.209-5.933l.032-.012s.616.168.587-1.633v-.121a3.932,3.932,0,0,0-1.957-3.372l-.056-.006c-.643,0-3.669,1.757-6.369,3.319" transform="translate(34.106 35.248)" fill="#55425e"/>
          <path id="Trazado_706260" data-name="Trazado 706260" d="M29.076,23.413a2.22,2.22,0,0,0,.61.651,1.843,1.843,0,0,0,.816.33,3.547,3.547,0,0,0-.233-.365c-.071-.118-.156-.218-.224-.33-.153-.206-.28-.421-.416-.625s-.248-.424-.365-.651-.236-.463-.365-.734a1.49,1.49,0,0,0-.124.881,2.178,2.178,0,0,0,.3.843" transform="translate(56.001 42.235)" fill="#eebbb0"/>
        </g>
      </g>
    </g>
  </g>
</svg>
