<svg xmlns="http://www.w3.org/2000/svg" xmlns:xlink="http://www.w3.org/1999/xlink" width="894.305" height="617.789" viewBox="0 0 894.305 617.789">
  <defs>
    <clipPath id="clip-path">
      <rect id="Rectángulo_346141" data-name="Rectángulo 346141" width="894.305" height="615.789" fill="none"/>
    </clipPath>
    <clipPath id="clip-path-2">
      <path id="Trazado_707277" data-name="Trazado 707277" d="M0,0H894.305V615.789H0Z" fill="none"/>
    </clipPath>
  </defs>
  <g id="Grupo_999943" data-name="Grupo 999943" transform="translate(0 2.001)">
    <g id="Grupo_999934" data-name="Grupo 999934" transform="translate(0 -0.001)">
      <g id="Grupo_999933" data-name="Grupo 999933" clip-path="url(#clip-path)">
        <path id="Trazado_707120" data-name="Trazado 707120" d="M169.249,326.3a38.862,38.862,0,0,0-17.409,1.564c12.57-72.369,34.417-171.894,85.43-259.347.143-.254,14.61-25.429,33.1-24.39,14.567.808,29.411,17.976,42.935,49.654,1.548,4.219,37.536,102.711,69.181,222.254C320.628,336.6,174.152,326.641,169.249,326.3" transform="translate(62.636 18.19)" fill="rgba(240,166,255,0.5)"/>
        <path id="Trazado_707121" data-name="Trazado 707121" d="M102.761,382.725h354.07S413.3,294,406.608,242.939c0,0-161.549,24.274-226.838,6.7,0,0-15.067-1.674-16.741,33.481,0,0,12.556,77.846-60.268,99.609" transform="translate(42.39 100.217)" fill="#ffedd7"/>
        <path id="Trazado_707122" data-name="Trazado 707122" d="M26.909,160.568s34.318,173.269,95.424,181.639c0,0,46.874,2.51,64.451-30.971,0,0,2.511,59.43-14.23,77.845,0,0-28.459,33.481-145.646,24.274Z" transform="translate(11.1 66.238)" fill="#e4e2f5"/>
        <path id="Trazado_707123" data-name="Trazado 707123" d="M489.466,443.117H384s-34.318,1.674-39.34-32.645l-26.785-99.609s16.74-8.371,30.133-36.83c0,0,40.177-97.934,51.9-152.342,0,0,14.23-39.34,42.689-42.689,0,0,37.667-15.066,46.874,92.075Z" transform="translate(131.126 32.291)" fill="rgba(207,183,255,0.3)"/>
        <path id="Trazado_707124" data-name="Trazado 707124" d="M26.909,4.42V477.769H627.07" transform="translate(11.1 1.825)" fill="none" stroke="#000" stroke-miterlimit="10" stroke-width="3"/>
        <path id="Trazado_707125" data-name="Trazado 707125" d="M19.465,18.723,30.643,2.753l9.581,15.97" transform="translate(8.029 1.137)" fill="none" stroke="#000" stroke-miterlimit="10" stroke-width="3"/>
        <path id="Trazado_707126" data-name="Trazado 707126" d="M443.321,331.832l15.97,11.179-15.97,9.581" transform="translate(182.875 136.886)" fill="none" stroke="#000" stroke-miterlimit="10" stroke-width="3"/>
      </g>
    </g>
    <path id="Trazado_707278" data-name="Trazado 707278" d="M6.288-15.864c-3.168,0-5.424,2.88-5.424,8.112C.912-2.592,2.976.264,6.024.264c3.456,0,5.424-2.928,5.424-8.232C11.448-12.936,9.576-15.864,6.288-15.864Zm-.12,1.632c2.184,0,3.168,2.52,3.168,6.36,0,3.984-1.032,6.5-3.192,6.5-1.92,0-3.168-2.3-3.168-6.36C2.976-11.976,4.32-14.232,6.168-14.232Z" transform="translate(32.15 503.926)"/>
    <path id="Trazado_707279" data-name="Trazado 707279" d="M9.6,0V-4.248h2.184V-5.9H9.6v-9.7H7.32L.36-5.64v1.392H7.608V0ZM2.5-5.9v-.048l3.816-5.3c.432-.72.816-1.392,1.3-2.3H7.68q-.072,1.224-.072,2.448V-5.9Z" transform="translate(127.572 503.926)"/>
    <path id="Trazado_707280" data-name="Trazado 707280" d="M6.12.264c2.976,0,5.3-1.824,5.3-4.536,0-1.9-1.2-3.264-3.144-4.032v-.072a3.963,3.963,0,0,0,2.568-3.648c0-1.944-1.512-3.84-4.536-3.84-2.736,0-4.824,1.68-4.824,4.152a3.864,3.864,0,0,0,2.472,3.5l.024.072A4.457,4.457,0,0,0,.888-3.96C.888-1.68,2.856.264,6.12.264Zm.048-1.536a2.885,2.885,0,0,1-3.12-2.976c0-1.488.984-2.688,2.808-3.216,2.112.6,3.432,1.512,3.432,3.408A2.823,2.823,0,0,1,6.168-1.272Zm.024-13.08a2.425,2.425,0,0,1,2.64,2.544A3.074,3.074,0,0,1,6.456-8.976c-1.8-.48-2.976-1.32-2.976-2.88A2.481,2.481,0,0,1,6.192-14.352Z" transform="translate(222.993 503.926)"/>
    <path id="Trazado_707281" data-name="Trazado 707281" d="M5.9,0H8.025V-16.25H6.15L2.6-14.35l.425,1.675L5.85-14.2H5.9ZM24.325,0V-1.825h-7.3v-.05l1.3-1.2c3.425-3.3,5.6-5.725,5.6-8.725a4.572,4.572,0,0,0-4.975-4.725,7.13,7.13,0,0,0-4.6,1.65l.7,1.55A5.534,5.534,0,0,1,18.5-14.7a2.9,2.9,0,0,1,3.225,3.175c-.025,2.45-1.9,4.55-6.05,8.5L13.95-1.35V0Z" transform="translate(318.415 504.926)"/>
    <path id="Trazado_707282" data-name="Trazado 707282" d="M5.9,0H8.025V-16.25H6.15L2.6-14.35l.425,1.675L5.85-14.2H5.9ZM23.225-16.5a10.563,10.563,0,0,0-1.6.125,8.846,8.846,0,0,0-5.2,2.4,10.217,10.217,0,0,0-2.75,7.325c0,4.225,2.275,6.925,5.75,6.925a5.434,5.434,0,0,0,5.4-5.725c0-3.175-2.025-5.25-4.9-5.25A4.842,4.842,0,0,0,16-8.825h-.075a6.6,6.6,0,0,1,5.65-5.775,7.944,7.944,0,0,1,1.65-.1Zm-3.8,15.075c-2.3,0-3.525-1.975-3.575-4.65a1.873,1.873,0,0,1,.25-.975,3.62,3.62,0,0,1,3.15-2c2.025,0,3.35,1.4,3.35,3.725S21.325-1.425,19.425-1.425Z" transform="translate(413.836 504.926)"/>
    <path id="Trazado_707283" data-name="Trazado 707283" d="M11.5,0V-1.825H4.2v-.05l1.3-1.2c3.425-3.3,5.6-5.725,5.6-8.725a4.572,4.572,0,0,0-4.975-4.725,7.13,7.13,0,0,0-4.6,1.65l.7,1.55A5.534,5.534,0,0,1,5.675-14.7,2.9,2.9,0,0,1,8.9-11.525c-.025,2.45-1.9,4.55-6.05,8.5L1.125-1.35V0Zm7.875-16.525c-3.3,0-5.65,3-5.65,8.45.05,5.375,2.2,8.35,5.375,8.35,3.6,0,5.65-3.05,5.65-8.575C24.75-13.475,22.8-16.525,19.375-16.525Zm-.125,1.7c2.275,0,3.3,2.625,3.3,6.625,0,4.15-1.075,6.775-3.325,6.775-2,0-3.3-2.4-3.3-6.625C15.925-12.475,17.325-14.825,19.25-14.825Z" transform="translate(509.258 504.926)"/>
    <path id="Trazado_707284" data-name="Trazado 707284" d="M11.5,0V-1.825H4.2v-.05l1.3-1.2c3.425-3.3,5.6-5.725,5.6-8.725a4.572,4.572,0,0,0-4.975-4.725,7.13,7.13,0,0,0-4.6,1.65l.7,1.55A5.534,5.534,0,0,1,5.675-14.7,2.9,2.9,0,0,1,8.9-11.525c-.025,2.45-1.9,4.55-6.05,8.5L1.125-1.35V0ZM22.825,0V-4.425H25.1V-6.15H22.825v-10.1H20.45L13.2-5.875v1.45h7.55V0Zm-7.4-6.15V-6.2L19.4-11.725c.45-.75.85-1.45,1.35-2.4h.075q-.075,1.275-.075,2.55V-6.15Z" transform="translate(595.007 504.926)"/>
    <g id="Grupo_999936" data-name="Grupo 999936" transform="translate(0 -0.001)">
      <g id="Enmascarar_grupo_999020" data-name="Enmascarar grupo 999020" clip-path="url(#clip-path-2)">
        <path id="Trazado_707240" data-name="Trazado 707240" d="M0,0V.706" transform="translate(133.433 22.567)" fill="none" stroke="#000" stroke-width="1"/>
        <path id="Trazado_707241" data-name="Trazado 707241" d="M0,0V452.212" transform="translate(133.433 26.1)" fill="none" stroke="#000" stroke-width="1" stroke-dasharray="1 2.001"/>
        <path id="Trazado_707242" data-name="Trazado 707242" d="M0,0V.706" transform="translate(133.433 479.724)" fill="none" stroke="#000" stroke-width="1"/>
        <path id="Trazado_707243" data-name="Trazado 707243" d="M.706,0H0" transform="translate(617.375 22.149)" fill="none" stroke="#000" stroke-width="1"/>
        <path id="Trazado_707244" data-name="Trazado 707244" d="M575.671,0H0" transform="translate(38.875 22.149)" fill="none" stroke="#000" stroke-width="1" stroke-dasharray="1.001 2.003"/>
        <path id="Trazado_707245" data-name="Trazado 707245" d="M.706,0H0" transform="translate(36.754 22.149)" fill="none" stroke="#000" stroke-width="1"/>
        <path id="Trazado_707246" data-name="Trazado 707246" d="M.706,0H0" transform="translate(617.375 112.55)" fill="none" stroke="#000" stroke-width="1"/>
        <path id="Trazado_707247" data-name="Trazado 707247" d="M575.671,0H0" transform="translate(38.875 112.55)" fill="none" stroke="#000" stroke-width="1" stroke-dasharray="1.001 2.003"/>
        <path id="Trazado_707248" data-name="Trazado 707248" d="M.706,0H0" transform="translate(36.754 112.55)" fill="none" stroke="#000" stroke-width="1"/>
        <path id="Trazado_707249" data-name="Trazado 707249" d="M.706,0H0" transform="translate(617.375 207.973)" fill="none" stroke="#000" stroke-width="1"/>
        <path id="Trazado_707250" data-name="Trazado 707250" d="M575.671,0H0" transform="translate(38.875 207.973)" fill="none" stroke="#000" stroke-width="1" stroke-dasharray="1.001 2.003"/>
        <path id="Trazado_707251" data-name="Trazado 707251" d="M.706,0H0" transform="translate(36.754 207.973)" fill="none" stroke="#000" stroke-width="1"/>
        <path id="Trazado_707252" data-name="Trazado 707252" d="M.706,0H0" transform="translate(617.375 296.699)" fill="none" stroke="#000" stroke-width="1"/>
        <path id="Trazado_707253" data-name="Trazado 707253" d="M575.671,0H0" transform="translate(38.875 296.699)" fill="none" stroke="#000" stroke-width="1" stroke-dasharray="1.001 2.003"/>
        <path id="Trazado_707254" data-name="Trazado 707254" d="M.706,0H0" transform="translate(36.754 296.699)" fill="none" stroke="#000" stroke-width="1"/>
        <path id="Trazado_707255" data-name="Trazado 707255" d="M.706,0H0" transform="translate(619.049 388.774)" fill="none" stroke="#000" stroke-width="1"/>
        <path id="Trazado_707256" data-name="Trazado 707256" d="M575.671,0H0" transform="translate(40.549 388.774)" fill="none" stroke="#000" stroke-width="1" stroke-dasharray="1.001 2.003"/>
        <path id="Trazado_707257" data-name="Trazado 707257" d="M.706,0H0" transform="translate(38.428 388.774)" fill="none" stroke="#000" stroke-width="1"/>
        <path id="Trazado_707258" data-name="Trazado 707258" d="M0,0V.706" transform="translate(230.53 22.567)" fill="none" stroke="#000" stroke-width="1"/>
        <path id="Trazado_707259" data-name="Trazado 707259" d="M0,0V452.212" transform="translate(230.53 26.1)" fill="none" stroke="#000" stroke-width="1" stroke-dasharray="1 2.001"/>
        <path id="Trazado_707260" data-name="Trazado 707260" d="M0,0V.706" transform="translate(230.53 479.724)" fill="none" stroke="#000" stroke-width="1"/>
        <path id="Trazado_707261" data-name="Trazado 707261" d="M0,0V.706" transform="translate(327.627 22.567)" fill="none" stroke="#000" stroke-width="1"/>
        <path id="Trazado_707262" data-name="Trazado 707262" d="M0,0V452.212" transform="translate(327.627 26.1)" fill="none" stroke="#000" stroke-width="1" stroke-dasharray="1 2.001"/>
        <path id="Trazado_707263" data-name="Trazado 707263" d="M0,0V.706" transform="translate(327.627 479.724)" fill="none" stroke="#000" stroke-width="1"/>
        <path id="Trazado_707264" data-name="Trazado 707264" d="M0,0V.706" transform="translate(424.724 22.567)" fill="none" stroke="#000" stroke-width="1"/>
        <path id="Trazado_707265" data-name="Trazado 707265" d="M0,0V452.212" transform="translate(424.724 26.1)" fill="none" stroke="#000" stroke-width="1" stroke-dasharray="1 2.001"/>
        <path id="Trazado_707266" data-name="Trazado 707266" d="M0,0V.706" transform="translate(424.724 479.724)" fill="none" stroke="#000" stroke-width="1"/>
        <path id="Trazado_707267" data-name="Trazado 707267" d="M0,0V.706" transform="translate(521.821 22.567)" fill="none" stroke="#000" stroke-width="1"/>
        <path id="Trazado_707268" data-name="Trazado 707268" d="M0,0V452.212" transform="translate(521.821 26.1)" fill="none" stroke="#000" stroke-width="1" stroke-dasharray="1 2.001"/>
        <path id="Trazado_707269" data-name="Trazado 707269" d="M0,0V.706" transform="translate(521.821 479.724)" fill="none" stroke="#000" stroke-width="1"/>
        <path id="Trazado_707270" data-name="Trazado 707270" d="M0,0V.706" transform="translate(618.918 22.567)" fill="none" stroke="#000" stroke-width="1"/>
        <path id="Trazado_707271" data-name="Trazado 707271" d="M0,0V452.212" transform="translate(618.918 26.1)" fill="none" stroke="#000" stroke-width="1" stroke-dasharray="1 2.001"/>
        <path id="Trazado_707272" data-name="Trazado 707272" d="M0,0V.706" transform="translate(618.918 479.724)" fill="none" stroke="#000" stroke-width="1"/>
        <path id="Trazado_707273" data-name="Trazado 707273" d="M267.855,0H0" transform="translate(380.36 428.534)" fill="none" stroke="#000" stroke-width="2"/>
        <path id="Trazado_707127" data-name="Trazado 707127" d="M266.981,301.967l6.53-3.959c.082,3.805.247,11.464.328,15.269l-13.388-7.351Z" transform="translate(107.439 122.933)"/>
        <path id="Trazado_707274" data-name="Trazado 707274" d="M291.291,0H0" transform="translate(360.272 212.576)" fill="none" stroke="#000" stroke-width="2"/>
        <path id="Trazado_707128" data-name="Trazado 707128" d="M252.759,149.078l6.53-3.959c.082,3.805.247,11.464.328,15.269l-13.388-7.351Z" transform="translate(101.572 59.865)"/>
        <path id="Trazado_707275" data-name="Trazado 707275" d="M80.356,0H0" transform="translate(569.532 325.577)" fill="none" stroke="#000" stroke-width="2"/>
        <path id="Trazado_707129" data-name="Trazado 707129" d="M400.907,229.078l6.53-3.959c.082,3.805.246,11.464.328,15.269l-13.388-7.351Z" transform="translate(162.685 92.866)"/>
        <path id="Trazado_707276" data-name="Trazado 707276" d="M8.925-8.148h-5.5v-4.473H9.24v-1.533H1.6V0H9.555V-1.533H3.423v-5.1h5.5ZM11.865,0h1.848V-6.111a2.657,2.657,0,0,1,.126-.861,2.626,2.626,0,0,1,2.478-1.89c1.743,0,2.352,1.365,2.352,3V0h1.848V-6.069c0-3.486-2.184-4.326-3.591-4.326a3.738,3.738,0,0,0-3.36,1.911h-.042l-.105-1.68H11.781c.063.84.084,1.7.084,2.751ZM31.689-4.746a6.97,6.97,0,0,0,.063-.861c0-1.869-.882-4.788-4.2-4.788-2.961,0-4.767,2.415-4.767,5.481S24.654.21,27.783.21a8.232,8.232,0,0,0,3.381-.63l-.315-1.323a6.683,6.683,0,0,1-2.814.525,3.256,3.256,0,0,1-3.486-3.528ZM24.57-6.069c.147-1.281.966-3,2.835-3,2.079,0,2.583,1.827,2.562,3ZM34.041,0h1.827V-5.418a5.2,5.2,0,0,1,.084-.861A2.592,2.592,0,0,1,38.43-8.652a2.776,2.776,0,0,1,.63.063v-1.743a2,2,0,0,0-.525-.063,3.049,3.049,0,0,0-2.814,2.226h-.084l-.063-1.995H33.957c.063.945.084,1.974.084,3.171ZM47.733-10.164l-.084,1.533h-.042A3.381,3.381,0,0,0,44.436-10.4c-2.331,0-4.578,1.953-4.578,5.4,0,2.814,1.806,4.956,4.326,4.956a3.628,3.628,0,0,0,3.234-1.7h.042V-.609c0,2.562-1.386,3.549-3.276,3.549a5.731,5.731,0,0,1-2.982-.8L40.74,3.549a6.56,6.56,0,0,0,3.381.84,5.388,5.388,0,0,0,3.7-1.218c.987-.882,1.449-2.31,1.449-4.641v-5.9c0-1.239.042-2.058.084-2.793Zm-.294,5.838a3.215,3.215,0,0,1-.147.987,2.7,2.7,0,0,1-2.562,1.89c-1.995,0-3-1.659-3-3.654,0-2.352,1.26-3.843,3.024-3.843a2.662,2.662,0,0,1,2.583,1.953,2.632,2.632,0,0,1,.1.84ZM53.949,0V-10.164H52.1V0Zm-.126-14.553-1.848,3H53.3l2.562-3ZM64.323,0a14.311,14.311,0,0,1-.168-2.436v-3.8c0-2.037-.756-4.158-3.864-4.158a6.308,6.308,0,0,0-3.339.9l.42,1.218a5.064,5.064,0,0,1,2.646-.756,2.1,2.1,0,0,1,2.31,2.352v.21c-3.927-.021-6.111,1.323-6.111,3.78A2.9,2.9,0,0,0,59.325.231a3.786,3.786,0,0,0,3.108-1.512H62.5L62.643,0ZM62.37-3.423a1.929,1.929,0,0,1-.1.588,2.529,2.529,0,0,1-2.457,1.7A1.635,1.635,0,0,1,58.065-2.9c0-1.974,2.289-2.331,4.305-2.289Z" transform="translate(18.02 291.073) rotate(-89.32)"/>
      </g>
    </g>
    <path id="Trazado_707285" data-name="Trazado 707285" d="M1.6-14.154V0H3.423V-6.636h6.846V0h1.848V-14.154H10.269v5.922H3.423v-5.922ZM19.53-10.4c-2.814,0-5.04,1.995-5.04,5.4,0,3.213,2.121,5.229,4.872,5.229,2.457,0,5.061-1.638,5.061-5.4C24.423-8.274,22.449-10.4,19.53-10.4Zm-.042,1.386c2.184,0,3.045,2.184,3.045,3.906,0,2.289-1.323,3.948-3.087,3.948-1.806,0-3.087-1.68-3.087-3.906C16.359-6.993,17.3-9.009,19.488-9.009ZM26.754,0h1.827V-5.418a5.2,5.2,0,0,1,.084-.861,2.592,2.592,0,0,1,2.478-2.373,2.776,2.776,0,0,1,.63.063v-1.743a2,2,0,0,0-.525-.063,3.049,3.049,0,0,0-2.814,2.226H28.35l-.063-1.995H26.67c.063.945.084,1.974.084,3.171ZM40.719,0a14.311,14.311,0,0,1-.168-2.436v-3.8c0-2.037-.756-4.158-3.864-4.158a6.308,6.308,0,0,0-3.339.9l.42,1.218a5.064,5.064,0,0,1,2.646-.756,2.1,2.1,0,0,1,2.31,2.352v.21c-3.927-.021-6.111,1.323-6.111,3.78A2.9,2.9,0,0,0,35.721.231a3.786,3.786,0,0,0,3.108-1.512h.063L39.039,0ZM38.766-3.423a1.929,1.929,0,0,1-.1.588,2.529,2.529,0,0,1-2.457,1.7A1.635,1.635,0,0,1,34.461-2.9c0-1.974,2.289-2.331,4.305-2.289ZM54.915-14.91v6.069h-.042A3.4,3.4,0,0,0,51.807-10.4c-2.478,0-4.578,2.079-4.557,5.46C47.25-1.848,49.14.231,51.6.231a3.76,3.76,0,0,0,3.465-2H55.1L55.188,0h1.659c-.063-.693-.084-1.722-.084-2.625V-14.91Zm0,10.647a3.21,3.21,0,0,1-.084.8A2.778,2.778,0,0,1,52.122-1.26c-2,0-3-1.7-3-3.759,0-2.247,1.134-3.927,3.045-3.927A2.718,2.718,0,0,1,54.831-6.8a3.262,3.262,0,0,1,.084.777ZM68-4.746a6.971,6.971,0,0,0,.063-.861c0-1.869-.882-4.788-4.2-4.788-2.961,0-4.767,2.415-4.767,5.481S60.963.21,64.092.21a8.232,8.232,0,0,0,3.381-.63l-.315-1.323a6.683,6.683,0,0,1-2.814.525,3.256,3.256,0,0,1-3.486-3.528ZM60.879-6.069c.147-1.281.966-3,2.835-3,2.079,0,2.583,1.827,2.562,3ZM70.35,0H72.2V-14.91H70.35ZM86.688-14.91v6.069h-.042A3.4,3.4,0,0,0,83.58-10.4C81.1-10.4,79-8.316,79.023-4.935c0,3.087,1.89,5.166,4.347,5.166a3.76,3.76,0,0,0,3.465-2h.042L86.961,0H88.62c-.063-.693-.084-1.722-.084-2.625V-14.91Zm0,10.647a3.21,3.21,0,0,1-.084.8A2.778,2.778,0,0,1,83.9-1.26c-1.995,0-3-1.7-3-3.759,0-2.247,1.134-3.927,3.045-3.927A2.718,2.718,0,0,1,86.6-6.8a3.262,3.262,0,0,1,.084.777ZM93.45,0V-10.164H91.6V0Zm-.126-14.553-1.848,3H92.8l2.562-3ZM103.824,0a14.311,14.311,0,0,1-.168-2.436v-3.8c0-2.037-.756-4.158-3.864-4.158a6.308,6.308,0,0,0-3.339.9l.42,1.218a5.064,5.064,0,0,1,2.646-.756,2.1,2.1,0,0,1,2.31,2.352v.21c-3.927-.021-6.111,1.323-6.111,3.78A2.9,2.9,0,0,0,98.826.231a3.786,3.786,0,0,0,3.108-1.512H102L102.144,0Zm-1.953-3.423a1.929,1.929,0,0,1-.105.588,2.529,2.529,0,0,1-2.457,1.7A1.635,1.635,0,0,1,97.566-2.9c0-1.974,2.289-2.331,4.305-2.289Z" transform="translate(262.967 533.849) rotate(0.68)"/>
    <g id="Grupo_999938" data-name="Grupo 999938" transform="translate(0 -0.001)">
      <g id="Grupo_999937" data-name="Grupo 999937" clip-path="url(#clip-path)">
        <path id="Trazado_707130" data-name="Trazado 707130" d="M134.193,382.423a53.536,53.536,0,0,1-9.824-.816C49.109,371.642,22.842,183.893,21.76,175.9l11.2-1.517c.064.476,6.623,48.124,21.8,96.179,13.628,43.144,37.052,95.49,71.25,99.865l.487.083c1.682.353,41.9,8.2,63.906-40.217,1.034-2.554,8.3-17.857,32.506-15.134,5.222.367,171.124,11.652,224.221-14.7,4.677-6.588,31.465-46.46,56.04-127.531a305.546,305.546,0,0,1,14.793-49.5c13.748-34,30.208-50.345,48.979-48.59,3.048-.559,10.619-1.071,19.125,4.928,17.744,12.515,27.956,44.8,30.355,95.948l-11.289.53c-2.886-61.56-17-80.89-25.151-86.934-6.118-4.534-11-3.366-11.205-3.314l-1.158.352-1.083-.188c-27.917-3.574-47.247,63.2-52.332,89.227l-.137.555c-27.6,91.173-57.423,130.738-58.677,132.378l-.761.992-1.106.578c-55.2,28.873-224.366,17.053-231.538,16.535l-.242-.023c-16.415-1.894-20.439,7.053-20.844,8.078l-.147.36c-13.43,29.636-33.43,40.8-47.843,44.949a67.963,67.963,0,0,1-18.716,2.637" transform="translate(8.976 30.741)" fill="#a800c6"/>
        <path id="Trazado_707131" data-name="Trazado 707131" d="M27.227,467.935l-.492-11.289,96.507-4.191c.335,0,34.728-.4,49.575-24.9,4.54-7.492,8.387-31.389,13.258-61.643,11.749-72.984,31.414-195.141,93-300.715.672-1.2,17.935-31.437,43.49-30.058,19.467,1.051,37.232,20.109,52.8,56.639l.1.257c.6,1.637,60.806,165.522,94.818,329.771l.076.462c.153,1.188,4.1,29.492,31.366,30.191l102.858.836-.092,11.3-102.957-.838c-29.6-.759-40.611-26.273-42.363-39.879C425.74,262.512,366.906,101.5,364.916,96.077,351.394,64.4,336.55,47.23,321.982,46.422c-18.5-1.04-32.961,24.137-33.1,24.391C228.31,174.644,208.854,295.5,197.231,367.708c-5.459,33.92-9.067,56.327-14.749,65.7-17.837,29.431-56.089,30.32-59.105,30.344Z" transform="translate(11.029 14.477)" fill="aqua"/>
      </g>
    </g>
    <path id="Trazado_707286" data-name="Trazado 707286" d="M13.547-8.142H8.441v1.61h3.151v4.623A6.526,6.526,0,0,1,8.924-1.5c-3.611,0-5.98-2.323-5.98-6.256,0-3.887,2.461-6.233,6.233-6.233a8.035,8.035,0,0,1,3.427.667l.483-1.633a9.584,9.584,0,0,0-3.864-.713c-5.2,0-8.372,3.381-8.4,8A7.975,7.975,0,0,0,2.99-1.886,7.969,7.969,0,0,0,8.786.161,14.442,14.442,0,0,0,13.547-.69ZM25.691-5.2a7.634,7.634,0,0,0,.069-.943c0-2.047-.966-5.244-4.6-5.244-3.243,0-5.221,2.645-5.221,6S17.986.23,21.413.23a9.016,9.016,0,0,0,3.7-.69l-.345-1.449a7.319,7.319,0,0,1-3.082.575A3.566,3.566,0,0,1,17.871-5.2Zm-7.8-1.449c.161-1.4,1.058-3.289,3.105-3.289,2.277,0,2.829,2,2.806,3.289ZM28.267,0h2.024V-6.693a2.91,2.91,0,0,1,.138-.943,2.876,2.876,0,0,1,2.714-2.07c1.909,0,2.576,1.495,2.576,3.289V0h2.024V-6.647c0-3.818-2.392-4.738-3.933-4.738a4.094,4.094,0,0,0-3.68,2.093h-.046l-.115-1.84H28.175c.069.92.092,1.863.092,3.013ZM49.979-5.2a7.633,7.633,0,0,0,.069-.943c0-2.047-.966-5.244-4.6-5.244-3.243,0-5.221,2.645-5.221,6S42.274.23,45.7.23a9.016,9.016,0,0,0,3.7-.69l-.345-1.449a7.319,7.319,0,0,1-3.082.575A3.566,3.566,0,0,1,42.159-5.2Zm-7.8-1.449c.161-1.4,1.058-3.289,3.105-3.289,2.277,0,2.829,2,2.806,3.289ZM52.555,0h2V-5.934a5.7,5.7,0,0,1,.092-.943,2.839,2.839,0,0,1,2.714-2.6,3.04,3.04,0,0,1,.69.069v-1.909a2.189,2.189,0,0,0-.575-.069A3.34,3.34,0,0,0,54.4-8.947H54.3l-.069-2.185H52.463c.069,1.035.092,2.162.092,3.473ZM67.873,0a15.674,15.674,0,0,1-.184-2.668V-6.831c0-2.231-.828-4.554-4.232-4.554A6.909,6.909,0,0,0,59.8-10.4l.46,1.334a5.546,5.546,0,0,1,2.9-.828,2.3,2.3,0,0,1,2.53,2.576v.23c-4.3-.023-6.693,1.449-6.693,4.14a3.172,3.172,0,0,0,3.4,3.2A4.146,4.146,0,0,0,65.8-1.4h.069L66.033,0ZM65.734-3.749a2.112,2.112,0,0,1-.115.644,2.77,2.77,0,0,1-2.691,1.863,1.791,1.791,0,0,1-1.909-1.932c0-2.162,2.507-2.553,4.715-2.507ZM78.545-1.932a5.75,5.75,0,0,1-2.484.552A3.817,3.817,0,0,1,72.2-5.543c0-2.323,1.38-4.209,3.933-4.209a4.694,4.694,0,0,1,2.346.529l.46-1.564a6.766,6.766,0,0,0-2.806-.575,5.656,5.656,0,0,0-5.98,5.911c0,3.4,2.185,5.681,5.543,5.681a7.455,7.455,0,0,0,3.2-.644ZM83.283,0V-11.132H81.259V0ZM82.271-15.525a1.233,1.233,0,0,0-1.265,1.265,1.2,1.2,0,0,0,1.219,1.242,1.2,1.2,0,0,0,1.288-1.242A1.2,1.2,0,0,0,82.271-15.525Zm9.085,4.14c-3.082,0-5.52,2.185-5.52,5.911,0,3.519,2.323,5.727,5.336,5.727,2.691,0,5.543-1.794,5.543-5.911C96.715-9.062,94.553-11.385,91.356-11.385ZM91.31-9.867c2.392,0,3.335,2.392,3.335,4.278,0,2.507-1.449,4.324-3.381,4.324-1.978,0-3.381-1.84-3.381-4.278C87.883-7.659,88.918-9.867,91.31-9.867Zm.759-6.072L90.045-12.65h1.449L94.3-15.939ZM99.268,0h2.024V-6.693a2.91,2.91,0,0,1,.138-.943,2.876,2.876,0,0,1,2.714-2.07c1.909,0,2.576,1.495,2.576,3.289V0h2.024V-6.647c0-3.818-2.392-4.738-3.933-4.738a4.094,4.094,0,0,0-3.68,2.093h-.046l-.115-1.84H99.176c.069.92.092,1.863.092,3.013Zm19.849,0V-9.591h2.691v-1.541h-2.691v-.6c0-1.7.437-3.22,2.162-3.22a3.022,3.022,0,0,1,1.288.253l.276-1.564a4.693,4.693,0,0,0-1.725-.322,3.873,3.873,0,0,0-2.714,1.035,5.248,5.248,0,0,0-1.288,3.887v.529h-1.564v1.541h1.564V0Zm8.648-11.385c-3.082,0-5.52,2.185-5.52,5.911,0,3.519,2.323,5.727,5.336,5.727,2.691,0,5.543-1.794,5.543-5.911C133.124-9.062,130.962-11.385,127.765-11.385Zm-.046,1.518c2.392,0,3.335,2.392,3.335,4.278,0,2.507-1.449,4.324-3.381,4.324-1.978,0-3.381-1.84-3.381-4.278C124.292-7.659,125.327-9.867,127.719-9.867Zm8.418-3.933v2.668h-1.725v1.541h1.725v6.072a4.124,4.124,0,0,0,.782,2.9A2.8,2.8,0,0,0,139.1.23,4.955,4.955,0,0,0,140.9-.046l-.092-1.518a4.5,4.5,0,0,1-1.173.138c-1.127,0-1.518-.782-1.518-2.162v-6h2.9v-1.541h-2.9v-3.2Zm11.615,2.415c-3.082,0-5.52,2.185-5.52,5.911,0,3.519,2.323,5.727,5.336,5.727,2.691,0,5.543-1.794,5.543-5.911C153.111-9.062,150.949-11.385,147.752-11.385Zm-.046,1.518c2.392,0,3.335,2.392,3.335,4.278,0,2.507-1.449,4.324-3.381,4.324-1.978,0-3.381-1.84-3.381-4.278C144.279-7.659,145.314-9.867,147.706-9.867Zm6.279-1.265L158.217,0h1.932l4.37-11.132H162.4l-2.162,6.256c-.368,1.012-.69,1.932-.943,2.852h-.069a28.623,28.623,0,0,0-.9-2.852l-2.185-6.256Zm16.7-.253c-3.082,0-5.52,2.185-5.52,5.911,0,3.519,2.323,5.727,5.336,5.727,2.691,0,5.543-1.794,5.543-5.911C176.042-9.062,173.88-11.385,170.683-11.385Zm-.046,1.518c2.392,0,3.335,2.392,3.335,4.278,0,2.507-1.449,4.324-3.381,4.324-1.978,0-3.381-1.84-3.381-4.278C167.21-7.659,168.245-9.867,170.637-9.867ZM178.6,0h2.024V-16.33H178.6Zm5.888-13.8v2.668h-1.725v1.541h1.725v6.072a4.124,4.124,0,0,0,.782,2.9A2.8,2.8,0,0,0,187.45.23a4.955,4.955,0,0,0,1.794-.276l-.092-1.518a4.5,4.5,0,0,1-1.173.138c-1.127,0-1.518-.782-1.518-2.162v-6h2.9v-1.541h-2.9v-3.2ZM199.64,0a15.674,15.674,0,0,1-.184-2.668V-6.831c0-2.231-.828-4.554-4.232-4.554a6.909,6.909,0,0,0-3.657.989l.46,1.334a5.546,5.546,0,0,1,2.9-.828,2.3,2.3,0,0,1,2.53,2.576v.23c-4.3-.023-6.693,1.449-6.693,4.14a3.172,3.172,0,0,0,3.4,3.2,4.146,4.146,0,0,0,3.4-1.656h.069L197.8,0ZM197.5-3.749a2.112,2.112,0,0,1-.115.644A2.77,2.77,0,0,1,194.7-1.242a1.791,1.791,0,0,1-1.909-1.932c0-2.162,2.507-2.553,4.715-2.507ZM204.746,0V-11.132h-2.024V0Zm-1.012-15.525a1.233,1.233,0,0,0-1.265,1.265,1.2,1.2,0,0,0,1.219,1.242,1.2,1.2,0,0,0,1.288-1.242A1.2,1.2,0,0,0,203.734-15.525Zm11.96,13.593a5.75,5.75,0,0,1-2.484.552,3.817,3.817,0,0,1-3.864-4.163c0-2.323,1.38-4.209,3.933-4.209a4.694,4.694,0,0,1,2.346.529l.46-1.564a6.766,6.766,0,0,0-2.806-.575,5.656,5.656,0,0,0-5.98,5.911c0,3.4,2.185,5.681,5.543,5.681a7.455,7.455,0,0,0,3.2-.644ZM226.412,0a15.674,15.674,0,0,1-.184-2.668V-6.831c0-2.231-.828-4.554-4.232-4.554a6.909,6.909,0,0,0-3.657.989l.46,1.334a5.546,5.546,0,0,1,2.9-.828,2.3,2.3,0,0,1,2.53,2.576v.23c-4.3-.023-6.693,1.449-6.693,4.14a3.172,3.172,0,0,0,3.4,3.2,4.146,4.146,0,0,0,3.4-1.656h.069l.161,1.4Zm-2.139-3.749a2.112,2.112,0,0,1-.115.644,2.77,2.77,0,0,1-2.691,1.863,1.791,1.791,0,0,1-1.909-1.932c0-2.162,2.507-2.553,4.715-2.507Zm8.625-7.383L237.015-.874a1.765,1.765,0,0,1,.138.529,1.453,1.453,0,0,1-.161.483,6.136,6.136,0,0,1-1.7,2.254,5.354,5.354,0,0,1-1.771.989l.506,1.7a5.484,5.484,0,0,0,2.484-1.311c1.38-1.2,2.369-3.151,3.818-6.969l3.036-7.935h-2.139L239.016-4.6c-.276.8-.506,1.656-.713,2.323h-.046c-.184-.667-.46-1.541-.713-2.277l-2.438-6.578Zm24.771,9.2a5.75,5.75,0,0,1-2.484.552,3.817,3.817,0,0,1-3.864-4.163c0-2.323,1.38-4.209,3.933-4.209a4.694,4.694,0,0,1,2.346.529l.46-1.564a6.766,6.766,0,0,0-2.806-.575,5.656,5.656,0,0,0-5.98,5.911c0,3.4,2.185,5.681,5.543,5.681a7.455,7.455,0,0,0,3.2-.644Zm7.176-9.453c-3.082,0-5.52,2.185-5.52,5.911,0,3.519,2.323,5.727,5.336,5.727,2.691,0,5.543-1.794,5.543-5.911C270.2-9.062,268.042-11.385,264.845-11.385ZM264.8-9.867c2.392,0,3.335,2.392,3.335,4.278,0,2.507-1.449,4.324-3.381,4.324-1.978,0-3.381-1.84-3.381-4.278C261.372-7.659,262.407-9.867,264.8-9.867ZM272.757,0h2.024V-6.693a2.91,2.91,0,0,1,.138-.943,2.876,2.876,0,0,1,2.714-2.07c1.909,0,2.576,1.495,2.576,3.289V0h2.024V-6.647c0-3.818-2.392-4.738-3.933-4.738a4.094,4.094,0,0,0-3.68,2.093h-.046l-.115-1.84h-1.794c.069.92.092,1.863.092,3.013ZM284.74-.529a6.348,6.348,0,0,0,3.128.759c2.645,0,4.163-1.38,4.163-3.335,0-1.656-.989-2.622-2.921-3.358-1.449-.552-2.116-.966-2.116-1.886,0-.828.667-1.518,1.863-1.518a4.332,4.332,0,0,1,2.277.644l.506-1.472a5.556,5.556,0,0,0-2.737-.69c-2.392,0-3.841,1.472-3.841,3.266,0,1.334.943,2.438,2.944,3.151,1.495.552,2.07,1.081,2.07,2.047,0,.92-.69,1.656-2.162,1.656a5.3,5.3,0,0,1-2.668-.805Zm19.2-10.6h-2.024V-4.3a2.96,2.96,0,0,1-.184,1.035,2.926,2.926,0,0,1-2.668,1.84c-1.84,0-2.484-1.426-2.484-3.542v-6.164h-2.024v6.509c0,3.91,2.093,4.876,3.841,4.876a4.188,4.188,0,0,0,3.68-2.07h.046L302.243,0h1.794c-.069-.874-.092-1.886-.092-3.036ZM307.3,0h1.978V-6.716a2.79,2.79,0,0,1,.161-.989,2.766,2.766,0,0,1,2.507-2.024c1.541,0,2.323,1.288,2.323,3.059V0h1.978V-6.877a3.334,3.334,0,0,1,.161-1.012,2.62,2.62,0,0,1,2.392-1.84c1.633,0,2.415,1.288,2.415,3.427V0H323.2V-6.555c0-3.864-2.185-4.83-3.657-4.83a3.8,3.8,0,0,0-2.461.782,4.585,4.585,0,0,0-1.242,1.449h-.046a3.291,3.291,0,0,0-3.151-2.231,3.837,3.837,0,0,0-3.5,2.047h-.069l-.092-1.794h-1.771c.069.92.092,1.863.092,3.013Zm23.9-11.385c-3.082,0-5.52,2.185-5.52,5.911,0,3.519,2.323,5.727,5.336,5.727,2.691,0,5.543-1.794,5.543-5.911C336.559-9.062,334.4-11.385,331.2-11.385Zm-.046,1.518c2.392,0,3.335,2.392,3.335,4.278,0,2.507-1.449,4.324-3.381,4.324-1.978,0-3.381-1.84-3.381-4.278C327.727-7.659,328.762-9.867,331.154-9.867Zm20.424-6.463v6.647h-.046a3.722,3.722,0,0,0-3.358-1.7c-2.714,0-5.014,2.277-4.991,5.98,0,3.381,2.07,5.658,4.761,5.658a4.118,4.118,0,0,0,3.795-2.185h.046L351.877,0h1.817c-.069-.759-.092-1.886-.092-2.875V-16.33Zm0,11.661a3.516,3.516,0,0,1-.092.874,3.043,3.043,0,0,1-2.967,2.415c-2.185,0-3.289-1.863-3.289-4.117,0-2.461,1.242-4.3,3.335-4.3a2.977,2.977,0,0,1,2.921,2.346,3.573,3.573,0,0,1,.092.851ZM365.907-5.2a7.638,7.638,0,0,0,.069-.943c0-2.047-.966-5.244-4.6-5.244-3.243,0-5.221,2.645-5.221,6S358.2.23,361.629.23a9.016,9.016,0,0,0,3.7-.69l-.345-1.449a7.319,7.319,0,0,1-3.082.575A3.566,3.566,0,0,1,358.087-5.2Zm-7.8-1.449c.161-1.4,1.058-3.289,3.1-3.289,2.277,0,2.829,2,2.806,3.289Zm24.2,1.449a7.638,7.638,0,0,0,.069-.943c0-2.047-.966-5.244-4.6-5.244-3.243,0-5.221,2.645-5.221,6S374.6.23,378.028.23a9.016,9.016,0,0,0,3.7-.69l-.345-1.449a7.319,7.319,0,0,1-3.082.575A3.566,3.566,0,0,1,374.486-5.2Zm-7.8-1.449c.161-1.4,1.058-3.289,3.1-3.289,2.277,0,2.829,2,2.806,3.289ZM384.882,0h2.024V-6.693a2.91,2.91,0,0,1,.138-.943,2.876,2.876,0,0,1,2.714-2.07c1.909,0,2.576,1.495,2.576,3.289V0h2.024V-6.647c0-3.818-2.392-4.738-3.933-4.738a4.094,4.094,0,0,0-3.68,2.093H386.7l-.115-1.84H384.79c.069.92.092,1.863.092,3.013Zm21.712-5.2a7.638,7.638,0,0,0,.069-.943c0-2.047-.966-5.244-4.6-5.244-3.243,0-5.221,2.645-5.221,6S398.889.23,402.316.23a9.016,9.016,0,0,0,3.7-.69l-.345-1.449a7.319,7.319,0,0,1-3.082.575A3.566,3.566,0,0,1,398.774-5.2Zm-7.8-1.449c.161-1.4,1.058-3.289,3.1-3.289,2.277,0,2.829,2,2.806,3.289ZM409.17,0h2V-5.934a5.7,5.7,0,0,1,.092-.943,2.839,2.839,0,0,1,2.714-2.6,3.04,3.04,0,0,1,.69.069v-1.909a2.189,2.189,0,0,0-.575-.069,3.34,3.34,0,0,0-3.082,2.438h-.092l-.069-2.185h-1.771c.069,1.035.092,2.162.092,3.473Zm15-11.132-.092,1.679h-.046a3.7,3.7,0,0,0-3.473-1.932c-2.553,0-5.014,2.139-5.014,5.911,0,3.082,1.978,5.428,4.738,5.428a3.974,3.974,0,0,0,3.542-1.863h.046V-.667c0,2.806-1.518,3.887-3.588,3.887a6.277,6.277,0,0,1-3.266-.874l-.506,1.541a7.185,7.185,0,0,0,3.7.92,5.9,5.9,0,0,0,4.048-1.334c1.081-.966,1.587-2.53,1.587-5.083V-8.073c0-1.357.046-2.254.092-3.059Zm-.322,6.394a3.521,3.521,0,0,1-.161,1.081,2.959,2.959,0,0,1-2.806,2.07c-2.185,0-3.289-1.817-3.289-4,0-2.576,1.38-4.209,3.312-4.209a2.916,2.916,0,0,1,2.829,2.139,2.883,2.883,0,0,1,.115.92ZM430.974,0V-11.132H428.95V0Zm-.138-15.939-2.024,3.289h1.449l2.806-3.289ZM442.336,0a15.674,15.674,0,0,1-.184-2.668V-6.831c0-2.231-.828-4.554-4.232-4.554a6.909,6.909,0,0,0-3.657.989l.46,1.334a5.546,5.546,0,0,1,2.9-.828,2.3,2.3,0,0,1,2.53,2.576v.23c-4.3-.023-6.693,1.449-6.693,4.14a3.172,3.172,0,0,0,3.4,3.2,4.146,4.146,0,0,0,3.4-1.656h.069L440.5,0ZM440.2-3.749a2.113,2.113,0,0,1-.115.644,2.77,2.77,0,0,1-2.691,1.863,1.791,1.791,0,0,1-1.909-1.932c0-2.162,2.507-2.553,4.715-2.507ZM459.241-5.2a7.638,7.638,0,0,0,.069-.943c0-2.047-.966-5.244-4.6-5.244-3.243,0-5.221,2.645-5.221,6S451.536.23,454.963.23a9.016,9.016,0,0,0,3.7-.69l-.345-1.449a7.319,7.319,0,0,1-3.082.575A3.566,3.566,0,0,1,451.421-5.2Zm-7.8-1.449c.161-1.4,1.058-3.289,3.1-3.289,2.277,0,2.829,2,2.806,3.289ZM461.817,0h2.024V-16.33h-2.024Zm14.375-5.2a7.638,7.638,0,0,0,.069-.943c0-2.047-.966-5.244-4.6-5.244-3.243,0-5.221,2.645-5.221,6S468.487.23,471.914.23a9.016,9.016,0,0,0,3.7-.69l-.345-1.449a7.319,7.319,0,0,1-3.082.575A3.566,3.566,0,0,1,468.372-5.2Zm-7.8-1.449c.161-1.4,1.058-3.289,3.1-3.289,2.277,0,2.829,2,2.806,3.289Zm4.163-9.292-2.024,3.289h1.449l2.806-3.289Zm13.8,14.007a5.75,5.75,0,0,1-2.484.552,3.817,3.817,0,0,1-3.864-4.163c0-2.323,1.38-4.209,3.933-4.209a4.694,4.694,0,0,1,2.346.529l.46-1.564a6.766,6.766,0,0,0-2.806-.575,5.656,5.656,0,0,0-5.98,5.911c0,3.4,2.185,5.681,5.543,5.681a7.455,7.455,0,0,0,3.2-.644ZM490.107-13.8v2.668h-1.725v1.541h1.725v6.072a4.124,4.124,0,0,0,.782,2.9,2.8,2.8,0,0,0,2.185.851,4.955,4.955,0,0,0,1.794-.276l-.092-1.518a4.5,4.5,0,0,1-1.173.138c-1.127,0-1.518-.782-1.518-2.162v-6h2.9v-1.541h-2.9v-3.2ZM497.26,0h2V-5.934a5.7,5.7,0,0,1,.092-.943,2.839,2.839,0,0,1,2.714-2.6,3.04,3.04,0,0,1,.69.069v-1.909a2.189,2.189,0,0,0-.575-.069A3.34,3.34,0,0,0,499.1-8.947h-.092l-.069-2.185h-1.771c.069,1.035.092,2.162.092,3.473Zm9.706,0V-11.132h-2.024V0Zm-1.012-15.525a1.233,1.233,0,0,0-1.265,1.265,1.2,1.2,0,0,0,1.219,1.242A1.2,1.2,0,0,0,507.2-14.26,1.2,1.2,0,0,0,505.954-15.525Zm11.96,13.593a5.75,5.75,0,0,1-2.484.552,3.817,3.817,0,0,1-3.864-4.163c0-2.323,1.38-4.209,3.933-4.209a4.694,4.694,0,0,1,2.346.529l.46-1.564a6.766,6.766,0,0,0-2.806-.575,5.656,5.656,0,0,0-5.98,5.911c0,3.4,2.185,5.681,5.543,5.681a7.455,7.455,0,0,0,3.2-.644ZM528.632,0a15.674,15.674,0,0,1-.184-2.668V-6.831c0-2.231-.828-4.554-4.232-4.554a6.909,6.909,0,0,0-3.657.989l.46,1.334a5.546,5.546,0,0,1,2.9-.828,2.3,2.3,0,0,1,2.53,2.576v.23c-4.3-.023-6.693,1.449-6.693,4.14a3.172,3.172,0,0,0,3.4,3.2,4.146,4.146,0,0,0,3.4-1.656h.069l.161,1.4Zm-2.139-3.749a2.113,2.113,0,0,1-.115.644,2.77,2.77,0,0,1-2.691,1.863,1.791,1.791,0,0,1-1.909-1.932c0-2.162,2.507-2.553,4.715-2.507Z" transform="translate(185.329 579.928)"/>
    <g id="Grupo_999940" data-name="Grupo 999940" transform="translate(0 -0.001)">
      <g id="Enmascarar_grupo_999939" data-name="Enmascarar grupo 999939" transform="translate(0 -2)" clip-path="url(#clip-path)">
        <path id="Trazado_707293" data-name="Trazado 707293" d="M12.167-2.093A8.01,8.01,0,0,1,8.9-1.449c-3.772,0-5.957-2.438-5.957-6.233,0-4.071,2.415-6.394,6.049-6.394a7.288,7.288,0,0,1,3.128.644l.483-1.633a8.31,8.31,0,0,0-3.68-.69,7.714,7.714,0,0,0-8.1,8.142C.828-2.53,4.117.23,8.487.23a9.933,9.933,0,0,0,4.094-.736Zm11.638-9.039H21.781V-4.3A2.96,2.96,0,0,1,21.6-3.266a2.926,2.926,0,0,1-2.668,1.84c-1.84,0-2.484-1.426-2.484-3.542v-6.164H14.421v6.509c0,3.91,2.093,4.876,3.841,4.876a4.188,4.188,0,0,0,3.68-2.07h.046L22.1,0H23.9c-.069-.874-.092-1.886-.092-3.036ZM27.163,0h2V-5.934a5.7,5.7,0,0,1,.092-.943,2.839,2.839,0,0,1,2.714-2.6,3.04,3.04,0,0,1,.69.069v-1.909a2.189,2.189,0,0,0-.575-.069A3.34,3.34,0,0,0,29-8.947h-.092l-.069-2.185H27.071c.069,1.035.092,2.162.092,3.473Zm7.291-11.132L38.686,0h1.932l4.37-11.132H42.872L40.71-4.876c-.368,1.012-.69,1.932-.943,2.852H39.7a28.627,28.627,0,0,0-.9-2.852l-2.185-6.256ZM54.74,0a15.674,15.674,0,0,1-.184-2.668V-6.831c0-2.231-.828-4.554-4.232-4.554a6.909,6.909,0,0,0-3.657.989l.46,1.334a5.546,5.546,0,0,1,2.9-.828,2.3,2.3,0,0,1,2.53,2.576v.23c-4.3-.023-6.693,1.449-6.693,4.14a3.172,3.172,0,0,0,3.4,3.2A4.146,4.146,0,0,0,52.67-1.4h.069L52.9,0ZM52.6-3.749a2.112,2.112,0,0,1-.115.644,2.77,2.77,0,0,1-2.691,1.863,1.791,1.791,0,0,1-1.909-1.932c0-2.162,2.507-2.553,4.715-2.507ZM57.04-.529A6.348,6.348,0,0,0,60.168.23c2.645,0,4.163-1.38,4.163-3.335,0-1.656-.989-2.622-2.921-3.358-1.449-.552-2.116-.966-2.116-1.886,0-.828.667-1.518,1.863-1.518a4.332,4.332,0,0,1,2.277.644L63.94-10.7a5.556,5.556,0,0,0-2.737-.69c-2.392,0-3.841,1.472-3.841,3.266,0,1.334.943,2.438,2.944,3.151,1.495.552,2.07,1.081,2.07,2.047,0,.92-.69,1.656-2.162,1.656a5.3,5.3,0,0,1-2.668-.805ZM71.806,0H73.83V-6.716a2.45,2.45,0,0,1,.138-.966,2.908,2.908,0,0,1,2.714-2.024c1.909,0,2.576,1.518,2.576,3.312V0h2.024V-6.624c0-3.841-2.392-4.761-3.887-4.761a4.166,4.166,0,0,0-2.07.575,3.756,3.756,0,0,0-1.449,1.426H73.83V-16.33H71.806Zm17.48-11.385c-3.082,0-5.52,2.185-5.52,5.911,0,3.519,2.323,5.727,5.336,5.727,2.691,0,5.543-1.794,5.543-5.911C94.645-9.062,92.483-11.385,89.286-11.385ZM89.24-9.867c2.392,0,3.335,2.392,3.335,4.278,0,2.507-1.449,4.324-3.381,4.324-1.978,0-3.381-1.84-3.381-4.278C85.813-7.659,86.848-9.867,89.24-9.867ZM97.2,0h2V-5.934a5.7,5.7,0,0,1,.092-.943A2.839,2.839,0,0,1,102-9.476a3.04,3.04,0,0,1,.69.069v-1.909a2.189,2.189,0,0,0-.575-.069,3.34,3.34,0,0,0-3.082,2.438h-.092l-.069-2.185H97.106c.069,1.035.092,2.162.092,3.473Zm15.318,0a15.674,15.674,0,0,1-.184-2.668V-6.831c0-2.231-.828-4.554-4.232-4.554a6.909,6.909,0,0,0-3.657.989l.46,1.334a5.546,5.546,0,0,1,2.9-.828,2.3,2.3,0,0,1,2.53,2.576v.23c-4.3-.023-6.693,1.449-6.693,4.14a3.172,3.172,0,0,0,3.4,3.2,4.146,4.146,0,0,0,3.4-1.656h.069l.161,1.4Zm-2.139-3.749a2.112,2.112,0,0,1-.115.644,2.77,2.77,0,0,1-2.691,1.863,1.791,1.791,0,0,1-1.909-1.932c0-2.162,2.507-2.553,4.715-2.507ZM115.6,0h2V-5.934a5.7,5.7,0,0,1,.092-.943,2.839,2.839,0,0,1,2.714-2.6,3.04,3.04,0,0,1,.69.069v-1.909a2.189,2.189,0,0,0-.575-.069,3.34,3.34,0,0,0-3.082,2.438h-.092l-.069-2.185h-1.771c.069,1.035.092,2.162.092,3.473Zm9.729,0V-11.132H123.3V0Zm-1.012-15.525a1.233,1.233,0,0,0-1.265,1.265,1.2,1.2,0,0,0,1.219,1.242,1.2,1.2,0,0,0,1.288-1.242A1.2,1.2,0,0,0,124.315-15.525ZM136.689,0a15.674,15.674,0,0,1-.184-2.668V-6.831c0-2.231-.828-4.554-4.232-4.554a6.909,6.909,0,0,0-3.657.989l.46,1.334a5.546,5.546,0,0,1,2.9-.828,2.3,2.3,0,0,1,2.53,2.576v.23c-4.3-.023-6.693,1.449-6.693,4.14a3.172,3.172,0,0,0,3.4,3.2,4.146,4.146,0,0,0,3.4-1.656h.069l.161,1.4ZM134.55-3.749a2.112,2.112,0,0,1-.115.644,2.77,2.77,0,0,1-2.691,1.863,1.791,1.791,0,0,1-1.909-1.932c0-2.162,2.507-2.553,4.715-2.507Zm4.439,3.22a6.348,6.348,0,0,0,3.128.759c2.645,0,4.163-1.38,4.163-3.335,0-1.656-.989-2.622-2.921-3.358-1.449-.552-2.116-.966-2.116-1.886,0-.828.667-1.518,1.863-1.518a4.332,4.332,0,0,1,2.277.644l.506-1.472a5.556,5.556,0,0,0-2.737-.69c-2.392,0-3.841,1.472-3.841,3.266,0,1.334.943,2.438,2.944,3.151,1.5.552,2.07,1.081,2.07,2.047,0,.92-.69,1.656-2.162,1.656a5.3,5.3,0,0,1-2.668-.805ZM153.755,0h2V-5.934a5.7,5.7,0,0,1,.092-.943,2.839,2.839,0,0,1,2.714-2.6,3.04,3.04,0,0,1,.69.069v-1.909a2.189,2.189,0,0,0-.575-.069A3.34,3.34,0,0,0,155.6-8.947H155.5l-.069-2.185h-1.771c.069,1.035.092,2.162.092,3.473Zm16.031-5.2a7.635,7.635,0,0,0,.069-.943c0-2.047-.966-5.244-4.6-5.244-3.243,0-5.221,2.645-5.221,6S162.081.23,165.508.23a9.016,9.016,0,0,0,3.7-.69l-.345-1.449a7.319,7.319,0,0,1-3.082.575A3.566,3.566,0,0,1,161.966-5.2Zm-7.8-1.449c.161-1.4,1.058-3.289,3.105-3.289,2.277,0,2.829,2,2.806,3.289ZM174.57,0V-9.591h2.691v-1.541H174.57v-.6c0-1.7.437-3.22,2.162-3.22a3.023,3.023,0,0,1,1.288.253l.276-1.564a4.693,4.693,0,0,0-1.725-.322,3.873,3.873,0,0,0-2.714,1.035,5.248,5.248,0,0,0-1.288,3.887v.529h-1.564v1.541h1.564V0Zm12.88-5.2a7.635,7.635,0,0,0,.069-.943c0-2.047-.966-5.244-4.6-5.244-3.243,0-5.221,2.645-5.221,6S179.745.23,183.172.23a9.016,9.016,0,0,0,3.7-.69l-.345-1.449a7.319,7.319,0,0,1-3.082.575A3.566,3.566,0,0,1,179.63-5.2Zm-7.8-1.449c.161-1.4,1.058-3.289,3.105-3.289,2.277,0,2.829,2,2.806,3.289ZM190.026,0h2V-5.934a5.7,5.7,0,0,1,.092-.943,2.839,2.839,0,0,1,2.714-2.6,3.04,3.04,0,0,1,.69.069v-1.909a2.189,2.189,0,0,0-.575-.069,3.34,3.34,0,0,0-3.082,2.438h-.092l-.069-2.185h-1.771c.069,1.035.092,2.162.092,3.473Zm16.031-5.2a7.635,7.635,0,0,0,.069-.943c0-2.047-.966-5.244-4.6-5.244-3.243,0-5.221,2.645-5.221,6S198.352.23,201.779.23a9.016,9.016,0,0,0,3.7-.69l-.345-1.449a7.319,7.319,0,0,1-3.082.575A3.566,3.566,0,0,1,198.237-5.2Zm-7.8-1.449c.161-1.4,1.058-3.289,3.105-3.289,2.277,0,2.829,2,2.806,3.289ZM208.633,0h2.024V-6.693a2.91,2.91,0,0,1,.138-.943,2.876,2.876,0,0,1,2.714-2.07c1.909,0,2.576,1.495,2.576,3.289V0h2.024V-6.647c0-3.818-2.392-4.738-3.933-4.738a4.094,4.094,0,0,0-3.68,2.093h-.046l-.115-1.84h-1.794c.069.92.092,1.863.092,3.013Zm20.355-1.932a5.75,5.75,0,0,1-2.484.552,3.817,3.817,0,0,1-3.864-4.163c0-2.323,1.38-4.209,3.933-4.209a4.694,4.694,0,0,1,2.346.529l.46-1.564a6.766,6.766,0,0,0-2.806-.575,5.656,5.656,0,0,0-5.98,5.911c0,3.4,2.185,5.681,5.543,5.681a7.455,7.455,0,0,0,3.2-.644ZM233.726,0V-11.132H231.7V0Zm-1.012-15.525a1.233,1.233,0,0,0-1.265,1.265,1.2,1.2,0,0,0,1.219,1.242,1.2,1.2,0,0,0,1.288-1.242A1.2,1.2,0,0,0,232.714-15.525ZM245.088,0a15.674,15.674,0,0,1-.184-2.668V-6.831c0-2.231-.828-4.554-4.232-4.554a6.909,6.909,0,0,0-3.657.989l.46,1.334a5.546,5.546,0,0,1,2.9-.828,2.3,2.3,0,0,1,2.53,2.576v.23c-4.3-.023-6.693,1.449-6.693,4.14a3.172,3.172,0,0,0,3.4,3.2,4.146,4.146,0,0,0,3.4-1.656h.069l.161,1.4Zm-2.139-3.749a2.112,2.112,0,0,1-.115.644,2.77,2.77,0,0,1-2.691,1.863,1.791,1.791,0,0,1-1.909-1.932c0-2.162,2.507-2.553,4.715-2.507ZM248.17,0h2.024V-16.33H248.17Zm14.375-5.2a7.632,7.632,0,0,0,.069-.943c0-2.047-.966-5.244-4.6-5.244-3.243,0-5.221,2.645-5.221,6S254.84.23,258.267.23a9.017,9.017,0,0,0,3.7-.69l-.345-1.449a7.319,7.319,0,0,1-3.082.575A3.566,3.566,0,0,1,254.725-5.2Zm-7.8-1.449c.161-1.4,1.058-3.289,3.105-3.289,2.277,0,2.829,2,2.806,3.289Zm9.591,6.118a6.348,6.348,0,0,0,3.128.759c2.645,0,4.163-1.38,4.163-3.335,0-1.656-.989-2.622-2.921-3.358-1.449-.552-2.116-.966-2.116-1.886,0-.828.667-1.518,1.863-1.518a4.332,4.332,0,0,1,2.277.644l.506-1.472a5.556,5.556,0,0,0-2.737-.69c-2.392,0-3.841,1.472-3.841,3.266,0,1.334.943,2.438,2.944,3.151,1.495.552,2.07,1.081,2.07,2.047,0,.92-.69,1.656-2.162,1.656a5.3,5.3,0,0,1-2.668-.805ZM279.1,4.554h2V-1.5h.046A3.9,3.9,0,0,0,284.579.253c2.622,0,5.06-1.978,5.06-5.98,0-3.381-2.024-5.658-4.715-5.658a4.376,4.376,0,0,0-3.956,2.162h-.046l-.092-1.909h-1.817c.046,1.058.092,2.208.092,3.634Zm2-10.994a3.282,3.282,0,0,1,.138-.828A3.23,3.23,0,0,1,284.3-9.775c2.139,0,3.312,1.909,3.312,4.14,0,2.553-1.242,4.3-3.381,4.3A3.123,3.123,0,0,1,281.2-3.7a4.559,4.559,0,0,1-.092-.828ZM300.2,0a15.674,15.674,0,0,1-.184-2.668V-6.831c0-2.231-.828-4.554-4.232-4.554a6.909,6.909,0,0,0-3.657.989l.46,1.334a5.546,5.546,0,0,1,2.9-.828,2.3,2.3,0,0,1,2.53,2.576v.23c-4.3-.023-6.693,1.449-6.693,4.14a3.172,3.172,0,0,0,3.4,3.2,4.146,4.146,0,0,0,3.4-1.656h.069l.161,1.4Zm-2.139-3.749a2.113,2.113,0,0,1-.115.644,2.77,2.77,0,0,1-2.691,1.863,1.791,1.791,0,0,1-1.909-1.932c0-2.162,2.507-2.553,4.715-2.507ZM303.278,0h2V-5.934a5.7,5.7,0,0,1,.092-.943,2.839,2.839,0,0,1,2.714-2.6,3.04,3.04,0,0,1,.69.069v-1.909a2.189,2.189,0,0,0-.575-.069,3.34,3.34,0,0,0-3.082,2.438h-.092l-.069-2.185h-1.771c.069,1.035.092,2.162.092,3.473Zm15.3,0a15.674,15.674,0,0,1-.184-2.668V-6.831c0-2.231-.828-4.554-4.232-4.554a6.909,6.909,0,0,0-3.657.989l.46,1.334a5.546,5.546,0,0,1,2.9-.828,2.3,2.3,0,0,1,2.53,2.576v.23c-4.3-.023-6.693,1.449-6.693,4.14a3.172,3.172,0,0,0,3.4,3.2A4.146,4.146,0,0,0,316.5-1.4h.069l.161,1.4Zm-2.139-3.749a2.113,2.113,0,0,1-.115.644,2.77,2.77,0,0,1-2.691,1.863,1.791,1.791,0,0,1-1.909-1.932c0-2.162,2.507-2.553,4.715-2.507Zm19.412-7.383h-2.024V-4.3a2.96,2.96,0,0,1-.184,1.035,2.926,2.926,0,0,1-2.668,1.84c-1.84,0-2.484-1.426-2.484-3.542v-6.164h-2.024v6.509c0,3.91,2.093,4.876,3.841,4.876a4.188,4.188,0,0,0,3.68-2.07h.046L334.144,0h1.794c-.069-.874-.092-1.886-.092-3.036Zm2.576,10.6A6.348,6.348,0,0,0,341.55.23c2.645,0,4.163-1.38,4.163-3.335,0-1.656-.989-2.622-2.921-3.358-1.449-.552-2.116-.966-2.116-1.886,0-.828.667-1.518,1.863-1.518a4.332,4.332,0,0,1,2.277.644l.506-1.472a5.556,5.556,0,0,0-2.737-.69c-2.392,0-3.841,1.472-3.841,3.266,0,1.334.943,2.438,2.944,3.151,1.495.552,2.07,1.081,2.07,2.047,0,.92-.69,1.656-2.162,1.656a5.3,5.3,0,0,1-2.668-.805Zm14.605-10.856c-3.082,0-5.52,2.185-5.52,5.911,0,3.519,2.323,5.727,5.336,5.727,2.691,0,5.543-1.794,5.543-5.911C358.386-9.062,356.224-11.385,353.027-11.385Zm-.046,1.518c2.392,0,3.335,2.392,3.335,4.278,0,2.507-1.449,4.324-3.381,4.324-1.978,0-3.381-1.84-3.381-4.278C349.554-7.659,350.589-9.867,352.981-9.867ZM365.815,0h2V-5.934a5.7,5.7,0,0,1,.092-.943,2.839,2.839,0,0,1,2.714-2.6,3.04,3.04,0,0,1,.69.069v-1.909a2.189,2.189,0,0,0-.575-.069,3.34,3.34,0,0,0-3.082,2.438h-.092l-.069-2.185h-1.771c.069,1.035.092,2.162.092,3.473Zm16.031-5.2a7.638,7.638,0,0,0,.069-.943c0-2.047-.966-5.244-4.6-5.244-3.243,0-5.221,2.645-5.221,6S374.141.23,377.568.23a9.016,9.016,0,0,0,3.7-.69l-.345-1.449a7.319,7.319,0,0,1-3.082.575A3.566,3.566,0,0,1,374.026-5.2Zm-7.8-1.449c.161-1.4,1.058-3.289,3.1-3.289,2.277,0,2.829,2,2.806,3.289ZM383.64-.529a6.348,6.348,0,0,0,3.128.759c2.645,0,4.163-1.38,4.163-3.335,0-1.656-.989-2.622-2.921-3.358-1.449-.552-2.116-.966-2.116-1.886,0-.828.667-1.518,1.863-1.518a4.332,4.332,0,0,1,2.277.644l.506-1.472a5.556,5.556,0,0,0-2.737-.69c-2.392,0-3.841,1.472-3.841,3.266,0,1.334.943,2.438,2.944,3.151,1.495.552,2.07,1.081,2.07,2.047,0,.92-.69,1.656-2.162,1.656a5.3,5.3,0,0,1-2.668-.805ZM395.554,0V-11.132H393.53V0Zm-1.012-15.525a1.233,1.233,0,0,0-1.265,1.265,1.2,1.2,0,0,0,1.219,1.242,1.2,1.2,0,0,0,1.288-1.242A1.2,1.2,0,0,0,394.542-15.525Zm11.96-.805v6.647h-.046a3.722,3.722,0,0,0-3.358-1.7c-2.714,0-5.014,2.277-4.991,5.98,0,3.381,2.07,5.658,4.761,5.658a4.118,4.118,0,0,0,3.795-2.185h.046L406.8,0h1.817c-.069-.759-.092-1.886-.092-2.875V-16.33Zm0,11.661a3.516,3.516,0,0,1-.092.874,3.043,3.043,0,0,1-2.967,2.415c-2.185,0-3.289-1.863-3.289-4.117,0-2.461,1.242-4.3,3.335-4.3a2.977,2.977,0,0,1,2.921,2.346,3.573,3.573,0,0,1,.092.851ZM420.831-5.2a7.638,7.638,0,0,0,.069-.943c0-2.047-.966-5.244-4.6-5.244-3.243,0-5.221,2.645-5.221,6S413.126.23,416.553.23a9.016,9.016,0,0,0,3.7-.69l-.345-1.449a7.319,7.319,0,0,1-3.082.575A3.566,3.566,0,0,1,413.011-5.2Zm-7.8-1.449c.161-1.4,1.058-3.289,3.1-3.289,2.277,0,2.829,2,2.806,3.289ZM423.407,0h2.024V-6.693a2.91,2.91,0,0,1,.138-.943,2.876,2.876,0,0,1,2.714-2.07c1.909,0,2.576,1.495,2.576,3.289V0h2.024V-6.647c0-3.818-2.392-4.738-3.933-4.738a4.094,4.094,0,0,0-3.68,2.093h-.046l-.115-1.84h-1.794c.069.92.092,1.863.092,3.013Zm20.355-1.932a5.75,5.75,0,0,1-2.484.552,3.817,3.817,0,0,1-3.864-4.163c0-2.323,1.38-4.209,3.933-4.209a4.694,4.694,0,0,1,2.346.529l.46-1.564a6.766,6.766,0,0,0-2.806-.575,5.656,5.656,0,0,0-5.98,5.911c0,3.4,2.185,5.681,5.543,5.681a7.455,7.455,0,0,0,3.2-.644ZM448.5,0V-11.132h-2.024V0Zm-1.012-15.525a1.233,1.233,0,0,0-1.265,1.265,1.2,1.2,0,0,0,1.219,1.242,1.2,1.2,0,0,0,1.288-1.242A1.2,1.2,0,0,0,447.488-15.525ZM459.862,0a15.674,15.674,0,0,1-.184-2.668V-6.831c0-2.231-.828-4.554-4.232-4.554a6.909,6.909,0,0,0-3.657.989l.46,1.334a5.546,5.546,0,0,1,2.9-.828,2.3,2.3,0,0,1,2.53,2.576v.23c-4.3-.023-6.693,1.449-6.693,4.14a3.172,3.172,0,0,0,3.4,3.2,4.146,4.146,0,0,0,3.4-1.656h.069l.161,1.4Zm-2.139-3.749a2.113,2.113,0,0,1-.115.644,2.77,2.77,0,0,1-2.691,1.863,1.791,1.791,0,0,1-1.909-1.932c0-2.162,2.507-2.553,4.715-2.507ZM462.944,0h2.024V-16.33h-2.024Z" transform="translate(218.114 608.478)"/>
        <path id="Trazado_707132" data-name="Trazado 707132" d="M690.107,208.754H474.15A14.648,14.648,0,0,1,459.5,194.107V135.513a14.648,14.648,0,0,1,14.648-14.648H690.107a14.648,14.648,0,0,1,14.648,14.648v58.594a14.648,14.648,0,0,1-14.648,14.648" transform="translate(189.55 49.86)" fill="#f0a6ff"/>
        <path id="Trazado_707133" data-name="Trazado 707133" d="M690.107,286.383H474.15A14.647,14.647,0,0,1,459.5,271.736V213.143a14.648,14.648,0,0,1,14.648-14.649H690.107a14.648,14.648,0,0,1,14.648,14.649v58.592a14.647,14.647,0,0,1-14.648,14.648" transform="translate(189.55 81.883)" fill="#f0a6ff"/>
        <path id="Trazado_707134" data-name="Trazado 707134" d="M690.107,358.68H474.15A14.648,14.648,0,0,1,459.5,344.033V285.439a14.648,14.648,0,0,1,14.648-14.648H690.107a14.648,14.648,0,0,1,14.648,14.648v58.594a14.648,14.648,0,0,1-14.648,14.648" transform="translate(189.55 111.706)" fill="#f0a6ff"/>
      </g>
    </g>
    <path id="Trazado_707287" data-name="Trazado 707287" d="M6.8-6.208H2.608V-9.616H7.04v-1.168H1.216V0H7.28V-1.168H2.608V-5.056H6.8ZM8.128-7.744l2.624,3.792L8,0H9.552l1.12-1.744c.288-.464.56-.88.816-1.344h.032c.272.464.528.9.832,1.344L13.488,0h1.6l-2.72-4,2.64-3.744h-1.52L12.4-6.1c-.256.416-.512.816-.768,1.28h-.048c-.256-.432-.5-.832-.784-1.264L9.7-7.744Zm13.136,6.4a4,4,0,0,1-1.728.384,2.655,2.655,0,0,1-2.688-2.9,2.68,2.68,0,0,1,2.736-2.928,3.265,3.265,0,0,1,1.632.368l.32-1.088a4.707,4.707,0,0,0-1.952-.4,3.935,3.935,0,0,0-4.16,4.112A3.679,3.679,0,0,0,19.28.16,5.186,5.186,0,0,0,21.5-.288Zm7.92-2.272a5.31,5.31,0,0,0,.048-.656c0-1.424-.672-3.648-3.2-3.648-2.256,0-3.632,1.84-3.632,4.176A3.6,3.6,0,0,0,26.208.16a6.272,6.272,0,0,0,2.576-.48l-.24-1.008a5.092,5.092,0,0,1-2.144.4,2.481,2.481,0,0,1-2.656-2.688ZM23.76-4.624a2.333,2.333,0,0,1,2.16-2.288,2,2,0,0,1,1.952,2.288Zm12.5-6.736v4.624h-.032A2.589,2.589,0,0,0,33.888-7.92C32-7.92,30.4-6.336,30.416-3.76c0,2.352,1.44,3.936,3.312,3.936a2.864,2.864,0,0,0,2.64-1.52H36.4L36.464,0h1.264c-.048-.528-.064-1.312-.064-2v-9.36Zm0,8.112a2.446,2.446,0,0,1-.064.608A2.117,2.117,0,0,1,34.128-.96c-1.52,0-2.288-1.3-2.288-2.864,0-1.712.864-2.992,2.32-2.992a2.071,2.071,0,0,1,2.032,1.632,2.485,2.485,0,0,1,.064.592Zm9.968-.368a5.31,5.31,0,0,0,.048-.656c0-1.424-.672-3.648-3.2-3.648-2.256,0-3.632,1.84-3.632,4.176A3.6,3.6,0,0,0,43.248.16a6.272,6.272,0,0,0,2.576-.48l-.24-1.008a5.092,5.092,0,0,1-2.144.4,2.481,2.481,0,0,1-2.656-2.688ZM40.8-4.624a2.333,2.333,0,0,1,2.16-2.288,2,2,0,0,1,1.952,2.288ZM48.016,0h1.408V-4.656a2.025,2.025,0,0,1,.1-.656,2,2,0,0,1,1.888-1.44c1.328,0,1.792,1.04,1.792,2.288V0h1.408V-4.624c0-2.656-1.664-3.3-2.736-3.3a2.848,2.848,0,0,0-2.56,1.456H49.28l-.08-1.28H47.952c.048.64.064,1.3.064,2.1Zm9.072-9.6v1.856h-1.2v1.072h1.2v4.224a2.869,2.869,0,0,0,.544,2.016,1.951,1.951,0,0,0,1.52.592A3.447,3.447,0,0,0,60.4-.032l-.064-1.056a3.132,3.132,0,0,1-.816.1c-.784,0-1.056-.544-1.056-1.5V-6.672H60.48V-7.744H58.464V-9.968ZM68.112-3.616a5.311,5.311,0,0,0,.048-.656c0-1.424-.672-3.648-3.2-3.648-2.256,0-3.632,1.84-3.632,4.176A3.6,3.6,0,0,0,65.136.16a6.272,6.272,0,0,0,2.576-.48l-.24-1.008a5.092,5.092,0,0,1-2.144.4,2.481,2.481,0,0,1-2.656-2.688ZM62.688-4.624a2.333,2.333,0,0,1,2.16-2.288A2,2,0,0,1,66.8-4.624ZM69.36-.368A4.416,4.416,0,0,0,71.536.16c1.84,0,2.9-.96,2.9-2.32,0-1.152-.688-1.824-2.032-2.336-1.008-.384-1.472-.672-1.472-1.312,0-.576.464-1.056,1.3-1.056a3.014,3.014,0,0,1,1.584.448L74.16-7.44a3.865,3.865,0,0,0-1.9-.48,2.388,2.388,0,0,0-2.672,2.272c0,.928.656,1.7,2.048,2.192,1.04.384,1.44.752,1.44,1.424,0,.64-.48,1.152-1.5,1.152a3.69,3.69,0,0,1-1.856-.56Z" transform="translate(731.239 206.988)"/>
    <path id="Trazado_707288" data-name="Trazado 707288" d="M3.12-11.1a10.561,10.561,0,0,0-2.1,6.544,10.342,10.342,0,0,0,2.1,6.5h1.1a10.783,10.783,0,0,1-2.016-6.5A10.552,10.552,0,0,1,4.224-11.1ZM5.712,3.168H7.1V-1.04h.032A2.716,2.716,0,0,0,9.52.176c1.824,0,3.52-1.376,3.52-4.16,0-2.352-1.408-3.936-3.28-3.936a3.044,3.044,0,0,0-2.752,1.5H6.976L6.912-7.744H5.648c.032.736.064,1.536.064,2.528ZM7.1-4.48a2.283,2.283,0,0,1,.1-.576A2.247,2.247,0,0,1,9.328-6.8c1.488,0,2.3,1.328,2.3,2.88,0,1.776-.864,2.992-2.352,2.992A2.173,2.173,0,0,1,7.168-2.576,3.171,3.171,0,0,1,7.1-3.152ZM21.3-7.744H19.888v4.752a2.059,2.059,0,0,1-.128.72A2.036,2.036,0,0,1,17.9-.992c-1.28,0-1.728-.992-1.728-2.464V-7.744H14.768v4.528C14.768-.5,16.224.176,17.44.176A2.914,2.914,0,0,0,20-1.264h.032L20.112,0H21.36c-.048-.608-.064-1.312-.064-2.112Zm8.56,4.128a5.31,5.31,0,0,0,.048-.656c0-1.424-.672-3.648-3.2-3.648-2.256,0-3.632,1.84-3.632,4.176A3.6,3.6,0,0,0,26.88.16a6.272,6.272,0,0,0,2.576-.48l-.24-1.008a5.092,5.092,0,0,1-2.144.4,2.481,2.481,0,0,1-2.656-2.688ZM24.432-4.624a2.333,2.333,0,0,1,2.16-2.288,2,2,0,0,1,1.952,2.288Zm12.5-6.736v4.624H36.9A2.589,2.589,0,0,0,34.56-7.92c-1.888,0-3.488,1.584-3.472,4.16,0,2.352,1.44,3.936,3.312,3.936a2.864,2.864,0,0,0,2.64-1.52h.032L37.136,0H38.4c-.048-.528-.064-1.312-.064-2v-9.36Zm0,8.112a2.446,2.446,0,0,1-.064.608A2.117,2.117,0,0,1,34.8-.96c-1.52,0-2.288-1.3-2.288-2.864,0-1.712.864-2.992,2.32-2.992a2.071,2.071,0,0,1,2.032,1.632,2.485,2.485,0,0,1,.064.592ZM46.9-3.616a5.311,5.311,0,0,0,.048-.656c0-1.424-.672-3.648-3.2-3.648-2.256,0-3.632,1.84-3.632,4.176A3.6,3.6,0,0,0,43.92.16,6.272,6.272,0,0,0,46.5-.32l-.24-1.008a5.092,5.092,0,0,1-2.144.4,2.481,2.481,0,0,1-2.656-2.688ZM41.472-4.624a2.333,2.333,0,0,1,2.16-2.288,2,2,0,0,1,1.952,2.288ZM48.688,0H50.1V-4.656a2.025,2.025,0,0,1,.1-.656,2,2,0,0,1,1.888-1.44c1.328,0,1.792,1.04,1.792,2.288V0H55.28V-4.624c0-2.656-1.664-3.3-2.736-3.3a2.848,2.848,0,0,0-2.56,1.456h-.032l-.08-1.28H48.624c.048.64.064,1.3.064,2.1Zm13.68,0V-7.744H60.96V0Zm-.7-10.8a.858.858,0,0,0-.88.88.837.837,0,0,0,.848.864.832.832,0,0,0,.9-.864A.836.836,0,0,0,61.664-10.8ZM64.7,0h1.408V-4.656a2.024,2.024,0,0,1,.1-.656A2,2,0,0,1,68.1-6.752c1.328,0,1.792,1.04,1.792,2.288V0H71.3V-4.624c0-2.656-1.664-3.3-2.736-3.3A2.848,2.848,0,0,0,66-6.464h-.032l-.08-1.28H64.64c.048.64.064,1.3.064,2.1Zm7.44-7.744L75.008-.608a1.228,1.228,0,0,1,.1.368A1.011,1.011,0,0,1,74.992.1a4.269,4.269,0,0,1-1.184,1.568,3.724,3.724,0,0,1-1.232.688l.352,1.184a3.815,3.815,0,0,0,1.728-.912c.96-.832,1.648-2.192,2.656-4.848l2.112-5.52H77.936L76.4-3.2c-.192.56-.352,1.152-.5,1.616h-.032c-.128-.464-.32-1.072-.5-1.584l-1.7-4.576Zm14.48,4.128a5.311,5.311,0,0,0,.048-.656c0-1.424-.672-3.648-3.2-3.648-2.256,0-3.632,1.84-3.632,4.176A3.6,3.6,0,0,0,83.648.16a6.272,6.272,0,0,0,2.576-.48l-.24-1.008a5.092,5.092,0,0,1-2.144.4,2.481,2.481,0,0,1-2.656-2.688ZM81.2-4.624a2.333,2.333,0,0,1,2.16-2.288,2,2,0,0,1,1.952,2.288Zm12.5,3.28a4,4,0,0,1-1.728.384,2.655,2.655,0,0,1-2.688-2.9,2.68,2.68,0,0,1,2.736-2.928,3.265,3.265,0,0,1,1.632.368l.32-1.088a4.707,4.707,0,0,0-1.952-.4,3.935,3.935,0,0,0-4.16,4.112A3.679,3.679,0,0,0,91.712.16a5.186,5.186,0,0,0,2.224-.448ZM96.3-9.6v1.856H95.1v1.072h1.2v4.224a2.869,2.869,0,0,0,.544,2.016,1.951,1.951,0,0,0,1.52.592,3.447,3.447,0,0,0,1.248-.192l-.064-1.056a3.132,3.132,0,0,1-.816.1c-.784,0-1.056-.544-1.056-1.5V-6.672H99.7V-7.744H97.68V-9.968ZM106.848,0a10.9,10.9,0,0,1-.128-1.856v-2.9c0-1.552-.576-3.168-2.944-3.168a4.806,4.806,0,0,0-2.544.688l.32.928a3.858,3.858,0,0,1,2.016-.576,1.6,1.6,0,0,1,1.76,1.792v.16c-2.992-.016-4.656,1.008-4.656,2.88A2.206,2.206,0,0,0,103.04.176a2.884,2.884,0,0,0,2.368-1.152h.048l.112.976ZM105.36-2.608a1.469,1.469,0,0,1-.08.448,1.927,1.927,0,0,1-1.872,1.3,1.246,1.246,0,0,1-1.328-1.344c0-1.5,1.744-1.776,3.28-1.744ZM108.992,0h1.392V-4.128a3.963,3.963,0,0,1,.064-.656,1.975,1.975,0,0,1,1.888-1.808,2.115,2.115,0,0,1,.48.048V-7.872a1.523,1.523,0,0,0-.4-.048,2.323,2.323,0,0,0-2.144,1.7h-.064l-.048-1.52h-1.232c.048.72.064,1.5.064,2.416Zm4.688-.368a4.416,4.416,0,0,0,2.176.528c1.84,0,2.9-.96,2.9-2.32,0-1.152-.688-1.824-2.032-2.336-1.008-.384-1.472-.672-1.472-1.312,0-.576.464-1.056,1.3-1.056a3.014,3.014,0,0,1,1.584.448l.352-1.024a3.865,3.865,0,0,0-1.9-.48A2.388,2.388,0,0,0,113.9-5.648c0,.928.656,1.7,2.048,2.192,1.04.384,1.44.752,1.44,1.424,0,.64-.48,1.152-1.5,1.152a3.69,3.69,0,0,1-1.856-.56Zm13.1-3.248a5.311,5.311,0,0,0,.048-.656c0-1.424-.672-3.648-3.2-3.648C121.376-7.92,120-6.08,120-3.744a3.6,3.6,0,0,0,3.808,3.9,6.272,6.272,0,0,0,2.576-.48l-.24-1.008a5.092,5.092,0,0,1-2.144.4,2.481,2.481,0,0,1-2.656-2.688ZM121.36-4.624a2.333,2.333,0,0,1,2.16-2.288,2,2,0,0,1,1.952,2.288ZM137.536,0a10.9,10.9,0,0,1-.128-1.856v-2.9c0-1.552-.576-3.168-2.944-3.168a4.806,4.806,0,0,0-2.544.688l.32.928a3.858,3.858,0,0,1,2.016-.576,1.6,1.6,0,0,1,1.76,1.792v.16c-2.992-.016-4.656,1.008-4.656,2.88A2.206,2.206,0,0,0,133.728.176,2.884,2.884,0,0,0,136.1-.976h.048l.112.976Zm-1.488-2.608a1.469,1.469,0,0,1-.08.448,1.927,1.927,0,0,1-1.872,1.3,1.246,1.246,0,0,1-1.328-1.344c0-1.5,1.744-1.776,3.28-1.744ZM143.072,0h1.408V-11.36h-1.408Zm9.344,0a10.9,10.9,0,0,1-.128-1.856v-2.9c0-1.552-.576-3.168-2.944-3.168a4.806,4.806,0,0,0-2.544.688l.32.928a3.858,3.858,0,0,1,2.016-.576,1.6,1.6,0,0,1,1.76,1.792v.16c-2.992-.016-4.656,1.008-4.656,2.88A2.206,2.206,0,0,0,148.608.176a2.884,2.884,0,0,0,2.368-1.152h.048l.112.976Zm-1.488-2.608a1.469,1.469,0,0,1-.08.448,1.927,1.927,0,0,1-1.872,1.3,1.246,1.246,0,0,1-1.328-1.344c0-1.5,1.744-1.776,3.28-1.744ZM157.952,0h1.392V-4.128a3.963,3.963,0,0,1,.064-.656A1.975,1.975,0,0,1,161.3-6.592a2.115,2.115,0,0,1,.48.048V-7.872a1.523,1.523,0,0,0-.4-.048,2.323,2.323,0,0,0-2.144,1.7h-.064l-.048-1.52h-1.232c.048.72.064,1.5.064,2.416ZM169.1-3.616a5.309,5.309,0,0,0,.048-.656c0-1.424-.672-3.648-3.2-3.648-2.256,0-3.632,1.84-3.632,4.176a3.6,3.6,0,0,0,3.808,3.9A6.272,6.272,0,0,0,168.7-.32l-.24-1.008a5.092,5.092,0,0,1-2.144.4,2.481,2.481,0,0,1-2.656-2.688ZM163.68-4.624a2.333,2.333,0,0,1,2.16-2.288,2,2,0,0,1,1.952,2.288Zm12.5-6.736v4.624h-.032a2.589,2.589,0,0,0-2.336-1.184c-1.888,0-3.488,1.584-3.472,4.16,0,2.352,1.44,3.936,3.312,3.936a2.864,2.864,0,0,0,2.64-1.52h.032L176.384,0h1.264c-.048-.528-.064-1.312-.064-2v-9.36Zm0,8.112a2.446,2.446,0,0,1-.064.608,2.117,2.117,0,0,1-2.064,1.68c-1.52,0-2.288-1.3-2.288-2.864,0-1.712.864-2.992,2.32-2.992a2.071,2.071,0,0,1,2.032,1.632,2.485,2.485,0,0,1,.064.592Zm3.984,5.184a10.386,10.386,0,0,0,2.1-6.528,10.19,10.19,0,0,0-2.1-6.512h-1.088a10.606,10.606,0,0,1,2.016,6.5,10.828,10.828,0,0,1-2.016,6.544Z" transform="translate(675.795 227.328)"/>
    <path id="Trazado_707289" data-name="Trazado 707289" d="M8.464-1.456a5.572,5.572,0,0,1-2.272.448c-2.624,0-4.144-1.7-4.144-4.336,0-2.832,1.68-4.448,4.208-4.448a5.07,5.07,0,0,1,2.176.448l.336-1.136a5.781,5.781,0,0,0-2.56-.48A5.367,5.367,0,0,0,.576-5.3C.576-1.76,2.864.16,5.9.16A6.91,6.91,0,0,0,8.752-.352ZM13.392-7.92a3.781,3.781,0,0,0-3.84,4.112A3.682,3.682,0,0,0,13.264.176,3.785,3.785,0,0,0,17.12-3.936,3.667,3.667,0,0,0,13.392-7.92ZM13.36-6.864c1.664,0,2.32,1.664,2.32,2.976,0,1.744-1.008,3.008-2.352,3.008-1.376,0-2.352-1.28-2.352-2.976C10.976-5.328,11.7-6.864,13.36-6.864ZM18.9,0H20.3V-4.656a2.024,2.024,0,0,1,.1-.656,2,2,0,0,1,1.888-1.44c1.328,0,1.792,1.04,1.792,2.288V0h1.408V-4.624c0-2.656-1.664-3.3-2.736-3.3a2.848,2.848,0,0,0-2.56,1.456H20.16l-.08-1.28H18.832c.048.64.064,1.3.064,2.1Zm8.336-.368A4.416,4.416,0,0,0,29.408.16c1.84,0,2.9-.96,2.9-2.32,0-1.152-.688-1.824-2.032-2.336C29.264-4.88,28.8-5.168,28.8-5.808c0-.576.464-1.056,1.3-1.056a3.014,3.014,0,0,1,1.584.448l.352-1.024a3.865,3.865,0,0,0-1.9-.48,2.388,2.388,0,0,0-2.672,2.272c0,.928.656,1.7,2.048,2.192,1.04.384,1.44.752,1.44,1.424,0,.64-.48,1.152-1.5,1.152a3.69,3.69,0,0,1-1.856-.56Zm13.36-7.376H39.184v4.752a2.059,2.059,0,0,1-.128.72A2.036,2.036,0,0,1,37.2-.992c-1.28,0-1.728-.992-1.728-2.464V-7.744H34.064v4.528C34.064-.5,35.52.176,36.736.176a2.914,2.914,0,0,0,2.56-1.44h.032L39.408,0h1.248c-.048-.608-.064-1.312-.064-2.112ZM42.928,0H44.3V-4.672a1.941,1.941,0,0,1,.112-.688A1.924,1.924,0,0,1,46.16-6.768c1.072,0,1.616.9,1.616,2.128V0h1.376V-4.784a2.319,2.319,0,0,1,.112-.7,1.823,1.823,0,0,1,1.664-1.28c1.136,0,1.68.9,1.68,2.384V0h1.376V-4.56c0-2.688-1.52-3.36-2.544-3.36a2.643,2.643,0,0,0-1.712.544,3.19,3.19,0,0,0-.864,1.008h-.032A2.289,2.289,0,0,0,46.64-7.92,2.669,2.669,0,0,0,44.208-6.5H44.16L44.1-7.744H42.864c.048.64.064,1.3.064,2.1ZM59.552-7.92a3.781,3.781,0,0,0-3.84,4.112A3.682,3.682,0,0,0,59.424.176,3.785,3.785,0,0,0,63.28-3.936,3.667,3.667,0,0,0,59.552-7.92ZM59.52-6.864c1.664,0,2.32,1.664,2.32,2.976,0,1.744-1.008,3.008-2.352,3.008-1.376,0-2.352-1.28-2.352-2.976C57.136-5.328,57.856-6.864,59.52-6.864Zm14.208-4.5v4.624H73.7A2.589,2.589,0,0,0,71.36-7.92c-1.888,0-3.488,1.584-3.472,4.16,0,2.352,1.44,3.936,3.312,3.936a2.864,2.864,0,0,0,2.64-1.52h.032L73.936,0H75.2c-.048-.528-.064-1.312-.064-2v-9.36Zm0,8.112a2.446,2.446,0,0,1-.064.608A2.117,2.117,0,0,1,71.6-.96c-1.52,0-2.288-1.3-2.288-2.864,0-1.712.864-2.992,2.32-2.992a2.071,2.071,0,0,1,2.032,1.632,2.486,2.486,0,0,1,.064.592ZM83.7-3.616a5.311,5.311,0,0,0,.048-.656c0-1.424-.672-3.648-3.2-3.648-2.256,0-3.632,1.84-3.632,4.176A3.6,3.6,0,0,0,80.72.16,6.272,6.272,0,0,0,83.3-.32l-.24-1.008a5.092,5.092,0,0,1-2.144.4,2.481,2.481,0,0,1-2.656-2.688ZM78.272-4.624a2.333,2.333,0,0,1,2.16-2.288,2,2,0,0,1,1.952,2.288ZM95.1-3.616a5.311,5.311,0,0,0,.048-.656c0-1.424-.672-3.648-3.2-3.648-2.256,0-3.632,1.84-3.632,4.176A3.6,3.6,0,0,0,92.128.16,6.272,6.272,0,0,0,94.7-.32l-.24-1.008a5.092,5.092,0,0,1-2.144.4,2.481,2.481,0,0,1-2.656-2.688ZM89.68-4.624a2.333,2.333,0,0,1,2.16-2.288,2,2,0,0,1,1.952,2.288ZM96.9,0H98.3V-4.656a2.025,2.025,0,0,1,.1-.656,2,2,0,0,1,1.888-1.44c1.328,0,1.792,1.04,1.792,2.288V0h1.408V-4.624c0-2.656-1.664-3.3-2.736-3.3a2.848,2.848,0,0,0-2.56,1.456H98.16l-.08-1.28H96.832c.048.64.064,1.3.064,2.1ZM112-3.616a5.311,5.311,0,0,0,.048-.656c0-1.424-.672-3.648-3.2-3.648-2.256,0-3.632,1.84-3.632,4.176a3.6,3.6,0,0,0,3.808,3.9A6.272,6.272,0,0,0,111.6-.32l-.24-1.008a5.092,5.092,0,0,1-2.144.4,2.481,2.481,0,0,1-2.656-2.688Zm-5.424-1.008a2.333,2.333,0,0,1,2.16-2.288,2,2,0,0,1,1.952,2.288ZM113.792,0h1.392V-4.128a3.963,3.963,0,0,1,.064-.656,1.975,1.975,0,0,1,1.888-1.808,2.115,2.115,0,0,1,.48.048V-7.872a1.523,1.523,0,0,0-.4-.048,2.323,2.323,0,0,0-2.144,1.7h-.064l-.048-1.52h-1.232c.048.72.064,1.5.064,2.416Zm10.416-7.744-.064,1.168h-.032A2.576,2.576,0,0,0,121.7-7.92c-1.776,0-3.488,1.488-3.488,4.112,0,2.144,1.376,3.776,3.3,3.776a2.764,2.764,0,0,0,2.464-1.3H124v.864c0,1.952-1.056,2.7-2.5,2.7a4.367,4.367,0,0,1-2.272-.608L118.88,2.7a5,5,0,0,0,2.576.64,4.105,4.105,0,0,0,2.816-.928c.752-.672,1.1-1.76,1.1-3.536v-4.5c0-.944.032-1.568.064-2.128ZM123.984-3.3a2.45,2.45,0,0,1-.112.752A2.058,2.058,0,0,1,121.92-1.1c-1.52,0-2.288-1.264-2.288-2.784,0-1.792.96-2.928,2.3-2.928A2.028,2.028,0,0,1,123.9-5.328a2.005,2.005,0,0,1,.08.64Zm4.96,3.3V-7.744h-1.408V0Zm-.1-11.088L127.44-8.8h1.008l1.952-2.288Zm8,11.088a10.9,10.9,0,0,1-.128-1.856v-2.9c0-1.552-.576-3.168-2.944-3.168a4.806,4.806,0,0,0-2.544.688l.32.928a3.858,3.858,0,0,1,2.016-.576,1.6,1.6,0,0,1,1.76,1.792v.16c-2.992-.016-4.656,1.008-4.656,2.88A2.206,2.206,0,0,0,133.04.176a2.884,2.884,0,0,0,2.368-1.152h.048l.112.976ZM135.36-2.608a1.469,1.469,0,0,1-.08.448,1.927,1.927,0,0,1-1.872,1.3,1.246,1.246,0,0,1-1.328-1.344c0-1.5,1.744-1.776,3.28-1.744Z" transform="translate(692.152 319.74)"/>
    <path id="Trazado_707290" data-name="Trazado 707290" d="M9.84-11.36v4.624H9.808A2.589,2.589,0,0,0,7.472-7.92C5.584-7.92,3.984-6.336,4-3.76,4-1.408,5.44.176,7.312.176a2.864,2.864,0,0,0,2.64-1.52h.032L10.048,0h1.264c-.048-.528-.064-1.312-.064-2v-9.36Zm0,8.112a2.446,2.446,0,0,1-.064.608A2.117,2.117,0,0,1,7.712-.96c-1.52,0-2.288-1.3-2.288-2.864,0-1.712.864-2.992,2.32-2.992A2.071,2.071,0,0,1,9.776-5.184a2.485,2.485,0,0,1,.064.592Zm9.968-.368a5.31,5.31,0,0,0,.048-.656c0-1.424-.672-3.648-3.2-3.648-2.256,0-3.632,1.84-3.632,4.176A3.6,3.6,0,0,0,16.832.16a6.272,6.272,0,0,0,2.576-.48l-.24-1.008a5.092,5.092,0,0,1-2.144.4,2.481,2.481,0,0,1-2.656-2.688ZM14.384-4.624a2.333,2.333,0,0,1,2.16-2.288A2,2,0,0,1,18.5-4.624ZM24.992,0H26.4V-11.36H24.992Zm9.344,0a10.9,10.9,0,0,1-.128-1.856v-2.9c0-1.552-.576-3.168-2.944-3.168a4.806,4.806,0,0,0-2.544.688l.32.928a3.858,3.858,0,0,1,2.016-.576,1.6,1.6,0,0,1,1.76,1.792v.16c-2.992-.016-4.656,1.008-4.656,2.88A2.206,2.206,0,0,0,30.528.176,2.884,2.884,0,0,0,32.9-.976h.048L33.056,0ZM32.848-2.608a1.47,1.47,0,0,1-.08.448A1.927,1.927,0,0,1,30.9-.864a1.246,1.246,0,0,1-1.328-1.344c0-1.5,1.744-1.776,3.28-1.744ZM39.872,0h1.392V-4.128a3.963,3.963,0,0,1,.064-.656,1.975,1.975,0,0,1,1.888-1.808,2.115,2.115,0,0,1,.48.048V-7.872a1.523,1.523,0,0,0-.4-.048,2.323,2.323,0,0,0-2.144,1.7h-.064l-.048-1.52H39.808c.048.72.064,1.5.064,2.416ZM51.024-3.616a5.31,5.31,0,0,0,.048-.656c0-1.424-.672-3.648-3.2-3.648-2.256,0-3.632,1.84-3.632,4.176A3.6,3.6,0,0,0,48.048.16a6.272,6.272,0,0,0,2.576-.48l-.24-1.008a5.092,5.092,0,0,1-2.144.4,2.481,2.481,0,0,1-2.656-2.688ZM45.6-4.624a2.333,2.333,0,0,1,2.16-2.288,2,2,0,0,1,1.952,2.288ZM58.1-11.36v4.624h-.032A2.589,2.589,0,0,0,55.728-7.92c-1.888,0-3.488,1.584-3.472,4.16,0,2.352,1.44,3.936,3.312,3.936a2.864,2.864,0,0,0,2.64-1.52h.032L58.3,0h1.264C59.52-.528,59.5-1.312,59.5-2v-9.36Zm0,8.112a2.446,2.446,0,0,1-.064.608A2.117,2.117,0,0,1,55.968-.96c-1.52,0-2.288-1.3-2.288-2.864,0-1.712.864-2.992,2.32-2.992a2.071,2.071,0,0,1,2.032,1.632,2.485,2.485,0,0,1,.064.592Z" transform="translate(733.137 340.081)"/>
    <path id="Trazado_707239" data-name="Trazado 707239" d="M8.464-1.456a5.572,5.572,0,0,1-2.272.448c-2.624,0-4.144-1.7-4.144-4.336,0-2.832,1.68-4.448,4.208-4.448a5.07,5.07,0,0,1,2.176.448l.336-1.136a5.781,5.781,0,0,0-2.56-.48A5.367,5.367,0,0,0,.576-5.3C.576-1.76,2.864.16,5.9.16A6.91,6.91,0,0,0,8.752-.352ZM13.392-7.92a3.781,3.781,0,0,0-3.84,4.112A3.682,3.682,0,0,0,13.264.176,3.785,3.785,0,0,0,17.12-3.936,3.667,3.667,0,0,0,13.392-7.92ZM13.36-6.864c1.664,0,2.32,1.664,2.32,2.976,0,1.744-1.008,3.008-2.352,3.008-1.376,0-2.352-1.28-2.352-2.976C10.976-5.328,11.7-6.864,13.36-6.864ZM18.9,0H20.3V-4.656a2.024,2.024,0,0,1,.1-.656,2,2,0,0,1,1.888-1.44c1.328,0,1.792,1.04,1.792,2.288V0h1.408V-4.624c0-2.656-1.664-3.3-2.736-3.3a2.848,2.848,0,0,0-2.56,1.456H20.16l-.08-1.28H18.832c.048.64.064,1.3.064,2.1Zm8.336-.368A4.416,4.416,0,0,0,29.408.16c1.84,0,2.9-.96,2.9-2.32,0-1.152-.688-1.824-2.032-2.336C29.264-4.88,28.8-5.168,28.8-5.808c0-.576.464-1.056,1.3-1.056a3.014,3.014,0,0,1,1.584.448l.352-1.024a3.865,3.865,0,0,0-1.9-.48,2.388,2.388,0,0,0-2.672,2.272c0,.928.656,1.7,2.048,2.192,1.04.384,1.44.752,1.44,1.424,0,.64-.48,1.152-1.5,1.152a3.69,3.69,0,0,1-1.856-.56Zm13.36-7.376H39.184v4.752a2.059,2.059,0,0,1-.128.72A2.036,2.036,0,0,1,37.2-.992c-1.28,0-1.728-.992-1.728-2.464V-7.744H34.064v4.528C34.064-.5,35.52.176,36.736.176a2.914,2.914,0,0,0,2.56-1.44h.032L39.408,0h1.248c-.048-.608-.064-1.312-.064-2.112ZM42.928,0H44.3V-4.672a1.941,1.941,0,0,1,.112-.688A1.924,1.924,0,0,1,46.16-6.768c1.072,0,1.616.9,1.616,2.128V0h1.376V-4.784a2.319,2.319,0,0,1,.112-.7,1.823,1.823,0,0,1,1.664-1.28c1.136,0,1.68.9,1.68,2.384V0h1.376V-4.56c0-2.688-1.52-3.36-2.544-3.36a2.643,2.643,0,0,0-1.712.544,3.19,3.19,0,0,0-.864,1.008h-.032A2.289,2.289,0,0,0,46.64-7.92,2.669,2.669,0,0,0,44.208-6.5H44.16L44.1-7.744H42.864c.048.64.064,1.3.064,2.1ZM59.552-7.92a3.781,3.781,0,0,0-3.84,4.112A3.682,3.682,0,0,0,59.424.176,3.785,3.785,0,0,0,63.28-3.936,3.667,3.667,0,0,0,59.552-7.92ZM59.52-6.864c1.664,0,2.32,1.664,2.32,2.976,0,1.744-1.008,3.008-2.352,3.008-1.376,0-2.352-1.28-2.352-2.976C57.136-5.328,57.856-6.864,59.52-6.864Zm14.208-4.5v4.624H73.7A2.589,2.589,0,0,0,71.36-7.92c-1.888,0-3.488,1.584-3.472,4.16,0,2.352,1.44,3.936,3.312,3.936a2.864,2.864,0,0,0,2.64-1.52h.032L73.936,0H75.2c-.048-.528-.064-1.312-.064-2v-9.36Zm0,8.112a2.446,2.446,0,0,1-.064.608A2.117,2.117,0,0,1,71.6-.96c-1.52,0-2.288-1.3-2.288-2.864,0-1.712.864-2.992,2.32-2.992a2.071,2.071,0,0,1,2.032,1.632,2.486,2.486,0,0,1,.064.592ZM83.7-3.616a5.311,5.311,0,0,0,.048-.656c0-1.424-.672-3.648-3.2-3.648-2.256,0-3.632,1.84-3.632,4.176A3.6,3.6,0,0,0,80.72.16,6.272,6.272,0,0,0,83.3-.32l-.24-1.008a5.092,5.092,0,0,1-2.144.4,2.481,2.481,0,0,1-2.656-2.688ZM78.272-4.624a2.333,2.333,0,0,1,2.16-2.288,2,2,0,0,1,1.952,2.288ZM95.1-3.616a5.311,5.311,0,0,0,.048-.656c0-1.424-.672-3.648-3.2-3.648-2.256,0-3.632,1.84-3.632,4.176A3.6,3.6,0,0,0,92.128.16,6.272,6.272,0,0,0,94.7-.32l-.24-1.008a5.092,5.092,0,0,1-2.144.4,2.481,2.481,0,0,1-2.656-2.688ZM89.68-4.624a2.333,2.333,0,0,1,2.16-2.288,2,2,0,0,1,1.952,2.288ZM96.9,0H98.3V-11.36H96.9Zm10-3.616a5.311,5.311,0,0,0,.048-.656c0-1.424-.672-3.648-3.2-3.648-2.256,0-3.632,1.84-3.632,4.176A3.6,3.6,0,0,0,103.92.16,6.272,6.272,0,0,0,106.5-.32l-.24-1.008a5.092,5.092,0,0,1-2.144.4,2.481,2.481,0,0,1-2.656-2.688Zm-5.424-1.008a2.333,2.333,0,0,1,2.16-2.288,2,2,0,0,1,1.952,2.288Zm12.5,3.28a4,4,0,0,1-1.728.384,2.655,2.655,0,0,1-2.688-2.9,2.68,2.68,0,0,1,2.736-2.928,3.265,3.265,0,0,1,1.632.368l.32-1.088a4.707,4.707,0,0,0-1.952-.4,3.935,3.935,0,0,0-4.16,4.112A3.679,3.679,0,0,0,111.984.16a5.186,5.186,0,0,0,2.224-.448ZM116.592-9.6v1.856h-1.2v1.072h1.2v4.224a2.869,2.869,0,0,0,.544,2.016,1.951,1.951,0,0,0,1.52.592A3.447,3.447,0,0,0,119.9-.032l-.064-1.056a3.132,3.132,0,0,1-.816.1c-.784,0-1.056-.544-1.056-1.5V-6.672h2.016V-7.744h-2.016V-9.968ZM121.568,0h1.392V-4.128a3.963,3.963,0,0,1,.064-.656,1.975,1.975,0,0,1,1.888-1.808,2.115,2.115,0,0,1,.48.048V-7.872a1.523,1.523,0,0,0-.4-.048,2.323,2.323,0,0,0-2.144,1.7h-.064l-.048-1.52H121.5c.048.72.064,1.5.064,2.416Zm6.768,0V-7.744h-1.408V0Zm-.7-10.8a.858.858,0,0,0-.88.88.837.837,0,0,0,.848.864.832.832,0,0,0,.9-.864A.836.836,0,0,0,127.632-10.8Zm8.32,9.456a4,4,0,0,1-1.728.384,2.655,2.655,0,0,1-2.688-2.9,2.68,2.68,0,0,1,2.736-2.928,3.265,3.265,0,0,1,1.632.368l.32-1.088a4.707,4.707,0,0,0-1.952-.4,3.935,3.935,0,0,0-4.16,4.112A3.679,3.679,0,0,0,133.968.16a5.186,5.186,0,0,0,2.224-.448ZM139.248,0V-7.744H137.84V0Zm-.7-10.8a.858.858,0,0,0-.88.88.837.837,0,0,0,.848.864.832.832,0,0,0,.9-.864A.836.836,0,0,0,138.544-10.8Zm8.32-.56v4.624h-.032A2.589,2.589,0,0,0,144.5-7.92c-1.888,0-3.488,1.584-3.472,4.16,0,2.352,1.44,3.936,3.312,3.936a2.864,2.864,0,0,0,2.64-1.52h.032L147.072,0h1.264c-.048-.528-.064-1.312-.064-2v-9.36Zm0,8.112a2.446,2.446,0,0,1-.064.608,2.117,2.117,0,0,1-2.064,1.68c-1.52,0-2.288-1.3-2.288-2.864,0-1.712.864-2.992,2.32-2.992A2.071,2.071,0,0,1,146.8-5.184a2.485,2.485,0,0,1,.064.592ZM156.176,0a10.9,10.9,0,0,1-.128-1.856v-2.9c0-1.552-.576-3.168-2.944-3.168a4.806,4.806,0,0,0-2.544.688l.32.928A3.858,3.858,0,0,1,152.9-6.88a1.6,1.6,0,0,1,1.76,1.792v.16C151.664-4.944,150-3.92,150-2.048A2.206,2.206,0,0,0,152.368.176a2.884,2.884,0,0,0,2.368-1.152h.048L154.9,0Zm-1.488-2.608a1.469,1.469,0,0,1-.08.448,1.927,1.927,0,0,1-1.872,1.3,1.246,1.246,0,0,1-1.328-1.344c0-1.5,1.744-1.776,3.28-1.744ZM163.6-11.36v4.624h-.032a2.589,2.589,0,0,0-2.336-1.184c-1.888,0-3.488,1.584-3.472,4.16,0,2.352,1.44,3.936,3.312,3.936a2.864,2.864,0,0,0,2.64-1.52h.032L163.808,0h1.264c-.048-.528-.064-1.312-.064-2v-9.36Zm0,8.112a2.446,2.446,0,0,1-.064.608,2.117,2.117,0,0,1-2.064,1.68c-1.52,0-2.288-1.3-2.288-2.864,0-1.712.864-2.992,2.32-2.992a2.071,2.071,0,0,1,2.032,1.632,2.485,2.485,0,0,1,.064.592Z" transform="translate(674.557 63.438)"/>
    <path id="Trazado_707238" data-name="Trazado 707238" d="M9.424-5.664H5.872v1.12H8.064v3.216a4.54,4.54,0,0,1-1.856.288c-2.512,0-4.16-1.616-4.16-4.352A4.033,4.033,0,0,1,6.384-9.728a5.59,5.59,0,0,1,2.384.464L9.1-10.4a6.667,6.667,0,0,0-2.688-.5C2.8-10.9.592-8.544.576-5.328a5.548,5.548,0,0,0,1.5,4.016A5.543,5.543,0,0,0,6.112.112,10.047,10.047,0,0,0,9.424-.48Zm8.224,2.048a5.31,5.31,0,0,0,.048-.656c0-1.424-.672-3.648-3.2-3.648-2.256,0-3.632,1.84-3.632,4.176A3.6,3.6,0,0,0,14.672.16a6.272,6.272,0,0,0,2.576-.48l-.24-1.008a5.092,5.092,0,0,1-2.144.4,2.481,2.481,0,0,1-2.656-2.688ZM12.224-4.624a2.333,2.333,0,0,1,2.16-2.288,2,2,0,0,1,1.952,2.288ZM19.28,0h1.408V-4.656a2.024,2.024,0,0,1,.1-.656,2,2,0,0,1,1.888-1.44c1.328,0,1.792,1.04,1.792,2.288V0h1.408V-4.624c0-2.656-1.664-3.3-2.736-3.3a2.848,2.848,0,0,0-2.56,1.456h-.032l-.08-1.28H19.216c.048.64.064,1.3.064,2.1ZM34.224-3.616a5.31,5.31,0,0,0,.048-.656c0-1.424-.672-3.648-3.2-3.648-2.256,0-3.632,1.84-3.632,4.176A3.6,3.6,0,0,0,31.248.16a6.272,6.272,0,0,0,2.576-.48l-.24-1.008a5.092,5.092,0,0,1-2.144.4,2.481,2.481,0,0,1-2.656-2.688ZM28.8-4.624a2.333,2.333,0,0,1,2.16-2.288,2,2,0,0,1,1.952,2.288ZM35.856,0h1.392V-4.128a3.963,3.963,0,0,1,.064-.656A1.975,1.975,0,0,1,39.2-6.592a2.115,2.115,0,0,1,.48.048V-7.872a1.523,1.523,0,0,0-.4-.048,2.323,2.323,0,0,0-2.144,1.7h-.064l-.048-1.52H35.792c.048.72.064,1.5.064,2.416Zm10.56,0a10.9,10.9,0,0,1-.128-1.856v-2.9c0-1.552-.576-3.168-2.944-3.168a4.806,4.806,0,0,0-2.544.688l.32.928a3.858,3.858,0,0,1,2.016-.576A1.6,1.6,0,0,1,44.9-5.088v.16C41.9-4.944,40.24-3.92,40.24-2.048A2.206,2.206,0,0,0,42.608.176,2.884,2.884,0,0,0,44.976-.976h.048L45.136,0ZM44.928-2.608a1.47,1.47,0,0,1-.08.448,1.927,1.927,0,0,1-1.872,1.3,1.246,1.246,0,0,1-1.328-1.344c0-1.5,1.744-1.776,3.28-1.744ZM53.68-1.344a4,4,0,0,1-1.728.384,2.655,2.655,0,0,1-2.688-2.9A2.68,2.68,0,0,1,52-6.784a3.265,3.265,0,0,1,1.632.368l.32-1.088A4.707,4.707,0,0,0,52-7.9a3.935,3.935,0,0,0-4.16,4.112A3.679,3.679,0,0,0,51.7.16,5.186,5.186,0,0,0,53.92-.288ZM56.816,0V-7.744H55.408V0Zm-.7-10.8a.858.858,0,0,0-.88.88.837.837,0,0,0,.848.864.832.832,0,0,0,.9-.864A.836.836,0,0,0,56.112-10.8Zm6.16,2.88a3.781,3.781,0,0,0-3.84,4.112A3.682,3.682,0,0,0,62.144.176,3.785,3.785,0,0,0,66-3.936,3.667,3.667,0,0,0,62.272-7.92ZM62.24-6.864c1.664,0,2.32,1.664,2.32,2.976,0,1.744-1.008,3.008-2.352,3.008-1.376,0-2.352-1.28-2.352-2.976C59.856-5.328,60.576-6.864,62.24-6.864Zm.528-4.224L61.36-8.8h1.008l1.952-2.288ZM67.616,0h1.408V-4.656a2.025,2.025,0,0,1,.1-.656,2,2,0,0,1,1.888-1.44c1.328,0,1.792,1.04,1.792,2.288V0h1.408V-4.624c0-2.656-1.664-3.3-2.736-3.3a2.848,2.848,0,0,0-2.56,1.456H68.88l-.08-1.28H67.552c.048.64.064,1.3.064,2.1ZM81.1,0V-6.672h1.872V-7.744H81.1V-8.16c0-1.184.3-2.24,1.5-2.24a2.1,2.1,0,0,1,.9.176l.192-1.088a3.265,3.265,0,0,0-1.2-.224,2.694,2.694,0,0,0-1.888.72,3.651,3.651,0,0,0-.9,2.7v.368H78.624v1.072h1.088V0Zm6.048-7.92a3.781,3.781,0,0,0-3.84,4.112A3.682,3.682,0,0,0,87.024.176,3.785,3.785,0,0,0,90.88-3.936,3.667,3.667,0,0,0,87.152-7.92ZM87.12-6.864c1.664,0,2.32,1.664,2.32,2.976,0,1.744-1.008,3.008-2.352,3.008-1.376,0-2.352-1.28-2.352-2.976C84.736-5.328,85.456-6.864,87.12-6.864Zm5.7-2.736v1.856h-1.2v1.072h1.2v4.224A2.869,2.869,0,0,0,93.36-.432,1.951,1.951,0,0,0,94.88.16a3.447,3.447,0,0,0,1.248-.192l-.064-1.056a3.132,3.132,0,0,1-.816.1c-.784,0-1.056-.544-1.056-1.5V-6.672h2.016V-7.744H94.192V-9.968Zm8,1.68a3.781,3.781,0,0,0-3.84,4.112A3.682,3.682,0,0,0,100.688.176a3.785,3.785,0,0,0,3.856-4.112A3.667,3.667,0,0,0,100.816-7.92Zm-.032,1.056c1.664,0,2.32,1.664,2.32,2.976,0,1.744-1.008,3.008-2.352,3.008C99.376-.88,98.4-2.16,98.4-3.856,98.4-5.328,99.12-6.864,100.784-6.864Zm4.3-.88L108.032,0h1.344l3.04-7.744h-1.472l-1.5,4.352c-.256.7-.48,1.344-.656,1.984h-.048a19.917,19.917,0,0,0-.624-1.984l-1.52-4.352ZM116.7-7.92a3.781,3.781,0,0,0-3.84,4.112A3.682,3.682,0,0,0,116.576.176a3.785,3.785,0,0,0,3.856-4.112A3.667,3.667,0,0,0,116.7-7.92Zm-.032,1.056c1.664,0,2.32,1.664,2.32,2.976,0,1.744-1.008,3.008-2.352,3.008-1.376,0-2.352-1.28-2.352-2.976C114.288-5.328,115.008-6.864,116.672-6.864ZM122.048,0h1.408V-11.36h-1.408Zm3.936-9.6v1.856h-1.2v1.072h1.2v4.224a2.869,2.869,0,0,0,.544,2.016,1.951,1.951,0,0,0,1.52.592A3.447,3.447,0,0,0,129.3-.032l-.064-1.056a3.132,3.132,0,0,1-.816.1c-.784,0-1.056-.544-1.056-1.5V-6.672h2.016V-7.744H127.36V-9.968ZM136.368,0a10.9,10.9,0,0,1-.128-1.856v-2.9c0-1.552-.576-3.168-2.944-3.168a4.806,4.806,0,0,0-2.544.688l.32.928a3.858,3.858,0,0,1,2.016-.576,1.6,1.6,0,0,1,1.76,1.792v.16c-2.992-.016-4.656,1.008-4.656,2.88A2.206,2.206,0,0,0,132.56.176a2.884,2.884,0,0,0,2.368-1.152h.048l.112.976ZM134.88-2.608a1.469,1.469,0,0,1-.08.448,1.927,1.927,0,0,1-1.872,1.3A1.246,1.246,0,0,1,131.6-2.208c0-1.5,1.744-1.776,3.28-1.744ZM139.76,0V-7.744h-1.408V0Zm-.7-10.8a.858.858,0,0,0-.88.88.837.837,0,0,0,.848.864.832.832,0,0,0,.9-.864A.836.836,0,0,0,139.056-10.8Zm8.16,9.456a4,4,0,0,1-1.728.384,2.655,2.655,0,0,1-2.688-2.9,2.68,2.68,0,0,1,2.736-2.928,3.265,3.265,0,0,1,1.632.368l.32-1.088a4.707,4.707,0,0,0-1.952-.4,3.935,3.935,0,0,0-4.16,4.112A3.679,3.679,0,0,0,145.232.16a5.186,5.186,0,0,0,2.224-.448ZM154.512,0a10.9,10.9,0,0,1-.128-1.856v-2.9c0-1.552-.576-3.168-2.944-3.168a4.806,4.806,0,0,0-2.544.688l.32.928a3.858,3.858,0,0,1,2.016-.576,1.6,1.6,0,0,1,1.76,1.792v.16c-2.992-.016-4.656,1.008-4.656,2.88A2.206,2.206,0,0,0,150.7.176a2.884,2.884,0,0,0,2.368-1.152h.048l.112.976Zm-1.488-2.608a1.469,1.469,0,0,1-.08.448,1.927,1.927,0,0,1-1.872,1.3,1.246,1.246,0,0,1-1.328-1.344c0-1.5,1.744-1.776,3.28-1.744Z" transform="translate(676.202 102.202)"/>
    <path id="Trazado_707291" data-name="Trazado 707291" d="M6.784-3.392,7.936,0H9.424L5.744-10.784H4.064L.4,0H1.84L2.96-3.392ZM3.248-4.48,4.3-7.6c.208-.656.384-1.312.544-1.952H4.88c.16.624.32,1.264.56,1.968L6.5-4.48ZM17.056-7.744H15.648v4.752a2.059,2.059,0,0,1-.128.72,2.036,2.036,0,0,1-1.856,1.28c-1.28,0-1.728-.992-1.728-2.464V-7.744H10.528v4.528C10.528-.5,11.984.176,13.2.176a2.914,2.914,0,0,0,2.56-1.44h.032L15.872,0H17.12c-.048-.608-.064-1.312-.064-2.112ZM19.712-9.6v1.856h-1.2v1.072h1.2v4.224a2.869,2.869,0,0,0,.544,2.016,1.951,1.951,0,0,0,1.52.592,3.447,3.447,0,0,0,1.248-.192L22.96-1.088a3.132,3.132,0,0,1-.816.1c-.784,0-1.056-.544-1.056-1.5V-6.672H23.1V-7.744H21.088V-9.968Zm8.064,1.68a3.781,3.781,0,0,0-3.84,4.112A3.682,3.682,0,0,0,27.648.176,3.785,3.785,0,0,0,31.5-3.936,3.667,3.667,0,0,0,27.776-7.92Zm-.032,1.056c1.664,0,2.32,1.664,2.32,2.976,0,1.744-1.008,3.008-2.352,3.008-1.376,0-2.352-1.28-2.352-2.976C25.36-5.328,26.08-6.864,27.744-6.864ZM38.56-1.344a4,4,0,0,1-1.728.384,2.655,2.655,0,0,1-2.688-2.9A2.68,2.68,0,0,1,36.88-6.784a3.265,3.265,0,0,1,1.632.368l.32-1.088a4.707,4.707,0,0,0-1.952-.4,3.935,3.935,0,0,0-4.16,4.112A3.679,3.679,0,0,0,36.576.16,5.186,5.186,0,0,0,38.8-.288ZM43.536-7.92A3.781,3.781,0,0,0,39.7-3.808,3.682,3.682,0,0,0,43.408.176a3.785,3.785,0,0,0,3.856-4.112A3.667,3.667,0,0,0,43.536-7.92ZM43.5-6.864c1.664,0,2.32,1.664,2.32,2.976,0,1.744-1.008,3.008-2.352,3.008C42.1-.88,41.12-2.16,41.12-3.856,41.12-5.328,41.84-6.864,43.5-6.864ZM49.04,0h1.408V-4.656a2.025,2.025,0,0,1,.1-.656,2,2,0,0,1,1.888-1.44c1.328,0,1.792,1.04,1.792,2.288V0h1.408V-4.624c0-2.656-1.664-3.3-2.736-3.3a2.848,2.848,0,0,0-2.56,1.456H50.3l-.08-1.28H48.976c.048.64.064,1.3.064,2.1Zm8.336-.368A4.416,4.416,0,0,0,59.552.16c1.84,0,2.9-.96,2.9-2.32,0-1.152-.688-1.824-2.032-2.336-1.008-.384-1.472-.672-1.472-1.312,0-.576.464-1.056,1.3-1.056a3.014,3.014,0,0,1,1.584.448l.352-1.024a3.865,3.865,0,0,0-1.9-.48A2.388,2.388,0,0,0,57.6-5.648c0,.928.656,1.7,2.048,2.192,1.04.384,1.44.752,1.44,1.424,0,.64-.48,1.152-1.5,1.152a3.69,3.69,0,0,1-1.856-.56Zm13.36-7.376H69.328v4.752a2.059,2.059,0,0,1-.128.72,2.036,2.036,0,0,1-1.856,1.28c-1.28,0-1.728-.992-1.728-2.464V-7.744H64.208v4.528C64.208-.5,65.664.176,66.88.176a2.914,2.914,0,0,0,2.56-1.44h.032L69.552,0H70.8c-.048-.608-.064-1.312-.064-2.112ZM73.072,0h1.376V-4.672a1.941,1.941,0,0,1,.112-.688A1.924,1.924,0,0,1,76.3-6.768c1.072,0,1.616.9,1.616,2.128V0H79.3V-4.784a2.319,2.319,0,0,1,.112-.7,1.823,1.823,0,0,1,1.664-1.28c1.136,0,1.68.9,1.68,2.384V0h1.376V-4.56c0-2.688-1.52-3.36-2.544-3.36a2.643,2.643,0,0,0-1.712.544,3.19,3.19,0,0,0-.864,1.008h-.032A2.289,2.289,0,0,0,76.784-7.92,2.669,2.669,0,0,0,74.352-6.5H74.3L74.24-7.744H73.008c.048.64.064,1.3.064,2.1ZM89.7-7.92a3.781,3.781,0,0,0-3.84,4.112A3.682,3.682,0,0,0,89.568.176a3.785,3.785,0,0,0,3.856-4.112A3.667,3.667,0,0,0,89.7-7.92Zm-.032,1.056c1.664,0,2.32,1.664,2.32,2.976,0,1.744-1.008,3.008-2.352,3.008-1.376,0-2.352-1.28-2.352-2.976C87.28-5.328,88-6.864,89.664-6.864Zm14.208-4.5v4.624h-.032A2.589,2.589,0,0,0,101.5-7.92c-1.888,0-3.488,1.584-3.472,4.16,0,2.352,1.44,3.936,3.312,3.936a2.864,2.864,0,0,0,2.64-1.52h.032L104.08,0h1.264c-.048-.528-.064-1.312-.064-2v-9.36Zm0,8.112a2.446,2.446,0,0,1-.064.608,2.117,2.117,0,0,1-2.064,1.68c-1.52,0-2.288-1.3-2.288-2.864,0-1.712.864-2.992,2.32-2.992a2.071,2.071,0,0,1,2.032,1.632,2.486,2.486,0,0,1,.064.592Zm9.968-.368a5.311,5.311,0,0,0,.048-.656c0-1.424-.672-3.648-3.2-3.648-2.256,0-3.632,1.84-3.632,4.176a3.6,3.6,0,0,0,3.808,3.9,6.272,6.272,0,0,0,2.576-.48l-.24-1.008a5.092,5.092,0,0,1-2.144.4A2.481,2.481,0,0,1,108.4-3.616Zm-5.424-1.008a2.333,2.333,0,0,1,2.16-2.288,2,2,0,0,1,1.952,2.288Z" transform="translate(711.746 421.001)"/>
    <path id="Trazado_707292" data-name="Trazado 707292" d="M7.392-3.616a5.31,5.31,0,0,0,.048-.656c0-1.424-.672-3.648-3.2-3.648C1.984-7.92.608-6.08.608-3.744A3.6,3.6,0,0,0,4.416.16,6.272,6.272,0,0,0,6.992-.32l-.24-1.008a5.092,5.092,0,0,1-2.144.4A2.481,2.481,0,0,1,1.952-3.616ZM1.968-4.624a2.333,2.333,0,0,1,2.16-2.288A2,2,0,0,1,6.08-4.624ZM9.184,0h1.408V-11.36H9.184Zm10-3.616a5.311,5.311,0,0,0,.048-.656c0-1.424-.672-3.648-3.2-3.648-2.256,0-3.632,1.84-3.632,4.176A3.6,3.6,0,0,0,16.208.16a6.272,6.272,0,0,0,2.576-.48l-.24-1.008a5.092,5.092,0,0,1-2.144.4,2.481,2.481,0,0,1-2.656-2.688ZM13.76-4.624a2.333,2.333,0,0,1,2.16-2.288,2,2,0,0,1,1.952,2.288Zm12.5,3.28a4,4,0,0,1-1.728.384,2.655,2.655,0,0,1-2.688-2.9,2.68,2.68,0,0,1,2.736-2.928,3.265,3.265,0,0,1,1.632.368l.32-1.088a4.707,4.707,0,0,0-1.952-.4,3.935,3.935,0,0,0-4.16,4.112A3.679,3.679,0,0,0,24.272.16,5.186,5.186,0,0,0,26.5-.288ZM28.88-9.6v1.856h-1.2v1.072h1.2v4.224a2.869,2.869,0,0,0,.544,2.016,1.951,1.951,0,0,0,1.52.592,3.447,3.447,0,0,0,1.248-.192l-.064-1.056a3.132,3.132,0,0,1-.816.1c-.784,0-1.056-.544-1.056-1.5V-6.672h2.016V-7.744H30.256V-9.968ZM33.856,0h1.392V-4.128a3.963,3.963,0,0,1,.064-.656A1.975,1.975,0,0,1,37.2-6.592a2.115,2.115,0,0,1,.48.048V-7.872a1.523,1.523,0,0,0-.4-.048,2.323,2.323,0,0,0-2.144,1.7h-.064l-.048-1.52H33.792c.048.72.064,1.5.064,2.416Zm6.752,0V-7.744H39.2V0Zm-.7-10.8a.858.858,0,0,0-.88.88.837.837,0,0,0,.848.864.832.832,0,0,0,.9-.864A.836.836,0,0,0,39.9-10.8Zm8.32,9.456A4,4,0,0,1,46.5-.96a2.655,2.655,0,0,1-2.688-2.9,2.68,2.68,0,0,1,2.736-2.928,3.265,3.265,0,0,1,1.632.368L48.5-7.5a4.707,4.707,0,0,0-1.952-.4,3.935,3.935,0,0,0-4.16,4.112A3.679,3.679,0,0,0,46.24.16a5.186,5.186,0,0,0,2.224-.448ZM51.52,0V-7.744H50.112V0Zm-.7-10.8a.858.858,0,0,0-.88.88.837.837,0,0,0,.848.864.832.832,0,0,0,.9-.864A.836.836,0,0,0,50.816-10.8Zm8.32-.56v4.624H59.1A2.589,2.589,0,0,0,56.768-7.92c-1.888,0-3.488,1.584-3.472,4.16,0,2.352,1.44,3.936,3.312,3.936a2.864,2.864,0,0,0,2.64-1.52h.032L59.344,0h1.264c-.048-.528-.064-1.312-.064-2v-9.36Zm0,8.112a2.446,2.446,0,0,1-.064.608A2.117,2.117,0,0,1,57.008-.96c-1.52,0-2.288-1.3-2.288-2.864,0-1.712.864-2.992,2.32-2.992a2.071,2.071,0,0,1,2.032,1.632,2.485,2.485,0,0,1,.064.592ZM68.448,0a10.9,10.9,0,0,1-.128-1.856v-2.9c0-1.552-.576-3.168-2.944-3.168a4.806,4.806,0,0,0-2.544.688l.32.928a3.858,3.858,0,0,1,2.016-.576,1.6,1.6,0,0,1,1.76,1.792v.16c-2.992-.016-4.656,1.008-4.656,2.88A2.206,2.206,0,0,0,64.64.176,2.884,2.884,0,0,0,67.008-.976h.048L67.168,0ZM66.96-2.608a1.469,1.469,0,0,1-.08.448,1.927,1.927,0,0,1-1.872,1.3A1.246,1.246,0,0,1,63.68-2.208c0-1.5,1.744-1.776,3.28-1.744Zm8.912-8.752v4.624H75.84A2.589,2.589,0,0,0,73.5-7.92c-1.888,0-3.488,1.584-3.472,4.16,0,2.352,1.44,3.936,3.312,3.936a2.864,2.864,0,0,0,2.64-1.52h.032L76.08,0h1.264c-.048-.528-.064-1.312-.064-2v-9.36Zm0,8.112a2.446,2.446,0,0,1-.064.608A2.117,2.117,0,0,1,73.744-.96c-1.52,0-2.288-1.3-2.288-2.864,0-1.712.864-2.992,2.32-2.992a2.071,2.071,0,0,1,2.032,1.632,2.486,2.486,0,0,1,.064.592Zm12.576-4.5-.064,1.168h-.032A2.576,2.576,0,0,0,85.936-7.92c-1.776,0-3.488,1.488-3.488,4.112,0,2.144,1.376,3.776,3.3,3.776a2.764,2.764,0,0,0,2.464-1.3h.032v.864c0,1.952-1.056,2.7-2.5,2.7a4.367,4.367,0,0,1-2.272-.608L83.12,2.7a5,5,0,0,0,2.576.64,4.105,4.105,0,0,0,2.816-.928c.752-.672,1.1-1.76,1.1-3.536v-4.5c0-.944.032-1.568.064-2.128ZM88.224-3.3a2.45,2.45,0,0,1-.112.752A2.058,2.058,0,0,1,86.16-1.1c-1.52,0-2.288-1.264-2.288-2.784,0-1.792.96-2.928,2.3-2.928a2.028,2.028,0,0,1,1.968,1.488,2.005,2.005,0,0,1,.08.64Zm9.952-.32a5.311,5.311,0,0,0,.048-.656c0-1.424-.672-3.648-3.2-3.648-2.256,0-3.632,1.84-3.632,4.176A3.6,3.6,0,0,0,95.2.16a6.272,6.272,0,0,0,2.576-.48l-.24-1.008a5.092,5.092,0,0,1-2.144.4,2.481,2.481,0,0,1-2.656-2.688ZM92.752-4.624a2.333,2.333,0,0,1,2.16-2.288,2,2,0,0,1,1.952,2.288ZM99.968,0h1.408V-4.656a2.025,2.025,0,0,1,.1-.656,2,2,0,0,1,1.888-1.44c1.328,0,1.792,1.04,1.792,2.288V0h1.408V-4.624c0-2.656-1.664-3.3-2.736-3.3a2.848,2.848,0,0,0-2.56,1.456h-.032l-.08-1.28H99.9c.048.64.064,1.3.064,2.1Zm15.1-3.616a5.311,5.311,0,0,0,.048-.656c0-1.424-.672-3.648-3.2-3.648-2.256,0-3.632,1.84-3.632,4.176A3.6,3.6,0,0,0,112.1.16a6.272,6.272,0,0,0,2.576-.48l-.24-1.008a5.092,5.092,0,0,1-2.144.4,2.481,2.481,0,0,1-2.656-2.688Zm-5.424-1.008a2.333,2.333,0,0,1,2.16-2.288,2,2,0,0,1,1.952,2.288ZM116.864,0h1.392V-4.128a3.963,3.963,0,0,1,.064-.656,1.975,1.975,0,0,1,1.888-1.808,2.115,2.115,0,0,1,.48.048V-7.872a1.523,1.523,0,0,0-.4-.048,2.323,2.323,0,0,0-2.144,1.7h-.064l-.048-1.52H116.8c.048.72.064,1.5.064,2.416ZM127.52,0a10.9,10.9,0,0,1-.128-1.856v-2.9c0-1.552-.576-3.168-2.944-3.168a4.806,4.806,0,0,0-2.544.688l.32.928a3.858,3.858,0,0,1,2.016-.576A1.6,1.6,0,0,1,126-5.088v.16c-2.992-.016-4.656,1.008-4.656,2.88A2.206,2.206,0,0,0,123.712.176,2.884,2.884,0,0,0,126.08-.976h.048L126.24,0Zm-1.488-2.608a1.469,1.469,0,0,1-.08.448,1.927,1.927,0,0,1-1.872,1.3,1.246,1.246,0,0,1-1.328-1.344c0-1.5,1.744-1.776,3.28-1.744Zm8.912-8.752v4.624h-.032a2.589,2.589,0,0,0-2.336-1.184c-1.888,0-3.488,1.584-3.472,4.16,0,2.352,1.44,3.936,3.312,3.936a2.864,2.864,0,0,0,2.64-1.52h.032L135.152,0h1.264c-.048-.528-.064-1.312-.064-2v-9.36Zm0,8.112a2.446,2.446,0,0,1-.064.608,2.117,2.117,0,0,1-2.064,1.68c-1.52,0-2.288-1.3-2.288-2.864,0-1.712.864-2.992,2.32-2.992a2.071,2.071,0,0,1,2.032,1.632,2.485,2.485,0,0,1,.064.592ZM144.256,0a10.9,10.9,0,0,1-.128-1.856v-2.9c0-1.552-.576-3.168-2.944-3.168a4.806,4.806,0,0,0-2.544.688l.32.928a3.858,3.858,0,0,1,2.016-.576,1.6,1.6,0,0,1,1.76,1.792v.16c-2.992-.016-4.656,1.008-4.656,2.88A2.206,2.206,0,0,0,140.448.176a2.884,2.884,0,0,0,2.368-1.152h.048l.112.976Zm-1.488-2.608a1.469,1.469,0,0,1-.08.448,1.927,1.927,0,0,1-1.872,1.3,1.246,1.246,0,0,1-1.328-1.344c0-1.5,1.744-1.776,3.28-1.744Z" transform="translate(697.559 441.34)"/>
    <g id="Grupo_999942" data-name="Grupo 999942" transform="translate(0 -0.001)">
      <g id="Grupo_999941" data-name="Grupo 999941" clip-path="url(#clip-path)">
        <rect id="Rectángulo_346145" data-name="Rectángulo 346145" width="41.015" height="11.718" transform="translate(628.963 50.191)" fill="#a800c6"/>
        <rect id="Rectángulo_346146" data-name="Rectángulo 346146" width="41.015" height="11.718" transform="translate(628.963 89.531)" fill="aqua"/>
      </g>
    </g>
  </g>
</svg>
