<svg id="Grupo_972115" data-name="Grupo 972115" xmlns="http://www.w3.org/2000/svg" xmlns:xlink="http://www.w3.org/1999/xlink" width="310.125" height="273.024" viewBox="0 0 310.125 273.024">
  <defs>
    <clipPath id="clip-path">
      <rect id="Rectángulo_338939" data-name="Rectángulo 338939" width="310.125" height="273.024" fill="none"/>
    </clipPath>
  </defs>
  <g id="Enmascarar_grupo_972114" data-name="Enmascarar grupo 972114" clip-path="url(#clip-path)">
    <path id="Trazado_664617" data-name="Trazado 664617" d="M54.38,188.118c-.923,12.387-10.632,20.768-13.906,32.309-5.467,19.269,3.492,37.748,15.5,52.6H285.526A31.163,31.163,0,0,1,296.593,257.4c5.9-4.274,13.81-6.56,17.2-13.58,3.931-8.145-.709-16.986-4.288-24.3-2.174-4.442-4.321-9.314-3.469-14.369q.1-.615.252-1.169a9.354,9.354,0,0,1,3.993-5.315A26.53,26.53,0,0,0,321.2,181.75c1.956-9.308-.106-18.414-4.859-26.551-11.535-19.743-34.082-29.26-46.964-47.837C257.274,89.9,259.594,67.5,253.826,47.888c-2.78-9.452-7.788-17.927-15.543-24.13-8.466-6.771-18.912-10.545-29.108-13.843-12.04-3.894-24.327-7.774-36.931-9.3a81,81,0,0,0-35.066,3.322c-11.43,3.739-20.977,10.409-30.5,17.552A121.664,121.664,0,0,1,91.551,31.662c-5.121,2.754-10.632,4.624-16.06,6.662-9.9,3.716-18.8,8.543-25.546,16.878a62.507,62.507,0,0,0-12.083,26.21c-5.029,23.466,1.812,46.963,8.748,69.291,3.722,11.981,8.721,24.652,7.77,37.415" transform="translate(-11.813 0)" fill="#2ccbcb"/>
    <path id="Trazado_664618" data-name="Trazado 664618" d="M317.216,329.542s47.793-85.775,56.3-107.049,18-46.476,0-49.261-45.174,10.061-60.56,43.618-48.612,112.692-48.612,112.692Z" transform="translate(-86.429 -56.518)" fill="#57661a"/>
    <path id="Trazado_664619" data-name="Trazado 664619" d="M385.494,203.867l-.615-1.443L363.6,211.5l15.649-29.382-1.384-.737L354.03,226.133l-9.34-30.46-1.5.459,9.8,31.956L334.1,263.555l-10.031-32.529-1.5.462,10.49,34.018-14.73,27.656L308.6,258.908l-1.508.429,10.169,35.821-16.437,30.859-11.684-21.6-1.38.746,12.179,22.518-2.475,4.648h1.778l9.979-18.735,29.156-13-.639-1.432L310.423,311.34l13.4-25.161,26.128-4.063-.241-1.55-24.965,3.882,15.1-28.347,25.33-8.263-.487-1.491-23.78,7.758,21.517-40.4Z" transform="translate(-94.084 -59.302)" fill="#819335"/>
    <path id="Trazado_664620" data-name="Trazado 664620" d="M127.116,284.382l-.285-.586c-2.389-4.92-4.779-9.839-7.124-14.781q-6.991-14.736-14-29.465-7.022-14.725-14.022-29.459c-4.2-8.842-9.4-18.185-9.361-28.256.017-4.25,1.175-8.692,4.434-11.621a11.132,11.132,0,0,1,8.609-2.659l-1.161-2.929q-3.5-8.824-6.984-17.651-3.458-8.749-6.9-17.5c-2.032-5.185-4.012-10.772-2.408-16.357a10.949,10.949,0,0,1,4.98-6.519,9.69,9.69,0,0,1,4.7-1.306q-.743-2.134-1.271-4.334a45.885,45.885,0,0,1-1.259-9.346c-.084-2.906.1-6.013,1.5-8.626a9.058,9.058,0,0,1,6.189-4.839,8.008,8.008,0,0,1,3.163.079c-.194-.542-.39-1.084-.583-1.627-2.758-7.776-5.442-15.585-7.957-23.444C86.24,49.579,85.3,45.819,86.2,42.084a9.389,9.389,0,0,1,6.459-6.946c3.284-.968,6.9-.05,9.911,1.361a40.271,40.271,0,0,1,8.641,5.779,53.318,53.318,0,0,1,12.149,14.5,11.142,11.142,0,0,1,2.825-3.667,7.29,7.29,0,0,1,8.775-.075c2.694,1.863,4.413,4.921,6.049,7.672a109,109,0,0,1,5.12,9.687c6.123,13.125,9.687,27.271,12.064,41.515a6.621,6.621,0,0,1,3.956-2.893,8.5,8.5,0,0,1,8.022,2.359,15.078,15.078,0,0,1,3.962,8.087c.714,3.455,1.2,6.965,1.782,10.445q1.773,10.651,3.546,21.3a6.7,6.7,0,0,1,4.271.148,10.518,10.518,0,0,1,4.757,4.11,45.8,45.8,0,0,1,3.428,5.719c4.1,8.019,6.165,16.966,8.563,25.591l1.112,4a6.1,6.1,0,0,1,1.81-2.439,7.618,7.618,0,0,1,10.033.784,11.738,11.738,0,0,1,2.386,4.9c.566,2.015,1.076,4.048,1.585,6.078q1.607,6.406,2.942,12.875a349.088,349.088,0,0,1,6.917,52.4q.391,7.326.46,14.663.017,2.172.005,4.345Z" transform="translate(-25.283 -11.358)" fill="#216838"/>
    <path id="Trazado_664621" data-name="Trazado 664621" d="M118.283,314.625c-.829,2.574-1.778,5.084-2.792,7.572H20.758c-.742-1.386-1.461-2.785-2.164-4.184-1.649-3.28-3.235-6.6-4.705-9.961-2.933-6.718-5.577-13.577-7.827-20.555q-1.687-5.234-3.125-10.543C1.959,273.341.95,269.687.3,266c-.574-3.278-.489-6.8,1.66-9.528a7.388,7.388,0,0,1,8.637-2.236,16.408,16.408,0,0,1,4.653,3.013c.472.4.936.816,1.4,1.226a106.022,106.022,0,0,1-2.445-17.026,119.25,119.25,0,0,1,.98-25.153A109.785,109.785,0,0,1,17.7,203.867c.969-3.633,2.438-7.274,5.44-9.7a9.754,9.754,0,0,1,10.2-1.471,13.168,13.168,0,0,1,3.6,2.512l-.4-1.548c-.685-2.643-1.431-5.6-.175-8.194a6.025,6.025,0,0,1,6.508-3.327,7.055,7.055,0,0,1,1.6.417q-2.606-5.779-4.676-11.779-1.537-4.467-2.76-9.034c-.761-2.839-1.456-5.926.117-8.625a5.665,5.665,0,0,1,6.943-2.34c2.77.954,4.868,3.309,6.891,5.316A125.784,125.784,0,0,1,63.039,169.94c2.019,2.692,3.957,5.45,5.762,8.291.9,1.422,1.8,2.85,2.639,4.308a9.189,9.189,0,0,1,.83-3.284,7.035,7.035,0,0,1,6.473-4.215c2.886.091,5.24,1.963,7.047,4.061a56.75,56.75,0,0,1,5.165,7.446,90.051,90.051,0,0,1,8.058,16.826,123.526,123.526,0,0,1,4.857,18.557c.659,3.491,1.206,7,1.681,10.518.1.727.188,1.454.279,2.182a9.475,9.475,0,0,1,8.965.549c3.186,1.909,5.007,5.3,6.026,8.764a84.3,84.3,0,0,1,2.253,11.336,133.5,133.5,0,0,1-1.48,46.65,123.231,123.231,0,0,1-3.309,12.7" transform="translate(0 -49.176)" fill="#205134"/>
    <path id="Trazado_664622" data-name="Trazado 664622" d="M102.43,353.948S85.544,230.283,48.552,249.559s-.674,78.2,7.529,88.758c8.675,11.162,16.777,15.631,16.777,15.631Z" transform="translate(-10.539 -80.926)" fill="#819335"/>
    <path id="Trazado_664623" data-name="Trazado 664623" d="M92.92,351.638l7.369-11.079-1.045-.695-6.915,10.4-7.053-16.478,7.467-26.032-1.207-.346L84.5,331.956l-11.4-26.635,8.282-24.879-1.191-.4-7.835,23.537L60.912,276.86l4.765-20.7-1.223-.282L60.075,274.9l-6.788-15.858-1.154.494,9.328,21.793L41.8,270.528l-.6,1.1L62.262,283.2l11.36,26.538L44.163,299.294l-.42,1.183,30.551,10.837,11.924,27.858-26.661-8.946-.4,1.19,27.722,9.3,5.52,12.9-20.01-5.355-.324,1.212,20.962,5.609.685,1.6h1.365Z" transform="translate(-13.469 -83.659)" fill="#57661a"/>
    <g id="Grupo_999758" data-name="Grupo 999758" transform="translate(91.663 46.886)">
      <g id="Grupo_999757" data-name="Grupo 999757" transform="translate(0 0)">
        <path id="Trazado_664628" data-name="Trazado 664628" d="M305.253,161.77c-7.906-35.8-41.96-58.717-76.063-51.186s-55.34,42.657-47.435,78.458a67.421,67.421,0,0,0,36.311,46.484l13.109,54.716,32.672-1.625,13.339-56.387c22.267-14.117,34.336-42.068,28.066-70.458" transform="translate(-180.105 -109.151)" fill="#ffe67b"/>
        <path id="Trazado_664629" data-name="Trazado 664629" d="M269.694,171.3l-12.641-5.585-13.437,8.634-14.5-6.74-8.7,6.934-20.21-5.644,18.969,22.694,19.142,101.218,1.632-.308L220.766,191.067l-.04-.212L204.91,171.936l15.876,4.433,8.564-6.824,14.4,6.692,13.454-8.643,12.484,5.516,15.628-6.739-13.383,21.649-.092.152L257.813,292.541l1.646.221,13.977-104.018L289.5,162.757Z" transform="translate(-179.607 -107.824)" fill="#fff"/>
        <path id="Trazado_664630" data-name="Trazado 664630" d="M243.144,288.468l1.655-.15-8.6-96.188,16.552-2.112-2.678,98.353,1.662.045,2.729-100.289L234.4,190.682Z" transform="translate(-178.76 -107.196)" fill="#fff"/>
      </g>
      <path id="Trazado_664631" data-name="Trazado 664631" d="M221.323,256.772l52.232-3.9-10.836,67.837H227.608Z" transform="translate(-179.085 -105.591)" fill="#cfb7ff"/>
    </g>
    <path id="Trazado_664641" data-name="Trazado 664641" d="M382.27,374.119h2.967c2.489-6.222,12.463-31.008,16.28-38.271,4.378-8.328,8.711-23.42,4.284-25.991s-12.138,2.428-15.708,15.523c-3.153,11.564-6.973,41.821-7.824,48.738" transform="translate(-124.983 -101.094)" fill="#819335"/>
    <path id="Trazado_664642" data-name="Trazado 664642" d="M407.712,317.971q.057-.438.1-.862l-6.117,2.99,3.5-10.6a4.923,4.923,0,0,0-.711-.173l-3.428,10.4-3.073-8q-.291.25-.579.526l3.291,8.574-2.027,6.15-4.342-10.881q-.24.381-.475.782l4.461,11.177-2.762,8.377-5.1-11.278c-.026.092-.054.181-.079.274-.073.267-.146.553-.219.839l5.061,11.189-2.146,6.507-4.574-10.023c-.078.411-.156.824-.234,1.246l4.472,9.8-2.169,6.579-3.562-9.1q-.115.706-.229,1.417l3.433,8.766-2.945,8.933-2.23-6.119c-.073.515-.146,1.028-.217,1.535l2.078,5.7-1.867,5.664-1.355-2.964c-.062.465-.122.921-.18,1.364l1.2,2.621-1.576,4.779h.768l1.495-4.534,2.4-1.081c.13-.32.261-.645.4-.979l-2.488,1.12,1.9-5.749,3.247-1.879.454-1.106-3.358,1.944,2.971-9.014,4.359-2.457q.234-.553.467-1.1l-4.487,2.529,2.2-6.665,5.863-4.054q.3-.671.591-1.3l-6.075,4.2,2.09-6.341,6.422-2.845c.163-.329.324-.668.485-1.013l-6.6,2.922L399,328.285l7.364-4.04q.139-.491.269-.979l-7.3,4,2.044-6.2Z" transform="translate(-125.256 -101.134)" fill="#b2d855"/>
    <path id="Trazado_664643" data-name="Trazado 664643" d="M385.411,405.388h.852c.067-.166.141-.352.218-.543-.409.206-.767.388-1.07.543" transform="translate(-126.01 -132.364)" fill="#aaa"/>
    <path id="Trazado_664644" data-name="Trazado 664644" d="M382.277,405.567l-.007.057h.048l-.041-.057" transform="translate(-124.983 -132.6)" fill="#aaa"/>
    <path id="Trazado_664645" data-name="Trazado 664645" d="M358.009,357.052c2.6-8.785,11.293-38.2,16.945-58.407,6.712-23.991,8.425-40.841,4.284-41.555s-7.712,2.856-14.709,19.421c-6.356,15.046-16.6,70.494-18.423,80.541Z" transform="translate(-113.159 -84.028)" fill="#819335"/>
    <path id="Trazado_664646" data-name="Trazado 664646" d="M381.99,268.351q.047-.515.085-1.009l-6.007,4.878,4.227-15.022a1.455,1.455,0,0,0-.308-.094q-.2-.035-.409-.056l-4.245,15.086-3.722-8.719q-.227.378-.46.783l3.867,9.057-4.4,15.642-5.283-12.5-.056.132c-.11.26-.222.536-.335.82L370.3,290.02l-3.435,12.206-6.2-10.871c-.087.335-.174.674-.262,1.014l6.187,10.843-4.178,14.848L357,306.56c-.087.386-.174.772-.261,1.16l5.365,11.414-2.766,9.829-5.468-7.939c-.069.329-.138.659-.206.987l5.417,7.865-3.448,12.256-4-10.116-.262,1.32,3.939,9.954-3.169,11.265-3.523-7q-.113.6-.222,1.181l3.452,6.859-.414,1.471h.759l.357-1.269,8-4.8.306-1.034-8.019,4.81,3.17-11.265,8.257-5.137.308-1.051-8.271,5.145,3.5-12.436,8.84-6.667.339-1.17-8.853,6.675,2.679-9.522,8.376-4.783q.145-.5.289-1.006l-8.384,4.787,4.2-14.939,8.493-5.047c.095-.341.187-.678.28-1.016l-8.487,5.043L371,290.218l8.341-6.023c.079-.36.155-.713.231-1.067l-8.254,5.961,4.4-15.648Z" transform="translate(-113.908 -84.042)" fill="#b2d855"/>
    <path id="Trazado_664647" data-name="Trazado 664647" d="M287.7,387.022h35.809c.481-3,.63-6.09.815-9.1a108.875,108.875,0,0,0,.166-11.93c-.1-1.992-.271-3.989-.549-5.964a12.99,12.99,0,0,0-1.485-4.879,6.942,6.942,0,0,0-8.445-2.9,9.568,9.568,0,0,0-4.4,3.222,14.39,14.39,0,0,0-1.185,1.806c-.153-.38-.313-.746-.456-1.086a26.007,26.007,0,0,0-2.36-4.505,6.633,6.633,0,0,0-3.471-2.8,5.7,5.7,0,0,0-4.615.728c-2.776,1.7-4.026,5.012-4.479,8.087-.544,3.694.017,7.509.317,11.2.016.2.032.392.048.589a4.314,4.314,0,0,0-3.182-.4c-2.766.741-4.053,3.738-4.467,6.319a19.746,19.746,0,0,0,1.021,8.9c.284.913.6,1.816.92,2.716" transform="translate(-93.373 -113.998)" fill="#b2d855"/>
    <path id="Trazado_664648" data-name="Trazado 664648" d="M402.639,386.335a13.088,13.088,0,0,0,.338-1.491c.767-4.8-2.045-10.142-7.3-10.376a6.758,6.758,0,0,0-1.343.087c.43-.837.843-1.678,1.267-2.484q1.777-3.377,3.413-6.826c1.06-2.234,2.089-4.487,3.028-6.776a12.026,12.026,0,0,0,1.18-6.578,6.548,6.548,0,0,0-3.54-4.72,8.669,8.669,0,0,0-6.075-.1,35.277,35.277,0,0,0-11.048,6.175,40.409,40.409,0,0,0-6.654,6.671,8.738,8.738,0,0,0-2.1-3.494,11.636,11.636,0,0,0-9.385-3.1c-6.967.634-12.906,6.033-17.126,11.238a42.971,42.971,0,0,0-3.672,5.326c-.065-.538-.125-1.076-.19-1.613a47.8,47.8,0,0,0-.816-6.08,4.015,4.015,0,0,0-3.406-3.087,7.319,7.319,0,0,0-4.968,1.518,30.34,30.34,0,0,0-7.176,7.6,38.267,38.267,0,0,0-4.787,9.357,34.482,34.482,0,0,0-1.864,8.756Z" transform="translate(-104.757 -113.311)" fill="#216838"/>
    <path id="Trazado_664649" data-name="Trazado 664649" d="M410.358,394.8a12.255,12.255,0,0,0-3.066-7.095,10.387,10.387,0,0,0-6.928-3.432,9.716,9.716,0,0,0-3.713.435c0-.3,0-.606-.009-.909a17.459,17.459,0,0,0-1.695-7.453,5.238,5.238,0,0,0-6.012-2.881c-2.42.617-4.466,2.519-5.988,4.427-.39.489-.763,1-1.111,1.539a8.17,8.17,0,0,0-.773-1.029,7.121,7.121,0,0,0-8.031-1.968c-5.532,2.088-8.731,8.071-9.666,13.6A26.905,26.905,0,0,0,363,394.8Z" transform="translate(-118.681 -122.05)" fill="#b2d855"/>
  </g>
</svg>
