<svg xmlns="http://www.w3.org/2000/svg" xmlns:xlink="http://www.w3.org/1999/xlink" width="151" height="155.258" viewBox="0 0 151 155.258">
  <defs>
    <clipPath id="clip-path">
      <rect id="Rectángulo_346010" data-name="Rectángulo 346010" width="151" height="155.259" fill="none"/>
    </clipPath>
  </defs>
  <g id="Grupo_999747" data-name="Grupo 999747" transform="translate(0 50)">
    <g id="Grupo_999746" data-name="Grupo 999746" transform="translate(0 -50)" clip-path="url(#clip-path)">
      <path id="Trazado_706914" data-name="Trazado 706914" d="M143.976,0a2.6,2.6,0,0,0,.491.3,8.824,8.824,0,0,1,6.464,8.986q.007,35.611,0,71.222c0,10.2-.155,20.41.063,30.609.115,5.381-3.38,10.174-10.2,10.1-14.043-.144-28.089-.043-42.134-.043H96.884c1.536,1.58,2.9,3.036,4.338,4.407.246.234.851.194,1.266.127a4.791,4.791,0,0,1,4.3,1.347c4.9,4.739,9.809,9.476,14.666,14.263a4.693,4.693,0,0,1,.216,6.806c-1.792,1.986-3.674,3.9-5.605,5.75a4.679,4.679,0,0,1-6.581.064q-7.578-7.2-15.024-14.545a4.724,4.724,0,0,1-1.321-4.318,1.6,1.6,0,0,0-.278-1.168c-1.42-1.639-2.9-3.225-4.324-4.787-1.925,1.081-3.407,2.019-4.977,2.776a29.147,29.147,0,0,1-36.8-9.626,2.347,2.347,0,0,0-2.231-1.113q-17.5.039-35.011.01c-4.948-.009-8.464-2.775-9.372-7.341a12.443,12.443,0,0,1-.15-2.41Q0,60.575,0,9.735C0,4.683,1.958,1.929,6.754.208c.082-.03.136-.137.2-.208ZM98.585,116.154a3.34,3.34,0,0,0,.532.057c13.991,0,27.982.018,41.973-.043,3.752-.017,4.934-1.358,4.934-5.105q0-40.831,0-81.661V27.676H4.882v1.689q0,40.906,0,81.813c0,3.656,1.363,5.033,5.026,5.036q15.911.013,31.822,0c.518,0,1.036-.065,1.276-.081L41.091,104.12c-.993,0-2.2.04-3.41-.01-1.69-.068-2.711-1.026-2.7-2.448S36.011,99.3,37.7,99.223c1.159-.052,2.326.028,3.483-.042.383-.023.985-.246,1.084-.523.585-1.631,1.052-3.3,1.6-5.105-2.03,0-3.944.023-5.857-.006s-3.021-.936-3.038-2.442,1.071-2.438,3-2.46c2.475-.028,4.952-.062,7.424.017a2.626,2.626,0,0,0,2.388-1.2,29.22,29.22,0,0,1,40.588-5.348c1.339,1.013,2.578,2.16,4.052,3.405,0-3.457,0-6.674,0-9.89,0-2.424.759-3.193,3.127-3.2q2.88-.007,5.758,0c2.219.008,3.036.778,3.04,2.984q.023,12.953,0,25.907c0,2.152-.789,2.914-2.9,2.972-.431.012-.861.069-.959.077-.651,4.02-1.268,7.825-1.909,11.781M73.647,22.6q33.493,0,66.986.028c1.419,0,1.953-.343,1.916-1.845-.1-3.887,0-7.778-.055-11.666a11.423,11.423,0,0,0-.459-2.662,1.939,1.939,0,0,0-2.21-1.544q-65.016.05-130.033.031c-3.289,0-4.718,1.4-4.746,4.67-.03,3.636-.01,7.273-.007,10.91,0,2.076.006,2.078,2.075,2.078H73.647M70.766,81.162a24.409,24.409,0,1,0,24.405,24.26,24.371,24.371,0,0,0-24.405-24.26m32.893,49.82-5.54,4.981,14.311,13.913,5.5-5.026-14.273-13.868m-6.321-53.6c0,4.351.165,8.543-.058,12.713-.151,2.822,1.14,5.09,1.987,7.8V77.384Zm-5.1,48.229,4.248,4.71,1.037-1.147-.416.256-3.973-4.809-.9.99" transform="translate(0)" fill="#161615"/>
      <path id="Trazado_706915" data-name="Trazado 706915" d="M105.762,156.841l1.909-11.781c.1-.008.529-.065.96-.077,2.111-.057,2.9-.82,2.9-2.972q.022-12.953,0-25.907c0-2.206-.821-2.976-3.04-2.984q-2.879-.01-5.758,0c-2.369.006-3.123.774-3.128,3.2-.006,3.216,0,6.433,0,9.89-1.474-1.245-2.712-2.392-4.052-3.405a29.221,29.221,0,0,0-40.588,5.348,2.626,2.626,0,0,1-2.388,1.2c-2.472-.079-4.949-.045-7.424-.017-1.925.022-3.012.944-3,2.46s1.111,2.413,3.038,2.442,3.827.006,5.858.006c-.55,1.8-1.016,3.474-1.6,5.105-.1.277-.7.5-1.084.523-1.158.07-2.324-.011-3.483.041-1.693.075-2.72,1.025-2.727,2.439s1.014,2.379,2.7,2.448c1.207.049,2.417.009,3.41.009l1.916,12.012c-.241.016-.759.081-1.276.081q-15.911.009-31.821,0c-3.663,0-5.026-1.38-5.027-5.036q0-40.906,0-81.813V68.363H153.2v1.725q0,40.83,0,81.661c0,3.747-1.183,5.089-4.934,5.105-13.991.061-27.982.038-41.973.043a3.354,3.354,0,0,1-.532-.057m-57.752-35.7a23.074,23.074,0,1,0-23-23.167,23.106,23.106,0,0,0,23,23.167m94.059.366q0-10.3,0-20.6c0-2.138-.8-2.965-2.88-2.989s-4.141-.024-6.211,0c-2,.023-2.806.835-2.843,2.874-.031,1.666-.008,3.333-.008,5q0,17.875,0,35.75c0,2.813.649,3.442,3.494,3.444,1.768,0,3.535.005,5.3,0,2.388-.008,3.145-.769,3.146-3.177q.007-10.15,0-20.3m-27.26,3.655c0,5.6-.012,11.2.006,16.807.007,2.151.893,3,3.048,3.013,2.07.01,4.139.019,6.209,0a2.481,2.481,0,0,0,2.775-2.676c.048-1.058.013-2.119.013-3.179q0-15.066,0-30.133c0-2.736-.747-3.465-3.512-3.468-1.767,0-3.533,0-5.3,0-2.429.007-3.231.813-3.235,3.284q-.012,8.177,0,16.354m-3.66-42.136q11.208,0,22.415,0c2.59,0,3.716-.774,3.683-2.519-.032-1.677-1.117-2.4-3.647-2.4q-22.415,0-44.83,0a8.893,8.893,0,0,0-1.806.124,2.374,2.374,0,0,0-.175,4.6,7.349,7.349,0,0,0,1.946.181q11.208.017,22.415.007m-11.8,10.191c3.831,0,7.661-.012,11.492.007a2.49,2.49,0,0,0,2.565-1.484c.763-1.736-.533-3.4-2.751-3.4q-11.265-.045-22.53-.005c-1.9,0-3.018.932-3.053,2.416-.037,1.573,1.054,2.462,3.088,2.469,3.73.012,7.46,0,11.189,0M31.429,129.341c-1.311,0-2.625-.053-3.932.014a2.419,2.419,0,1,0-.044,4.838c2.619.087,5.244.083,7.863,0a2.431,2.431,0,0,0,2.444-2.4,2.472,2.472,0,0,0-2.55-2.442c-1.257-.064-2.521-.013-3.782-.011m-.067,15.449v.019h3.631a3.009,3.009,0,0,0,.3-.019,2.508,2.508,0,0,0,2.465-2.383,2.4,2.4,0,0,0-2.378-2.45c-2.669-.091-5.345-.094-8.014,0a2.3,2.3,0,0,0-2.347,2.44,2.339,2.339,0,0,0,2.409,2.382c1.306.078,2.621.016,3.932.016" transform="translate(-7.177 -40.687)" fill="#fff"/>
      <path id="Trazado_706916" data-name="Trazado 706916" d="M138.964,200.48a24.409,24.409,0,0,1,.075,48.818,24.409,24.409,0,1,1-.075-48.818m.013,2.615a21.755,21.755,0,0,0-21.709,22.238c.046,11.64,10.038,21.353,21.907,21.295a21.767,21.767,0,0,0-.2-43.532" transform="translate(-68.198 -119.318)" fill="#26a07c"/>
      <path id="Trazado_706917" data-name="Trazado 706917" d="M247.9,323.54l14.273,13.868-5.5,5.026-14.311-13.913,5.54-4.981" transform="translate(-144.246 -192.558)" fill="#26a07c"/>
      <path id="Trazado_706918" data-name="Trazado 706918" d="M240.333,191.148h1.929v20.516c-.847-2.713-2.138-4.981-1.987-7.8.223-4.171.057-8.362.057-12.713" transform="translate(-142.995 -113.764)" fill="#e1b127"/>
      <path id="Trazado_706919" data-name="Trazado 706919" d="M227.828,308.823l.9-.99,3.973,4.809.416-.256-1.037,1.147-4.248-4.71" transform="translate(-135.594 -183.21)" fill="#fff"/>
      <path id="Trazado_706920" data-name="Trazado 706920" d="M67.055,130.875A23.074,23.074,0,1,1,90.17,108.091a23,23,0,0,1-23.115,22.784m7.054-6.256c-2.959-5.037-5.825-9.84-8.592-14.7a6.461,6.461,0,0,1-.813-2.972c-.08-5.149-.037-10.3-.037-15.449V89.791C56.993,91.309,51.825,95.5,49.705,102.78c-2.1,7.225-.194,13.656,5.457,18.646,5.514,4.871,11.916,5.658,18.947,3.193m10.784-19.41c-.5-7.382-7.381-14.245-15.186-15.212v15.212Zm-6.649,16.274c2.908-1.435,5.9-6.826,6.324-9.908.137-.992-.544-1.013-1.249-1.011q-4.683.009-9.367,0H71.815l6.428,10.917" transform="translate(-26.222 -50.426)" fill="#161615"/>
      <path id="Trazado_706921" data-name="Trazado 706921" d="M315.624,164.915q0,10.149,0,20.3c0,2.409-.758,3.169-3.146,3.178-1.768.006-3.535,0-5.3,0-2.845,0-3.493-.631-3.494-3.444q-.007-17.875,0-35.75c0-1.666-.022-3.333.008-5,.038-2.04.84-2.85,2.843-2.874q3.106-.036,6.212,0c2.084.024,2.878.851,2.88,2.989q.012,10.3,0,20.6m-6.9,18.488h1.881V146.269h-1.881Z" transform="translate(-180.732 -84.1)" fill="#161615"/>
      <path id="Trazado_706922" data-name="Trazado 706922" d="M265.855,179.776q0-8.177,0-16.354c0-2.472.806-3.277,3.235-3.284,1.767-.005,3.534,0,5.3,0,2.765,0,3.511.732,3.512,3.467q.005,15.067,0,30.133c0,1.06.036,2.122-.013,3.18a2.481,2.481,0,0,1-2.774,2.675c-2.07.022-4.139.014-6.209,0-2.155-.011-3.041-.862-3.048-3.013-.018-5.6-.006-11.2-.006-16.807m7-14.613h-2.025V194.6h2.025Z" transform="translate(-158.224 -95.306)" fill="#161615"/>
      <path id="Trazado_706923" data-name="Trazado 706923" d="M218.491,97.339q-11.208,0-22.415-.007a7.334,7.334,0,0,1-1.946-.181,2.374,2.374,0,0,1,.175-4.6,8.952,8.952,0,0,1,1.806-.124q22.415-.009,44.83,0c2.531,0,3.615.721,3.647,2.4.033,1.744-1.093,2.518-3.683,2.518q-11.207,0-22.415,0" transform="translate(-114.521 -55.005)" fill="#161615"/>
      <path id="Trazado_706924" data-name="Trazado 706924" d="M206.672,122.539c-3.73,0-7.46.008-11.189,0-2.034-.006-3.125-.9-3.088-2.469.034-1.485,1.154-2.412,3.053-2.416q11.265-.025,22.53.005c2.219.009,3.514,1.669,2.751,3.4a2.491,2.491,0,0,1-2.565,1.484c-3.831-.019-7.661-.007-11.492-.005" transform="translate(-114.505 -70.012)" fill="#161615"/>
      <path id="Trazado_706925" data-name="Trazado 706925" d="M50.486,218.952c1.261,0,2.524-.051,3.781.013a2.472,2.472,0,0,1,2.55,2.442,2.431,2.431,0,0,1-2.444,2.395c-2.619.087-5.245.092-7.863,0a2.419,2.419,0,1,1,.045-4.838c1.307-.068,2.621-.014,3.932-.016" transform="translate(-26.233 -130.3)" fill="#161615"/>
      <path id="Trazado_706926" data-name="Trazado 706926" d="M50.418,249.936c-1.311,0-2.625.062-3.932-.016a2.339,2.339,0,0,1-2.409-2.382,2.3,2.3,0,0,1,2.347-2.44c2.669-.09,5.345-.087,8.014,0a2.4,2.4,0,0,1,2.378,2.45,2.508,2.508,0,0,1-2.465,2.383,3,3,0,0,1-.3.019H50.418v-.019" transform="translate(-26.233 -145.833)" fill="#161615"/>
      <path id="Trazado_706927" data-name="Trazado 706927" d="M142.917,206.939a21.767,21.767,0,0,1,.2,43.532c-11.868.059-21.861-9.655-21.906-21.295a21.754,21.754,0,0,1,21.709-22.238m-.008,4.943a16.846,16.846,0,1,0,16.846,16.783,16.828,16.828,0,0,0-16.846-16.783" transform="translate(-72.138 -123.162)" fill="#161615"/>
      <path id="Trazado_706928" data-name="Trazado 706928" d="M81.186,132.065c-7.03,2.465-13.433,1.678-18.947-3.193-5.65-4.991-7.56-11.421-5.457-18.646,2.12-7.283,7.288-11.472,14.962-12.989v1.707c0,5.15-.043,10.3.037,15.449a6.46,6.46,0,0,0,.813,2.972c2.767,4.86,5.633,9.663,8.592,14.7" transform="translate(-33.3 -57.872)" fill="#652e7f"/>
      <path id="Trazado_706929" data-name="Trazado 706929" d="M122.6,112.956H107.412c0-5.092,0-10.152,0-15.213,7.8.968,14.687,7.831,15.185,15.213" transform="translate(-63.927 -58.173)" fill="#26a07c"/>
      <path id="Trazado_706930" data-name="Trazado 706930" d="M119.049,159.467l-6.428-10.917h2.136q4.683,0,9.367,0c.705,0,1.386.019,1.249,1.011-.425,3.081-3.416,8.472-6.324,9.908" transform="translate(-67.028 -88.41)" fill="#e1b127"/>
      <rect id="Rectángulo_346008" data-name="Rectángulo 346008" width="1.881" height="37.133" transform="translate(127.994 62.17)" fill="#ffde7f"/>
      <rect id="Rectángulo_346009" data-name="Rectángulo 346009" width="2.025" height="29.439" transform="translate(112.607 69.857)" fill="#804a93"/>
      <path id="Trazado_706931" data-name="Trazado 706931" d="M150.1,219.149a16.846,16.846,0,0,1,.074,33.691,16.846,16.846,0,0,1-.074-33.691" transform="translate(-79.334 -130.429)" fill="#fff"/>
    </g>
  </g>
</svg>
