<svg id="Grupo_116088" data-name="Grupo 116088" xmlns="http://www.w3.org/2000/svg" xmlns:xlink="http://www.w3.org/1999/xlink" width="505" height="380.184" viewBox="0 0 505 380.184">
  <defs>
    <clipPath id="clip-path">
      <rect id="Rectángulo_40539" data-name="Rectángulo 40539" width="505" height="380.184" fill="none"/>
    </clipPath>
    <clipPath id="clip-path-2">
      <rect id="Rectángulo_40538" data-name="Rectángulo 40538" width="504.999" height="380.184" fill="none"/>
    </clipPath>
    <clipPath id="clip-path-3">
      <rect id="Rectángulo_40504" data-name="Rectángulo 40504" width="72.023" height="127.617" fill="none"/>
    </clipPath>
  </defs>
  <g id="Grupo_116087" data-name="Grupo 116087" clip-path="url(#clip-path)">
    <g id="Grupo_116086" data-name="Grupo 116086" transform="translate(0 0)">
      <g id="Grupo_116085" data-name="Grupo 116085" clip-path="url(#clip-path-2)">
        <path id="Trazado_665830" data-name="Trazado 665830" d="M639.266,502.119l-.007.169a111.287,111.287,0,0,1-1.41,13.956C634.012,539.4,624,554.191,621.508,557.775l-.005.007c-.338.486-.546.764-.572.836-10.845,0-80.957.016-160.853-.014-21.536-.007-43.782-.018-65.772-.037-9.986-.007-19.918-.014-29.707-.023l-21.119-.023c-26.343-.03-51.082-.069-72.3-.12-11.358-.028-21.706-.058-30.753-.1-24.089-.091-38.934-.206-38.979-.357l-.026-.1a.131.131,0,0,1-.024-.062.012.012,0,0,1,0-.007.142.142,0,0,0-.028-.072A188.178,188.178,0,0,1,183.3,496.616a162.434,162.434,0,0,1-1-25.839v-.142c1.445-33.17,14-70.553,52.383-102.282,36.674-30.359-2.312-50.386,26.849-84.187,33.519-38.79,70.115,4.147,107.391-13.458,6.568-3.125,13.189-8.116,19.809-15.775a75.537,75.537,0,0,1,12.162-11.35c.684-.526,1.341-1.019,2.023-1.476a76.889,76.889,0,0,1,8.145-4.953c1.864-.985,3.781-1.9,5.727-2.741a77.416,77.416,0,0,1,9.509-3.478,95.4,95.4,0,0,1,14.185-3.128q3.154-.476,6.385-.739c39.45-3.327,83.595,14.255,108.7,40.678q2.089,2.2,4,4.474c.526.63,1.254,1.545,2.113,2.729a74.429,74.429,0,0,1,12.866,56.426c-.421,2.37-.963,4.8-1.642,7.268a88.26,88.26,0,0,1-3.8,10.912c-2.442,5.8-2.075,11.489.132,17.253l.024.035h0q.182.466.379.931.691,1.63,1.573,3.267.5.939,1.058,1.872c.092.155.185.31.281.468.19.313.385.623.584.936,0,0,0,0,0,0,.159.25.321.5.485.748s.329.5.5.753.341.5.516.749.35.5.53.753.362.5.546.75.371.5.559.751h0c3.17,4.21,4.045,9.517,4.866,15.719.321,2.417.632,4.972,1.07,7.648.019.118.04.238.059.359.376,2.254.845,4.594,1.486,7.013.029.119.062.239.1.359A59.144,59.144,0,0,0,586,416.4c.081.206.164.413.251.619v0c.066.164.134.327.2.491.05.121.1.239.152.359.087.2.177.408.268.612l0,0c.036.084.074.172.116.257q.946,2.109,2.146,4.279.525.952,1.107,1.916a68.484,68.484,0,0,0,7.954,10.593,104.686,104.686,0,0,0,16.925,14.758q1.689,1.206,3.255,2.444c9.839,7.773,16,16.41,18.209,26.157.312,1.377.838,4.066,1.346,7.3a91.539,91.539,0,0,1,1.332,15.928" transform="translate(-143.932 -179.101)" fill="#beffff"/>
        <path id="Trazado_665831" data-name="Trazado 665831" d="M2011.656,1524.259c.006.046.008.092.011.139a67.12,67.12,0,0,1-1.5,11.119l-20.746,3.254-4.282.672-2.436.382-16.879,2.648-1.51.236-3.394.533-.882.139h-.005s-.727.085-1.99.2l-.329.031c-.84.078-1.881.168-3.075.258-.448.035-.919.068-1.408.1l-.279.018c-.685.046-1.4.089-2.152.131-1.543.083-3.208.155-4.941.2-.674.017-1.359.03-2.049.039-.36,0-.724.006-1.087.006q-.656,0-1.318,0c-.651,0-1.307-.015-1.96-.031-.48-.011-.962-.026-1.44-.042q-1-.039-2-.1c-.1-.006-.2-.013-.3-.02-.308-.018-.616-.039-.923-.063-1.521-.114-3-.271-4.417-.48-.238-.035-.472-.072-.7-.111-5.31-.868-9.458-2.523-10.412-5.488-.868-2.715,1.008-6.578,7.194-11.951q1.545-1.34,3.217-2.568c7.18-5.279,16.019-9.02,25.281-11.661q.576-.166,1.154-.323l.177-.05.316-.085c.208-.057.417-.112.624-.166q.548-.147,1.1-.286,2.774-.709,5.571-1.294.7-.15,1.406-.29c.22-.044.439-.089.657-.131q.227-.047.454-.089.346-.067.692-.131a189.916,189.916,0,0,1,22.333-2.768c7.776-.524,14.576-.567,19.4-.482a28.947,28.947,0,0,1,1.434,5.814c.633,3.789,1.087,8.466,1.4,12.686" transform="translate(-1516.343 -1189.756)" fill="#a8d29f"/>
        <path id="Trazado_665832" data-name="Trazado 665832" d="M1624.463,659.169s5.969-15.668,20.242-13.927c0,0,20.722-26.114,42.819-3.482,0,0,23.489-5.608,40.885,4.855,11.6,6.976,15.429,14.295,15.429,14.295Z" transform="translate(-1283.578 -499.798)" fill="#f8fcff"/>
        <path id="Trazado_665833" data-name="Trazado 665833" d="M1150.765,1196.6s8.058-13.97,27.328-12.418c0,0,27.977-23.284,57.811-3.1,0,0,31.713-5,55.2,4.329,15.659,6.22,20.831,12.745,20.831,12.745Z" transform="translate(-909.283 -926.735)" fill="#f8fcff"/>
        <path id="Trazado_665834" data-name="Trazado 665834" d="M1535.579,961.146s-6.095-10.444-20.648-7.858-10.68,19.4-18.734,27.3-15.076,14.947-11.619,26.113-14.9,13.553-14.851,30.415,3.977,26.8,26.551,28.113,58.682-4.653,63.572-11.454,4.067-21.733-8.21-40.787-1.06-20.763-9.264-31.8-2.429-15.506-6.8-20.05" transform="translate(-1161.312 -752.92)" fill="#79b27f"/>
        <path id="Trazado_665835" data-name="Trazado 665835" d="M244.964,756.71s5.26-17.7,17.838-15.731c0,0,18.261-29.5,37.734-3.933,0,0,20.7-6.334,36.029,5.485,10.221,7.88,13.6,16.146,13.6,16.146Z" transform="translate(-193.56 -574.142)" fill="#f8fcff"/>
        <path id="Trazado_665836" data-name="Trazado 665836" d="M1312.336,1105.181h-5.218l1.123-147.955h2.645Z" transform="translate(-1032.826 -756.357)" fill="#739af0"/>
        <path id="Trazado_665837" data-name="Trazado 665837" d="M1114.623,949.439l-37.943,32.49-14.747,12.629-1.116-1.127,13.057-14.481,21.389-23.719,16.9-8.856Z" transform="translate(-838.21 -747.782)" fill="#7faaf7"/>
        <path id="Trazado_665838" data-name="Trazado 665838" d="M1076.68,1104.591l-14.747,12.629-1.116-1.127,13.057-14.481Z" transform="translate(-838.21 -870.444)" fill="#f7c948"/>
        <path id="Trazado_665839" data-name="Trazado 665839" d="M1220.186,709.757l-3.7,1.315-18.6-47.43-6.726-17.149,1.432-.683,9.025,16.416,15.756,28.657Z" transform="translate(-941.197 -510.29)" fill="#7faaf7"/>
        <path id="Trazado_665840" data-name="Trazado 665840" d="M1201.612,662.226l-3.731,1.416-6.726-17.149,1.432-.683Z" transform="translate(-941.197 -510.289)" fill="#f7c948"/>
        <path id="Trazado_665841" data-name="Trazado 665841" d="M1387.034,941.177l-24.759,1.712-26.554,1.836-18.312-5.373.363-3.912,43.371,2.6,25.873,1.55Z" transform="translate(-1040.957 -739.143)" fill="#7faaf7"/>
        <path id="Trazado_665842" data-name="Trazado 665842" d="M1551.709,950.963l-25.645,1.773-.247-4.911,25.873,1.55Z" transform="translate(-1205.632 -748.929)" fill="#f7c948"/>
        <path id="Trazado_665843" data-name="Trazado 665843" d="M1304.766,933.041a3.406,3.406,0,1,0,3.2,3.6,3.406,3.406,0,0,0-3.2-3.6" transform="translate(-1028.115 -737.242)" fill="#2b478b"/>
        <path id="Trazado_665844" data-name="Trazado 665844" d="M481.178,1581.023H587.152l44.178-.029h79.893s.046-.08.136-.241c.064-.114.151-.268.263-.464l.043-.058v-.029s.043-.031.043-.059a6.87,6.87,0,0,0,.485-.82,5.1,5.1,0,0,1,.31-.5v-.059l.043-.029c.6-1.046,1.356-2.409,2.223-4.055l.237-.453c.432-1.244.907-2.636,1.412-4.171,1.2-3.723,2.581-8.268,3.928-13.4.528-2.024,1.056-4.134,1.555-6.334.294-1.269.589-2.592.871-3.927q.123-.587.242-1.175c.518-2.5,1.006-5.076,1.446-7.708.864-5.153,1.546-10.522,1.929-15.964-34.315,1.769-100.463,6.424-150.219,17.536-70.208,15.68-87.558,18.212-117.3,21.025-16.644,1.574,2.348,12.016,22.307,20.908" transform="translate(-357.545 -1202.264)" fill="#d4dfff"/>
        <path id="Trazado_665845" data-name="Trazado 665845" d="M801.822,1581.825s113.709-34.632,142.34-37.141,1.2,3.354,1.2,3.354-77.819,20.244-95.906,28.877c-38.251,18.258-47.637,4.909-47.637,4.909" transform="translate(-633.564 -1220.047)" fill="#d4dfff"/>
        <path id="Trazado_665846" data-name="Trazado 665846" d="M965.493,1600.1s94.768-43.527,120.411-50.6,1.653,2.814,1.653,2.814-74.826,39.018-90.5,48.869c-2.269,1.426-31.564-1.084-31.564-1.084" transform="translate(-762.889 -1222.329)" fill="#d4dfff"/>
        <g id="Grupo_116084" data-name="Grupo 116084" transform="translate(155.392 202.971)" opacity="0.5">
          <g id="Grupo_116083" data-name="Grupo 116083">
            <g id="Grupo_116082" data-name="Grupo 116082" clip-path="url(#clip-path-3)">
              <path id="Trazado_665847" data-name="Trazado 665847" d="M812.533,1003.518l-15.228,1.959-15.228,1.987-9.378-2.155a1.975,1.975,0,0,1-1.063.9l.672,86.692a10.8,10.8,0,0,0-2.8,1.959l.532-88.147L749.55,1026.5l-8.342,8.034-.7-.616,7.278-9.1,11.9-14.892,9.237-5.571c-.028-.028-.028-.028-.028-.056a2.112,2.112,0,0,1,.392-1.176l-11.756-25.445-4.619-9.966.812-.476,5.963,9.461L770.1,993.217l1.987,9.349h40.393Z" transform="translate(-740.509 -967.24)" fill="#aec3ff"/>
            </g>
          </g>
        </g>
        <path id="Trazado_665848" data-name="Trazado 665848" d="M1933.624,583.222h-6.3l1.356-196.556h3.195Z" transform="translate(-1522.884 -305.525)" fill="#739af0"/>
        <path id="Trazado_665849" data-name="Trazado 665849" d="M1936.33,74.876l27.048-53.919L1973.89,0l1.77.733L1967.9,22.961l-12.719,36.411L1940.5,77.139Z" transform="translate(-1530.001 0.001)" fill="#83affc"/>
        <path id="Trazado_665850" data-name="Trazado 665850" d="M2065.226,20.957,2075.738,0l1.77.733-7.764,22.229Z" transform="translate(-1631.849 0.001)" fill="#f7c948"/>
        <path id="Trazado_665851" data-name="Trazado 665851" d="M1927.543,362.141l3.507-3.2,42.894,44.106L1989.454,419l-1.275,1.43-17.726-14.056-30.944-24.535Z" transform="translate(-1523.058 -283.622)" fill="#83affc"/>
        <path id="Trazado_665852" data-name="Trazado 665852" d="M2132.028,572.45l3.491-3.322,15.509,15.947-1.275,1.43Z" transform="translate(-1684.633 -449.7)" fill="#f7c948"/>
        <path id="Trazado_665853" data-name="Trazado 665853" d="M1565.882,395.116l26.765-13.486,28.705-14.464,22.9-2.583,1.426,4.525-49.5,17.391-29.53,10.375Z" transform="translate(-1237.29 -288.077)" fill="#83affc"/>
        <path id="Trazado_665854" data-name="Trazado 665854" d="M1565.882,457.487l27.722-13.969,2.572,5.352-29.53,10.375Z" transform="translate(-1237.29 -350.448)" fill="#f7c948"/>
        <path id="Trazado_665855" data-name="Trazado 665855" d="M1927.5,358.323a4.113,4.113,0,1,0-5.244-2.517,4.114,4.114,0,0,0,5.244,2.517" transform="translate(-1518.693 -276.813)" fill="#2b478b"/>
        <path id="Trazado_665856" data-name="Trazado 665856" d="M1198.8,1673.105s-22.885-6.8-36.284,1.533-5.473,17.931-21.325,17.1-23.778-1.636-24.612,7.734h70.081Z" transform="translate(-882.268 -1319.946)" fill="#a8d29f"/>
        <rect id="Rectángulo_40505" data-name="Rectángulo 40505" width="76.919" height="107.85" transform="translate(336.395 271.509)" fill="#f9ddbf"/>
        <path id="Trazado_665857" data-name="Trazado 665857" d="M2029.375,1296.674v104.971h-59.763V1293.791h57.16c.9.952,1.764,1.9,2.6,2.883" transform="translate(-1556.299 -1022.295)" fill="#fff3e9"/>
        <path id="Trazado_665858" data-name="Trazado 665858" d="M1674.936,1090.037l-6.074,12.512-2.687,5.515-.084.224-.112.2-.084.168-.14.28-.056.14-2.659,5.458-.14.28-.336.728-4.731,9.713-1.092,2.267-1.539,3.135-.812,1.68h-76.559l5.29-6.858.168-.224,34.43-44.564.028-.028h3.023l46.691-.168a40.353,40.353,0,0,0,7.474,9.545" transform="translate(-1246.731 -853.756)" fill="#f7c948"/>
        <path id="Trazado_665859" data-name="Trazado 665859" d="M1671.413,1132.416v8.969l-76.919,3.25v-11.7h-2.276l39.918-51.7Z" transform="translate(-1258.099 -854.346)" fill="#f9ddbf"/>
        <path id="Trazado_665860" data-name="Trazado 665860" d="M1743.709,1203.968h-4.227a8.56,8.56,0,0,0-8.56,8.56v26.467h21.07V1212.25a8.282,8.282,0,0,0-8.282-8.282" transform="translate(-1367.697 -951.321)" fill="#efcdaf"/>
        <path id="Trazado_665861" data-name="Trazado 665861" d="M1876.334,1135.112h-68.189l-3.443-4.563-4.059-5.4L1768.7,1082.57l-1.484-1.987-.168-.224h68.189l.168.224,1.483,1.987,31.939,42.576,4.059,5.4Z" transform="translate(-1396.245 -853.651)" fill="#f7c948"/>
        <path id="Trazado_665862" data-name="Trazado 665862" d="M1469.852,1396.659,1451.91,1433.6H1397.4l28.419-36.806Z" transform="translate(-1104.162 -1103.578)" fill="#f7c948"/>
        <path id="Trazado_665863" data-name="Trazado 665863" d="M1477.636,1396.659l-17.943,36.941h-54.511l28.42-36.806Z" transform="translate(-1110.312 -1103.578)" fill="#f9ddbf"/>
        <path id="Trazado_665864" data-name="Trazado 665864" d="M1459.577,1572.7v49.234l-54.391.107V1572.7Z" transform="translate(-1110.315 -1242.674)" fill="#f9ddbf"/>
        <rect id="Rectángulo_40506" data-name="Rectángulo 40506" width="46.059" height="49.234" transform="translate(349.262 330.022)" fill="#fff3e9"/>
        <path id="Trazado_665865" data-name="Trazado 665865" d="M1611.553,1436.29h-49.479l-29.248-38.991,14.739,0,33.89.007Z" transform="translate(-1211.171 -1104.083)" fill="#f7c948"/>
        <path id="Trazado_665866" data-name="Trazado 665866" d="M1520.576,1485.347a2.572,2.572,0,1,1,2.572,2.572,2.571,2.571,0,0,1-2.572-2.572" transform="translate(-1201.491 -1171.623)" fill="#efcdaf"/>
        <path id="Trazado_665867" data-name="Trazado 665867" d="M1667.051,1436.3h-9.391l-54.6-38.988,33.89.007Z" transform="translate(-1266.669 -1104.092)" fill="#f7c948"/>
        <path id="Trazado_665868" data-name="Trazado 665868" d="M1950.861,1209.871H1988.3l-19.748-24.219h-37.435Z" transform="translate(-1525.879 -936.849)" fill="#2b478b"/>
        <path id="Trazado_665869" data-name="Trazado 665869" d="M1954.536,1214.979h37.436l-.232-.285H1954.3Z" transform="translate(-1544.203 -959.797)" fill="#aec3ff"/>
        <path id="Trazado_665870" data-name="Trazado 665870" d="M2067.575,1185.649l19.748,24.219h.285l-19.748-24.219Z" transform="translate(-1633.705 -936.847)" fill="#aec3ff"/>
        <path id="Trazado_665871" data-name="Trazado 665871" d="M2020.309,1185.649l19.748,24.219h.285l-19.748-24.219Z" transform="translate(-1596.357 -936.847)" fill="#aec3ff"/>
        <path id="Trazado_665872" data-name="Trazado 665872" d="M1974.827,1185.649l19.748,24.219h.285l-19.748-24.219Z" transform="translate(-1560.42 -936.847)" fill="#aec3ff"/>
        <path id="Trazado_665873" data-name="Trazado 665873" d="M1977.846,1242.965h37.435l-.232-.285h-37.435Z" transform="translate(-1562.622 -981.91)" fill="#aec3ff"/>
        <path id="Trazado_665874" data-name="Trazado 665874" d="M2002.461,1273.154H2039.9l-.232-.285h-37.435Z" transform="translate(-1582.071 -1005.764)" fill="#aec3ff"/>
        <path id="Trazado_665875" data-name="Trazado 665875" d="M2089.295,1212.241l.215-1.166-2.117-1.167-.215,1.167Z" transform="translate(-1649.194 -956.015)" fill="#aec3ff"/>
        <path id="Trazado_665876" data-name="Trazado 665876" d="M2042.538,1212.241l.215-1.166-2.118-1.167-.215,1.167Z" transform="translate(-1612.249 -956.015)" fill="#aec3ff"/>
        <path id="Trazado_665877" data-name="Trazado 665877" d="M1996.378,1212.241l.215-1.166-2.118-1.167-.215,1.167Z" transform="translate(-1575.775 -956.015)" fill="#aec3ff"/>
        <path id="Trazado_665878" data-name="Trazado 665878" d="M2112.037,1240.133l.215-1.166-2.118-1.167-.215,1.167Z" transform="translate(-1667.164 -978.054)" fill="#aec3ff"/>
        <path id="Trazado_665879" data-name="Trazado 665879" d="M2065.28,1240.133l.215-1.166-2.117-1.167-.215,1.167Z" transform="translate(-1630.219 -978.054)" fill="#aec3ff"/>
        <path id="Trazado_665880" data-name="Trazado 665880" d="M2019.12,1240.133l.215-1.166-2.117-1.167-.215,1.167Z" transform="translate(-1593.745 -978.054)" fill="#aec3ff"/>
        <path id="Trazado_665881" data-name="Trazado 665881" d="M2136.653,1270.322l.215-1.166-2.117-1.167-.215,1.167Z" transform="translate(-1686.614 -1001.908)" fill="#aec3ff"/>
        <path id="Trazado_665882" data-name="Trazado 665882" d="M2089.9,1270.322l.215-1.166-2.118-1.167-.215,1.167Z" transform="translate(-1649.669 -1001.908)" fill="#aec3ff"/>
        <path id="Trazado_665883" data-name="Trazado 665883" d="M2043.735,1270.322l.215-1.166-2.118-1.167-.215,1.167Z" transform="translate(-1613.195 -1001.908)" fill="#aec3ff"/>
        <path id="Trazado_665884" data-name="Trazado 665884" d="M1621.111,1464.688h33.921l-17.894-21.945h-33.921Z" transform="translate(-1266.791 -1139.991)" fill="#2b478b"/>
        <path id="Trazado_665885" data-name="Trazado 665885" d="M1624.441,1469.316h33.921l-.211-.258h-33.921Z" transform="translate(-1283.395 -1160.783)" fill="#aec3ff"/>
        <path id="Trazado_665886" data-name="Trazado 665886" d="M1726.867,1442.74l17.894,21.945h.258l-17.894-21.945Z" transform="translate(-1364.493 -1139.989)" fill="#aec3ff"/>
        <path id="Trazado_665887" data-name="Trazado 665887" d="M1684.039,1442.74l17.894,21.945h.258L1684.3,1442.74Z" transform="translate(-1330.652 -1139.989)" fill="#aec3ff"/>
        <path id="Trazado_665888" data-name="Trazado 665888" d="M1642.828,1442.74l17.894,21.945h.258l-17.894-21.945Z" transform="translate(-1298.089 -1139.989)" fill="#aec3ff"/>
        <path id="Trazado_665889" data-name="Trazado 665889" d="M1645.563,1494.675h33.921l-.21-.258h-33.921Z" transform="translate(-1300.084 -1180.821)" fill="#aec3ff"/>
        <path id="Trazado_665890" data-name="Trazado 665890" d="M1667.867,1522.029h33.921l-.21-.258h-33.92Z" transform="translate(-1317.708 -1202.435)" fill="#aec3ff"/>
        <path id="Trazado_665891" data-name="Trazado 665891" d="M1746.548,1466.835l.195-1.057-1.919-1.057-.2,1.057Z" transform="translate(-1378.528 -1157.357)" fill="#aec3ff"/>
        <path id="Trazado_665892" data-name="Trazado 665892" d="M1704.18,1466.835l.2-1.057-1.919-1.057-.2,1.057Z" transform="translate(-1345.051 -1157.357)" fill="#aec3ff"/>
        <path id="Trazado_665893" data-name="Trazado 665893" d="M1662.354,1466.835l.2-1.057-1.919-1.057-.2,1.057Z" transform="translate(-1312.001 -1157.357)" fill="#aec3ff"/>
        <path id="Trazado_665894" data-name="Trazado 665894" d="M1767.155,1492.109l.195-1.057-1.919-1.057-.2,1.057Z" transform="translate(-1394.811 -1177.327)" fill="#aec3ff"/>
        <path id="Trazado_665895" data-name="Trazado 665895" d="M1724.788,1492.109l.2-1.057-1.919-1.057-.2,1.057Z" transform="translate(-1361.334 -1177.327)" fill="#aec3ff"/>
        <path id="Trazado_665896" data-name="Trazado 665896" d="M1682.962,1492.109l.2-1.057-1.919-1.057-.2,1.057Z" transform="translate(-1328.285 -1177.327)" fill="#aec3ff"/>
        <path id="Trazado_665897" data-name="Trazado 665897" d="M1789.46,1519.463l.2-1.057-1.919-1.057-.2,1.057Z" transform="translate(-1412.435 -1198.941)" fill="#aec3ff"/>
        <path id="Trazado_665898" data-name="Trazado 665898" d="M1747.093,1519.463l.195-1.057-1.919-1.057-.2,1.057Z" transform="translate(-1378.958 -1198.941)" fill="#aec3ff"/>
        <path id="Trazado_665899" data-name="Trazado 665899" d="M1705.266,1519.463l.2-1.057-1.919-1.057-.2,1.057Z" transform="translate(-1345.909 -1198.941)" fill="#aec3ff"/>
        <path id="Trazado_665900" data-name="Trazado 665900" d="M338.173,1609.9l-.033.092H209.76a.007.007,0,0,1,0-.006.1.1,0,0,0-.029-.057,125.171,125.171,0,0,1-19.253-48.666c3.213-1.235,14.559-5.07,30.521-4.655q.963.025,1.949.072A94.681,94.681,0,0,1,242.2,1559.6c.242.063.485.125.729.19l.205.055c.487.131.974.266,1.465.406.55.157,1.1.319,1.656.487l.6.183q1.1.343,2.217.718c8.671,2.918,14.051,6.063,17.8,9.1l.233.188a38.237,38.237,0,0,1,4.437,4.339q.5.571.965,1.124c.384.459.753.91,1.115,1.351a36.85,36.85,0,0,0,3.647,4.039c3.625,3.3,8.721,5.292,21.287,4.791q3.38-.136,6.466-.066c27.02.563,37.295,12.143,33.16,23.393" transform="translate(-150.506 -1229.939)" fill="#a8d29f"/>
        <path id="Trazado_665901" data-name="Trazado 665901" d="M1749.664,1584.572l-.019,0a135.479,135.479,0,0,0-22.237-2.453,142.767,142.767,0,0,0-19.688.766l-.756.083c-.742.087-1.49.177-2.243.277q-2.465.321-4.995.748a0,0,0,0,1-.006,0c-.5.085-1,.172-1.506.264q-.811.144-1.628.3-1.75.338-3.529.731-.781.171-1.567.358c-.524.12-1.048.247-1.576.376q-.958.238-1.921.489h0l-.6.161h0q-.883.238-1.772.489-3.59,1.016-7.248,2.283c-4,1.38-7.549,2.741-10.724,4.066-4.029,1.678-7.453,3.3-10.412,4.834-2.922,1.51-5.4,2.944-7.581,4.282-11.8,7.25-14.7,11.724-30.8,10.471q-2.151-.163-4.123-.135a35.664,35.664,0,0,0-11.139,1.823,28.092,28.092,0,0,0-12.868,8.876,22.894,22.894,0,0,0-3.228,5.135c-.033.076-.048.116-.048.116h143.291a72.49,72.49,0,0,0,17.413-33.087,67.172,67.172,0,0,0,1.5-11.119Z" transform="translate(-1254.333 -1250.065)" fill="#a8d29f"/>
        <path id="Trazado_665902" data-name="Trazado 665902" d="M356.5,1192.253a10.875,10.875,0,0,1,10.491-5.143s10.74-9.644,22.193-1.286c0,0,12.174-2.071,21.19,1.793,6.011,2.576,8,5.279,8,5.279Z" transform="translate(-281.693 -934.292)" fill="#f8fcff"/>
        <path id="Trazado_665903" data-name="Trazado 665903" d="M943.945,905.762s2.562-5.5,8.688-4.891c0,0,8.893-9.172,18.377-1.223,0,0,10.082-1.969,17.547,1.705,4.978,2.45,6.622,5.02,6.622,5.02Z" transform="translate(-745.863 -708.3)" fill="#f8fcff"/>
        <path id="Trazado_665904" data-name="Trazado 665904" d="M1298.612,391.1s2.562-5.5,8.688-4.891c0,0,8.894-9.172,18.377-1.223,0,0,10.081-1.969,17.547,1.705,4.978,2.45,6.622,5.02,6.622,5.02Z" transform="translate(-1026.105 -301.634)" fill="#f8fcff"/>
        <path id="Trazado_665905" data-name="Trazado 665905" d="M933.279,551.1s2.562-5.5,8.688-4.891c0,0,8.893-9.172,18.377-1.223,0,0,10.081-1.969,17.547,1.705,4.978,2.45,6.622,5.02,6.622,5.02Z" transform="translate(-737.435 -428.059)" fill="#f8fcff"/>
        <path id="Trazado_665906" data-name="Trazado 665906" d="M311.451,1416.753l9.218-.129,21.528-101.1-9.218.129Z" transform="translate(-246.094 -1039.465)" fill="#ffc400"/>
        <path id="Trazado_665907" data-name="Trazado 665907" d="M238.881,1790.076h41.337a4.682,4.682,0,0,0-4.379-4.936H243.26a4.682,4.682,0,0,0-4.379,4.936" transform="translate(-188.753 -1410.538)" fill="#ffc400"/>
        <path id="Trazado_665908" data-name="Trazado 665908" d="M145.618,1219.807l-3.97-22.435-.008-.047-13.213-74.659L0,1122.686l17.192,97.142,24.394,0h.229l27.3,0H69.2l27.181,0h.186l27.121,0h.246Z" transform="translate(0 -887.08)" fill="#ffc400"/>
        <path id="Trazado_665909" data-name="Trazado 665909" d="M156.1,1217.886l-128.426.021-17.192-95.221,128.426-.021Z" transform="translate(-8.283 -887.08)" fill="#2a4e96"/>
        <path id="Trazado_665910" data-name="Trazado 665910" d="M144.342,1218.93H144.1l-17.145-94.965h.246Z" transform="translate(-100.311 -888.106)" fill="#c0d8fb"/>
        <path id="Trazado_665911" data-name="Trazado 665911" d="M274.758,1218.909h-.246l-17.145-94.965h.246Z" transform="translate(-203.36 -888.09)" fill="#c0d8fb"/>
        <path id="Trazado_665912" data-name="Trazado 665912" d="M405.175,1218.888h-.246l-17.145-94.965h.246Z" transform="translate(-306.409 -888.074)" fill="#c0d8fb"/>
        <path id="Trazado_665913" data-name="Trazado 665913" d="M535.591,1218.867h-.246L518.2,1123.9h.246Z" transform="translate(-409.458 -888.057)" fill="#c0d8fb"/>
        <path id="Trazado_665914" data-name="Trazado 665914" d="M158.174,1229.376l-128.426.021-.047-.26,128.426-.021Z" transform="translate(-23.468 -971.192)" fill="#c0d8fb"/>
        <path id="Trazado_665915" data-name="Trazado 665915" d="M179.956,1350.017l-128.426.021-.047-.26,128.426-.021Z" transform="translate(-40.68 -1066.517)" fill="#c0d8fb"/>
        <path id="Trazado_665916" data-name="Trazado 665916" d="M201.737,1470.656l-128.426.021-.047-.26,128.426-.021Z" transform="translate(-57.89 -1161.841)" fill="#c0d8fb"/>
        <path id="Trazado_665917" data-name="Trazado 665917" d="M137.2,1222.074l-3.149-2.8,2.138-2.8,3.149,2.8Z" transform="translate(-105.919 -961.204)" fill="#c0d8fb"/>
        <path id="Trazado_665918" data-name="Trazado 665918" d="M159.09,1343.335l-3.149-2.8,2.138-2.8,3.149,2.8Z" transform="translate(-123.218 -1057.019)" fill="#c0d8fb"/>
        <path id="Trazado_665919" data-name="Trazado 665919" d="M268.2,1222.053l-3.149-2.8,2.139-2.8,3.149,2.8Z" transform="translate(-209.43 -961.188)" fill="#c0d8fb"/>
        <path id="Trazado_665920" data-name="Trazado 665920" d="M290.092,1343.314l-3.149-2.8,2.138-2.8,3.149,2.8Z" transform="translate(-226.729 -1057.003)" fill="#c0d8fb"/>
        <path id="Trazado_665921" data-name="Trazado 665921" d="M398.615,1222.032l-3.149-2.8,2.138-2.8,3.149,2.8Z" transform="translate(-312.48 -961.172)" fill="#c0d8fb"/>
        <path id="Trazado_665922" data-name="Trazado 665922" d="M527.861,1222.011l-3.149-2.8,2.138-2.8,3.149,2.8Z" transform="translate(-414.604 -961.155)" fill="#c0d8fb"/>
        <path id="Trazado_665923" data-name="Trazado 665923" d="M180.759,1463.355l-3.149-2.8,2.138-2.8,3.149,2.8Z" transform="translate(-140.339 -1151.854)" fill="#c0d8fb"/>
        <path id="Trazado_665924" data-name="Trazado 665924" d="M311.761,1463.334l-3.149-2.8,2.138-2.8,3.149,2.8Z" transform="translate(-243.851 -1151.838)" fill="#c0d8fb"/>
        <path id="Trazado_665925" data-name="Trazado 665925" d="M442.177,1463.313l-3.149-2.8,2.138-2.8,3.149,2.8Z" transform="translate(-346.9 -1151.821)" fill="#c0d8fb"/>
        <path id="Trazado_665926" data-name="Trazado 665926" d="M571.423,1463.293l-3.149-2.8,2.138-2.8,3.149,2.8Z" transform="translate(-449.025 -1151.805)" fill="#c0d8fb"/>
        <path id="Trazado_665927" data-name="Trazado 665927" d="M549.754,1343.273l-3.149-2.8,2.138-2.8,3.149,2.8Z" transform="translate(-431.903 -1056.97)" fill="#c0d8fb"/>
        <path id="Trazado_665928" data-name="Trazado 665928" d="M420.509,1343.293l-3.149-2.8,2.138-2.8,3.149,2.8Z" transform="translate(-329.779 -1056.986)" fill="#c0d8fb"/>
        <path id="Trazado_665929" data-name="Trazado 665929" d="M944.53,1567.377l6.4-.08,14.938-62.246-6.4.08Z" transform="translate(-746.326 -1189.223)" fill="#f5c936"/>
        <path id="Trazado_665930" data-name="Trazado 665930" d="M894.175,1797.219h28.683a3.038,3.038,0,0,0-3.039-3.038H897.214a3.039,3.039,0,0,0-3.039,3.038" transform="translate(-706.537 -1417.681)" fill="#f5c936"/>
        <path id="Trazado_665931" data-name="Trazado 665931" d="M829.461,1446.123l-2.755-13.812-.006-.029-9.168-45.965-89.114.013,11.929,59.807,16.927,0h.159l18.943,0h.058l18.861,0h.129l18.82,0h.17Z" transform="translate(-575.563 -1095.405)" fill="#f5c936"/>
        <path id="Trazado_665932" data-name="Trazado 665932" d="M836.735,1444.941l-89.114.013-11.929-58.624,89.114-.013Z" transform="translate(-581.311 -1095.405)" fill="#2a4e96"/>
        <path id="Trazado_665933" data-name="Trazado 665933" d="M828.575,1445.583h-.17l-11.9-58.467h.17Z" transform="translate(-645.168 -1096.037)" fill="#c0d8fb"/>
        <path id="Trazado_665934" data-name="Trazado 665934" d="M919.07,1445.57h-.17L907,1387.1h.17Z" transform="translate(-716.673 -1096.027)" fill="#c0d8fb"/>
        <path id="Trazado_665935" data-name="Trazado 665935" d="M1009.565,1445.557h-.171l-11.9-58.467h.17Z" transform="translate(-788.177 -1096.016)" fill="#c0d8fb"/>
        <path id="Trazado_665936" data-name="Trazado 665936" d="M1100.059,1445.545h-.171l-11.9-58.467h.171Z" transform="translate(-859.682 -1096.007)" fill="#c0d8fb"/>
        <path id="Trazado_665937" data-name="Trazado 665937" d="M838.174,1452.014l-89.114.013-.033-.16,89.114-.012Z" transform="translate(-591.848 -1147.19)" fill="#c0d8fb"/>
        <path id="Trazado_665938" data-name="Trazado 665938" d="M853.288,1526.29l-89.114.012-.033-.16,89.114-.012Z" transform="translate(-603.79 -1205.879)" fill="#c0d8fb"/>
        <path id="Trazado_665939" data-name="Trazado 665939" d="M868.4,1600.563l-89.114.013-.033-.16,89.114-.013Z" transform="translate(-615.732 -1264.566)" fill="#c0d8fb"/>
        <path id="Trazado_665940" data-name="Trazado 665940" d="M823.618,1447.519l-2.185-1.723,1.484-1.724,2.185,1.723Z" transform="translate(-649.059 -1141.041)" fill="#c0d8fb"/>
        <path id="Trazado_665941" data-name="Trazado 665941" d="M838.809,1522.174l-2.185-1.723,1.484-1.724,2.185,1.723Z" transform="translate(-661.063 -1200.03)" fill="#c0d8fb"/>
        <path id="Trazado_665942" data-name="Trazado 665942" d="M914.519,1447.505l-2.185-1.723,1.484-1.724,2.185,1.723Z" transform="translate(-720.885 -1141.03)" fill="#c0d8fb"/>
        <path id="Trazado_665943" data-name="Trazado 665943" d="M929.71,1522.161l-2.185-1.723,1.484-1.724,2.185,1.723Z" transform="translate(-732.889 -1200.02)" fill="#c0d8fb"/>
        <path id="Trazado_665944" data-name="Trazado 665944" d="M1005.013,1447.492l-2.185-1.723,1.484-1.724,2.185,1.723Z" transform="translate(-792.39 -1141.02)" fill="#c0d8fb"/>
        <path id="Trazado_665945" data-name="Trazado 665945" d="M1094.7,1447.48l-2.185-1.723,1.484-1.724,2.185,1.723Z" transform="translate(-863.253 -1141.01)" fill="#c0d8fb"/>
        <path id="Trazado_665946" data-name="Trazado 665946" d="M853.846,1596.067l-2.185-1.723,1.484-1.724,2.185,1.723Z" transform="translate(-672.944 -1258.417)" fill="#c0d8fb"/>
        <path id="Trazado_665947" data-name="Trazado 665947" d="M944.746,1596.054l-2.185-1.723,1.484-1.724,2.185,1.723Z" transform="translate(-744.77 -1258.407)" fill="#c0d8fb"/>
        <path id="Trazado_665948" data-name="Trazado 665948" d="M1035.241,1596.042l-2.185-1.723,1.484-1.723,2.185,1.723Z" transform="translate(-816.274 -1258.397)" fill="#c0d8fb"/>
        <path id="Trazado_665949" data-name="Trazado 665949" d="M1124.923,1596.029l-2.185-1.723,1.484-1.724,2.185,1.723Z" transform="translate(-887.137 -1258.387)" fill="#c0d8fb"/>
        <path id="Trazado_665950" data-name="Trazado 665950" d="M1109.887,1522.136l-2.185-1.723,1.484-1.724,2.185,1.723Z" transform="translate(-875.256 -1200)" fill="#c0d8fb"/>
        <path id="Trazado_665951" data-name="Trazado 665951" d="M1020.2,1522.149l-2.185-1.723,1.484-1.724,2.185,1.723Z" transform="translate(-804.394 -1200.01)" fill="#c0d8fb"/>
        <path id="Trazado_665952" data-name="Trazado 665952" d="M1375.9,1621.573l1.664-.325s-3.977-15.729-3.432-17.028c.442-1.078,5.026-1.857,7.273-3.74a3.553,3.553,0,0,0,1.052-1.351,5.031,5.031,0,0,0-.753-5.091,52.621,52.621,0,0,0-7.779,2.52c-2.636,1.13-5.078,2.6-5.753,4.3-1.623,4.117,7.729,20.716,7.729,20.716" transform="translate(-1080.92 -1259.538)" fill="#e8945b"/>
        <path id="Trazado_665953" data-name="Trazado 665953" d="M1384.034,1722.256a.566.566,0,0,1,.3-.4,4.752,4.752,0,0,0,1.812-1.34c.342-.455,1.751-1.8,1.751-1.8l.008,0c.036-.009.221-.006,1.115.359.462.188.942-.679.942-.679a.883.883,0,0,1,.284.2.817.817,0,0,1,.226.52,3.261,3.261,0,0,0,.625,1.236c.156.219.279.37.279.37s.1.188-.689.487l-.94.243c-.326.037-.58.017-.913.063a.981.981,0,0,0-.72.359l-.006.011-4,1.033c-.134-.1-.113-.42-.074-.661" transform="translate(-1093.578 -1357.796)" fill="#415da5"/>
        <path id="Trazado_665954" data-name="Trazado 665954" d="M1261.763,1674.094a.743.743,0,0,0,.742-.742,16.715,16.715,0,0,0-22.863-15.536.743.743,0,1,0,.549,1.38,15.228,15.228,0,0,1,20.829,14.155.743.743,0,0,0,.742.742" transform="translate(-979.141 -1309.006)" fill="#2c3a64"/>
        <path id="Trazado_665955" data-name="Trazado 665955" d="M1264.124,1726.941a2.474,2.474,0,1,0-2.474,2.474,2.474,2.474,0,0,0,2.474-2.474" transform="translate(-994.944 -1362.596)" fill="#415da5"/>
        <rect id="Rectángulo_40507" data-name="Rectángulo 40507" width="12.414" height="0.336" transform="translate(266.659 364.12) rotate(-70.26)" fill="#415da5"/>
        <path id="Trazado_665956" data-name="Trazado 665956" d="M1252.817,1699.062l.132-.308-11.864-5.1-7.8-11.142-.275.192,7.854,11.22.044.019Z" transform="translate(-974.27 -1329.448)" fill="#415da5"/>
        <path id="Trazado_665957" data-name="Trazado 665957" d="M1247.979,1747.734l.318-.106c-.084-.252-4.671-12.323-4.866-12.837l-.119-.314-7.391,11.689.283.179,7.033-11.121c1.68,4.421,4.678,12.318,4.742,12.51" transform="translate(-976.569 -1370.506)" fill="#415da5"/>
        <rect id="Rectángulo_40508" data-name="Rectángulo 40508" width="13.359" height="0.335" transform="translate(266.677 363.341) rotate(-9.758)" fill="#415da5"/>
        <rect id="Rectángulo_40509" data-name="Rectángulo 40509" width="0.335" height="12.199" transform="matrix(0.949, -0.316, 0.316, 0.949, 261.849, 351.903)" fill="#415da5"/>
        <path id="Trazado_665958" data-name="Trazado 665958" d="M1221.942,1712.817l.049-.025,12.076-6.122-.152-.3-12.026,6.1-12.944-2.171-.056.331Z" transform="translate(-955.21 -1348.297)" fill="#415da5"/>
        <path id="Trazado_665959" data-name="Trazado 665959" d="M1246.546,1747.349c.072-.21,3.17-7.835,4.905-12.1l6.7,10.543.283-.18-7.051-11.092-.122.3c-.2.5-4.951,12.168-5.035,12.421Z" transform="translate(-984.714 -1370.54)" fill="#415da5"/>
        <rect id="Rectángulo_40510" data-name="Rectángulo 40510" width="0.335" height="13.141" transform="matrix(0.146, -0.989, 0.989, 0.146, 266.68, 364.514)" fill="#415da5"/>
        <rect id="Rectángulo_40511" data-name="Rectángulo 40511" width="10.997" height="0.335" transform="translate(267.25 362.39) rotate(-49.02)" fill="#415da5"/>
        <rect id="Rectángulo_40512" data-name="Rectángulo 40512" width="0.336" height="12.201" transform="matrix(0.997, -0.083, 0.083, 0.997, 266.118, 365.281)" fill="#415da5"/>
        <rect id="Rectángulo_40513" data-name="Rectángulo 40513" width="13.981" height="0.335" transform="translate(255.708 371.503) rotate(-34.739)" fill="#415da5"/>
        <path id="Trazado_665960" data-name="Trazado 665960" d="M1279.857,1694.425l.238-.236-9.6-9.678v-12.594h-.335v12.732Z" transform="translate(-1003.627 -1321.073)" fill="#415da5"/>
        <path id="Trazado_665961" data-name="Trazado 665961" d="M1228.115,1673.166c-.268-.371-.554-.731-.854-1.074a14.6,14.6,0,0,0-4.061-3.241,14.182,14.182,0,0,0-2.1-.927,14.486,14.486,0,0,0-6.288-.722h0a14.46,14.46,0,0,0-7.926,3.433l0,0a14.5,14.5,0,0,0-4.511,14.906,14.3,14.3,0,0,0,1.37,3.276c.017.033.037.065.055.1a14.494,14.494,0,0,0,10.713,7.1h.007a14.293,14.293,0,0,0,1.825.116,14.761,14.761,0,0,0,1.86-.118h0a14.5,14.5,0,0,0,9.913-22.852m-.233,13.24c-.041.1-.085.207-.133.308a12.488,12.488,0,0,1-2.1,3.234q-.111.127-.227.249a12.633,12.633,0,0,1-2.246,1.883c-.092.063-.187.122-.282.181a12.4,12.4,0,0,1-1.969.991c-.1.041-.209.081-.314.12a12.411,12.411,0,0,1-3.571.733c-.113.007-.224.011-.336.015s-.245.006-.369.006a12.485,12.485,0,0,1-4.544-.855c-.105-.039-.209-.081-.312-.124a12.574,12.574,0,0,1-1.464-.736c-.072-.042-.144-.087-.216-.131-.1-.057-.19-.116-.282-.179a12.543,12.543,0,0,1-3.308-3.149c-.057-.079-.114-.161-.17-.242s-.127-.186-.186-.281c-.115-.172-.222-.345-.325-.522a12.525,12.525,0,0,1-1.689-6.277,12.655,12.655,0,0,1,.144-1.9l.055-.33a12.514,12.514,0,0,1,5-7.9c.09-.066.182-.131.275-.194a12.512,12.512,0,0,1,2.44-1.3c.105-.041.21-.079.316-.118a12.389,12.389,0,0,1,4.1-.749c.055,0,.113,0,.168,0s.113,0,.168,0a12.4,12.4,0,0,1,3.846.659h0l.092.033c.107.037.21.075.316.114a12.633,12.633,0,0,1,1.586.733,12.458,12.458,0,0,1,1.5.976c.091.066.177.135.264.207a12.611,12.611,0,0,1,1.318,1.211,12.418,12.418,0,0,1,1.108,1.356,11.982,11.982,0,0,1,.862,1.4q.081.149.153.3a12.435,12.435,0,0,1,.891,2.409c.026.109.053.218.077.329a12.564,12.564,0,0,1,.2,4.432c-.015.111-.031.223-.05.332a12.2,12.2,0,0,1-.79,2.776" transform="translate(-949.632 -1317.284)" fill="#202e51"/>
        <rect id="Rectángulo_40514" data-name="Rectángulo 40514" width="27.997" height="1.509" transform="matrix(0.305, -0.953, 0.953, 0.305, 293.297, 366.127)" fill="#739cf3"/>
        <path id="Trazado_665962" data-name="Trazado 665962" d="M1343.193,1645.7l20.123-1.75L1326,1618.717l2.135,4.371,30.812,19.727-15.88,1.381Z" transform="translate(-1047.742 -1279.037)" fill="#739cf3"/>
        <path id="Trazado_665963" data-name="Trazado 665963" d="M1334.7,1645.189l1.268-.818-15.484-24.8-1.8,1.866Z" transform="translate(-1041.966 -1279.708)" fill="#739cf3"/>
        <path id="Trazado_665964" data-name="Trazado 665964" d="M1271.43,1661.461l8.624-18.455-1.155-.462a1.462,1.462,0,0,0-1.9.818l-6.964,17.529Z" transform="translate(-1003.522 -1297.781)" fill="#415da5"/>
        <path id="Trazado_665965" data-name="Trazado 665965" d="M1312.767,1610.831c1.248-3.238,3.331-8.325,3.3-8.275l-1.256-.837c-.061.092-.1.153-3.374,8.645Z" transform="translate(-1036.236 -1265.606)" fill="#415da5"/>
        <path id="Trazado_665966" data-name="Trazado 665966" d="M1341.837,1605a1.531,1.531,0,1,0-2.137.348,1.531,1.531,0,0,0,2.137-.348" transform="translate(-1058.068 -1266.282)" fill="#415da5"/>
        <path id="Trazado_665967" data-name="Trazado 665967" d="M1314.217,1585.9a1.531,1.531,0,1,0-2.137.349,1.531,1.531,0,0,0,2.137-.349" transform="translate(-1036.244 -1251.188)" fill="#415da5"/>
        <path id="Trazado_665968" data-name="Trazado 665968" d="M1317.544,1591.6l5.848,3.721.811-1.6-5.848-3.721Z" transform="translate(-1041.064 -1256.351)" fill="#415da5"/>
        <path id="Trazado_665969" data-name="Trazado 665969" d="M1360.78,1758.969h3.271a.7.7,0,1,0,0-1.4h-3.271a.7.7,0,0,0,0,1.4" transform="translate(-1074.675 -1388.754)" fill="#415da5"/>
        <rect id="Rectángulo_40515" data-name="Rectángulo 40515" width="7.28" height="0.587" transform="translate(287.465 368.83) rotate(-24.5)" fill="#415da5"/>
        <path id="Trazado_665970" data-name="Trazado 665970" d="M1486.583,1726.941a2.474,2.474,0,1,0-2.474,2.474,2.474,2.474,0,0,0,2.474-2.474" transform="translate(-1170.722 -1362.596)" fill="#415da5"/>
        <rect id="Rectángulo_40516" data-name="Rectángulo 40516" width="12.414" height="0.336" transform="translate(313.341 364.12) rotate(-70.26)" fill="#415da5"/>
        <path id="Trazado_665971" data-name="Trazado 665971" d="M1475.276,1699.062l.132-.308-11.864-5.1-7.8-11.142-.275.192,7.854,11.22.044.019Z" transform="translate(-1150.047 -1329.448)" fill="#415da5"/>
        <path id="Trazado_665972" data-name="Trazado 665972" d="M1470.438,1747.734l.318-.106c-.084-.252-4.671-12.323-4.866-12.837l-.119-.314-7.391,11.689.284.179,7.033-11.121c1.68,4.421,4.678,12.318,4.742,12.51" transform="translate(-1152.346 -1370.506)" fill="#415da5"/>
        <rect id="Rectángulo_40517" data-name="Rectángulo 40517" width="13.359" height="0.335" transform="translate(313.359 363.341) rotate(-9.758)" fill="#415da5"/>
        <rect id="Rectángulo_40518" data-name="Rectángulo 40518" width="0.335" height="12.199" transform="matrix(0.949, -0.316, 0.316, 0.949, 308.531, 351.903)" fill="#415da5"/>
        <path id="Trazado_665973" data-name="Trazado 665973" d="M1444.4,1712.817l.049-.025,12.076-6.122-.152-.3-12.026,6.1L1431.4,1710.3l-.056.331Z" transform="translate(-1130.988 -1348.297)" fill="#415da5"/>
        <path id="Trazado_665974" data-name="Trazado 665974" d="M1469.005,1747.349c.072-.21,3.17-7.835,4.905-12.1l6.7,10.543.283-.18-7.051-11.092-.123.3c-.2.5-4.951,12.168-5.035,12.421Z" transform="translate(-1160.491 -1370.54)" fill="#415da5"/>
        <rect id="Rectángulo_40519" data-name="Rectángulo 40519" width="0.336" height="13.141" transform="translate(313.363 364.51) rotate(-81.551)" fill="#415da5"/>
        <rect id="Rectángulo_40520" data-name="Rectángulo 40520" width="10.997" height="0.335" transform="translate(313.931 362.39) rotate(-49.02)" fill="#415da5"/>
        <rect id="Rectángulo_40521" data-name="Rectángulo 40521" width="0.335" height="12.201" transform="matrix(0.997, -0.083, 0.083, 0.997, 312.8, 365.281)" fill="#415da5"/>
        <rect id="Rectángulo_40522" data-name="Rectángulo 40522" width="13.981" height="0.335" transform="translate(302.39 371.503) rotate(-34.739)" fill="#415da5"/>
        <path id="Trazado_665975" data-name="Trazado 665975" d="M1502.316,1694.425l.238-.236-9.6-9.678v-12.594h-.335v12.732Z" transform="translate(-1179.405 -1321.073)" fill="#415da5"/>
        <path id="Trazado_665976" data-name="Trazado 665976" d="M1438.8,1667.121a14.517,14.517,0,0,0-14.507,14.508c0,.168,0,.336.009.5a14.68,14.68,0,0,0,.129,1.5,14.487,14.487,0,0,0,6.693,10.3c.111.07.223.139.336.205a14.508,14.508,0,1,0,7.34-27.023m11.545,19.284c-.041.1-.085.207-.133.308a12.507,12.507,0,0,1-2.1,3.234q-.111.127-.227.249a12.636,12.636,0,0,1-2.246,1.883c-.092.063-.187.122-.282.181a12.41,12.41,0,0,1-1.969.991c-.1.041-.209.081-.314.12a12.434,12.434,0,0,1-3.573.733c-.111.007-.223.011-.334.015s-.245.006-.369.006a12.479,12.479,0,0,1-4.544-.855c-.1-.039-.208-.081-.312-.124a12.581,12.581,0,0,1-1.463-.736c-.072-.042-.144-.087-.216-.131-.1-.057-.19-.116-.283-.179a.01.01,0,0,1-.009-.005,12.54,12.54,0,0,1-3.468-3.385c-.065-.092-.127-.186-.186-.281-.115-.172-.222-.345-.325-.522a12.4,12.4,0,0,1-1.552-4.445,12.064,12.064,0,0,1-.131-1.5c0-.109-.006-.219-.006-.328a12.655,12.655,0,0,1,.144-1.9c.018-.111.037-.221.055-.33a12.359,12.359,0,0,1,1.414-3.9,11.988,11.988,0,0,1,.977-1.475,12.567,12.567,0,0,1,2.606-2.527c.09-.066.183-.131.275-.194a12.515,12.515,0,0,1,2.44-1.3c.105-.041.21-.079.316-.118a12.292,12.292,0,0,1,2.442-.618h0a12.563,12.563,0,0,1,1.657-.131c.055,0,.113,0,.168,0s.113,0,.168,0a12.377,12.377,0,0,1,3.94.692c.107.037.21.075.316.114a12.448,12.448,0,0,1,3.09,1.709c.091.066.177.135.264.207a12.538,12.538,0,0,1,3.287,3.972c.054.1.105.2.153.3a12.436,12.436,0,0,1,.892,2.409c.026.109.053.218.075.329a12.532,12.532,0,0,1,.2,4.432c-.015.111-.031.223-.05.332a12.2,12.2,0,0,1-.79,2.776" transform="translate(-1125.411 -1317.284)" fill="#202e51"/>
        <path id="Trazado_665977" data-name="Trazado 665977" d="M1426.011,1649.02a.755.755,0,0,0,.641-.066c6.788-4.1,16.179-2.56,18.9-1.99h0a.241.241,0,0,0,.29-.236v-.53a.819.819,0,0,0-.7-.81,61.4,61.4,0,0,0-6.822-.7h-.155a24.645,24.645,0,0,0-11.057,2.289,2.573,2.573,0,0,1-2,.124l-.837-.294a.917.917,0,0,0-1.169.561.592.592,0,0,0,.363.755Z" transform="translate(-1124.447 -1299.562)" fill="#f7c948"/>
        <path id="Trazado_665978" data-name="Trazado 665978" d="M1427.189,1611.065s.273-1.237-.5-1.321-3.606.524-4.361.44-4.7-.734-5.388-.063-.4,1.258.985,1.384,3.229.356,3.753.8,4.319,1.74,5.514-1.237" transform="translate(-1119.316 -1271.941)" fill="#f7c948"/>
        <path id="Trazado_665979" data-name="Trazado 665979" d="M1390.673,1731.638a3.774,3.774,0,1,0-3.774,3.774,3.774,3.774,0,0,0,3.774-3.774" transform="translate(-1092.884 -1365.281)" fill="#2c3a64"/>
        <path id="Trazado_665980" data-name="Trazado 665980" d="M1326.585,1588.188s-1.235-1.567-1.911-1.372a1.624,1.624,0,0,0-1.234,1.62c.028.217.015,1.074.532,1.257a1.414,1.414,0,0,0,1.295-.242c.239-.2,1.317-1.262,1.317-1.262" transform="translate(-1045.721 -1253.817)" fill="#e8945b"/>
        <path id="Trazado_665981" data-name="Trazado 665981" d="M1328.452,1541.984a1.789,1.789,0,0,0,1.353,1.3c1.182.312,8.492-2.764,10.232-3.621.935-.468,2.286-3.065,3.325-5.338.247-.558.481-1.091.688-1.571.52-1.208.857-2.078.857-2.078,0-1.195-1.319-.728-2.514-.183-.364.169-2.267-.636-2.773.338-.234.454-.544.4-.778.909-.922,2.039-1.766,4.338-1.948,4.883-.325.974-8.442,5.362-8.442,5.362" transform="translate(-1049.683 -1208.879)" fill="#e8945b"/>
        <path id="Trazado_665982" data-name="Trazado 665982" d="M1330.376,1592.553s-1.229-1.543-1.911-1.372c-1.606.4-1.39,1.559-1.362,1.777s.143.917.66,1.1a1.415,1.415,0,0,0,1.295-.242c.239-.2,1.317-1.262,1.317-1.262" transform="translate(-1048.598 -1257.269)" fill="#ffb27d"/>
        <path id="Trazado_665983" data-name="Trazado 665983" d="M1385.405,1505.313l-4.17,1.539a10.022,10.022,0,0,1-1.5-2.093c-.532-.934-.9-1.76-.9-1.76l2.913-2.04.915-.641c.059,1.859,2.739,5,2.739,5" transform="translate(-1089.496 -1185.484)" fill="#ffb27d"/>
        <path id="Trazado_665984" data-name="Trazado 665984" d="M1382.887,1503.74a5.862,5.862,0,0,1-3.148,3.434c-.532-.935-.9-1.76-.9-1.76l2.913-2.04Z" transform="translate(-1089.496 -1187.898)" fill="#e8945b"/>
        <path id="Trazado_665985" data-name="Trazado 665985" d="M1368.632,1480.648s5.157.809,5.611-2.411,1.426-5.283-1.848-5.935-4.088.486-4.5,1.523-.592,6.529.737,6.823" transform="translate(-1080.611 -1163.195)" fill="#ffb27d"/>
        <path id="Trazado_665986" data-name="Trazado 665986" d="M1372.792,1465.878a.9.9,0,0,0-.422.244l0,0a2.545,2.545,0,0,0-.7-1.4,1.822,1.822,0,0,1,.221,1.173c-.971-1.661-5.7-.354-6.142-.244s-.756-.555-.756-.555a2.653,2.653,0,0,0-.386,3.06c.58.97,2.462,2.4,3,2.125s.543.289.515,1.077,1.337,2.112,2.3,2.3c.775.155.836-.376,1.047-.714a1.07,1.07,0,0,1,.189-.228,5.665,5.665,0,0,0,1.4-4.733,4.7,4.7,0,0,0-.575-1.674,2.423,2.423,0,0,1,.305-.436" transform="translate(-1078.002 -1157.357)" fill="#2c3a64"/>
        <path id="Trazado_665987" data-name="Trazado 665987" d="M1396.3,1596.558c.052.234.624,2.156,2.1,2.649a23.717,23.717,0,0,0,5.377,1.273,3.551,3.551,0,0,0,1.052-1.351,5.031,5.031,0,0,0-.753-5.091,52.621,52.621,0,0,0-7.779,2.52" transform="translate(-1103.296 -1259.538)" fill="#2c3a64"/>
        <path id="Trazado_665988" data-name="Trazado 665988" d="M1383.413,1573.749a8.374,8.374,0,0,1,.342,10.223c-3.837,5.411-10.084,9.777-10.428,11.707-.665,3.734-4.643,11.446-6.537,15.261l-1.623-.622s3.045-18.082,4.127-20.246,6.689-12.3,6.689-12.3Z" transform="translate(-1078.694 -1243.506)" fill="#ffb27d"/>
        <path id="Trazado_665989" data-name="Trazado 665989" d="M1377.736,1528.122a3.528,3.528,0,0,1,1.636.935c.273.442,3.13-.792,3.468-1.948-.818-.9-2.221-1.662-3.039-1.4-.481.143-1.26,1.169-2.065,2.416" transform="translate(-1088.625 -1205.504)" fill="#5885d6"/>
        <path id="Trazado_665990" data-name="Trazado 665990" d="M1411.1,1580.8s-5.424,3.865-9.05,3.648c0,0-2.381,4.058-2.908,5.4,0,0,6.169,3.084,9.375,2.516,0,0,4.18-4.058,3.937-6.9a11.607,11.607,0,0,0-1.354-4.663" transform="translate(-1105.54 -1249.078)" fill="#35488b"/>
        <path id="Trazado_665991" data-name="Trazado 665991" d="M1384.5,1521.495l1.3,1.852.1.234,2.7,6.169,1.377,3.143a7.8,7.8,0,0,0,3.4-.208,12.837,12.837,0,0,0,6-3.922,42.068,42.068,0,0,0-6.481-11.455c-1.195-1.3-4.325-2.364-4.325-2.364a22.855,22.855,0,0,1-3.922,2.429c-.676.532-.158,4.122-.158,4.122" transform="translate(-1093.822 -1197.041)" fill="#739af0"/>
        <path id="Trazado_665992" data-name="Trazado 665992" d="M1391.908,1541.088l2.7,6.169c2.052-4.143.753-10.156.753-10.156s-3.3,2.857-3.416,3.078a6.767,6.767,0,0,0-.039.909" transform="translate(-1099.823 -1214.548)" fill="#5885d6"/>
        <path id="Trazado_665993" data-name="Trazado 665993" d="M1332.805,1540.186a1.789,1.789,0,0,0,1.353,1.3c1.182.312,8.491-2.764,10.231-3.621.935-.468,2.286-3.065,3.325-5.338.247-.558.48-1.091.688-1.572.52-1.208.857-2.078.857-2.078,0-1.195-2.818-2.818-4.013-2.273a4.854,4.854,0,0,0-1.351,1.883c-.234.454-.468.948-.7,1.455-.922,2.039-1.766,4.338-1.948,4.883-.325.974-8.442,5.362-8.442,5.362" transform="translate(-1053.123 -1206.167)" fill="#ffb27d"/>
        <path id="Trazado_665994" data-name="Trazado 665994" d="M1382.316,1529.941a24.58,24.58,0,0,1,4.519,2.584c.247-.558.48-1.091.688-1.572.519-1.208.857-2.078.857-2.078,0-1.195-2.819-2.818-4.013-2.273a4.855,4.855,0,0,0-1.351,1.883c-.234.454-.468.948-.7,1.455" transform="translate(-1092.244 -1206.167)" fill="#739af0"/>
        <path id="Trazado_665995" data-name="Trazado 665995" d="M1350.2,1746.3h-.971c-.325-.045-.566-.128-.9-.167a.981.981,0,0,0-.787.167l-.009.009h-4.127c-.1-.131,0-.435.094-.658a.566.566,0,0,1,.386-.312,4.761,4.761,0,0,0,2.09-.844c.445-.355,2.146-1.306,2.146-1.306l.009,0c.037,0,.215.049.99.627.4.3,1.082-.421,1.082-.421a.886.886,0,0,1,.224.268.814.814,0,0,1,.088.56,3.268,3.268,0,0,0,.3,1.353c.1.25.177.428.177.428s.046.206-.789.3" transform="translate(-1061.467 -1377.389)" fill="#739cf3"/>
        <path id="Trazado_665996" data-name="Trazado 665996" d="M1368.356,1743.662a3.254,3.254,0,0,1-1.046.466c-.438.051-1.258-.938-1.258-.938l.009,0c.037,0,.215.049.989.627.4.3,1.082-.421,1.082-.421a.884.884,0,0,1,.224.268" transform="translate(-1079.393 -1377.389)" fill="#415da5"/>
        <path id="Trazado_665997" data-name="Trazado 665997" d="M1350.2,1755.291h-.971c-.325-.045-.566-.128-.9-.167a.981.981,0,0,0-.787.167l-.009.009h-4.127c-.1-.131,0-.435.094-.658.125-.1.161.428.23.512a20.811,20.811,0,0,0,3.557-.092,2.214,2.214,0,0,1,1.558-.169,4.171,4.171,0,0,0,1.967-.329c.1.25.177.428.177.428s.046.206-.789.3" transform="translate(-1061.467 -1386.378)" fill="#415da5"/>
        <path id="Trazado_665998" data-name="Trazado 665998" d="M1993.767,1687.854a.644.644,0,0,0,.644-.644,14.5,14.5,0,0,0-19.832-13.476.644.644,0,1,0,.476,1.2,13.21,13.21,0,0,1,18.068,12.279.644.644,0,0,0,.644.644" transform="translate(-1559.903 -1321.706)" fill="#2c3a64"/>
        <path id="Trazado_665999" data-name="Trazado 665999" d="M2095.626,1595.947s-.982,2.042-2.223,4.873a104.739,104.739,0,0,0-4.133,10.727,17.3,17.3,0,0,0-.888,4.458c0,.375,1.447,1.9,1.865,2.482,2.638,3.671,6.24,8.573,6.24,8.573l.983-.247s-1.377-6.131-3.384-9.192c-.395-.6-1.506-1.334-1.453-1.4l0,0c.173-.217.6-.761,1.195-1.537a74.491,74.491,0,0,0,6.342-9.67q.177-.339.342-.676a12.255,12.255,0,0,0,1.591-5.329Z" transform="translate(-1650.146 -1261.046)" fill="#e8945b"/>
        <path id="Trazado_666000" data-name="Trazado 666000" d="M2117.017,1735.533l-.677.428c-.249.108-.458.148-.71.265a.743.743,0,0,0-.465.478l0,.011-2.875,1.819c-.138-.057-.219-.341-.263-.56a.483.483,0,0,1,.113-.416,3.667,3.667,0,0,0,1.035-1.587c.133-.476.844-1.975.844-1.975l.005-.005c.026-.016.175-.056,1,.058.427.059.543-.809.543-.809a.8.8,0,0,1,.29.113.845.845,0,0,1,.341.4,3.381,3.381,0,0,0,.88.936c.192.155.337.259.337.259s.135.142-.4.583" transform="translate(-1668.821 -1369.528)" fill="#b84c42"/>
        <path id="Trazado_666001" data-name="Trazado 666001" d="M2123.4,1733.353a2.533,2.533,0,0,1-.5.829c-.28.233-1.344-.185-1.344-.185l.005-.005c.026-.016.174-.056,1,.058.427.059.543-.809.543-.809a.8.8,0,0,1,.29.113" transform="translate(-1676.361 -1369.528)" fill="#aa3e39"/>
        <path id="Trazado_666002" data-name="Trazado 666002" d="M2117.053,1741l-.677.428c-.249.108-.458.148-.71.265a.742.742,0,0,0-.465.478.1.1,0,0,0,0,.011l-2.875,1.819c-.138-.057-.219-.341-.263-.56.038-.133.325.266.415.3a15.157,15.157,0,0,0,2.432-1.64,1.64,1.64,0,0,1,1-.819,3.094,3.094,0,0,0,1.206-1.126c.192.155.337.259.337.259s.135.142-.4.583" transform="translate(-1668.857 -1374.99)" fill="#aa3e39"/>
        <rect id="Rectángulo_40523" data-name="Rectángulo 40523" width="25.354" height="1.367" transform="translate(443.35 367.398) rotate(-72.27)" fill="#f7c948"/>
        <path id="Trazado_666003" data-name="Trazado 666003" d="M2063.406,1661.1l18.224-1.585-33.8-22.851,1.933,3.958,27.9,17.864-14.382,1.251Z" transform="translate(-1618.105 -1293.222)" fill="#f7c948"/>
        <path id="Trazado_666004" data-name="Trazado 666004" d="M2055.719,1660.641l1.148-.741-14.022-22.463-1.633,1.69Z" transform="translate(-1612.874 -1293.829)" fill="#f7c948"/>
        <path id="Trazado_666005" data-name="Trazado 666005" d="M2090.371,1732.432l-2.565,1.481a.633.633,0,0,0,.633,1.1l2.565-1.481a.633.633,0,0,0-.633-1.1" transform="translate(-1649.441 -1368.823)" fill="#415da5"/>
        <path id="Trazado_666006" data-name="Trazado 666006" d="M2098.8,1736.327l3.234,3.579.3-.26-3.234-3.579Z" transform="translate(-1658.375 -1371.762)" fill="#415da5"/>
        <path id="Trazado_666007" data-name="Trazado 666007" d="M2138.407,1664.112a.683.683,0,0,0,.58-.06c6.147-3.714,14.652-2.318,17.112-1.8h0a.218.218,0,0,0,.263-.213v-.48a.742.742,0,0,0-.633-.734,55.5,55.5,0,0,0-6.177-.631h-.14a22.323,22.323,0,0,0-10.013,2.073,2.33,2.33,0,0,1-1.812.112l-.757-.266a.831.831,0,0,0-1.059.509.536.536,0,0,0,.329.684Z" transform="translate(-1687.569 -1311.809)" fill="#35488b"/>
        <path id="Trazado_666008" data-name="Trazado 666008" d="M2139.473,1629.739s.247-1.12-.456-1.2-3.265.475-3.949.4-4.253-.664-4.879-.057-.361,1.139.892,1.253a9.017,9.017,0,0,1,3.4.721c.474.4,3.911,1.576,4.993-1.12" transform="translate(-1682.923 -1286.796)" fill="#415da5"/>
        <path id="Trazado_666009" data-name="Trazado 666009" d="M2106.4,1738.929a3.418,3.418,0,1,0-3.418,3.418,3.418,3.418,0,0,0,3.418-3.418" transform="translate(-1658.985 -1371.323)" fill="#415da5"/>
        <rect id="Rectángulo_40524" data-name="Rectángulo 40524" width="11.242" height="0.304" transform="translate(462.313 365.605) rotate(-70.26)" fill="#415da5"/>
        <path id="Trazado_666010" data-name="Trazado 666010" d="M2186.884,1709.549l.12-.279-10.744-4.615-7.063-10.09-.249.174,7.113,10.161.04.017Z" transform="translate(-1713.805 -1338.969)" fill="#415da5"/>
        <path id="Trazado_666011" data-name="Trazado 666011" d="M2182.5,1753.627l.288-.1c-.076-.228-4.23-11.16-4.407-11.625l-.108-.284-6.693,10.585.257.163,6.369-10.071c1.521,4,4.237,11.156,4.295,11.329" transform="translate(-1715.887 -1376.151)" fill="#415da5"/>
        <rect id="Rectángulo_40525" data-name="Rectángulo 40525" width="12.098" height="0.304" transform="matrix(0.986, -0.169, 0.169, 0.986, 462.329, 364.9)" fill="#415da5"/>
        <rect id="Rectángulo_40526" data-name="Rectángulo 40526" width="0.304" height="11.047" transform="translate(457.958 354.541) rotate(-18.437)" fill="#415da5"/>
        <path id="Trazado_666012" data-name="Trazado 666012" d="M2158.923,1722.006l.045-.023,10.936-5.544-.137-.271-10.891,5.521-11.722-1.966-.05.3Z" transform="translate(-1696.545 -1356.039)" fill="#415da5"/>
        <path id="Trazado_666013" data-name="Trazado 666013" d="M2181.205,1753.279c.065-.19,2.871-7.1,4.442-10.958l6.07,9.548.256-.163-6.385-10.045-.111.273c-.183.45-4.483,11.019-4.56,11.249Z" transform="translate(-1723.263 -1376.182)" fill="#415da5"/>
        <rect id="Rectángulo_40527" data-name="Rectángulo 40527" width="0.304" height="11.9" transform="translate(462.333 365.957) rotate(-81.544)" fill="#415da5"/>
        <rect id="Rectángulo_40528" data-name="Rectángulo 40528" width="9.959" height="0.304" transform="matrix(0.656, -0.755, 0.755, 0.656, 462.848, 364.038)" fill="#415da5"/>
        <rect id="Rectángulo_40529" data-name="Rectángulo 40529" width="0.304" height="11.049" transform="translate(461.825 366.656) rotate(-4.715)" fill="#415da5"/>
        <rect id="Rectángulo_40530" data-name="Rectángulo 40530" width="12.661" height="0.304" transform="translate(452.396 372.291) rotate(-34.738)" fill="#415da5"/>
        <path id="Trazado_666014" data-name="Trazado 666014" d="M2211.372,1705.351l.216-.214-8.689-8.765v-11.4h-.3v11.53Z" transform="translate(-1740.391 -1331.386)" fill="#415da5"/>
        <path id="Trazado_666015" data-name="Trazado 666015" d="M2197.123,1734.8a2.24,2.24,0,1,0-2.24,2.24,2.24,2.24,0,0,0,2.24-2.24" transform="translate(-1732.527 -1368.989)" fill="#2c3a64"/>
        <path id="Trazado_666016" data-name="Trazado 666016" d="M2164.566,1686.177a13.142,13.142,0,0,0-22.314,1.408v0a13.041,13.041,0,0,0-1.545,6.174c0,.12,0,.242,0,.362a12.72,12.72,0,0,0,.109,1.362,13.124,13.124,0,0,0,11.42,11.314.184.184,0,0,0,.046.006,12.871,12.871,0,0,0,1.557.094,13.01,13.01,0,0,0,1.573-.094l.048-.006a13.129,13.129,0,0,0,9.1-20.622m.449,9.395a11.126,11.126,0,0,1-.449,1.811c-.079.238-.168.474-.265.705-.039.094-.078.186-.12.279a11.273,11.273,0,0,1-1.9,2.928c-.066.075-.135.151-.205.225a11.241,11.241,0,0,1-2.034,1.706c-.083.057-.168.111-.255.164a11.488,11.488,0,0,1-1.785.9c-.094.037-.19.072-.284.107a11.212,11.212,0,0,1-3.234.665c-.1.005-.2.011-.3.013s-.221.006-.334.006a11.306,11.306,0,0,1-4.114-.774c-.094-.037-.188-.073-.282-.114a11.24,11.24,0,0,1-1.327-.665c-.066-.039-.131-.077-.2-.12-.086-.052-.171-.1-.256-.163a11.309,11.309,0,0,1-3.145-3.069v0c-.061-.083-.116-.166-.17-.251-.1-.155-.2-.313-.3-.474a11.233,11.233,0,0,1-1.419-4.12,10.728,10.728,0,0,1-.1-1.362c0-.068,0-.135,0-.2a11.257,11.257,0,0,1,.131-1.72c.015-.1.031-.2.05-.3a11.32,11.32,0,0,1,1.906-4.52,11.407,11.407,0,0,1,2.618-2.637c.083-.059.166-.116.249-.174a11.221,11.221,0,0,1,2.211-1.174c.092-.037.187-.074.282-.109a11.274,11.274,0,0,1,3.716-.677c.05,0,.1,0,.151,0s.1,0,.153,0a11.3,11.3,0,0,1,3.568.626c.1.033.192.068.286.1a11.272,11.272,0,0,1,2.8,1.547c.081.061.16.124.24.186a11.4,11.4,0,0,1,2.977,3.6q.072.135.139.271a11.034,11.034,0,0,1,.561,1.36q.139.4.244.821c.026.1.05.2.072.3a11.3,11.3,0,0,1,.279,2.5,11.019,11.019,0,0,1-.1,1.51c-.013.1-.028.2-.044.3" transform="translate(-1691.491 -1327.953)" fill="#202e51"/>
        <path id="Trazado_666017" data-name="Trazado 666017" d="M2170.539,1697.426c-.022-.1-.048-.2-.074-.3a11.457,11.457,0,0,0-.825-2.217c-.044-.092-.091-.183-.138-.271a11.642,11.642,0,0,0-3.008-3.638c-.08-.065-.159-.127-.24-.188a11.5,11.5,0,0,0-6.739-2.353c-.085,0-.168,0-.253,0h-.052a11.526,11.526,0,0,0-3.784.653c-.1.033-.19.068-.284.105a11.473,11.473,0,0,0-2.284,1.179c-.084.056-.168.113-.251.172a11.616,11.616,0,0,0-2.717,2.678,11.14,11.14,0,0,0-.844,1.349,11.363,11.363,0,0,0-1.155,3.278c-.021.1-.039.2-.053.3a11.364,11.364,0,0,0-.15,1.855c0,.052,0,.105,0,.157a11.506,11.506,0,0,0,1.866,6.143c.056.085.111.168.17.251a11.637,11.637,0,0,0,3.26,3.169c.085.055.172.109.259.161a11.413,11.413,0,0,0,1.583.81c.094.039.188.076.284.113a11.51,11.51,0,0,0,4.149.77c.155,0,.308,0,.462-.009.1,0,.2-.009.3-.017a11.471,11.471,0,0,0,3.309-.716c.1-.035.19-.072.284-.111a11.373,11.373,0,0,0,1.826-.943c.085-.053.17-.109.255-.166a11.526,11.526,0,0,0,2.056-1.763c.07-.074.138-.149.205-.225a11.548,11.548,0,0,0,1.914-3.018c.042-.092.081-.184.118-.278.031-.074.061-.15.088-.225a11.562,11.562,0,0,0,.618-2.342c.015-.1.029-.2.042-.3a11.888,11.888,0,0,0,.09-1.458,11.543,11.543,0,0,0-.3-2.6m-.3,4.3c-.043.275-.1.546-.157.814a11.084,11.084,0,0,1-.517,1.637c-.039.094-.077.186-.118.279a11.132,11.132,0,0,1-1.814,2.87q-.1.114-.205.227a11.1,11.1,0,0,1-1.979,1.7c-.085.057-.17.113-.255.166a10.991,10.991,0,0,1-1.739.9c-.094.039-.188.076-.284.111a10.923,10.923,0,0,1-3.184.687c-.1.009-.2.015-.3.017-.14.008-.281.009-.423.009a11.026,11.026,0,0,1-3.976-.736c-.094-.035-.188-.074-.282-.113a10.95,10.95,0,0,1-1.511-.77c-.087-.054-.172-.107-.257-.162a11.17,11.17,0,0,1-3.125-3.04c-.059-.083-.114-.168-.17-.253a11.006,11.006,0,0,1-1.783-5.916c0-.039,0-.077,0-.116a11.06,11.06,0,0,1,.142-1.778c.016-.1.033-.2.053-.3a11.016,11.016,0,0,1,1.927-4.442,11.157,11.157,0,0,1,2.6-2.558c.083-.059.166-.116.251-.172a11.017,11.017,0,0,1,2.163-1.119c.094-.037.188-.072.284-.1h0a11.026,11.026,0,0,1,3.634-.63h.052c.085,0,.17,0,.253,0a11.044,11.044,0,0,1,3.461.635c.1.033.19.068.284.107a10.975,10.975,0,0,1,2.688,1.5c.081.059.16.122.24.186a11.178,11.178,0,0,1,2.9,3.5c.048.091.094.181.138.271a10.988,10.988,0,0,1,.781,2.086c.026.1.052.2.074.3,0,.006,0,.013.005.02a11.182,11.182,0,0,1,.2,3.895c-.013.1-.026.2-.04.3" transform="translate(-1697.007 -1334.145)" fill="#b84c42"/>
        <rect id="Rectángulo_40531" data-name="Rectángulo 40531" width="11.242" height="0.304" transform="translate(419.469 365.605) rotate(-70.259)" fill="#415da5"/>
        <path id="Trazado_666018" data-name="Trazado 666018" d="M1982.712,1709.549l.12-.279-10.744-4.615-7.063-10.09-.249.174,7.113,10.161.04.017Z" transform="translate(-1552.478 -1338.969)" fill="#415da5"/>
        <path id="Trazado_666019" data-name="Trazado 666019" d="M1978.33,1753.627l.289-.1c-.076-.228-4.23-11.16-4.407-11.625l-.108-.284-6.694,10.585.257.163,6.369-10.071c1.521,4,4.237,11.156,4.294,11.329" transform="translate(-1554.559 -1376.151)" fill="#415da5"/>
        <rect id="Rectángulo_40532" data-name="Rectángulo 40532" width="12.098" height="0.304" transform="translate(419.485 364.9) rotate(-9.758)" fill="#415da5"/>
        <rect id="Rectángulo_40533" data-name="Rectángulo 40533" width="0.304" height="11.047" transform="translate(415.112 354.542) rotate(-18.448)" fill="#415da5"/>
        <path id="Trazado_666020" data-name="Trazado 666020" d="M1954.751,1722.006l.044-.023,10.936-5.544-.137-.271-10.891,5.521-11.722-1.966-.051.3Z" transform="translate(-1535.217 -1356.039)" fill="#415da5"/>
        <path id="Trazado_666021" data-name="Trazado 666021" d="M1977.033,1753.279c.065-.19,2.871-7.1,4.442-10.958l6.07,9.548.256-.163-6.385-10.045-.111.273c-.183.45-4.483,11.019-4.56,11.249Z" transform="translate(-1561.935 -1376.182)" fill="#415da5"/>
        <rect id="Rectángulo_40534" data-name="Rectángulo 40534" width="0.304" height="11.9" transform="translate(419.488 365.957) rotate(-81.544)" fill="#415da5"/>
        <rect id="Rectángulo_40535" data-name="Rectángulo 40535" width="9.959" height="0.304" transform="matrix(0.656, -0.755, 0.755, 0.656, 420.003, 364.038)" fill="#415da5"/>
        <rect id="Rectángulo_40536" data-name="Rectángulo 40536" width="0.304" height="11.049" transform="translate(418.981 366.656) rotate(-4.718)" fill="#415da5"/>
        <rect id="Rectángulo_40537" data-name="Rectángulo 40537" width="12.661" height="0.304" transform="translate(409.551 372.291) rotate(-34.738)" fill="#415da5"/>
        <path id="Trazado_666022" data-name="Trazado 666022" d="M2007.2,1705.351l.216-.214-8.689-8.765v-11.4h-.3v11.53Z" transform="translate(-1579.064 -1331.386)" fill="#415da5"/>
        <path id="Trazado_666023" data-name="Trazado 666023" d="M1992.951,1734.8a2.24,2.24,0,1,0-2.24,2.24,2.24,2.24,0,0,0,2.24-2.24" transform="translate(-1571.2 -1368.989)" fill="#2c3a64"/>
        <path id="Trazado_666024" data-name="Trazado 666024" d="M1956.546,1682.565a11.95,11.95,0,0,0-1.058-.585,12.623,12.623,0,0,0-1.722-.705,13.128,13.128,0,0,0-9.579.553c-.238.109-.475.227-.705.351a13.136,13.136,0,0,0-.45,22.917c.148.087.3.172.45.251a13.04,13.04,0,0,0,4.594,1.453.188.188,0,0,0,.046.006,13.079,13.079,0,0,0,3.13,0l.048-.006a13.135,13.135,0,0,0,5.246-24.234m4.3,13.007a11.073,11.073,0,0,1-.716,2.516c-.037.094-.078.186-.12.279a11.258,11.258,0,0,1-1.9,2.928c-.067.075-.135.151-.205.225a11.151,11.151,0,0,1-2.034,1.706c-.085.057-.168.111-.255.164a11.412,11.412,0,0,1-1.785.9c-.092.037-.186.072-.282.107a11.2,11.2,0,0,1-3.234.665c-.1.005-.2.011-.3.013s-.221.006-.334.006a11.3,11.3,0,0,1-4.116-.774c-.094-.037-.188-.073-.281-.114a11.231,11.231,0,0,1-1.327-.665c-.066-.039-.131-.077-.2-.12-.087-.052-.172-.1-.257-.163a.066.066,0,0,1-.022-.015,11.284,11.284,0,0,1-3.125-3.055c-.061-.083-.118-.168-.17-.253-.105-.155-.2-.313-.3-.474a11.34,11.34,0,0,1-1.4-7.4c.015-.1.031-.2.05-.3a11.34,11.34,0,0,1,4.524-7.157c.083-.059.164-.116.249-.174.054-.037.109-.074.165-.109a11.182,11.182,0,0,1,2.047-1.065c.094-.037.19-.074.284-.109a11.27,11.27,0,0,1,3.714-.677c.052,0,.1,0,.153,0s.1,0,.151,0a11.266,11.266,0,0,1,3.261.524c.1.031.205.066.307.1s.192.068.286.1a11.122,11.122,0,0,1,1.061.465,11.486,11.486,0,0,1,1.737,1.082c.081.061.16.124.24.186a11.408,11.408,0,0,1,2.977,3.6c.048.09.094.181.137.273a11.1,11.1,0,0,1,.807,2.18c.026.1.05.2.072.3a11.34,11.34,0,0,1,.177,4.012c-.013.1-.028.2-.044.3" transform="translate(-1530.169 -1327.953)" fill="#1d2a4c"/>
        <path id="Trazado_666025" data-name="Trazado 666025" d="M1966.366,1697.426c-.022-.1-.048-.2-.074-.3a11.32,11.32,0,0,0-.825-2.217c-.044-.092-.091-.183-.138-.271a11.637,11.637,0,0,0-3.009-3.638c-.079-.065-.158-.127-.24-.188a11.535,11.535,0,0,0-3.42-1.794h0a10.879,10.879,0,0,0-1.32-.341,11.128,11.128,0,0,0-2-.218c-.085,0-.168,0-.253,0h-.052c-.31,0-.618.015-.923.041a11.4,11.4,0,0,0-2.859.613c-.1.033-.192.068-.286.105a11.271,11.271,0,0,0-1.977.982c-.1.063-.2.129-.306.2-.085.056-.168.113-.251.172a11.576,11.576,0,0,0-4.716,7.305c-.021.1-.039.2-.054.3a11.392,11.392,0,0,0-.15,1.855,11.508,11.508,0,0,0,1.868,6.3c.055.085.113.17.17.253a11.641,11.641,0,0,0,3.261,3.167c.059.039.118.077.177.113a.883.883,0,0,0,.08.05,11.385,11.385,0,0,0,1.585.808c.092.039.186.076.28.113a11.522,11.522,0,0,0,4.151.77c.155,0,.31,0,.463-.009q.152-.005.3-.017a11.445,11.445,0,0,0,3.307-.716c.1-.035.19-.072.284-.111a11.36,11.36,0,0,0,1.825-.943c.085-.053.17-.109.255-.166a11.544,11.544,0,0,0,2.056-1.763c.07-.074.138-.149.2-.225a11.585,11.585,0,0,0,1.916-3.018c.041-.092.079-.184.116-.278a11.405,11.405,0,0,0,.707-2.567c.015-.1.03-.2.042-.3a11.888,11.888,0,0,0,.09-1.458,11.53,11.53,0,0,0-.3-2.6m-.3,4.3a11.109,11.109,0,0,1-.674,2.451c-.039.094-.077.186-.118.279a11.132,11.132,0,0,1-1.814,2.87q-.1.114-.2.227a11.089,11.089,0,0,1-1.979,1.7q-.127.086-.255.166a10.991,10.991,0,0,1-1.739.9c-.094.039-.188.076-.284.111a10.922,10.922,0,0,1-3.182.687c-.1.009-.2.015-.3.017-.14.008-.282.009-.425.009a11.026,11.026,0,0,1-3.976-.736c-.094-.035-.188-.074-.282-.113a10.957,10.957,0,0,1-1.51-.77c-.087-.054-.172-.107-.257-.162a.855.855,0,0,1-.072-.048,11.173,11.173,0,0,1-3.055-2.992c-.057-.083-.114-.168-.168-.253a11.1,11.1,0,0,1-1.645-7.809c.016-.1.033-.2.053-.3a11.114,11.114,0,0,1,4.526-7c.083-.061.166-.118.249-.173.013-.009.026-.016.039-.024a10.91,10.91,0,0,1,2.125-1.095c.094-.037.19-.072.286-.1a11.025,11.025,0,0,1,3.634-.63h.052c.085,0,.17,0,.253,0a10.953,10.953,0,0,1,3.145.53c.107.033.21.068.315.105s.19.068.284.107a10.85,10.85,0,0,1,1.037.463,10.972,10.972,0,0,1,1.65,1.036c.081.059.161.122.24.186a11.175,11.175,0,0,1,2.9,3.5q.073.136.138.271a10.971,10.971,0,0,1,.781,2.086c.026.1.052.2.074.3a11.166,11.166,0,0,1,.2,3.915c-.013.1-.026.2-.041.3" transform="translate(-1535.679 -1334.145)" fill="#b84c42"/>
        <path id="Trazado_666026" data-name="Trazado 666026" d="M2084.286,1595.841s2.779,4.405-.655,6.828-15,3.581-14.428,4.051c1.734,1.437,3.309,3.648,3.226,16.885l-.856.442s-8.244-17.935-7.692-20.072c.366-1.415,12.391-9.073,20.406-8.135" transform="translate(-1630.765 -1260.899)" fill="#ffb27d"/>
        <path id="Trazado_666027" data-name="Trazado 666027" d="M2106,1593.87s7.005-1.161,7.728-3.633c.54-1.847.7-2.6-2.475-8.57,0,0-1.327,2.52-8.25,1.937,0,0,.035.327.035.769-.009.734-.124,1.778-.7,2.078-.009.009-.027.009-.035.018-.911.416-2.322,1.254-2.534,1.334-.009,0,4.25.815,6.23,6.068" transform="translate(-1659.14 -1249.762)" fill="#35488b"/>
        <path id="Trazado_666028" data-name="Trazado 666028" d="M2112.009,1594.311c3.086-.911,6.1-.815,7.878-2.475-2.618-.672-5.765.4-7.18.4-.009.734-.124,1.778-.7,2.078" transform="translate(-1668.815 -1257.622)" fill="#2c3a64"/>
        <path id="Trazado_666029" data-name="Trazado 666029" d="M2090.512,1722.3l-.722.347c-.26.078-.472.094-.736.181a.743.743,0,0,0-.517.421.051.051,0,0,0,0,.01l-3.067,1.473c-.13-.073-.178-.364-.2-.587a.482.482,0,0,1,.161-.4,3.674,3.674,0,0,0,1.213-1.456c.187-.457,1.067-1.864,1.067-1.864l.006,0c.028-.013.18-.036.988.174.418.108.634-.74.634-.74a.806.806,0,0,1,.275.146.849.849,0,0,1,.292.439,3.385,3.385,0,0,0,.765,1.031c.173.176.3.3.3.3s.118.157-.466.533" transform="translate(-1647.687 -1358.954)" fill="#b84c42"/>
        <path id="Trazado_666030" data-name="Trazado 666030" d="M2098.815,1720a2.532,2.532,0,0,1-.589.765c-.3.2-1.313-.339-1.313-.339l.006,0c.028-.013.18-.036.988.174.418.107.634-.74.634-.74a.8.8,0,0,1,.275.146" transform="translate(-1656.886 -1358.955)" fill="#aa3e39"/>
        <path id="Trazado_666031" data-name="Trazado 666031" d="M2090.518,1728.389l-.722.347c-.26.078-.472.094-.736.18a.741.741,0,0,0-.517.421.06.06,0,0,0,0,.01l-3.066,1.473c-.13-.073-.178-.364-.2-.586.053-.127.292.3.377.348a15.12,15.12,0,0,0,2.606-1.347,1.643,1.643,0,0,1,1.09-.7,3.1,3.1,0,0,0,1.329-.978c.173.176.3.3.3.3s.118.157-.466.533" transform="translate(-1647.693 -1365.04)" fill="#aa3e39"/>
        <path id="Trazado_666032" data-name="Trazado 666032" d="M2003.458,1609.038a1.321,1.321,0,0,1,1.147-.828c5.672-13.03,5.732-13.132,5.818-13.272l.82,1.625c.043-.071-12.827,28.866-12.827,28.866l-1.266-.516Z" transform="translate(-1578.059 -1260.248)" fill="#35488b"/>
        <path id="Trazado_666033" data-name="Trazado 666033" d="M2079.031,1595.9a1.712,1.712,0,1,0-2.128,1.153,1.712,1.712,0,0,0,2.128-1.153" transform="translate(-1640.108 -1259.272)" fill="#415da5"/>
        <path id="Trazado_666034" data-name="Trazado 666034" d="M2028.535,1581.628a1.711,1.711,0,1,0-2.128,1.153,1.711,1.711,0,0,0,2.128-1.153" transform="translate(-1600.208 -1247.994)" fill="#415da5"/>
        <path id="Trazado_666035" data-name="Trazado 666035" d="M2035.054,1587.814l9.965,2.5.173-2.013-9.965-2.5Z" transform="translate(-1608.008 -1253.029)" fill="#415da5"/>
        <path id="Trazado_666036" data-name="Trazado 666036" d="M2066.124,1585.928a3.6,3.6,0,0,1-1.6.587,5.185,5.185,0,0,0-1.506.249,1.466,1.466,0,0,0-.967,1.313s0,.3,1.4-.124c.3-.094,1.036.083,1.285,0s1-.9,1.663-.878Z" transform="translate(-1629.339 -1253.129)" fill="#ffb27d"/>
        <path id="Trazado_666037" data-name="Trazado 666037" d="M2042.205,1580.266a3.6,3.6,0,0,1-1.6.587,5.18,5.18,0,0,0-1.506.249,1.468,1.468,0,0,0-.968,1.313s.02.432,1.4-.124c.377-.153,1.036.083,1.285,0a13.426,13.426,0,0,1,1.791-.956Z" transform="translate(-1610.439 -1248.655)" fill="#e8945b"/>
        <path id="Trazado_666038" data-name="Trazado 666038" d="M2097.775,1460.159c1.369.247,2,.988,2.873,3.1.906,2.2-.191,4.229-1.065,3.965-.561-.169-.757.79-.757.79l-5.331-4.657a4.14,4.14,0,0,1,4.279-3.2" transform="translate(-1654.187 -1153.744)" fill="#2c3a64"/>
        <path id="Trazado_666039" data-name="Trazado 666039" d="M2066.25,1520.583a3.81,3.81,0,0,1,1.638,3.691c-.219,2.647-2.647,6.819-4.494,7.854a44.7,44.7,0,0,1-5.693,2.1l-.152-1.149a46.208,46.208,0,0,0,4.187-3.015c1.6-1.647,3.119-10.122,4.514-9.482" transform="translate(-1625.783 -1201.469)" fill="#e8945b"/>
        <path id="Trazado_666040" data-name="Trazado 666040" d="M2099.616,1506.483a6.8,6.8,0,0,0,.436,1.6c.162.409.349.8.541,1.2.564,1.193,1.893,1.781,1.938,4.076.015.79,6.692-2.548,6.731-5.312a.129.129,0,0,1,0-.021c.012-.134.03-.492.05-.967.05-1.16.115-3.01.139-3.947,0-.022,0-.043,0-.063.01-.4.022-.692.038-.768-.894-3.8-2.95-3.819-3.652-3.807-.093,0-.187,0-.281.009a1.129,1.129,0,0,1-.974-.482,7.791,7.791,0,0,1-1.1-2.831l-.16.068-2.7,1.146s.249.872.426,1.7a8.682,8.682,0,0,1,.161.977.586.586,0,0,1-.373.6v0c-.048.107-1.655,3.789-1.225,6.814" transform="translate(-1658.964 -1181.418)" fill="#ffb27d"/>
        <path id="Trazado_666041" data-name="Trazado 666041" d="M2101.968,1552.851c.161.409.348.8.541,1.2.564,1.194,1.893,1.781,1.938,4.076l.124.011c4.93.385,6.61-5.345,6.61-5.345.011-.134.03-.492.05-.967l-8.9.015a8.984,8.984,0,0,0-.367,1.005" transform="translate(-1660.881 -1226.187)" fill="#e8945b"/>
        <path id="Trazado_666042" data-name="Trazado 666042" d="M2095.332,1517.682c.025.074.052.147.083.221.854,2.037,2.743,12.519,2.743,12.519.023-.013,7.714.5,10.762-3.7.149.445-.573-2.119-1.7-5.563a18.9,18.9,0,0,1-1.24-5.727c0-.022,0-.043,0-.064-.2-.157-.387-.3-.564-.441-.566-.446-.987-.825-1-1.291a3.611,3.611,0,0,1,.035-.559c.012-.088.027-.177.043-.264a7.592,7.592,0,0,1,.6-1.756,6.873,6.873,0,0,0-2.73-.264,5.994,5.994,0,0,1-2.066,2.358c-.394.247-1.8.864-2.492.221a1.913,1.913,0,0,1-.443-1.386v0a7.4,7.4,0,0,0-2.176,1.054c.924.65-.525,2.676.135,4.646" transform="translate(-1655.496 -1193.733)" fill="#739af0"/>
        <path id="Trazado_666043" data-name="Trazado 666043" d="M2104.711,1496.645s.25.871.426,1.7a3.408,3.408,0,0,0,2.27-2.85Z" transform="translate(-1663.048 -1181.676)" fill="#e8945b"/>
        <path id="Trazado_666044" data-name="Trazado 666044" d="M2094.748,1480.011s3.736-.718,3.253-3.038-.327-3.974-2.732-3.614-2.683,1.342-2.71,2.156,1.205,4.623,2.189,4.5" transform="translate(-1653.446 -1164.143)" fill="#ffb27d"/>
        <path id="Trazado_666045" data-name="Trazado 666045" d="M2091.066,1472.554c.43-.818.9-.756,1.184-.6a2.658,2.658,0,0,1,3.458-.166,4.528,4.528,0,0,0,2,2.314,3.147,3.147,0,0,1-2.239.487,2.717,2.717,0,0,1-1.45-.609,8.868,8.868,0,0,0,1.877,1.513c-2.05-.473-3.344-2.914-3.477-3.173a2.986,2.986,0,0,0-.585,1.252c-.062.63.109,1.863-.253,1.9,0,0-1.155-1.688-.512-2.915" transform="translate(-1652.112 -1162.495)" fill="#2c3a64"/>
        <path id="Trazado_666046" data-name="Trazado 666046" d="M2081.469,1527.512l.268,1.146s6.268-.856,8.317-2.049,5.151-8.2,5.4-11.166q.02-.236.025-.45c.074-2.559-1.186-2.957-1.186-2.957-.5-.231-1.132.634-1.8,1.985-1.393,2.835-2.95,7.81-3.875,9.283-.711,1.131-7.15,4.208-7.15,4.208" transform="translate(-1644.683 -1194.713)" fill="#ffb27d"/>
        <path id="Trazado_666047" data-name="Trazado 666047" d="M2134.008,1514.019a3.326,3.326,0,0,1,2.981.972c.075-2.559-1.186-2.957-1.186-2.957-.5-.231-1.132.634-1.8,1.985" transform="translate(-1686.198 -1194.712)" fill="#739af0"/>
        <path id="Trazado_666048" data-name="Trazado 666048" d="M2092.089,1521.613a3.569,3.569,0,0,0-.87,1.91,1.607,1.607,0,0,1,1.363.914s.343-2.679-.493-2.823" transform="translate(-1652.387 -1202.31)" fill="#739af0"/>
        <path id="Trazado_666049" data-name="Trazado 666049" d="M2110.465,1456.752s2.065-2.559,4.669-1.84,4.087,3.727,5.3,3.232c2.032-.831,2.6,1.9,1.784,3.88-.708,1.733-3.771,2.393-5.625.495-1.351-1.383-3.208-7.293-5.5-5.318s-.629-.449-.629-.449" transform="translate(-1667.135 -1149.505)" fill="#2c3a64"/>
        <path id="Trazado_666050" data-name="Trazado 666050" d="M515.973,1805.958v.2a.57.57,0,0,1-.568.568H14.458a.571.571,0,0,1-.57-.568v-.2a.571.571,0,0,1,.57-.569H515.4a.57.57,0,0,1,.568.569" transform="translate(-10.974 -1426.538)" fill="#233862"/>
      </g>
    </g>
  </g>
</svg>
