<svg xmlns="http://www.w3.org/2000/svg" width="107.27" height="107.27" viewBox="0 0 107.27 107.27">
  <g id="Grupo_971805" data-name="Grupo 971805" transform="translate(-755 -1977)">
    <circle id="Elipse_5568" data-name="Elipse 5568" cx="53.635" cy="53.635" r="53.635" transform="translate(755 1977)" fill="#0f58b9"/>
    <g id="costo" transform="translate(773.96 1992.974)">
      <g id="Grupo_971769" data-name="Grupo 971769" transform="translate(36.372 0)">
        <path id="Trazado_663338" data-name="Trazado 663338" d="M267.68,79.671h33v49.094c0,5.082-7.386,7.756-16.5,7.756s-16.5-2.675-16.5-7.756Z" transform="translate(-267.68 -70.47)" fill="#f5b945" fill-rule="evenodd"/>
        <g id="Grupo_971768" data-name="Grupo 971768" transform="translate(0 0)">
          <ellipse id="Elipse_5565" data-name="Elipse 5565" cx="16.498" cy="9.201" rx="16.498" ry="9.201" fill="#fdcd56"/>
          <path id="Trazado_663339" data-name="Trazado 663339" d="M308.131,36.484a19.255,19.255,0,0,0-9.695,2.38c-.9.545-2.757,1.923-2.757,3.241s1.86,2.7,2.757,3.241a20.937,20.937,0,0,0,19.39,0c.9-.546,2.757-1.923,2.757-3.241s-1.86-2.7-2.757-3.241A19.256,19.256,0,0,0,308.131,36.484Z" transform="translate(-291.633 -33.524)" fill="#f5b945" fill-rule="evenodd"/>
          <path id="Trazado_663340" data-name="Trazado 663340" d="M359.184,53.837a1.009,1.009,0,1,1,.94-1.786,3.6,3.6,0,0,0,.7.3,3.049,3.049,0,0,0,.839.1,3.1,3.1,0,0,0,1.107-.182,3.1,3.1,0,0,0-1.107-.182,4.926,4.926,0,0,1-2.146-.456,1.843,1.843,0,0,1,0-3.5,4.287,4.287,0,0,1,1.125-.361,1.009,1.009,0,0,1,1.986.006c.178.032.358.071.529.115a3.43,3.43,0,0,1,1.285.576,1.009,1.009,0,1,1-1.3,1.541,1.982,1.982,0,0,0-.487-.165,4.373,4.373,0,0,0-.988-.149,3.074,3.074,0,0,0-1.108.186,3.1,3.1,0,0,0,1.108.183,4.925,4.925,0,0,1,2.146.456,1.843,1.843,0,0,1,0,3.5,4.33,4.33,0,0,1-1.134.365,1.009,1.009,0,0,1-1.961.015,4.355,4.355,0,0,1-.434-.1,5.435,5.435,0,0,1-1.092-.457Zm3.834-1.574c.018.024.027.037.027,0S363.036,52.239,363.018,52.263Zm-2.744-2.388c0,.037.01.024.027,0C360.284,49.851,360.274,49.838,360.274,49.875Z" transform="translate(-345.162 -42.466)" fill="#daa33b" fill-rule="evenodd"/>
        </g>
        <path id="Trazado_663341" data-name="Trazado 663341" d="M284.178,178.564c9.112,0,16.5-2.675,16.5-7.756V164c0,5.082-7.386,7.756-16.5,7.756s-16.5-2.675-16.5-7.756v6.807C267.68,175.89,275.066,178.564,284.178,178.564Zm0-27.228c9.112,0,16.5-2.675,16.5-7.756v-6.807c0,5.082-7.386,7.756-16.5,7.756s-16.5-2.675-16.5-7.756v6.807C267.68,148.662,275.066,151.336,284.178,151.336Zm0,13.614c-9.112,0-16.5-2.675-16.5-7.756v-6.807c0,5.082,7.386,7.756,16.5,7.756s16.5-2.674,16.5-7.756v6.807C300.676,162.276,293.29,164.95,284.178,164.95Z" transform="translate(-267.68 -119.319)" fill="#daa33b" fill-rule="evenodd"/>
      </g>
      <g id="Grupo_971771" data-name="Grupo 971771" transform="translate(0 6.807)">
        <path id="Trazado_663342" data-name="Trazado 663342" d="M49,122.465H16v42.91c0,5.082,7.386,7.756,16.5,7.756S49,170.456,49,165.375Z" transform="translate(-16 -113.886)" fill="#f5b945" fill-rule="evenodd"/>
        <g id="Grupo_971770" data-name="Grupo 971770" transform="translate(0 0)">
          <ellipse id="Elipse_5566" data-name="Elipse 5566" cx="16.498" cy="9.201" rx="16.498" ry="9.201" fill="#fdcd56"/>
          <path id="Trazado_663343" data-name="Trazado 663343" d="M56.451,83.586a19.256,19.256,0,0,0-9.695,2.38c-.9.545-2.757,1.923-2.757,3.241s1.86,2.7,2.757,3.241a19.255,19.255,0,0,0,9.695,2.38,19.255,19.255,0,0,0,9.695-2.38c.9-.545,2.757-1.923,2.757-3.241s-1.86-2.7-2.757-3.241A19.256,19.256,0,0,0,56.451,83.586Z" transform="translate(-39.954 -80.626)" fill="#f5b945" fill-rule="evenodd"/>
          <path id="Trazado_663344" data-name="Trazado 663344" d="M107.5,100.939a1.009,1.009,0,1,1,.941-1.786,3.61,3.61,0,0,0,.7.3,3.049,3.049,0,0,0,.839.1,3.1,3.1,0,0,0,1.107-.182,3.1,3.1,0,0,0-1.107-.182,4.925,4.925,0,0,1-2.146-.456,1.843,1.843,0,0,1,0-3.5,4.29,4.29,0,0,1,1.125-.361,1.009,1.009,0,0,1,1.986.006c.178.032.358.071.529.115a3.43,3.43,0,0,1,1.285.576,1.009,1.009,0,0,1-1.3,1.541,1.981,1.981,0,0,0-.487-.165,4.373,4.373,0,0,0-.988-.149,3.073,3.073,0,0,0-1.108.186,3.1,3.1,0,0,0,1.108.183,4.925,4.925,0,0,1,2.146.456,1.843,1.843,0,0,1,0,3.5,4.332,4.332,0,0,1-1.135.365,1.009,1.009,0,0,1-1.961.015,4.352,4.352,0,0,1-.434-.1A5.437,5.437,0,0,1,107.5,100.939Zm3.834-1.574c.018.024.027.037.027,0S111.356,99.341,111.338,99.365Zm-2.744-2.388c0,.037.01.024.027,0C108.6,96.953,108.594,96.94,108.594,96.977Z" transform="translate(-93.482 -89.568)" fill="#daa33b" fill-rule="evenodd"/>
        </g>
        <path id="Trazado_663345" data-name="Trazado 663345" d="M49,211.1c0,5.082-7.386,7.756-16.5,7.756S16,216.186,16,211.1v6.807c0,5.082,7.386,7.756,16.5,7.756S49,222.993,49,217.911Zm0-27.228c0,5.082-7.386,7.756-16.5,7.756S16,188.958,16,183.876v6.807c0,5.082,7.386,7.756,16.5,7.756S49,195.765,49,190.683Zm0,13.614V204.3c0,5.082-7.386,7.756-16.5,7.756S16,209.379,16,204.3V197.49c0,5.082,7.386,7.756,16.5,7.756S49,202.572,49,197.49Z" transform="translate(-16 -166.422)" fill="#daa33b" fill-rule="evenodd"/>
      </g>
    </g>
  </g>
</svg>
