<svg xmlns="http://www.w3.org/2000/svg" xmlns:xlink="http://www.w3.org/1999/xlink" width="192.691" height="220.15" viewBox="0 0 192.691 220.15">
  <defs>
    <clipPath id="clip-path">
      <rect id="Rectángulo_345419" data-name="Rectángulo 345419" width="192.691" height="179.724" fill="none"/>
    </clipPath>
  </defs>
  <g id="Grupo_999978" data-name="Grupo 999978" transform="translate(-197.309 -10750.43)">
    <path id="Trazado_707179" data-name="Trazado 707179" d="M15.19,23.331a2.113,2.113,0,0,0-.8-1.758,9.923,9.923,0,0,0-2.805-1.3,26.912,26.912,0,0,1-3.281-1.3Q4.16,16.93,4.16,13.37a5.018,5.018,0,0,1,1.033-3.127A6.68,6.68,0,0,1,8.115,8.133a11.372,11.372,0,0,1,4.248-.754,9.948,9.948,0,0,1,4.124.82,6.529,6.529,0,0,1,2.834,2.336A6.1,6.1,0,0,1,20.332,14H15.205a2.578,2.578,0,0,0-.8-2.021,3.112,3.112,0,0,0-2.161-.718,3.509,3.509,0,0,0-2.175.608,1.79,1.79,0,0,0,.081,3.032,11.084,11.084,0,0,0,3.091,1.377,18.934,18.934,0,0,1,3.633,1.531A6.1,6.1,0,0,1,20.332,23.3,5.208,5.208,0,0,1,18.223,27.7a9.382,9.382,0,0,1-5.786,1.6,11.48,11.48,0,0,1-4.695-.93,7.078,7.078,0,0,1-3.164-2.549,6.641,6.641,0,0,1-1.062-3.728H8.672a3.271,3.271,0,0,0,.886,2.527,4.189,4.189,0,0,0,2.878.813,3.309,3.309,0,0,0,2.014-.549A1.813,1.813,0,0,0,15.19,23.331Zm16.992,3.955a5.09,5.09,0,0,1-4.233,2.007A4.992,4.992,0,0,1,24,27.777a6.376,6.376,0,0,1-1.34-4.358V13.15H27.6v10.3a1.774,1.774,0,0,0,1.978,2.036,2.58,2.58,0,0,0,2.417-1.216V13.15h4.966V29H32.329Zm22.192-6.079A9.66,9.66,0,0,1,52.764,27.2a5.4,5.4,0,0,1-4.541,2.095,4.684,4.684,0,0,1-3.9-1.919L44.121,29H39.7V6.5h4.937v7.925a4.519,4.519,0,0,1,3.56-1.567,5.4,5.4,0,0,1,4.57,2.124,9.71,9.71,0,0,1,1.611,5.977Zm-4.951-.315a6.443,6.443,0,0,0-.608-3.254,2.049,2.049,0,0,0-1.868-.973,2.364,2.364,0,0,0-2.314,1.272v6.288a2.377,2.377,0,0,0,2.344,1.258,2.1,2.1,0,0,0,2.212-1.7A12.182,12.182,0,0,0,49.424,20.892Zm15.425,3.655a1.14,1.14,0,0,0-.659-1.011,10.027,10.027,0,0,0-2.5-.791,11.422,11.422,0,0,1-3.047-1.077,5.1,5.1,0,0,1-1.831-1.619,3.865,3.865,0,0,1-.63-2.183,4.381,4.381,0,0,1,1.8-3.6A7.422,7.422,0,0,1,62.7,12.857a8.223,8.223,0,0,1,5.039,1.421,4.443,4.443,0,0,1,1.9,3.735H64.688q0-1.9-2.007-1.9a1.989,1.989,0,0,0-1.3.432,1.338,1.338,0,0,0-.527,1.077,1.228,1.228,0,0,0,.645,1.069,6.09,6.09,0,0,0,2.058.674,17.785,17.785,0,0,1,2.483.63q3.574,1.23,3.574,4.409a4.151,4.151,0,0,1-1.926,3.53A8.447,8.447,0,0,1,62.7,29.293a8.62,8.62,0,0,1-3.633-.732,6.075,6.075,0,0,1-2.49-1.992,4.511,4.511,0,0,1-.894-2.651h4.614a1.908,1.908,0,0,0,.732,1.6,3.013,3.013,0,0,0,1.8.505,2.37,2.37,0,0,0,1.516-.41A1.312,1.312,0,0,0,64.849,24.547ZM77.124,29H72.173V13.15h4.951ZM71.88,9.063a2.2,2.2,0,0,1,.762-1.729,3.239,3.239,0,0,1,3.955,0,2.2,2.2,0,0,1,.762,1.729,2.2,2.2,0,0,1-.762,1.729,3.239,3.239,0,0,1-3.955,0A2.2,2.2,0,0,1,71.88,9.063Zm7.661,11.895a9.682,9.682,0,0,1,1.626-5.933,5.352,5.352,0,0,1,4.541-2.168,4.552,4.552,0,0,1,3.574,1.67V6.5h4.951V29H89.795l-.249-1.7a4.674,4.674,0,0,1-3.867,1.992A5.342,5.342,0,0,1,81.2,27.125,9.989,9.989,0,0,1,79.541,20.958Zm4.937.308q0,4.219,2.461,4.219a2.43,2.43,0,0,0,2.344-1.377V18.072a2.365,2.365,0,0,0-2.314-1.406q-2.285,0-2.476,3.691ZM102.246,29H97.295V13.15h4.951ZM97,9.063a2.2,2.2,0,0,1,.762-1.729,3.239,3.239,0,0,1,3.955,0,2.2,2.2,0,0,1,.762,1.729,2.2,2.2,0,0,1-.762,1.729,3.239,3.239,0,0,1-3.955,0A2.2,2.2,0,0,1,97,9.063Zm7.661,11.865a9.355,9.355,0,0,1,.923-4.226,6.6,6.6,0,0,1,2.651-2.849,7.985,7.985,0,0,1,4.058-1,7.288,7.288,0,0,1,5.61,2.2,8.46,8.46,0,0,1,2.051,6v.176a8.208,8.208,0,0,1-2.058,5.881,7.307,7.307,0,0,1-5.574,2.175,7.39,7.39,0,0,1-5.435-2.029,7.935,7.935,0,0,1-2.212-5.5Zm4.937.308a5.9,5.9,0,0,0,.688,3.223,2.294,2.294,0,0,0,2.036,1.025q2.637,0,2.7-4.058v-.5q0-4.263-2.725-4.263-2.476,0-2.681,3.677Zm20.83,3.311a1.14,1.14,0,0,0-.659-1.011,10.027,10.027,0,0,0-2.5-.791,11.422,11.422,0,0,1-3.047-1.077,5.1,5.1,0,0,1-1.831-1.619,3.865,3.865,0,0,1-.63-2.183,4.381,4.381,0,0,1,1.8-3.6,7.422,7.422,0,0,1,4.717-1.414,8.223,8.223,0,0,1,5.039,1.421,4.443,4.443,0,0,1,1.9,3.735h-4.951q0-1.9-2.007-1.9a1.989,1.989,0,0,0-1.3.432,1.338,1.338,0,0,0-.527,1.077,1.228,1.228,0,0,0,.645,1.069,6.09,6.09,0,0,0,2.058.674,17.785,17.785,0,0,1,2.483.63q3.574,1.23,3.574,4.409a4.151,4.151,0,0,1-1.926,3.53,8.447,8.447,0,0,1-4.988,1.362,8.62,8.62,0,0,1-3.633-.732,6.075,6.075,0,0,1-2.49-1.992,4.511,4.511,0,0,1-.894-2.651h4.614a1.908,1.908,0,0,0,.732,1.6,3.013,3.013,0,0,0,1.8.505,2.37,2.37,0,0,0,1.516-.41A1.312,1.312,0,0,0,130.43,24.547Z" transform="translate(220.809 10941.287)" fill="#2e0877"/>
    <g id="Grupo_999440" data-name="Grupo 999440" transform="translate(197.309 10718)">
      <g id="Grupo_999439" data-name="Grupo 999439" transform="translate(0 32.429)" clip-path="url(#clip-path)">
        <path id="Trazado_706336" data-name="Trazado 706336" d="M97.232,0A79.34,79.34,0,1,1,17.893,79.34,79.34,79.34,0,0,1,97.232,0" transform="translate(1.208)" fill="#25ffff"/>
        <path id="Trazado_706337" data-name="Trazado 706337" d="M61.955,70.347h60.722v90.347c0,9.351-13.594,14.281-30.361,14.281s-30.361-4.923-30.361-14.281Z" transform="translate(4.182 4.749)" fill="#f8a92f" fill-rule="evenodd"/>
        <path id="Trazado_706338" data-name="Trazado 706338" d="M92.316,54.485c16.767,0,30.361,7.581,30.361,16.933S109.083,88.351,92.316,88.351,61.955,80.77,61.955,71.418,75.549,54.485,92.316,54.485" transform="translate(4.182 3.678)" fill="#ffc141"/>
        <path id="Trazado_706339" data-name="Trazado 706339" d="M91.846,59.589a35.44,35.44,0,0,0-17.851,4.379c-1.65,1-5.074,3.539-5.074,5.964s3.423,4.961,5.074,5.964a38.531,38.531,0,0,0,35.682,0c1.65-1,5.074-3.539,5.074-5.966s-3.423-4.961-5.074-5.964a35.425,35.425,0,0,0-17.832-4.377" transform="translate(4.653 4.022)" fill="#f8a92f" fill-rule="evenodd"/>
        <path id="Trazado_706340" data-name="Trazado 706340" d="M86.238,74.89a1.857,1.857,0,0,1,1.73-3.286,6.658,6.658,0,0,0,1.281.55,5.576,5.576,0,0,0,1.544.176,5.713,5.713,0,0,0,2.038-.335,5.713,5.713,0,0,0-2.038-.336,9.063,9.063,0,0,1-3.948-.84,3.392,3.392,0,0,1,0-6.439,7.845,7.845,0,0,1,2.071-.663,1.856,1.856,0,0,1,3.654.012c.328.059.657.13.972.21a6.3,6.3,0,0,1,2.365,1.05,1.859,1.859,0,1,1-2.3,2.92c-.034-.027-.067-.056-.1-.084a3.6,3.6,0,0,0-.9-.305,8.06,8.06,0,0,0-1.819-.274,5.65,5.65,0,0,0-2.039.342,5.7,5.7,0,0,0,2.039.336,9.064,9.064,0,0,1,3.949.84,3.392,3.392,0,0,1,0,6.439,8.021,8.021,0,0,1-2.088.671,1.856,1.856,0,0,1-3.609.028c-.269-.048-.536-.109-.8-.183a10.062,10.062,0,0,1-2.008-.84Zm7.056-2.9c.034.044.051.066.051,0s-.019-.045-.052-.009ZM88.254,67.6c0,.067.017.044.05,0-.042-.044-.061-.069-.061,0Z" transform="translate(5.706 4.198)" fill="#d69128" fill-rule="evenodd"/>
        <path id="Trazado_706341" data-name="Trazado 706341" d="M92.316,161.485c16.767,0,30.361-4.923,30.361-14.281V134.677c0,9.352-13.594,14.281-30.361,14.281s-30.361-4.922-30.361-14.281v12.538c0,9.347,13.594,14.27,30.361,14.27m0-50.109c16.767,0,30.361-4.922,30.361-14.28V84.569c0,9.351-13.594,14.281-30.361,14.281S61.955,93.927,61.955,84.569V97.1c0,9.358,13.594,14.28,30.361,14.28m0,25.054c-16.767,0-30.361-4.922-30.361-14.28V109.623c0,9.351,13.594,14.28,30.361,14.28s30.361-4.922,30.361-14.28v12.527c0,9.358-13.591,14.28-30.361,14.28" transform="translate(4.182 5.709)" fill="#d69128" fill-rule="evenodd"/>
        <path id="Trazado_706342" data-name="Trazado 706342" d="M0,93.674H60.722V155.7c0,6.421-13.594,12.415-30.361,12.415S0,162.126,0,155.7Z" transform="translate(0 6.324)" fill="#f8a92f" fill-rule="evenodd"/>
        <path id="Trazado_706343" data-name="Trazado 706343" d="M30.361,77.812c16.767,0,30.361,7.581,30.361,16.933s-13.594,16.933-30.361,16.933S0,104.1,0,94.745,13.594,77.812,30.361,77.812" transform="translate(0 5.253)" fill="#ffc141"/>
        <path id="Trazado_706344" data-name="Trazado 706344" d="M29.891,82.916A35.44,35.44,0,0,0,12.04,87.294c-1.65,1-5.074,3.539-5.074,5.964s3.423,4.961,5.074,5.964a38.531,38.531,0,0,0,35.682,0c1.65-1,5.074-3.539,5.074-5.966s-3.423-4.961-5.074-5.964a35.425,35.425,0,0,0-17.832-4.377" transform="translate(0.47 5.597)" fill="#f8a92f" fill-rule="evenodd"/>
        <path id="Trazado_706345" data-name="Trazado 706345" d="M24.282,98.216a1.857,1.857,0,0,1,1.73-3.286,6.658,6.658,0,0,0,1.281.55,5.576,5.576,0,0,0,1.544.176,5.712,5.712,0,0,0,2.038-.335,5.713,5.713,0,0,0-2.038-.336,9.063,9.063,0,0,1-3.948-.84,3.392,3.392,0,0,1,0-6.439,7.845,7.845,0,0,1,2.071-.663,1.856,1.856,0,0,1,3.654.012c.328.059.657.13.972.21a6.3,6.3,0,0,1,2.365,1.05,1.859,1.859,0,0,1-2.3,2.92c-.034-.027-.067-.056-.1-.084a3.6,3.6,0,0,0-.9-.305,8.061,8.061,0,0,0-1.819-.274,5.65,5.65,0,0,0-2.039.342,5.7,5.7,0,0,0,2.039.336,9.064,9.064,0,0,1,3.949.84,3.392,3.392,0,0,1,0,6.439A8.021,8.021,0,0,1,30.7,99.2a1.856,1.856,0,0,1-3.609.028c-.269-.048-.536-.109-.8-.183a10.062,10.062,0,0,1-2.008-.84Zm7.056-2.9c.034.044.051.066.051,0s-.019-.045-.052-.009ZM26.3,90.927c0,.067.017.044.05,0-.042-.044-.061-.069-.061,0Z" transform="translate(1.523 5.773)" fill="#d69128" fill-rule="evenodd"/>
        <path id="Trazado_706346" data-name="Trazado 706346" d="M30.361,134.7c16.767,0,30.361-4.922,30.361-14.28V107.9c0,9.351-13.594,14.281-30.361,14.281S0,117.253,0,107.9v12.527c0,9.358,13.594,14.28,30.361,14.28m0,25.054C13.594,159.757,0,154.834,0,145.477V132.949c0,9.351,13.594,14.28,30.361,14.28s30.361-4.922,30.361-14.28v12.527c0,9.358-13.591,14.28-30.361,14.28" transform="translate(0 7.284)" fill="#d69128" fill-rule="evenodd"/>
        <path id="Trazado_706347" data-name="Trazado 706347" d="M123.625,112.541h60.722v43.752c0,6.42-13.594,12.415-30.361,12.415s-30.361-5.991-30.361-12.415Z" transform="translate(8.345 7.597)" fill="#f8a92f" fill-rule="evenodd"/>
        <path id="Trazado_706348" data-name="Trazado 706348" d="M153.986,96.679c16.766,0,30.361,7.581,30.361,16.933s-13.595,16.933-30.361,16.933-30.361-7.58-30.361-16.933,13.594-16.933,30.361-16.933" transform="translate(8.345 6.526)" fill="#ffc141"/>
        <path id="Trazado_706349" data-name="Trazado 706349" d="M153.516,101.783a35.437,35.437,0,0,0-17.851,4.379c-1.65,1-5.075,3.539-5.075,5.964s3.425,4.961,5.075,5.964a38.531,38.531,0,0,0,35.682,0c1.65-1,5.074-3.539,5.074-5.966s-3.423-4.961-5.074-5.964a35.43,35.43,0,0,0-17.832-4.377" transform="translate(8.816 6.87)" fill="#f8a92f" fill-rule="evenodd"/>
        <path id="Trazado_706350" data-name="Trazado 706350" d="M147.907,117.083a1.857,1.857,0,0,1,1.73-3.286,6.657,6.657,0,0,0,1.281.55,5.576,5.576,0,0,0,1.544.176,5.712,5.712,0,0,0,2.038-.335,5.713,5.713,0,0,0-2.038-.336,9.063,9.063,0,0,1-3.948-.84,3.392,3.392,0,0,1,0-6.439,7.844,7.844,0,0,1,2.071-.663,1.856,1.856,0,0,1,3.654.012c.328.059.657.13.973.21a6.3,6.3,0,0,1,2.365,1.05,1.859,1.859,0,0,1-2.3,2.92c-.034-.027-.067-.056-.1-.084a3.6,3.6,0,0,0-.9-.305,8.06,8.06,0,0,0-1.819-.274,5.65,5.65,0,0,0-2.039.342,5.7,5.7,0,0,0,2.039.336,9.064,9.064,0,0,1,3.949.84,3.392,3.392,0,0,1,0,6.439,8.021,8.021,0,0,1-2.088.671,1.856,1.856,0,0,1-3.609.028c-.269-.048-.536-.109-.8-.183a10.062,10.062,0,0,1-2.008-.84Zm7.056-2.9c.034.044.051.066.051,0s-.019-.045-.052-.009Zm-5.04-4.394c0,.067.017.044.05,0-.042-.044-.061-.069-.061,0Z" transform="translate(9.869 7.047)" fill="#d69128" fill-rule="evenodd"/>
        <path id="Trazado_706351" data-name="Trazado 706351" d="M153.986,153.569c16.766,0,30.361-4.922,30.361-14.28V126.762c0,9.351-13.595,14.28-30.361,14.28s-30.361-4.922-30.361-14.28v12.527c0,9.358,13.594,14.28,30.361,14.28" transform="translate(8.345 8.557)" fill="#d69128" fill-rule="evenodd"/>
        <text id="_-_" data-name="-%" transform="translate(59.699 51.796)" fill="#4e2076" font-size="54" font-family="Roboto-Black, Roboto" font-weight="800"><tspan x="0" y="0">-%</tspan></text>
      </g>
    </g>
  </g>
</svg>
