<svg xmlns="http://www.w3.org/2000/svg" xmlns:xlink="http://www.w3.org/1999/xlink" width="194" height="194" viewBox="0 0 194 194">
  <defs>
    <filter id="Elipse_5144" x="0" y="0" width="194" height="194" filterUnits="userSpaceOnUse">
      <feOffset dy="3" input="SourceAlpha"/>
      <feGaussianBlur stdDeviation="3" result="blur"/>
      <feFlood flood-opacity="0.161"/>
      <feComposite operator="in" in2="blur"/>
      <feComposite in="SourceGraphic"/>
    </filter>
    <clipPath id="clip-path">
      <rect id="Rectángulo_345252" data-name="Rectángulo 345252" width="133.315" height="133.311" fill="none"/>
    </clipPath>
    <clipPath id="clip-path-2">
      <rect id="Rectángulo_345249" data-name="Rectángulo 345249" width="23.095" height="58.637" fill="none"/>
    </clipPath>
    <clipPath id="clip-path-4">
      <rect id="Rectángulo_345251" data-name="Rectángulo 345251" width="9.51" height="35.136" fill="none"/>
    </clipPath>
  </defs>
  <g id="Grupo_999374" data-name="Grupo 999374" transform="translate(-1014 -903)">
    <g transform="matrix(1, 0, 0, 1, 1014, 903)" filter="url(#Elipse_5144)">
      <circle id="Elipse_5144-2" data-name="Elipse 5144" cx="88" cy="88" r="88" transform="translate(9 6)" fill="#fff"/>
    </g>
    <g id="Grupo_999385" data-name="Grupo 999385" transform="translate(1044.342 951.689)">
      <g id="Grupo_999384" data-name="Grupo 999384" clip-path="url(#clip-path)">
        <path id="Trazado_704882" data-name="Trazado 704882" d="M28.834,38.707l-.774-7.431s-6.811-3.561-6.347-8.978,6.657-7.276,6.657-7.276,1.857-11.3,9.907-11.455,39.939.619,39.939.619,8.824,5.108,8.668,8.2,8.824-8.36,19.2,1.393c0,0,12.848-20.279,30.961-2.013,0,0,12.384,22.446-10.527,27.245,0,0-14.087,3.1-17.493-4.489,0,0-6.192,7.431-15.016,5.727S79.919,25.7,79.919,25.7l-7.431.464L71.56,38.707l-7.585-.774V30.812S55.46,30.657,56.389,24s1.393-8.359,1.393-8.359l-8.669.464s-7.276,9.753-11.765,10.372L36.574,38.4Z" transform="translate(-9.26 -1.514)" fill="#4e4e4e"/>
        <path id="Trazado_704883" data-name="Trazado 704883" d="M11.9,129.411H34.991q-2.189-29.3-4.374-58.521h-14.4c-.059.871-.116,1.75-.179,2.628q-.671,9.249-1.344,18.5c-.138,1.882-.3,3.762-.421,5.645-.034.517-.21.721-.756.655-.882-.107-1.771-.17-2.659-.209-.432-.019-.555-.181-.524-.6q.781-10.316,1.542-20.634c.518-6.921.985-13.846,1.579-20.762.462-5.377.13-10.756.244-16.133a2.684,2.684,0,0,0-.052-.373H9.8c0-1.229-.017-2.393.025-3.555,0-.12.351-.324.54-.326,2.191-.028,4.383-.039,6.574-.018.5.005.687-.1.663-.646-.043-1-.028-2,.018-2.993.02-.433-.105-.589-.527-.706a9.363,9.363,0,0,1-7.041-7.495,9.648,9.648,0,0,1,7.006-11.329c.43-.117.624-.254.7-.739A13.718,13.718,0,0,1,31.706.021c11.5-.018,23-.041,34.5.012a13.23,13.23,0,0,1,9.613,3.8,22.633,22.633,0,0,1,2.554,3.429c.3.444.462.61,1.034.363a16.977,16.977,0,0,1,15.517.587c.339.183.658.4,1.049.646,4.426-5.883,10.27-9,17.7-8.778A18.93,18.93,0,0,1,125.6,4.614c-.734.907-1.441,1.755-2.116,2.628-.241.312-.4.164-.645.023a34.9,34.9,0,0,0-3.849-2.151A16.279,16.279,0,0,0,99.947,10.08c-.971,1.236-1.727,2.642-2.58,3.969-.1.155-.19.315-.3.493-6.648-5.873-13.43-6.276-20.49-.62-.2-.755-.412-1.4-.552-2.066a9.486,9.486,0,0,0-6.538-7.44,11.6,11.6,0,0,0-3.707-.509c-11.26-.028-22.521,0-33.782,0a10.034,10.034,0,0,0-4.816.862c-3.577,1.885-5.676,4.746-5.731,8.906-.007.585,0,1.174.05,1.756.044.506-.1.646-.64.658a12.877,12.877,0,0,0-3.274.323,5.794,5.794,0,0,0-3.923,5.311A6.037,6.037,0,0,0,17.3,27.4a1.649,1.649,0,0,0,.295.035c0-.964.04-1.908-.015-2.845-.033-.558.143-.731.68-.709.888.036,1.778.042,2.668.026.421-.007.547.122.544.56-.019,3.708-.011,7.416-.011,11.237.864,0,1.72.005,2.577,0,1.346-.009,1.374-.012,1.376-1.362q.013-7.322-.022-14.646c0-.615.126-.853.781-.809a23.861,23.861,0,0,0,2.537.006c.456-.017.607.126.592.589-.033.994-.01,1.99-.01,3.042a2.123,2.123,0,0,0,.466,0,8.889,8.889,0,0,0,7.358-8.71c-.021-1.66.013-1.665,1.644-1.665q7.1,0,14.19.01h1.676V16.04a5.668,5.668,0,0,0-4.546,2.24,5.25,5.25,0,0,0-1.263,3.142,6.019,6.019,0,0,0,3.895,6.014V23.908c1.237,0,2.42-.018,3.6.029.117,0,.311.409.312.628.012,2.625-.007,5.251-.015,7.877,0,.912.02,1.824,0,2.735-.007.393.131.542.528.535q1.464-.025,2.928,0c.391.007.526-.124.524-.527-.025-4.817-.029-9.635-.056-14.453,0-.469.117-.675.615-.66.911.027,1.822.022,2.734.005.433-.009.565.177.552.589-.022.715.007,1.432-.006,2.148-.007.425.151.6.6.657a9.239,9.239,0,0,0,4.963-.658c.934-.4,1.864-.8,2.871-1.237.052.679.135,1.354.148,2.03A13.372,13.372,0,0,0,84.078,36.644c5.221.985,9.56-.77,13-4.789a18.59,18.59,0,0,0,1.3-1.708c.249-.372.4-.352.679-.04a28.4,28.4,0,0,0,2.115,2.3c4.678,4.261,10.139,5.848,16.239,4.071A15.876,15.876,0,0,0,129.065,23.95a15.949,15.949,0,0,0-2.928-13.3c-.127-.174-.246-.355-.382-.552l2.967-2.363a19,19,0,0,1,4.169,9,19.547,19.547,0,0,1-3.087,15.2,20.507,20.507,0,0,1-30.929,3.65,16.092,16.092,0,0,1-7.564,4.467A17.239,17.239,0,0,1,70.043,28.737c-.034-.1-.069-.206-.1-.308-.438-1.356-.434-1.319-1.824-1.179-.987.1-1.986.083-2.979.116-.21.006-.421,0-.718,0,0,.485,0,.934,0,1.383,0,2.1.023,4.209,0,6.315-.007.542.191.656.681.652,2.126-.021,4.253.008,6.378-.021.59-.007.809.152.776.774-.053,1.011-.014,2.027-.014,3.118H68.258v.971c0,3.625-.03,7.249.029,10.872.03,1.863.218,3.723.352,5.584q.363,5.061.747,10.123c.289,3.785.6,7.568.883,11.353.272,3.59.526,7.182.789,10.773.011.146.04.292.08.581l27.4-7.818V89.7l26.97-7.7v47.461h7.754v3.847H0c0-1.163,0-2.307,0-3.451,0-.5.379-.388.656-.39,2.148-.013,4.3-.041,6.444-.005.668.011.889-.194.932-.859.2-3.16.452-6.317.689-9.475q.493-6.553.989-13.107c.1-1.295.17-2.591.263-4.025.869.04,1.726.062,2.581.123,1.328.1,1.35.109,1.248,1.461-.283,3.763-.6,7.524-.878,11.287-.291,3.937-.553,7.876-.828,11.815-.062.884-.128,1.769-.2,2.726M65.791,70.89c-.183-.021-.268-.039-.353-.039-4.512,0-9.025.005-13.537-.013-.487,0-.571.211-.6.618q-.5,7.139-1.014,14.277c-.3,4.044-.633,8.086-.937,12.13-.259,3.46-.491,6.922-.746,10.383q-.413,5.611-.845,11.22c-.237,3.136-.466,6.272-.725,9.406-.037.451.03.6.526.6,6.183-.018,12.365-.011,18.548-.014,1.171,0,2.343-.02,3.514-.014.335,0,.531-.04.493-.461-.1-1.166-.159-2.336-.248-3.5-.457-5.99-.929-11.978-1.376-17.968-.418-5.6-.8-11.2-1.218-16.806-.421-5.644-.866-11.287-1.3-16.93-.072-.948-.124-1.9-.188-2.889M35.97,90.344a1.679,1.679,0,0,0,.288.057c3.1-.006,6.2-.021,9.307-.015.484,0,.5-.279.521-.629.092-1.472.187-2.943.3-4.414q.561-7.462,1.134-14.921c.289-3.806.585-7.612.86-11.419.2-2.724.444-5.449.519-8.177.089-3.274.018-6.552.017-9.829,0-.448,0-.9,0-1.418H44.932c0-1.069.042-2.065-.015-3.056-.036-.622.126-.841.773-.83,2.169.034,4.339.006,6.508.025.46,0,.6-.15.579-.606-.038-.975-.049-1.954-.014-2.928.019-.522-.136-.77-.666-.885-4.706-1.017-9.086-7.247-6.307-13.22.3-.638.641-1.254,1.049-2.045-1.962,0-3.824.005-5.685,0-.423,0-.464.276-.545.584a12.984,12.984,0,0,1-3.669,6.4,13.519,13.519,0,0,1-6.82,3.283c-.665.128-.943.351-.926,1.069.057,2.429.049,4.86.065,7.29,0,.338,0,.674,0,1.052h.665c2.17,0,4.339-.012,6.508.011.218,0,.618.207.624.33.048,1.164.029,2.332.029,3.552-1.2,0-2.257.023-3.315-.011-.493-.015-.636.154-.624.634.155,6.047-.231,12.1.418,18.144.4,3.728.571,7.481.851,11.223.241,3.222.495,6.444.736,9.667.275,3.675.543,7.351.818,11.088m85.647-3.28c-2.017.572-3.889,1.1-5.759,1.634L99.247,93.444c-.376.108-.7.162-.7.731q.035,17.346.019,34.693c0,.429.081.607.573.606q10.868-.028,21.736,0c.624,0,.748-.185.748-.768q-.02-20.406-.006-40.812v-.824m-26.9.032c-.473.12-.892.214-1.3.332q-7.775,2.218-15.549,4.441c-1.956.559-3.915,1.114-5.869,1.68-.344.1-.691.157-.631.712.2,1.788.352,3.582.485,5.376.375,5.039.73,10.08,1.095,15.12q.442,6.1.889,12.2c.06.815.123,1.63.185,2.45h20.7ZM36.246,94.328c.073.817.15,1.567.205,2.319.192,2.6.366,5.193.566,7.788.322,4.2.668,8.39.986,12.587q.452,5.969.858,11.942c.029.414.2.507.565.5,1.085-.018,2.17-.021,3.255-.016.315,0,.459-.074.46-.44,0-.693.066-1.386.119-2.077.245-3.2.5-6.4.742-9.6.279-3.72.536-7.442.82-11.162.3-3.934.619-7.865.934-11.84ZM30.283,66.912c-.268-3.913-.531-7.773-.8-11.687h-.791c-3.514,0-7.029.014-10.542-.014-.614-.005-.811.164-.844.787-.129,2.446-.319,4.89-.483,7.335-.079,1.182-.151,2.363-.229,3.579Zm22.3-11.657c-.043.434-.092.841-.122,1.25-.247,3.309-.485,6.619-.744,9.927-.03.389.032.546.464.543q6.347-.033,12.693-.025c.462,0,.6-.11.544-.595-.108-.924-.131-1.86-.2-2.79-.213-2.762-.433-5.523-.652-8.31Zm.124-15.622v11.63a1,1,0,0,0,.193.061q5.564,0,11.129,0c.351,0,.434-.152.429-.478-.011-.629.032-1.257.033-1.887,0-3.1,0-6.2,0-9.33Zm-23.379.045a1.507,1.507,0,0,0-.24-.069c-3.687-.005-7.373,0-11.059-.017-.428,0-.5.195-.5.554q.025,5.3.029,10.606c0,.4.1.586.543.585q5.367-.016,10.734,0c.4,0,.514-.148.512-.539-.016-3.449-.014-6.9-.017-10.346v-.777" transform="translate(0 0)" fill="#161615"/>
        <path id="Trazado_704884" data-name="Trazado 704884" d="M164.066,105.669a12.34,12.34,0,1,1,11.976-14.432c.05.277.1.555.125.835.1,1.159.1,1.159,1.237,1.5a9.9,9.9,0,0,1,7.1,9.428,10.182,10.182,0,0,1-8.428,9.605c-3.826.6-9.091-1.775-10.556-6.534-.135-.439-.338-.542-.747-.461a5.333,5.333,0,0,1-.709.058m7.876-8.578c.138-.894.289-1.723.389-2.558a8.148,8.148,0,0,0-2.883-7.617,8.388,8.388,0,0,0-11.97,1.017,7.992,7.992,0,0,0-1.256,8.814,8.614,8.614,0,0,0,10.678,4.576c.57-.179,1.148-.332,1.811-.523.022.339.029.569.053.8a21.161,21.161,0,0,0,.343,2.9,5.845,5.845,0,0,0,11.327-2.872,5.842,5.842,0,0,0-5.731-4.546c-.876.089-1.769.014-2.762.014" transform="translate(-64.734 -34.576)" fill="#161615"/>
        <path id="Trazado_704885" data-name="Trazado 704885" d="M203.583,26.136V22.181c1.224,0,2.428-.013,3.63.021.112,0,.3.3.309.461.03,1,.037,1.995,0,2.99a.658.658,0,0,1-.446.46c-1.143.04-2.287.021-3.49.021" transform="translate(-86.914 -9.469)" fill="#161615"/>
        <g id="Grupo_999377" data-name="Grupo 999377" transform="translate(47.028 70.839)" style="isolation: isolate">
          <g id="Grupo_999376" data-name="Grupo 999376">
            <g id="Grupo_999375" data-name="Grupo 999375" clip-path="url(#clip-path-2)">
              <path id="Trazado_704886" data-name="Trazado 704886" d="M100.825,123.663c.064.991.116,1.941.188,2.89.43,5.643.876,11.286,1.3,16.929.418,5.6.8,11.205,1.219,16.806.447,5.99.919,11.978,1.376,17.968.089,1.168.146,2.338.248,3.5.037.421-.158.462-.493.461-1.171-.006-2.343.014-3.514.014-6.183,0-12.365,0-18.548.014-.5,0-.563-.152-.526-.6.258-3.134.488-6.27.725-9.406q.425-5.61.845-11.22c.254-3.461.487-6.923.746-10.382.3-4.044.637-8.086.937-12.13q.528-7.137,1.014-14.277c.029-.406.113-.62.6-.618,4.512.018,9.025.011,13.537.013.085,0,.17.018.353.038" transform="translate(-82.061 -123.611)" fill="#97bee7"/>
            </g>
          </g>
        </g>
        <g id="Grupo_999380" data-name="Grupo 999380" transform="translate(11.5 71.536)" style="isolation: isolate">
          <g id="Grupo_999379" data-name="Grupo 999379">
            <g id="Grupo_999378" data-name="Grupo 999378" clip-path="url(#clip-path-2)">
              <path id="Trazado_704887" data-name="Trazado 704887" d="M38.832,124.878c.064.991.116,1.941.188,2.89.43,5.643.876,11.286,1.3,16.93.418,5.6.8,11.2,1.219,16.806.447,5.99.919,11.979,1.376,17.968.089,1.168.146,2.338.248,3.5.037.421-.158.462-.493.46-1.171-.006-2.343.014-3.514.014-6.183,0-12.365,0-18.548.014-.5,0-.563-.152-.526-.6.258-3.134.488-6.27.725-9.405q.425-5.61.845-11.22c.254-3.461.487-6.923.746-10.383.3-4.044.637-8.086.937-12.13q.528-7.137,1.014-14.277c.029-.406.113-.62.6-.618,4.512.018,9.025.011,13.537.013.085,0,.17.018.353.038" transform="translate(-20.068 -124.827)" fill="#97bee7"/>
            </g>
          </g>
        </g>
        <path id="Trazado_704888" data-name="Trazado 704888" d="M195.03,151.923v.824q0,20.407.006,40.813c0,.583-.124.77-.748.768q-10.868-.032-21.736,0c-.492,0-.573-.177-.573-.606q.007-17.346-.02-34.692c0-.569.324-.624.7-.731q8.306-2.373,16.611-4.746c1.87-.534,3.742-1.062,5.759-1.634M179.443,164.9c-.013.249-.032.44-.032.63q0,11.227,0,22.453c0,.651-.026,1.3.017,1.951.01.162.239.437.374.442,1.142.036,2.285.02,3.447.02V164.9Zm7.811,0c-.013.251-.031.442-.031.632q0,11.227,0,22.453c0,.651-.026,1.3.017,1.951.011.161.24.436.376.44,1.142.036,2.285.02,3.445.02V164.9Z" transform="translate(-73.413 -64.859)" fill="#97bee7"/>
        <path id="Trazado_704889" data-name="Trazado 704889" d="M147.876,151.979V194.29h-20.7c-.062-.821-.125-1.636-.185-2.451q-.445-6.1-.889-12.2c-.365-5.04-.72-10.08-1.095-15.12-.134-1.794-.289-3.588-.485-5.376-.061-.555.287-.612.631-.712,1.954-.566,3.912-1.121,5.869-1.68q7.774-2.221,15.549-4.442c.412-.117.831-.212,1.3-.332M132.336,164.9v25.522c1.077,0,2.094-.032,3.108.013.568.025.683-.193.683-.713,0-6.938.021-13.876.029-20.814,0-1.17-.035-2.341-.045-3.511,0-.289-.023-.506-.407-.5-1.1.014-2.2.005-3.367.005m7.809.036v25.486c1.1,0,2.133-.023,3.169.01.5.016.624-.166.624-.64q0-10.764.031-21.528c0-1.1,0-2.2,0-3.328Z" transform="translate(-53.158 -64.883)" fill="#97bee7"/>
        <g id="Grupo_999383" data-name="Grupo 999383" transform="translate(36.246 94.329)" style="isolation: isolate">
          <g id="Grupo_999382" data-name="Grupo 999382">
            <g id="Grupo_999381" data-name="Grupo 999381" clip-path="url(#clip-path-4)">
              <path id="Trazado_704890" data-name="Trazado 704890" d="M63.248,164.6h9.51c-.314,3.974-.634,7.906-.934,11.84-.284,3.72-.541,7.441-.82,11.161-.24,3.2-.5,6.4-.742,9.6-.053.692-.116,1.385-.119,2.077,0,.366-.145.441-.46.44-1.085,0-2.17,0-3.255.016-.366.006-.536-.087-.565-.5q-.409-5.973-.858-11.942c-.318-4.2-.664-8.39-.986-12.585-.2-2.6-.374-5.193-.566-7.789-.056-.752-.132-1.5-.205-2.319" transform="translate(-63.248 -164.6)" fill="#97bee7"/>
            </g>
          </g>
        </g>
        <path id="Trazado_704891" data-name="Trazado 704891" d="M42.646,108.041H28.959c.078-1.217.15-2.4.229-3.579.164-2.445.354-4.889.483-7.336.033-.623.23-.792.844-.787,3.514.029,7.028.014,10.542.014h.791c.267,3.915.531,7.775.8,11.688" transform="translate(-12.363 -41.129)" fill="#db0017"/>
        <path id="Trazado_704892" data-name="Trazado 704892" d="M91.1,96.416h11.98c.219,2.787.439,5.549.652,8.311.072.93.095,1.865.2,2.79.057.485-.082.595-.544.594q-6.347-.009-12.693.025c-.432,0-.494-.155-.464-.543.259-3.308.5-6.618.744-9.927.03-.409.079-.816.122-1.25" transform="translate(-38.522 -41.162)" fill="#db0017"/>
        <path id="Trazado_704893" data-name="Trazado 704893" d="M91.971,69.157h11.785c0,3.132,0,6.231,0,9.33,0,.629-.044,1.258-.033,1.887.006.326-.077.479-.429.478q-5.565-.009-11.13,0a.972.972,0,0,1-.192-.061Zm7.816,7.76c0-1.205.016-2.35-.021-3.493,0-.133-.3-.361-.464-.367-.974-.033-1.95,0-2.926-.018-.408-.007-.463.2-.448.53.026.563.041,1.126.049,1.689s0,1.1,0,1.658Z" transform="translate(-39.264 -29.524)" fill="#97bee7"/>
        <path id="Trazado_704894" data-name="Trazado 704894" d="M42.383,69.172c0,.265,0,.521,0,.777,0,3.448,0,6.9.016,10.345,0,.391-.111.54-.512.539q-5.367-.015-10.734,0c-.442,0-.543-.181-.543-.585q0-5.3-.029-10.606c0-.359.073-.556.5-.554,3.686.015,7.373.013,11.059.017a1.455,1.455,0,0,1,.241.069m-7.841,7.672h3.885c0-1.163.019-2.267-.021-3.368a.649.649,0,0,0-.454-.439c-.973-.042-1.95-.04-2.924-.006-.166.006-.46.232-.465.364-.037,1.143-.021,2.287-.021,3.449" transform="translate(-13.056 -29.494)" fill="#97bee7"/>
        <path id="Trazado_704895" data-name="Trazado 704895" d="M174.775,99.985c.994,0,1.886.075,2.762-.014a5.842,5.842,0,0,1,5.731,4.546,5.845,5.845,0,0,1-11.328,2.872,21.158,21.158,0,0,1-.343-2.9c-.025-.229-.032-.459-.053-.8-.663.19-1.241.344-1.811.523a8.614,8.614,0,0,1-10.678-4.576,7.992,7.992,0,0,1,1.256-8.814,8.388,8.388,0,0,1,11.97-1.017,8.148,8.148,0,0,1,2.883,7.617c-.1.835-.251,1.664-.389,2.558" transform="translate(-67.567 -37.47)" fill="#4e4e4e"/>
        <path id="Trazado_704896" data-name="Trazado 704896" d="M184.989,174.567H188.8v25.5c-1.162,0-2.306.015-3.447-.02-.135,0-.364-.28-.375-.442-.043-.648-.016-1.3-.017-1.951q0-11.227,0-22.453c0-.19.018-.381.032-.63" transform="translate(-78.959 -74.526)" fill="#161615"/>
        <path id="Trazado_704897" data-name="Trazado 704897" d="M198.618,174.566h3.808v25.5c-1.16,0-2.3.015-3.445-.02-.136,0-.365-.279-.376-.44-.043-.648-.017-1.3-.017-1.951q0-11.227,0-22.453c0-.19.018-.381.031-.632" transform="translate(-84.778 -74.526)" fill="#161615"/>
        <path id="Trazado_704898" data-name="Trazado 704898" d="M138.161,174.521c1.163,0,2.265.01,3.367-.005.384-.005.405.212.407.5.01,1.17.046,2.341.045,3.512-.009,6.938-.03,13.875-.029,20.813,0,.521-.115.738-.684.713-1.014-.044-2.03-.013-3.107-.013Z" transform="translate(-58.984 -74.504)" fill="#161615"/>
        <path id="Trazado_704899" data-name="Trazado 704899" d="M151.787,174.588h3.824c0,1.131,0,2.23,0,3.328q-.019,10.764-.031,21.528c0,.474-.128.656-.624.64-1.036-.033-2.073-.01-3.169-.01Z" transform="translate(-64.801 -74.535)" fill="#161615"/>
        <path id="Trazado_704900" data-name="Trazado 704900" d="M102.733,79.808H98.924c0-.557.006-1.108,0-1.658s-.023-1.126-.049-1.689c-.015-.327.04-.538.448-.53.975.018,1.951-.015,2.926.018.166.006.46.234.464.367.037,1.143.021,2.288.021,3.493" transform="translate(-42.21 -32.416)" fill="#161615"/>
        <path id="Trazado_704901" data-name="Trazado 704901" d="M37.49,79.765c0-1.162-.015-2.306.021-3.449,0-.132.3-.358.465-.364.974-.034,1.951-.037,2.924.006a.649.649,0,0,1,.454.439c.04,1.1.021,2.205.021,3.368Z" transform="translate(-16.004 -32.414)" fill="#161615"/>
      </g>
    </g>
  </g>
</svg>
