<svg xmlns="http://www.w3.org/2000/svg" xmlns:xlink="http://www.w3.org/1999/xlink" width="194" height="194" viewBox="0 0 194 194">
  <defs>
    <filter id="Elipse_5144" x="0" y="0" width="194" height="194" filterUnits="userSpaceOnUse">
      <feOffset dy="3" input="SourceAlpha"/>
      <feGaussianBlur stdDeviation="3" result="blur"/>
      <feFlood flood-opacity="0.161"/>
      <feComposite operator="in" in2="blur"/>
      <feComposite in="SourceGraphic"/>
    </filter>
    <clipPath id="clip-path">
      <rect id="Rectángulo_346012" data-name="Rectángulo 346012" width="105" height="104.961" fill="none"/>
    </clipPath>
  </defs>
  <g id="Grupo_936606" data-name="Grupo 936606" transform="translate(-394 -891)">
    <g transform="matrix(1, 0, 0, 1, 394, 891)" filter="url(#Elipse_5144)">
      <circle id="Elipse_5144-2" data-name="Elipse 5144" cx="88" cy="88" r="88" transform="translate(9 6)" fill="#fff"/>
    </g>
    <g id="Grupo_999753" data-name="Grupo 999753" transform="translate(438.5 949)">
      <path id="Trazado_706932" data-name="Trazado 706932" d="M.036,170.1v28.186h103.25V170.1l-24.141-7.133L52.26,169.549l-24.69-7.133Z" transform="translate(-0.021 -95.582)" fill="#e5dbb7"/>
      <g id="Grupo_999752" data-name="Grupo 999752">
        <g id="Grupo_999751" data-name="Grupo 999751" clip-path="url(#clip-path)">
          <path id="Trazado_706933" data-name="Trazado 706933" d="M98.9,36.878c-.151.89-.291,1.692-.423,2.495a2.234,2.234,0,0,1-2.283,2.11,2.059,2.059,0,0,1-2-2.061,23.714,23.714,0,0,1,.568-3.892,1.859,1.859,0,0,0-.963-2.415,28.13,28.13,0,0,1-2.939-2.14c-.291-.221-.467-.258-.76.043-1.492,1.529-3.018,3.025-4.524,4.54a.687.687,0,0,0-.21.426c.038,3.928-.2,7.865.322,11.778a37.853,37.853,0,0,0,5.023,14.4,40.194,40.194,0,0,0,6.979,8.615,2.26,2.26,0,0,0,1.507.646l3.582.2a2.245,2.245,0,0,1,2.161,1.653,2.137,2.137,0,0,1-1.956,2.681,19.5,19.5,0,0,1-3.778-.2c-1.7-.262-3.368-.7-5.055-1.044a.688.688,0,0,0-.566.143c-1.568,1.918-3.114,3.854-4.664,5.787a.641.641,0,0,0-.053.137c.779.9,1.582,1.8,2.365,2.724.884,1.042,1.77,2.085,2.615,3.158a.614.614,0,0,0,.939.168c.7-.385,1.432-.722,2.156-1.066A2.134,2.134,0,1,1,98.9,89.559c-1.1.585-2.244,1.083-3.352,1.651a2.786,2.786,0,0,0-.875.679q-3.413,4.194-6.791,8.416a1.63,1.63,0,0,0-.122.258c.2.02.358.049.514.049,4.786-.013,9.572-.036,14.358-.039a2.2,2.2,0,1,1,.084,4.385c-.136.007-.273,0-.41,0q-49.72,0-99.441-.007a4.732,4.732,0,0,1-1.311-.168A2.144,2.144,0,0,1,.03,102.7a2.257,2.257,0,0,1,1.79-2.048,5.413,5.413,0,0,1,.968-.086c5.06,0,10.12.005,15.18-.012a1.168,1.168,0,0,0,.783-.34c3.142-3.564,6.261-7.148,9.4-10.718.255-.29.238-.456-.044-.707-1.546-1.373-3.069-2.771-4.621-4.137a1.142,1.142,0,0,0-.7-.2c-2.7-.014-5.4-.009-8.1-.008a2.4,2.4,0,0,1-1.922-.8,2.151,2.151,0,0,1,1.278-3.5A5.075,5.075,0,0,1,15,80.066q3.513-.007,7.026.007c.316,0,.482-.067.578-.411.433-1.561.9-3.113,1.365-4.666a.531.531,0,0,0-.18-.667q-1.868-1.48-3.706-3a.738.738,0,0,0-.881-.125c-1.879.853-3.758,1.7-5.649,2.531A27.971,27.971,0,0,1,2.492,76a2.226,2.226,0,0,1-2.075-.985,2.184,2.184,0,0,1,1.825-3.391c1.193-.065,2.394-.063,3.58-.192a21.177,21.177,0,0,0,7.54-2.329A30.362,30.362,0,0,1,21.9,66.039a32.332,32.332,0,0,1,7.454-.416,29.172,29.172,0,0,1,12.289,3.562,21.2,21.2,0,0,0,9.9,2.426c1.57.008,3.141-.121,4.71-.194a2.132,2.132,0,0,0,1.407-.627A38.239,38.239,0,0,0,69.195,50.72a42.859,42.859,0,0,0,.854-8.088.756.756,0,0,0-.225-.482c-1.381-1.4-2.776-2.784-4.161-4.178a.4.4,0,0,0-.609-.053c-1.427.969-2.861,1.928-4.311,2.864a.632.632,0,0,0-.3.725q.341,2.434.663,4.872a15.32,15.32,0,0,1,.136,1.581,2.168,2.168,0,0,1-1.8,2.223,2.062,2.062,0,0,1-2.4-1.658c-.235-1.2-.344-2.432-.507-3.65-.045-.335-.087-.67-.142-1.093-.238.127-.417.205-.579.311-.687.447-1.354.928-2.056,1.35a2.112,2.112,0,0,1-3.012-.564,2.091,2.091,0,0,1,.673-2.994c2.375-1.64,4.775-3.244,7.169-4.857,1.187-.8,2.384-1.585,3.631-2.413-.153-.18-.28-.353-.43-.5-1.335-1.348-2.667-2.7-4.015-4.034a2.683,2.683,0,0,1-.844-2.013c.011-2.786-.011-5.573.012-8.358a2.075,2.075,0,0,1,2.313-2.213,3.494,3.494,0,0,1,1.462.667c2.227,1.555,4.427,3.148,6.638,4.727.859.613,1.721,1.222,2.66,1.888a4.242,4.242,0,0,0,.053-.44c0-1.709-.014-3.418.009-5.127,0-.385-.245-.45-.486-.554q-3.406-1.473-6.817-2.936c-2.226-.957-4.461-1.894-6.675-2.876a2.129,2.129,0,0,1-1.073-3.107,2.163,2.163,0,0,1,2.771-.854c1.352.569,2.688,1.177,4.031,1.767.153.067.309.127.577.236-.107-.458-.184-.814-.276-1.167-.237-.907-.509-1.807-.716-2.721A2.108,2.108,0,0,1,62.95,4.42a2,2,0,0,1,2.527,1.417c.548,1.793,1.007,3.614,1.5,5.423a1.5,1.5,0,0,1,.079.3,2.246,2.246,0,0,0,1.926,2.163,10.01,10.01,0,0,1,1.058.423c0-.345,0-.624,0-.9,0-2.1.027-4.2.005-6.307A2.493,2.493,0,0,1,71.8,4.347C75.217,3.006,78.629,1.658,82.016.252c2.12-.881,3.371.706,3.356,2.339-.048,4.991-.018,9.983-.018,14.974v.668c.877-.629,1.662-1.19,2.446-1.754q3.578-2.574,7.156-5.147a2.081,2.081,0,0,1,2.271-.221,2.189,2.189,0,0,1,1.24,2.041c.034,2.871.023,5.743,0,8.615a2.492,2.492,0,0,1-.855,1.752q-1.968,1.947-3.928,3.9a1.391,1.391,0,0,0-.114.17c.179.152.349.313.536.451q4.748,3.492,9.5,6.979a2.861,2.861,0,0,1,1.383,1.878,2.126,2.126,0,0,1-2.695,2.285,8.34,8.34,0,0,1-1.6-.992c-.587-.4-1.15-.841-1.8-1.318M25.315,70.051c.765.614,1.434,1.157,2.109,1.694,1.29,1.026,1.49,1.618,1.036,3.2-.571,1.983-1.154,3.963-1.735,5.944-.108.369-.184.679.183,1.006,1.707,1.526,3.374,3.1,5.084,4.621a3.164,3.164,0,0,0,1.189.65c1.835.53,3.693.98,5.526,1.518a2.077,2.077,0,0,1,1.537,2.567,2.1,2.1,0,0,1-2.66,1.537c-1.641-.394-3.27-.843-4.9-1.295a.7.7,0,0,0-.832.273q-2.949,3.447-5.927,6.87c-.53.613-1.061,1.225-1.7,1.961.346,0,.542,0,.739,0,.889-.009,1.777-.027,2.666-.027q26.949,0,53.9.009a1.171,1.171,0,0,0,1.025-.5c1.765-2.22,3.556-4.419,5.342-6.622.988-1.219,1.983-2.432,2.987-3.662-.065-.086-.113-.153-.166-.216-1.558-1.836-3.165-3.635-4.657-5.524a4.405,4.405,0,0,0-2.878-1.781c-1.628-.275-3.229-.716-4.836-1.108a2.083,2.083,0,0,1-1.711-1.76A2.178,2.178,0,0,1,79.484,77c1.776.421,3.554.832,5.327,1.261a.6.6,0,0,0,.7-.251c1.054-1.323,2.127-2.631,3.192-3.944l.948-1.167A22.8,22.8,0,0,0,84.678,70.8a26.438,26.438,0,0,0-7.452-.858A22.785,22.785,0,0,0,66.294,72.6a28.322,28.322,0,0,1-7.975,2.832c-.834.158-1.676.271-2.571.413.077.224.127.4.2.567.53,1.276,1.082,2.543,1.593,3.827a17.761,17.761,0,0,0,2.313,4.487c.713.916,1.343,1.9,2.011,2.846.153.218.313.431.479.66.868-.9,1.7-1.75,2.527-2.611s1.609-1.725,2.444-2.558a2.147,2.147,0,1,1,3.1,2.96c-1.569,1.691-3.154,3.368-4.732,5.052-.112.119-.218.243-.339.379.149.126.25.216.356.3,1.134.907,2.277,1.8,3.4,2.723a2.158,2.158,0,1,1-2.583,3.457c-1.162-.9-2.286-1.848-3.464-2.726a16.872,16.872,0,0,1-4.42-4.787c-.328-.539-.709-1.046-1.075-1.561-.342-.483-.694-.957-1.051-1.448a2.543,2.543,0,0,0-.29.2c-.953.907-1.9,1.825-2.858,2.724a16.194,16.194,0,0,1-1.995,1.756,2.055,2.055,0,0,1-3.153-1.7,2.589,2.589,0,0,1,1.056-2.062c1.517-1.456,3.022-2.924,4.555-4.362a.775.775,0,0,0,.2-1.024c-.953-2.209-1.871-4.432-2.826-6.64a.749.749,0,0,0-.508-.361c-1.318-.184-2.653-.265-3.96-.5a30.412,30.412,0,0,1-8.474-3.1,23.355,23.355,0,0,0-12.938-2.278m63.911-2.19c.008-.072.026-.112.013-.136a2.045,2.045,0,0,0-.16-.259A40.878,40.878,0,0,1,84.9,60.314,41.9,41.9,0,0,1,81.068,44.8c-.152-2.932-.044-5.877-.116-8.815a4.129,4.129,0,0,1,1.372-3.259c3.773-3.695,7.482-7.455,11.233-11.173a1.533,1.533,0,0,0,.558-1.434,9.787,9.787,0,0,1-.024-1.434c0-.414,0-.829,0-1.349-.273.171-.434.26-.584.367q-2.488,1.762-4.973,3.528c-1.393.988-2.783,1.981-4.183,2.958a2.119,2.119,0,0,1-3.278-1.351,5.172,5.172,0,0,1-.1-1.069q.007-8,.025-16a3.176,3.176,0,0,0-.052-.4,2.157,2.157,0,0,0-.246.06c-2,.795-3.99,1.6-5.991,2.38-.342.134-.335.373-.335.655q.022,9.664.037,19.329c0,.444.01.891-.031,1.332a2.083,2.083,0,0,1-1.206,1.778,2.349,2.349,0,0,1-2.58-.38q-4.472-3.216-8.959-6.413c-.1-.072-.215-.123-.374-.213,0,1.035.02,1.99-.009,2.943a1.357,1.357,0,0,0,.449,1.082c3.883,3.876,7.746,7.77,11.638,11.637a3.337,3.337,0,0,1,1.06,2.5,45.093,45.093,0,0,1-2.865,15.889,40.532,40.532,0,0,1-5.1,9.369,5.8,5.8,0,0,0-.319.6,29.479,29.479,0,0,1,23.114-.065" transform="translate(-0.015 0)" fill="#161615"/>
          <path id="Trazado_706934" data-name="Trazado 706934" d="M36.1,7.05a6.231,6.231,0,0,0,5.574,6.566,2.036,2.036,0,0,1,2,2.568,3.256,3.256,0,0,1-.781,1.292,6.165,6.165,0,0,0-1.449,6.4,5.856,5.856,0,0,0,1.513,2.4,2.335,2.335,0,0,1,.759,1.627,2.154,2.154,0,0,1-1.565,2.1c-.493.132-1,.2-1.5.314A6.158,6.158,0,0,0,36.1,35.989c0,.477.032.955.067,1.432a2.168,2.168,0,0,1-.9,2.058,1.992,1.992,0,0,1-2.22.181,7.093,7.093,0,0,0-3.925-.947,6.019,6.019,0,0,0-5,3.185c-.119.207-.212.428-.325.639a2.109,2.109,0,0,1-3.517.39,4.191,4.191,0,0,1-.472-.728,6.222,6.222,0,0,0-8.561-2.776c-.262.125-.526.245-.79.365a2.1,2.1,0,0,1-2.9-1.948,10.573,10.573,0,0,0-.058-3,6.018,6.018,0,0,0-5.244-4.713A2.442,2.442,0,0,1,.372,29.055,2.01,2.01,0,0,1,.759,26.32,5.906,5.906,0,0,0,2.491,23.3,6.1,6.1,0,0,0,.945,17.564a2.469,2.469,0,0,1-.9-1.932,2.153,2.153,0,0,1,2.039-2.015,6.291,6.291,0,0,0,4.221-2.273A5.988,5.988,0,0,0,7.659,6.805a4.579,4.579,0,0,1,.019-1.371,2.1,2.1,0,0,1,3.086-1.4,6.618,6.618,0,0,0,4.477.888A6.135,6.135,0,0,0,19.4,2.188c.21-.31.378-.649.577-.967a2.175,2.175,0,0,1,3.9.105,6.951,6.951,0,0,0,2.381,2.689,5.945,5.945,0,0,0,5.907.413c.375-.163.739-.353,1.118-.507a2.056,2.056,0,0,1,2.891,1.99c0,.358-.044.716-.072,1.139m1.854,9.99a10.835,10.835,0,0,1-6.1-7.909,11.161,11.161,0,0,1-9.973-3.008c-2.876,2.529-6.113,3.769-10,2.988a10.306,10.306,0,0,1-6.09,7.915,10.472,10.472,0,0,1,.019,9.636,10.843,10.843,0,0,1,6.114,7.918.587.587,0,0,0,.144.027,10.25,10.25,0,0,1,9.4,2.715c.344.332.516.308.857-.011a10.434,10.434,0,0,1,8.508-2.85c.322.031.731.216.937.082s.226-.579.307-.893a10.463,10.463,0,0,1,4.843-6.412c.326-.2.67-.383,1.027-.586a10.213,10.213,0,0,1,.011-9.613" transform="translate(0 -0.037)" fill="#161615"/>
          <path id="Trazado_706935" data-name="Trazado 706935" d="M176.788,75.547a29.479,29.479,0,0,0-23.114.065,5.8,5.8,0,0,1,.319-.6,40.531,40.531,0,0,0,5.1-9.369,45.094,45.094,0,0,0,2.865-15.889,3.337,3.337,0,0,0-1.06-2.5c-3.892-3.866-7.755-7.761-11.638-11.637a1.357,1.357,0,0,1-.449-1.082c.029-.953.009-1.908.009-2.943.159.09.274.141.374.213q4.482,3.2,8.959,6.413a2.349,2.349,0,0,0,2.58.38,2.083,2.083,0,0,0,1.206-1.778c.041-.441.032-.888.031-1.332q-.015-9.664-.037-19.329c0-.282-.008-.521.335-.655,2-.783,3.995-1.586,5.991-2.38a2.158,2.158,0,0,1,.246-.06,3.178,3.178,0,0,1,.052.4q-.012,8-.025,16a5.171,5.171,0,0,0,.1,1.069,2.119,2.119,0,0,0,3.278,1.351c1.4-.977,2.79-1.97,4.183-2.958q2.488-1.763,4.973-3.528c.15-.106.311-.2.584-.367,0,.52,0,.935,0,1.349a9.788,9.788,0,0,0,.024,1.434,1.533,1.533,0,0,1-.558,1.434c-3.751,3.717-7.46,7.478-11.233,11.173a4.129,4.129,0,0,0-1.372,3.259c.073,2.938-.036,5.883.116,8.815A41.9,41.9,0,0,0,172.466,68a40.879,40.879,0,0,0,4.175,7.151,2.044,2.044,0,0,1,.16.259c.013.024,0,.064-.013.136" transform="translate(-87.577 -7.686)" fill="#452c10"/>
          <path id="Trazado_706936" data-name="Trazado 706936" d="M46.241,25.709a10.211,10.211,0,0,0-.011,9.613c-.358.2-.7.381-1.028.586a10.458,10.458,0,0,0-4.842,6.412c-.08.314-.1.756-.307.892s-.616-.051-.938-.082a10.435,10.435,0,0,0-8.508,2.85c-.341.319-.513.343-.857.011a10.252,10.252,0,0,0-9.4-2.715.568.568,0,0,1-.144-.027A10.845,10.845,0,0,0,14.1,35.331a10.473,10.473,0,0,0-.019-9.636,10.306,10.306,0,0,0,6.089-7.916c3.884.782,7.121-.458,10-2.988A11.161,11.161,0,0,0,40.137,17.8a10.837,10.837,0,0,0,6.1,7.909m-16.019-6.1A10.806,10.806,0,0,0,19.261,30.14,10.925,10.925,0,0,0,29.924,41.432,10.792,10.792,0,0,0,41.084,30.7,10.9,10.9,0,0,0,30.222,19.61" transform="translate(-8.285 -8.705)" fill="#ffd743"/>
          <path id="Trazado_706937" data-name="Trazado 706937" d="M37.631,26.5A10.9,10.9,0,0,1,48.493,37.589a10.792,10.792,0,0,1-11.16,10.734A10.926,10.926,0,0,1,26.67,37.03,10.806,10.806,0,0,1,37.631,26.5m-.07,17.482a6.579,6.579,0,0,0,6.612-6.43,6.6,6.6,0,1,0-6.612,6.43" transform="translate(-15.694 -15.595)" fill="#161615"/>
          <path id="Trazado_706938" data-name="Trazado 706938" d="M43.714,50.147a6.67,6.67,0,0,1-6.588-6.685,6.6,6.6,0,1,1,13.2.255,6.579,6.579,0,0,1-6.612,6.43" transform="translate(-21.847 -21.76)" fill="#ffc300"/>
        </g>
      </g>
    </g>
  </g>
</svg>
