<svg xmlns="http://www.w3.org/2000/svg" xmlns:xlink="http://www.w3.org/1999/xlink" width="304.951" height="201.001" viewBox="0 0 304.951 201.001">
  <defs>
    <clipPath id="clip-path">
      <path id="Elipse_4916" data-name="Elipse 4916" d="M108.471,0a107.893,107.893,0,0,1,42.142,8.5,105.514,105.514,0,0,1,33.868,22.908,101.019,101.019,0,0,1,21.964,33.277,97.313,97.313,0,0,1-2.384,78.142,100.037,100.037,0,0,1-22.706,30.607,104.294,104.294,0,0,1-32.484,20.231,108.541,108.541,0,0,1-78.467,0,105.978,105.978,0,0,1-32.728-20.231A101.765,101.765,0,0,1,14.6,142.824a97.547,97.547,0,0,1-9.837-38.491,96.526,96.526,0,0,1,6.512-39.651A99.381,99.381,0,0,1,32.84,31.405,103.778,103.778,0,0,1,66.432,8.5,107.145,107.145,0,0,1,108.471,0Z" transform="translate(-0.204 -0.195)" fill="#fff" stroke="#707070" stroke-width="1"/>
    </clipPath>
    <clipPath id="clip-path-2">
      <rect id="Rectángulo_339744" data-name="Rectángulo 339744" width="10.373" height="13.015" fill="none"/>
    </clipPath>
    <clipPath id="clip-path-3">
      <rect id="Rectángulo_339743" data-name="Rectángulo 339743" width="10.368" height="13.013" fill="none"/>
    </clipPath>
    <clipPath id="clip-path-4">
      <rect id="Rectángulo_339746" data-name="Rectángulo 339746" width="24.646" height="14.644" fill="none"/>
    </clipPath>
    <clipPath id="clip-path-5">
      <rect id="Rectángulo_339745" data-name="Rectángulo 339745" width="24.642" height="14.639" fill="none"/>
    </clipPath>
    <clipPath id="clip-path-6">
      <rect id="Rectángulo_339748" data-name="Rectángulo 339748" width="19.731" height="13.096" fill="none"/>
    </clipPath>
    <clipPath id="clip-path-7">
      <rect id="Rectángulo_339747" data-name="Rectángulo 339747" width="19.731" height="13.094" fill="none"/>
    </clipPath>
    <clipPath id="clip-path-8">
      <rect id="Rectángulo_339750" data-name="Rectángulo 339750" width="30.845" height="10.764" fill="none"/>
    </clipPath>
    <clipPath id="clip-path-9">
      <rect id="Rectángulo_339749" data-name="Rectángulo 339749" width="30.839" height="10.764" fill="none"/>
    </clipPath>
    <clipPath id="clip-path-10">
      <rect id="Rectángulo_339754" data-name="Rectángulo 339754" width="48.08" height="10.855" fill="none"/>
    </clipPath>
    <clipPath id="clip-path-11">
      <rect id="Rectángulo_339753" data-name="Rectángulo 339753" width="48.071" height="10.855" fill="none"/>
    </clipPath>
    <clipPath id="clip-path-12">
      <rect id="Rectángulo_339758" data-name="Rectángulo 339758" width="32.27" height="39.298" fill="none"/>
    </clipPath>
    <clipPath id="clip-path-13">
      <rect id="Rectángulo_339757" data-name="Rectángulo 339757" width="32.266" height="39.291" fill="none"/>
    </clipPath>
  </defs>
  <g id="Grupo_973936" data-name="Grupo 973936" transform="translate(0.204 0.188)">
    <path id="Unión_12" data-name="Unión 12" d="M25.713,54.957h-.644A25.069,25.069,0,0,1,0,29.889v-4.82A25.068,25.068,0,0,1,25.068,0h97.384a25.068,25.068,0,0,1,25.069,25.069v4.82a25.069,25.069,0,0,1-25.069,25.069H43.774L25.713,77.4Z" transform="translate(156.189 0)" fill="#cfb7ff"/>
    <text id="_Sabias_que_" data-name="¿Sabias que?" transform="translate(170.747 16.39)" fill="#12263f" font-size="20" font-family="Roboto-Black, Roboto" font-weight="800"><tspan x="0" y="19">¿Sabias que?</tspan></text>
    <g id="Enmascarar_grupo_78" data-name="Enmascarar grupo 78" transform="translate(0 0.007)" clip-path="url(#clip-path)">
      <g id="Grupo_973915" data-name="Grupo 973915" transform="translate(14.573 47.581)">
        <g id="Grupo_973914" data-name="Grupo 973914" transform="translate(0 0)">
          <g id="Grupo_973922" data-name="Grupo 973922">
            <g id="Grupo_973912" data-name="Grupo 973912">
              <g id="Grupo_973917" data-name="Grupo 973917">
                <path id="Trazado_704803" data-name="Trazado 704803" d="M67.495,69.16c-3.583-6.825-9.355-21.585-9.355-21.585l.125-19.81c-.144.014,2.67.855,3.532,1.055,5.58,2.063,7.117,3.043,9.513,7.967,1.9,3.909,8.3,21.736,10.577,27.768L95.512,54.87c3.432-2.89,4.234-7.017,6.333-9.581s4.47-3.27,6.844-5.453,3.267-3.791,4.176-2.055-1.678,4.943-2.121,5.717c-.315.549-1.1.955-1.281,1.573-.3,1.055,1.268.88,1.945.741a16.426,16.426,0,0,0,8.394-6.093c.8-1,3.729-4.908,4.475-1.759.607,2.566-1.5,4.209-1.655,6.572a9.477,9.477,0,0,1-1.01,3.756,25.6,25.6,0,0,0-.621,3.437c-1.094,3.481-3.87,4.677-7.078,5.763-3.129,1.055-6.684,1.87-9.356,3.923C101.319,63.9,93.486,72.332,88.726,77.4c-6.051,6.438-10.037,7.972-13.576,4.157s-6.333-9.872-7.654-12.4" transform="translate(56.335 24.509)" fill="#ef9296"/>
                <path id="Trazado_704804" data-name="Trazado 704804" d="M108.553,34.085c-.746-3.152-3.673.755-4.475,1.759a16.431,16.431,0,0,1-8.4,6.093c-.677.146-2.245.308-1.944-.741.176-.617.966-1.024,1.281-1.573.443-.774,3.033-3.982,2.121-5.717s-1.8-.125-4.176,2.055-4.749,2.883-6.844,5.453-2.9,6.684-6.333,9.58l-.936.665a12.578,12.578,0,0,0,6.269,9.247,47.657,47.657,0,0,1,3.71-3.365c2.663-2.051,6.227-2.865,9.356-3.923,3.215-1.085,5.981-2.287,7.078-5.763a25.571,25.571,0,0,1,.621-3.435,9.514,9.514,0,0,0,1.01-3.756c.155-2.362,2.262-4.007,1.655-6.572" transform="translate(72.056 28.391)" fill="#354952"/>
                <path id="Trazado_704805" data-name="Trazado 704805" d="M81.342,43.2a11.107,11.107,0,0,0,2.232,6.4,11.508,11.508,0,0,0,3.852,2.686l.573-.45s.554.062-.923,1.541-1.819,2.033-2.639,1.912a9.392,9.392,0,0,1-4.732-3.9,11.994,11.994,0,0,1-1.967-5.759c.039-.7,1.055-1.245,1.967-1.907s1.875-1.773,2.387-1.333Z" transform="translate(71.212 35.534)" fill="#8c569b"/>
                <g id="Grupo_973875" data-name="Grupo 973875" transform="translate(148.942 77.819)" opacity="0.2">
                  <g id="Grupo_973874" data-name="Grupo 973874">
                    <g id="Grupo_973873" data-name="Grupo 973873" clip-path="url(#clip-path-2)">
                      <g id="Grupo_973872" data-name="Grupo 973872" transform="translate(-0.001 0)">
                        <g id="Grupo_973871" data-name="Grupo 973871" clip-path="url(#clip-path-3)">
                          <path id="Trazado_704806" data-name="Trazado 704806" d="M81.342,43.2a11.107,11.107,0,0,0,2.232,6.4,11.508,11.508,0,0,0,3.852,2.686l.573-.45s.554.062-.923,1.541-1.819,2.033-2.639,1.912a9.392,9.392,0,0,1-4.732-3.9,11.994,11.994,0,0,1-1.967-5.759c.039-.7,1.055-1.245,1.967-1.907s1.875-1.773,2.387-1.333Z" transform="translate(-77.729 -42.285)" fill="#040405"/>
                        </g>
                      </g>
                    </g>
                  </g>
                </g>
                <path id="Trazado_704807" data-name="Trazado 704807" d="M61.33,27.949a19.815,19.815,0,0,1,8.239,3.7c2.679,2.311,3.9,5.914,5.715,10.855s6.508,16.908,6.508,16.908a23.676,23.676,0,0,0-13.008,10.2L56.382,43.81Z" transform="translate(55 24.649)" fill="#d8d8d8"/>
                <path id="Trazado_704808" data-name="Trazado 704808" d="M74.038,49.274a12.571,12.571,0,0,0-5.559,5.581s-.033-3.981,5.038-6.961Z" transform="translate(64.182 39.789)" fill="#ec797c"/>
                <path id="Trazado_704809" data-name="Trazado 704809" d="M37.862,30.9a19.521,19.521,0,0,0-5.323,7.756c-.528,1.982-1.024,3.636.653,14.633,1.6,10.5,2.737,10.5,3.548,18.5L35.568,91.833c6.283,7.358,35.615,11.1,50.286,1.193,0,0,.635-30.431-.4-42.961-.7-8.515-4.3-17.258-5.643-21.253-3.988-.691-7.822-1.156-7.822-1.156L57.315,26.8Z" transform="translate(36.522 23.779)" fill="#fafafa"/>
                <path id="Trazado_704810" data-name="Trazado 704810" d="M73.93,19.969c1.935-4.422.04-10.289-2.264-13.043-3.332-3.982-8.515-5.7-16.331-5.216-5.944.369-11.786,2.837-12.9,8.936-4.778,1.425-4.232,9.27-3.045,12.73C41.8,30.4,46.542,36.51,46.622,40.1Z" transform="translate(41.481 4.672)" fill="#29373e"/>
                <path id="Trazado_704811" data-name="Trazado 704811" d="M73.952,32.657c-.939,3.39-2.9,5.875-6.037,6.364a26.311,26.311,0,0,1-4.952.028l.123,4.317c6.466,8.231-8.716,9.9-16.232.88l-.447-14.577a3.772,3.772,0,0,1-5.084.12,6.9,6.9,0,0,1-2.146-8.443,3.391,3.391,0,0,1,5.673-.936c.96,1,2.09,2.9,2.894,2.639a2.916,2.916,0,0,0,1.945-1.986,17.71,17.71,0,0,0,1.026-6.41,8.606,8.606,0,0,0,2.454-1.893A7.917,7.917,0,0,0,55.3,7.852C62.075,5.731,69.868,6.73,72.684,8.908c1.622,2.853,1.68,9.5,1.949,13.314a31.387,31.387,0,0,1-.684,10.447" transform="translate(41.455 8.504)" fill="#ef9296"/>
                <path id="Trazado_704812" data-name="Trazado 704812" d="M58.87,29.242c-3.467-.2-10.442-1.814-12.3-3.75A14.3,14.3,0,0,1,43.932,19.6a19.517,19.517,0,0,0,1.715,7.212c1.435,2.206,5.064,3.166,7.267,3.717a54.481,54.481,0,0,0,6.028.915Z" transform="translate(45.55 18.31)" fill="#ec797c"/>
                <path id="Trazado_704813" data-name="Trazado 704813" d="M52.391,14.875a1.407,1.407,0,1,1-1.407-1.456,1.423,1.423,0,0,1,1.407,1.442v.014" transform="translate(49.835 13.62)" fill="#1c262b"/>
                <path id="Trazado_704814" data-name="Trazado 704814" d="M51.409,12.043,48.57,13.96a1.8,1.8,0,0,1,.482-2.44,1.671,1.671,0,0,1,2.317.466l.039.062" transform="translate(48.856 11.967)" fill="#1c262b"/>
                <path id="Trazado_704815" data-name="Trazado 704815" d="M59.238,13.3l-3.114-1.488a1.655,1.655,0,0,1,2.165-.89.851.851,0,0,1,.083.037,1.813,1.813,0,0,1,.865,2.341" transform="translate(54.805 11.625)" fill="#1c262b"/>
                <path id="Trazado_704816" data-name="Trazado 704816" d="M58.513,14.59a1.407,1.407,0,1,1-1.407-1.456,1.423,1.423,0,0,1,1.407,1.442v.014" transform="translate(54.482 13.404)" fill="#1c262b"/>
                <path id="Trazado_704817" data-name="Trazado 704817" d="M53.008,12.531,54.021,22.61l5.407-1.632Z" transform="translate(52.44 12.946)" fill="#ec797c"/>
                <path id="Trazado_704818" data-name="Trazado 704818" d="M51.2,19.6,57,20.88a2.919,2.919,0,0,1-3.374,2.378l-.107-.021A3.112,3.112,0,0,1,51.2,19.6" transform="translate(51.021 18.309)" fill="#a15155"/>
                <path id="Trazado_704819" data-name="Trazado 704819" d="M53.494,22.787a2.786,2.786,0,0,0,.362.04,2.7,2.7,0,0,0-2.7-2.639,3.07,3.07,0,0,0,2.334,2.589" transform="translate(51.037 18.759)" fill="#ec797c"/>
                <path id="Trazado_704820" data-name="Trazado 704820" d="M38.436,20.377a18.424,18.424,0,0,0,1.254,5.157,18.872,18.872,0,0,1,1.275-1.427,31.017,31.017,0,0,1,8.987-6.185h.016A37.592,37.592,0,0,1,74.73,15.2a17.663,17.663,0,0,0-1.407-4.336,18.345,18.345,0,0,0-34.887,9.518" transform="translate(41.313 3.633)" fill="#0b428a"/>
                <path id="Trazado_704821" data-name="Trazado 704821" d="M43.913,2.306c.92-.445,5.543-1.828,5.912-1.935a10.962,10.962,0,0,1,10.2,2.572,18.637,18.637,0,0,1,6.188,9.995L61.3,14.479l-1.569.15c-.579-3.608-5.344-11.4-12.032-11.687a6.3,6.3,0,0,0-.946.012,8.678,8.678,0,0,0-2.588.528,25.192,25.192,0,0,0-2.595,2.079A4.105,4.105,0,0,1,43.916,2.31" transform="translate(43.76 3.45)" fill="#8c569b"/>
                <g id="Grupo_973880" data-name="Grupo 973880" transform="translate(85.33 3.435)" opacity="0.45">
                  <g id="Grupo_973879" data-name="Grupo 973879">
                    <g id="Grupo_973878" data-name="Grupo 973878" clip-path="url(#clip-path-4)">
                      <g id="Grupo_973877" data-name="Grupo 973877" transform="translate(-0.001)">
                        <g id="Grupo_973876" data-name="Grupo 973876" clip-path="url(#clip-path-5)">
                          <path id="Trazado_704822" data-name="Trazado 704822" d="M43.913,2.306c.92-.445,5.543-1.828,5.912-1.935a10.962,10.962,0,0,1,10.2,2.572,18.637,18.637,0,0,1,6.188,9.995L61.3,14.479l-1.569.15c-.579-3.608-5.344-11.4-12.032-11.687a6.3,6.3,0,0,0-.946.012,8.678,8.678,0,0,0-2.588.528,25.192,25.192,0,0,0-2.595,2.079A4.105,4.105,0,0,1,43.916,2.31" transform="translate(-41.569 0.016)" fill="#fff"/>
                        </g>
                      </g>
                    </g>
                  </g>
                </g>
                <path id="Trazado_704823" data-name="Trazado 704823" d="M59.737,13.976C59.053,9.776,52.646-.177,44.173,2.82A25.319,25.319,0,0,0,41.568,4.9a4.138,4.138,0,0,1,2.35-3.247C46.126.6,50.544.069,55.12,3.835A18.6,18.6,0,0,1,61.3,13.827Z" transform="translate(43.756 4.103)" fill="#8c569b"/>
                <g id="Grupo_973885" data-name="Grupo 973885" transform="translate(85.324 4.983)" opacity="0.3">
                  <g id="Grupo_973884" data-name="Grupo 973884">
                    <g id="Grupo_973883" data-name="Grupo 973883" clip-path="url(#clip-path-6)">
                      <g id="Grupo_973882" data-name="Grupo 973882" transform="translate(-0.001)">
                        <g id="Grupo_973881" data-name="Grupo 973881" clip-path="url(#clip-path-7)">
                          <path id="Trazado_704824" data-name="Trazado 704824" d="M59.737,13.976C59.053,9.776,52.646-.177,44.173,2.82A25.319,25.319,0,0,0,41.568,4.9a4.138,4.138,0,0,1,2.35-3.247C46.126.6,50.544.069,55.12,3.835A18.6,18.6,0,0,1,61.3,13.827Z" transform="translate(-41.568 -0.88)" fill="#040405"/>
                        </g>
                      </g>
                    </g>
                  </g>
                </g>
                <path id="Trazado_704825" data-name="Trazado 704825" d="M44.876,13.5a20.555,20.555,0,0,1,8.171-7.258C56.813,4.236,64.531,4.136,68,4.194c6.062.1,7.509,1.39,7.585,2.287.018.211.1,1.193.13,1.407a.865.865,0,0,1-.127.573c-.909,1.376-5.8,3.756-5.8,3.756a37.59,37.59,0,0,0-24.769,2.73Z" transform="translate(46.267 6.61)" fill="#8c569b"/>
                <g id="Grupo_973890" data-name="Grupo 973890" transform="translate(91.143 10.793)" opacity="0.15">
                  <g id="Grupo_973889" data-name="Grupo 973889">
                    <g id="Grupo_973888" data-name="Grupo 973888" clip-path="url(#clip-path-8)">
                      <g id="Grupo_973887" data-name="Grupo 973887" transform="translate(-0.001)">
                        <g id="Grupo_973886" data-name="Grupo 973886" clip-path="url(#clip-path-9)">
                          <path id="Trazado_704826" data-name="Trazado 704826" d="M44.876,13.5a20.555,20.555,0,0,1,8.171-7.258C56.813,4.236,64.531,4.136,68,4.194c6.062.1,7.509,1.39,7.585,2.287.018.211.1,1.193.13,1.407a.865.865,0,0,1-.127.573c-.909,1.376-5.8,3.756-5.8,3.756a37.59,37.59,0,0,0-24.769,2.73Z" transform="translate(-44.876 -4.183)" fill="#040405"/>
                        </g>
                      </g>
                    </g>
                  </g>
                </g>
                <path id="Trazado_704827" data-name="Trazado 704827" d="M44.957,14.329A37.592,37.592,0,0,1,69.719,11.6s4.9-2.38,5.8-3.756c.486-.762.047-2.705-7.451-2.829-3.462-.056-11.18.044-14.952,2.053a20.566,20.566,0,0,0-8.171,7.258" transform="translate(46.323 7.234)" fill="#2e0877"/>
                <path id="Trazado_704829" data-name="Trazado 704829" d="M89.073,44.934a141.75,141.75,0,0,1-37.158,1.817c0,14.728,1.557,31.622-5.5,31.527l-8.426-.2c-.464,22.057-4.2,68.048-4.2,68.048-.332,2.709-4.255,14.231-4.4,24.028-.227,15.376-.554,27.019-.554,27.019s8.589,3.4,14.9,1.055c0,0,8.206-32.679,10.507-42.878,2.741-12.146,8.4-34.595,8.4-34.595l.681,31.965a87.974,87.974,0,0,0-.259,19.409c.758,6.477,3.36,24.509,3.36,24.509A35.316,35.316,0,0,0,81.19,196.2s4.127-38.722,4.466-44.68c.369-6.475,2.417-66.251,2.609-71.827h.014c1.865-28.079.8-34.75.8-34.75" transform="translate(34.099 37.541)" fill="#354952"/>
                <path id="Trazado_704830" data-name="Trazado 704830" d="M44.553,59.831c-1.036-13.348-1.006-24.31-6.014-30.794l6.391-1.342s5.532,12.248,5.532,32.588Z" transform="translate(41.457 24.456)" fill="#354952"/>
                <path id="Trazado_704831" data-name="Trazado 704831" d="M63.312,59.76c0-14.53-3.2-26.991-8.267-32.431L62.35,28.42s6.841,11,6.841,31.341Z" transform="translate(53.985 24.178)" fill="#354952"/>
                <path id="Trazado_704832" data-name="Trazado 704832" d="M46.529,48.192a100.73,100.73,0,0,0,21.606-1.147l.445,9.993-9.851,6.174L46.52,59.225Z" transform="translate(47.515 39.144)" fill="#29373e"/>
                <path id="Trazado_704833" data-name="Trazado 704833" d="M36.127,64.191c5.652,2.348,19.4,3.761,30.431,3.643s16.82-2.769,16.82-2.769L83.2,71.788s-19.576,8.206-47.893-1.437Z" transform="translate(39.005 52.158)" fill="#8c569b"/>
                <g id="Grupo_973900" data-name="Grupo 973900" transform="translate(74.304 116.349)" opacity="0.3">
                  <g id="Grupo_973899" data-name="Grupo 973899">
                    <g id="Grupo_973898" data-name="Grupo 973898" clip-path="url(#clip-path-10)">
                      <g id="Grupo_973897" data-name="Grupo 973897" transform="translate(-0.001 0)">
                        <g id="Grupo_973896" data-name="Grupo 973896" clip-path="url(#clip-path-11)">
                          <path id="Trazado_704834" data-name="Trazado 704834" d="M36.127,64.191c5.652,2.348,19.4,3.761,30.431,3.643s16.82-2.769,16.82-2.769L83.2,71.788s-19.576,8.206-47.893-1.437Z" transform="translate(-35.298 -64.191)" fill="#040405"/>
                        </g>
                      </g>
                    </g>
                  </g>
                </g>
                <path id="Trazado_704835" data-name="Trazado 704835" d="M52.173,27.183l.044,1.407a52.785,52.785,0,0,1,2.45,9.882c1.52,9.159,1.78,21.161,1.78,34.722V110.47s-16.95,1.082-22.34-11.852L36.3,71.5s-3.11-14.014-3.956-22.034-2.357-13.633,5.143-19.754Z" transform="translate(36.203 24.068)" fill="#0b428a"/>
                <path id="Trazado_704836" data-name="Trazado 704836" d="M33.39,48.074c.848,4.294,1.583,7.578,1.583,7.578l-.083,1.066a36.084,36.084,0,0,0,20.229,5.293V54.433a35.16,35.16,0,0,1-21.714-6.359" transform="translate(37.548 39.925)" fill="#ececec"/>
                <path id="Trazado_704837" data-name="Trazado 704837" d="M54.939,70.26V62.684A35.789,35.789,0,0,1,34.166,57.02L33.614,64.2A35.424,35.424,0,0,0,54.939,70.26" transform="translate(37.719 46.715)" fill="#ececec"/>
                <path id="Trazado_704838" data-name="Trazado 704838" d="M52.648,27.1A21.1,21.1,0,0,1,62.2,39.919c2.287,8.98,2.623,16.06,2.936,27.591s-.155,43.687-.155,43.687,5.087-2.22,6.178-4.626c0,0,1.427-40.843-.153-55.315s-6.839-22.639-6.839-22.639A33.124,33.124,0,0,0,52.648,27.1" transform="translate(52.166 23.979)" fill="#0b428a"/>
                <path id="Trazado_704839" data-name="Trazado 704839" d="M59.854,58.765a36.485,36.485,0,0,0,6.537-.776c0-2.528,0-5.078-.032-7.564a36.474,36.474,0,0,1-6.595.767c.046,2.179.074,4.776.09,7.576" transform="translate(57.567 41.709)" fill="#ececec"/>
                <path id="Trazado_704840" data-name="Trazado 704840" d="M66.168,66.581c.048-2.325.093-4.9.128-7.6a36.5,36.5,0,0,1-6.464.762c0,2.563-.011,5.133-.021,7.576a36.422,36.422,0,0,0,6.357-.734" transform="translate(57.603 48.2)" fill="#ececec"/>
                <path id="Trazado_704841" data-name="Trazado 704841" d="M61.226,31.221c-4.341,0-9.381-.176-12.232,6.074-.927,2.037-3.785,14.02-6.957,25.07A154.2,154.2,0,0,1,30.879,46.415c-1.685-3.518-1.706-5.9-3.427-9.534a30.35,30.35,0,0,1-2.287-6.243c-.406-1.458-1.69-.382-2.143.267A6.818,6.818,0,0,0,21.8,34.647c-.016.943-.012,1.9-.074,2.83-.055.829-.382.88-1.136.464a23.679,23.679,0,0,1-4.146-3.559c-1.386-1.291-2.978-2.327-4.338-3.631a47.093,47.093,0,0,1-3.15-3.895c-.83-.978-2.25-2.239-3.342-.843-.654.841-.051,1.828.239,2.668A4.472,4.472,0,0,1,5.679,31.3a4.882,4.882,0,0,0,.091,3.15A4.458,4.458,0,0,1,6.616,37.3a11.424,11.424,0,0,0-.324,2.952,6.9,6.9,0,0,0,1.143,2.2,15.929,15.929,0,0,0,2.728,3.488,33.129,33.129,0,0,0,4.067,3.49c3.478,2.705,4.771,3.551,5.931,4.449a24.1,24.1,0,0,1,4.559,6.695c1.974,3.694,6.2,14.085,11.907,21.522,3.286,4.285,7.761,5.655,11.706.807A37.285,37.285,0,0,0,53.3,73.272c4.385-11.687,7.564-21.32,7.564-21.32s3.539-10.906.352-20.732" transform="translate(16.244 22.711)" fill="#ef9296"/>
                <path id="Trazado_704845" data-name="Trazado 704845" d="M26.191,47.259a32.774,32.774,0,0,1,3.694,12.684c.726-6.586-1.279-12.607-3.131-14.635Z" transform="translate(32.084 37.825)" fill="#ec797c"/>
                <path id="Trazado_704846" data-name="Trazado 704846" d="M45.774,28.184a35.7,35.7,0,0,0-7.655,1.632c-2.639.9-4.533,1.812-6.966,9.757-2.343,7.659-4.528,16.373-4.528,16.373S28.94,62,40.331,63.171L46.381,46.3s1.891-10.151-.609-18.118" transform="translate(32.414 24.827)" fill="#e6e6e6"/>
                <path id="Trazado_704842" data-name="Trazado 704842" d="M32.986,49.822c-1.126-1.706-1.882-2.941-2.111-3.405-1.685-3.518-1.706-5.9-3.427-9.534a30.365,30.365,0,0,1-2.287-6.245c-.406-1.458-1.69-.382-2.143.269A6.818,6.818,0,0,0,21.8,34.648c-.016.943-.012,1.9-.074,2.829-.055.828-.382.88-1.136.466a23.488,23.488,0,0,1-4.146-3.56c-1.386-1.291-2.978-2.327-4.338-3.629a47.092,47.092,0,0,1-3.15-3.895c-.83-.976-2.25-2.239-3.342-.843-.654.841-.051,1.828.239,2.668A4.468,4.468,0,0,1,5.675,31.3a4.882,4.882,0,0,0,.091,3.15A4.469,4.469,0,0,1,6.612,37.3a11.424,11.424,0,0,0-.324,2.952,6.931,6.931,0,0,0,1.143,2.2,15.929,15.929,0,0,0,2.728,3.488,33.129,33.129,0,0,0,4.067,3.49c3.478,2.705,4.769,3.55,5.931,4.449a22.843,22.843,0,0,1,4.4,6.4,26.283,26.283,0,0,0,8.419-10.443" transform="translate(16.241 22.711)" fill="#354952"/>
                <path id="Trazado_704843" data-name="Trazado 704843" d="M24.534,38.8l-.542-.807s.218-.946,1.1.4a21.861,21.861,0,0,1,2.048,3.581,11.194,11.194,0,0,1-3.518,7.129,10.664,10.664,0,0,1-5.928,2.763c-.763-.093-.983-.788-1.421-1.7s-1.536-2.048-1.207-2.925l.621.88a12.382,12.382,0,0,0,6.333-3.949,10.483,10.483,0,0,0,2.517-5.37" transform="translate(23.591 32.028)" fill="#8c569b"/>
                <g id="Grupo_973921" data-name="Grupo 973921">
                  <path id="Trazado_704854" data-name="Trazado 704854" d="M19.677,16.579A16.111,16.111,0,0,0,5.626,34.514v0c1.541,12.7,12.279,13.528,12.9,18.646a2.76,2.76,0,0,0,1.89,2.055,8.685,8.685,0,0,0,7.8-.95,2.765,2.765,0,0,0,1.343-2.45c-.624-5.119,9.6-8.5,8.049-21.2a16.111,16.111,0,0,0-17.94-14.046h0" transform="translate(9.182 -0.767)" fill="#ffc321"/>
                  <g id="Grupo_973920" data-name="Grupo 973920" transform="translate(26.737 49.046)">
                    <g id="Grupo_973919" data-name="Grupo 973919" transform="translate(0.618 3.053)">
                      <path id="Trazado_704847" data-name="Trazado 704847" d="M18.535,35.284a3.383,3.383,0,1,1-3.768-2.948,3.383,3.383,0,0,1,3.768,2.948" transform="translate(-8.533 -27.419)" fill="#1c262b"/>
                      <path id="Trazado_704849" data-name="Trazado 704849" d="M12.757,37.67a2.471,2.471,0,0,1-.568-4.649,8.961,8.961,0,0,1,8.052-.981,2.474,2.474,0,0,1,.568,4.649,8.961,8.961,0,0,1-8.052.981" transform="translate(-10.114 -28.688)" fill="#29373e"/>
                      <path id="Trazado_704850" data-name="Trazado 704850" d="M12.687,37.32a2.548,2.548,0,0,1-.583-4.793,9.242,9.242,0,0,1,8.3-1.012,2.548,2.548,0,0,1,.583,4.793,9.242,9.242,0,0,1-8.3,1.012" transform="translate(-10.316 -29.535)" fill="#1c262b"/>
                      <path id="Trazado_704851" data-name="Trazado 704851" d="M12.618,36.958a2.625,2.625,0,0,1-.6-4.939,9.529,9.529,0,0,1,8.553-1.043,2.625,2.625,0,0,1,.6,4.939,9.521,9.521,0,0,1-8.553,1.043" transform="translate(-10.524 -30.406)" fill="#29373e"/>
                    </g>
                    <path id="Trazado_704852" data-name="Trazado 704852" d="M12.544,36.586a2.707,2.707,0,0,1-.622-5.09,9.813,9.813,0,0,1,8.817-1.074,2.707,2.707,0,0,1,.611,5.09,9.813,9.813,0,0,1-8.817,1.074" transform="translate(-10.132 -28.323)" fill="#1c262b"/>
                    <path id="Trazado_704853" data-name="Trazado 704853" d="M12.467,36.146a2.761,2.761,0,0,1-.634-5.193,10.017,10.017,0,0,1,8.989-1.1,2.763,2.763,0,0,1,.634,5.2,10.016,10.016,0,0,1-8.989,1.094" transform="translate(-10.265 -29.257)" fill="#29373e"/>
                    <path id="Trazado_704856" data-name="Trazado 704856" d="M12.539,33.977a1.8,1.8,0,0,1-.414-3.388,6.531,6.531,0,0,1,5.869-.714,1.8,1.8,0,0,1,.414,3.388,6.531,6.531,0,0,1-5.869.714" transform="translate(-8.961 -28.903)" fill="#ffc321"/>
                  </g>
                  <path id="Trazado_704857" data-name="Trazado 704857" d="M20.866,42.031a.547.547,0,0,1-.606-.465,39.17,39.17,0,0,1,0-9.274,19.979,19.979,0,0,1,.485-2.64,7.277,7.277,0,0,1-1.469-.514,9.447,9.447,0,0,1-2.337-1.526,9.457,9.457,0,0,1-1.9,2.055,7.283,7.283,0,0,1-1.3.848,19.739,19.739,0,0,1,1.107,2.445,39.119,39.119,0,0,1,2.234,9,.554.554,0,0,1-.491.6.547.547,0,0,1-.6-.491,38.913,38.913,0,0,0-2.168-8.732A18.086,18.086,0,0,0,12.7,30.9a3.415,3.415,0,0,1-3.133-.514,1.75,1.75,0,0,1-.514-2.211,1.447,1.447,0,0,1,1.4-.8c.876.064,1.816.842,2.707,2.188a6.042,6.042,0,0,0,1.187-.758,8.308,8.308,0,0,0,1.824-1.98,4.051,4.051,0,0,1-1.163-2.954,1.54,1.54,0,0,1,2.918-.354,4.049,4.049,0,0,1-.421,3.144,8.365,8.365,0,0,0,2.237,1.5,6.126,6.126,0,0,0,1.333.449c.542-1.518,1.266-2.5,2.1-2.774a1.465,1.465,0,0,1,1.541.439,1.75,1.75,0,0,1,.039,2.268A3.412,3.412,0,0,1,21.837,29.8a17.924,17.924,0,0,0-.5,2.63,38.688,38.688,0,0,0,0,8.989.547.547,0,0,1-.465.619M10.308,28.467c-.092,0-.19.064-.288.241-.218.4.141.745.257.842a2.189,2.189,0,0,0,1.8.367c-.709-.991-1.328-1.425-1.7-1.451a.387.387,0,0,0-.077,0m11.915.216a2.193,2.193,0,0,0,1.664-.791c.09-.123.354-.55.046-.881-.177-.19-.306-.182-.414-.146-.352.116-.85.686-1.3,1.816m-5.753-4.99c-.275.033-.352.162-.378.342a2.628,2.628,0,0,0,.632,1.728,2.635,2.635,0,0,0,.2-1.829.365.365,0,0,0-.449-.241" transform="translate(14.719 7.992)" fill="#fff"/>
                  <g id="Grupo_973910" data-name="Grupo 973910" transform="translate(14.686 15.888)" opacity="0.6">
                    <g id="Grupo_973909" data-name="Grupo 973909">
                      <g id="Grupo_973908" data-name="Grupo 973908" clip-path="url(#clip-path-12)">
                        <g id="Grupo_973907" data-name="Grupo 973907" transform="translate(0.003 0.008)">
                          <g id="Grupo_973906" data-name="Grupo 973906" clip-path="url(#clip-path-13)">
                            <path id="Trazado_704855" data-name="Trazado 704855" d="M19.677,16.579A16.111,16.111,0,0,0,5.626,34.514v0c1.541,12.7,12.279,13.528,12.9,18.646a2.76,2.76,0,0,0,1.89,2.055,8.685,8.685,0,0,0,7.8-.95,2.765,2.765,0,0,0,1.343-2.45c-.624-5.119,9.6-8.5,8.049-21.2a16.111,16.111,0,0,0-17.94-14.046h0" transform="translate(-5.51 -16.458)" fill="#fff"/>
                          </g>
                        </g>
                      </g>
                    </g>
                  </g>
                  <path id="Trazado_704858" data-name="Trazado 704858" d="M15.442,18.914a1.067,1.067,0,0,1-.583-1.387l2.088-5.155a1.064,1.064,0,0,1,1.387-.588h0a1.064,1.064,0,0,1,.583,1.387l-2.091,5.155a1.064,1.064,0,0,1-1.387.588h0" transform="translate(23.182 -9.839)" fill="#f8d26c"/>
                  <path id="Trazado_704859" data-name="Trazado 704859" d="M11.169,18.543a1.07,1.07,0,0,1-.652-.84l-.77-5.509a1.067,1.067,0,1,1,2.114-.3l.771,5.509a1.067,1.067,0,0,1-1.461,1.135" transform="translate(15.27 -10.979)" fill="#f8d26c"/>
                  <path id="Trazado_704860" data-name="Trazado 704860" d="M8.363,19.707a1.05,1.05,0,0,1-.437-.331L4.508,14.986a1.068,1.068,0,0,1,1.685-1.312L9.614,18.06A1.068,1.068,0,0,1,8.365,19.7" transform="translate(6.751 -7.355)" fill="#f8d26c"/>
                  <path id="Trazado_704861" data-name="Trazado 704861" d="M1.4,20.046a1.067,1.067,0,1,1,.806-1.975l5.155,2.091a1.067,1.067,0,0,1-.806,1.975Z" transform="translate(1.159 0.018)" fill="#f8d26c"/>
                  <path id="Trazado_704862" data-name="Trazado 704862" d="M.686,26.383a1.066,1.066,0,0,1,.257-2.055l5.509-.771a1.067,1.067,0,1,1,.3,2.114l-5.509.771a1.067,1.067,0,0,1-.552-.069" transform="translate(0 8.732)" fill="#f8d26c"/>
                  <path id="Trazado_704863" data-name="Trazado 704863" d="M21.139,23.534a1.066,1.066,0,0,1,.257-2.055l5.509-.771a1.067,1.067,0,0,1,.3,2.114l-5.509.771a1.067,1.067,0,0,1-.552-.069" transform="translate(32.078 4.263)" fill="#f8d26c"/>
                  <path id="Trazado_704864" data-name="Trazado 704864" d="M19.259,20.74a1.05,1.05,0,0,1-.437-.331,1.067,1.067,0,0,1,.187-1.5L23.4,15.49a1.067,1.067,0,0,1,1.312,1.682l-4.387,3.421a1.066,1.066,0,0,1-1.063.144" transform="translate(29.169 -4.259)" fill="#f8d26c"/>
                </g>
                <rect id="Rectángulo_339759" data-name="Rectángulo 339759" width="197.728" height="233.16" transform="translate(12.204 3.435)" fill="none"/>
              </g>
            </g>
          </g>
        </g>
      </g>
    </g>
  </g>
</svg>
