<svg xmlns="http://www.w3.org/2000/svg" xmlns:xlink="http://www.w3.org/1999/xlink" width="110.335" height="110.335" viewBox="0 0 110.335 110.335">
  <defs>
    <clipPath id="clip-path">
      <path id="Trazado_704945" data-name="Trazado 704945" d="M6.226,55.175A55.168,55.168,0,1,0,61.394.007,55.168,55.168,0,0,0,6.226,55.175" transform="translate(-6.226 -0.007)" fill="none"/>
    </clipPath>
  </defs>
  <g id="Grupo_999394" data-name="Grupo 999394" transform="translate(-6.226 -0.007)">
    <g id="Grupo_999393" data-name="Grupo 999393" transform="translate(6.226 0.007)" clip-path="url(#clip-path)">
      <path id="Trazado_704926" data-name="Trazado 704926" d="M61.5,0A55.168,55.168,0,1,1,6.328,55.168,55.168,55.168,0,0,1,61.5,0" transform="translate(-6.215 -0.008)" fill="#5cbdd2"/>
      <path id="Trazado_704927" data-name="Trazado 704927" d="M119.938,85.245c0,18.613-22.447,38.3-57.485,38.3S0,102.115,0,83.5,27.411,56.14,62.456,56.14s57.481,10.493,57.481,29.105" transform="translate(-6.892 6.002)" fill="#171e59"/>
      <rect id="Rectángulo_345271" data-name="Rectángulo 345271" width="17.87" height="11.824" transform="translate(11.388 65.443)" fill="#5cbdd2"/>
      <rect id="Rectángulo_345272" data-name="Rectángulo 345272" width="6.232" height="11.824" transform="translate(23.051 65.468)" fill="#4594a0"/>
      <rect id="Rectángulo_345273" data-name="Rectángulo 345273" width="17.87" height="19.243" transform="translate(26.603 58.115)" fill="#7870b0"/>
      <rect id="Rectángulo_345274" data-name="Rectángulo 345274" width="6.232" height="19.243" transform="translate(38.153 58.115)" fill="#5e5a90"/>
      <rect id="Rectángulo_345275" data-name="Rectángulo 345275" width="17.87" height="29.146" transform="translate(43.375 48.332)" fill="#1d8c94"/>
      <rect id="Rectángulo_345276" data-name="Rectángulo 345276" width="6.232" height="29.049" transform="translate(54.829 48.332)" fill="#1b787a"/>
      <rect id="Rectángulo_345277" data-name="Rectángulo 345277" width="17.87" height="39.865" transform="translate(60.608 37.517)" fill="#004897"/>
      <rect id="Rectángulo_345278" data-name="Rectángulo 345278" width="6.232" height="39.865" transform="translate(72.157 37.517)" fill="#003b70"/>
      <rect id="Rectángulo_345279" data-name="Rectángulo 345279" width="17.87" height="54.716" transform="translate(77.558 22.738)" fill="#181f59"/>
      <rect id="Rectángulo_345280" data-name="Rectángulo 345280" width="6.232" height="54.62" transform="translate(89.107 22.713)" fill="#151a3d"/>
      <rect id="Rectángulo_345281" data-name="Rectángulo 345281" width="84.822" height="1.42" transform="translate(12.123 77.381)" fill="#151a3d"/>
      <path id="Trazado_704928" data-name="Trazado 704928" d="M19.947,73.01s30.6,7.587,63.256-16l6.029,4.923,1.744-21.106L76.011,43.848l3.455,7.878S64.078,72.073,19.956,73.01Z" transform="translate(-4.757 4.363)" fill="#f5b0a9"/>
      <path id="Trazado_704929" data-name="Trazado 704929" d="M19.94,73s31.866,5.86,63.212-19.436l5.214,4.738,2.061-17.5L73.534,44.423l4.7,4.149S63.951,69.711,19.94,73" transform="translate(-4.758 4.361)" fill="#f5b0a9"/>
      <path id="Trazado_704930" data-name="Trazado 704930" d="M74.33,61.084h7.45V72.166c0,1.146-1.671,1.751-3.721,1.751s-3.721-.606-3.721-1.751V61.084Z" transform="translate(1.064 6.531)" fill="#f8a92f" fill-rule="evenodd"/>
      <path id="Trazado_704931" data-name="Trazado 704931" d="M78.058,59.21c2.055,0,3.721.929,3.721,2.075s-1.666,2.075-3.721,2.075-3.721-.929-3.721-2.075S76,59.21,78.058,59.21" transform="translate(1.065 6.331)" fill="#ffc243"/>
      <path id="Trazado_704932" data-name="Trazado 704932" d="M77.97,59.815a4.316,4.316,0,0,0-2.188.54c-.2.121-.621.436-.621.734s.42.606.621.734a4.71,4.71,0,0,0,4.375,0c.2-.121.621-.436.621-.734s-.42-.606-.621-.734a4.316,4.316,0,0,0-2.188-.54" transform="translate(1.153 6.395)" fill="#f8a92f" fill-rule="evenodd"/>
      <path id="Trazado_704933" data-name="Trazado 704933" d="M77.209,61.679a.228.228,0,0,1,.21-.4,1.252,1.252,0,0,0,.154.064.809.809,0,0,0,.186.024.869.869,0,0,0,.25-.04.642.642,0,0,0-.25-.04,1.108,1.108,0,0,1-.484-.105.416.416,0,0,1,0-.792,1,1,0,0,1,.25-.081.24.24,0,0,1,.267-.186.221.221,0,0,1,.186.186.648.648,0,0,1,.121.024.8.8,0,0,1,.29.13.238.238,0,0,1,.04.323.229.229,0,0,1-.321.041h0a.024.024,0,0,1-.017-.008.49.49,0,0,0-.111-.04.99.99,0,0,0-.221-.032.869.869,0,0,0-.25.04.642.642,0,0,0,.25.04,1.108,1.108,0,0,1,.484.105.416.416,0,0,1,0,.792.958.958,0,0,1-.258.081.229.229,0,0,1-.275.169.221.221,0,0,1-.169-.169.41.41,0,0,1-.1-.024.992.992,0,0,1-.25-.105Z" transform="translate(1.349 6.428)" fill="#d69228" fill-rule="evenodd"/>
      <path id="Trazado_704934" data-name="Trazado 704934" d="M78.058,72.2c2.058,0,3.721-.606,3.721-1.751v-1.53c0,1.146-1.671,1.751-3.721,1.751s-3.721-.606-3.721-1.751v1.542c0,1.146,1.671,1.751,3.721,1.751Zm0-6.151c2.058,0,3.721-.606,3.721-1.751v-1.53c0,1.146-1.671,1.751-3.721,1.751s-3.721-.606-3.721-1.751V64.3c0,1.146,1.671,1.751,3.721,1.751Zm0,3.075c-2.058,0-3.721-.606-3.721-1.751v-1.53c0,1.146,1.671,1.751,3.721,1.751s3.721-.606,3.721-1.751v1.533c0,1.146-1.671,1.751-3.721,1.751Z" transform="translate(1.065 6.711)" fill="#d69228" fill-rule="evenodd"/>
      <path id="Trazado_704935" data-name="Trazado 704935" d="M66.077,64.145h-6.11V72.1c0,.944,1.372,1.439,3.059,1.439s3.059-.493,3.059-1.439V64.145Z" transform="translate(-0.473 6.859)" fill="#f8a92f" fill-rule="evenodd"/>
      <path id="Trazado_704936" data-name="Trazado 704936" d="M63.019,62.709c1.689,0,3.059.763,3.059,1.7s-1.369,1.7-3.059,1.7-3.059-.763-3.059-1.7,1.369-1.7,3.059-1.7" transform="translate(-0.474 6.705)" fill="#ffc243"/>
      <path id="Trazado_704937" data-name="Trazado 704937" d="M62.946,63.205a3.5,3.5,0,0,0-1.8.443c-.162.105-.508.355-.508.6s.348.5.508.6a3.675,3.675,0,0,0,1.8.443,3.5,3.5,0,0,0,1.8-.443c.169-.105.508-.355.508-.6s-.348-.5-.508-.6a3.587,3.587,0,0,0-1.8-.443" transform="translate(-0.401 6.758)" fill="#f8a92f" fill-rule="evenodd"/>
      <path id="Trazado_704938" data-name="Trazado 704938" d="M62.324,64.735a.186.186,0,1,1,.169-.332.675.675,0,0,0,.13.056.513.513,0,0,0,.154.017.542.542,0,0,0,.2-.032.6.6,0,0,0-.2-.032.933.933,0,0,1-.4-.081.341.341,0,0,1-.221-.427.331.331,0,0,1,.221-.221.636.636,0,0,1,.21-.064.186.186,0,0,1,.213-.156l.009,0a.188.188,0,0,1,.154.154.41.41,0,0,1,.1.024.567.567,0,0,1,.234.105.2.2,0,0,1,.017.267.187.187,0,0,1-.25.024.353.353,0,0,0-.089-.032.7.7,0,0,0-.186-.024.542.542,0,0,0-.2.032.591.591,0,0,0,.2.032.933.933,0,0,1,.4.081.341.341,0,0,1,.221.427.331.331,0,0,1-.221.221.636.636,0,0,1-.21.064.187.187,0,0,1-.221.137.2.2,0,0,1-.137-.137.284.284,0,0,1-.081-.017,1.5,1.5,0,0,1-.2-.081Z" transform="translate(-0.24 6.786)" fill="#d69228" fill-rule="evenodd"/>
      <path id="Trazado_704939" data-name="Trazado 704939" d="M66.079,70.67c0,.944-1.372,1.439-3.059,1.439s-3.059-.493-3.059-1.439v1.259c0,.944,1.372,1.439,3.059,1.439s3.059-.493,3.059-1.439Zm0-5.045c0,.944-1.372,1.439-3.059,1.439s-3.06-.495-3.06-1.439v1.259c0,.944,1.372,1.439,3.059,1.439s3.059-.493,3.059-1.439Zm0,2.526V69.41c0,.944-1.372,1.439-3.059,1.439s-3.059-.493-3.059-1.439V68.151c0,.944,1.372,1.439,3.059,1.439s3.059-.495,3.059-1.439" transform="translate(-0.474 7.017)" fill="#d69228" fill-rule="evenodd"/>
      <path id="Trazado_704940" data-name="Trazado 704940" d="M20.034,67.164H15.252V71.41c0,.734,1.074,1.121,2.389,1.121s2.389-.387,2.389-1.121V67.164Z" transform="translate(-5.26 7.182)" fill="#f8a92f" fill-rule="evenodd"/>
      <path id="Trazado_704941" data-name="Trazado 704941" d="M17.648,66.041c1.32,0,2.389.6,2.389,1.332S18.968,68.7,17.648,68.7s-2.389-.6-2.389-1.332,1.069-1.332,2.389-1.332" transform="translate(-5.259 7.062)" fill="#ffc243"/>
      <path id="Trazado_704942" data-name="Trazado 704942" d="M17.591,66.428a2.746,2.746,0,0,0-1.4.348c-.13.081-.4.282-.4.468s.267.387.4.468a2.831,2.831,0,0,0,1.4.348,2.746,2.746,0,0,0,1.4-.348c.13-.081.4-.282.4-.468s-.267-.387-.4-.468a2.831,2.831,0,0,0-1.4-.348Z" transform="translate(-5.202 7.103)" fill="#f8a92f" fill-rule="evenodd"/>
      <path id="Trazado_704943" data-name="Trazado 704943" d="M17.1,67.624a.144.144,0,0,1,.13-.258.448.448,0,0,0,.105.04.556.556,0,0,0,.121.017.349.349,0,0,0,.162-.024.53.53,0,0,0-.162-.024.876.876,0,0,1-.314-.064.268.268,0,0,1-.169-.339.254.254,0,0,1,.169-.169.546.546,0,0,1,.162-.049.147.147,0,0,1,.29,0,.234.234,0,0,1,.073.017.547.547,0,0,1,.186.081.15.15,0,0,1,.008.21.148.148,0,0,1-.2.017l-.073-.024a.922.922,0,0,0-.145-.024.083.083,0,1,0,0,.049.876.876,0,0,1,.314.064.268.268,0,0,1,.169.339.255.255,0,0,1-.169.169,1.035,1.035,0,0,1-.162.056.148.148,0,0,1-.177.111.141.141,0,0,1-.105-.105.211.211,0,0,1-.064-.017,1.365,1.365,0,0,1-.162-.064Z" transform="translate(-5.077 7.125)" fill="#d69228" fill-rule="evenodd"/>
      <path id="Trazado_704944" data-name="Trazado 704944" d="M20.037,68.323c0,.734-1.074,1.121-2.389,1.121s-2.389-.387-2.389-1.121v.984c0,.734,1.074,1.121,2.389,1.121s2.389-.387,2.389-1.121Zm0,1.969v.984c0,.734-1.074,1.121-2.389,1.121s-2.389-.387-2.389-1.121v-.984c0,.734,1.074,1.121,2.389,1.121s2.389-.387,2.389-1.121" transform="translate(-5.259 7.306)" fill="#d69228" fill-rule="evenodd"/>
    </g>
  </g>
</svg>
