<svg xmlns="http://www.w3.org/2000/svg" xmlns:xlink="http://www.w3.org/1999/xlink" width="224.438" height="170" viewBox="0 0 224.438 170">
  <defs>
    <clipPath id="clip-path">
      <rect id="Rectángulo_345571" data-name="Rectángulo 345571" width="224.438" height="144.741" fill="none"/>
    </clipPath>
    <clipPath id="clip-path-3">
      <rect id="Rectángulo_345479" data-name="Rectángulo 345479" width="18.501" height="15.552" fill="none"/>
    </clipPath>
    <clipPath id="clip-path-4">
      <rect id="Rectángulo_345498" data-name="Rectángulo 345498" width="28.508" height="73.122" fill="none"/>
    </clipPath>
    <clipPath id="clip-path-5">
      <rect id="Rectángulo_345502" data-name="Rectángulo 345502" width="73.025" height="5.183" fill="none"/>
    </clipPath>
    <clipPath id="clip-path-6">
      <rect id="Rectángulo_345539" data-name="Rectángulo 345539" width="9.996" height="140.228" fill="none"/>
    </clipPath>
  </defs>
  <g id="Grupo_999979" data-name="Grupo 999979" transform="translate(-538.309 -14806)">
    <circle id="Elipse_7907" data-name="Elipse 7907" cx="85" cy="85" r="85" transform="translate(571.309 14806)" fill="#25ffff" opacity="0.5"/>
    <g id="Grupo_999490" data-name="Grupo 999490" transform="translate(538.309 14830.886)">
      <g id="Grupo_999489" data-name="Grupo 999489" clip-path="url(#clip-path)">
        <rect id="Rectángulo_345449" data-name="Rectángulo 345449" width="93.192" height="65.346" transform="translate(42.804 75.842)" fill="#afaeae"/>
        <rect id="Rectángulo_345450" data-name="Rectángulo 345450" width="115.093" height="7.106" transform="translate(36.075 70.409)" fill="#f2f2f2"/>
        <path id="Trazado_706352" data-name="Trazado 706352" d="M36.134,71.529H43L35.6,76.2Z" transform="translate(-0.489 -0.982)" fill="#d1d0d0"/>
        <g id="Grupo_999488" data-name="Grupo 999488">
          <g id="Grupo_999487" data-name="Grupo 999487" clip-path="url(#clip-path)">
            <path id="Trazado_706353" data-name="Trazado 706353" d="M36.075,71.529S7.378,73.791,0,145.373H36.075Z" transform="translate(0 -0.982)" fill="#d1d0d0"/>
            <path id="Trazado_706354" data-name="Trazado 706354" d="M43.018,71.529S12.955,73.791,5.226,145.373H43.018Z" transform="translate(-0.072 -0.982)" fill="#e5e5e5"/>
            <path id="Trazado_706355" data-name="Trazado 706355" d="M70.969,71.742H77.84L70.432,76.41Z" transform="translate(-0.967 -0.985)" fill="#d1d0d0"/>
            <path id="Trazado_706356" data-name="Trazado 706356" d="M70.911,71.529s-28.7,2.262-36.076,73.844H70.911Z" transform="translate(-0.478 -0.982)" fill="#d1d0d0"/>
            <path id="Trazado_706357" data-name="Trazado 706357" d="M77.853,71.529S47.79,73.791,40.06,145.373H77.853Z" transform="translate(-0.55 -0.982)" fill="#e5e5e5"/>
            <path id="Trazado_706358" data-name="Trazado 706358" d="M111.248,71.529h6.87L110.712,76.2Z" transform="translate(-1.52 -0.982)" fill="#d1d0d0"/>
            <path id="Trazado_706359" data-name="Trazado 706359" d="M110.971,71.529s-28.7,2.262-36.076,73.844h36.076Z" transform="translate(-1.029 -0.982)" fill="#d1d0d0"/>
            <path id="Trazado_706360" data-name="Trazado 706360" d="M117.914,71.529s-30.061,2.262-37.793,73.844h37.793Z" transform="translate(-1.1 -0.982)" fill="#e5e5e5"/>
            <path id="Trazado_706361" data-name="Trazado 706361" d="M44.7,76.9s-22.543,7.944-31.565,68.69l21.4-.141c4.155-45.212,17.337-60.2,25.625-68.617Z" transform="translate(-0.18 -1.055)" fill="#5ad9ed"/>
            <path id="Trazado_706362" data-name="Trazado 706362" d="M81.32,76.829S61.909,85.05,52.761,145.8l21.695-.14c4.209-45.211,17.571-60.2,25.975-68.618Z" transform="translate(-0.725 -1.055)" fill="#5ad9ed"/>
            <path id="Trazado_706363" data-name="Trazado 706363" d="M116.373,76.615s-19.413,8.224-28.56,68.969l21.7-.141c4.208-45.212,17.572-60.2,25.974-68.617Z" transform="translate(-1.206 -1.052)" fill="#5ad9ed"/>
            <path id="Trazado_706364" data-name="Trazado 706364" d="M146.3,71.529h6.868L145.763,76.2Z" transform="translate(-2.002 -0.982)" fill="#d1d0d0"/>
            <path id="Trazado_706365" data-name="Trazado 706365" d="M145.807,71.529s-28.7,2.262-36.075,73.844h36.075Z" transform="translate(-1.507 -0.982)" fill="#d1d0d0"/>
            <path id="Trazado_706366" data-name="Trazado 706366" d="M152.747,71.529s-30.061,2.262-37.79,73.844h37.79Z" transform="translate(-1.579 -0.982)" fill="#e5e5e5"/>
            <rect id="Rectángulo_345451" data-name="Rectángulo 345451" width="7.498" height="14.552" transform="translate(55.962 55.84)" fill="#e5e5e5"/>
            <rect id="Rectángulo_345452" data-name="Rectángulo 345452" width="5.582" height="14.552" transform="translate(63.459 55.84)" fill="#f2f2f2"/>
            <rect id="Rectángulo_345453" data-name="Rectángulo 345453" width="7.498" height="14.552" transform="translate(81.75 55.84)" fill="#e5e5e5"/>
            <rect id="Rectángulo_345454" data-name="Rectángulo 345454" width="5.586" height="14.552" transform="translate(89.247 55.84)" fill="#f2f2f2"/>
            <rect id="Rectángulo_345455" data-name="Rectángulo 345455" width="7.494" height="14.552" transform="translate(106.422 55.84)" fill="#e5e5e5"/>
            <rect id="Rectángulo_345456" data-name="Rectángulo 345456" width="5.585" height="14.552" transform="translate(113.916 55.84)" fill="#f2f2f2"/>
            <rect id="Rectángulo_345457" data-name="Rectángulo 345457" width="119.42" height="6.548" transform="translate(24.564 49.657)" fill="#dcdadb"/>
            <rect id="Rectángulo_345458" data-name="Rectángulo 345458" width="18.5" height="6.548" transform="translate(143.425 49.657)" fill="#e5e5e5"/>
            <rect id="Rectángulo_345459" data-name="Rectángulo 345459" width="1.386" height="8.315" transform="translate(25.031 41.131)" fill="#7f7f7f"/>
            <rect id="Rectángulo_345460" data-name="Rectángulo 345460" width="1.393" height="8.315" transform="translate(34.989 41.131)" fill="#7f7f7f"/>
            <rect id="Rectángulo_345461" data-name="Rectángulo 345461" width="1.382" height="8.315" transform="translate(44.957 41.131)" fill="#7f7f7f"/>
            <rect id="Rectángulo_345462" data-name="Rectángulo 345462" width="1.386" height="8.315" transform="translate(53.255 41.131)" fill="#7f7f7f"/>
            <rect id="Rectángulo_345463" data-name="Rectángulo 345463" width="1.386" height="8.315" transform="translate(63.216 41.131)" fill="#7f7f7f"/>
            <rect id="Rectángulo_345464" data-name="Rectángulo 345464" width="1.392" height="8.315" transform="translate(73.173 41.131)" fill="#7f7f7f"/>
            <rect id="Rectángulo_345465" data-name="Rectángulo 345465" width="1.387" height="8.315" transform="translate(83.136 41.131)" fill="#7f7f7f"/>
            <rect id="Rectángulo_345466" data-name="Rectángulo 345466" width="1.388" height="8.315" transform="translate(91.435 41.131)" fill="#7f7f7f"/>
            <rect id="Rectángulo_345467" data-name="Rectángulo 345467" width="1.382" height="8.315" transform="translate(101.405 41.131)" fill="#7f7f7f"/>
            <rect id="Rectángulo_345468" data-name="Rectángulo 345468" width="1.39" height="8.315" transform="translate(111.929 41.131)" fill="#7f7f7f"/>
            <rect id="Rectángulo_345469" data-name="Rectángulo 345469" width="1.4" height="8.315" transform="translate(121.952 41.131)" fill="#7f7f7f"/>
            <rect id="Rectángulo_345470" data-name="Rectángulo 345470" width="1.389" height="8.315" transform="translate(131.98 41.131)" fill="#7f7f7f"/>
            <rect id="Rectángulo_345471" data-name="Rectángulo 345471" width="1.401" height="8.315" transform="translate(142.003 41.131)" fill="#7f7f7f"/>
            <rect id="Rectángulo_345472" data-name="Rectángulo 345472" width="1.398" height="8.315" transform="translate(150.363 41.131)" fill="#7f7f7f"/>
            <rect id="Rectángulo_345473" data-name="Rectángulo 345473" width="1.396" height="8.315" transform="translate(160.394 41.131)" fill="#7f7f7f"/>
            <rect id="Rectángulo_345474" data-name="Rectángulo 345474" width="137.497" height="0.961" transform="translate(24.754 40.653)" fill="#7f7f7f"/>
            <rect id="Rectángulo_345475" data-name="Rectángulo 345475" width="135.313" height="0.419" transform="translate(26.455 44.342)" fill="#7f7f7f"/>
            <rect id="Rectángulo_345476" data-name="Rectángulo 345476" width="135.313" height="0.42" transform="translate(26.455 42.421)" fill="#7f7f7f"/>
            <rect id="Rectángulo_345477" data-name="Rectángulo 345477" width="136.877" height="3.078" transform="translate(25.142 46.767)" fill="#7f7f7f"/>
            <g id="Grupo_999477" data-name="Grupo 999477" transform="translate(143.424 40.653)" opacity="0.2">
              <g id="Grupo_999476" data-name="Grupo 999476">
                <g id="Grupo_999475" data-name="Grupo 999475" clip-path="url(#clip-path-3)">
                  <rect id="Rectángulo_345478" data-name="Rectángulo 345478" width="18.5" height="15.552" transform="translate(0.001 -0.001)" fill="#fff"/>
                </g>
              </g>
            </g>
            <rect id="Rectángulo_345480" data-name="Rectángulo 345480" width="64.095" height="141.878" transform="translate(149.321 2.364)" fill="#123d46"/>
            <rect id="Rectángulo_345481" data-name="Rectángulo 345481" width="27.219" height="141.878" transform="translate(194.775 2.364)" fill="#217482"/>
            <rect id="Rectángulo_345482" data-name="Rectángulo 345482" width="15.53" height="17.853" transform="translate(162.606 13.971)" fill="#c5c4c6"/>
            <rect id="Rectángulo_345483" data-name="Rectángulo 345483" width="12.342" height="15.474" transform="translate(164.201 15.162)" fill="#353535"/>
            <rect id="Rectángulo_345484" data-name="Rectángulo 345484" width="10.576" height="14.165" transform="translate(165.967 16.471)" fill="#4c4b4c"/>
            <rect id="Rectángulo_345485" data-name="Rectángulo 345485" width="1.028" height="17.111" transform="translate(169.635 14.18)" fill="#c5c4c6"/>
            <rect id="Rectángulo_345486" data-name="Rectángulo 345486" width="15.53" height="17.856" transform="translate(162.606 44.529)" fill="#c5c4c6"/>
            <rect id="Rectángulo_345487" data-name="Rectángulo 345487" width="12.342" height="15.475" transform="translate(164.201 45.721)" fill="#353535"/>
            <rect id="Rectángulo_345488" data-name="Rectángulo 345488" width="10.576" height="14.169" transform="translate(165.967 47.027)" fill="#4c4b4c"/>
            <rect id="Rectángulo_345489" data-name="Rectángulo 345489" width="1.028" height="17.109" transform="translate(169.635 44.739)" fill="#c5c4c6"/>
            <rect id="Rectángulo_345490" data-name="Rectángulo 345490" width="15.53" height="17.855" transform="translate(162.606 76.178)" fill="#c5c4c6"/>
            <rect id="Rectángulo_345491" data-name="Rectángulo 345491" width="12.342" height="15.474" transform="translate(164.201 77.371)" fill="#353535"/>
            <rect id="Rectángulo_345492" data-name="Rectángulo 345492" width="10.576" height="14.167" transform="translate(165.967 78.678)" fill="#4c4b4c"/>
            <rect id="Rectángulo_345493" data-name="Rectángulo 345493" width="1.028" height="17.111" transform="translate(169.635 76.388)" fill="#c5c4c6"/>
            <rect id="Rectángulo_345494" data-name="Rectángulo 345494" width="15.53" height="17.855" transform="translate(162.606 106.736)" fill="#c5c4c6"/>
            <rect id="Rectángulo_345495" data-name="Rectángulo 345495" width="12.342" height="15.474" transform="translate(164.201 107.927)" fill="#353535"/>
            <rect id="Rectángulo_345496" data-name="Rectángulo 345496" width="10.576" height="14.167" transform="translate(165.967 109.234)" fill="#4c4b4c"/>
            <rect id="Rectángulo_345497" data-name="Rectángulo 345497" width="1.028" height="17.108" transform="translate(169.635 106.946)" fill="#c5c4c6"/>
            <g id="Grupo_999480" data-name="Grupo 999480" transform="translate(120.813 71.12)" opacity="0.1">
              <g id="Grupo_999479" data-name="Grupo 999479">
                <g id="Grupo_999478" data-name="Grupo 999478" clip-path="url(#clip-path-4)">
                  <path id="Trazado_706367" data-name="Trazado 706367" d="M150.9,72.111l-28.406,73.122H151Z" transform="translate(-122.495 -72.111)" fill="#353535"/>
                </g>
              </g>
            </g>
            <rect id="Rectángulo_345499" data-name="Rectángulo 345499" width="47.654" height="4.638" transform="translate(147.069)" fill="#086d6d"/>
            <rect id="Rectángulo_345500" data-name="Rectángulo 345500" width="29.688" height="4.638" transform="translate(194.75)" fill="#06808b"/>
            <g id="Grupo_999483" data-name="Grupo 999483" transform="translate(149.171 4.502)" opacity="0.2">
              <g id="Grupo_999482" data-name="Grupo 999482">
                <g id="Grupo_999481" data-name="Grupo 999481" clip-path="url(#clip-path-5)">
                  <rect id="Rectángulo_345501" data-name="Rectángulo 345501" width="73.025" height="5.183" transform="translate(0 0)"/>
                </g>
              </g>
            </g>
            <rect id="Rectángulo_345503" data-name="Rectángulo 345503" width="45.413" height="3.638" transform="translate(149.219 36.014)" fill="#dadadf"/>
            <rect id="Rectángulo_345504" data-name="Rectángulo 345504" width="27.285" height="3.638" transform="translate(194.632 36.014)" fill="#ededed"/>
            <rect id="Rectángulo_345505" data-name="Rectángulo 345505" width="45.413" height="3.638" transform="translate(149.219 66.573)" fill="#dadadf"/>
            <rect id="Rectángulo_345506" data-name="Rectángulo 345506" width="27.285" height="3.638" transform="translate(194.632 66.573)" fill="#ededed"/>
            <rect id="Rectángulo_345507" data-name="Rectángulo 345507" width="45.413" height="3.637" transform="translate(149.219 99.315)" fill="#dadadf"/>
            <rect id="Rectángulo_345508" data-name="Rectángulo 345508" width="27.285" height="3.637" transform="translate(194.632 99.315)" fill="#ededed"/>
            <g id="Grupo_999486" data-name="Grupo 999486" transform="translate(198.599 4.105)" opacity="0.1">
              <g id="Grupo_999485" data-name="Grupo 999485">
                <g id="Grupo_999484" data-name="Grupo 999484" clip-path="url(#clip-path-6)">
                  <rect id="Rectángulo_345509" data-name="Rectángulo 345509" width="1.2" height="73.209" transform="translate(0.801)" fill="#353535"/>
                  <rect id="Rectángulo_345510" data-name="Rectángulo 345510" width="1.199" height="73.209" transform="translate(8.797)" fill="#353535"/>
                  <rect id="Rectángulo_345511" data-name="Rectángulo 345511" width="1.2" height="73.209" fill="#353535"/>
                  <rect id="Rectángulo_345512" data-name="Rectángulo 345512" width="1.2" height="73.209" transform="translate(7.997)" fill="#353535"/>
                  <rect id="Rectángulo_345513" data-name="Rectángulo 345513" width="8.295" height="1.86" transform="translate(0.302 5.718)" fill="#353535"/>
                  <rect id="Rectángulo_345514" data-name="Rectángulo 345514" width="8.295" height="1.858" transform="translate(0.302 12.584)" fill="#353535"/>
                  <rect id="Rectángulo_345515" data-name="Rectángulo 345515" width="8.295" height="1.86" transform="translate(0.302 18.301)" fill="#353535"/>
                  <rect id="Rectángulo_345516" data-name="Rectángulo 345516" width="8.295" height="1.863" transform="translate(0.302 24.019)" fill="#353535"/>
                  <rect id="Rectángulo_345517" data-name="Rectángulo 345517" width="8.295" height="1.859" transform="translate(0.302 30.884)" fill="#353535"/>
                  <rect id="Rectángulo_345518" data-name="Rectángulo 345518" width="8.295" height="1.858" transform="translate(0.302 36.604)" fill="#353535"/>
                  <rect id="Rectángulo_345519" data-name="Rectángulo 345519" width="8.295" height="1.859" transform="translate(0.302 42.324)" fill="#353535"/>
                  <rect id="Rectángulo_345520" data-name="Rectángulo 345520" width="8.295" height="1.86" transform="translate(0.302 48.042)" fill="#353535"/>
                  <rect id="Rectángulo_345521" data-name="Rectángulo 345521" width="8.295" height="1.861" transform="translate(0.302 54.906)" fill="#353535"/>
                  <rect id="Rectángulo_345522" data-name="Rectángulo 345522" width="8.295" height="1.857" transform="translate(0.302 60.627)" fill="#353535"/>
                  <rect id="Rectángulo_345523" data-name="Rectángulo 345523" width="8.295" height="1.857" transform="translate(0.302 67.49)" fill="#353535"/>
                  <rect id="Rectángulo_345524" data-name="Rectángulo 345524" width="1.2" height="73.211" transform="translate(0.801 67.017)" fill="#353535"/>
                  <rect id="Rectángulo_345525" data-name="Rectángulo 345525" width="1.199" height="73.211" transform="translate(8.797 67.017)" fill="#353535"/>
                  <rect id="Rectángulo_345526" data-name="Rectángulo 345526" width="1.2" height="73.211" transform="translate(0 67.017)" fill="#353535"/>
                  <rect id="Rectángulo_345527" data-name="Rectángulo 345527" width="1.2" height="73.211" transform="translate(7.997 67.017)" fill="#353535"/>
                  <rect id="Rectángulo_345528" data-name="Rectángulo 345528" width="8.295" height="1.86" transform="translate(0.302 72.738)" fill="#353535"/>
                  <rect id="Rectángulo_345529" data-name="Rectángulo 345529" width="8.295" height="1.857" transform="translate(0.302 79.603)" fill="#353535"/>
                  <rect id="Rectángulo_345530" data-name="Rectángulo 345530" width="8.295" height="1.858" transform="translate(0.302 85.322)" fill="#353535"/>
                  <rect id="Rectángulo_345531" data-name="Rectángulo 345531" width="8.295" height="1.859" transform="translate(0.302 91.04)" fill="#353535"/>
                  <rect id="Rectángulo_345532" data-name="Rectángulo 345532" width="8.295" height="1.86" transform="translate(0.302 97.904)" fill="#353535"/>
                  <rect id="Rectángulo_345533" data-name="Rectángulo 345533" width="8.295" height="1.859" transform="translate(0.302 103.623)" fill="#353535"/>
                  <rect id="Rectángulo_345534" data-name="Rectángulo 345534" width="8.295" height="1.857" transform="translate(0.302 109.343)" fill="#353535"/>
                  <rect id="Rectángulo_345535" data-name="Rectángulo 345535" width="8.295" height="1.86" transform="translate(0.302 115.062)" fill="#353535"/>
                  <rect id="Rectángulo_345536" data-name="Rectángulo 345536" width="8.295" height="1.858" transform="translate(0.302 121.926)" fill="#353535"/>
                  <rect id="Rectángulo_345537" data-name="Rectángulo 345537" width="8.295" height="1.86" transform="translate(0.302 127.645)" fill="#353535"/>
                  <rect id="Rectángulo_345538" data-name="Rectángulo 345538" width="8.295" height="1.858" transform="translate(0.302 134.508)" fill="#353535"/>
                </g>
              </g>
            </g>
            <rect id="Rectángulo_345540" data-name="Rectángulo 345540" width="1.2" height="73.352" transform="translate(211.74 3.932)" fill="#f9faf6"/>
            <rect id="Rectángulo_345541" data-name="Rectángulo 345541" width="1.197" height="73.352" transform="translate(203.745 3.932)" fill="#f9faf6"/>
            <rect id="Rectángulo_345542" data-name="Rectángulo 345542" width="1.199" height="73.352" transform="translate(212.541 3.932)" fill="#adadad"/>
            <rect id="Rectángulo_345543" data-name="Rectángulo 345543" width="1.2" height="73.352" transform="translate(204.545 3.932)" fill="#adadad"/>
            <rect id="Rectángulo_345544" data-name="Rectángulo 345544" width="8.294" height="1.863" transform="translate(205.144 9.663)" fill="#adadad"/>
            <rect id="Rectángulo_345545" data-name="Rectángulo 345545" width="8.294" height="1.861" transform="translate(205.144 16.54)" fill="#adadad"/>
            <rect id="Rectángulo_345546" data-name="Rectángulo 345546" width="8.294" height="1.862" transform="translate(205.144 22.27)" fill="#adadad"/>
            <rect id="Rectángulo_345547" data-name="Rectángulo 345547" width="8.294" height="1.864" transform="translate(205.144 27.999)" fill="#adadad"/>
            <rect id="Rectángulo_345548" data-name="Rectángulo 345548" width="8.294" height="1.862" transform="translate(205.144 34.876)" fill="#adadad"/>
            <rect id="Rectángulo_345549" data-name="Rectángulo 345549" width="8.294" height="1.863" transform="translate(205.144 40.609)" fill="#adadad"/>
            <rect id="Rectángulo_345550" data-name="Rectángulo 345550" width="8.294" height="1.861" transform="translate(205.144 46.339)" fill="#adadad"/>
            <rect id="Rectángulo_345551" data-name="Rectángulo 345551" width="8.294" height="1.866" transform="translate(205.144 52.067)" fill="#adadad"/>
            <rect id="Rectángulo_345552" data-name="Rectángulo 345552" width="8.294" height="1.862" transform="translate(205.144 58.945)" fill="#adadad"/>
            <rect id="Rectángulo_345553" data-name="Rectángulo 345553" width="8.294" height="1.865" transform="translate(205.144 64.674)" fill="#adadad"/>
            <rect id="Rectángulo_345554" data-name="Rectángulo 345554" width="8.294" height="1.863" transform="translate(205.144 71.554)" fill="#adadad"/>
            <rect id="Rectángulo_345555" data-name="Rectángulo 345555" width="1.2" height="73.353" transform="translate(211.74 71.081)" fill="#f9faf6"/>
            <rect id="Rectángulo_345556" data-name="Rectángulo 345556" width="1.197" height="73.353" transform="translate(203.745 71.081)" fill="#f9faf6"/>
            <rect id="Rectángulo_345557" data-name="Rectángulo 345557" width="1.199" height="73.353" transform="translate(212.541 71.081)" fill="#adadad"/>
            <rect id="Rectángulo_345558" data-name="Rectángulo 345558" width="1.2" height="73.353" transform="translate(204.545 71.081)" fill="#adadad"/>
            <rect id="Rectángulo_345559" data-name="Rectángulo 345559" width="8.294" height="1.863" transform="translate(205.144 76.813)" fill="#adadad"/>
            <rect id="Rectángulo_345560" data-name="Rectángulo 345560" width="8.294" height="1.861" transform="translate(205.144 83.69)" fill="#adadad"/>
            <rect id="Rectángulo_345561" data-name="Rectángulo 345561" width="8.294" height="1.861" transform="translate(205.144 89.419)" fill="#adadad"/>
            <rect id="Rectángulo_345562" data-name="Rectángulo 345562" width="8.294" height="1.862" transform="translate(205.144 95.149)" fill="#adadad"/>
            <rect id="Rectángulo_345563" data-name="Rectángulo 345563" width="8.294" height="1.863" transform="translate(205.144 102.025)" fill="#adadad"/>
            <rect id="Rectángulo_345564" data-name="Rectángulo 345564" width="8.294" height="1.862" transform="translate(205.144 107.759)" fill="#adadad"/>
            <rect id="Rectángulo_345565" data-name="Rectángulo 345565" width="8.294" height="1.863" transform="translate(205.144 113.487)" fill="#adadad"/>
            <rect id="Rectángulo_345566" data-name="Rectángulo 345566" width="8.294" height="1.864" transform="translate(205.144 119.217)" fill="#adadad"/>
            <rect id="Rectángulo_345567" data-name="Rectángulo 345567" width="8.294" height="1.864" transform="translate(205.144 126.093)" fill="#adadad"/>
            <rect id="Rectángulo_345568" data-name="Rectángulo 345568" width="8.294" height="1.862" transform="translate(205.144 131.826)" fill="#adadad"/>
            <rect id="Rectángulo_345569" data-name="Rectángulo 345569" width="8.294" height="1.864" transform="translate(205.144 138.703)" fill="#adadad"/>
            <path id="Trazado_706368" data-name="Trazado 706368" d="M51.706,76.866c-8.294,8.423-21.442,23.435-25.588,68.58h8.6c4.154-45.212,17.337-60.2,25.625-68.618Z" transform="translate(-0.359 -1.055)" fill="#54b6cc"/>
            <path id="Trazado_706369" data-name="Trazado 706369" d="M91.876,76.866c-8.291,8.423-21.44,23.435-25.588,68.58h8.6c4.154-45.212,17.337-60.2,25.626-68.618Z" transform="translate(-0.91 -1.055)" fill="#54b6cc"/>
            <path id="Trazado_706370" data-name="Trazado 706370" d="M125.985,76.866c-8.293,8.423-21.442,23.435-25.586,68.58H109c4.149-45.212,17.333-60.2,25.624-68.618Z" transform="translate(-1.379 -1.055)" fill="#54b6cc"/>
          </g>
        </g>
      </g>
    </g>
  </g>
</svg>
