<svg xmlns="http://www.w3.org/2000/svg" xmlns:xlink="http://www.w3.org/1999/xlink" width="466.009" height="362.644" viewBox="0 0 466.009 362.644">
  <defs>
    <clipPath id="clip-path">
      <rect id="Rectángulo_346006" data-name="Rectángulo 346006" width="281" height="282" transform="translate(0.484 -0.067)" fill="none"/>
    </clipPath>
    <clipPath id="clip-path-2">
      <rect id="Rectángulo_346004" data-name="Rectángulo 346004" width="58.519" height="55.487" fill="#bd3fcb"/>
    </clipPath>
    <clipPath id="clip-path-3">
      <rect id="Rectángulo_346005" data-name="Rectángulo 346005" width="44.371" height="48.023" fill="none"/>
    </clipPath>
  </defs>
  <g id="Grupo_999745" data-name="Grupo 999745" transform="translate(-810.813 -3766.5)">
    <g id="Grupo_999744" data-name="Grupo 999744" transform="translate(933.515 3806.067)">
      <g id="Grupo_999743" data-name="Grupo 999743" clip-path="url(#clip-path)">
        <path id="Trazado_706909" data-name="Trazado 706909" d="M189.482,57.584A83.417,83.417,0,0,1,269.34,116.92L323.251,96.4A141.02,141.02,0,0,0,110.479,24.2l33.326,47a82.991,82.991,0,0,1,45.677-13.619" transform="translate(-48.513)" fill="#cfb7ff"/>
        <path id="Trazado_706910" data-name="Trazado 706910" d="M135.339,90.153l-33.326-47q-5.6,3.8-10.813,8.11l36.916,44.2a83.766,83.766,0,0,1,7.223-5.308" transform="translate(-40.048 -18.95)" fill="#ffcc41"/>
        <path id="Trazado_706911" data-name="Trazado 706911" d="M220.827,164.3A83.391,83.391,0,1,1,71.776,141.8L25.211,107.891a140.938,140.938,0,1,0,249.527,35.882Z" transform="translate(0 -47.377)" fill="#2e0877"/>
        <g id="Grupo_999739" data-name="Grupo 999739" transform="translate(25.211 38.936)" style="isolation: isolate">
          <g id="Grupo_999738" data-name="Grupo 999738">
            <g id="Grupo_999737" data-name="Grupo 999737" clip-path="url(#clip-path-2)">
              <path id="Trazado_706912" data-name="Trazado 706912" d="M103.467,110.821l-40.031-41.4A141.74,141.74,0,0,0,44.948,91l46.565,33.909a83.8,83.8,0,0,1,11.954-14.085" transform="translate(-44.948 -69.419)" fill="#bd3fcb"/>
            </g>
          </g>
        </g>
        <g id="Grupo_999742" data-name="Grupo 999742" transform="translate(43.698 32.315)" style="isolation: isolate">
          <g id="Grupo_999741" data-name="Grupo 999741">
            <g id="Grupo_999740" data-name="Grupo 999740" clip-path="url(#clip-path-3)">
              <path id="Trazado_706913" data-name="Trazado 706913" d="M122.281,101.811l-36.917-44.2q-3.843,3.18-7.454,6.621l40.031,41.4q2.1-1.986,4.34-3.826" transform="translate(-77.91 -57.615)" fill="#004897"/>
            </g>
          </g>
        </g>
      </g>
    </g>
    <path id="Trazado_707179" data-name="Trazado 707179" d="M8.8,0H7.485V-4.6H2.468V0H1.155V-9.953H2.468v4.279H7.485V-9.953H8.8Zm3.507,0H11.047V-7.4h1.265ZM10.944-9.358a.755.755,0,0,1,.188-.52.706.706,0,0,1,.557-.212.717.717,0,0,1,.561.212.747.747,0,0,1,.191.52.722.722,0,0,1-.191.513.73.73,0,0,1-.561.205.718.718,0,0,1-.557-.205A.73.73,0,0,1,10.944-9.358Zm3.083,5.6A4.333,4.333,0,0,1,14.834-6.5a2.551,2.551,0,0,1,2.112-1.036A2.565,2.565,0,0,1,19-6.645V-10.5h1.265V0H19.106l-.062-.793a2.575,2.575,0,0,1-2.112.93,2.526,2.526,0,0,1-2.1-1.053,4.382,4.382,0,0,1-.81-2.748Zm1.265.144a3.281,3.281,0,0,0,.52,1.969,1.68,1.68,0,0,0,1.436.711A1.845,1.845,0,0,0,19-2.017v-3.4A1.859,1.859,0,0,0,17.261-6.46a1.687,1.687,0,0,0-1.449.718A3.612,3.612,0,0,0,15.292-3.616ZM25.806-6.262a3.79,3.79,0,0,0-.622-.048A1.667,1.667,0,0,0,23.5-5.25V0H22.23V-7.4h1.23l.021.854a1.969,1.969,0,0,1,1.764-.991,1.292,1.292,0,0,1,.561.1ZM31.261,0a2.657,2.657,0,0,1-.178-.779,2.822,2.822,0,0,1-2.105.916,2.611,2.611,0,0,1-1.794-.619,2,2,0,0,1-.7-1.569,2.091,2.091,0,0,1,.878-1.794,4.142,4.142,0,0,1,2.471-.639h1.23v-.581a1.42,1.42,0,0,0-.4-1.056A1.593,1.593,0,0,0,29.5-6.515a1.844,1.844,0,0,0-1.135.342,1.007,1.007,0,0,0-.458.827H26.633a1.745,1.745,0,0,1,.393-1.07,2.683,2.683,0,0,1,1.066-.817,3.588,3.588,0,0,1,1.48-.3,2.924,2.924,0,0,1,2,.639,2.306,2.306,0,0,1,.752,1.76v3.4a4.162,4.162,0,0,0,.26,1.62V0Zm-2.1-.964a2.223,2.223,0,0,0,1.128-.308,1.861,1.861,0,0,0,.772-.8V-3.589h-.991q-2.324,0-2.324,1.36a1.151,1.151,0,0,0,.4.93A1.524,1.524,0,0,0,29.162-.964ZM30.331-10.5h1.531L30.03-8.49l-1.019,0ZM38.876-.731a2.686,2.686,0,0,1-2.167.868,2.3,2.3,0,0,1-1.8-.687,2.974,2.974,0,0,1-.625-2.034V-7.4h1.265v4.778q0,1.682,1.367,1.682a1.893,1.893,0,0,0,1.928-1.08V-7.4h1.265V0H38.9ZM43.4,0H42.137V-10.5H43.4Zm3.4,0H45.534V-7.4H46.8ZM45.432-9.358a.755.755,0,0,1,.188-.52.706.706,0,0,1,.557-.212.717.717,0,0,1,.561.212.747.747,0,0,1,.191.52.722.722,0,0,1-.191.513.73.73,0,0,1-.561.205.718.718,0,0,1-.557-.205A.73.73,0,0,1,45.432-9.358ZM51.789-.9a1.822,1.822,0,0,0,1.183-.41,1.443,1.443,0,0,0,.561-1.025h1.2a2.293,2.293,0,0,1-.437,1.21,2.881,2.881,0,0,1-1.077.916,3.107,3.107,0,0,1-1.425.342,3.047,3.047,0,0,1-2.4-1.008,4.016,4.016,0,0,1-.892-2.758v-.212a4.453,4.453,0,0,1,.4-1.921,3.02,3.02,0,0,1,1.138-1.306,3.233,3.233,0,0,1,1.753-.465,2.966,2.966,0,0,1,2.068.745,2.663,2.663,0,0,1,.878,1.935h-1.2a1.743,1.743,0,0,0-.543-1.179,1.691,1.691,0,0,0-1.207-.461,1.77,1.77,0,0,0-1.494.694,3.259,3.259,0,0,0-.53,2.006v.239a3.194,3.194,0,0,0,.526,1.969A1.779,1.779,0,0,0,51.789-.9Zm8.928.9a2.657,2.657,0,0,1-.178-.779,2.822,2.822,0,0,1-2.105.916,2.611,2.611,0,0,1-1.794-.619,2,2,0,0,1-.7-1.569,2.091,2.091,0,0,1,.878-1.794,4.142,4.142,0,0,1,2.471-.639h1.23v-.581a1.42,1.42,0,0,0-.4-1.056,1.593,1.593,0,0,0-1.169-.393,1.844,1.844,0,0,0-1.135.342,1.007,1.007,0,0,0-.458.827H56.089a1.745,1.745,0,0,1,.393-1.07,2.683,2.683,0,0,1,1.066-.817,3.588,3.588,0,0,1,1.48-.3,2.924,2.924,0,0,1,2,.639,2.306,2.306,0,0,1,.752,1.76v3.4a4.162,4.162,0,0,0,.26,1.62V0Zm-2.1-.964a2.223,2.223,0,0,0,1.128-.308,1.861,1.861,0,0,0,.772-.8V-3.589h-.991q-2.324,0-2.324,1.36a1.151,1.151,0,0,0,.4.93A1.524,1.524,0,0,0,58.618-.964Zm13.446-9v1.073h-.232a3.33,3.33,0,0,0-2.352.875,3.641,3.641,0,0,0-1.012,2.386,2.7,2.7,0,0,1,2.146-.9,2.581,2.581,0,0,1,2.075.916,3.533,3.533,0,0,1,.776,2.365,3.522,3.522,0,0,1-.837,2.461,2.883,2.883,0,0,1-2.246.923,2.841,2.841,0,0,1-2.317-1.1,4.348,4.348,0,0,1-.889-2.827v-.485a6.552,6.552,0,0,1,1.172-4.2,4.306,4.306,0,0,1,3.49-1.487ZM70.4-5.476a2.018,2.018,0,0,0-1.2.39,2.03,2.03,0,0,0-.759.978v.465A3.265,3.265,0,0,0,69-1.661a1.659,1.659,0,0,0,1.381.752,1.608,1.608,0,0,0,1.343-.629,2.61,2.61,0,0,0,.489-1.647,2.61,2.61,0,0,0-.5-1.658A1.589,1.589,0,0,0,70.4-5.476ZM81-7.355a2.311,2.311,0,0,1-.393,1.326,2.674,2.674,0,0,1-1.063.909,2.853,2.853,0,0,1,1.234.978,2.46,2.46,0,0,1,.455,1.456A2.6,2.6,0,0,1,80.36-.629a3.349,3.349,0,0,1-2.293.766,3.334,3.334,0,0,1-2.3-.769A2.613,2.613,0,0,1,74.9-2.687a2.533,2.533,0,0,1,.441-1.456,2.744,2.744,0,0,1,1.22-.984,2.608,2.608,0,0,1-1.046-.909,2.344,2.344,0,0,1-.383-1.319,2.573,2.573,0,0,1,.807-2,3.026,3.026,0,0,1,2.126-.738,3.029,3.029,0,0,1,2.123.738A2.567,2.567,0,0,1,81-7.355ZM79.967-2.714a1.834,1.834,0,0,0-.53-1.36A1.879,1.879,0,0,0,78.053-4.6a1.846,1.846,0,0,0-1.371.52,1.855,1.855,0,0,0-.516,1.367,1.767,1.767,0,0,0,.5,1.333,1.929,1.929,0,0,0,1.4.485,1.923,1.923,0,0,0,1.395-.489A1.763,1.763,0,0,0,79.967-2.714Zm-1.9-6.337a1.632,1.632,0,0,0-1.207.461A1.7,1.7,0,0,0,76.4-7.335a1.687,1.687,0,0,0,.455,1.227,1.613,1.613,0,0,0,1.213.468,1.613,1.613,0,0,0,1.213-.468,1.687,1.687,0,0,0,.455-1.227,1.687,1.687,0,0,0-.472-1.237A1.609,1.609,0,0,0,78.066-9.051ZM82.981-.663a.792.792,0,0,1,.195-.547.742.742,0,0,1,.584-.219.765.765,0,0,1,.591.219.776.776,0,0,1,.2.547.734.734,0,0,1-.2.526.778.778,0,0,1-.591.212.755.755,0,0,1-.584-.212A.748.748,0,0,1,82.981-.663Zm5.366-4.929h.95a2.088,2.088,0,0,0,1.408-.472A1.576,1.576,0,0,0,91.219-7.3a1.544,1.544,0,0,0-1.743-1.75,1.813,1.813,0,0,0-1.309.468,1.639,1.639,0,0,0-.489,1.241H86.413a2.539,2.539,0,0,1,.865-1.965,3.15,3.15,0,0,1,2.2-.783,3.113,3.113,0,0,1,2.208.745,2.692,2.692,0,0,1,.8,2.071,2.185,2.185,0,0,1-.42,1.258,2.538,2.538,0,0,1-1.145.909,2.446,2.446,0,0,1,1.268.861,2.392,2.392,0,0,1,.448,1.47,2.715,2.715,0,0,1-.875,2.126,3.277,3.277,0,0,1-2.276.786A3.363,3.363,0,0,1,87.2-.622a2.517,2.517,0,0,1-.878-2H87.6a1.627,1.627,0,0,0,.513,1.258A1.95,1.95,0,0,0,89.482-.9a1.914,1.914,0,0,0,1.4-.479,1.844,1.844,0,0,0,.485-1.374,1.673,1.673,0,0,0-.533-1.333A2.323,2.323,0,0,0,89.3-4.56h-.95Zm5.913-2.447a2.02,2.02,0,0,1,.571-1.477A1.966,1.966,0,0,1,96.3-10.1a1.955,1.955,0,0,1,1.473.584A2.09,2.09,0,0,1,98.335-8v.485a1.994,1.994,0,0,1-.571,1.473,1.968,1.968,0,0,1-1.453.571,2.011,2.011,0,0,1-1.47-.571,2.036,2.036,0,0,1-.581-1.521Zm.943.524a1.293,1.293,0,0,0,.3.88,1.015,1.015,0,0,0,.807.346,1,1,0,0,0,.783-.336,1.336,1.336,0,0,0,.3-.918v-.5a1.326,1.326,0,0,0-.294-.884.99.99,0,0,0-.8-.349.99.99,0,0,0-.8.349,1.368,1.368,0,0,0-.294.911Zm3.9,5.075a2.008,2.008,0,0,1,.571-1.473,1.972,1.972,0,0,1,1.466-.578,1.99,1.99,0,0,1,1.47.574,2.06,2.06,0,0,1,.574,1.524v.485a2.008,2.008,0,0,1-.571,1.473,1.964,1.964,0,0,1-1.459.578,2.011,2.011,0,0,1-1.47-.571,2.036,2.036,0,0,1-.581-1.521Zm.943.53a1.3,1.3,0,0,0,.3.887,1.015,1.015,0,0,0,.807.346.988.988,0,0,0,.786-.339,1.359,1.359,0,0,0,.294-.922v-.507a1.3,1.3,0,0,0-.3-.884,1,1,0,0,0-.8-.343,1.011,1.011,0,0,0-.79.339,1.319,1.319,0,0,0-.3.915ZM96.6-.752,95.881-1.2l4.86-7.779.718.451Z" transform="translate(927 4129)" fill="#12263f"/>
    <path id="Trazado_707180" data-name="Trazado 707180" d="M4.088-4.437A6.172,6.172,0,0,1,1.63-5.629,2.279,2.279,0,0,1,.861-7.376,2.408,2.408,0,0,1,1.8-9.321a3.736,3.736,0,0,1,2.444-.769,4.078,4.078,0,0,1,1.829.4A3.007,3.007,0,0,1,7.318-8.6a2.8,2.8,0,0,1,.441,1.524H6.439A1.82,1.82,0,0,0,5.865-8.5a2.335,2.335,0,0,0-1.62-.518,2.391,2.391,0,0,0-1.514.428A1.428,1.428,0,0,0,2.188-7.4,1.285,1.285,0,0,0,2.7-6.37,5.062,5.062,0,0,0,4.46-5.6,8.152,8.152,0,0,1,6.4-4.83a2.946,2.946,0,0,1,1.039.981,2.5,2.5,0,0,1,.338,1.319A2.326,2.326,0,0,1,6.836-.591,4.022,4.022,0,0,1,4.313.137,4.678,4.678,0,0,1,2.4-.256,3.221,3.221,0,0,1,1.029-1.333,2.627,2.627,0,0,1,.547-2.885H1.866a1.714,1.714,0,0,0,.667,1.425,2.806,2.806,0,0,0,1.781.523A2.58,2.58,0,0,0,5.906-1.36,1.377,1.377,0,0,0,6.46-2.516a1.351,1.351,0,0,0-.513-1.131A5.911,5.911,0,0,0,4.088-4.437Zm4.84.67a4.369,4.369,0,0,1,.427-1.955,3.187,3.187,0,0,1,1.189-1.34,3.238,3.238,0,0,1,1.74-.472,3.119,3.119,0,0,1,2.444,1.046,4.024,4.024,0,0,1,.933,2.782v.089a4.407,4.407,0,0,1-.414,1.938A3.14,3.14,0,0,1,14.065-.342,3.275,3.275,0,0,1,12.3.137,3.111,3.111,0,0,1,9.861-.909a4,4,0,0,1-.933-2.769Zm1.271.15a3.164,3.164,0,0,0,.571,1.976A1.827,1.827,0,0,0,12.3-.9a1.816,1.816,0,0,0,1.531-.755A3.46,3.46,0,0,0,14.4-3.767a3.159,3.159,0,0,0-.578-1.972,1.836,1.836,0,0,0-1.535-.755,1.816,1.816,0,0,0-1.511.745A3.434,3.434,0,0,0,10.2-3.616ZM18.621,0H17.356V-10.5h1.265Zm6.59,0a2.657,2.657,0,0,1-.178-.779,2.822,2.822,0,0,1-2.105.916,2.611,2.611,0,0,1-1.794-.619,2,2,0,0,1-.7-1.569,2.091,2.091,0,0,1,.878-1.794,4.142,4.142,0,0,1,2.471-.639h1.23v-.581a1.42,1.42,0,0,0-.4-1.056,1.593,1.593,0,0,0-1.169-.393,1.844,1.844,0,0,0-1.135.342,1.007,1.007,0,0,0-.458.827H20.583a1.745,1.745,0,0,1,.393-1.07,2.683,2.683,0,0,1,1.066-.817,3.588,3.588,0,0,1,1.48-.3,2.924,2.924,0,0,1,2,.639,2.306,2.306,0,0,1,.752,1.76v3.4a4.162,4.162,0,0,0,.26,1.62V0Zm-2.1-.964a2.223,2.223,0,0,0,1.128-.308,1.861,1.861,0,0,0,.772-.8V-3.589h-.991q-2.324,0-2.324,1.36a1.151,1.151,0,0,0,.4.93A1.524,1.524,0,0,0,23.112-.964Zm8.723-5.3a3.79,3.79,0,0,0-.622-.048,1.667,1.667,0,0,0-1.688,1.06V0H28.26V-7.4h1.23l.021.854a1.969,1.969,0,0,1,1.764-.991,1.292,1.292,0,0,1,.561.1ZM42.574-4.245a5.784,5.784,0,0,1-.759,3.3A2.7,2.7,0,0,1,39.443.137,2.718,2.718,0,0,1,37.085-.919a5.49,5.49,0,0,1-.793-3.155V-5.763a5.655,5.655,0,0,1,.759-3.261A2.719,2.719,0,0,1,39.43-10.09a2.744,2.744,0,0,1,2.365,1.029,5.458,5.458,0,0,1,.779,3.175ZM41.31-5.975a4.634,4.634,0,0,0-.451-2.341,1.553,1.553,0,0,0-1.429-.735,1.532,1.532,0,0,0-1.415.731,4.525,4.525,0,0,0-.458,2.249v2.023a4.708,4.708,0,0,0,.468,2.382A1.55,1.55,0,0,0,39.443-.9a1.529,1.529,0,0,0,1.391-.725A4.538,4.538,0,0,0,41.31-3.9ZM44.352-.663a.792.792,0,0,1,.195-.547.742.742,0,0,1,.584-.219.765.765,0,0,1,.591.219.776.776,0,0,1,.2.547.734.734,0,0,1-.2.526.778.778,0,0,1-.591.212.755.755,0,0,1-.584-.212A.748.748,0,0,1,44.352-.663ZM52.035,0H50.764V-8.429l-2.55.937V-8.641L51.837-10h.2Zm3.6-8.039A2.02,2.02,0,0,1,56.2-9.516a1.966,1.966,0,0,1,1.466-.581,1.955,1.955,0,0,1,1.473.584A2.09,2.09,0,0,1,59.705-8v.485a1.994,1.994,0,0,1-.571,1.473,1.968,1.968,0,0,1-1.453.571,2.011,2.011,0,0,1-1.47-.571,2.036,2.036,0,0,1-.581-1.521Zm.943.524a1.294,1.294,0,0,0,.3.88,1.015,1.015,0,0,0,.807.346,1,1,0,0,0,.783-.336,1.336,1.336,0,0,0,.3-.918v-.5a1.326,1.326,0,0,0-.294-.884.99.99,0,0,0-.8-.349.99.99,0,0,0-.8.349,1.368,1.368,0,0,0-.294.911Zm3.9,5.075a2.008,2.008,0,0,1,.571-1.473,1.972,1.972,0,0,1,1.466-.578,1.99,1.99,0,0,1,1.47.574,2.06,2.06,0,0,1,.574,1.524v.485a2.008,2.008,0,0,1-.571,1.473,1.964,1.964,0,0,1-1.459.578,2.011,2.011,0,0,1-1.47-.571,2.036,2.036,0,0,1-.581-1.521Zm.943.53a1.3,1.3,0,0,0,.3.887,1.015,1.015,0,0,0,.807.346.988.988,0,0,0,.786-.339,1.359,1.359,0,0,0,.294-.922v-.507a1.3,1.3,0,0,0-.3-.884,1,1,0,0,0-.8-.343,1.011,1.011,0,0,0-.79.339,1.319,1.319,0,0,0-.3.915ZM57.969-.752,57.251-1.2l4.86-7.779.718.451Z" transform="translate(980 3777)" fill="#12263f"/>
    <path id="Trazado_707181" data-name="Trazado 707181" d="M8.477-3.158A3.662,3.662,0,0,1,7.311-.721,3.82,3.82,0,0,1,4.7.137,3.507,3.507,0,0,1,1.876-1.128,5.088,5.088,0,0,1,.813-4.512v-.957a5.671,5.671,0,0,1,.5-2.44,3.7,3.7,0,0,1,1.4-1.617,3.911,3.911,0,0,1,2.105-.564A3.6,3.6,0,0,1,7.362-9.2,3.706,3.706,0,0,1,8.477-6.754H7.157a2.86,2.86,0,0,0-.742-1.728,2.244,2.244,0,0,0-1.6-.535,2.348,2.348,0,0,0-1.972.93,4.271,4.271,0,0,0-.714,2.648v.965A4.391,4.391,0,0,0,2.81-1.894,2.187,2.187,0,0,0,4.7-.937a2.526,2.526,0,0,0,1.678-.5,2.75,2.75,0,0,0,.776-1.726Zm1.258-.608a4.369,4.369,0,0,1,.427-1.955,3.187,3.187,0,0,1,1.189-1.34,3.238,3.238,0,0,1,1.74-.472,3.119,3.119,0,0,1,2.444,1.046,4.024,4.024,0,0,1,.933,2.782v.089a4.407,4.407,0,0,1-.414,1.938A3.14,3.14,0,0,1,14.872-.342,3.275,3.275,0,0,1,13.1.137,3.111,3.111,0,0,1,10.667-.909a4,4,0,0,1-.933-2.769Zm1.271.15a3.164,3.164,0,0,0,.571,1.976A1.827,1.827,0,0,0,13.1-.9a1.816,1.816,0,0,0,1.531-.755A3.46,3.46,0,0,0,15.2-3.767a3.159,3.159,0,0,0-.578-1.972,1.836,1.836,0,0,0-1.535-.755,1.816,1.816,0,0,0-1.511.745A3.434,3.434,0,0,0,11.006-3.616Zm6.747-.144a4.347,4.347,0,0,1,.8-2.751,2.558,2.558,0,0,1,2.119-1.022,2.544,2.544,0,0,1,2.112.957l.062-.82H24V-.178a3.009,3.009,0,0,1-.851,2.263,3.141,3.141,0,0,1-2.287.827A3.8,3.8,0,0,1,19.3,2.57a2.7,2.7,0,0,1-1.169-.937l.656-.759a2.473,2.473,0,0,0,1.989,1,1.938,1.938,0,0,0,1.439-.52A1.986,1.986,0,0,0,22.729-.1V-.738a2.6,2.6,0,0,1-2.071.875,2.527,2.527,0,0,1-2.1-1.046A4.571,4.571,0,0,1,17.753-3.76Zm1.271.144a3.316,3.316,0,0,0,.513,1.965,1.666,1.666,0,0,0,1.436.714,1.852,1.852,0,0,0,1.757-1.087V-5.4a1.874,1.874,0,0,0-1.743-1.06,1.681,1.681,0,0,0-1.442.718A3.612,3.612,0,0,0,19.024-3.616ZM28.978.137A3.232,3.232,0,0,1,26.53-.851a3.666,3.666,0,0,1-.943-2.642v-.232a4.438,4.438,0,0,1,.42-1.965,3.28,3.28,0,0,1,1.176-1.354,2.956,2.956,0,0,1,1.637-.489,2.77,2.77,0,0,1,2.242.95,4.114,4.114,0,0,1,.8,2.721v.526H26.852a2.629,2.629,0,0,0,.639,1.767A2.009,2.009,0,0,0,29.046-.9a2.2,2.2,0,0,0,1.135-.273,2.851,2.851,0,0,0,.813-.725l.772.6A3.106,3.106,0,0,1,28.978.137ZM28.82-6.494a1.687,1.687,0,0,0-1.285.557,2.708,2.708,0,0,0-.643,1.562H30.6v-.1a2.409,2.409,0,0,0-.52-1.494A1.588,1.588,0,0,0,28.82-6.494Zm5.7-.9.041.93a2.7,2.7,0,0,1,2.215-1.066q2.345,0,2.365,2.646V0H37.878V-4.895a1.7,1.7,0,0,0-.366-1.183,1.466,1.466,0,0,0-1.118-.383,1.825,1.825,0,0,0-1.08.328,2.228,2.228,0,0,0-.725.861V0H33.325V-7.4Zm9.6,7.533a3.232,3.232,0,0,1-2.447-.988,3.666,3.666,0,0,1-.943-2.642v-.232a4.438,4.438,0,0,1,.42-1.965,3.28,3.28,0,0,1,1.176-1.354,2.956,2.956,0,0,1,1.637-.489,2.77,2.77,0,0,1,2.242.95A4.114,4.114,0,0,1,47-3.862v.526H41.993a2.629,2.629,0,0,0,.639,1.767A2.009,2.009,0,0,0,44.188-.9a2.2,2.2,0,0,0,1.135-.273,2.851,2.851,0,0,0,.813-.725l.772.6A3.106,3.106,0,0,1,44.119.137Zm-.157-6.631a1.687,1.687,0,0,0-1.285.557,2.708,2.708,0,0,0-.643,1.562h3.705v-.1a2.409,2.409,0,0,0-.52-1.494A1.588,1.588,0,0,0,43.962-6.494Zm8.08.232a3.79,3.79,0,0,0-.622-.048,1.667,1.667,0,0,0-1.688,1.06V0H48.467V-7.4H49.7l.021.854a1.969,1.969,0,0,1,1.764-.991,1.292,1.292,0,0,1,.561.1ZM57.5,0a2.657,2.657,0,0,1-.178-.779,2.822,2.822,0,0,1-2.105.916,2.611,2.611,0,0,1-1.794-.619,2,2,0,0,1-.7-1.569A2.091,2.091,0,0,1,53.6-3.845a4.142,4.142,0,0,1,2.471-.639H57.3v-.581a1.42,1.42,0,0,0-.4-1.056,1.593,1.593,0,0,0-1.169-.393,1.844,1.844,0,0,0-1.135.342,1.007,1.007,0,0,0-.458.827H52.869a1.745,1.745,0,0,1,.393-1.07,2.683,2.683,0,0,1,1.066-.817,3.588,3.588,0,0,1,1.48-.3,2.924,2.924,0,0,1,2,.639,2.306,2.306,0,0,1,.752,1.76v3.4a4.162,4.162,0,0,0,.26,1.62V0ZM55.4-.964a2.223,2.223,0,0,0,1.128-.308,1.861,1.861,0,0,0,.772-.8V-3.589h-.991q-2.324,0-2.324,1.36a1.151,1.151,0,0,0,.4.93A1.524,1.524,0,0,0,55.4-.964Zm4.84-2.8A4.333,4.333,0,0,1,61.045-6.5a2.551,2.551,0,0,1,2.112-1.036,2.565,2.565,0,0,1,2.058.889V-10.5h1.265V0H65.317l-.062-.793a2.575,2.575,0,0,1-2.112.93,2.526,2.526,0,0,1-2.1-1.053,4.382,4.382,0,0,1-.81-2.748Zm1.265.144a3.281,3.281,0,0,0,.52,1.969,1.68,1.68,0,0,0,1.436.711,1.845,1.845,0,0,0,1.757-1.08v-3.4A1.859,1.859,0,0,0,63.472-6.46a1.687,1.687,0,0,0-1.449.718A3.612,3.612,0,0,0,61.5-3.616Zm6.6-.15a4.369,4.369,0,0,1,.427-1.955,3.187,3.187,0,0,1,1.189-1.34,3.238,3.238,0,0,1,1.74-.472,3.119,3.119,0,0,1,2.444,1.046,4.024,4.024,0,0,1,.933,2.782v.089a4.407,4.407,0,0,1-.414,1.938A3.14,3.14,0,0,1,73.244-.342a3.275,3.275,0,0,1-1.767.479A3.111,3.111,0,0,1,69.04-.909a4,4,0,0,1-.933-2.769Zm1.271.15a3.164,3.164,0,0,0,.571,1.976A1.827,1.827,0,0,0,71.477-.9a1.816,1.816,0,0,0,1.531-.755,3.46,3.46,0,0,0,.567-2.116A3.159,3.159,0,0,0,73-5.739a1.836,1.836,0,0,0-1.535-.755,1.816,1.816,0,0,0-1.511.745A3.434,3.434,0,0,0,69.378-3.616ZM80-6.262a3.79,3.79,0,0,0-.622-.048A1.667,1.667,0,0,0,77.69-5.25V0H76.426V-7.4h1.23l.021.854a1.969,1.969,0,0,1,1.764-.991,1.292,1.292,0,0,1,.561.1ZM90.74-4.245a5.784,5.784,0,0,1-.759,3.3A2.7,2.7,0,0,1,87.609.137,2.718,2.718,0,0,1,85.251-.919a5.49,5.49,0,0,1-.793-3.155V-5.763a5.655,5.655,0,0,1,.759-3.261A2.719,2.719,0,0,1,87.6-10.09a2.744,2.744,0,0,1,2.365,1.029,5.458,5.458,0,0,1,.779,3.175ZM89.476-5.975a4.634,4.634,0,0,0-.451-2.341A1.553,1.553,0,0,0,87.6-9.051a1.532,1.532,0,0,0-1.415.731,4.525,4.525,0,0,0-.458,2.249v2.023a4.708,4.708,0,0,0,.468,2.382A1.55,1.55,0,0,0,87.609-.9,1.529,1.529,0,0,0,89-1.62,4.538,4.538,0,0,0,89.476-3.9ZM92.518-.663a.792.792,0,0,1,.195-.547.742.742,0,0,1,.584-.219.765.765,0,0,1,.591.219.776.776,0,0,1,.2.547.734.734,0,0,1-.2.526A.778.778,0,0,1,93.3.075a.755.755,0,0,1-.584-.212A.748.748,0,0,1,92.518-.663Zm8.374-3.712a3.094,3.094,0,0,1-.947.759,2.569,2.569,0,0,1-1.207.287,2.652,2.652,0,0,1-1.5-.424,2.755,2.755,0,0,1-.988-1.193,4.067,4.067,0,0,1-.349-1.7,4.143,4.143,0,0,1,.379-1.8,2.787,2.787,0,0,1,1.077-1.224,3.07,3.07,0,0,1,1.627-.424,2.78,2.78,0,0,1,2.328,1.1,4.815,4.815,0,0,1,.851,3.011v.369a6.434,6.434,0,0,1-1.148,4.242A4.412,4.412,0,0,1,97.549.007H97.3V-1.066h.267a3.482,3.482,0,0,0,2.406-.815A3.5,3.5,0,0,0,100.892-4.375Zm-1.948,0a1.953,1.953,0,0,0,1.172-.39,2.3,2.3,0,0,0,.783-.964v-.506a3.48,3.48,0,0,0-.54-2.023,1.611,1.611,0,0,0-1.367-.779,1.624,1.624,0,0,0-1.34.639,2.637,2.637,0,0,0-.506,1.685,2.744,2.744,0,0,0,.489,1.678A1.548,1.548,0,0,0,98.943-4.375ZM103.8-8.039a2.02,2.02,0,0,1,.571-1.477,1.966,1.966,0,0,1,1.466-.581,1.955,1.955,0,0,1,1.473.584A2.09,2.09,0,0,1,107.871-8v.485A1.994,1.994,0,0,1,107.3-6.04a1.968,1.968,0,0,1-1.453.571,2.011,2.011,0,0,1-1.47-.571,2.036,2.036,0,0,1-.581-1.521Zm.943.524a1.293,1.293,0,0,0,.3.88,1.015,1.015,0,0,0,.807.346,1,1,0,0,0,.783-.336,1.336,1.336,0,0,0,.3-.918v-.5a1.326,1.326,0,0,0-.294-.884.99.99,0,0,0-.8-.349.99.99,0,0,0-.8.349,1.368,1.368,0,0,0-.294.911Zm3.9,5.075a2.008,2.008,0,0,1,.571-1.473,1.972,1.972,0,0,1,1.466-.578,1.99,1.99,0,0,1,1.47.574,2.06,2.06,0,0,1,.574,1.524v.485a2.008,2.008,0,0,1-.571,1.473,1.964,1.964,0,0,1-1.459.578,2.011,2.011,0,0,1-1.47-.571,2.036,2.036,0,0,1-.581-1.521Zm.943.53a1.3,1.3,0,0,0,.3.887,1.015,1.015,0,0,0,.807.346.988.988,0,0,0,.786-.339,1.359,1.359,0,0,0,.294-.922v-.507a1.3,1.3,0,0,0-.3-.884,1,1,0,0,0-.8-.343,1.011,1.011,0,0,0-.79.339,1.319,1.319,0,0,0-.3.915ZM106.135-.752l-.718-.451,4.86-7.779.718.451Z" transform="translate(810 3822)" fill="#12263f"/>
    <path id="Trazado_707182" data-name="Trazado 707182" d="M6.781-4.6H2.468v3.527H7.479V0H1.155V-9.953H7.41V-8.88H2.468v3.206H6.781Zm1.668.834a4.369,4.369,0,0,1,.427-1.955,3.187,3.187,0,0,1,1.189-1.34,3.238,3.238,0,0,1,1.74-.472A3.119,3.119,0,0,1,14.25-6.487a4.024,4.024,0,0,1,.933,2.782v.089a4.407,4.407,0,0,1-.414,1.938A3.14,3.14,0,0,1,13.586-.342a3.275,3.275,0,0,1-1.767.479A3.111,3.111,0,0,1,9.382-.909a4,4,0,0,1-.933-2.769Zm1.271.15a3.164,3.164,0,0,0,.571,1.976A1.827,1.827,0,0,0,11.819-.9a1.816,1.816,0,0,0,1.531-.755,3.46,3.46,0,0,0,.567-2.116,3.159,3.159,0,0,0-.578-1.972,1.836,1.836,0,0,0-1.535-.755,1.816,1.816,0,0,0-1.511.745A3.434,3.434,0,0,0,9.721-3.616ZM12.38-10.5h1.531L12.079-8.49l-1.019,0ZM18.143,0H16.878V-10.5h1.265Zm3.4,0H20.275V-7.4H21.54ZM20.173-9.358a.755.755,0,0,1,.188-.52.706.706,0,0,1,.557-.212.717.717,0,0,1,.561.212.747.747,0,0,1,.191.52.722.722,0,0,1-.191.513.73.73,0,0,1-.561.205.718.718,0,0,1-.557-.205A.73.73,0,0,1,20.173-9.358ZM26.53-.9a1.822,1.822,0,0,0,1.183-.41,1.443,1.443,0,0,0,.561-1.025h1.2a2.293,2.293,0,0,1-.437,1.21,2.881,2.881,0,0,1-1.077.916A3.107,3.107,0,0,1,26.53.137a3.047,3.047,0,0,1-2.4-1.008,4.016,4.016,0,0,1-.892-2.758v-.212a4.453,4.453,0,0,1,.4-1.921A3.02,3.02,0,0,1,24.77-7.068a3.233,3.233,0,0,1,1.753-.465,2.966,2.966,0,0,1,2.068.745,2.663,2.663,0,0,1,.878,1.935h-1.2a1.743,1.743,0,0,0-.543-1.179,1.691,1.691,0,0,0-1.207-.461A1.77,1.77,0,0,0,25.03-5.8a3.259,3.259,0,0,0-.53,2.006v.239a3.194,3.194,0,0,0,.526,1.969A1.779,1.779,0,0,0,26.53-.9Zm8.928.9a2.657,2.657,0,0,1-.178-.779,2.822,2.822,0,0,1-2.105.916A2.611,2.611,0,0,1,31.38-.482a2,2,0,0,1-.7-1.569,2.091,2.091,0,0,1,.878-1.794,4.142,4.142,0,0,1,2.471-.639h1.23v-.581a1.42,1.42,0,0,0-.4-1.056,1.593,1.593,0,0,0-1.169-.393,1.844,1.844,0,0,0-1.135.342,1.007,1.007,0,0,0-.458.827H30.83a1.745,1.745,0,0,1,.393-1.07,2.683,2.683,0,0,1,1.066-.817,3.588,3.588,0,0,1,1.48-.3,2.924,2.924,0,0,1,2,.639,2.306,2.306,0,0,1,.752,1.76v3.4a4.162,4.162,0,0,0,.26,1.62V0Zm-2.1-.964a2.223,2.223,0,0,0,1.128-.308,1.861,1.861,0,0,0,.772-.8V-3.589h-.991q-2.324,0-2.324,1.36a1.151,1.151,0,0,0,.4.93A1.524,1.524,0,0,0,33.359-.964ZM48.084-4.245a5.784,5.784,0,0,1-.759,3.3A2.7,2.7,0,0,1,44.953.137,2.718,2.718,0,0,1,42.595-.919,5.49,5.49,0,0,1,41.8-4.074V-5.763a5.655,5.655,0,0,1,.759-3.261,2.719,2.719,0,0,1,2.379-1.066A2.744,2.744,0,0,1,47.3-9.061a5.458,5.458,0,0,1,.779,3.175ZM46.819-5.975a4.634,4.634,0,0,0-.451-2.341,1.553,1.553,0,0,0-1.429-.735,1.532,1.532,0,0,0-1.415.731,4.525,4.525,0,0,0-.458,2.249v2.023a4.708,4.708,0,0,0,.468,2.382A1.55,1.55,0,0,0,44.953-.9a1.529,1.529,0,0,0,1.391-.725A4.538,4.538,0,0,0,46.819-3.9ZM49.861-.663a.792.792,0,0,1,.195-.547.742.742,0,0,1,.584-.219.765.765,0,0,1,.591.219.776.776,0,0,1,.2.547.734.734,0,0,1-.2.526.778.778,0,0,1-.591.212.755.755,0,0,1-.584-.212A.748.748,0,0,1,49.861-.663ZM57.545,0H56.273V-8.429l-2.55.937V-8.641L57.347-10h.2Zm3.6-8.039a2.02,2.02,0,0,1,.571-1.477,1.966,1.966,0,0,1,1.466-.581,1.955,1.955,0,0,1,1.473.584A2.09,2.09,0,0,1,65.215-8v.485a1.994,1.994,0,0,1-.571,1.473,1.968,1.968,0,0,1-1.453.571,2.011,2.011,0,0,1-1.47-.571,2.036,2.036,0,0,1-.581-1.521Zm.943.524a1.294,1.294,0,0,0,.3.88,1.015,1.015,0,0,0,.807.346,1,1,0,0,0,.783-.336,1.336,1.336,0,0,0,.3-.918v-.5a1.326,1.326,0,0,0-.294-.884.99.99,0,0,0-.8-.349.99.99,0,0,0-.8.349,1.368,1.368,0,0,0-.294.911Zm3.9,5.075a2.008,2.008,0,0,1,.571-1.473,1.972,1.972,0,0,1,1.466-.578,1.99,1.99,0,0,1,1.47.574,2.06,2.06,0,0,1,.574,1.524v.485A2.008,2.008,0,0,1,69.5-.434a1.964,1.964,0,0,1-1.459.578,2.011,2.011,0,0,1-1.47-.571,2.036,2.036,0,0,1-.581-1.521Zm.943.53a1.3,1.3,0,0,0,.3.887,1.015,1.015,0,0,0,.807.346.988.988,0,0,0,.786-.339,1.359,1.359,0,0,0,.294-.922v-.507a1.3,1.3,0,0,0-.3-.884,1,1,0,0,0-.8-.343,1.011,1.011,0,0,0-.79.339,1.319,1.319,0,0,0-.3.915ZM63.479-.752,62.761-1.2l4.86-7.779.718.451Z" transform="translate(874 3787)" fill="#12263f"/>
    <path id="Trazado_707183" data-name="Trazado 707183" d="M8.032-8.88h-3.2V0H3.527V-8.88H.335V-9.953h7.7ZM11.7.137A3.232,3.232,0,0,1,9.256-.851a3.666,3.666,0,0,1-.943-2.642v-.232a4.438,4.438,0,0,1,.42-1.965A3.28,3.28,0,0,1,9.909-7.044a2.956,2.956,0,0,1,1.637-.489,2.77,2.77,0,0,1,2.242.95,4.114,4.114,0,0,1,.8,2.721v.526H9.577a2.629,2.629,0,0,0,.639,1.767A2.009,2.009,0,0,0,11.771-.9a2.2,2.2,0,0,0,1.135-.273,2.851,2.851,0,0,0,.813-.725l.772.6A3.106,3.106,0,0,1,11.7.137Zm-.157-6.631a1.687,1.687,0,0,0-1.285.557,2.708,2.708,0,0,0-.643,1.562h3.705v-.1a2.409,2.409,0,0,0-.52-1.494A1.588,1.588,0,0,0,11.546-6.494Zm.615-4.006h1.531L11.86-8.49l-1.019,0Zm7.465,4.238A3.79,3.79,0,0,0,19-6.31a1.667,1.667,0,0,0-1.688,1.06V0H16.051V-7.4h1.23l.021.854a1.969,1.969,0,0,1,1.764-.991,1.292,1.292,0,0,1,.561.1ZM21.978-7.4l.034.82a2.732,2.732,0,0,1,2.194-.957,2.115,2.115,0,0,1,2.112,1.189,2.8,2.8,0,0,1,.96-.861,2.837,2.837,0,0,1,1.4-.328q2.434,0,2.475,2.577V0H29.887V-4.881a1.7,1.7,0,0,0-.362-1.186,1.6,1.6,0,0,0-1.217-.393,1.677,1.677,0,0,0-1.169.42,1.706,1.706,0,0,0-.54,1.131V0H25.327V-4.847A1.411,1.411,0,0,0,23.748-6.46a1.692,1.692,0,0,0-1.7,1.06V0H20.781V-7.4ZM34.433,0H33.168V-7.4h1.265ZM33.065-9.358a.755.755,0,0,1,.188-.52.706.706,0,0,1,.557-.212.717.717,0,0,1,.561.212.747.747,0,0,1,.191.52.722.722,0,0,1-.191.513.73.73,0,0,1-.561.205.718.718,0,0,1-.557-.205A.73.73,0,0,1,33.065-9.358ZM39.423-.9a1.822,1.822,0,0,0,1.183-.41,1.443,1.443,0,0,0,.561-1.025h1.2a2.293,2.293,0,0,1-.437,1.21,2.881,2.881,0,0,1-1.077.916,3.107,3.107,0,0,1-1.425.342,3.047,3.047,0,0,1-2.4-1.008,4.016,4.016,0,0,1-.892-2.758v-.212a4.453,4.453,0,0,1,.4-1.921,3.02,3.02,0,0,1,1.138-1.306,3.233,3.233,0,0,1,1.753-.465,2.966,2.966,0,0,1,2.068.745,2.663,2.663,0,0,1,.878,1.935h-1.2a1.743,1.743,0,0,0-.543-1.179,1.691,1.691,0,0,0-1.207-.461,1.77,1.77,0,0,0-1.494.694,3.259,3.259,0,0,0-.53,2.006v.239a3.194,3.194,0,0,0,.526,1.969A1.779,1.779,0,0,0,39.423-.9Zm8.928.9a2.657,2.657,0,0,1-.178-.779,2.822,2.822,0,0,1-2.105.916,2.611,2.611,0,0,1-1.794-.619,2,2,0,0,1-.7-1.569,2.091,2.091,0,0,1,.878-1.794,4.142,4.142,0,0,1,2.471-.639h1.23v-.581a1.42,1.42,0,0,0-.4-1.056,1.593,1.593,0,0,0-1.169-.393,1.844,1.844,0,0,0-1.135.342,1.007,1.007,0,0,0-.458.827H43.723a1.745,1.745,0,0,1,.393-1.07,2.683,2.683,0,0,1,1.066-.817,3.588,3.588,0,0,1,1.48-.3,2.924,2.924,0,0,1,2,.639,2.306,2.306,0,0,1,.752,1.76v3.4a4.162,4.162,0,0,0,.26,1.62V0Zm-2.1-.964a2.223,2.223,0,0,0,1.128-.308,1.861,1.861,0,0,0,.772-.8V-3.589h-.991q-2.324,0-2.324,1.36a1.151,1.151,0,0,0,.4.93A1.524,1.524,0,0,0,46.252-.964ZM56.574-5.592h.95a2.088,2.088,0,0,0,1.408-.472A1.576,1.576,0,0,0,59.445-7.3,1.544,1.544,0,0,0,57.7-9.051a1.813,1.813,0,0,0-1.309.468A1.639,1.639,0,0,0,55.9-7.342H54.64A2.539,2.539,0,0,1,55.5-9.307a3.15,3.15,0,0,1,2.2-.783,3.113,3.113,0,0,1,2.208.745,2.692,2.692,0,0,1,.8,2.071,2.185,2.185,0,0,1-.42,1.258,2.538,2.538,0,0,1-1.145.909,2.446,2.446,0,0,1,1.268.861,2.392,2.392,0,0,1,.448,1.47,2.715,2.715,0,0,1-.875,2.126,3.277,3.277,0,0,1-2.276.786,3.363,3.363,0,0,1-2.28-.759,2.517,2.517,0,0,1-.878-2h1.271a1.627,1.627,0,0,0,.513,1.258A1.95,1.95,0,0,0,57.709-.9a1.914,1.914,0,0,0,1.4-.479A1.844,1.844,0,0,0,59.6-2.748a1.673,1.673,0,0,0-.533-1.333,2.323,2.323,0,0,0-1.538-.479h-.95ZM68.838-4.245a5.784,5.784,0,0,1-.759,3.3A2.7,2.7,0,0,1,65.707.137,2.718,2.718,0,0,1,63.349-.919a5.49,5.49,0,0,1-.793-3.155V-5.763a5.655,5.655,0,0,1,.759-3.261,2.719,2.719,0,0,1,2.379-1.066,2.744,2.744,0,0,1,2.365,1.029,5.458,5.458,0,0,1,.779,3.175ZM67.573-5.975a4.634,4.634,0,0,0-.451-2.341,1.553,1.553,0,0,0-1.429-.735,1.532,1.532,0,0,0-1.415.731A4.525,4.525,0,0,0,63.82-6.07v2.023a4.708,4.708,0,0,0,.468,2.382A1.55,1.55,0,0,0,65.707-.9,1.529,1.529,0,0,0,67.1-1.62,4.538,4.538,0,0,0,67.573-3.9ZM70.615-.663a.792.792,0,0,1,.195-.547.742.742,0,0,1,.584-.219.765.765,0,0,1,.591.219.776.776,0,0,1,.2.547.734.734,0,0,1-.2.526.778.778,0,0,1-.591.212.755.755,0,0,1-.584-.212A.748.748,0,0,1,70.615-.663Zm9.953-8.579L76.446,0H75.12l4.108-8.914H73.842V-9.953h6.727Zm1.326,1.2a2.02,2.02,0,0,1,.571-1.477,1.966,1.966,0,0,1,1.466-.581,1.955,1.955,0,0,1,1.473.584A2.09,2.09,0,0,1,85.969-8v.485A1.994,1.994,0,0,1,85.4-6.04a1.968,1.968,0,0,1-1.453.571,2.011,2.011,0,0,1-1.47-.571,2.036,2.036,0,0,1-.581-1.521Zm.943.524a1.293,1.293,0,0,0,.3.88,1.015,1.015,0,0,0,.807.346,1,1,0,0,0,.783-.336,1.336,1.336,0,0,0,.3-.918v-.5a1.326,1.326,0,0,0-.294-.884.99.99,0,0,0-.8-.349.99.99,0,0,0-.8.349,1.368,1.368,0,0,0-.294.911Zm3.9,5.075a2.008,2.008,0,0,1,.571-1.473,1.972,1.972,0,0,1,1.466-.578,1.99,1.99,0,0,1,1.47.574,2.06,2.06,0,0,1,.574,1.524v.485a2.008,2.008,0,0,1-.571,1.473,1.964,1.964,0,0,1-1.459.578,2.011,2.011,0,0,1-1.47-.571,2.036,2.036,0,0,1-.581-1.521Zm.943.53a1.3,1.3,0,0,0,.3.887,1.015,1.015,0,0,0,.807.346.988.988,0,0,0,.786-.339,1.359,1.359,0,0,0,.294-.922v-.507a1.3,1.3,0,0,0-.3-.884,1,1,0,0,0-.8-.343,1.011,1.011,0,0,0-.79.339,1.319,1.319,0,0,0-.3.915ZM84.232-.752,83.515-1.2l4.86-7.779.718.451Z" transform="translate(1186 3795)" fill="#12263f"/>
    <path id="Trazado_707184" data-name="Trazado 707184" d="M27.746,0,0,55.492" transform="translate(980.505 4052.65)" fill="none" stroke="#25ffff" stroke-width="3"/>
    <path id="Trazado_707185" data-name="Trazado 707185" d="M28,0,0,56" transform="translate(1140 3789)" fill="none" stroke="#25ffff" stroke-width="3"/>
    <path id="Trazado_707186" data-name="Trazado 707186" d="M0,0,53,41" transform="translate(927 3824)" fill="none" stroke="#25ffff" stroke-width="3"/>
    <path id="Trazado_707187" data-name="Trazado 707187" d="M0,0,45,54" transform="translate(946 3799)" fill="none" stroke="#25ffff" stroke-width="3"/>
    <path id="Trazado_707188" data-name="Trazado 707188" d="M0,0,18,57" transform="translate(980 3788)" fill="none" stroke="#25ffff" stroke-width="3"/>
  </g>
</svg>
