<svg id="energia-geotermica" xmlns="http://www.w3.org/2000/svg" width="105" height="105" viewBox="0 0 105 105">
  <path id="Trazado_663223" data-name="Trazado 663223" d="M102.785,67.625a52.5,52.5,0,1,0-100.569,0L52.5,81.981Z" fill="#ffe377"/>
  <path id="Trazado_663224" data-name="Trazado 663224" d="M112.512,52.062l-.137,13.2L103.5,56.389l-.43.43-4.728-4.728L90.479,53.1l-.447,3.19-6.278,3.173L87.686,63.4l-2.307,2.16L88.323,68.5l-5,35.693,4.4,5.5,31.017,8.855,50.285-14.356a52.65,52.65,0,0,0-2.775-37.486L145.543,46Z" transform="translate(-66.238 -36.57)" fill="#fc0"/>
  <circle id="Elipse_5558" data-name="Elipse 5558" cx="3.13" cy="3.13" r="3.13" transform="translate(43.145 12.362)" fill="#d6e9f8"/>
  <path id="Trazado_663225" data-name="Trazado 663225" d="M240.74,35.538l-5.28,5.28a5.28,5.28,0,1,1,0-10.561Z" transform="translate(-182.974 -24.053)" fill="#d6e9f8"/>
  <circle id="Elipse_5559" data-name="Elipse 5559" cx="8.392" cy="8.392" r="8.392" transform="translate(52.485 4.574)" fill="#b2d7f3"/>
  <circle id="Elipse_5560" data-name="Elipse 5560" cx="10.368" cy="10.368" r="10.368" transform="translate(61.605 6.398)" fill="#b2d7f3"/>
  <path id="Trazado_663226" data-name="Trazado 663226" d="M99.264,130.993,93.811,89.152h1.778V86.076H93.41l-.393-3.016h4.2V79.983h-4.6l-.56-4.3h-9.43l-.56,4.3h-4.6V83.06h4.2l-.393,3.016H79.093v3.076h1.778l-5.453,41.841Zm-20.343-3.076,1.941-14.9H93.819l1.941,14.9ZM82.977,96.8l2.3,2.574-3.086,3.453Zm9.514,6.026L89.4,99.37l2.3-2.574Zm.7,5.4.224,1.719H81.263l.224-1.719,5.854-6.548ZM85.327,78.762h4.028l.159,1.221H85.168Zm-.56,4.3h5.148l.393,3.016H84.374Zm5.942,6.092.471,3.616-3.839,4.295L83.5,92.768l.471-3.616Z" transform="translate(-59.951 -60.164)" fill="#ff9e22"/>
  <path id="Trazado_663227" data-name="Trazado 663227" d="M61.083,341.409V329.752H10.8a52.15,52.15,0,0,0,2,5.5Z" transform="translate(-8.583 -262.127)" fill="#c2db4b"/>
  <path id="Trazado_663228" data-name="Trazado 663228" d="M304.287,335.256a52.085,52.085,0,0,0,2-5.5H256v11.657Z" transform="translate(-203.5 -262.127)" fill="#9fbd28"/>
  <g id="Grupo_971733" data-name="Grupo 971733" transform="translate(43.414 16.766)">
    <path id="Trazado_663229" data-name="Trazado 663229" d="M217.416,120.409l-2.861,2.051-2.861-2.051V81.754h5.721Z" transform="translate(-211.695 -81.754)" fill="#fff"/>
    <g id="Grupo_971732" data-name="Grupo 971732" transform="translate(0 4.593)">
      <path id="Trazado_663230" data-name="Trazado 663230" d="M211.7,104.15h5.721v5.906H211.7Z" transform="translate(-211.695 -104.15)" fill="#ff4c04"/>
      <path id="Trazado_663231" data-name="Trazado 663231" d="M211.7,161.941h5.721v5.906H211.7Z" transform="translate(-211.695 -150.089)" fill="#ff4c04"/>
      <path id="Trazado_663232" data-name="Trazado 663232" d="M211.7,219.731h5.721v5.906H211.7Z" transform="translate(-211.695 -196.028)" fill="#ff4c04"/>
    </g>
  </g>
  <path id="Trazado_663233" data-name="Trazado 663233" d="M20.458,356.59a52.7,52.7,0,0,0,19.6,23.345l3.879,2.3a52.262,52.262,0,0,0,24.81,6.221l8.2-31.871Z" transform="translate(-16.263 -283.461)" fill="#7f6d67"/>
  <path id="Trazado_663234" data-name="Trazado 663234" d="M255.926,388.461a52.262,52.262,0,0,0,24.821-6.227l3.894-2.316a52.7,52.7,0,0,0,19.574-23.328h-48.29v31.871Z" transform="translate(-203.441 -283.461)" fill="#504541"/>
  <g id="Grupo_971736" data-name="Grupo 971736" transform="translate(55.884 16.766)">
    <g id="Grupo_971734" data-name="Grupo 971734">
      <path id="Trazado_663235" data-name="Trazado 663235" d="M278.221,120.409l-2.861,2.051-2.861-2.051V81.754h5.721Z" transform="translate(-272.5 -81.754)" fill="#faffd3"/>
    </g>
    <g id="Grupo_971735" data-name="Grupo 971735" transform="translate(0 4.593)">
      <path id="Trazado_663236" data-name="Trazado 663236" d="M272.5,104.15h5.721v5.906H272.5Z" transform="translate(-272.5 -104.15)" fill="#be3700"/>
      <path id="Trazado_663237" data-name="Trazado 663237" d="M272.5,161.941h5.721v5.906H272.5Z" transform="translate(-272.5 -150.089)" fill="#be3700"/>
      <path id="Trazado_663238" data-name="Trazado 663238" d="M272.5,219.731h5.721v5.906H272.5Z" transform="translate(-272.5 -196.028)" fill="#be3700"/>
    </g>
  </g>
  <g id="Grupo_971738" data-name="Grupo 971738" transform="translate(31.763 48.037)">
    <path id="Trazado_663239" data-name="Trazado 663239" d="M175.6,257.091H154.881V234.239h20.737l7,11.426Z" transform="translate(-154.881 -234.239)" fill="#7f6d67"/>
    <path id="Trazado_663240" data-name="Trazado 663240" d="M255.927,234.239h20.722v22.852H255.927Z" transform="translate(-235.205 -234.239)" fill="#504541"/>
    <path id="Trazado_663241" data-name="Trazado 663241" d="M197.143,274.168h3.486v12.3h-3.486Z" transform="translate(-188.476 -265.979)" fill="#b2d7f3"/>
    <path id="Trazado_663242" data-name="Trazado 663242" d="M230.666,274.168h3.486v12.3h-3.486Z" transform="translate(-215.124 -265.979)" fill="#b2d7f3"/>
    <g id="Grupo_971737" data-name="Grupo 971737" transform="translate(22.417 8.189)">
      <path id="Trazado_663243" data-name="Trazado 663243" d="M264.189,274.168h3.486v12.3h-3.486Z" transform="translate(-264.189 -274.168)" fill="#86bfec"/>
      <path id="Trazado_663244" data-name="Trazado 663244" d="M297.712,274.168H301.2v12.3h-3.486Z" transform="translate(-290.837 -274.168)" fill="#86bfec"/>
    </g>
  </g>
  <path id="Trazado_663245" data-name="Trazado 663245" d="M116.033,313.607q1.894,1.239,3.9,2.318v-38.86h6.97v-3.9H116.033Z" transform="translate(-92.237 -217.146)" fill="#ff4c04"/>
  <path id="Trazado_663246" data-name="Trazado 663246" d="M342.976,277.064h6.97v38.861q2-1.076,3.9-2.318v-40.44H342.976Z" transform="translate(-272.639 -217.146)" fill="#5aa9e6"/>
  <path id="Trazado_663247" data-name="Trazado 663247" d="M261.207,35.538a5.28,5.28,0,0,1-5.28,5.28V30.258A5.28,5.28,0,0,1,261.207,35.538Z" transform="translate(-203.442 -24.053)" fill="#b2d7f3"/>
</svg>
