<svg xmlns="http://www.w3.org/2000/svg" xmlns:xlink="http://www.w3.org/1999/xlink" width="125.309" height="130.807" viewBox="0 0 125.309 130.807">
  <defs>
    <clipPath id="clip-path">
      <rect id="Rectángulo_345976" data-name="Rectángulo 345976" width="105" height="98.807" fill="none"/>
    </clipPath>
  </defs>
  <g id="Grupo_999985" data-name="Grupo 999985" transform="translate(-603 -15924)">
    <circle id="Elipse_7910" data-name="Elipse 7910" cx="52.5" cy="52.5" r="52.5" transform="translate(603 15933)" fill="#ad84ff"/>
    <g id="Grupo_999723" data-name="Grupo 999723" transform="translate(6048.659 22466.617)">
      <rect id="Rectángulo_5300" data-name="Rectángulo 5300" width="123" height="123" transform="translate(-5443.351 -6542.617)" fill="none"/>
      <g id="Grupo_999727" data-name="Grupo 999727" transform="translate(-5445.659 -6510.617)">
        <rect id="Rectángulo_345971" data-name="Rectángulo 345971" width="105" height="10.856" transform="translate(0 35.497)" fill="#4f3282"/>
        <g id="Grupo_999726" data-name="Grupo 999726">
          <g id="Grupo_999725" data-name="Grupo 999725" clip-path="url(#clip-path)">
            <path id="Trazado_706873" data-name="Trazado 706873" d="M10.061,149.283H6.72c.076-.455.13-.9.227-1.332a6.427,6.427,0,0,1,4.46-4.978c.3-.1.42-.207.42-.534q-.011-17.546-.007-35.093c0-.085-.011-.17-.019-.293H.022v-3.369h104.8V107H94.706v.616q0,17.309-.01,34.617a.679.679,0,0,0,.552.773,6.771,6.771,0,0,1,4.515,6.262h-3.33a3.334,3.334,0,0,0-1.6-2.784,3.423,3.423,0,0,0-3.914.168,2.785,2.785,0,0,1-1,.536,1.665,1.665,0,0,1-1.955-1.752,5.09,5.09,0,0,0-8.443-3.6,4.948,4.948,0,0,0-1.732,3.554,1.757,1.757,0,0,1-1.044,1.647,1.687,1.687,0,0,1-1.821-.294,3.368,3.368,0,0,0-4.5.064,1.624,1.624,0,0,1-2.7-1.008,13.5,13.5,0,0,0-.389-1.636,4.968,4.968,0,0,0-4.976-3.208,5.039,5.039,0,0,0-4.652,3.6c-.156.532-.288,1.1-.825,1.35a3.025,3.025,0,0,1-1.247.24,15.9,15.9,0,0,0-2.184-.122,3.784,3.784,0,0,0-1.585.765,1.641,1.641,0,0,1-2.746-.988c-.065-.308-.066-.629-.117-.941a5.091,5.091,0,0,0-10.108.478,1.874,1.874,0,0,1-.866,1.6,1.6,1.6,0,0,1-1.955-.215,3.393,3.393,0,0,0-3.427-.574,4.862,4.862,0,0,0-1.128.668,1.629,1.629,0,0,1-2.7-1.025c-.065-.308-.066-.629-.117-.941a5.091,5.091,0,0,0-10.108.491,1.813,1.813,0,0,1-1.032,1.71,1.759,1.759,0,0,1-1.911-.338,3.29,3.29,0,0,0-3.525-.49,3.2,3.2,0,0,0-2,2.927c0,.031-.028.061-.055.121m54.2-42.227v30.1c0,.07-.027.159.005.208.1.15.2.375.339.411a8.244,8.244,0,0,1,5.635,4.778.632.632,0,0,0,.5.3c.656-.078,1.3-.224,1.975-.35v-.6c0-3.822-.027-7.645.021-11.467a1.858,1.858,0,0,0-.914-1.777A9.422,9.422,0,0,1,67.7,119.63a10.081,10.081,0,0,1,12.786-8.855,10.292,10.292,0,0,1,7.293,11.531,9.958,9.958,0,0,1-4.562,6.752.7.7,0,0,0-.364.671c.013,2.431.007,4.862.009,7.293,0,.137.017.274.031.473,3.855.122,6.4,2.151,7.914,5.567.562-.205.51-.6.51-.96q0-17.227,0-34.454v-.59ZM33.811,142.508a12.9,12.9,0,0,1,1.763.329c.457.151.6,0,.775-.379a7.963,7.963,0,0,1,3.74-3.944.779.779,0,0,0,.5-.832q-.017-15.007-.009-30.014v-.6H15.2v34.6a3.572,3.572,0,0,0,.014.789,3,3,0,0,0,.33.66l.167-.013c1.506-3.5,4.087-5.5,7.945-5.636,0-2.691.007-5.3-.015-7.9a.764.764,0,0,0-.347-.5,9.731,9.731,0,0,1-4.657-9.4A10.078,10.078,0,0,1,31.5,110.8a10.268,10.268,0,0,1,7.233,11.515,9.937,9.937,0,0,1-4.526,6.715.783.783,0,0,0-.4.76c.011,3.611.006,7.221.006,10.833v1.885m27.038-4.9v-20.4H43.994v20.234c.312.047.589.1.869.129a7.944,7.944,0,0,1,6.726,4.916c.159.347.345.395.7.332a21.41,21.41,0,0,1,2.195-.263.568.568,0,0,0,.578-.387,7.008,7.008,0,0,1,3.346-3.529c.769-.378,1.579-.671,2.441-1.032M43.983,113.756H60.849v-6.7H43.983Zm28.7,11.29c.492-2.343,1.755-3.979,4.145-4.347,3.286-.507,5.2,1.181,6.081,4.259a6.793,6.793,0,0,0-10.276-8.886c-2.283,2.527-2.046,6.952.05,8.974m-38.849-.109a6.633,6.633,0,0,0,1.085-6.979,6.767,6.767,0,0,0-12.845,1.056c-.461,2.2.344,5.285,1.558,5.965.657-3.08,2.723-4.314,4.832-4.382,2.966-.1,4.633,1.578,5.37,4.339m45.649,13.1c0-4.053.007-8.278-.014-12.5a1.777,1.777,0,0,0-.322-.922,1.684,1.684,0,0,0-1.925-.6,1.594,1.594,0,0,0-1.119,1.61q0,7.4,0,14.791c0,.114.011.227.011.232l3.368-2.6M30.428,140.72v-.311q0-7.31,0-14.62a3.49,3.49,0,0,0-.013-.422,1.7,1.7,0,0,0-1.793-1.435,1.588,1.588,0,0,0-1.57,1.539q-.016,6.175,0,12.35a.616.616,0,0,0,.234.47,11.405,11.405,0,0,1,3.14,2.428" transform="translate(-0.013 -59.701)" fill="#161615"/>
            <path id="Trazado_706874" data-name="Trazado 706874" d="M15.466,18.577c.415-3.976.821-7.873,1.235-11.838h-2.63c-1.581,0-2.264-.675-2.264-2.242q0-2.167,0-4.333a1.4,1.4,0,0,1,.02-.148h3.346v3.31h16.9V.007H35.49c0,.958.024,1.9-.011,2.849a.746.746,0,0,0,.493.827A32.217,32.217,0,0,0,39.441,4.9,55,55,0,0,0,51.907,6.664a48.769,48.769,0,0,0,6.942-.506c2.366-.317,4.711-.821,7.042-1.346a19.527,19.527,0,0,0,2.9-1.08.838.838,0,0,0,.535-.919c-.04-.927-.012-1.858-.012-2.813h3.364V3.322H89.606V.01H93V2.636c0,.687,0,1.374,0,2.061a1.863,1.863,0,0,1-2.037,2.04c-.9.011-1.8.008-2.694.014-.032,0-.063.025-.174.072.1.84.2,1.7.291,2.569.274,2.678.557,5.356.807,8.037.106,1.144.072,1.147,1.234,1.147q2.748,0,5.5,0a1.9,1.9,0,0,1,2.151,2.14c0,1.286-.012,2.572.008,3.858.006.373-.12.5-.481.491-.828-.016-1.656-.022-2.483,0-.37.01-.438-.152-.432-.474.016-.859.006-1.718.006-2.6H89.716c.469,4.5.936,8.967,1.407,13.479H104.8v3.371H0V35.5H13.678c.476-4.51.948-8.981,1.424-13.5H10.116c0,.816-.023,1.654.009,2.49.017.435-.118.594-.559.579-.792-.027-1.586-.029-2.377,0-.392.013-.468-.148-.464-.5.017-1.321,0-2.642.009-3.963a1.858,1.858,0,0,1,2.05-2.027c2.026-.011,4.052,0,6.078,0h.6m57.432,0c.44-3.979.871-7.873,1.306-11.8H72.689V8.4h-3.37V7.2a51.782,51.782,0,0,1-33.836-.021V8.4h-3.4V6.78H30.57c.128,1.093.262,2.137.37,3.184.277,2.678.557,5.355.8,8.036.046.507.255.588.694.584,2.043-.018,4.086-.014,6.13-.006a1.728,1.728,0,0,1,1.916,1.451,1.773,1.773,0,0,0,1.01,1.32,10.466,10.466,0,0,0,1.527.709,28.816,28.816,0,0,0,15.66.9,15.584,15.584,0,0,0,4.666-1.611,1.737,1.737,0,0,0,.975-1.221,1.744,1.744,0,0,1,1.945-1.544c1.515-.014,3.03,0,4.545,0H72.9m-5.287,3.405v5.025H64.235V24.66a31.258,31.258,0,0,1-23.695-.019v2.367H37.174V21.992H32.2L33.61,35.454H71.2c.474-4.5.944-8.974,1.418-13.472ZM23.655,30.344l-4.695,5.1h9.39l-4.695-5.1m57.513,0-4.7,5.107h9.4l-4.7-5.107M27.075,6.776H20.311l3.332,4.2,3.432-4.2m54.081,4.2,3.431-4.209H77.82l3.336,4.209M25.928,27.756l3.856,4.264.106-.062c-.265-2.528-.53-5.056-.813-7.755l-3.149,3.552m-7.7-3.52-.78,7.842c1.329-1.427,2.562-2.741,3.771-4.077.077-.084.025-.392-.071-.507-.543-.644-1.118-1.262-1.683-1.889-.384-.426-.769-.851-1.237-1.369m69.063,7.78.112-.071c-.264-2.52-.527-5.04-.81-7.74l-3.148,3.551,3.847,4.26M75.657,24.223l-.719,7.721.12.044,3.791-4.164-3.192-3.6m2.518-2.233,3,3.39,2.955-3.39Zm-57.52-.011,3.015,3.4,2.953-3.4Zm64.58-10.547-.136-.067c-.52.655-1.022,1.327-1.57,1.959a.486.486,0,0,0,0,.732c.677.855,1.345,1.717,2.022,2.572a1.64,1.64,0,0,0,.274.207l-.587-5.4m-8.718,5.358.108.058c.769-.973,1.54-1.943,2.3-2.924a.351.351,0,0,0,.01-.328c-.553-.754-1.122-1.5-1.687-2.241l-.142.034q-.293,2.7-.588,5.4m-48.331.031.115-.053c-.193-1.781-.385-3.562-.6-5.529-.423.512-.753.9-1.073,1.3-.912,1.132-.913,1.135-.028,2.272.523.672,1.055,1.338,1.584,2.006m-8.437-5.445-.158.014Q19.3,14.1,19.006,16.8a33.954,33.954,0,0,0,2.372-2.845.49.49,0,0,0-.018-.453c-.521-.72-1.071-1.421-1.61-2.127m2.171,7.16H25.39l-1.738-2.107L21.92,18.538m57.511,0H82.9l-1.738-2.107-1.734,2.107" transform="translate(0.001)" fill="#161615"/>
            <path id="Trazado_706875" data-name="Trazado 706875" d="M19.2,221.919H15.865a7.025,7.025,0,0,1,2.041-4.853,6.71,6.71,0,0,1,10.012.675c.322.413.523.461,1.007.2a7.882,7.882,0,0,1,7.915,0c.369.2.556.225.848-.155a6.634,6.634,0,0,1,7.282-2.277,6.846,6.846,0,0,1,3.348,2.383c.243.318.421.333.774.128A7.868,7.868,0,0,1,56,217.394a.667.667,0,0,0,.823-.178,6.629,6.629,0,0,1,9.989.607c.306.394.49.368.883.154a7.962,7.962,0,0,1,8.014-.036c.14.075.275.157.414.232a.528.528,0,0,0,.121.026,6.772,6.772,0,0,1,5.621-3.008,6.548,6.548,0,0,1,5.584,3.078,8.205,8.205,0,0,1,9.065-.05,6.755,6.755,0,0,1,8.133-2.544,6.908,6.908,0,0,1,4.22,6.243h-3.344a3.168,3.168,0,0,0-1.22-2.9,3.427,3.427,0,0,0-5.456,1.771c-.06.257-.109.517-.193.766a1.576,1.576,0,0,1-2.561.738,6.216,6.216,0,0,1-.5-.474,5.16,5.16,0,0,0-7.45.16,1.682,1.682,0,0,1-1.723.653,1.7,1.7,0,0,1-1.307-1.37,3.42,3.42,0,0,0-6.528-.477c-.05.132-.087.268-.132.4a1.667,1.667,0,0,1-2.96.722,5.151,5.151,0,0,0-2.74-1.486,4.9,4.9,0,0,0-4.683,1.427,1.868,1.868,0,0,1-1.842.768,1.761,1.761,0,0,1-1.315-1.487,3.525,3.525,0,0,0-5.931-1.527,4.349,4.349,0,0,0-.545.773,1.689,1.689,0,0,1-2.637.736,5.226,5.226,0,0,0-4.462-.532,4.23,4.23,0,0,0-2.048,1.34,1.7,1.7,0,0,1-3.088-.682,3.409,3.409,0,0,0-5.739-1.656,4.344,4.344,0,0,0-.881,1.532c-.583,1.575-1.875,1.924-3.05.739a5.191,5.191,0,0,0-7.5.13,1.7,1.7,0,0,1-3.042-.82,3.419,3.419,0,0,0-4.679-2.369,3.536,3.536,0,0,0-2.119,3.129" transform="translate(-9.135 -123.879)" fill="#161615"/>
            <path id="Trazado_706876" data-name="Trazado 706876" d="M151.44,111.634H178.5v.59q0,17.228,0,34.454c0,.364.051.755-.511.96-1.514-3.416-4.059-5.445-7.914-5.567-.014-.2-.031-.335-.031-.473,0-2.431,0-4.862-.008-7.292a.7.7,0,0,1,.364-.672,9.956,9.956,0,0,0,4.562-6.751,10.292,10.292,0,0,0-7.293-11.531,10.081,10.081,0,0,0-12.786,8.855A9.422,9.422,0,0,0,159,133.231a1.858,1.858,0,0,1,.914,1.777c-.048,3.822-.021,7.644-.021,11.467v.6c-.672.125-1.32.272-1.975.35a.633.633,0,0,1-.5-.3,8.245,8.245,0,0,0-5.636-4.778c-.141-.036-.24-.261-.339-.411-.033-.049-.005-.138-.005-.208v-30.1Z" transform="translate(-87.194 -64.279)" fill="#ab8dc1"/>
            <path id="Trazado_706877" data-name="Trazado 706877" d="M54.4,147.11v-1.885c0-3.611,0-7.221-.007-10.832a.783.783,0,0,1,.4-.76,9.937,9.937,0,0,0,4.525-6.715A10.268,10.268,0,0,0,52.083,115.4a10.078,10.078,0,0,0-12.854,8.869,9.731,9.731,0,0,0,4.656,9.4.766.766,0,0,1,.347.5c.022,2.605.015,5.211.015,7.9-3.859.141-6.439,2.133-7.946,5.636l-.167.013a3,3,0,0,1-.33-.66,3.6,3.6,0,0,1-.014-.789v-34.6H61.164v.6q0,15.007.009,30.013a.778.778,0,0,1-.5.832,7.964,7.964,0,0,0-3.74,3.944c-.172.383-.319.53-.775.38a12.917,12.917,0,0,0-1.763-.33" transform="translate(-20.6 -64.303)" fill="#ab8dc1"/>
            <path id="Trazado_706878" data-name="Trazado 706878" d="M120.538,155.971c-.862.361-1.672.655-2.441,1.032a7.005,7.005,0,0,0-3.346,3.529.569.569,0,0,1-.578.387,21.4,21.4,0,0,0-2.194.263c-.355.063-.541.014-.7-.332a7.945,7.945,0,0,0-6.726-4.916c-.28-.031-.557-.082-.869-.129V135.571h16.855Zm-11.79-13.7h6.7v-3.319h-6.7Zm0,6.765h6.7v-3.318h-6.7Zm0,6.774h6.707V152.49h-6.707Z" transform="translate(-59.701 -78.063)" fill="#ab8dc1"/>
            <rect id="Rectángulo_345972" data-name="Rectángulo 345972" width="16.866" height="6.697" transform="translate(43.971 47.358)" fill="#ab8dc1"/>
            <path id="Trazado_706879" data-name="Trazado 706879" d="M169.041,138.789c-2.1-2.022-2.333-6.447-.05-8.974a6.793,6.793,0,0,1,10.276,8.886c-.884-3.078-2.8-4.766-6.081-4.259-2.389.369-3.652,2-4.145,4.347" transform="translate(-96.374 -73.444)" fill="#002d7c"/>
            <path id="Trazado_706880" data-name="Trazado 706880" d="M63.581,138.644c-.736-2.762-2.4-4.436-5.37-4.34-2.109.068-4.174,1.3-4.832,4.382-1.214-.68-2.019-3.762-1.558-5.965a6.767,6.767,0,0,1,12.845-1.056,6.633,6.633,0,0,1-1.084,6.979" transform="translate(-29.763 -73.408)" fill="#002d7c"/>
            <path id="Trazado_706881" data-name="Trazado 706881" d="M182.748,165.51l-3.368,2.6s-.011-.118-.011-.232q0-7.395,0-14.79a1.594,1.594,0,0,1,1.119-1.61,1.683,1.683,0,0,1,1.925.6,1.773,1.773,0,0,1,.322.922c.021,4.225.014,8.45.014,12.5" transform="translate(-103.281 -87.17)" fill="#4ebce6"/>
            <path id="Trazado_706882" data-name="Trazado 706882" d="M67.107,168.2a11.4,11.4,0,0,0-3.14-2.428.616.616,0,0,1-.234-.47q-.018-6.175,0-12.35a1.588,1.588,0,0,1,1.57-1.539,1.7,1.7,0,0,1,1.793,1.435,3.49,3.49,0,0,1,.013.422q0,7.31,0,14.62v.311" transform="translate(-36.692 -87.185)" fill="#4ebce6"/>
            <rect id="Rectángulo_345973" data-name="Rectángulo 345973" width="6.7" height="3.319" transform="translate(49.046 60.886)" fill="#161615"/>
            <rect id="Rectángulo_345974" data-name="Rectángulo 345974" width="6.7" height="3.318" transform="translate(49.045 67.652)" fill="#161615"/>
            <rect id="Rectángulo_345975" data-name="Rectángulo 345975" width="6.707" height="3.316" transform="translate(49.047 74.427)" fill="#161615"/>
          </g>
        </g>
      </g>
    </g>
  </g>
</svg>
