<svg xmlns="http://www.w3.org/2000/svg" xmlns:xlink="http://www.w3.org/1999/xlink" width="125.309" height="129.146" viewBox="0 0 125.309 129.146">
  <defs>
    <clipPath id="clip-path">
      <rect id="Rect치ngulo_345977" data-name="Rect치ngulo 345977" width="83.486" height="104.147" fill="none"/>
    </clipPath>
  </defs>
  <g id="Grupo_999986" data-name="Grupo 999986" transform="translate(-1023 -15924)">
    <circle id="Elipse_7911" data-name="Elipse 7911" cx="52.5" cy="52.5" r="52.5" transform="translate(1023 15933)" fill="#ad84ff"/>
    <g id="Grupo_999724" data-name="Grupo 999724" transform="translate(6468.659 22466.617)">
      <rect id="Rect치ngulo_5300" data-name="Rect치ngulo 5300" width="123" height="123" transform="translate(-5443.351 -6542.617)" fill="none"/>
      <g id="Grupo_999729" data-name="Grupo 999729" transform="translate(-5436.837 -6517.617)">
        <g id="Grupo_999728" data-name="Grupo 999728" clip-path="url(#clip-path)">
          <path id="Trazado_706883" data-name="Trazado 706883" d="M11.039,36.338a53.008,53.008,0,0,1-8.775-.607.933.933,0,0,1,.1-1.847c38.863-2.906,54.547-19.955,57.414-23.51L55.7,6.772a.933.933,0,0,1,.422-1.612l16.989-3.64a.952.952,0,0,1,.2-.021.933.933,0,0,1,.927,1.043l-2.078,17.6a.933.933,0,0,1-1.554.582L65.953,16.5C44.228,33.745,22.264,36.338,11.042,36.338Z" transform="translate(-0.567 -0.567)" fill="#59bbcb"/>
          <path id="Trazado_706884" data-name="Trazado 706884" d="M72.744,1.866h0m0,0-2.078,17.6L65.426,14.7C43.887,32.087,22.107,34.838,10.473,34.838a52.541,52.541,0,0,1-8.607-.592C46.12,30.938,60.478,9.682,60.478,9.682L55.755,5.506l16.989-3.64m0-1.866h-.065a1.851,1.851,0,0,0-.365.049L55.364,3.681A1.866,1.866,0,0,0,54.519,6.9l3.4,3a49.648,49.648,0,0,1-11.364,9.374c-8.125,5.056-22.5,11.434-44.825,13.1a1.866,1.866,0,0,0-.2,3.7,54.142,54.142,0,0,0,8.944.622c11.236,0,33.126-2.57,54.871-19.555l4.067,3.7a1.866,1.866,0,0,0,3.108-1.163L74.587,2.166a1.906,1.906,0,0,0,.024-.3A1.865,1.865,0,0,0,72.758,0h-.014m0,3.732h0Z" transform="translate(0)" fill="#040405"/>
          <path id="Trazado_706885" data-name="Trazado 706885" d="M91.455,127.747c-11.314,0-18.625-3.633-18.625-9.254V65.845a.933.933,0,0,1,.933-.933h35.383a.933.933,0,0,1,.933.933v52.647c0,5.621-7.31,9.254-18.624,9.254" transform="translate(-27.526 -24.533)" fill="#f8a92f" fill-rule="evenodd"/>
          <path id="Trazado_706886" data-name="Trazado 706886" d="M108.579,65.278v52.647c0,5.449-7.921,8.322-17.692,8.322S73.2,123.378,73.2,117.925V65.278Zm0-1.866H73.2a1.866,1.866,0,0,0-1.866,1.866v52.647c0,6.284,7.494,10.188,19.558,10.188a33.926,33.926,0,0,0,13.257-2.274c4.063-1.776,6.3-4.586,6.3-7.914V65.278a1.866,1.866,0,0,0-1.866-1.866" transform="translate(-26.959 -23.966)" fill="#040405"/>
          <path id="Trazado_706887" data-name="Trazado 706887" d="M91.455,70.65c-10.444,0-18.625-4.744-18.625-10.8s8.181-10.8,18.625-10.8,18.624,4.744,18.624,10.8-8.181,10.8-18.624,10.8" transform="translate(-27.526 -18.538)" fill="#ffc141"/>
          <path id="Trazado_706888" data-name="Trazado 706888" d="M90.888,49.416c9.771,0,17.691,4.418,17.691,9.867s-7.92,9.867-17.691,9.867S73.2,64.733,73.2,59.283s7.921-9.867,17.692-9.867m0-1.866c-10.967,0-19.559,5.154-19.559,11.733S79.92,71.016,90.888,71.016s19.557-5.154,19.557-11.733S101.854,47.55,90.888,47.55" transform="translate(-26.959 -17.971)" fill="#040405"/>
          <path id="Trazado_706889" data-name="Trazado 706889" d="M94.081,68.071a23.48,23.48,0,0,1-10.828-2.658c-.852-.516-3.457-2.259-3.457-4.3s2.606-3.786,3.4-4.273a21.671,21.671,0,0,1,10.436-2.692c.157,0,.314,0,.472,0,.114,0,.268,0,.422,0a21.643,21.643,0,0,1,10.4,2.67c.834.506,3.44,2.25,3.44,4.293s-2.606,3.788-3.405,4.274a23.516,23.516,0,0,1-10.882,2.688" transform="translate(-30.159 -20.464)" fill="#f8a92f" fill-rule="evenodd"/>
          <path id="Trazado_706890" data-name="Trazado 706890" d="M93.07,54.511q.225,0,.45,0c.147,0,.294,0,.441,0a20.646,20.646,0,0,1,9.95,2.555c.962.585,2.957,2.061,2.957,3.475s-1.995,2.891-2.957,3.477a22.455,22.455,0,0,1-20.793,0c-.962-.585-2.957-2.062-2.957-3.475s1.994-2.891,2.957-3.475a20.646,20.646,0,0,1,9.952-2.557m0-1.866h0a22.57,22.57,0,0,0-10.851,2.787l-.07.04c-1.158.7-3.853,2.609-3.853,5.07s2.694,4.365,3.853,5.07c.034.021.07.041.106.06a24.321,24.321,0,0,0,22.521,0c.036-.019.071-.039.106-.06,1.158-.7,3.853-2.61,3.853-5.071s-2.695-4.366-3.853-5.07l-.071-.041a22.575,22.575,0,0,0-10.849-2.786c-.147,0-.294,0-.441,0s-.3,0-.45,0" transform="translate(-29.592 -19.897)" fill="#040405"/>
          <path id="Trazado_706891" data-name="Trazado 706891" d="M100.013,67.434a2.019,2.019,0,0,1-1.711-.946l-.06-.017a6.849,6.849,0,0,1-1.265-.515c-.029-.012-.057-.025-.085-.039a2.014,2.014,0,0,1-.651-3.02,2.936,2.936,0,0,1-.538-.749,2.888,2.888,0,0,1-.161-2.221A2.922,2.922,0,0,1,97.329,58.1a5.489,5.489,0,0,1,.871-.322,2.012,2.012,0,0,1,1.75-1.019,1.981,1.981,0,0,1,.366.034,2.021,2.021,0,0,1,1.385.983l.112.027a4.542,4.542,0,0,1,1.694.76,2.027,2.027,0,0,1,.369,2.855l-.039.048a2.909,2.909,0,0,1-1.2,4.67,5.688,5.688,0,0,1-.9.332,2,2,0,0,1-1.72.964" transform="translate(-36.053 -21.452)" fill="#d69128" fill-rule="evenodd"/>
          <path id="Trazado_706892" data-name="Trazado 706892" d="M99.384,57.125a1.06,1.06,0,0,1,.2.018,1.082,1.082,0,0,1,.87.876c.19.034.383.076.566.123a3.678,3.678,0,0,1,1.378.611,1.083,1.083,0,0,1-1.341,1.7c-.02-.016-.039-.032-.058-.05a2.124,2.124,0,0,0-.523-.177,4.7,4.7,0,0,0-1.06-.16h-.057a3.3,3.3,0,0,0-1.131.2,3.326,3.326,0,0,0,1.126.2h.141a5.276,5.276,0,0,1,2.222.49,1.976,1.976,0,0,1,0,3.752,4.655,4.655,0,0,1-1.216.392,1.082,1.082,0,0,1-2.1.016,4.576,4.576,0,0,1-.465-.106,5.841,5.841,0,0,1-1.17-.49v.007a1.082,1.082,0,0,1,1.009-1.915,3.838,3.838,0,0,0,.746.321,3.268,3.268,0,0,0,.817.1h.143a3.329,3.329,0,0,0,1.127-.2,3.328,3.328,0,0,0-1.127-.2h-.139a5.285,5.285,0,0,1-2.222-.49,1.977,1.977,0,0,1,0-3.752,4.6,4.6,0,0,1,1.207-.387,1.082,1.082,0,0,1,1.062-.886M97.93,60.276h.006c0,.017,0,.024.006.024s.013-.011.024-.024c-.013-.014-.023-.026-.029-.026s-.007.007-.007.026M100.9,62.86s.006-.007.006-.025,0-.025-.007-.025-.014.009-.024.02v0c.011.014.018.025.023.025m-1.512-7.6a2.945,2.945,0,0,0-2.341,1.158,6.44,6.44,0,0,0-.638.253,3.841,3.841,0,0,0-1.856,5.748,2.948,2.948,0,0,0,1.342,3.757c.039.021.079.04.12.057a7.7,7.7,0,0,0,1.15.488,2.955,2.955,0,0,0,4.581-.019,6.415,6.415,0,0,0,.682-.269,3.861,3.861,0,0,0,2.315-2.395,3.82,3.82,0,0,0-.213-2.934c-.042-.083-.086-.164-.133-.243a2.952,2.952,0,0,0-.844-3.574l-.064-.049a5.5,5.5,0,0,0-1.784-.851,2.94,2.94,0,0,0-2.318-1.129" transform="translate(-35.487 -20.885)" fill="#040405"/>
          <path id="Trazado_706893" data-name="Trazado 706893" d="M91.455,125.82c-11.314,0-18.625-3.63-18.625-9.249v-7.305a.933.933,0,1,1,1.866,0c0,4.419,6.735,7.388,16.759,7.388s16.758-2.969,16.758-7.388a.933.933,0,1,1,1.866,0v7.3c0,5.621-7.31,9.254-18.624,9.254m0-14.6c-11.314,0-18.625-3.633-18.625-9.254v-7.3a.933.933,0,1,1,1.866,0c0,4.419,6.735,7.389,16.759,7.389s16.758-2.97,16.758-7.389a.933.933,0,1,1,1.866,0v7.3c0,5.622-7.31,9.254-18.624,9.254m0-14.6c-11.314,0-18.625-3.633-18.625-9.254v-7.3a.933.933,0,0,1,1.866,0c0,4.419,6.735,7.388,16.759,7.388s16.758-2.969,16.758-7.388a.933.933,0,0,1,1.866,0v7.3c0,5.621-7.31,9.254-18.624,9.254" transform="translate(-27.526 -29.908)" fill="#d69128" fill-rule="evenodd"/>
          <path id="Trazado_706894" data-name="Trazado 706894" d="M108.579,79.5v7.3c0,5.453-7.921,8.321-17.691,8.321S73.2,92.253,73.2,86.8V79.5c0,5.453,7.921,8.322,17.692,8.322s17.691-2.873,17.691-8.322m0,14.6v7.3c0,5.453-7.92,8.321-17.691,8.321S73.2,106.852,73.2,101.4V94.1c0,5.449,7.921,8.321,17.692,8.321s17.691-2.868,17.691-8.321m0,14.6V116c0,5.453-7.921,8.322-17.691,8.322S73.2,121.451,73.2,116V108.7c0,5.454,7.921,8.322,17.692,8.322s17.691-2.872,17.691-8.322m0-31.065a1.866,1.866,0,0,0-1.866,1.866c0,3.8-6.508,6.456-15.825,6.456S75.061,83.3,75.061,79.5a1.866,1.866,0,1,0-3.732,0v7.3a7.417,7.417,0,0,0,2.508,5.547A1.868,1.868,0,0,0,71.329,94.1v7.3a7.416,7.416,0,0,0,2.508,5.546,1.868,1.868,0,0,0-2.508,1.753V116c0,3.327,2.238,6.136,6.3,7.911a33.961,33.961,0,0,0,13.257,2.271c12.063,0,19.557-3.9,19.557-10.188v-7.3a1.868,1.868,0,0,0-2.508-1.753,7.416,7.416,0,0,0,2.508-5.546V94.1a1.868,1.868,0,0,0-2.508-1.753,7.417,7.417,0,0,0,2.508-5.547V79.5a1.866,1.866,0,0,0-1.866-1.866M90.888,96.987c7.194,0,12.763-1.388,16.087-3.842a1.86,1.86,0,0,0-.262.954c0,3.8-6.508,6.455-15.825,6.455S75.061,97.9,75.061,94.1a1.866,1.866,0,0,0-.261-.954c3.323,2.453,8.892,3.842,16.088,3.842m0,14.6c7.194,0,12.763-1.388,16.087-3.842a1.862,1.862,0,0,0-.262.954c0,3.8-6.508,6.456-15.825,6.456S75.061,112.5,75.061,108.7a1.867,1.867,0,0,0-.261-.954c3.323,2.454,8.892,3.842,16.088,3.842" transform="translate(-26.959 -29.342)" fill="#040405"/>
          <path id="Trazado_706895" data-name="Trazado 706895" d="M29.5,133.483c-10.269,0-18.624-3.664-18.624-8.167V89.172a.933.933,0,0,1,.933-.933H47.191a.933.933,0,0,1,.933.933v36.144c0,4.5-8.355,8.167-18.625,8.167" transform="translate(-4.11 -33.35)" fill="#f8a92f" fill-rule="evenodd"/>
          <path id="Trazado_706896" data-name="Trazado 706896" d="M46.624,88.605v36.144c0,3.742-7.921,7.234-17.692,7.234s-17.692-3.49-17.692-7.234V88.605Zm0-1.866H11.24a1.866,1.866,0,0,0-1.866,1.866v36.144c0,5.7,9.944,9.1,19.558,9.1s19.558-3.4,19.558-9.1V88.605a1.866,1.866,0,0,0-1.866-1.866" transform="translate(-3.543 -32.783)" fill="#040405"/>
          <path id="Trazado_706897" data-name="Trazado 706897" d="M29.5,93.977c-10.444,0-18.624-4.744-18.624-10.8s8.181-10.8,18.624-10.8,18.625,4.744,18.625,10.8-8.181,10.8-18.625,10.8" transform="translate(-4.11 -27.354)" fill="#ffc141"/>
          <path id="Trazado_706898" data-name="Trazado 706898" d="M28.932,72.743c9.771,0,17.692,4.418,17.692,9.867S38.7,92.477,28.932,92.477,11.24,88.06,11.24,82.61s7.921-9.867,17.692-9.867m0-1.866c-10.967,0-19.558,5.154-19.558,11.733s8.591,11.733,19.558,11.733S48.49,89.19,48.49,82.61,39.9,70.877,28.932,70.877" transform="translate(-3.543 -26.788)" fill="#040405"/>
          <path id="Trazado_706899" data-name="Trazado 706899" d="M32.126,91.4A23.479,23.479,0,0,1,21.3,88.74c-.852-.516-3.458-2.26-3.458-4.3s2.606-3.787,3.405-4.273a21.668,21.668,0,0,1,10.436-2.692q.235,0,.472.006c.114,0,.268-.006.422-.006a21.639,21.639,0,0,1,10.4,2.67c.834.506,3.44,2.249,3.44,4.293s-2.606,3.788-3.405,4.274A23.513,23.513,0,0,1,32.126,91.4" transform="translate(-6.743 -29.28)" fill="#f8a92f" fill-rule="evenodd"/>
          <path id="Trazado_706900" data-name="Trazado 706900" d="M31.115,77.838q.225,0,.45,0c.147,0,.294,0,.441,0a20.646,20.646,0,0,1,9.95,2.555c.962.585,2.957,2.061,2.957,3.475s-1.995,2.891-2.957,3.477a22.455,22.455,0,0,1-20.793,0c-.962-.585-2.957-2.062-2.957-3.475s1.994-2.891,2.957-3.475a20.646,20.646,0,0,1,9.952-2.557m0-1.866h0a22.57,22.57,0,0,0-10.851,2.787l-.07.04c-1.158.7-3.853,2.609-3.853,5.07s2.694,4.365,3.853,5.07c.034.021.07.041.106.06a24.321,24.321,0,0,0,22.521,0c.036-.019.071-.039.106-.06,1.158-.7,3.853-2.609,3.853-5.071S44.085,79.5,42.926,78.8l-.071-.041a22.575,22.575,0,0,0-10.849-2.786c-.147,0-.294,0-.441,0s-.3,0-.45,0" transform="translate(-6.176 -28.713)" fill="#040405"/>
          <path id="Trazado_706901" data-name="Trazado 706901" d="M38.057,90.759a2.019,2.019,0,0,1-1.711-.946l-.059-.016a6.863,6.863,0,0,1-1.266-.516q-.043-.018-.084-.039a2.017,2.017,0,0,1-.651-3.022,2.909,2.909,0,0,1,1.087-4.794,5.5,5.5,0,0,1,.871-.322A2.013,2.013,0,0,1,38,80.085a1.974,1.974,0,0,1,.365.034,2.024,2.024,0,0,1,1.385.984l.112.027a4.533,4.533,0,0,1,1.694.759,2.028,2.028,0,0,1,.369,2.856l-.038.046a2.911,2.911,0,0,1-1.2,4.672,5.568,5.568,0,0,1-.9.332,2,2,0,0,1-1.72.965" transform="translate(-12.638 -30.268)" fill="#d69128" fill-rule="evenodd"/>
          <path id="Trazado_706902" data-name="Trazado 706902" d="M37.428,80.452a1.06,1.06,0,0,1,.2.018,1.082,1.082,0,0,1,.87.876c.191.034.383.076.566.123a3.678,3.678,0,0,1,1.378.611,1.083,1.083,0,0,1-1.341,1.7c-.02-.016-.039-.032-.058-.05a2.123,2.123,0,0,0-.523-.177,4.7,4.7,0,0,0-1.06-.16H37.4a3.3,3.3,0,0,0-1.131.2,3.328,3.328,0,0,0,1.126.2h.141a5.276,5.276,0,0,1,2.222.49,1.976,1.976,0,0,1,0,3.752,4.655,4.655,0,0,1-1.216.392,1.082,1.082,0,0,1-2.1.016,4.58,4.58,0,0,1-.465-.106,5.843,5.843,0,0,1-1.17-.49v.007a1.082,1.082,0,0,1,1.009-1.915,3.838,3.838,0,0,0,.746.321,3.273,3.273,0,0,0,.818.1h.142a3.329,3.329,0,0,0,1.127-.2,3.328,3.328,0,0,0-1.127-.2h-.139a5.283,5.283,0,0,1-2.222-.49,1.977,1.977,0,0,1,0-3.752,4.6,4.6,0,0,1,1.207-.387,1.082,1.082,0,0,1,1.062-.886M35.974,83.6h.006c0,.017,0,.024.006.024s.012-.011.023-.024c-.013-.014-.023-.026-.029-.026s-.007.007-.007.026m2.967,2.585s.006-.007.006-.025,0-.025-.007-.025-.014.009-.024.02v0c.011.014.018.025.023.025m-1.512-7.6a2.945,2.945,0,0,0-2.341,1.158,6.44,6.44,0,0,0-.638.253,3.86,3.86,0,0,0-2.316,2.4,3.818,3.818,0,0,0,.213,2.933,4.024,4.024,0,0,0,.246.421A2.949,2.949,0,0,0,33.936,89.5c.039.021.079.04.119.057a7.713,7.713,0,0,0,1.151.488,2.954,2.954,0,0,0,4.581-.019,6.412,6.412,0,0,0,.682-.269,3.858,3.858,0,0,0,2.315-2.4,3.818,3.818,0,0,0-.213-2.933q-.063-.124-.133-.243a2.952,2.952,0,0,0-.844-3.574l-.064-.049a5.5,5.5,0,0,0-1.784-.851,2.94,2.94,0,0,0-2.318-1.129" transform="translate(-12.07 -29.701)" fill="#040405"/>
          <path id="Trazado_706903" data-name="Trazado 706903" d="M29.5,134.547c-11.314,0-18.624-3.633-18.624-9.254v-7.3a.933.933,0,1,1,1.866,0c0,4.419,6.734,7.388,16.758,7.388s16.759-2.969,16.759-7.388a.933.933,0,1,1,1.866,0v7.3c0,5.621-7.311,9.254-18.625,9.254m0-14.6c-11.314,0-18.624-3.633-18.624-9.255v-7.3a.933.933,0,0,1,1.866,0c0,4.419,6.734,7.388,16.758,7.388s16.759-2.969,16.759-7.388a.933.933,0,0,1,1.866,0v7.3c0,5.622-7.311,9.255-18.625,9.255" transform="translate(-4.11 -38.725)" fill="#d69128" fill-rule="evenodd"/>
          <path id="Trazado_706904" data-name="Trazado 706904" d="M46.624,102.827v7.3c0,5.453-7.921,8.321-17.692,8.321S11.24,115.58,11.24,110.127v-7.3c0,5.453,7.921,8.321,17.692,8.321s17.692-2.872,17.692-8.321m0,14.6v7.3c0,5.453-7.92,8.322-17.692,8.322s-17.692-2.869-17.692-8.322v-7.3c0,5.45,7.921,8.322,17.692,8.322s17.692-2.868,17.692-8.322m0-16.465a1.866,1.866,0,0,0-1.866,1.866c0,3.8-6.508,6.455-15.826,6.455s-15.826-2.654-15.826-6.455a1.866,1.866,0,0,0-3.732,0v7.3a7.416,7.416,0,0,0,2.508,5.546,1.868,1.868,0,0,0-2.508,1.753v7.3c0,6.284,7.494,10.188,19.558,10.188s19.558-3.9,19.558-10.188v-7.3a1.868,1.868,0,0,0-2.508-1.753,7.416,7.416,0,0,0,2.508-5.546v-7.3a1.866,1.866,0,0,0-1.866-1.866M28.932,120.314c7.195,0,12.764-1.388,16.088-3.842a1.862,1.862,0,0,0-.262.954c0,3.8-6.508,6.456-15.826,6.456s-15.826-2.655-15.826-6.456a1.862,1.862,0,0,0-.262-.954c3.324,2.454,8.893,3.842,16.088,3.842" transform="translate(-3.543 -38.158)" fill="#040405"/>
        </g>
      </g>
    </g>
  </g>
</svg>
