<svg xmlns="http://www.w3.org/2000/svg" xmlns:xlink="http://www.w3.org/1999/xlink" width="201.557" height="168" viewBox="0 0 201.557 168">
  <defs>
    <clipPath id="clip-path">
      <rect id="Rectángulo_345334" data-name="Rectángulo 345334" width="201.557" height="105.907" fill="none"/>
    </clipPath>
  </defs>
  <g id="Grupo_999975" data-name="Grupo 999975" transform="translate(-1086.1 -9338)">
    <ellipse id="Elipse_7899" data-name="Elipse 7899" cx="84.5" cy="84" rx="84.5" ry="84" transform="translate(1097.309 9338)" fill="#25ffff" opacity="0.5"/>
    <g id="Grupo_999426" data-name="Grupo 999426" transform="translate(1086.1 9371.547)">
      <g id="Grupo_999425" data-name="Grupo 999425" transform="translate(0 0)" clip-path="url(#clip-path)">
        <path id="Trazado_705737" data-name="Trazado 705737" d="M53.175,20.818a13.465,13.465,0,0,1-4.688,4.993,15.908,15.908,0,0,1-3.042,1.3,20.113,20.113,0,0,0,14.534,6.443V23.624a10.193,10.193,0,0,1-6.8-2.806" transform="translate(42.88 19.643)" fill="#ed6464"/>
        <rect id="Rectángulo_345331" data-name="Rectángulo 345331" width="0.414" height="9.922" transform="translate(70.51 0.805)" fill="#ff7676"/>
        <path id="Trazado_705738" data-name="Trazado 705738" d="M52.616,17.336H42.675c.006.138.008.276.016.414h9.947c-.014-.136-.012-.276-.021-.414" transform="translate(40.266 16.358)" fill="#ff7676"/>
        <path id="Trazado_705739" data-name="Trazado 705739" d="M53.424,17.093A20.063,20.063,0,0,0,48.664,4.1l-6.882,7.321a10.174,10.174,0,0,1,1.72,5.667V28.842h9.922Z" transform="translate(39.424 3.873)" fill="#ff7676"/>
        <path id="Trazado_705740" data-name="Trazado 705740" d="M55.745,23.428a10.231,10.231,0,0,1-3-5.376H42.721a20.1,20.1,0,0,0,5.294,11.667,15.908,15.908,0,0,0,3.042-1.3,13.465,13.465,0,0,0,4.688-4.993" transform="translate(40.31 17.033)" fill="#ff7676"/>
        <path id="Trazado_705741" data-name="Trazado 705741" d="M27.754.413v.01h-2.4v9.922H40.51v-.01h5.1V.413Z" transform="translate(23.925 0.39)" fill="#ff7676"/>
        <path id="Trazado_705742" data-name="Trazado 705742" d="M37.779.413H37v9.922h.783a10.186,10.186,0,0,1,6.968,2.76l6.8-7.232A20.082,20.082,0,0,0,37.779.413" transform="translate(34.908 0.39)" fill="#ff7676"/>
        <path id="Trazado_705743" data-name="Trazado 705743" d="M48.147,3.571l-6.81,7.248c.091.1.187.2.276.309l6.82-7.257c-.093-.1-.189-.2-.286-.3" transform="translate(39.004 3.37)" fill="#ff7676"/>
        <path id="Trazado_705744" data-name="Trazado 705744" d="M53.652,17.812a.378.378,0,0,0,.379-.379v-.222a.379.379,0,0,0-.379-.379H42.706a.38.38,0,0,0-.381.379v.222a.379.379,0,0,0,.381.379H53.652Z" transform="translate(39.936 15.882)" fill="#ed6464"/>
        <path id="Trazado_705745" data-name="Trazado 705745" d="M53.652,18.528a.378.378,0,0,0,.379-.379v-.22a.38.38,0,0,0-.379-.381H42.706a.38.38,0,0,0-.381.381v.22a.379.379,0,0,0,.381.379H53.652Z" transform="translate(39.936 16.558)" fill="#ed6464"/>
        <path id="Trazado_705746" data-name="Trazado 705746" d="M49.076,3.744a.379.379,0,0,0-.017-.536L48.9,3.056a.379.379,0,0,0-.536.017l-.371.395-6.8,7.23-.33.352a.378.378,0,0,0,.018.536l.159.152a.379.379,0,0,0,.536-.017l.3-.321,6.812-7.246Z" transform="translate(38.46 2.787)" fill="#ed6464"/>
        <path id="Trazado_705747" data-name="Trazado 705747" d="M49.6,4.235A.379.379,0,0,0,49.58,3.7l-.159-.152a.379.379,0,0,0-.536.017l-.4.426-6.822,7.257-.276.293a.378.378,0,0,0,.017.536l.159.152a.379.379,0,0,0,.536-.017l.154-.163,6.882-7.321Z" transform="translate(38.953 3.25)" fill="#ed6464"/>
        <rect id="Rectángulo_345332" data-name="Rectángulo 345332" width="0.414" height="9.922" transform="translate(11.863 43.287)" fill="#ed6464"/>
        <path id="Trazado_705748" data-name="Trazado 705748" d="M13.624,20.822a10.193,10.193,0,0,1-6.8,2.806v9.928a20.112,20.112,0,0,0,14.532-6.443,15.961,15.961,0,0,1-3.042-1.3,13.444,13.444,0,0,1-4.686-4.993" transform="translate(6.435 19.647)" fill="#ed6464"/>
        <path id="Trazado_705749" data-name="Trazado 705749" d="M10.321,23.431a13.444,13.444,0,0,0,4.686,4.993,15.961,15.961,0,0,0,3.042,1.3,20.111,20.111,0,0,0,5.3-11.665H13.316a10.246,10.246,0,0,1-3,5.374" transform="translate(9.738 17.038)" fill="#ff7676"/>
        <path id="Trazado_705750" data-name="Trazado 705750" d="M29.027.418a20.087,20.087,0,0,0-13.766,5.45l6.8,7.232a10.19,10.19,0,0,1,6.97-2.76h3.481V.418Z" transform="translate(14.4 0.395)" fill="#ff7676"/>
        <path id="Trazado_705751" data-name="Trazado 705751" d="M14.755,3.875l6.82,7.257c.089-.107.185-.208.278-.311L15.041,3.576c-.1.1-.19.2-.286.3" transform="translate(13.922 3.374)" fill="#ff7676"/>
        <path id="Trazado_705752" data-name="Trazado 705752" d="M11.942,17.754h9.949c.008-.136.01-.276.014-.414H11.963c-.008.138-.008.278-.021.414" transform="translate(11.268 16.362)" fill="#ff7676"/>
        <rect id="Rectángulo_345333" data-name="Rectángulo 345333" width="0.414" height="9.922" transform="translate(47.889 0.812)" fill="#ff7676"/>
        <path id="Trazado_705753" data-name="Trazado 705753" d="M11.971,17.1V28.846h9.922V17.1a10.174,10.174,0,0,1,1.72-5.667L16.731,4.108A20.063,20.063,0,0,0,11.971,17.1" transform="translate(11.295 3.876)" fill="#ff7676"/>
        <path id="Trazado_705754" data-name="Trazado 705754" d="M25.832.379A.379.379,0,0,0,25.453,0h-.222a.378.378,0,0,0-.379.379V11.327a.378.378,0,0,0,.379.379h.222a.379.379,0,0,0,.379-.379V.379Z" transform="translate(23.449 0)" fill="#ed6464"/>
        <path id="Trazado_705755" data-name="Trazado 705755" d="M25.116.379A.379.379,0,0,0,24.737,0h-.222a.378.378,0,0,0-.379.379V11.327a.378.378,0,0,0,.379.379h.222a.379.379,0,0,0,.379-.379V.379Z" transform="translate(22.774 0)" fill="#ed6464"/>
        <path id="Trazado_705756" data-name="Trazado 705756" d="M7.3,22.136a.378.378,0,0,0-.379-.379H6.7a.379.379,0,0,0-.379.379V33.082a.38.38,0,0,0,.379.381h.222a.379.379,0,0,0,.379-.381V22.136Z" transform="translate(5.96 20.529)" fill="#ff7676"/>
        <path id="Trazado_705757" data-name="Trazado 705757" d="M6.58,22.136a.378.378,0,0,0-.379-.379H5.979a.379.379,0,0,0-.379.379V33.082a.38.38,0,0,0,.379.381H6.2a.379.379,0,0,0,.379-.381V22.136Z" transform="translate(5.284 20.529)" fill="#ff7676"/>
        <path id="Trazado_705758" data-name="Trazado 705758" d="M11.774,16.836a.378.378,0,0,0-.379.379v.222a.379.379,0,0,0,.379.379H22.722a.379.379,0,0,0,.379-.379v-.222a.378.378,0,0,0-.379-.379H11.774Z" transform="translate(10.752 15.886)" fill="#ed6464"/>
        <path id="Trazado_705759" data-name="Trazado 705759" d="M11.774,17.553a.378.378,0,0,0-.379.379v.222a.379.379,0,0,0,.379.379H22.722a.379.379,0,0,0,.379-.379v-.222a.378.378,0,0,0-.379-.379H11.774Z" transform="translate(10.752 16.562)" fill="#ed6464"/>
        <path id="Trazado_705760" data-name="Trazado 705760" d="M15.467,3.077a.379.379,0,0,0-.536-.017l-.161.152a.38.38,0,0,0-.016.536l.385.41,6.81,7.246.3.321a.381.381,0,0,0,.538.017l.159-.152a.377.377,0,0,0,.016-.536l-.33-.352-6.8-7.23Z" transform="translate(13.824 2.79)" fill="#ed6464"/>
        <path id="Trazado_705761" data-name="Trazado 705761" d="M14.945,3.568a.379.379,0,0,0-.536-.017l-.161.152a.38.38,0,0,0-.016.536l.461.492,6.882,7.321.154.163a.381.381,0,0,0,.538.017l.159-.152a.378.378,0,0,0,.017-.536l-.278-.293-6.82-7.257Z" transform="translate(13.331 3.254)" fill="#ed6464"/>
        <path id="Trazado_705762" data-name="Trazado 705762" d="M36.755.379A.378.378,0,0,0,36.376,0h-.222a.379.379,0,0,0-.379.379V11.327a.379.379,0,0,0,.379.379h.222a.378.378,0,0,0,.379-.379V.379Z" transform="translate(33.756 0)" fill="#ed6464"/>
        <path id="Trazado_705763" data-name="Trazado 705763" d="M37.472.379A.379.379,0,0,0,37.093,0h-.222a.378.378,0,0,0-.379.379V11.327a.378.378,0,0,0,.379.379h.222a.379.379,0,0,0,.379-.379V.379Z" transform="translate(34.432 0)" fill="#ed6464"/>
        <path id="Trazado_705764" data-name="Trazado 705764" d="M20.75,61.795a1.193,1.193,0,0,0,1.191,1.193h.286a1.192,1.192,0,0,0,1.191-1.193V42.441l-2.669.966Z" transform="translate(19.579 40.046)" fill="#d65454"/>
        <path id="Trazado_705765" data-name="Trazado 705765" d="M43.235,49.237a1.093,1.093,0,0,0,1.092,1.092h.484A1.092,1.092,0,0,0,45.9,49.237V34.3l-2.669.968Z" transform="translate(40.795 32.365)" fill="#d65454"/>
        <path id="Trazado_705766" data-name="Trazado 705766" d="M31.427,30.224a.971.971,0,0,0,1.942,0V16.165l-1.942-.078Z" transform="translate(29.653 15.179)" fill="#d65454"/>
        <path id="Trazado_705767" data-name="Trazado 705767" d="M48.4,31.646a.971.971,0,0,0,1.942,0v-14.8L48.4,16.766Z" transform="translate(45.665 15.82)" fill="#d65454"/>
        <path id="Trazado_705768" data-name="Trazado 705768" d="M22.339,8.647h0L0,7.753V21.508l26.586,1.063V36.85a.971.971,0,1,0,1.942,0v-14.2l5.881.235q-.466-.236-.927-.486C27.946,19.4,23.231,14.845,22.339,8.647" transform="translate(0 7.316)" fill="#d65454"/>
        <path id="Trazado_705769" data-name="Trazado 705769" d="M68.068,22.685a6.267,6.267,0,0,1-1.444-2.562,8.454,8.454,0,0,1-.274-2.851,9.363,9.363,0,0,1,.581-2.762l.136-.336c.045-.111.1-.218.155-.328a7.073,7.073,0,0,1,.358-.636,6.659,6.659,0,0,1,.921-1.139,5.813,5.813,0,0,1,2.468-1.423c.2-.054.406-.1.608-.134L41.2,9.3a6.963,6.963,0,0,0-3.893,2.575,6.827,6.827,0,0,0-.548.952,8.3,8.3,0,0,0-.377,1.042,10.606,10.606,0,0,0-.369,2.256,9.056,9.056,0,0,0,.113,2.235,6.55,6.55,0,0,0,.3,1.038,2.293,2.293,0,0,0,.1.247c.037.082.072.165.117.243s.082.163.126.241l.144.233a7.664,7.664,0,0,0,3.316,2.653l19.865.795,1.942.078,8.482.338c-.019-.006-.041-.012-.06-.019a6,6,0,0,1-2.4-1.522" transform="translate(33.961 8.775)" fill="#ed6464"/>
        <path id="Trazado_705770" data-name="Trazado 705770" d="M76.746,22.224a12.127,12.127,0,0,1,1.738-8.429,7.106,7.106,0,0,1,1.656-1.67c.122-.087.249-.173.375-.253a8.668,8.668,0,0,1,.787-.441,15.984,15.984,0,0,0-4.07-.69L57.848,9.966A6.954,6.954,0,0,0,54,12.528a6.827,6.827,0,0,0-.548.952,8.3,8.3,0,0,0-.377,1.042,10.625,10.625,0,0,0-.369,2.256,9.051,9.051,0,0,0,.113,2.235,6.543,6.543,0,0,0,.3,1.038c.029.086.07.165.107.247s.072.165.117.243.082.163.126.241l.144.233a7.694,7.694,0,0,0,3.349,2.669l19.727.789a2.32,2.32,0,0,1,.671.111c-.119-.328-.225-.661-.317-1-.062-.225-.117-.451-.165-.678s-.091-.455-.126-.684" transform="translate(49.706 9.404)" fill="#ed6464"/>
        <path id="Trazado_705771" data-name="Trazado 705771" d="M52.415,22.082a6.267,6.267,0,0,1-1.444-2.562,8.453,8.453,0,0,1-.274-2.851,9.35,9.35,0,0,1,.581-2.762l.136-.336c.045-.111.1-.218.155-.328a7.069,7.069,0,0,1,.358-.636,6.658,6.658,0,0,1,.921-1.139,5.813,5.813,0,0,1,2.468-1.423,6.688,6.688,0,0,1,.672-.146l-33-1.32a6.779,6.779,0,0,0-3.46,2.439,6.94,6.94,0,0,0-.548.952,8.224,8.224,0,0,0-.377,1.044,10.588,10.588,0,0,0-.369,2.255,9.051,9.051,0,0,0,.113,2.235,6.754,6.754,0,0,0,.3,1.038c.029.086.07.165.107.247a2.54,2.54,0,0,0,.117.243c.043.08.082.163.126.241l.144.233a7.962,7.962,0,0,0,3.7,2.822L43.9,23.17l1.942.078,8.979.36-.008,0a6,6,0,0,1-2.4-1.522" transform="translate(17.182 8.096)" fill="#ed6464"/>
        <path id="Trazado_705772" data-name="Trazado 705772" d="M24.189,20.893a6.267,6.267,0,0,1-1.444-2.562,8.449,8.449,0,0,1-.274-2.851,9.376,9.376,0,0,1,.581-2.762l.136-.334c.045-.113.1-.22.155-.33a7.071,7.071,0,0,1,.358-.636,6.658,6.658,0,0,1,.921-1.139,5.813,5.813,0,0,1,2.468-1.423l.07-.016L11.494,8.213c.894,6.2,5.607,10.758,11.142,13.751.307.167.616.33.929.486l3.658.146c-.214-.049-.426-.109-.637-.179a6.023,6.023,0,0,1-2.4-1.524" transform="translate(10.845 7.75)" fill="#ed6464"/>
        <path id="Trazado_705773" data-name="Trazado 705773" d="M34.947,44.207a9.724,9.724,0,0,0-.327-2.27,6.067,6.067,0,0,0-.966-1.982A7.75,7.75,0,0,0,29.7,37.393L0,48.147V57.6L34.953,44.946c0-.245,0-.492-.006-.739" transform="translate(0 35.283)" fill="#ff7676"/>
        <path id="Trazado_705774" data-name="Trazado 705774" d="M16.389,43.679a6.372,6.372,0,0,1,1.38.2,6.047,6.047,0,0,1,2.546,1.372,6.442,6.442,0,0,1,1.658,2.478,8.933,8.933,0,0,1,.542,2.851v.041l34.535-12.5c0-.245,0-.49-.006-.737a9.654,9.654,0,0,0-.327-2.272,6.1,6.1,0,0,0-.964-1.982,7.755,7.755,0,0,0-3.955-2.56L15.439,43.728a5.533,5.533,0,0,1,.95-.049" transform="translate(14.568 28.841)" fill="#ff7676"/>
        <path id="Trazado_705775" data-name="Trazado 705775" d="M35.258,38.071a6.372,6.372,0,0,1,1.38.2,6.047,6.047,0,0,1,2.546,1.372,6.428,6.428,0,0,1,1.658,2.478,8.932,8.932,0,0,1,.542,2.851v.037L54.7,40.189c0-.068,0-.136.01-.2a14.11,14.11,0,0,1,3.172-8.243,8.024,8.024,0,0,1,13.473.878,12.072,12.072,0,0,1,.719,1.279l19.309-6.989c-1.883-1.269-3.471-2.429-4.321-3.063l-.006.01-.019-.008a3.391,3.391,0,0,1-1.333.311,26.144,26.144,0,0,0-2.836-.224c-.859.021-3.135.828-4.542,1.112a2.625,2.625,0,0,1-1.18.023.293.293,0,0,1-.206-.183.226.226,0,0,1-.194-.237l1.234-.6c.492-.249,1.067-.536,1.635-.814a4.292,4.292,0,0,1,.36-.286,3.4,3.4,0,0,1,.4-.231,2.973,2.973,0,0,1,.28-.122c-.169-.043-.307-.076-.4-.1a16.1,16.1,0,0,0-2.832.006L34.3,38.119a5.615,5.615,0,0,1,.958-.049" transform="translate(32.364 21.177)" fill="#ff7676"/>
        <path id="Trazado_705776" data-name="Trazado 705776" d="M50.172,32.32a4.17,4.17,0,0,1,1.048-.888c-.441-1.036-1.028-2.713-1.394-3.949a8,8,0,0,0-1.2,1.147,11.328,11.328,0,0,0-2.482,5.86l3.407-1.234a4.99,4.99,0,0,1,.624-.935" transform="translate(43.537 25.931)" fill="#ff7676"/>
        <path id="Trazado_705777" data-name="Trazado 705777" d="M68.719,32.454a12.657,12.657,0,0,1,1.458-3.574,10.356,10.356,0,0,1,3.6-3.664s-.54-1.362,4.682-5c.253-.175.5-.348.735-.519a8.067,8.067,0,0,1-1.4-1.736c-1.2-.138-1.819-.89-2.356-2.336-.113-.309-.243-.647-.383-1a1.944,1.944,0,0,1-.76-.6L74.288,14l.01.014c.037.045.183.187.546.054-.4-1.024-.865-2.177-1.292-3.3l-.152-.049a8.024,8.024,0,0,0-.789.441c-.126.08-.251.165-.373.253a7.228,7.228,0,0,0-1.658,1.668,12.133,12.133,0,0,0-1.738,8.431c.037.229.08.457.126.684s.1.453.165.678q.137.5.319,1a1.647,1.647,0,0,1,1.086,1.46,1.67,1.67,0,0,1-1.2,2.029l-8.281,3c1.535.587,2.943,1.186,3.119,1.261,1.588.3,3.106.575,4.544.834" transform="translate(57.61 10.116)" fill="#ff7676"/>
        <path id="Trazado_705778" data-name="Trazado 705778" d="M53.817,29.818c-.138-.264-.288-.521-.447-.766a7.866,7.866,0,0,0-1.118-1.366L51.112,30.8Z" transform="translate(48.227 26.124)" fill="#ff7676"/>
        <path id="Trazado_705779" data-name="Trazado 705779" d="M51.8,33.039a3.1,3.1,0,0,0-.43-1.86,1.243,1.243,0,0,0-.88-.622l-.052,0a1.29,1.29,0,0,0-.9.5,3.322,3.322,0,0,0-.247,3.634l2.367-.857a3.458,3.458,0,0,0,.146-.8" transform="translate(46.099 28.831)" fill="#ed6464"/>
        <path id="Trazado_705780" data-name="Trazado 705780" d="M52.222,31.575,38.91,36.393a9.881,9.881,0,0,1-.3,2.808,7.135,7.135,0,0,1-.22.7,6.938,6.938,0,0,1-.286.682,6.786,6.786,0,0,1-.791,1.259c-.124.154-.258.3-.4.439l12.27-4.443,2.67-.966.906-.328a15.116,15.116,0,0,1-.546-4.972" transform="translate(34.838 29.793)" fill="#ed6464"/>
        <path id="Trazado_705781" data-name="Trazado 705781" d="M50.077,41.236a6.819,6.819,0,0,0,3.66-3.047,8.239,8.239,0,0,0,.845-3.737l-34.535,12.5a10,10,0,0,1-.3,2.8,7.335,7.335,0,0,1-.22.7A6.749,6.749,0,0,1,18.453,52.4c-.124.155-.26.3-.4.443l5.238-1.9,2.669-.966L50.11,41.24l-.033,0" transform="translate(17.036 32.507)" fill="#ed6464"/>
        <path id="Trazado_705782" data-name="Trazado 705782" d="M30.448,48.063a6.819,6.819,0,0,0,3.66-3.048,8.231,8.231,0,0,0,.845-3.736L0,53.933V59.1L30.485,48.067l-.037,0" transform="translate(0 38.95)" fill="#ed6464"/>
        <path id="Trazado_705783" data-name="Trazado 705783" d="M54.729,34.551a11.193,11.193,0,0,1,2.2,1.2l1.864-.674A45.8,45.8,0,0,1,70.1,30.909a16.215,16.215,0,0,1,1.429-1.858,11.948,11.948,0,0,0,1.339-1.866,17.155,17.155,0,0,0,.956-1.92c-.266-.175-.529-.35-.783-.523L53.734,31.731a13.322,13.322,0,0,1,1,2.82" transform="translate(50.701 23.346)" fill="#ed6464"/>
        <path id="Trazado_705784" data-name="Trazado 705784" d="M51.287,29.763l-.36.978a4.308,4.308,0,0,1,.6.735,4.55,4.55,0,0,1,.28.494,1.333,1.333,0,0,1,.033-.362c.091-.272.812-.334,1.664-.292h.006c.218.012.445.029.671.052h0l.01-.249a1.059,1.059,0,0,1,.439-.822,10.29,10.29,0,0,0-.641-1.514Z" transform="translate(48.053 27.159)" fill="#ed6464"/>
        <path id="Trazado_705785" data-name="Trazado 705785" d="M48.964,32.78a5.856,5.856,0,0,1,.643-2.328L46.2,31.684c-.039.3-.07.6-.091.91a13.326,13.326,0,0,0,.047,2.27l2.824-1.1a6.114,6.114,0,0,1-.016-.981" transform="translate(43.48 28.733)" fill="#ed6464"/>
        <path id="Trazado_705786" data-name="Trazado 705786" d="M54.625,21.092l-.142-.233c-.047-.078-.086-.161-.126-.239s-.082-.161-.119-.245a2.544,2.544,0,0,1-.1-.247,6.543,6.543,0,0,1-.3-1.038,8.959,8.959,0,0,1-.113-2.235,10.586,10.586,0,0,1,.367-2.255,8.018,8.018,0,0,1,.379-1.042,7.034,7.034,0,0,1,.546-.954,6.964,6.964,0,0,1,3.852-2.562l.068-.019A4.563,4.563,0,0,0,57.6,9.887a5.139,5.139,0,0,0-.748.076,6.114,6.114,0,0,0-.61.134,5.793,5.793,0,0,0-2.468,1.423,6.584,6.584,0,0,0-.921,1.139,7.284,7.284,0,0,0-.358.636c-.051.109-.111.218-.155.328l-.136.334a9.375,9.375,0,0,0-.581,2.764,8.458,8.458,0,0,0,.274,2.851,6.267,6.267,0,0,0,1.444,2.562,6.018,6.018,0,0,0,2.4,1.522l.062.019a6.474,6.474,0,0,0,1.271.282,5.048,5.048,0,0,0,1.337-.008c-.148-.06-.29-.122-.433-.187a7.708,7.708,0,0,1-3.349-2.67" transform="translate(48.689 9.327)" fill="#d65454"/>
        <path id="Trazado_705787" data-name="Trazado 705787" d="M37.938,20.432,37.8,20.2c-.047-.078-.086-.161-.128-.241s-.08-.159-.117-.243-.078-.161-.1-.247a6.543,6.543,0,0,1-.3-1.038,8.958,8.958,0,0,1-.113-2.235,10.586,10.586,0,0,1,.367-2.255,8.2,8.2,0,0,1,.379-1.042,6.836,6.836,0,0,1,.546-.954,6.972,6.972,0,0,1,3.895-2.573l.025-.008a4.563,4.563,0,0,0-1.333-.136,5.088,5.088,0,0,0-.686.064,5.774,5.774,0,0,0-3.141,1.567A6.672,6.672,0,0,0,36.166,12a7.284,7.284,0,0,0-.358.636c-.051.109-.111.218-.155.328l-.136.334a9.376,9.376,0,0,0-.581,2.762,8.464,8.464,0,0,0,.274,2.853,6.267,6.267,0,0,0,1.444,2.562A6.053,6.053,0,0,0,39.05,23l.01,0a6.476,6.476,0,0,0,1.324.3,5.032,5.032,0,0,0,1.335-.008c-.157-.064-.311-.132-.465-.2a7.687,7.687,0,0,1-3.316-2.653" transform="translate(32.943 8.704)" fill="#d65454"/>
        <path id="Trazado_705788" data-name="Trazado 705788" d="M39.984,42.875a6.9,6.9,0,0,0,.793-1.259,8.118,8.118,0,0,0,.5-1.384,9.953,9.953,0,0,0,.3-2.808l0-.037a8.888,8.888,0,0,0-.54-2.853,6.435,6.435,0,0,0-1.658-2.476,6.03,6.03,0,0,0-2.546-1.374,6.369,6.369,0,0,0-1.38-.2,5.275,5.275,0,0,0-.96.049,3.959,3.959,0,0,0-.4.076c.035.01.066.021.1.031A7.77,7.77,0,0,1,38.149,33.2a6.067,6.067,0,0,1,.966,1.982,9.724,9.724,0,0,1,.327,2.27c.008.247.01.494,0,.739a8.189,8.189,0,0,1-.845,3.737,6.822,6.822,0,0,1-3.658,3.047l.033,0a4.5,4.5,0,0,0,1.331,0,5.671,5.671,0,0,0,3.281-1.666c.138-.14.272-.286.4-.439" transform="translate(32.171 28.763)" fill="#d65454"/>
        <path id="Trazado_705789" data-name="Trazado 705789" d="M21.119,49.7a6.9,6.9,0,0,0,.793-1.259,8.118,8.118,0,0,0,.5-1.384,9.867,9.867,0,0,0,.3-2.807v-.039a8.888,8.888,0,0,0-.54-2.853,6.435,6.435,0,0,0-1.658-2.476,6.025,6.025,0,0,0-2.548-1.374,6.335,6.335,0,0,0-1.378-.2,5.357,5.357,0,0,0-.952.049,4.108,4.108,0,0,0-.4.076c.035.01.068.021.1.033a7.776,7.776,0,0,1,3.951,2.56,6.125,6.125,0,0,1,.966,1.982,9.843,9.843,0,0,1,.327,2.27c.008.249.008.5,0,.74a8.237,8.237,0,0,1-.845,3.736,6.819,6.819,0,0,1-3.66,3.048l.037,0a4.47,4.47,0,0,0,1.327,0,5.714,5.714,0,0,0,1.355-.365A6.1,6.1,0,0,0,21.119,49.7" transform="translate(14.37 35.205)" fill="#d65454"/>
        <path id="Trazado_705790" data-name="Trazado 705790" d="M20.155,19.643l-.142-.233c-.047-.078-.086-.161-.128-.241s-.08-.159-.117-.243a2.294,2.294,0,0,1-.1-.247,6.542,6.542,0,0,1-.3-1.038,8.958,8.958,0,0,1-.113-2.235,10.465,10.465,0,0,1,.367-2.255A8.045,8.045,0,0,1,20,12.108a6.926,6.926,0,0,1,.546-.952A6.8,6.8,0,0,1,24,8.716c.152-.051.3-.1.459-.142a4.478,4.478,0,0,0-1.331-.136,5.557,5.557,0,0,0-1.289.192l-.07.017A5.809,5.809,0,0,0,19.3,10.069a6.672,6.672,0,0,0-.921,1.141,6.813,6.813,0,0,0-.358.636c-.052.109-.111.218-.155.328l-.136.334a9.376,9.376,0,0,0-.581,2.762,8.464,8.464,0,0,0,.274,2.853,6.247,6.247,0,0,0,1.444,2.56,6.023,6.023,0,0,0,2.4,1.524c.212.072.424.13.639.181a6.473,6.473,0,0,0,.694.121,5.033,5.033,0,0,0,1.335-.008l-.082-.035a7.962,7.962,0,0,1-3.7-2.822" transform="translate(16.164 7.96)" fill="#d65454"/>
        <path id="Trazado_705791" data-name="Trazado 705791" d="M51.422,31.531a3.53,3.53,0,0,1,2.231,1.03l.36-.978,1.141-3.11a5.425,5.425,0,0,0-3.426-1.611c-.107-.006-.214-.01-.319-.01a5.526,5.526,0,0,0-3.37,1.222c.365,1.236.95,2.913,1.392,3.949a3.432,3.432,0,0,1,1.992-.494" transform="translate(45.327 25.338)" fill="#e58d23"/>
        <path id="Trazado_705792" data-name="Trazado 705792" d="M49.76,34.575a5.338,5.338,0,0,1-.818-2.42l-2.824,1.1a9.744,9.744,0,0,0,3.106,6.478c.478-1.156,1.23-2.974,1.65-4a4.115,4.115,0,0,1-1.114-1.156" transform="translate(43.515 30.34)" fill="#e58d23"/>
        <path id="Trazado_705793" data-name="Trazado 705793" d="M53.3,35.218a8.373,8.373,0,0,1-.943-2.979,5.462,5.462,0,0,1-1.189,2.641,4.405,4.405,0,0,1-.307.323l2.227,2.915a10.756,10.756,0,0,0,1.551-3c-.6.21-1.119.286-1.339.1" transform="translate(47.986 30.42)" fill="#e58d23"/>
        <path id="Trazado_705794" data-name="Trazado 705794" d="M69.585,47.014c.012.435.006.832-.014,1.2a1.56,1.56,0,0,1,.163,0,2.778,2.778,0,0,1,2.2,1.118,11.946,11.946,0,0,0,3.351.039,17.592,17.592,0,0,1,.1-1.986,19.674,19.674,0,0,1-5.8-.369" transform="translate(65.644 44.361)" fill="#d8a49c"/>
        <path id="Trazado_705795" data-name="Trazado 705795" d="M71.171,48.206c.36.618.325,1.518-.5,2.762a3.761,3.761,0,0,1-.292.383,8.642,8.642,0,0,0,4.227-1.127c-.049-.542-.086-1.242-.087-1.979a12.006,12.006,0,0,1-3.349-.039" transform="translate(66.408 45.485)" fill="#fad2c6"/>
        <path id="Trazado_705796" data-name="Trazado 705796" d="M72.67,54c-4.459.159-8.847-.192-9.483-1.67l-.019.249a2.367,2.367,0,0,0,1.749,2.464,24.635,24.635,0,0,0,7.209.754,58.66,58.66,0,0,0,8.795-.978,2.224,2.224,0,0,0,1.8-2.367c-.2.587-5.164,1.372-10.046,1.547" transform="translate(59.597 49.377)" fill="#4b3c4f"/>
        <path id="Trazado_705797" data-name="Trazado 705797" d="M77.177,50.466c-.021.023-.041.049-.062.072a2.913,2.913,0,0,1,.43.836.334.334,0,1,1-.241.525.331.331,0,0,1,.047-.437,7.361,7.361,0,0,0-.575-.579,7.325,7.325,0,0,1-.948.731,2.15,2.15,0,0,1,.192.546.33.33,0,0,1,.313.138.335.335,0,1,1-.47-.078,5.179,5.179,0,0,0-.352-.406,13.184,13.184,0,0,1-1.263.663,3.515,3.515,0,0,1,.338.672.335.335,0,1,1-.2.523.336.336,0,0,1,.023-.418c-.2-.2-.4-.4-.6-.583-.4.171-.807.327-1.2.465a3.665,3.665,0,0,1,.435.822.332.332,0,0,1,.214.138.335.335,0,1,1-.468-.082L72.808,54c-.192-.192-.381-.379-.575-.556-.049-.047-.1-.087-.15-.132l-.377.12a4.092,4.092,0,0,1-3.852-.785l-.812-.69s.659-.13,1.6-.4c-.5.13-.991.241-1.448.321a4.737,4.737,0,0,0-4.017,3.46c.634,1.479,5.024,1.829,9.481,1.67,4.884-.173,9.846-.96,10.046-1.547.237-.7-.428-3.951-.964-6.313,0,0-.12.076-.332.192a8.655,8.655,0,0,1-4.229,1.129" transform="translate(59.61 46.37)" fill="#ed6464"/>
        <path id="Trazado_705798" data-name="Trazado 705798" d="M65.977,51.562a4.092,4.092,0,0,0,3.852.785c.122-.039.249-.078.377-.12-.26-.235-.529-.459-.807-.667a11.537,11.537,0,0,0-1.034-.692c-.328-.2-.672-.381-1.032-.573-.2.062-.389.121-.569.173-.941.274-1.6.406-1.6.406Z" transform="translate(61.487 47.457)" fill="#d65454"/>
        <path id="Trazado_705799" data-name="Trazado 705799" d="M68.5,49.774a5.325,5.325,0,0,1,1.238.577,3.847,3.847,0,0,1,1.032.929,2.808,2.808,0,0,1,.257.412,7.013,7.013,0,0,0,.947-.731l-.031-.029a8.548,8.548,0,0,0-1-.754c-.352-.229-.719-.443-1.1-.659-.255-.148-.515-.3-.774-.461a.279.279,0,0,1-.043.051,6.955,6.955,0,0,1-.775.6c.082.019.163.041.243.064" transform="translate(64.407 46.29)" fill="#d65454"/>
        <path id="Trazado_705800" data-name="Trazado 705800" d="M67.421,50.747a4.434,4.434,0,0,1,1.205.639,4.344,4.344,0,0,1,.95.974l.008.01c.391-.138.793-.292,1.2-.463l-.029-.027a12.285,12.285,0,0,0-.954-.8,11.569,11.569,0,0,0-1.036-.692c-.249-.152-.509-.293-.775-.435-.55.233-1.1.433-1.605.6a3.6,3.6,0,0,1,1.04.194" transform="translate(62.634 47.135)" fill="#d65454"/>
        <path id="Trazado_705801" data-name="Trazado 705801" d="M69.6,50.424a5.215,5.215,0,0,1,1.238.583,3.916,3.916,0,0,1,1.02.948l.01.012c.021-.023.043-.047.062-.072a3.875,3.875,0,0,0,.293-.385c.822-1.244.859-2.142.5-2.76a2.786,2.786,0,0,0-2.2-1.119,1.533,1.533,0,0,0-.163,0C69.1,47.67,69,49.5,68.731,50.218a5.867,5.867,0,0,1,.873.206" transform="translate(64.852 44.94)" fill="#d65454"/>
        <path id="Trazado_705802" data-name="Trazado 705802" d="M68.01,50.343a4.384,4.384,0,0,1,1.2.639,4.231,4.231,0,0,1,.952.974c.037.051.068.1.1.152a13.184,13.184,0,0,0,1.263-.663c-.1-.1-.192-.194-.3-.284a8.57,8.57,0,0,0-1-.735c-.358-.222-.725-.447-1.094-.651-.157-.087-.317-.167-.48-.243a12.059,12.059,0,0,1-1.259.657,3.809,3.809,0,0,1,.616.154" transform="translate(63.59 46.738)" fill="#d65454"/>
        <path id="Trazado_705803" data-name="Trazado 705803" d="M70.52,50.379a.337.337,0,1,0,.194-.087,2.113,2.113,0,0,1,.091.424c-.1-.117-.19-.229-.286-.336" transform="translate(66.439 47.452)" fill="#554560"/>
        <path id="Trazado_705804" data-name="Trazado 705804" d="M68.211,51.666l-.019.01a.336.336,0,1,0,.468.084.332.332,0,0,0-.214-.138,3.1,3.1,0,0,1,.117.4l-.352-.352" transform="translate(64.208 48.708)" fill="#554560"/>
        <path id="Trazado_705805" data-name="Trazado 705805" d="M68.995,51.314a.335.335,0,1,0,.181-.1,2.916,2.916,0,0,1,.119.4l-.3-.3" transform="translate(65.02 48.312)" fill="#554560"/>
        <path id="Trazado_705806" data-name="Trazado 705806" d="M69.77,50.756a.336.336,0,0,0,.391.546.334.334,0,0,0-.233-.606,1.744,1.744,0,0,1,.039.332c-.064-.1-.13-.185-.2-.272" transform="translate(65.7 47.833)" fill="#554560"/>
        <path id="Trazado_705807" data-name="Trazado 705807" d="M68.865,49.941c.367.2.737.43,1.092.651a8.412,8.412,0,0,1,1,.735c.1.089.2.185.3.284a4.8,4.8,0,0,1,.352.406c.066.086.132.177.2.272a1.726,1.726,0,0,0-.039-.332,2.223,2.223,0,0,0-.19-.546A2.709,2.709,0,0,0,71.321,51a3.847,3.847,0,0,0-1.032-.929,5.247,5.247,0,0,0-1.238-.577c-.08-.025-.161-.045-.243-.064a2.267,2.267,0,0,0-1.129,0,5.2,5.2,0,0,1,.706.266c.163.076.323.155.48.243" transform="translate(63.859 46.573)" fill="#fff"/>
        <path id="Trazado_705808" data-name="Trazado 705808" d="M68.157,50.488a12.275,12.275,0,0,1,1.034.692c.33.249.647.515.956.8l.027.027c.2.187.4.381.6.583.1.1.2.2.3.3a2.681,2.681,0,0,0-.121-.4,3.588,3.588,0,0,0-.338-.674c-.033-.051-.066-.1-.1-.15a4.353,4.353,0,0,0-.95-.976,4.406,4.406,0,0,0-1.205-.639,4.139,4.139,0,0,0-.616-.154,3.086,3.086,0,0,0-.721-.033l.36.194c.266.144.527.286.775.435" transform="translate(63.239 47.036)" fill="#fff"/>
        <path id="Trazado_705809" data-name="Trazado 705809" d="M67.363,50.9a12.274,12.274,0,0,1,1.034.692c.278.21.544.433.807.669.049.043.1.086.15.13.194.179.383.365.575.558.115.115.231.233.352.352a3.189,3.189,0,0,0-.117-.4,3.7,3.7,0,0,0-.435-.822l-.008-.01a4.353,4.353,0,0,0-.95-.976,4.405,4.405,0,0,0-1.205-.639,3.524,3.524,0,0,0-1.04-.192,2.532,2.532,0,0,0-.3.006l.1.056c.36.192.7.375,1.032.573" transform="translate(62.49 47.425)" fill="#fff"/>
        <path id="Trazado_705810" data-name="Trazado 705810" d="M69.631,49.639c.377.216.744.428,1.1.657a8.563,8.563,0,0,1,1,.756l.031.029a7.361,7.361,0,0,1,.575.579c.1.109.19.22.284.336a2.107,2.107,0,0,0-.089-.424,2.938,2.938,0,0,0-.43-.836l-.01-.012a3.916,3.916,0,0,0-1.02-.948,5.215,5.215,0,0,0-1.238-.583,5.892,5.892,0,0,0-.875-.206c-.15-.023-.3-.043-.457-.054.12.087.241.167.362.245.258.163.519.313.774.461" transform="translate(64.63 46.171)" fill="#fff"/>
        <path id="Trazado_705811" data-name="Trazado 705811" d="M74.46,37.215c0,.109-.01.218-.014.328,0-.111.01-.222.014-.328" transform="translate(70.244 35.115)" fill="#af69a5"/>
        <path id="Trazado_705812" data-name="Trazado 705812" d="M76,45.51c.072-1.778.122-3.559.142-5.341.016-1.914.012-3.829-.08-5.745-.255,1.9-.422,3.809-.569,5.718s-.251,3.817-.332,5.728c-.008.169-.012.34-.019.509a12.546,12.546,0,0,1-4.565,3.036q-1.192.379-2.4.639c.34,3.4.659,6.46.861,8.375,0,0,.729.233,1.864.465a19.68,19.68,0,0,0,5.8.369,11.407,11.407,0,0,0,2.181-.435c.694-4.735,1.119-11.2,1.362-16.015.066-.97.089-1.837.122-2.635,0-.111.008-.22.014-.328l.006-.13A36.091,36.091,0,0,1,76,45.51" transform="translate(64.327 32.481)" fill="#9b5995"/>
        <path id="Trazado_705813" data-name="Trazado 705813" d="M97.969,49.222a11.981,11.981,0,0,0-.482-3.316c-.4.064-.807.119-1.209.157a20.753,20.753,0,0,1,.472,5.726c.165-.021.325-.041.478-.056a1.444,1.444,0,0,1-.021-.163,2.776,2.776,0,0,1,.762-2.348" transform="translate(90.844 43.315)" fill="#d8a49c"/>
        <path id="Trazado_705814" data-name="Trazado 705814" d="M97.382,49.412c.556-.451,1.448-.556,2.8.064a4.113,4.113,0,0,1,.426.229,8.647,8.647,0,0,0-1.771-4c-.529.132-1.213.278-1.942.393a11.981,11.981,0,0,1,.482,3.316" transform="translate(91.431 43.125)" fill="#fad2c6"/>
        <path id="Trazado_705815" data-name="Trazado 705815" d="M105.855,54.528a58.642,58.642,0,0,0-2.33-8.536,2.226,2.226,0,0,0-2.62-1.405c.612.1,2.159,4.888,3.09,9.683.847,4.379,1.184,8.771-.179,9.626l.249-.019a2.365,2.365,0,0,0,2.163-2.109,24.545,24.545,0,0,0-.373-7.24" transform="translate(95.21 42.011)" fill="#4b3c4f"/>
        <path id="Trazado_705816" data-name="Trazado 705816" d="M106.95,54.243c-.929-4.8-2.476-9.578-3.088-9.683-.727-.126-3.837,1.034-6.087,1.93,0,0,.1.109.243.3a8.627,8.627,0,0,1,1.771,4c.027.016.054.033.082.051a2.891,2.891,0,0,1,.758-.554.336.336,0,0,1,.566-.319.335.335,0,0,1-.447.5,6.86,6.86,0,0,0-.484.657,7.3,7.3,0,0,1,.869.822,2.3,2.3,0,0,1,.509-.274.331.331,0,0,1,.089-.33.335.335,0,1,1-.006.478,5.159,5.159,0,0,0-.346.41,13.241,13.241,0,0,1,.851,1.145,3.59,3.59,0,0,1,.612-.439.335.335,0,1,1,.132.163c-.169.229-.33.455-.484.682.233.371.447.746.645,1.11a3.706,3.706,0,0,1,.744-.558.336.336,0,1,1,.1.243l-.014-.017c-.161.22-.317.435-.463.655-.037.056-.07.113-.107.169.062.12.121.239.179.354a4.087,4.087,0,0,1-.179,3.926l-.554.912s-.233-.632-.649-1.518c.208.476.393.941.542,1.38a4.74,4.74,0,0,0,4.041,3.432c1.362-.857,1.028-5.248.179-9.626" transform="translate(92.255 42.037)" fill="#ed6464"/>
        <path id="Trazado_705817" data-name="Trazado 705817" d="M101.375,54.406a4.087,4.087,0,0,0,.179-3.926c-.058-.117-.117-.235-.179-.356-.19.3-.369.593-.533.9a11.934,11.934,0,0,0-.525,1.129c-.144.356-.272.723-.406,1.108.093.187.181.367.26.538.416.884.649,1.516.649,1.516Z" transform="translate(94.272 47.295)" fill="#d65454"/>
        <path id="Trazado_705818" data-name="Trazado 705818" d="M99.114,51.551a5.3,5.3,0,0,1,.377-1.314,3.894,3.894,0,0,1,.758-1.162,2.6,2.6,0,0,1,.369-.317,7.332,7.332,0,0,0-.871-.824l-.023.037a8.225,8.225,0,0,0-.591,1.1c-.173.383-.327.779-.48,1.186-.107.274-.212.554-.334.834a.374.374,0,0,1,.054.035,6.8,6.8,0,0,1,.715.672c.006-.084.014-.167.025-.249" transform="translate(92.77 45.229)" fill="#d65454"/>
        <path id="Trazado_705819" data-name="Trazado 705819" d="M99.663,50.616a5.267,5.267,0,0,1,.383-1.314,3.974,3.974,0,0,1,.779-1.156l.012-.01c-.027-.018-.054-.035-.082-.051a3.485,3.485,0,0,0-.426-.229c-1.357-.622-2.251-.517-2.8-.064a2.781,2.781,0,0,0-.764,2.348,1.354,1.354,0,0,0,.021.161c.239,1.238,2.058,1.055,2.812,1.211a6.005,6.005,0,0,1,.068-.9" transform="translate(91.289 44.745)" fill="#d65454"/>
        <path id="Trazado_705820" data-name="Trazado 705820" d="M99.786,52.151a4.407,4.407,0,0,1,1.259-2.381q.064-.061.134-.122a13.245,13.245,0,0,0-.851-1.145c-.082.111-.161.222-.233.338a8.483,8.483,0,0,0-.571,1.106c-.163.385-.328.785-.472,1.18-.062.169-.117.338-.165.511a13.058,13.058,0,0,1,.843,1.145,4.038,4.038,0,0,1,.056-.632" transform="translate(93.305 45.766)" fill="#d65454"/>
        <path id="Trazado_705821" data-name="Trazado 705821" d="M100.3,52.8a4.407,4.407,0,0,1,1.259-2.381l.008-.008c-.2-.363-.412-.739-.643-1.11l-.021.031a12.049,12.049,0,0,0-.641,1.069,11.5,11.5,0,0,0-.523,1.129c-.111.27-.21.546-.311.834.317.507.6,1.018.842,1.493A3.575,3.575,0,0,1,100.3,52.8" transform="translate(93.818 46.519)" fill="#d65454"/>
        <path id="Trazado_705822" data-name="Trazado 705822" d="M99.365,47.887a.338.338,0,1,0-.117-.179,2.171,2.171,0,0,1,.4-.155c-.1.111-.2.224-.288.334" transform="translate(93.636 44.619)" fill="#554560"/>
        <path id="Trazado_705823" data-name="Trazado 705823" d="M101,49.969l.014.017a.337.337,0,0,0,.474.008.336.336,0,1,0-.568-.251,2.736,2.736,0,0,1,.373-.177c-.1.138-.2.27-.293.4" transform="translate(95.22 46.628)" fill="#554560"/>
        <path id="Trazado_705824" data-name="Trazado 705824" d="M100.524,49.25a.335.335,0,1,0-.132-.161,2.841,2.841,0,0,1,.381-.181c-.084.117-.167.229-.249.342" transform="translate(94.704 45.888)" fill="#554560"/>
        <path id="Trazado_705825" data-name="Trazado 705825" d="M99.853,48.57a.336.336,0,1,0,0-.478.331.331,0,0,0-.087.33,1.873,1.873,0,0,1,.321-.089c-.084.08-.161.157-.237.237" transform="translate(94.126 45.289)" fill="#554560"/>
        <path id="Trazado_705826" data-name="Trazado 705826" d="M99.216,51.441c.144-.395.309-.795.474-1.18a8.242,8.242,0,0,1,.569-1.106,4.035,4.035,0,0,1,.235-.338,4.771,4.771,0,0,1,.344-.412c.076-.078.155-.157.239-.235a1.731,1.731,0,0,0-.323.089,2.226,2.226,0,0,0-.509.274,2.591,2.591,0,0,0-.367.317,3.89,3.89,0,0,0-.758,1.164,5.181,5.181,0,0,0-.377,1.312c-.012.082-.019.165-.025.251a2.245,2.245,0,0,0,.179,1.114,5.33,5.33,0,0,1,.154-.739c.049-.173.1-.342.165-.511" transform="translate(93.14 45.451)" fill="#fff"/>
        <path id="Trazado_705827" data-name="Trazado 705827" d="M99.845,52.028a11.941,11.941,0,0,1,.525-1.129,11.728,11.728,0,0,1,.639-1.067l.021-.033c.154-.227.315-.453.484-.682.082-.113.165-.225.249-.342a2.732,2.732,0,0,0-.381.181,3.485,3.485,0,0,0-.612.439q-.07.058-.134.122A4.411,4.411,0,0,0,99.376,51.9a4.083,4.083,0,0,0-.056.634,3.073,3.073,0,0,0,.08.717q.07-.2.134-.385c.1-.286.2-.564.311-.834" transform="translate(93.714 46.021)" fill="#fff"/>
        <path id="Trazado_705828" data-name="Trazado 705828" d="M100.375,52.749a11.933,11.933,0,0,1,.525-1.129c.163-.307.342-.6.533-.9.037-.056.07-.113.107-.167.146-.22.3-.435.463-.657l.292-.4a2.961,2.961,0,0,0-.373.175,3.716,3.716,0,0,0-.744.56l-.01.008a4.411,4.411,0,0,0-1.259,2.379,3.654,3.654,0,0,0-.031,1.059c.014.1.031.194.054.292l.039-.111c.134-.385.26-.752.406-1.108" transform="translate(94.214 46.702)" fill="#fff"/>
        <path id="Trazado_705829" data-name="Trazado 705829" d="M98.752,50.738c.154-.406.307-.8.48-1.186a8.346,8.346,0,0,1,.591-1.1l.023-.035a6.947,6.947,0,0,1,.484-.657c.091-.113.187-.224.288-.334a2.043,2.043,0,0,0-.4.155,2.86,2.86,0,0,0-.758.554l-.012.01a3.93,3.93,0,0,0-.777,1.156,5.191,5.191,0,0,0-.385,1.314,6,6,0,0,0-.068.894c0,.154,0,.305.018.461.068-.132.128-.262.187-.395.122-.28.227-.56.334-.836" transform="translate(92.671 44.748)" fill="#fff"/>
        <path id="Trazado_705830" data-name="Trazado 705830" d="M81.365,43.626a10.535,10.535,0,0,0-2.375-6.814,36.533,36.533,0,0,0,7.731,5.145,23.857,23.857,0,0,0-8.962-12.55l-3.588.669-3.114-.066a2.4,2.4,0,0,0-1.279.128,5.021,5.021,0,0,0-2.6,4.563,1.108,1.108,0,0,1,.1-.272,2.661,2.661,0,0,0,.585.991,3.68,3.68,0,0,0,.83.649,4.1,4.1,0,0,0,.983.414,2.288,2.288,0,0,0,1.143.039,1.155,1.155,0,0,1-.515.445,1.844,1.844,0,0,1-.684.159,2.484,2.484,0,0,1-1.339-.344,2.452,2.452,0,0,1-.793-.723,14.3,14.3,0,0,0,.233,2.83c.251,3.907.859,10.357,1.413,15.9q1.2-.262,2.4-.641A12.546,12.546,0,0,0,76.1,51.113c.006-.169.012-.34.019-.509q.12-2.869.332-5.73c.148-1.907.315-3.815.569-5.718.091,1.918.1,3.833.078,5.745q-.029,2.673-.14,5.343a36.242,36.242,0,0,0,4.385-5.792c.012-.284.023-.554.033-.81l3.45.663,2.4.461v-.008Z" transform="translate(63.366 27.747)" fill="#af69a5"/>
        <path id="Trazado_705831" data-name="Trazado 705831" d="M68.287,34.345a2.491,2.491,0,0,0,1.341.344,1.853,1.853,0,0,0,.684-.159,1.177,1.177,0,0,0,.515-.445,2.287,2.287,0,0,1-1.143-.039,4.071,4.071,0,0,1-.983-.414,3.637,3.637,0,0,1-.83-.649,2.69,2.69,0,0,1-.587-.991,1.194,1.194,0,0,0-.1.272,1.641,1.641,0,0,0,.14,1.073,2.121,2.121,0,0,0,.169.286,2.446,2.446,0,0,0,.791.723" transform="translate(63.36 30.186)" fill="#9b5995"/>
        <path id="Trazado_705832" data-name="Trazado 705832" d="M87.252,36.544c.089-.645.225-1.545.369-2.505-9.708-.81-10.515-4.925-10.515-4.925s-.021-.047-.058-.132l-4.437.826A23.861,23.861,0,0,1,81.573,42.36a36.576,36.576,0,0,1-7.73-5.147,10.529,10.529,0,0,1,2.373,6.814l5.866,1.131v.01l4.863.933a87.124,87.124,0,0,1,.307-9.556" transform="translate(68.513 27.346)" fill="#9b5995"/>
        <path id="Trazado_705833" data-name="Trazado 705833" d="M84.26,35.31a20.511,20.511,0,0,0,.974,4.035,11.127,11.127,0,0,0,.873,1.844,7.241,7.241,0,0,0,1.246,1.584,6.6,6.6,0,0,0,1.67,1.154,7.607,7.607,0,0,0,1.372.486c.144-.653.284-1.306.414-1.961.293-1.417.534-2.841.739-4.27.1-.715.181-1.432.247-2.152s.109-1.438.12-2.159a16.8,16.8,0,0,0-.163-2.863A35.876,35.876,0,0,1,83.935,32.2c.07,1.048.173,2.087.325,3.114" transform="translate(79.198 29.259)" fill="#c67fb9"/>
        <path id="Trazado_705834" data-name="Trazado 705834" d="M111.65,60.686c-.056-.239-.093-.371-.093-.371l-2.218-.072.589.021s-5.034,2.412-20.133,3.784a48.119,48.119,0,0,0,3.45-4.387l.014,0c.505-1.271,1.063-2.719,1.638-4.291.816-2.227,4.5-12.985,4.447-20.6a14.241,14.241,0,0,0-.824-4.363,14.518,14.518,0,0,1-2.886,1.121c.06.237.113.476.159.715a16.852,16.852,0,0,1,.253,2.187,30.1,30.1,0,0,1-.134,4.39c-.13,1.458-.36,2.9-.61,4.342s-.575,2.865-.912,4.284-.723,2.828-1.127,4.227-.836,2.793-1.3,4.173c-.923,2.762-1.934,5.5-3.106,8.163.851-2.783,1.691-5.564,2.494-8.353.395-1.4.8-2.789,1.166-4.192s.744-2.8,1.077-4.21q.262-1.064.5-2.132a6.347,6.347,0,0,1-1.489-.251,6.26,6.26,0,0,1-1.947-1.046,6.791,6.791,0,0,1-1.481-1.656,10.017,10.017,0,0,1-.985-1.975,15.168,15.168,0,0,1-.844-4.254,18.529,18.529,0,0,1,.084-3.168c-1.423.07-3,.087-4.729.033q-1.076-.035-2.035-.117c-.144.96-.28,1.86-.371,2.507a87.386,87.386,0,0,0-.3,9.556c.031,9.531.519,22.05.548,22.143a3.134,3.134,0,0,0,.076.6,5.1,5.1,0,0,0,3.176,3.423c.235-.021.461-.039.68-.078a3.976,3.976,0,0,0,.634-.159,3.221,3.221,0,0,0,1.09-.612,2.8,2.8,0,0,0,.746-.981,1.882,1.882,0,0,0,.124-1.267,1.311,1.311,0,0,1,.3.653,1.888,1.888,0,0,1-.039.744,2.457,2.457,0,0,1-.795,1.25,2.677,2.677,0,0,1-1.335.614c-.066.012-.134.018-.2.023,2.163.214,8.686.61,25.911.268a13.421,13.421,0,0,0,1.219-4.962,20.732,20.732,0,0,0-.474-5.726" transform="translate(75.472 28.693)" fill="#c67fb9"/>
        <path id="Trazado_705835" data-name="Trazado 705835" d="M85.033,49.845c15.1-1.372,20.133-3.784,20.133-3.784l-.587-.021L88.5,45.46h-.016a48.009,48.009,0,0,1-3.45,4.385" transform="translate(80.234 42.894)" fill="#af69a5"/>
        <path id="Trazado_705836" data-name="Trazado 705836" d="M84.688,52.3a2.462,2.462,0,0,0,.795-1.25,1.887,1.887,0,0,0,.037-.744,1.287,1.287,0,0,0-.3-.653,1.871,1.871,0,0,1-.122,1.267,2.833,2.833,0,0,1-.746.983,3.24,3.24,0,0,1-1.092.61,3.925,3.925,0,0,1-.634.159c-.22.039-.443.056-.678.08h0a2.722,2.722,0,0,0,.686.179,3.1,3.1,0,0,0,.521.006,1.823,1.823,0,0,0,.2-.023,2.668,2.668,0,0,0,1.335-.614" transform="translate(77.317 46.855)" fill="#9b5995"/>
        <path id="Trazado_705837" data-name="Trazado 705837" d="M92.084,33.894c-.012.721-.054,1.44-.121,2.159s-.144,1.434-.247,2.15c-.2,1.43-.445,2.855-.739,4.272-.13.653-.27,1.308-.414,1.959a7.456,7.456,0,0,1-1.372-.484,6.646,6.646,0,0,1-1.67-1.154,7.206,7.206,0,0,1-1.246-1.586,11.108,11.108,0,0,1-.873-1.842,20.511,20.511,0,0,1-.974-4.035c-.152-1.028-.255-2.066-.325-3.114l-.237.012a18.529,18.529,0,0,0-.082,3.168,15.169,15.169,0,0,0,.844,4.254,10.017,10.017,0,0,0,.985,1.975A6.827,6.827,0,0,0,87.1,43.283a6.214,6.214,0,0,0,1.947,1.044,6.334,6.334,0,0,0,1.489.253q-.239,1.067-.5,2.132c-.334,1.409-.7,2.81-1.077,4.21s-.772,2.795-1.166,4.192c-.8,2.789-1.642,5.57-2.494,8.353,1.172-2.667,2.183-5.4,3.106-8.163.468-1.38.89-2.775,1.3-4.173s.775-2.81,1.127-4.227c.336-1.419.647-2.845.912-4.284s.48-2.884.61-4.344a30.1,30.1,0,0,0,.132-4.39,16.816,16.816,0,0,0-.251-2.185c-.047-.241-.1-.48-.159-.715-.052.014-.1.029-.157.045a16.8,16.8,0,0,1,.163,2.863" transform="translate(79.027 29.237)" fill="#9b5995"/>
        <path id="Trazado_705838" data-name="Trazado 705838" d="M97,26.886c-.056-.06-.111-.119-.165-.181l.047.187L97,26.886" transform="translate(91.368 25.198)" fill="#ed6464"/>
        <path id="Trazado_705839" data-name="Trazado 705839" d="M64.536,25.011a17.156,17.156,0,0,1-.956,1.92A7.794,7.794,0,0,1,66.3,31.808a17.431,17.431,0,0,1,.278,3.495,6.382,6.382,0,0,1-.22,2.3c-.047.28-.1.556-.165.832,1.582-1.392,4.161-5.176,6.937-8.808a41.146,41.146,0,0,1-8.6-4.618" transform="translate(59.991 23.6)" fill="#d8a49c"/>
        <path id="Trazado_705840" data-name="Trazado 705840" d="M77,34.37a17.412,17.412,0,0,0-.278-3.493A7.794,7.794,0,0,0,74,26a12.055,12.055,0,0,1-1.339,1.868,16.053,16.053,0,0,0-1.429,1.856,45.8,45.8,0,0,0-11.312,4.163c-.608.3-1.168.589-1.668.851a1.884,1.884,0,0,0-.2-.177,11.193,11.193,0,0,0-2.2-1.2,6.268,6.268,0,0,0-2.227-.632,1.021,1.021,0,0,0-.517.192,1.067,1.067,0,0,0-.439.822L52.664,34l-.124,3.45s.645.08,1.182-.77a5.178,5.178,0,0,0,.647-2.223s.513,2.352,1.87,2.855a1.428,1.428,0,0,0,.241.068c1.537.293,2.628-1.633,1.8-2.61l1.563-.725c.779,2.089-2.721,4.55-3.784,5.24l-.023.14c4.979-.585,16.528-.945,19.111-1.182a1.61,1.61,0,0,0,.68-.214,2.049,2.049,0,0,0,.19-.086,3.4,3.4,0,0,0,.6-.435c.062-.276.119-.552.165-.83A6.393,6.393,0,0,0,77,34.37M74.16,32.024a9.144,9.144,0,0,0-1.063-.655,6.456,6.456,0,0,0-1.137-.47,4.944,4.944,0,0,0-1.279-.21,2.195,2.195,0,0,1,1.368-.35,3.406,3.406,0,0,1,1.382.389,3.781,3.781,0,0,1,1.116.88,2.9,2.9,0,0,1,.4.593l.076.161c.021.056.041.113.058.171a1.437,1.437,0,0,1,.062.35,5.813,5.813,0,0,0-.981-.859" transform="translate(49.575 24.532)" fill="#fad2c6"/>
        <path id="Trazado_705841" data-name="Trazado 705841" d="M52.257,30.086l.671.052c-.225-.023-.453-.041-.671-.052" transform="translate(49.307 28.388)" fill="#fad2c6"/>
        <path id="Trazado_705842" data-name="Trazado 705842" d="M53.111,34.065l-.033-3.973c-.851-.043-1.574.019-1.664.292a1.333,1.333,0,0,0-.033.362,5.768,5.768,0,0,1,.552,2.908,6.075,6.075,0,0,1-.078.624,8.343,8.343,0,0,0,.943,2.978c.22.185.739.109,1.339-.1a12.979,12.979,0,0,0,.649-3.318l0-.084a4.286,4.286,0,0,1-1.679.311" transform="translate(48.481 28.382)" fill="#fad2c6"/>
        <path id="Trazado_705843" data-name="Trazado 705843" d="M52.93,30.138l-.671-.052h-.006l.033,3.973a4.285,4.285,0,0,0,1.679-.311c.019-.311.027-.622.025-.929-.538.849-1.182.77-1.182.77l.122-3.45Z" transform="translate(49.305 28.388)" fill="#ebb6a5"/>
        <path id="Trazado_705844" data-name="Trazado 705844" d="M54.347,35.375c1.063-.688,4.563-3.149,3.784-5.238-.661.305-1.17.54-1.563.723.832.98-.258,2.906-1.8,2.61a1.355,1.355,0,0,1-.239-.068c-.006.183-.014.363-.027.546-.031.482-.086.958-.159,1.427" transform="translate(51.28 28.436)" fill="#ebb6a5"/>
        <path id="Trazado_705845" data-name="Trazado 705845" d="M66.214,30.257l-.076-.161a2.9,2.9,0,0,0-.4-.593,3.743,3.743,0,0,0-1.116-.878,3.378,3.378,0,0,0-1.382-.391,2.191,2.191,0,0,0-1.368.35,4.944,4.944,0,0,1,1.279.21,6.518,6.518,0,0,1,1.137.47,9.31,9.31,0,0,1,1.063.655,5.889,5.889,0,0,1,.981.859,1.441,1.441,0,0,0-.064-.35c-.016-.056-.037-.115-.056-.171" transform="translate(58.382 26.637)" fill="#ebb6a5"/>
        <path id="Trazado_705846" data-name="Trazado 705846" d="M76.414,24.076q-1.137-.155-2.253-.414a18.851,18.851,0,0,1-3.654-1.244,17.434,17.434,0,0,1-4.05-2.354A12.5,12.5,0,0,0,65,23.638c5.358.964,9.634,1.734,12.54,3.026a11.876,11.876,0,0,0-1.125-2.589" transform="translate(61.33 18.932)" fill="#e9dff4"/>
        <path id="Trazado_705847" data-name="Trazado 705847" d="M69.8,24.2a18.956,18.956,0,0,0,3.656,1.244l0,0c.742.175,1.495.311,2.253.416a37.274,37.274,0,0,0-6.359-7.675,10.339,10.339,0,0,0-3.6,3.662A17.372,17.372,0,0,0,69.8,24.2" transform="translate(62.038 17.153)" fill="#f9f5ff"/>
        <path id="Trazado_705848" data-name="Trazado 705848" d="M63.533,38.274c.012-.183.019-.363.025-.546-1.357-.5-1.87-2.855-1.87-2.855a5.178,5.178,0,0,1-.647,2.223c0,.307-.006.618-.023.929l0,.084a12.979,12.979,0,0,1-.651,3.318,10.82,10.82,0,0,1-1.549,3,6.2,6.2,0,0,1-5.265,2.812,5.316,5.316,0,0,1-3.065-1.275,9.725,9.725,0,0,1-3.1-6.476,13.325,13.325,0,0,1-.047-2.27c.019-.307.051-.61.091-.91a11.322,11.322,0,0,1,2.482-5.858,7.833,7.833,0,0,1,1.2-1.149,5.543,5.543,0,0,1,3.37-1.222c.107,0,.212,0,.319.012A5.432,5.432,0,0,1,58.227,29.7a7.948,7.948,0,0,1,1.116,1.366c.159.245.309.5.447.766a10.291,10.291,0,0,1,.641,1.514,1.014,1.014,0,0,1,.517-.192,6.268,6.268,0,0,1,2.227.632,13.348,13.348,0,0,0-1-2.818,12.071,12.071,0,0,0-.719-1.279,8.023,8.023,0,0,0-13.473-.878,14.118,14.118,0,0,0-3.172,8.243c0,.068-.006.136-.01.2a15.116,15.116,0,0,0,.546,4.972,12.654,12.654,0,0,0,1.537,3.411,8.436,8.436,0,0,0,6.5,4.118c.165.01.328.016.492.016a8.545,8.545,0,0,0,6.486-3.255A13.71,13.71,0,0,0,63.35,39.84l.023-.14c.072-.468.128-.945.159-1.427" transform="translate(42.255 24.111)" fill="#ffb64d"/>
        <path id="Trazado_705849" data-name="Trazado 705849" d="M51.876,29.264a3.432,3.432,0,0,0-1.992.494,4.2,4.2,0,0,0-1.048.888,4.99,4.99,0,0,0-.624.935,5.9,5.9,0,0,0-.643,2.328,6.109,6.109,0,0,0,.016.981,5.383,5.383,0,0,0,.816,2.42,4.134,4.134,0,0,0,1.118,1.158,3.422,3.422,0,0,0,1.716.606c.072.006.144.008.214.008a3.662,3.662,0,0,0,2.521-1.065,4.416,4.416,0,0,0,.305-.325,5.458,5.458,0,0,0,1.191-2.639c.033-.206.062-.412.076-.624a5.716,5.716,0,0,0-.552-2.906,4.578,4.578,0,0,0-.28-.5,4.309,4.309,0,0,0-.6-.735,3.53,3.53,0,0,0-2.231-1.03M51.4,36.556a1.256,1.256,0,0,1-.882-.622l-.008-.014a3.321,3.321,0,0,1,.247-3.634,1.284,1.284,0,0,1,.9-.505l.052,0a1.253,1.253,0,0,1,.882.624,3.1,3.1,0,0,1,.43,1.858,3.674,3.674,0,0,1-.146.8,2.776,2.776,0,0,1-.521.989,1.256,1.256,0,0,1-.956.5" transform="translate(44.872 27.605)" fill="#ffb64d"/>
        <path id="Trazado_705850" data-name="Trazado 705850" d="M78.585,13.429a4.1,4.1,0,0,1-1.178,5.04,8.176,8.176,0,0,1-5.042,2.426c.276.534.564,1.059.859,1.58q-.137-.466-.229-.945a14.819,14.819,0,0,0,.912,2.107q1.035,1.7,2.214,3.3c.288.354.583.7.882,1.046.575-.661,1.174-1.314,1.784-1.93-.5-.152-.8-.222-.8-.222a70.025,70.025,0,0,1,3.829-8.575c1.751-3.209,3.854-6.05,5.743-5.879.037,0,.074.01.111.012-1.053-.791-6.42.132-9.774,1.158a2.62,2.62,0,0,1,.688.878" transform="translate(68.281 10.469)" fill="#ffb64d"/>
        <path id="Trazado_705851" data-name="Trazado 705851" d="M85.018,18.294a15.516,15.516,0,0,1-1.654,5.2c-.606,1.432-1.275,2.768-1.879,3.885a27.84,27.84,0,0,0,2.639-2.321,22.92,22.92,0,0,0,4.781-6.67,62.637,62.637,0,0,0-4.1-5.294,9.5,9.5,0,0,1,.214,5.2" transform="translate(76.886 12.35)" fill="#ffb64d"/>
        <path id="Trazado_705852" data-name="Trazado 705852" d="M75.889,31.451l.165-.2a71.528,71.528,0,0,1,5.032-6.775,22.255,22.255,0,0,1-2.206-3.248,14.044,14.044,0,0,1-1.153-2.754c-.3-.521-.583-1.046-.857-1.58a5.319,5.319,0,0,1-3.846-1.555c-.239.169-.482.342-.735.519-5.222,3.64-4.682,5-4.682,5a37.335,37.335,0,0,1,6.359,7.675,11.863,11.863,0,0,1,1.125,2.587c.255.115.5.231.735.352-.008-.033-.016-.066-.025-.1a1.131,1.131,0,0,1,.087.078" transform="translate(63.777 14.472)" fill="#ffa631"/>
        <path id="Trazado_705853" data-name="Trazado 705853" d="M75.374,20.852q-1.178-1.6-2.216-3.3.376.714.816,1.388a22.467,22.467,0,0,0,1.4,1.916" transform="translate(69.029 16.558)" fill="#ffa631"/>
        <path id="Trazado_705854" data-name="Trazado 705854" d="M85.776,22.482A27.567,27.567,0,0,1,83.136,24.8l-.035.068c-1.028,1.891-1.86,3.143-1.86,3.143-.049-.074-.1-.146-.148-.218q-.192.434-.4.865-.443.913-.962,1.79c4.832-2.29,11.535-5.285,13.166-10.942-.7-1.211-1.481-2.443-2.344-3.695a22.875,22.875,0,0,1-4.781,6.668" transform="translate(75.235 14.922)" fill="#fff"/>
        <path id="Trazado_705855" data-name="Trazado 705855" d="M85.913,35.015c.639.052,1.316.093,2.035.115,1.734.054,3.306.037,4.727-.033l.235-.012a35.858,35.858,0,0,0,7.815-1.186l.157-.047a14.654,14.654,0,0,0,2.888-1.119c.142-.078.21-.122.21-.122a19.688,19.688,0,0,0,.2-3.114,45.341,45.341,0,0,1-6.414-1.551,37.512,37.512,0,0,1-12.447,1.327,19.922,19.922,0,0,1,.111,3.469,26.747,26.747,0,0,0-.494-3.487,85.5,85.5,0,0,1-10.515-1.238c.468.931.791,1.656.915,1.94l.058.134S76.2,34.2,85.913,35.015" transform="translate(70.222 26.369)" fill="#ffa631"/>
        <path id="Trazado_705856" data-name="Trazado 705856" d="M86.434,29.385a45.341,45.341,0,0,0,6.414,1.551,34.878,34.878,0,0,0-.305-4.513,21.062,21.062,0,0,1-6.109,2.962" transform="translate(81.555 24.932)" fill="#ffb64d"/>
        <path id="Trazado_705857" data-name="Trazado 705857" d="M85.921,26.491a57.325,57.325,0,0,1-6.249.74,21.429,21.429,0,0,1,.7,3.417,37.615,37.615,0,0,0,12.447-1.327,47.043,47.043,0,0,1-6.894-2.83" transform="translate(75.175 24.996)" fill="#dfdfef"/>
        <path id="Trazado_705858" data-name="Trazado 705858" d="M85.4,30.293a25.912,25.912,0,0,0-.935-3.36,75.4,75.4,0,0,1-9.383-.086c-.391.146-.777.284-1.154.412l.01.017c.358.632.678,1.24.948,1.778A85.45,85.45,0,0,0,85.4,30.293" transform="translate(69.757 25.332)" fill="#dfdfef"/>
        <path id="Trazado_705859" data-name="Trazado 705859" d="M82.887,28.515a47.043,47.043,0,0,0,6.894,2.83,21.038,21.038,0,0,0,6.109-2.962,39.858,39.858,0,0,0-.744-4.037,39.141,39.141,0,0,1-12.258,4.169" transform="translate(78.209 22.972)" fill="#fff"/>
        <path id="Trazado_705860" data-name="Trazado 705860" d="M78.726,24.994c.3.542.569,1.1.826,1.664.136.3.258.612.387.919s.229.624.338.937.2.612.288.919a56.761,56.761,0,0,0,6.247-.74,47.593,47.593,0,0,1-7.263-4.536c-.138.157-.28.311-.426.459q-.2.192-.4.379" transform="translate(74.283 22.793)" fill="#ffa631"/>
        <path id="Trazado_705861" data-name="Trazado 705861" d="M82.094,24.854c-.247.2-.5.4-.762.585a15.845,15.845,0,0,1-4.027,2.089c-.929.457-1.868.855-2.781,1.2a75.4,75.4,0,0,0,9.383.086c-.087-.247-.175-.494-.27-.737a24.764,24.764,0,0,0-1.543-3.222" transform="translate(70.318 23.451)" fill="#ffa631"/>
        <path id="Trazado_705862" data-name="Trazado 705862" d="M80.288,28.656c-.043.072-.084.144-.128.216a10.3,10.3,0,0,1-1.011,1.362,47.859,47.859,0,0,0,7.265,4.536A39.142,39.142,0,0,0,98.672,30.6a47.548,47.548,0,0,0-5.218-12.886c-1.631,5.656-8.334,8.653-13.166,10.94" transform="translate(74.682 16.716)" fill="#ffb64d"/>
        <path id="Trazado_705863" data-name="Trazado 705863" d="M74.07,20.163a22.255,22.255,0,0,0,2.206,3.248c.138-.163.28-.327.422-.49-.3-.344-.6-.692-.882-1.048a22.467,22.467,0,0,1-1.4-1.916q-.44-.673-.816-1.386a15.006,15.006,0,0,1-.91-2.107c.06.319.138.634.227.945a14.044,14.044,0,0,0,1.153,2.754" transform="translate(68.587 15.535)" fill="#e58638"/>
        <path id="Trazado_705864" data-name="Trazado 705864" d="M80.854,29.027q-.134-.464-.288-.919c-.109-.315-.224-.626-.338-.939s-.251-.616-.387-.919c-.255-.564-.527-1.119-.826-1.662-.192.179-.393.35-.6.517a24.516,24.516,0,0,1,1.543,3.222c.1.245.183.492.27.739a25.828,25.828,0,0,1,.935,3.36,26.745,26.745,0,0,1,.494,3.487,19.91,19.91,0,0,0-.111-3.469,21.428,21.428,0,0,0-.7-3.417" transform="translate(73.993 23.2)" fill="#e58638"/>
        <path id="Trazado_705865" data-name="Trazado 705865" d="M84.106,15.767a26.278,26.278,0,0,1-1.654,5.2,15.517,15.517,0,0,0,1.654-5.2" transform="translate(77.798 14.877)" fill="#fad2c6"/>
        <path id="Trazado_705866" data-name="Trazado 705866" d="M71.97,23.838a1.525,1.525,0,0,0-.041-.159s.033-.054.1-.154c-.06.074-.117.14-.165.2.039.037.074.074.109.113" transform="translate(67.805 22.197)" fill="#fad2c6"/>
        <path id="Trazado_705867" data-name="Trazado 705867" d="M93.076,34.3c.912-.342,1.85-.74,2.779-1.2a25.687,25.687,0,0,0,3.728-2.484,16.34,16.34,0,0,0,1.621-1.506,10.256,10.256,0,0,0,1.327-1.738c.391-.628.75-1.281,1.092-1.942.194-.365.379-.739.558-1.112a17.823,17.823,0,0,0-7.969-5.372c-3.386,5.3-8.4,14.017-8.4,14.017.047-.258.087-.505.122-.742l-.014.023a8.15,8.15,0,0,1,.021-1.116c.023-.361.052-.715.068-1.065A7.7,7.7,0,0,0,88,29.028a5.639,5.639,0,0,0-.163-.96c-.233-.122-.48-.239-.735-.352-2.906-1.292-7.181-2.062-12.542-3.026-1.436-.258-2.954-.533-4.542-.834-.177-.076-1.586-.674-3.121-1.263a19.229,19.229,0,0,0-3.825-1.178c-.886-.056-2.779,0-4.163.058,0,0-.052.383-.344.416a2.031,2.031,0,0,1-1.092-.086.283.283,0,0,0,.1.239,2.619,2.619,0,0,0,1.108.486c.227.052.484.1.754.15.379-.087.762-.167,1.149-.229.274-.041.552-.07.832-.086a4.671,4.671,0,0,1,.84.047,4.245,4.245,0,0,1,1.559.564,5.805,5.805,0,0,0-1.582-.373,6.516,6.516,0,0,0-1.611.093c-.536.082-1.073.192-1.615.286s-1.086.177-1.635.233l-.721.128s-.037.371-.313.447a2.069,2.069,0,0,1-.993.093.335.335,0,0,0,.2.3,2.923,2.923,0,0,0,1,.239c.266.023.569.039.888.049-.449.1-.89.208-1.285.305,0,0,.008.385-.266.468a2.168,2.168,0,0,1-1.02.128.3.3,0,0,0,.161.229,2.7,2.7,0,0,0,1.147.243c.529.017,1.186-.008,1.846-.037a16.08,16.08,0,0,1,2.83-.006c.091.019.231.052.4.1a3.972,3.972,0,0,1,.6-.171,3.3,3.3,0,0,1,.927-.041,2.411,2.411,0,0,1,.886.245,5.345,5.345,0,0,0-.894-.052,5.078,5.078,0,0,0-.875.091c-.072.008-.144.029-.216.043s-.142.033-.212.054l-.214.058-.208.072c-.142.045-.276.107-.418.159s-.272.126-.416.181c-.569.276-1.145.564-1.636.812,0,0,.056.465-.171.587a1.49,1.49,0,0,1-.867.251.294.294,0,0,0,.206.183,2.654,2.654,0,0,0,1.18-.023c1.407-.284,3.683-1.09,4.54-1.112a26.135,26.135,0,0,1,2.838.224,3.383,3.383,0,0,0,1.331-.311l.019.008.006-.01c.849.634,2.437,1.794,4.322,3.061.255.173.517.348.783.523a41.056,41.056,0,0,0,8.6,4.618,6.459,6.459,0,0,0,1.835.356l-.039.064a10.265,10.265,0,0,0,2.647.367,26.751,26.751,0,0,0,6.109-1.421l.023.016-.012-.019q.568-.19,1.156-.412M57.657,24.35c.534-.14,1.069-.27,1.611-.373a12.522,12.522,0,0,1,1.644-.22,6.168,6.168,0,0,1,1.668.12,4.3,4.3,0,0,1,1.522.659,5.976,5.976,0,0,0-1.559-.47A7.489,7.489,0,0,0,60.926,24c-.542.027-1.085.1-1.629.163s-1.09.136-1.64.183" transform="translate(51.767 17.88)" fill="#fad2c6"/>
        <path id="Trazado_705868" data-name="Trazado 705868" d="M79.983,28.4c.26-.185.513-.381.762-.585.2-.167.4-.338.6-.519.134-.124.266-.249.4-.379.146-.148.288-.3.424-.459a9.991,9.991,0,0,0,1.011-1.36c.045-.072.086-.144.128-.216q.519-.878.962-1.79c.136-.286.268-.575.4-.865-.12-.177-.249-.35-.379-.519-.179.375-.363.746-.558,1.114-.342.661-.7,1.314-1.092,1.942A10.32,10.32,0,0,1,81.3,26.5a15.89,15.89,0,0,1-1.621,1.506,25.945,25.945,0,0,1-3.726,2.486h0A15.893,15.893,0,0,0,79.983,28.4" transform="translate(71.667 20.487)" fill="#ebb6a5"/>
        <path id="Trazado_705869" data-name="Trazado 705869" d="M79.306,18.793c-.61.616-1.209,1.269-1.784,1.93-.142.163-.282.327-.422.49a71.264,71.264,0,0,0-5.032,6.775c-.064.1-.1.154-.1.154s.017.052.041.161a2.214,2.214,0,0,1,.431.781,3.29,3.29,0,0,1,.142,1.154,4.524,4.524,0,0,1-.2,1.121,4.338,4.338,0,0,1-.449,1.011c-.035.235-.074.482-.12.74,0,0,5.014-8.721,8.4-14.015-.348-.124-.657-.225-.912-.3" transform="translate(67.763 17.732)" fill="#efc3b9"/>
        <path id="Trazado_705870" data-name="Trazado 705870" d="M72.386,26.836a4.508,4.508,0,0,0,.2-1.121,3.29,3.29,0,0,0-.142-1.154,2.214,2.214,0,0,0-.431-.781,1.492,1.492,0,0,0-.109-.113c-.027-.027-.056-.052-.086-.078l.023.1a5.669,5.669,0,0,1,.165.962,8.393,8.393,0,0,1,.01,1.038c-.016.35-.045.7-.07,1.065a8.472,8.472,0,0,0-.021,1.116l.014-.023a4.338,4.338,0,0,0,.449-1.011" transform="translate(67.763 22.257)" fill="#ebb6a5"/>
        <path id="Trazado_705871" data-name="Trazado 705871" d="M54.986,22.206l-.01,0,1.065-.262c-.416.1-.783.19-1.055.258" transform="translate(51.873 20.709)" fill="#fad2c6"/>
        <path id="Trazado_705872" data-name="Trazado 705872" d="M55.267,21.4l-.019.006,1.042-.194c-.393.07-.744.136-1.022.189" transform="translate(52.13 20.012)" fill="#fad2c6"/>
        <path id="Trazado_705873" data-name="Trazado 705873" d="M56.359,20.3l-.016,0,1.168-.054c-.459.017-.861.037-1.153.051" transform="translate(53.163 19.105)" fill="#fad2c6"/>
        <path id="Trazado_705874" data-name="Trazado 705874" d="M57.366,20.663c.292-.033.342-.416.342-.416h0l-1.17.054-.389.017s-.068.152.126.258a2.007,2.007,0,0,0,1.092.086" transform="translate(52.968 19.104)" fill="#d69d8e"/>
        <path id="Trazado_705875" data-name="Trazado 705875" d="M56.2,21.656c.276-.076.313-.447.313-.447h0l-1.042.194-.453.086s-.06.189.19.26a2.069,2.069,0,0,0,.993-.093" transform="translate(51.907 20.012)" fill="#d69d8e"/>
        <path id="Trazado_705876" data-name="Trazado 705876" d="M55.98,22.417c.274-.084.266-.47.266-.47l0,0-1.065.262-.416.1s-.045.171.2.231a2.168,2.168,0,0,0,1.02-.128" transform="translate(51.669 20.708)" fill="#d69d8e"/>
        <path id="Trazado_705877" data-name="Trazado 705877" d="M59.406,21.035a6.605,6.605,0,0,1,1.611-.093,5.839,5.839,0,0,1,1.582.373,4.277,4.277,0,0,0-1.561-.564,4.67,4.67,0,0,0-.84-.045c-.278.016-.556.045-.83.086-.389.062-.77.142-1.149.229-.157.035-.315.074-.47.111-.534.13-1.063.272-1.594.422q.822-.085,1.635-.233c.54-.093,1.077-.2,1.615-.286" transform="translate(52.986 19.537)" fill="#eab3a2"/>
        <path id="Trazado_705878" data-name="Trazado 705878" d="M59.57,21.673a7.75,7.75,0,0,1,1.617.062,5.977,5.977,0,0,1,1.559.47,4.331,4.331,0,0,0-1.522-.659,6.09,6.09,0,0,0-1.668-.119,12.268,12.268,0,0,0-1.646.218c-.54.1-1.077.233-1.609.373.55-.047,1.1-.113,1.64-.183s1.086-.136,1.629-.163" transform="translate(53.123 20.209)" fill="#eab3a2"/>
        <path id="Trazado_705879" data-name="Trazado 705879" d="M56.137,23.871a.225.225,0,0,0,.194.237,1.471,1.471,0,0,0,.869-.249c.225-.122.171-.587.171-.587Z" transform="translate(52.968 21.959)" fill="#d69d8e"/>
        <path id="Trazado_705880" data-name="Trazado 705880" d="M57.973,22.988a4.3,4.3,0,0,0-.36.286c.146-.054.278-.124.418-.179s.274-.117.416-.159l.21-.072.212-.06c.07-.021.142-.037.214-.052a2.022,2.022,0,0,1,.216-.045,5.037,5.037,0,0,1,.875-.091,5.356,5.356,0,0,1,.894.052,2.419,2.419,0,0,0-.886-.243,3.311,3.311,0,0,0-.929.039,4.039,4.039,0,0,0-.6.171,2.556,2.556,0,0,0-.28.124,3.136,3.136,0,0,0-.4.229" transform="translate(54.361 21.143)" fill="#eab3a2"/>
        <path id="Trazado_705881" data-name="Trazado 705881" d="M85.317,29.256c.049.072.1.144.148.218,0,0,.832-1.252,1.86-3.143-4.254-2.369-7.248-7.119-8.237-12.064a70.026,70.026,0,0,0-3.829,8.575s.3.07.8.222c.257.078.564.179.912.3a17.817,17.817,0,0,1,7.969,5.37q.2.254.379.519" transform="translate(71.011 13.462)" fill="#e9dff4"/>
        <path id="Trazado_705882" data-name="Trazado 705882" d="M82.972,11.246c-1.889-.173-3.99,2.67-5.743,5.877.989,4.946,3.982,9.7,8.235,12.064l.035-.066c.608-1.118,1.275-2.453,1.879-3.885a26.276,26.276,0,0,0,1.654-5.2,9.483,9.483,0,0,0-.214-5.2c-.75-1.893-2.484-3.257-5.735-3.578l-.111-.012" transform="translate(72.87 10.604)" fill="#f9f5ff"/>
        <path id="Trazado_705883" data-name="Trazado 705883" d="M74.911,19.761a8.168,8.168,0,0,0,5.04-2.426,4.1,4.1,0,0,0,1.18-5.04,7.263,7.263,0,0,1-6.091,5.57c-3.372.61-4.527-.336-5.331-1.394l-.039,0a8.021,8.021,0,0,0,1.4,1.736,5.328,5.328,0,0,0,3.846,1.557" transform="translate(65.737 11.602)" fill="#e9dff4"/>
        <path id="Trazado_705884" data-name="Trazado 705884" d="M76.056,11.377c.1.416.262,1.069.424,1.858,0,0,.82,3.011-3.127,4.243a9.906,9.906,0,0,1-3.664.645c.8,1.055,1.961,2,5.333,1.394a7.264,7.264,0,0,0,6.089-5.572,2.6,2.6,0,0,0-.688-.878c-.68-.585-1.535-.89-1.938-1.695a1.461,1.461,0,0,0-1.322-.822,2.448,2.448,0,0,1-1.108.828" transform="translate(65.756 9.954)" fill="#f9f5ff"/>
        <path id="Trazado_705885" data-name="Trazado 705885" d="M70.4,16.838a2.129,2.129,0,0,1,.684-.435,1.491,1.491,0,0,1-.2-.272,3.705,3.705,0,0,1-.375-.989,5.564,5.564,0,0,1-.039-2.043,16.379,16.379,0,0,1,.435-1.946c.052.667.008,1.333,0,1.98a7.933,7.933,0,0,0,.15,1.885,3.871,3.871,0,0,0,.3.863.687.687,0,0,0,.2.268.164.164,0,0,0,.1.027.879.879,0,0,0,.194-.037c.29-.084.589-.224.908-.338a1.68,1.68,0,0,1,1.007-.1l-.068.01a2.506,2.506,0,0,1,.433.045c1.621.3,1.755-.21,1.767-.313v0a1.927,1.927,0,0,1-.919,1.508,2.7,2.7,0,0,1-3.522.981,6.382,6.382,0,0,0,3.275-.867,2.128,2.128,0,0,1-.4.109,1.893,1.893,0,0,1-.935-.1,2.773,2.773,0,0,0-1.133-.163,2.687,2.687,0,0,0-.647.589,1.724,1.724,0,0,1-.674.529,1.614,1.614,0,0,1-1.3.023c.14.36.27.7.383,1,.536,1.448,1.16,2.2,2.356,2.338l.039,0a9.856,9.856,0,0,0,3.662-.645c3.949-1.232,3.129-4.241,3.129-4.241-.163-.791-.319-1.442-.424-1.86A2.469,2.469,0,0,0,79.9,13.83c1.289-1.549,2.014-4.6.834-4.676a1.3,1.3,0,0,0-.54.093,6.684,6.684,0,0,0-2.482,2.672l-.06-.119L74.33,7.072s-4.008,3.817-7.444,3.362c-.033-.1-.064-.2-.093-.3a16.127,16.127,0,0,0,.5,1.747,2.471,2.471,0,0,1,1.176-.69,1.779,1.779,0,0,1,.717-.043c-.2.144-.395.257-.585.371l-.56.336-.56.34-.066.041c.214.62.461,1.289.723,1.971.428,1.119.89,2.272,1.292,3.3a3.144,3.144,0,0,0,.974-.671m3.916-4.289c-.006.352-.235.548-.511.439a.908.908,0,0,1-.488-.83.676.676,0,0,1,.043-.227,3.968,3.968,0,0,0-.589.134c.327-.991,2.093-.61,2.326-.021a3.58,3.58,0,0,0-1.038-.159.972.972,0,0,1,.257.665m-1.055,6.188a1.054,1.054,0,0,1,.3-.187,1.065,1.065,0,0,1,.348-.078.758.758,0,0,1,.36.07,2.543,2.543,0,0,1-.3.177q-.143.07-.286.128c-.1.039-.194.076-.3.107a1.97,1.97,0,0,1-.338.078.763.763,0,0,1,.212-.3M79.4,10.8a2.281,2.281,0,0,1,.367-.268.6.6,0,0,1,.453-.1.754.754,0,0,0-.3.276c-.082.113-.163.224-.239.338a6.925,6.925,0,0,0-.4.694c-.025.051-.049.1-.072.15a.6.6,0,0,1,.115-.021.558.558,0,0,1,.309.066.432.432,0,0,1,.21.262,2.519,2.519,0,0,1-.278.1,1.053,1.053,0,0,1-.2.041.957.957,0,0,1-.208-.008c-.039-.006-.08-.014-.126-.023-.023.056-.047.113-.068.169-.1.257-.179.521-.272.809a1.99,1.99,0,0,1-.093-.894,2.58,2.58,0,0,1,.812-1.6M72.857,9.579a5.024,5.024,0,0,1,.939-.358,2.364,2.364,0,0,1,1.044-.084,1.267,1.267,0,0,1,.5.216.821.821,0,0,1,.313.42,1.252,1.252,0,0,0-.849-.282,3.778,3.778,0,0,0-.894.167l-.929.251c-.313.082-.626.169-.96.235a3.605,3.605,0,0,1,.834-.566m-2.845,4.012a2.744,2.744,0,0,0-.63-.181.949.949,0,0,1,.157.5c0,.315-.19.486-.43.385a.874.874,0,0,1-.433-.756.612.612,0,0,1,.025-.175,2.9,2.9,0,0,0-.674.111c.222-.948,1.751-.476,1.984.115" transform="translate(63.023 6.673)" fill="#ffcdbb"/>
        <path id="Trazado_705886" data-name="Trazado 705886" d="M68.077,10.693a.864.864,0,0,0,.433.754c.237.1.43-.07.428-.383a.945.945,0,0,0-.157-.5,2.8,2.8,0,0,1,.632.183c-.233-.591-1.763-1.063-1.984-.115a2.788,2.788,0,0,1,.674-.111.6.6,0,0,0-.025.175" transform="translate(63.622 9.52)" fill="#4b3c4f"/>
        <path id="Trazado_705887" data-name="Trazado 705887" d="M70.65,13.313c.1-.039.19-.082.286-.13a2.155,2.155,0,0,0,.3-.175.714.714,0,0,0-.36-.07,1.08,1.08,0,0,0-.649.264.749.749,0,0,0-.212.3,2.121,2.121,0,0,0,.338-.078c.1-.033.2-.068.3-.107" transform="translate(66.062 12.208)" fill="#e0a696"/>
        <path id="Trazado_705888" data-name="Trazado 705888" d="M71.373,8.67a3.76,3.76,0,0,1,.894-.167,1.244,1.244,0,0,1,.847.282.819.819,0,0,0-.311-.422,1.263,1.263,0,0,0-.5-.214,2.361,2.361,0,0,0-1.044.084,5.024,5.024,0,0,0-.939.358,3.605,3.605,0,0,0-.834.566c.334-.066.647-.154.96-.235Z" transform="translate(65.562 7.662)" fill="#4b3c4f"/>
        <path id="Trazado_705889" data-name="Trazado 705889" d="M67.945,9.889l.56-.336c.189-.115.387-.227.585-.371a1.824,1.824,0,0,0-.719.043,2.5,2.5,0,0,0-.661.278,2.438,2.438,0,0,0-.513.412l-.041.043a1.15,1.15,0,0,0-.214.317.487.487,0,0,0-.016.383.587.587,0,0,1,.2-.255,2,2,0,0,1,.194-.132l.068-.041Z" transform="translate(63.118 8.645)" fill="#4b3c4f"/>
        <path id="Trazado_705890" data-name="Trazado 705890" d="M72.2,9.916c-.233-.591-2-.97-2.326.021a3.76,3.76,0,0,1,.591-.134.668.668,0,0,0-.043.227.907.907,0,0,0,.488.83c.274.109.5-.089.511-.439a.992.992,0,0,0-.258-.667,3.616,3.616,0,0,1,1.038.161" transform="translate(65.927 8.8)" fill="#4b3c4f"/>
        <path id="Trazado_705891" data-name="Trazado 705891" d="M69.193,13.137a2.7,2.7,0,0,0,3.522-.981,2.066,2.066,0,0,1-.247.115,6.382,6.382,0,0,1-3.275.867" transform="translate(65.288 11.47)" fill="#fff"/>
        <path id="Trazado_705892" data-name="Trazado 705892" d="M74.421,7.666l3.318,4.729L74.763,6.443l-.043.037c-.453.381-4.431,3.652-8.023,3.664.056.175.117.369.187.589.029.1.06.19.093.3,3.438.455,7.444-3.362,7.444-3.362" transform="translate(62.932 6.08)" fill="#e0a696"/>
        <path id="Trazado_705893" data-name="Trazado 705893" d="M67.936,7.221c-.214.047-.428.086-.641.115a1.69,1.69,0,0,0,.641-.115" transform="translate(63.497 6.814)" fill="#d08d83"/>
        <path id="Trazado_705894" data-name="Trazado 705894" d="M66.868,10.668a5.026,5.026,0,0,0,3.209.451,2.669,2.669,0,0,1-1.953-1.1c2.958.3,6.416-.309,8.4-2.766a3.264,3.264,0,0,1,.418,2.276l.043-.037,2.978,5.953.058.117A6.674,6.674,0,0,1,82.5,12.887c-.132-2.221-.836-6.074-4.013-8.282a8.483,8.483,0,0,0-5.32-1.38,15.028,15.028,0,0,0-4.46.983A9.8,9.8,0,0,0,65.63,5.762a3.7,3.7,0,0,0-1.285,2.443,6.211,6.211,0,0,0,2.523,2.462" transform="translate(60.713 3.031)" fill="#844e4a"/>
        <path id="Trazado_705895" data-name="Trazado 705895" d="M72.868,10.774a1.99,1.99,0,0,0,.093.894c.093-.288.175-.554.272-.81.021-.056.045-.111.066-.167.049.01.089.016.128.021a.96.96,0,0,0,.208.01,1.053,1.053,0,0,0,.2-.041c.076-.025.157-.052.278-.1a.435.435,0,0,0-.212-.262.532.532,0,0,0-.307-.066.46.46,0,0,0-.115.021c.023-.051.045-.1.07-.15a7.206,7.206,0,0,1,.406-.7q.114-.169.239-.338a.736.736,0,0,1,.3-.274.6.6,0,0,0-.453.1,2.069,2.069,0,0,0-.367.268,2.566,2.566,0,0,0-.812,1.6" transform="translate(68.742 8.299)" fill="#e0a696"/>
        <path id="Trazado_705896" data-name="Trazado 705896" d="M76.95,7.567a3.253,3.253,0,0,0-.416-2.276c-1.986,2.455-5.442,3.063-8.4,2.766a2.665,2.665,0,0,0,1.953,1.1c.214-.031.428-.068.641-.115a1.728,1.728,0,0,1-.641.115,5.044,5.044,0,0,1-3.211-.451,6.218,6.218,0,0,1-2.521-2.462,4.569,4.569,0,0,0,3.024,4.76,4.992,4.992,0,0,0,1.545.225c3.592-.012,7.57-3.281,8.023-3.664" transform="translate(60.702 4.993)" fill="#6d403e"/>
        <path id="Trazado_705897" data-name="Trazado 705897" d="M67.874,12.42l-.01-.014.01.014" transform="translate(64.034 11.706)" fill="#6d403e"/>
        <path id="Trazado_705898" data-name="Trazado 705898" d="M69.925,13.97a1.724,1.724,0,0,0,.674-.529,2.687,2.687,0,0,1,.647-.589,2.773,2.773,0,0,1,1.133.163,1.893,1.893,0,0,0,.935.1,2.24,2.24,0,0,0,.4-.109,1.8,1.8,0,0,0,1.166-1.625c-.012.1-.146.616-1.767.315a2.506,2.506,0,0,0-.433-.045,2.094,2.094,0,0,0-.822.336,6.639,6.639,0,0,1-.88.5,1.313,1.313,0,0,1-.28.091.648.648,0,0,1-.379-.052.856.856,0,0,1-.249-.185,2.129,2.129,0,0,0-.684.435,3.144,3.144,0,0,1-.974.671c-.363.132-.509-.01-.546-.056a1.926,1.926,0,0,0,.76.6,1.614,1.614,0,0,0,1.3-.023" transform="translate(64.038 10.737)" fill="#6d403e"/>
        <path id="Trazado_705899" data-name="Trazado 705899" d="M71.478,11.37v0" transform="translate(67.444 10.728)" fill="#6d403e"/>
        <path id="Trazado_705900" data-name="Trazado 705900" d="M69.585,14.606a.648.648,0,0,0,.379.052,1.313,1.313,0,0,0,.28-.091,7.1,7.1,0,0,0,.88-.5,2.082,2.082,0,0,1,.822-.336c.023,0,.045-.008.068-.01a1.68,1.68,0,0,0-1.007.1c-.319.115-.618.255-.908.336a.794.794,0,0,1-.194.039.164.164,0,0,1-.1-.027.669.669,0,0,1-.2-.268,3.9,3.9,0,0,1-.3-.863,7.941,7.941,0,0,1-.15-1.885c.012-.649.056-1.314,0-1.98a16,16,0,0,0-.435,1.946,5.564,5.564,0,0,0,.039,2.043,3.668,3.668,0,0,0,.375.987,1.427,1.427,0,0,0,.2.272.861.861,0,0,0,.249.187" transform="translate(64.775 8.655)" fill="#e0a696"/>
      </g>
    </g>
  </g>
</svg>
