<svg xmlns="http://www.w3.org/2000/svg" xmlns:xlink="http://www.w3.org/1999/xlink" width="235.542" height="233.063" viewBox="0 0 235.542 233.063">
  <defs>
    <clipPath id="clip-path">
      <rect id="Rectángulo_339096" data-name="Rectángulo 339096" width="3.697" height="47.379" fill="none"/>
    </clipPath>
    <clipPath id="clip-path-2">
      <rect id="Rectángulo_339097" data-name="Rectángulo 339097" width="7.394" height="47.259" fill="none"/>
    </clipPath>
    <clipPath id="clip-path-3">
      <rect id="Rectángulo_339099" data-name="Rectángulo 339099" width="3.338" height="73.961" fill="none"/>
    </clipPath>
    <clipPath id="clip-path-4">
      <rect id="Rectángulo_339101" data-name="Rectángulo 339101" width="51.004" height="36.065" fill="none"/>
    </clipPath>
  </defs>
  <g id="Grupo_999976" data-name="Grupo 999976" transform="translate(-311.46 -3860.203)">
    <g id="COMPU" transform="translate(270.417 3875.052)">
      <path id="Trazado_662499" data-name="Trazado 662499" d="M98.616,69.84c.924,2.311-1.13,6.573-3.817,7.7a1.984,1.984,0,0,1-2.619-.531,3.693,3.693,0,0,0,2.533-1.027,8.246,8.246,0,0,0,2.7-4.69,3.72,3.72,0,0,0-.377-2.7,1.833,1.833,0,0,1,1.575,1.232" transform="translate(-6.614 47.446)" fill="#72a368"/>
      <path id="Trazado_662500" data-name="Trazado 662500" d="M90.757,71.4a9.765,9.765,0,0,1,1.318-1.986,8.21,8.21,0,0,1,1.541-1.438,5.018,5.018,0,0,1,1.8-.873,2.617,2.617,0,0,1,1.8.223h0l2.722,1.575h0a2.8,2.8,0,0,0-2.4.068,9.474,9.474,0,0,0-4.947,7.839,3.077,3.077,0,0,0,1.284,2.824h0c-2.961-1.729-2.807-1.609-2.824-1.643a2.62,2.62,0,0,1-1.01-1.267h0a7.212,7.212,0,0,1,.736-5.323" transform="translate(-8.289 46.344)" fill="#72a368"/>
      <path id="Trazado_662501" data-name="Trazado 662501" d="M93.6,71.907a.787.787,0,0,1-.068-.479,1.818,1.818,0,0,1,.548-1.1,1.012,1.012,0,0,1,.77-.342.539.539,0,0,1,.291.223.676.676,0,0,1,.068.359c-.034,1.061-1.2,2.037-1.609,1.335" transform="translate(-5.658 48.443)" fill="#1a2738"/>
      <path id="Trazado_662502" data-name="Trazado 662502" d="M92.608,73.032a.546.546,0,0,1-.514-.017.535.535,0,0,1-.154-.188,6.837,6.837,0,0,1,.377-1.438,1.016,1.016,0,0,1,.924-.462c.188.051.342.223.342.582a1.836,1.836,0,0,1-.377,1.027,1.265,1.265,0,0,1-.582.5" transform="translate(-6.784 49.098)" fill="#1a2738"/>
      <path id="Trazado_662503" data-name="Trazado 662503" d="M94.776,72.892c.411.7,1.575-.274,1.609-1.335a.842.842,0,0,0-.068-.359.539.539,0,0,0-.291-.223.957.957,0,0,0-.77.342,2.027,2.027,0,0,0-.548,1.1.753.753,0,0,0,.068.479m-2.568,1.814a.615.615,0,0,0,.428-.017,1.265,1.265,0,0,0,.582-.5,1.836,1.836,0,0,0,.377-1.027c0-.445-.24-.531-.257-.548-.342-.171-.736.137-.993.428a7.455,7.455,0,0,1,3.612-4.194,2.568,2.568,0,0,1,1.284-.24c1.232,1.8-.068,5.529-2.328,7.394a3.773,3.773,0,0,1-2.533,1.027,3.492,3.492,0,0,1-.411-2.448l.24.137" transform="translate(-6.813 47.458)" fill="#557a4c"/>
      <path id="Trazado_662504" data-name="Trazado 662504" d="M99.9,69.515c-.531-1.318-1.8-1.951-3.509-1.215a9.474,9.474,0,0,0-4.947,7.839c0,2.413,1.541,3.749,3.783,2.807,3.286-1.386,5.8-6.607,4.673-9.431m-4.57,8.456c-2.071.873-3.372-.633-3.047-2.978a6.427,6.427,0,0,1,.394-1.523c1.113-3,3.937-5.2,5.648-4.211a1.993,1.993,0,0,1,.822,1.01c.924,2.311-1.13,6.573-3.817,7.7" transform="translate(-7.14 47.018)" fill="#85bf80"/>
      <path id="Trazado_662505" data-name="Trazado 662505" d="M103.823,74.172a3.209,3.209,0,0,1,0,1.883,5.631,5.631,0,0,1-1.386,2.4c-1.541,1.575-3.167,1.147-3.167-.719a5.163,5.163,0,0,1,1.541-3.423,2.761,2.761,0,0,1,1.986-.959,1.221,1.221,0,0,1,1.044.822" transform="translate(-1.568 50.834)" fill="#da926d"/>
      <path id="Trazado_662506" data-name="Trazado 662506" d="M105.064,77.128a3.209,3.209,0,0,0,0-1.883,1.221,1.221,0,0,0-1.044-.822c-1.455-.137-3.526,2.191-3.526,4.4,0,1.866,1.626,2.277,3.167.719a5.631,5.631,0,0,0,1.386-2.4m-1.352-5c4.673,2.841-.291,11.434-5.135,8.678a2.3,2.3,0,0,1-.993-1.643c-.428-3.3,2.6-7.138,4.912-7.309a2,2,0,0,1,1.215.274" transform="translate(-2.809 49.778)" fill="#e2ae4a"/>
      <path id="Trazado_662507" data-name="Trazado 662507" d="M97.751,71.6a6.944,6.944,0,0,0-1.523,1.866,1.511,1.511,0,0,1-.633-.548,1.249,1.249,0,0,1-.154-.6,1.176,1.176,0,0,1,1.2-1.181,1.249,1.249,0,0,1,.6.154l.514.308h0Z" transform="translate(-4.294 49.261)" fill="#c8d1dc"/>
      <path id="Trazado_662508" data-name="Trazado 662508" d="M100.055,81.56c-.531-.308-2.362-1.369-2.636-1.523A3.869,3.869,0,0,1,95.45,76.6c0-2.4,1.9-5.238,4.262-5.734a3.83,3.83,0,0,1,2.739.462l2.6,1.506c-2.4-1.284-6.5,3.286-6.008,7.1a2.352,2.352,0,0,0,.993,1.643" transform="translate(-4.287 49.008)" fill="#e2ae4a"/>
      <path id="Trazado_662509" data-name="Trazado 662509" d="M94.4,74.3a1.175,1.175,0,0,1-.377-1.643,1.2,1.2,0,0,1,1.575-.428h0l1.609.924a6.186,6.186,0,0,0-.6,2.4c-.017,0,.017,0-2.191-1.267" transform="translate(-5.432 49.937)" fill="#c8d1dc"/>
      <path id="Trazado_662510" data-name="Trazado 662510" d="M88.3,119.661l76.872-44.946a18.17,18.17,0,0,1,18.4,0l52.414,30.722,4.511-1.574v5.873h0a2.861,2.861,0,0,1-1.412,2.477l-77.87,45.522a18.17,18.17,0,0,1-18.4,0L87.306,125.192a2.843,2.843,0,0,1-1.4-2.228h0v-6.091l2.394,2.773Z" transform="translate(-8.916 57.977)" fill="#e4e8ee"/>
      <path id="Trazado_662511" data-name="Trazado 662511" d="M239.081,108.471l-1.841,1.075-47.105,27.545-5.14,3.007L161.211,154.01a18.206,18.206,0,0,1-18.4,0L87.3,121.465a2.9,2.9,0,0,1-1.028-3.926,2.776,2.776,0,0,1,1.028-1.044L151.576,78.9l3.821-2.243,9.759-5.7a18.169,18.169,0,0,1,18.4,0l3.038,1.792,4,2.353,9.7,5.687,3.345,1.963L225.686,95.68h0l11.078,6.5,2.3,1.355a2.881,2.881,0,0,1,1.028,3.91,2.978,2.978,0,0,1-1.043,1.059" transform="translate(-8.929 55.301)" fill="#fefefe"/>
      <path id="Trazado_662513" data-name="Trazado 662513" d="M112.458,121.615c.137.377.7.6,1.1.65l41.628,6.436a5.87,5.87,0,0,0,3.8-.633,2.4,2.4,0,0,0,.907-.941l5.734-12.375v.77l4.6-9.928v-.77l5.734-12.358a1.307,1.307,0,0,0,.137-.565v2.585a1.251,1.251,0,0,1-.137.565l-16.09,34.644a2.287,2.287,0,0,1-.907.941,5.87,5.87,0,0,1-3.8.633l-41.628-6.436a1.626,1.626,0,0,1-1.01-.5.662.662,0,0,1-.137-.359v-2.585h0a.6.6,0,0,0,.034.205" transform="translate(7.769 64.035)" fill="#596876"/>
      <path id="Trazado_662514" data-name="Trazado 662514" d="M129.947,87.249s.068-.051.12-.086a2.291,2.291,0,0,1,1.54-.257l41.628,6.436a4.719,4.719,0,0,1,2.054.787,1.747,1.747,0,0,1,.8,1.352,1.251,1.251,0,0,1-.137.565L170.223,108.4l-1.164-.188-4.6,9.928.719.12.445.068-5.734,12.375a2.288,2.288,0,0,1-.907.941,5.87,5.87,0,0,1-3.8.633l-41.628-6.436c-.394-.068-.959-.274-1.1-.65a.859.859,0,0,1-.034-.205.333.333,0,0,1,.051-.223L129.742,87.54a.776.776,0,0,1,.223-.291m37.366,19.89a.681.681,0,0,0-.359-.787,2.87,2.87,0,0,0-1.13-.325s-9.654-1.506-9.756-1.506a2.227,2.227,0,0,0-1.609.308,1.37,1.37,0,0,0-.223.223c-.068.12-5.272,11.348-5.272,11.365a.917.917,0,0,0-.086.188.681.681,0,0,0,.359.787,2.87,2.87,0,0,0,1.13.325l9.551,1.489a3.06,3.06,0,0,0,1.044.034,1.6,1.6,0,0,0,.993-.514c.068-.12,5.272-11.348,5.272-11.365a.917.917,0,0,0,.086-.188" transform="translate(7.79 60.454)" fill="#687682"/>
      <path id="Trazado_662515" data-name="Trazado 662515" d="M146.674,99.541v.77l-.856.068-.308-1.01,1.164.188Z" transform="translate(31.339 69.352)" fill="#1a2738"/>
      <path id="Trazado_662516" data-name="Trazado 662516" d="M147.431,99.367l.308,1.01-4.194,9.021-.736-.12,4.6-9.928Z" transform="translate(29.418 69.337)" fill="#1a2738"/>
      <path id="Trazado_662517" data-name="Trazado 662517" d="M151.8,99.051a.672.672,0,0,1,.359.787.918.918,0,0,1-.086.188s-5.2,11.246-5.272,11.348a1.524,1.524,0,0,1-.993.513,2.684,2.684,0,0,1-1.044-.034l-9.551-1.489a2.612,2.612,0,0,1-1.13-.325.672.672,0,0,1-.359-.787.913.913,0,0,1,.086-.188s5.2-11.246,5.272-11.348a1.367,1.367,0,0,1,.223-.223,2.3,2.3,0,0,1,1.609-.308l9.756,1.506a2.611,2.611,0,0,1,1.13.325" transform="translate(22.939 67.771)" fill="#596876"/>
      <path id="Trazado_662518" data-name="Trazado 662518" d="M148.282,99.92l-4.6,9.928v-.77l-.428-.068,4.194-9.02.856-.051Z" transform="translate(29.731 69.743)" fill="#283c48"/>
      <path id="Trazado_662519" data-name="Trazado 662519" d="M140.237,91.312l-1.1,2.345a.587.587,0,0,1-.65.342l-2.824-.445a.616.616,0,0,1-.514-.7.33.33,0,0,1,.051-.171l1.1-2.345a.587.587,0,0,1,.65-.342l2.824.428a.607.607,0,0,1,.514.7.653.653,0,0,1-.051.171" transform="translate(23.963 62.672)" fill="#1a2738"/>
      <path id="Trazado_662520" data-name="Trazado 662520" d="M139.157,93.642l-1.1,2.345a.587.587,0,0,1-.65.342l-2.824-.445a.607.607,0,0,1-.514-.7.653.653,0,0,1,.051-.171l1.1-2.345a.587.587,0,0,1,.65-.342l2.824.445a.607.607,0,0,1,.514.7.653.653,0,0,1-.051.171" transform="translate(23.195 64.33)" fill="#1a2738"/>
      <path id="Trazado_662521" data-name="Trazado 662521" d="M138.077,95.975l-1.1,2.345a.587.587,0,0,1-.65.342l-2.824-.428a.616.616,0,0,1-.514-.7.33.33,0,0,1,.051-.171l1.1-2.345a.587.587,0,0,1,.65-.342l2.824.445a.607.607,0,0,1,.514.7.653.653,0,0,1-.051.171" transform="translate(22.426 66.002)" fill="#1a2738"/>
      <path id="Trazado_662522" data-name="Trazado 662522" d="M137.3,90.862l-1.1,2.345a.587.587,0,0,1-.65.342l-2.824-.445a.607.607,0,0,1-.513-.7.654.654,0,0,1,.051-.171l1.078-2.345a.587.587,0,0,1,.65-.342l2.824.445a.607.607,0,0,1,.514.7.652.652,0,0,1-.051.171" transform="translate(21.871 62.352)" fill="#1a2738"/>
      <path id="Trazado_662523" data-name="Trazado 662523" d="M136.98,98.312l-1.078,2.345a.587.587,0,0,1-.65.342l-2.824-.445a.616.616,0,0,1-.514-.7.652.652,0,0,1,.051-.171l1.1-2.345a.587.587,0,0,1,.65-.342l2.824.445a.607.607,0,0,1,.514.7.653.653,0,0,1-.051.171" transform="translate(21.658 67.653)" fill="#1a2738"/>
      <path id="Trazado_662524" data-name="Trazado 662524" d="M136.207,93.185l-1.1,2.345a.587.587,0,0,1-.65.342l-2.824-.428a.616.616,0,0,1-.513-.7.33.33,0,0,1,.051-.171l1.1-2.345a.587.587,0,0,1,.65-.342l2.824.445a.607.607,0,0,1,.514.7.653.653,0,0,1-.051.171" transform="translate(21.095 64.017)" fill="#1a2738"/>
      <path id="Trazado_662525" data-name="Trazado 662525" d="M135.907,100.642l-1.1,2.345a.587.587,0,0,1-.65.342l-2.824-.445a.616.616,0,0,1-.514-.7.382.382,0,0,1,.051-.171l1.1-2.345a.587.587,0,0,1,.65-.342l2.824.445a.607.607,0,0,1,.513.7.654.654,0,0,1-.051.171" transform="translate(20.882 69.312)" fill="#1a2738"/>
      <path id="Trazado_662526" data-name="Trazado 662526" d="M135.127,95.522l-1.1,2.345a.588.588,0,0,1-.65.342l-2.824-.445a.616.616,0,0,1-.514-.7.382.382,0,0,1,.051-.171l1.1-2.345a.587.587,0,0,1,.65-.342l2.824.445a.607.607,0,0,1,.514.7.653.653,0,0,1-.051.171" transform="translate(20.327 65.668)" fill="#1a2738"/>
      <path id="Trazado_662527" data-name="Trazado 662527" d="M134.827,102.982l-1.1,2.345a.588.588,0,0,1-.65.342l-2.824-.445a.616.616,0,0,1-.514-.7.33.33,0,0,1,.051-.171l1.1-2.345a.587.587,0,0,1,.65-.342l2.824.428a.607.607,0,0,1,.514.7.653.653,0,0,1-.051.171" transform="translate(20.113 70.977)" fill="#1a2738"/>
      <path id="Trazado_662528" data-name="Trazado 662528" d="M134.347,90.4l-1.1,2.345a.587.587,0,0,1-.65.342l-2.824-.428a.616.616,0,0,1-.513-.7.33.33,0,0,1,.051-.171l1.1-2.345a.587.587,0,0,1,.65-.342l2.824.445a.607.607,0,0,1,.514.7.653.653,0,0,1-.051.171" transform="translate(19.772 62.031)" fill="#1a2738"/>
      <path id="Trazado_662529" data-name="Trazado 662529" d="M134.047,97.862l-1.1,2.345a.587.587,0,0,1-.65.342l-2.824-.445a.616.616,0,0,1-.514-.7.383.383,0,0,1,.051-.171l1.1-2.345a.587.587,0,0,1,.65-.342l2.824.445a.607.607,0,0,1,.513.7.652.652,0,0,1-.051.171" transform="translate(19.558 67.333)" fill="#1a2738"/>
      <path id="Trazado_662530" data-name="Trazado 662530" d="M133.737,105.312l-1.1,2.345a.587.587,0,0,1-.65.342l-2.824-.445a.607.607,0,0,1-.514-.7.652.652,0,0,1,.051-.171l1.1-2.345a.587.587,0,0,1,.65-.342l2.824.445a.607.607,0,0,1,.514.7.652.652,0,0,1-.051.171" transform="translate(19.338 72.635)" fill="#1a2738"/>
      <path id="Trazado_662531" data-name="Trazado 662531" d="M133.257,92.732l-1.1,2.345a.587.587,0,0,1-.65.342l-2.824-.445a.616.616,0,0,1-.514-.7.383.383,0,0,1,.051-.171l1.1-2.345a.588.588,0,0,1,.65-.342l2.824.445a.607.607,0,0,1,.513.7.653.653,0,0,1-.051.171" transform="translate(18.996 63.682)" fill="#1a2738"/>
      <path id="Trazado_662532" data-name="Trazado 662532" d="M132.957,100.192l-1.1,2.345a.587.587,0,0,1-.65.342l-2.824-.445a.616.616,0,0,1-.514-.7.33.33,0,0,1,.051-.171l1.1-2.345a.587.587,0,0,1,.65-.342l2.824.428a.607.607,0,0,1,.514.7.652.652,0,0,1-.051.171" transform="translate(18.783 68.991)" fill="#1a2738"/>
      <path id="Trazado_662533" data-name="Trazado 662533" d="M132.657,107.635l-1.1,2.345a.587.587,0,0,1-.65.342l-2.824-.428a.616.616,0,0,1-.514-.7.33.33,0,0,1,.051-.171l1.1-2.345a.587.587,0,0,1,.65-.342l2.824.445a.607.607,0,0,1,.514.7.654.654,0,0,1-.051.171" transform="translate(18.569 74.3)" fill="#1a2738"/>
      <path id="Trazado_662534" data-name="Trazado 662534" d="M132.177,95.072l-1.1,2.345a.587.587,0,0,1-.65.342l-2.824-.445a.607.607,0,0,1-.514-.7.33.33,0,0,1,.051-.171l1.078-2.345a.587.587,0,0,1,.65-.342l2.824.445a.607.607,0,0,1,.514.7.651.651,0,0,1-.051.171" transform="translate(18.227 65.348)" fill="#1a2738"/>
      <path id="Trazado_662535" data-name="Trazado 662535" d="M131.877,102.522l-1.1,2.345a.587.587,0,0,1-.65.342l-2.824-.445a.607.607,0,0,1-.514-.7.652.652,0,0,1,.051-.171l1.1-2.345a.587.587,0,0,1,.65-.342l2.824.445a.607.607,0,0,1,.514.7.653.653,0,0,1-.051.171" transform="translate(18.014 70.65)" fill="#1a2738"/>
      <path id="Trazado_662536" data-name="Trazado 662536" d="M131.577,109.982l-1.1,2.345a.587.587,0,0,1-.65.342l-2.824-.445a.616.616,0,0,1-.514-.7.33.33,0,0,1,.051-.171l1.1-2.345a.587.587,0,0,1,.65-.342l2.824.445a.607.607,0,0,1,.514.7.653.653,0,0,1-.051.171" transform="translate(17.8 75.959)" fill="#1a2738"/>
      <path id="Trazado_662537" data-name="Trazado 662537" d="M131.4,89.942l-1.1,2.345a.587.587,0,0,1-.65.342l-2.824-.445a.616.616,0,0,1-.514-.7.33.33,0,0,1,.051-.171l1.1-2.345a.587.587,0,0,1,.65-.342l2.824.445a.607.607,0,0,1,.513.7.654.654,0,0,1-.051.171" transform="translate(17.672 61.697)" fill="#1a2738"/>
      <path id="Trazado_662538" data-name="Trazado 662538" d="M131.1,97.4,130,99.747a.587.587,0,0,1-.65.342l-2.824-.445a.616.616,0,0,1-.514-.7.33.33,0,0,1,.051-.171l1.1-2.345a.587.587,0,0,1,.65-.342l2.824.428a.607.607,0,0,1,.513.7.654.654,0,0,1-.051.171" transform="translate(17.459 67.006)" fill="#1a2738"/>
      <path id="Trazado_662539" data-name="Trazado 662539" d="M130.8,104.845l-1.1,2.345a.587.587,0,0,1-.65.342l-2.824-.428a.616.616,0,0,1-.513-.7.33.33,0,0,1,.051-.171l1.1-2.345a.587.587,0,0,1,.65-.342l2.824.445a.607.607,0,0,1,.513.7.33.33,0,0,1-.051.171" transform="translate(17.245 72.315)" fill="#1a2738"/>
      <path id="Trazado_662540" data-name="Trazado 662540" d="M130.317,92.282l-1.1,2.345a.587.587,0,0,1-.65.342l-2.824-.445a.616.616,0,0,1-.514-.7.33.33,0,0,1,.051-.171l1.1-2.345a.587.587,0,0,1,.65-.342l2.824.445a.607.607,0,0,1,.514.7.654.654,0,0,1-.051.171" transform="translate(16.904 63.362)" fill="#1a2738"/>
      <path id="Trazado_662541" data-name="Trazado 662541" d="M130.017,99.732l-1.1,2.345a.587.587,0,0,1-.65.342l-2.824-.445a.607.607,0,0,1-.514-.7.652.652,0,0,1,.051-.171l1.1-2.345a.587.587,0,0,1,.65-.342l2.824.445a.607.607,0,0,1,.514.7.651.651,0,0,1-.051.171" transform="translate(16.69 68.664)" fill="#1a2738"/>
      <path id="Trazado_662542" data-name="Trazado 662542" d="M129.7,107.192l-1.078,2.345a.587.587,0,0,1-.65.342l-2.824-.445a.616.616,0,0,1-.514-.7.33.33,0,0,1,.051-.171l1.1-2.345a.587.587,0,0,1,.65-.342l2.824.445a.607.607,0,0,1,.513.7.652.652,0,0,1-.051.171" transform="translate(16.477 73.973)" fill="#1a2738"/>
      <path id="Trazado_662543" data-name="Trazado 662543" d="M129.237,94.612l-1.1,2.345a.587.587,0,0,1-.65.342l-2.824-.445a.616.616,0,0,1-.513-.7.33.33,0,0,1,.051-.171l1.1-2.345a.587.587,0,0,1,.65-.342l2.824.428a.607.607,0,0,1,.514.7.651.651,0,0,1-.051.171" transform="translate(16.135 65.02)" fill="#1a2738"/>
      <path id="Trazado_662544" data-name="Trazado 662544" d="M128.927,102.065l-1.1,2.345a.587.587,0,0,1-.65.342l-2.824-.428a.616.616,0,0,1-.514-.7.33.33,0,0,1,.051-.171l1.1-2.345a.587.587,0,0,1,.65-.342l2.824.445a.607.607,0,0,1,.514.7.651.651,0,0,1-.051.171" transform="translate(15.915 70.336)" fill="#1a2738"/>
      <path id="Trazado_662545" data-name="Trazado 662545" d="M128.627,109.522l-1.1,2.345a.587.587,0,0,1-.65.342l-2.824-.445a.616.616,0,0,1-.513-.7.383.383,0,0,1,.051-.171l1.078-2.345a.587.587,0,0,1,.65-.342l2.824.445a.607.607,0,0,1,.513.7.33.33,0,0,1-.051.171" transform="translate(15.701 75.631)" fill="#1a2738"/>
      <path id="Trazado_662546" data-name="Trazado 662546" d="M128.447,89.492l-1.1,2.345a.587.587,0,0,1-.65.342l-2.824-.445a.616.616,0,0,1-.513-.7.33.33,0,0,1,.051-.171l1.1-2.345a.587.587,0,0,1,.65-.342l2.824.445a.616.616,0,0,1,.514.7.33.33,0,0,1-.051.171" transform="translate(15.573 61.377)" fill="#1a2738"/>
      <path id="Trazado_662547" data-name="Trazado 662547" d="M128.147,96.942l-1.1,2.345a.587.587,0,0,1-.65.342l-2.824-.445a.607.607,0,0,1-.514-.7.652.652,0,0,1,.051-.171l1.1-2.345a.587.587,0,0,1,.65-.342l2.824.445a.607.607,0,0,1,.514.7.652.652,0,0,1-.051.171" transform="translate(15.359 66.678)" fill="#1a2738"/>
      <path id="Trazado_662548" data-name="Trazado 662548" d="M127.847,104.4l-1.1,2.345a.587.587,0,0,1-.65.342l-2.824-.445a.616.616,0,0,1-.514-.7.383.383,0,0,1,.051-.171l1.1-2.345a.587.587,0,0,1,.65-.342l2.824.445a.607.607,0,0,1,.514.7.652.652,0,0,1-.051.171" transform="translate(15.146 71.988)" fill="#1a2738"/>
      <path id="Trazado_662549" data-name="Trazado 662549" d="M127.367,91.822l-1.1,2.345a.587.587,0,0,1-.65.342l-2.824-.445a.616.616,0,0,1-.514-.7.33.33,0,0,1,.051-.171l1.1-2.345a.587.587,0,0,1,.65-.342l2.824.428a.607.607,0,0,1,.514.7.652.652,0,0,1-.051.171" transform="translate(14.804 63.035)" fill="#1a2738"/>
      <path id="Trazado_662550" data-name="Trazado 662550" d="M127.067,99.275l-1.1,2.345a.587.587,0,0,1-.65.342l-2.824-.428a.607.607,0,0,1-.514-.7.652.652,0,0,1,.051-.171l1.1-2.345a.587.587,0,0,1,.65-.342l2.824.445a.607.607,0,0,1,.513.7.652.652,0,0,1-.051.171" transform="translate(14.591 68.351)" fill="#1a2738"/>
      <path id="Trazado_662551" data-name="Trazado 662551" d="M126.767,106.732l-1.1,2.345a.587.587,0,0,1-.65.342l-2.824-.445a.616.616,0,0,1-.514-.7.383.383,0,0,1,.051-.171l1.1-2.345a.587.587,0,0,1,.65-.342l2.824.445a.607.607,0,0,1,.513.7.652.652,0,0,1-.051.171" transform="translate(14.377 73.646)" fill="#1a2738"/>
      <path id="Trazado_662552" data-name="Trazado 662552" d="M126.287,94.152l-1.1,2.345a.587.587,0,0,1-.65.342l-2.824-.445a.616.616,0,0,1-.513-.7.33.33,0,0,1,.051-.171l1.1-2.345a.587.587,0,0,1,.65-.342l2.824.428a.607.607,0,0,1,.513.7.33.33,0,0,1-.051.171" transform="translate(14.036 64.693)" fill="#1a2738"/>
      <path id="Trazado_662553" data-name="Trazado 662553" d="M125.987,101.612l-1.1,2.345a.587.587,0,0,1-.65.342l-2.824-.445a.616.616,0,0,1-.513-.7.383.383,0,0,1,.051-.171l1.1-2.345a.587.587,0,0,1,.65-.342l2.824.445a.607.607,0,0,1,.513.7.651.651,0,0,1-.051.171" transform="translate(13.822 70.002)" fill="#1a2738"/>
      <path id="Trazado_662554" data-name="Trazado 662554" d="M125.677,109.062l-1.1,2.345a.587.587,0,0,1-.65.342l-2.824-.445a.616.616,0,0,1-.513-.7.33.33,0,0,1,.051-.171l1.1-2.345a.587.587,0,0,1,.65-.342l2.824.428a.607.607,0,0,1,.513.7.652.652,0,0,1-.051.171" transform="translate(13.602 75.304)" fill="#1a2738"/>
      <path id="Trazado_662555" data-name="Trazado 662555" d="M125.2,96.485l-1.1,2.345a.587.587,0,0,1-.65.342l-2.824-.428a.616.616,0,0,1-.514-.7.33.33,0,0,1,.051-.171l1.1-2.345a.587.587,0,0,1,.65-.342l2.824.445a.607.607,0,0,1,.514.7.652.652,0,0,1-.051.171" transform="translate(13.26 66.365)" fill="#1a2738"/>
      <path id="Trazado_662556" data-name="Trazado 662556" d="M124.9,103.942l-1.1,2.345a.587.587,0,0,1-.65.342l-2.824-.445a.616.616,0,0,1-.513-.7.383.383,0,0,1,.051-.171l1.1-2.345a.587.587,0,0,1,.65-.342l2.824.445a.607.607,0,0,1,.514.7.652.652,0,0,1-.051.171" transform="translate(13.047 71.66)" fill="#1a2738"/>
      <path id="Trazado_662557" data-name="Trazado 662557" d="M124.117,98.822l-1.1,2.345a.587.587,0,0,1-.65.342l-2.824-.445a.616.616,0,0,1-.514-.7.383.383,0,0,1,.051-.171l1.1-2.345a.587.587,0,0,1,.65-.342l2.824.445a.607.607,0,0,1,.514.7.652.652,0,0,1-.051.171" transform="translate(12.491 68.016)" fill="#1a2738"/>
      <path id="Trazado_662558" data-name="Trazado 662558" d="M110.611,112.745h0m-.377-2.157h0m.017.1v0m0,0c.017.1.034.223.068.377a.291.291,0,0,0,.017.12l-.137-.77c-.719-4.159-.7-4.142-.873-5.084-.325-1.866-.274-1.66-.359-2.054a4.721,4.721,0,0,1-.1-.685,3.094,3.094,0,0,1,.12-1.181c.051-.171,15.9-34.285,15.987-34.473a2.977,2.977,0,0,1,.24-.462.276.276,0,0,1,.12-.068c.171,0,.257.359.274.531l5.974,34.85-16.706,36c-2.55-14.874-3.766-21.995-4.3-25.144v-.034h0c-.051-.291-.171-1.027-.274-1.558-.017-.137-.051-.274-.068-.377" transform="translate(5.252 45.895)" fill="#93d2f0"/>
      <path id="Trazado_662559" data-name="Trazado 662559" d="M123.817,106.272l-1.1,2.345a.587.587,0,0,1-.65.342l-2.824-.445a.616.616,0,0,1-.514-.7.33.33,0,0,1,.051-.171l1.1-2.345a.587.587,0,0,1,.65-.342l2.824.428a.607.607,0,0,1,.514.7.652.652,0,0,1-.051.171" transform="translate(12.278 73.318)" fill="#1a2738"/>
      <path id="Trazado_662560" data-name="Trazado 662560" d="M123.037,101.152l-1.1,2.345a.587.587,0,0,1-.65.342l-2.824-.445a.616.616,0,0,1-.514-.7.33.33,0,0,1,.051-.171l1.1-2.345a.587.587,0,0,1,.65-.342l2.824.445a.607.607,0,0,1,.514.7.652.652,0,0,1-.051.171" transform="translate(11.723 69.675)" fill="#1a2738"/>
      <path id="Trazado_662561" data-name="Trazado 662561" d="M122.737,108.612l-1.1,2.345a.587.587,0,0,1-.65.342l-2.824-.445a.607.607,0,0,1-.513-.7.653.653,0,0,1,.051-.171l1.1-2.345a.587.587,0,0,1,.65-.342l2.824.445a.607.607,0,0,1,.513.7.652.652,0,0,1-.051.171" transform="translate(11.509 74.984)" fill="#1a2738"/>
      <path id="Trazado_662562" data-name="Trazado 662562" d="M121.957,103.492l-1.1,2.345a.587.587,0,0,1-.65.342l-2.824-.445a.607.607,0,0,1-.513-.7.652.652,0,0,1,.051-.171l1.1-2.345a.587.587,0,0,1,.65-.342l2.824.428a.607.607,0,0,1,.513.7.33.33,0,0,1-.051.171" transform="translate(10.954 71.34)" fill="#1a2738"/>
      <path id="Trazado_662563" data-name="Trazado 662563" d="M120.867,105.822l-1.1,2.345a.587.587,0,0,1-.65.342l-2.824-.445a.607.607,0,0,1-.514-.7.652.652,0,0,1,.051-.171l1.1-2.345a.587.587,0,0,1,.65-.342l2.824.445a.607.607,0,0,1,.514.7.652.652,0,0,1-.051.171" transform="translate(10.179 72.998)" fill="#1a2738"/>
      <path id="Trazado_662564" data-name="Trazado 662564" d="M119.787,108.145l-1.1,2.345a.587.587,0,0,1-.65.342l-2.824-.428a.616.616,0,0,1-.514-.7.33.33,0,0,1,.051-.171l1.1-2.345a.587.587,0,0,1,.65-.342l2.824.445a.607.607,0,0,1,.514.7.652.652,0,0,1-.051.171" transform="translate(9.41 74.663)" fill="#1a2738"/>
      <path id="Trazado_662565" data-name="Trazado 662565" d="M123.991,64.84l3,.086c-.223,0-.445.24-.633.65l-16.09,34.661a5.708,5.708,0,0,0-.394,1.3,12.311,12.311,0,0,0-.068,4.04l6.128,35.757a1.541,1.541,0,0,0,.137.479c.051.12.137.205.223.205-1.01-.034-2.02-.051-3.03-.086h0c-.205,0-.308-.445-.359-.685l-6.128-35.757a10.9,10.9,0,0,1-.137-2.242,8.564,8.564,0,0,1,.582-3.081l16.09-34.661c.12-.274.359-.668.65-.65" transform="translate(3.666 44.778)" fill="#596876"/>
      <path id="Trazado_662566" data-name="Trazado 662566" d="M115.292,140.423a1.078,1.078,0,0,0-.051.223h0v1.164q-.1.18-.205.154a.351.351,0,0,1-.223-.205,1.542,1.542,0,0,1-.137-.479l-6.128-35.757a11.861,11.861,0,0,1,.068-4.04,5.168,5.168,0,0,1,.394-1.3L125.1,65.52c.188-.411.411-.65.633-.65h.017c.257,0,.514.308.719.976.068.24.12.479.171.719l6.128,35.757a2.966,2.966,0,0,1,.051.548.635.635,0,0,0-.223.291L115.31,140.389Zm16.62-37.5-5.974-34.85c-.034-.171-.12-.531-.274-.531a.173.173,0,0,0-.12.068,1.966,1.966,0,0,0-.24.462c-.086.188-15.936,34.3-15.987,34.473a3.431,3.431,0,0,0-.12,1.181,3.155,3.155,0,0,0,.1.685c.068.377.017.188.359,2.054.171.941.154.924.873,5.084.051.291.1.548.137.77a.254.254,0,0,0,.017.12c.017.034,0,.051,0,.086a.291.291,0,0,0,.017.12h0s0,.086.017.1c0,.051.017.1.017.137v.137a.385.385,0,0,0,.017.12c.017.137.034.24.051.325v.068c0,.051,0,.086.017.1s0,.068.017.12h0c.531,3.149,1.763,10.287,4.3,25.144l16.706-36Z" transform="translate(4.935 44.799)" fill="#283c48"/>
      <path id="Trazado_662584" data-name="Trazado 662584" d="M104.562,113.794a9.479,9.479,0,0,1,4.947,7.857c0,2.4-1.506,3.766-3.783,2.807-3.269-1.369-5.8-6.573-4.673-9.431.531-1.335,1.8-1.951,3.509-1.215" transform="translate(-0.493 79.405)" fill="#da926d"/>
      <path id="Trazado_662585" data-name="Trazado 662585" d="M101.53,114.459l2.824-1.626a2.505,2.505,0,0,1,1.489-.274c2.858.325,6.436,5,5.888,8.935a2.893,2.893,0,0,1-1.215,2.02c-1.164.668-1.814,1.044-2.739,1.575a3.216,3.216,0,0,0,1.2-2.773,9.442,9.442,0,0,0-4.947-7.857,2.688,2.688,0,0,0-2.5,0h0Z" transform="translate(0.04 78.723)" fill="#e2ae4a"/>
      <path id="Trazado_696835" data-name="Trazado 696835" d="M130.941,146.578a1.455,1.455,0,0,0-2.02-.5l-3.868,2.242a19.6,19.6,0,0,1-19.53,0L73.652,129.906a8.74,8.74,0,0,1-4.433-7.6,8.849,8.849,0,0,1,4.45-7.737l4.81-2.79,47.858-27.626a5.52,5.52,0,0,0,1.986-1.986,5.408,5.408,0,0,0-1.986-7.394,1.465,1.465,0,1,0-1.472,2.533,2.559,2.559,0,0,1,.907.907,2.487,2.487,0,0,1-.907,3.389l-46.2,26.685h-.034L76.7,109.4l-10.3,6.367c-.411,1.215-.137,5.2-.137,6.539a11.624,11.624,0,0,0,5.905,10.133l31.888,18.418a22.336,22.336,0,0,0,11.229,3h0a22.464,22.464,0,0,0,11.229-3l3.868-2.242a.247.247,0,0,0,.051-.034,1.455,1.455,0,0,0,.5-2.02Z" transform="translate(-25.126 51.704)" fill="#616c7b"/>
      <g id="Grupo_972552" data-name="Grupo 972552" transform="translate(59.871 -14.849)">
        <path id="Trazado_662483" data-name="Trazado 662483" d="M98.491,62.782V61.19C91.439,65.178,81.853,66.325,73.74,65.4v2.824c8.113.633,17.887-.839,24.751-5.443" transform="translate(-60.292 43.543)" fill="#d45340"/>
        <path id="Trazado_662484" data-name="Trazado 662484" d="M98.491,55.658V54.1C91.353,58.071,81.8,59.218,73.74,58.276V61.1c8.2.633,17.9-.839,24.751-5.443" transform="translate(-60.292 38.497)" fill="#d45340"/>
        <path id="Trazado_662485" data-name="Trazado 662485" d="M97.461,69.79c-5.375,3.629-14.1,6.2-24.751,5.443v2.773C83.6,79.273,93.4,76.637,99.224,72.751Z" transform="translate(-59.341 49.663)" fill="#dc8d57"/>
        <path id="Trazado_662486" data-name="Trazado 662486" d="M72.71,45.684v4.57L74.473,53.2V44.64a16.466,16.466,0,0,1-1.763,1.044" transform="translate(-35.386 31.765)" fill="#b85371"/>
        <path id="Trazado_662487" data-name="Trazado 662487" d="M72.71,63.216l1.763,2.961v-5.6a16.465,16.465,0,0,1-1.763,1.044Z" transform="translate(-35.386 43.109)" fill="#b85371"/>
        <path id="Trazado_662488" data-name="Trazado 662488" d="M72.71,54.548v1.558l1.763,2.961v-5.6c-.565.394-1.164.736-1.763,1.078" transform="translate(-35.386 38.049)" fill="#b85371"/>
        <path id="Trazado_662489" data-name="Trazado 662489" d="M72.71,68.734v2.55l1.763,2.961V67.69a16.468,16.468,0,0,1-1.763,1.044" transform="translate(-35.386 48.169)" fill="#b85371"/>
        <g id="Grupo_971571" data-name="Grupo 971571" transform="translate(31.633 78.63)" opacity="0.64">
          <g id="Grupo_971570" data-name="Grupo 971570">
            <g id="Grupo_972546" data-name="Grupo 972546" clip-path="url(#clip-path)">
              <g id="Grupo_971569" data-name="Grupo 971569" transform="translate(0 0)">
                <path id="Trazado_662490" data-name="Trazado 662490" d="M75.07,47.309v46.01a37.087,37.087,0,0,0,3.7-1.386V45.94a34.07,34.07,0,0,1-3.7,1.369" transform="translate(-75.07 -45.94)" fill="#e8deed"/>
              </g>
            </g>
          </g>
        </g>
        <g id="Grupo_971574" data-name="Grupo 971574" transform="translate(22.751 80.547)" opacity="0.37">
          <g id="Grupo_971573" data-name="Grupo 971573" transform="translate(0)">
            <g id="Grupo_972547" data-name="Grupo 972547" clip-path="url(#clip-path-2)">
              <g id="Grupo_971572" data-name="Grupo 971572" transform="translate(0 0)">
                <path id="Trazado_662491" data-name="Trazado 662491" d="M78.37,48.31v46.01a43.058,43.058,0,0,0,7.394-1.25V47.06a43.34,43.34,0,0,1-7.394,1.25" transform="translate(-78.37 -47.06)" fill="#e8deed"/>
              </g>
            </g>
          </g>
        </g>
        <path id="Trazado_662492" data-name="Trazado 662492" d="M99.665,45.088c-5.426,3.766-15.576,6.539-26.514,5.255v46.01c10.9,1.267,20.728-1.369,26.514-5.255Zm0-1.078a1.074,1.074,0,0,1,1.078,1.078V91.1a1.054,1.054,0,0,1-.479.89c-6.042,4.057-16.073,6.727-27.233,5.426a1.058,1.058,0,0,1-.941-1.061V50.343a1.074,1.074,0,0,1,1.078-1.078,53.143,53.143,0,0,0,5.477.325c7.822,0,15.645-2.054,20.42-5.375a1.134,1.134,0,0,1,.616-.188" transform="translate(-59.787 31.317)" fill="#e4a077"/>
        <g id="Grupo_971580" data-name="Grupo 971580" transform="translate(0 63.773)" opacity="0.64">
          <g id="Grupo_971579" data-name="Grupo 971579">
            <g id="Grupo_972549" data-name="Grupo 972549" clip-path="url(#clip-path-3)">
              <g id="Grupo_971578" data-name="Grupo 971578" transform="translate(-0.017)">
                <path id="Trazado_662494" data-name="Trazado 662494" d="M94.97,109.492a27.894,27.894,0,0,0,3.338,1.712V38.972a26.446,26.446,0,0,1-3.321-1.712v72.232Z" transform="translate(-94.97 -37.26)" fill="#e8bea6"/>
              </g>
            </g>
          </g>
        </g>
        <path id="Trazado_662589" data-name="Trazado 662589" d="M65.1,29.148,112.362.187a.951.951,0,0,1,.9-.12l.1.051,4.435,2.67-3.773,5.186-.194-.051V110.2a6.555,6.555,0,0,1-2.516,5.1L68.064,141.81l2.774,2.105-3.08,3.218-4.644-2.773a1.391,1.391,0,0,1-.532-1.284V34.249a6.555,6.555,0,0,1,2.516-5.1" transform="translate(-62.411 -0.002)" fill="#92a1d2"/>
        <path id="Trazado_662590" data-name="Trazado 662590" d="M63.68,145.866,110.72,116.9a6.566,6.566,0,0,0,2.5-5.1V2.958c0-1.147-.658-1.677-1.46-1.181L64.724,30.739a6.566,6.566,0,0,0-2.5,5.1V144.685c0,1.147.658,1.677,1.46,1.181" transform="translate(-57.239 1.128)" fill="#d9e0f3"/>
        <path id="Trazado_662591" data-name="Trazado 662591" d="M63.68,99.712l47.04-28.961a6.566,6.566,0,0,0,2.5-5.1v.565a6.566,6.566,0,0,1-2.5,5.1L63.68,100.277c-.8.5-1.46-.034-1.46-1.181v-.565c0,1.147.658,1.677,1.46,1.181" transform="translate(-57.239 46.717)" fill="#afbee2"/>
        <path id="Trazado_662592" data-name="Trazado 662592" d="M81.09,14.658c0,.668.479.941,1.061.616a2.414,2.414,0,0,0,1.061-1.831c0-.668-.479-.941-1.061-.616a2.414,2.414,0,0,0-1.061,1.831" transform="translate(-57.613 9.027)" fill="#3d4697"/>
        <path id="Trazado_662593" data-name="Trazado 662593" d="M73.578,15.433,84.036,9.391a.954.954,0,0,0,.428-.736c0-.274-.188-.377-.428-.24L73.578,14.457a.954.954,0,0,0-.428.736c0,.274.188.377.428.24" transform="translate(-45.867 5.942)" fill="#3d4697"/>
        <path id="Trazado_662594" data-name="Trazado 662594" d="M63.632,140.591,111.346,111.2a4.91,4.91,0,0,0,1.878-3.834V5.1c0-1.113-.626-1.609-1.412-1.13L64.1,33.355a4.91,4.91,0,0,0-1.878,3.834V139.462c0,1.113.626,1.609,1.412,1.13" transform="translate(-57.239 2.689)" fill="#3d4697"/>
        <g id="Grupo_971594" data-name="Grupo 971594" transform="translate(4.981 2.718)" opacity="0.53">
          <g id="Grupo_971593" data-name="Grupo 971593">
            <g id="Grupo_972551" data-name="Grupo 972551" clip-path="url(#clip-path-4)">
              <g id="Grupo_971592" data-name="Grupo 971592" transform="translate(0 0.002)">
                <path id="Trazado_662595" data-name="Trazado 662595" d="M64.724,30.739l47.04-28.961c.8-.5,1.46.034,1.46,1.181V4.773c0-1.147-.658-1.677-1.46-1.181L64.724,32.553a6.566,6.566,0,0,0-2.5,5.1V35.84a6.566,6.566,0,0,1,2.5-5.1" transform="translate(-62.22 -1.591)" fill="#fff"/>
              </g>
            </g>
          </g>
        </g>
        <path id="Trazado_662596" data-name="Trazado 662596" d="M95.711,45.408l.137.086c.513.308.941-.017.941-.719V31.2a2.207,2.207,0,0,0-.941-1.8l-.137-.086c-.514-.308-.941.017-.941.719V43.594a2.207,2.207,0,0,0,.941,1.8" transform="translate(-93.127 20.778)" fill="#3b4395"/>
        <path id="Trazado_662597" data-name="Trazado 662597" d="M95.711,49.126l.137.086c.513.308.941-.017.941-.719v-6.4a2.207,2.207,0,0,0-.941-1.8l-.137-.086c-.514-.308-.941.017-.941.719v6.4a2.207,2.207,0,0,0,.941,1.8" transform="translate(-93.127 28.528)" fill="#3b4395"/>
        <path id="Trazado_662598" data-name="Trazado 662598" d="M95.971,45.408l.137.086c.513.308.941-.017.941-.719V31.2a2.207,2.207,0,0,0-.941-1.8l-.137-.086c-.514-.308-.941.017-.941.719V43.594a2.207,2.207,0,0,0,.941,1.8" transform="translate(-93.832 20.778)" fill="#6467ad"/>
        <path id="Trazado_662599" data-name="Trazado 662599" d="M95.971,49.126l.137.086c.513.308.941-.017.941-.719v-6.4a2.207,2.207,0,0,0-.941-1.8l-.137-.086c-.514-.308-.941.017-.941.719v6.4a2.207,2.207,0,0,0,.941,1.8" transform="translate(-93.832 28.528)" fill="#6467ad"/>
        <path id="Trazado_662600" data-name="Trazado 662600" d="M89.07,14.943a.829.829,0,0,0-.513,1.044.848.848,0,0,0,.513.514,2.973,2.973,0,0,0,2.687,0,.829.829,0,0,0,.513-1.044.848.848,0,0,0-.513-.514,2.973,2.973,0,0,0-2.687,0" transform="translate(-78.59 10.402)" fill="#3d4697"/>
        <path id="Trazado_662601" data-name="Trazado 662601" d="M89.246,15.081a.548.548,0,0,0-.342.7.526.526,0,0,0,.342.342,2.03,2.03,0,0,0,1.831,0,.548.548,0,0,0,.342-.7.526.526,0,0,0-.342-.342,2.03,2.03,0,0,0-1.831,0" transform="translate(-78.36 10.573)" fill="#283374"/>
        <path id="Trazado_662602" data-name="Trazado 662602" d="M91.76,15.327a2.973,2.973,0,0,0-2.687,0,1.1,1.1,0,0,0-.531.582c-.1-.342.068-.7.531-.976a2.973,2.973,0,0,1,2.687,0,.856.856,0,0,1,.531.976,1.1,1.1,0,0,0-.531-.582" transform="translate(-78.592 10.395)" fill="#283374"/>
        <path id="Trazado_662603" data-name="Trazado 662603" d="M62.9,120.264,111.182,90.43V14.62L62.9,44.454Z" transform="translate(-56.361 10.401)" fill="#7a97ce"/>
        <path id="Trazado_662604" data-name="Trazado 662604" d="M62.9,89.442l48.282-29.834V57.93L62.9,87.764v1.677Z" transform="translate(-56.361 41.223)" fill="#4c62ab"/>
        <path id="Trazado_662605" data-name="Trazado 662605" d="M64.24,114.5l43.712-27.2V16.88L64.24,44.078V114.5Z" transform="translate(-55.425 12.009)" fill="#f0f7fd"/>
        <path id="Trazado_662606" data-name="Trazado 662606" d="M79.672,17.888c2.225-1.284,4.022-.24,4.022,2.328a8.878,8.878,0,0,1-4.022,6.966c-2.225,1.284-4.022.24-4.022-2.328a8.878,8.878,0,0,1,4.022-6.966m0,5.409a4.129,4.129,0,0,0,1.866-3.218c0-1.181-.839-1.677-1.866-1.078a4.129,4.129,0,0,0-1.866,3.218c0,1.181.839,1.66,1.866,1.078" transform="translate(-49.178 12.336)" fill="#273c8b"/>
        <path id="Trazado_662609" data-name="Trazado 662609" d="M66.22,54.253l40.344-23.3V29.81L66.22,53.106v1.147Z" transform="translate(-57.426 21.211)" fill="#7a97ce"/>
        <path id="Trazado_662610" data-name="Trazado 662610" d="M72.11,53.543l30.279-17.476V34.92L72.11,52.4Z" transform="translate(-61.359 24.848)" fill="#7a97ce"/>
        <path id="Trazado_662611" data-name="Trazado 662611" d="M66.21,57.65l40.378-23.313V33.19L66.21,56.5Z" transform="translate(-57.433 23.616)" fill="#7a97ce"/>
        <path id="Trazado_662612" data-name="Trazado 662612" d="M66.21,59.33l40.378-23.313V34.87L66.21,58.183Z" transform="translate(-57.433 24.812)" fill="#7a97ce"/>
        <path id="Trazado_662613" data-name="Trazado 662613" d="M66.21,61.01,106.588,37.7V36.55L66.21,59.863Z" transform="translate(-57.433 26.008)" fill="#7a97ce"/>
        <path id="Trazado_662614" data-name="Trazado 662614" d="M66.21,62.69l40.378-23.313V38.23L66.21,61.543Z" transform="translate(-57.433 27.203)" fill="#7a97ce"/>
        <path id="Trazado_662615" data-name="Trazado 662615" d="M72.11,61.943l30.279-17.476V43.32L72.11,60.8Z" transform="translate(-61.359 30.826)" fill="#7a97ce"/>
        <path id="Trazado_662616" data-name="Trazado 662616" d="M66.21,66.05l40.378-23.313V41.59L66.21,64.9Z" transform="translate(-57.433 29.594)" fill="#7a97ce"/>
        <path id="Trazado_662617" data-name="Trazado 662617" d="M66.21,67.73l40.378-23.313V43.27L66.21,66.583Z" transform="translate(-57.433 30.79)" fill="#7a97ce"/>
        <path id="Trazado_662618" data-name="Trazado 662618" d="M85.21,72.953l7.857-4.536V67.27L85.21,71.806Z" transform="translate(-73.842 47.87)" fill="#7a97ce"/>
        <path id="Trazado_662619" data-name="Trazado 662619" d="M85.21,71.673l7.857-4.536V65.99L85.21,70.526Z" transform="translate(-73.842 46.959)" fill="#7a97ce"/>
        <path id="Trazado_662620" data-name="Trazado 662620" d="M85.21,70.383l7.857-4.536V64.7L85.21,69.236Z" transform="translate(-73.842 46.041)" fill="#7a97ce"/>
        <path id="Trazado_662621" data-name="Trazado 662621" d="M66.22,59.423l7.857-4.536V53.74L66.22,58.276Z" transform="translate(-24.939 38.241)" fill="#7a97ce"/>
        <path id="Trazado_662622" data-name="Trazado 662622" d="M66.31,77.9l40.207-23.21V46.27L66.31,69.48Z" transform="translate(-57.533 32.925)" fill="#bfd1ed"/>
      </g>
    </g>
    <path id="Trazado_707219" data-name="Trazado 707219" d="M3285.005,11701.188h-.574a22.433,22.433,0,0,1-22.431-22.437v-4.314a22.432,22.432,0,0,1,22.431-22.437h87.137a22.435,22.435,0,0,1,22.433,22.437v4.314a22.435,22.435,0,0,1-22.433,22.437h-70.4l-16.164,20.086Z" transform="translate(-2847 -7725.749)" fill="#ffc321"/>
    <path id="Trazado_707218" data-name="Trazado 707218" d="M6.179,11.463a5.964,5.964,0,0,1-.268,2.026,3.026,3.026,0,0,1-.9,1.244l-.58.536A2.292,2.292,0,0,0,3.612,16.9a1.221,1.221,0,0,0,.294.91,1.046,1.046,0,0,0,.76.286,1.161,1.161,0,0,0,.918-.374,1.615,1.615,0,0,0,.347-1.059H8.912a3.6,3.6,0,0,1-1.121,2.742,4.411,4.411,0,0,1-3.054.976,4.535,4.535,0,0,1-3.028-.91A3.192,3.192,0,0,1,.642,16.9a2.953,2.953,0,0,1,.334-1.375,5.455,5.455,0,0,1,1.143-1.4l.747-.686A2.019,2.019,0,0,0,3.621,12.1l.044-.633ZM5,10.276a1.7,1.7,0,0,1-1.173-.417,1.448,1.448,0,0,1,0-2.136A1.7,1.7,0,0,1,5,7.306a1.674,1.674,0,0,1,1.182.426,1.446,1.446,0,0,1,0,2.118A1.674,1.674,0,0,1,5,10.276ZM16.734,13.6a1.268,1.268,0,0,0-.479-1.055,5.954,5.954,0,0,0-1.683-.782,16.147,16.147,0,0,1-1.969-.782q-2.487-1.222-2.487-3.357a3.011,3.011,0,0,1,.62-1.876A4.008,4.008,0,0,1,12.489,4.48a6.823,6.823,0,0,1,2.549-.453,5.969,5.969,0,0,1,2.474.492,3.917,3.917,0,0,1,1.7,1.4A3.661,3.661,0,0,1,19.819,8H16.743a1.547,1.547,0,0,0-.479-1.213,1.867,1.867,0,0,0-1.3-.431,2.106,2.106,0,0,0-1.305.365,1.074,1.074,0,0,0,.048,1.819,6.65,6.65,0,0,0,1.854.826,11.36,11.36,0,0,1,2.18.918,3.663,3.663,0,0,1,2.074,3.3,3.125,3.125,0,0,1-1.266,2.637,5.629,5.629,0,0,1-3.472.958,6.888,6.888,0,0,1-2.817-.558,4.247,4.247,0,0,1-1.9-1.529,3.985,3.985,0,0,1-.637-2.237h3.094a1.963,1.963,0,0,0,.532,1.516,2.513,2.513,0,0,0,1.727.488,1.985,1.985,0,0,0,1.208-.33A1.088,1.088,0,0,0,16.734,13.6ZM26.622,17a3.344,3.344,0,0,1-.281-.853,2.754,2.754,0,0,1-2.285,1.028,3.374,3.374,0,0,1-2.285-.813,2.588,2.588,0,0,1-.94-2.043,2.66,2.66,0,0,1,1.143-2.338,5.821,5.821,0,0,1,3.322-.791h.914v-.5q0-1.316-1.134-1.316a.927.927,0,0,0-1.055,1.042H21.059a2.655,2.655,0,0,1,1.173-2.239,4.931,4.931,0,0,1,2.993-.86A4.323,4.323,0,0,1,28.1,8.2a3.086,3.086,0,0,1,1.081,2.435v4.21a4.311,4.311,0,0,0,.4,2V17Zm-1.854-1.934a1.652,1.652,0,0,0,.918-.237,1.487,1.487,0,0,0,.523-.536V12.772h-.861q-1.547,0-1.547,1.389a.848.848,0,0,0,.272.655A.986.986,0,0,0,24.768,15.066Zm14.88-2.742a5.8,5.8,0,0,1-.967,3.595,3.238,3.238,0,0,1-2.725,1.257,2.81,2.81,0,0,1-2.338-1.151L33.5,17H30.841V3.5H33.8V8.255a2.711,2.711,0,0,1,2.136-.94,3.239,3.239,0,0,1,2.742,1.274,5.826,5.826,0,0,1,.967,3.586Zm-2.971-.189a3.866,3.866,0,0,0-.365-1.952A1.229,1.229,0,0,0,35.191,9.6a1.418,1.418,0,0,0-1.389.763v3.773a1.426,1.426,0,0,0,1.406.755,1.258,1.258,0,0,0,1.327-1.018A7.309,7.309,0,0,0,36.677,12.135ZM44.183,17H41.2V7.49h2.979ZM43.075,3.676H46.2l-2.443,2.76-2.417,0ZM51.442,17a3.344,3.344,0,0,1-.281-.853,2.754,2.754,0,0,1-2.285,1.028,3.374,3.374,0,0,1-2.285-.813,2.588,2.588,0,0,1-.94-2.043,2.66,2.66,0,0,1,1.143-2.338,5.821,5.821,0,0,1,3.322-.791h.914v-.5q0-1.316-1.134-1.316a.927.927,0,0,0-1.055,1.042H45.879a2.655,2.655,0,0,1,1.173-2.239,4.931,4.931,0,0,1,2.993-.86,4.323,4.323,0,0,1,2.874.888A3.086,3.086,0,0,1,54,10.637v4.21a4.311,4.311,0,0,0,.4,2V17Zm-1.854-1.934a1.652,1.652,0,0,0,.918-.237,1.487,1.487,0,0,0,.523-.536V12.772h-.861q-1.547,0-1.547,1.389a.848.848,0,0,0,.272.655A.986.986,0,0,0,49.588,15.066Zm11.03-.738a.684.684,0,0,0-.4-.606,6.016,6.016,0,0,0-1.5-.475,6.853,6.853,0,0,1-1.828-.646,3.062,3.062,0,0,1-1.1-.971,2.319,2.319,0,0,1-.378-1.31A2.628,2.628,0,0,1,56.5,8.163a4.453,4.453,0,0,1,2.83-.848,4.934,4.934,0,0,1,3.023.853,2.666,2.666,0,0,1,1.143,2.241H60.521q0-1.143-1.2-1.143a1.194,1.194,0,0,0-.782.259.8.8,0,0,0-.316.646.737.737,0,0,0,.387.642,3.654,3.654,0,0,0,1.235.4,10.671,10.671,0,0,1,1.49.378,2.706,2.706,0,0,1,2.145,2.646,2.491,2.491,0,0,1-1.156,2.118,5.068,5.068,0,0,1-2.993.817,5.172,5.172,0,0,1-2.18-.439,3.645,3.645,0,0,1-1.494-1.2,2.707,2.707,0,0,1-.536-1.591h2.769a1.145,1.145,0,0,0,.439.962,1.808,1.808,0,0,0,1.081.3,1.422,1.422,0,0,0,.91-.246A.787.787,0,0,0,60.618,14.328Zm8.35-2.18A5.709,5.709,0,0,1,69.952,8.6a3.233,3.233,0,0,1,2.716-1.283,2.761,2.761,0,0,1,2.338,1.2l.211-1.02h2.566V20.656H74.813V16.209a2.757,2.757,0,0,1-2.162.967,3.2,3.2,0,0,1-2.685-1.305A6.027,6.027,0,0,1,68.968,12.148Zm2.962.185q0,2.558,1.477,2.558a1.43,1.43,0,0,0,1.406-.773V10.355A1.4,1.4,0,0,0,73.424,9.6q-1.38,0-1.485,2.206Zm13.192,3.639a3.054,3.054,0,0,1-2.54,1.2,3,3,0,0,1-2.369-.91,3.826,3.826,0,0,1-.8-2.615V7.49h2.962v6.179a1.065,1.065,0,0,0,1.187,1.222,1.548,1.548,0,0,0,1.45-.729V7.49h2.979V17H85.21Zm9.088,1.2a4.889,4.889,0,0,1-3.542-1.305,4.507,4.507,0,0,1-1.354-3.4v-.246a5.84,5.84,0,0,1,.541-2.575,3.955,3.955,0,0,1,1.578-1.727,4.763,4.763,0,0,1,2.461-.611,4.117,4.117,0,0,1,3.164,1.244,4.887,4.887,0,0,1,1.16,3.467v1.151H92.329a2.135,2.135,0,0,0,.694,1.257,2.066,2.066,0,0,0,1.389.457,2.662,2.662,0,0,0,2.2-.984l1.354,1.6a3.784,3.784,0,0,1-1.569,1.217A5.3,5.3,0,0,1,94.21,17.176ZM93.876,9.6q-1.3,0-1.547,1.723h2.988v-.229a1.467,1.467,0,0,0-.36-1.1A1.434,1.434,0,0,0,93.876,9.6Zm-.035-6.108H96.97l-2.443,2.76-2.417,0Zm7.761,9.457a5.721,5.721,0,0,1,.29-2.026,3.168,3.168,0,0,1,.94-1.288,6.252,6.252,0,0,0,.989-1,1.628,1.628,0,0,0,.338-1q0-1.327-1.143-1.327a1.06,1.06,0,0,0-.853.387,1.645,1.645,0,0,0-.343,1.046H98.851a3.544,3.544,0,0,1,1.107-2.738,4.415,4.415,0,0,1,3.059-.98,4.587,4.587,0,0,1,3.037.905,3.177,3.177,0,0,1,1.077,2.575,3,3,0,0,1-.29,1.327,4.485,4.485,0,0,1-.932,1.222L104.9,11a2.378,2.378,0,0,0-.6.848,3.361,3.361,0,0,0-.185,1.1Zm-.36,2.672a1.364,1.364,0,0,1,.47-1.068,1.858,1.858,0,0,1,2.347,0,1.448,1.448,0,0,1,0,2.136,1.858,1.858,0,0,1-2.347,0A1.364,1.364,0,0,1,101.241,15.62Z" transform="translate(427.815 3939.251)" fill="#12263f"/>
  </g>
</svg>
