<svg id="Grupo_999437" data-name="Grupo 999437" xmlns="http://www.w3.org/2000/svg" xmlns:xlink="http://www.w3.org/1999/xlink" width="394.715" height="256.263" viewBox="0 0 394.715 256.263">
  <defs>
    <clipPath id="clip-path">
      <rect id="Rectángulo_345414" data-name="Rectángulo 345414" width="394.715" height="256.263" fill="none"/>
    </clipPath>
  </defs>
  <rect id="Rectángulo_345337" data-name="Rectángulo 345337" width="11.882" height="18.847" transform="translate(18.058 41.255)" fill="#ffc943"/>
  <g id="Grupo_999436" data-name="Grupo 999436">
    <g id="Grupo_999435" data-name="Grupo 999435" clip-path="url(#clip-path)">
      <path id="Trazado_706261" data-name="Trazado 706261" d="M41.537,88.562H17.462A2.092,2.092,0,0,1,15.37,86.47V81.615a2.092,2.092,0,0,1,2.092-2.093H41.537a2.092,2.092,0,0,1,2.092,2.093V86.47a2.092,2.092,0,0,1-2.092,2.092" transform="translate(-5.501 -28.46)" fill="#ffc943"/>
      <path id="Trazado_706262" data-name="Trazado 706262" d="M40,68.68,28.123,66.835V64.248H40Z" transform="translate(-10.065 -22.994)" fill="#ff833e"/>
      <path id="Trazado_706263" data-name="Trazado 706263" d="M32.061,288.785H16.706A15.633,15.633,0,0,1,1.073,273.153V106.5A15.633,15.633,0,0,1,16.706,90.871H32.061A15.632,15.632,0,0,1,47.693,106.5V273.153a15.632,15.632,0,0,1-15.632,15.632" transform="translate(-0.384 -32.522)" fill="#ffc943"/>
      <path id="Trazado_706264" data-name="Trazado 706264" d="M15.772,284.24h0a3.886,3.886,0,0,1-3.886-3.886V110.75a3.886,3.886,0,0,1,7.772,0v169.6a3.886,3.886,0,0,1-3.886,3.886" transform="translate(-4.254 -38.246)" fill="#ffd580"/>
      <rect id="Rectángulo_345338" data-name="Rectángulo 345338" width="11.534" height="3.599" transform="translate(18.232 34.124)" fill="#91afdb"/>
      <path id="Trazado_706265" data-name="Trazado 706265" d="M38.706,48.344H32.692V38.214a3.007,3.007,0,0,1,6.014,0Z" transform="translate(-11.7 -12.6)" fill="#91afdb"/>
      <path id="Trazado_706266" data-name="Trazado 706266" d="M38.162,39.155a1.777,1.777,0,1,1-1.777-1.777,1.777,1.777,0,0,1,1.777,1.777" transform="translate(-12.386 -13.377)" fill="#6685aa"/>
      <rect id="Rectángulo_345339" data-name="Rectángulo 345339" width="15.99" height="6.411" transform="translate(16.004 36.576)" fill="#3c3c5b"/>
      <rect id="Rectángulo_345340" data-name="Rectángulo 345340" width="6.968" height="6.411" transform="translate(22.972 36.576)" fill="#2f2f3f"/>
      <rect id="Rectángulo_345341" data-name="Rectángulo 345341" width="3.2" height="6.411" transform="translate(17.708 36.576)" fill="#606087"/>
      <path id="Trazado_706267" data-name="Trazado 706267" d="M.03,14.095,0,37.22,12.559,62.49l5.056-2.513L5.646,35.895V24.051H42.351V35.895L30.383,59.977l5.056,2.513L48,37.22V14.095Z" transform="translate(0 -5.044)" fill="#ffc943"/>
      <rect id="Rectángulo_345342" data-name="Rectángulo 345342" width="36.706" height="9.957" transform="translate(5.646 9.05)" fill="#ff833e"/>
      <path id="Trazado_706268" data-name="Trazado 706268" d="M38.887,117.123v164.7a16.807,16.807,0,0,0,3.519,10.314h3.546a15.273,15.273,0,0,0,15.273-15.273V109.5a15.205,15.205,0,0,0-2.992-9.079,17.068,17.068,0,0,0-2.459-.18,16.886,16.886,0,0,0-16.887,16.887" transform="translate(-13.917 -35.873)" fill="#ff833e"/>
      <path id="Trazado_706269" data-name="Trazado 706269" d="M15.37,82.648v4.877H43.629V82.648c0-.035-.008-.067-.01-.1H15.38c0,.035-.01.067-.01.1" transform="translate(-5.501 -29.543)" fill="#ff833e"/>
      <rect id="Rectángulo_345343" data-name="Rectángulo 345343" width="24.991" height="24.991" transform="translate(5.3 146.779) rotate(-45)" fill="#fff"/>
      <rect id="Rectángulo_345344" data-name="Rectángulo 345344" width="20.547" height="20.547" transform="matrix(0.707, -0.707, 0.707, 0.707, 8.443, 146.779)" fill="#ef3f1d"/>
      <path id="Trazado_706270" data-name="Trazado 706270" d="M42.945,224.664s2.231-.656.4-4.07c-1.315,1.523-.055,3.465-.4,4.07" transform="translate(-15.291 -78.948)" fill="#fff"/>
      <path id="Trazado_706271" data-name="Trazado 706271" d="M38.209,222.518c-.945,3.046-4.568,2.1-3.1-2.1s-2.45-6.774-2.45-6.774c.56,4.551-6.833,4.551-6.833,11.835a6.332,6.332,0,0,0,3.986,5.88c-3.072-2.672.9-4.364,1.15-6.951a2.736,2.736,0,0,1,.63,2.6c-.473,1.483,1.05,1.956,1.431.879a1.039,1.039,0,0,1,1.286-.787,1.157,1.157,0,0,0-.446,1.26,3.749,3.749,0,0,1-.35,3.306,6.342,6.342,0,0,0,4.337-3.415l0,0c1.447-2.48.356-5.73.356-5.73" transform="translate(-9.243 -76.461)" fill="#fff"/>
      <path id="Trazado_706272" data-name="Trazado 706272" d="M144.919,63.9H129.271A16.77,16.77,0,0,0,112.5,80.674v198.46h49.186V80.674A16.77,16.77,0,0,0,144.919,63.9" transform="translate(-40.263 -22.871)" fill="#ef3f1d"/>
      <path id="Trazado_706273" data-name="Trazado 706273" d="M167.451,274.445H148.587V87.535a9.432,9.432,0,1,1,18.864,0Z" transform="translate(-53.178 -27.952)" fill="#ce2b15"/>
      <path id="Trazado_706274" data-name="Trazado 706274" d="M127.526,266.205h0a3.886,3.886,0,0,1-3.886-3.886V83.408a3.886,3.886,0,0,1,7.772,0V262.319a3.886,3.886,0,0,1-3.886,3.886" transform="translate(-44.249 -28.46)" fill="#ff7664"/>
      <path id="Trazado_706275" data-name="Trazado 706275" d="M155.645,56.357H126.518a2.878,2.878,0,0,0-2.878,2.878v8.772h34.883V59.235a2.878,2.878,0,0,0-2.878-2.878" transform="translate(-44.249 -20.17)" fill="#ef3f1d"/>
      <rect id="Rectángulo_345345" data-name="Rectángulo 345345" width="15.834" height="8.096" transform="translate(88.915 29.2)" fill="#ef3f1d"/>
      <rect id="Rectángulo_345346" data-name="Rectángulo 345346" width="15.834" height="2.472" transform="translate(88.915 33.716)" fill="#9b3426"/>
      <rect id="Rectángulo_345347" data-name="Rectángulo 345347" width="52.731" height="14.41" transform="translate(70.466 241.853)" fill="#9b3426"/>
      <rect id="Rectángulo_345348" data-name="Rectángulo 345348" width="24.593" height="14.41" transform="translate(72.239 241.853)" fill="#7c251d"/>
      <rect id="Rectángulo_345349" data-name="Rectángulo 345349" width="10.66" height="14.41" transform="translate(105.794 241.853)" fill="#ef3f1d"/>
      <rect id="Rectángulo_345350" data-name="Rectángulo 345350" width="24.991" height="24.991" transform="translate(79.161 89.774) rotate(-45)" fill="#fff"/>
      <rect id="Rectángulo_345351" data-name="Rectángulo 345351" width="20.546" height="20.546" transform="translate(82.303 89.773) rotate(-44.999)" fill="#ef3f1d"/>
      <path id="Trazado_706276" data-name="Trazado 706276" d="M157.972,135.886s2.232-.656.4-4.069c-1.315,1.522-.055,3.465-.4,4.069" transform="translate(-56.459 -47.176)" fill="#fff"/>
      <path id="Trazado_706277" data-name="Trazado 706277" d="M153.236,133.74c-.945,3.046-4.568,2.1-3.1-2.1s-2.45-6.774-2.45-6.774c.56,4.551-6.833,4.551-6.833,11.835a6.332,6.332,0,0,0,3.986,5.88c-3.073-2.672.9-4.364,1.15-6.951a2.736,2.736,0,0,1,.63,2.6c-.473,1.483,1.05,1.956,1.431.88a1.039,1.039,0,0,1,1.286-.788,1.157,1.157,0,0,0-.446,1.26,3.749,3.749,0,0,1-.35,3.306,6.341,6.341,0,0,0,4.337-3.415l0,0c1.447-2.48.356-5.73.356-5.73" transform="translate(-50.41 -44.688)" fill="#fff"/>
      <rect id="Rectángulo_345352" data-name="Rectángulo 345352" width="10.965" height="2.864" transform="translate(91.349 26.336)" fill="#ffc943"/>
      <rect id="Rectángulo_345353" data-name="Rectángulo 345353" width="6.968" height="11.353" transform="translate(93.348 14.982)" fill="#ffc943"/>
      <rect id="Rectángulo_345354" data-name="Rectángulo 345354" width="10.965" height="2.864" transform="translate(91.349 12.118)" fill="#ffc943"/>
      <path id="Trazado_706278" data-name="Trazado 706278" d="M137.712,14.325v1.557a1.17,1.17,0,0,0,1.171,1.171h14.471a1.17,1.17,0,0,0,1.171-1.171V14.325a1.17,1.17,0,0,0-1.171-1.171H138.883a1.17,1.17,0,0,0-1.171,1.171" transform="translate(-49.286 -4.708)" fill="#3c3c5b"/>
      <path id="Trazado_706279" data-name="Trazado 706279" d="M145.377,24.115l6.968.966V23.333h-6.968Z" transform="translate(-52.029 -8.351)" fill="#ff833e"/>
      <path id="Trazado_706280" data-name="Trazado 706280" d="M145.377,35.823l6.968.966V35.041h-6.968Z" transform="translate(-52.029 -12.541)" fill="#ff833e"/>
      <rect id="Rectángulo_345355" data-name="Rectángulo 345355" width="20.461" height="3.682" transform="translate(86.601 18.818)" fill="#ffc943"/>
      <rect id="Rectángulo_345356" data-name="Rectángulo 345356" width="20.461" height="1.027" transform="translate(86.601 19.631)" fill="#ffd580"/>
      <rect id="Rectángulo_345357" data-name="Rectángulo 345357" width="4.748" height="3.682" transform="translate(102.314 18.818)" fill="#ff833e"/>
      <rect id="Rectángulo_345358" data-name="Rectángulo 345358" width="4.757" height="7.459" transform="translate(104.035 16.929)" fill="#ffc943"/>
      <rect id="Rectángulo_345359" data-name="Rectángulo 345359" width="4.757" height="2.054" transform="translate(104.035 18.199)" fill="#ffd580"/>
      <rect id="Rectángulo_345360" data-name="Rectángulo 345360" width="4.748" height="3.682" transform="translate(86.601 18.818)" fill="#ff833e"/>
      <rect id="Rectángulo_345361" data-name="Rectángulo 345361" width="4.757" height="7.459" transform="translate(84.872 16.929)" fill="#ffc943"/>
      <rect id="Rectángulo_345362" data-name="Rectángulo 345362" width="4.757" height="2.054" transform="translate(84.872 18.199)" fill="#ffd580"/>
      <rect id="Rectángulo_345363" data-name="Rectángulo 345363" width="52.387" height="30.726" transform="translate(150.594 111.111)" fill="#5685d8"/>
      <rect id="Rectángulo_345364" data-name="Rectángulo 345364" width="11.349" height="30.726" transform="translate(150.594 111.111)" fill="#3768af"/>
      <rect id="Rectángulo_345365" data-name="Rectángulo 345365" width="11.349" height="30.726" transform="translate(191.631 111.111)" fill="#3768af"/>
      <rect id="Rectángulo_345366" data-name="Rectángulo 345366" width="7.201" height="10.398" transform="translate(173.187 121.219)" fill="#dae9ea"/>
      <rect id="Rectángulo_345367" data-name="Rectángulo 345367" width="3.988" height="1.844" transform="translate(180.388 125.496)" fill="#91afdb"/>
      <rect id="Rectángulo_345368" data-name="Rectángulo 345368" width="1.989" height="3.957" transform="translate(183.972 124.44)" fill="#dae9ea"/>
      <rect id="Rectángulo_345369" data-name="Rectángulo 345369" width="7.201" height="3.273" transform="translate(173.187 128.344)" fill="#91afdb"/>
      <rect id="Rectángulo_345370" data-name="Rectángulo 345370" width="7.201" height="3.273" transform="translate(173.187 121.219)" fill="#91afdb"/>
      <rect id="Rectángulo_345371" data-name="Rectángulo 345371" width="12.761" height="4.681" transform="translate(170.407 118.174)" fill="#dae9ea"/>
      <rect id="Rectángulo_345372" data-name="Rectángulo 345372" width="0.278" height="4.681" transform="translate(171.459 118.174)" fill="#91afdb"/>
      <rect id="Rectángulo_345373" data-name="Rectángulo 345373" width="0.278" height="4.681" transform="translate(173.535 118.174)" fill="#91afdb"/>
      <rect id="Rectángulo_345374" data-name="Rectángulo 345374" width="0.278" height="4.681" transform="translate(175.611 118.174)" fill="#91afdb"/>
      <rect id="Rectángulo_345375" data-name="Rectángulo 345375" width="0.278" height="4.681" transform="translate(177.687 118.174)" fill="#91afdb"/>
      <rect id="Rectángulo_345376" data-name="Rectángulo 345376" width="0.278" height="4.681" transform="translate(179.763 118.174)" fill="#91afdb"/>
      <rect id="Rectángulo_345377" data-name="Rectángulo 345377" width="0.278" height="4.681" transform="translate(181.839 118.174)" fill="#91afdb"/>
      <path id="Trazado_706281" data-name="Trazado 706281" d="M270.617,202.989h-2.4a9.4,9.4,0,0,0-9.4,9.4v2.658h21.2v-2.658a9.4,9.4,0,0,0-9.4-9.4" transform="translate(-92.627 -72.648)" fill="#dae9ea"/>
      <path id="Trazado_706282" data-name="Trazado 706282" d="M268.666,205.653c.489.847-.2,2.159-1.533,2.93s-2.815.71-3.3-.137.2-2.159,1.533-2.93,2.814-.71,3.3.137" transform="translate(-94.365 -73.359)" fill="#fff"/>
      <path id="Trazado_706283" data-name="Trazado 706283" d="M266.234,212.991H247.442a23.77,23.77,0,0,0-23.77,23.77V318.1a6.105,6.105,0,0,0,6.105,6.106H283.9A6.105,6.105,0,0,0,290,318.1V236.761a23.77,23.77,0,0,0-23.77-23.77" transform="translate(-80.05 -76.227)" fill="#87ceff"/>
      <path id="Trazado_706284" data-name="Trazado 706284" d="M285.86,394.477H227.815a4.143,4.143,0,1,1,0-8.285H285.86a4.143,4.143,0,1,1,0,8.285" transform="translate(-80.05 -138.214)" fill="#87ceff"/>
      <path id="Trazado_706285" data-name="Trazado 706285" d="M297.774,331.058H272.335V241.57a9.432,9.432,0,0,1,9.432-9.432h6.575a9.432,9.432,0,0,1,9.432,9.432Z" transform="translate(-97.466 -83.08)" fill="#5685d8"/>
      <path id="Trazado_706286" data-name="Trazado 706286" d="M243.933,326.136h0a5.24,5.24,0,0,1-5.24-5.24v-81.6a5.241,5.241,0,1,1,10.481,0v81.6a5.241,5.241,0,0,1-5.241,5.24" transform="translate(-85.426 -83.765)" fill="#c0e9ff"/>
      <rect id="Rectángulo_345378" data-name="Rectángulo 345378" width="24.991" height="24.991" transform="translate(159.116 194.908) rotate(-45)" fill="#fff"/>
      <rect id="Rectángulo_345379" data-name="Rectángulo 345379" width="20.546" height="20.546" transform="translate(162.259 194.908) rotate(-45)" fill="#ffc943"/>
      <path id="Trazado_706287" data-name="Trazado 706287" d="M282.492,299.618s2.231-.656.4-4.07c-1.315,1.523-.055,3.466-.4,4.07" transform="translate(-101.023 -105.774)" fill="#fff"/>
      <path id="Trazado_706288" data-name="Trazado 706288" d="M277.756,297.472c-.945,3.046-4.568,2.1-3.1-2.1s-2.45-6.774-2.45-6.774c.56,4.551-6.833,4.551-6.833,11.835a6.332,6.332,0,0,0,3.986,5.88c-3.072-2.672.9-4.364,1.15-6.951a2.736,2.736,0,0,1,.63,2.6c-.472,1.483,1.05,1.956,1.431.879a1.039,1.039,0,0,1,1.286-.787,1.157,1.157,0,0,0-.446,1.26,3.749,3.749,0,0,1-.35,3.306A6.341,6.341,0,0,0,277.4,303.2l0,0c1.447-2.48.356-5.73.356-5.73" transform="translate(-94.975 -103.286)" fill="#fff"/>
      <path id="Trazado_706289" data-name="Trazado 706289" d="M233.18,386.192c43.037,14.671,56.083,0,56.083,0Z" transform="translate(-83.453 -138.214)" fill="#3768af"/>
      <path id="Trazado_706290" data-name="Trazado 706290" d="M242.444,176.893l-7.913-3.853v30.726h7.913Z" transform="translate(-83.936 -61.929)" fill="#87ceff"/>
      <path id="Trazado_706291" data-name="Trazado 706291" d="M240.457,186.637H231.32a2.341,2.341,0,0,1-2.34-2.34v-.787a2.341,2.341,0,0,1,2.34-2.34h9.137Z" transform="translate(-81.95 -64.839)" fill="#76c1ff"/>
      <path id="Trazado_706292" data-name="Trazado 706292" d="M240.457,217.845H231.32a2.341,2.341,0,0,1-2.34-2.34v-.787a2.341,2.341,0,0,1,2.34-2.34h9.137Z" transform="translate(-81.95 -76.008)" fill="#76c1ff"/>
      <path id="Trazado_706293" data-name="Trazado 706293" d="M303.8,176.893l7.913-3.853v30.726H303.8Z" transform="translate(-108.726 -61.929)" fill="#87ceff"/>
      <path id="Trazado_706294" data-name="Trazado 706294" d="M303.8,186.637h9.137a2.341,2.341,0,0,0,2.34-2.34v-.787a2.341,2.341,0,0,0-2.34-2.34H303.8Z" transform="translate(-108.726 -64.839)" fill="#76c1ff"/>
      <path id="Trazado_706295" data-name="Trazado 706295" d="M303.8,217.845h9.137a2.341,2.341,0,0,0,2.34-2.34v-.787a2.341,2.341,0,0,0-2.34-2.34H303.8Z" transform="translate(-108.726 -76.008)" fill="#76c1ff"/>
      <rect id="Rectángulo_345380" data-name="Rectángulo 345380" width="23.366" height="17.991" transform="translate(245.06 33.596)" fill="#75af3e"/>
      <path id="Trazado_706296" data-name="Trazado 706296" d="M381.648,62.831v10.31h23.366V60.225Z" transform="translate(-136.588 -21.554)" fill="#466636"/>
      <path id="Trazado_706297" data-name="Trazado 706297" d="M411.3,262.816H359.542V82.437a15.3,15.3,0,0,1,15.3-15.3H396a15.3,15.3,0,0,1,15.3,15.3Z" transform="translate(-128.676 -24.029)" fill="#9bc630"/>
      <path id="Trazado_706298" data-name="Trazado 706298" d="M369.669,92.742V252.378h11.588V92.742a5.794,5.794,0,0,0-11.588,0" transform="translate(-132.301 -31.118)" fill="#c3e84f"/>
      <path id="Trazado_706299" data-name="Trazado 706299" d="M399.843,96.394V252.379h18.892V96.394a9.446,9.446,0,0,0-18.892,0" transform="translate(-143.1 -31.118)" fill="#75af3e"/>
      <path id="Trazado_706300" data-name="Trazado 706300" d="M359.542,141.459V295.81a11.079,11.079,0,0,0,11.079,11.08h29.6A11.079,11.079,0,0,0,411.3,295.81V141.459Z" transform="translate(-128.676 -50.627)" fill="#8db2b2"/>
      <rect id="Rectángulo_345381" data-name="Rectángulo 345381" width="18.892" height="161.288" transform="translate(256.743 90.832)" fill="#6f8e8d"/>
      <rect id="Rectángulo_345382" data-name="Rectángulo 345382" width="11.588" height="159.057" transform="translate(237.368 90.832)" fill="#dae9ea"/>
      <rect id="Rectángulo_345383" data-name="Rectángulo 345383" width="51.755" height="9.193" transform="translate(230.866 90.832)" fill="#fff"/>
      <rect id="Rectángulo_345384" data-name="Rectángulo 345384" width="18.892" height="9.193" transform="translate(256.743 90.832)" fill="#dae9ea"/>
      <path id="Trazado_706301" data-name="Trazado 706301" d="M359.672,383.879a11.076,11.076,0,0,0,11,9.77h29.6a11.076,11.076,0,0,0,10.995-9.77Z" transform="translate(-128.723 -137.386)" fill="#6f8e8d"/>
      <rect id="Rectángulo_345385" data-name="Rectángulo 345385" width="24.991" height="24.991" transform="translate(239.071 130.342) rotate(-45)" fill="#fff"/>
      <rect id="Rectángulo_345386" data-name="Rectángulo 345386" width="20.546" height="20.546" transform="translate(242.214 130.341) rotate(-44.999)" fill="#3c3c5b"/>
      <path id="Trazado_706302" data-name="Trazado 706302" d="M407.012,199.065s2.231-.656.4-4.07c-1.315,1.523-.055,3.466-.4,4.07" transform="translate(-145.587 -69.787)" fill="#fff"/>
      <path id="Trazado_706303" data-name="Trazado 706303" d="M402.276,196.919c-.945,3.046-4.568,2.1-3.1-2.1s-2.45-6.774-2.45-6.774c.56,4.551-6.833,4.551-6.833,11.835a6.332,6.332,0,0,0,3.986,5.88c-3.072-2.672.9-4.364,1.15-6.951a2.736,2.736,0,0,1,.63,2.6c-.473,1.483,1.051,1.956,1.431.879a1.039,1.039,0,0,1,1.286-.787,1.157,1.157,0,0,0-.446,1.26,3.749,3.749,0,0,1-.35,3.306,6.342,6.342,0,0,0,4.337-3.415l0,0c1.447-2.48.356-5.73.356-5.73" transform="translate(-139.539 -67.299)" fill="#fff"/>
      <rect id="Rectángulo_345387" data-name="Rectángulo 345387" width="10.965" height="2.864" transform="translate(251.26 30.732)" fill="#8db2b2"/>
      <rect id="Rectángulo_345388" data-name="Rectángulo 345388" width="6.968" height="24.196" transform="translate(253.259 6.536)" fill="#8db2b2"/>
      <rect id="Rectángulo_345389" data-name="Rectángulo 345389" width="10.965" height="2.864" transform="translate(251.26 3.672)" fill="#8db2b2"/>
      <path id="Trazado_706304" data-name="Trazado 706304" d="M386.752,1.171V2.728A1.17,1.17,0,0,0,387.923,3.9h14.471a1.17,1.17,0,0,0,1.171-1.171V1.171A1.17,1.17,0,0,0,402.393,0H387.923a1.17,1.17,0,0,0-1.171,1.171" transform="translate(-138.415)" fill="#3c3c5b"/>
      <path id="Trazado_706305" data-name="Trazado 706305" d="M394.417,10.961l6.968.966V10.179h-6.968Z" transform="translate(-141.158 -3.643)" fill="#8db2b2"/>
      <path id="Trazado_706306" data-name="Trazado 706306" d="M394.417,32.669l6.968.966V31.887h-6.968Z" transform="translate(-141.158 -11.412)" fill="#6f8e8d"/>
      <rect id="Rectángulo_345390" data-name="Rectángulo 345390" width="20.461" height="3.682" transform="translate(246.513 16.793)" fill="#8db2b2"/>
      <rect id="Rectángulo_345391" data-name="Rectángulo 345391" width="20.461" height="1.027" transform="translate(246.513 17.607)" fill="#dae9ea"/>
      <rect id="Rectángulo_345392" data-name="Rectángulo 345392" width="4.748" height="3.682" transform="translate(262.226 16.793)" fill="#6f8e8d"/>
      <rect id="Rectángulo_345393" data-name="Rectángulo 345393" width="5.315" height="7.459" transform="translate(263.947 14.905)" fill="#8db2b2"/>
      <rect id="Rectángulo_345394" data-name="Rectángulo 345394" width="5.315" height="2.054" transform="translate(263.947 16.175)" fill="#dae9ea"/>
      <rect id="Rectángulo_345395" data-name="Rectángulo 345395" width="4.748" height="3.682" transform="translate(246.513 16.793)" fill="#6f8e8d"/>
      <rect id="Rectángulo_345396" data-name="Rectángulo 345396" width="5.505" height="7.459" transform="translate(244.035 14.905)" fill="#8db2b2"/>
      <rect id="Rectángulo_345397" data-name="Rectángulo 345397" width="4.757" height="2.054" transform="translate(244.783 16.175)" fill="#dae9ea"/>
      <path id="Trazado_706307" data-name="Trazado 706307" d="M376.181,25.831a5.721,5.721,0,1,1-5.721-5.721,5.721,5.721,0,0,1,5.721,5.721" transform="translate(-130.536 -7.197)" fill="#3c3c5b"/>
      <path id="Trazado_706308" data-name="Trazado 706308" d="M375.867,26.227a5.011,5.011,0,1,1-5.01-5.01,5.01,5.01,0,0,1,5.01,5.01" transform="translate(-130.933 -7.593)" fill="#606087"/>
      <path id="Trazado_706309" data-name="Trazado 706309" d="M375.552,26.623a4.3,4.3,0,1,1-4.3-4.3,4.3,4.3,0,0,1,4.3,4.3" transform="translate(-131.328 -7.989)" fill="#fff"/>
      <path id="Trazado_706310" data-name="Trazado 706310" d="M373.649,26.94l.01-3.733a3.732,3.732,0,0,1,3.723,3.733Z" transform="translate(-133.725 -8.306)" fill="#ef3f1d"/>
      <path id="Trazado_706311" data-name="Trazado 706311" d="M373.947,28.645a.673.673,0,1,1-.673-.673.673.673,0,0,1,.673.673" transform="translate(-133.35 -10.011)" fill="#7b7bad"/>
      <path id="Trazado_706312" data-name="Trazado 706312" d="M372.141,28.141a.393.393,0,1,1-.241.747c-.206-.067-2.877-1.343-2.877-1.343s2.912.528,3.118.6" transform="translate(-132.07 -9.858)" fill="#3c3c5b"/>
      <path id="Trazado_706313" data-name="Trazado 706313" d="M428.568,25.831a5.721,5.721,0,1,1-5.721-5.721,5.721,5.721,0,0,1,5.721,5.721" transform="translate(-149.285 -7.197)" fill="#3c3c5b"/>
      <path id="Trazado_706314" data-name="Trazado 706314" d="M428.254,26.227a5.011,5.011,0,1,1-5.01-5.01,5.01,5.01,0,0,1,5.01,5.01" transform="translate(-149.681 -7.593)" fill="#606087"/>
      <path id="Trazado_706315" data-name="Trazado 706315" d="M427.939,26.623a4.3,4.3,0,1,1-4.3-4.3,4.3,4.3,0,0,1,4.3,4.3" transform="translate(-150.077 -7.989)" fill="#fff"/>
      <path id="Trazado_706316" data-name="Trazado 706316" d="M426.036,26.94l.01-3.733a3.732,3.732,0,0,1,3.723,3.733Z" transform="translate(-152.474 -8.306)" fill="#ef3f1d"/>
      <path id="Trazado_706317" data-name="Trazado 706317" d="M426.334,28.645a.673.673,0,1,1-.674-.673.673.673,0,0,1,.674.673" transform="translate(-152.099 -10.011)" fill="#7b7bad"/>
      <path id="Trazado_706318" data-name="Trazado 706318" d="M424.528,28.141a.393.393,0,0,1-.241.747c-.207-.067-2.877-1.343-2.877-1.343s2.913.528,3.119.6" transform="translate(-150.818 -9.858)" fill="#3c3c5b"/>
      <rect id="Rectángulo_345398" data-name="Rectángulo 345398" width="7.201" height="10.398" transform="translate(344.776 125.956)" fill="#ffc943"/>
      <rect id="Rectángulo_345399" data-name="Rectángulo 345399" width="3.988" height="1.844" transform="translate(351.977 130.233)" fill="#ff833e"/>
      <rect id="Rectángulo_345400" data-name="Rectángulo 345400" width="1.989" height="3.957" transform="translate(355.562 129.177)" fill="#3c3c5b"/>
      <rect id="Rectángulo_345401" data-name="Rectángulo 345401" width="3.988" height="1.844" transform="translate(340.794 130.233)" fill="#ff833e"/>
      <rect id="Rectángulo_345402" data-name="Rectángulo 345402" width="1.989" height="3.957" transform="translate(339.21 129.177)" fill="#3c3c5b"/>
      <rect id="Rectángulo_345403" data-name="Rectángulo 345403" width="7.201" height="3.273" transform="translate(344.776 133.082)" fill="#ff833e"/>
      <rect id="Rectángulo_345404" data-name="Rectángulo 345404" width="7.201" height="3.273" transform="translate(344.776 125.956)" fill="#ff833e"/>
      <rect id="Rectángulo_345405" data-name="Rectángulo 345405" width="12.762" height="4.681" transform="translate(341.996 122.911)" fill="#3c3c5b"/>
      <rect id="Rectángulo_345406" data-name="Rectángulo 345406" width="0.278" height="4.681" transform="translate(343.048 122.911)" fill="#8db2b2"/>
      <rect id="Rectángulo_345407" data-name="Rectángulo 345407" width="0.278" height="4.681" transform="translate(345.124 122.911)" fill="#8db2b2"/>
      <rect id="Rectángulo_345408" data-name="Rectángulo 345408" width="0.278" height="4.681" transform="translate(347.2 122.911)" fill="#8db2b2"/>
      <rect id="Rectángulo_345409" data-name="Rectángulo 345409" width="0.278" height="4.681" transform="translate(349.276 122.911)" fill="#8db2b2"/>
      <rect id="Rectángulo_345410" data-name="Rectángulo 345410" width="0.278" height="4.681" transform="translate(351.352 122.911)" fill="#8db2b2"/>
      <rect id="Rectángulo_345411" data-name="Rectángulo 345411" width="0.278" height="4.681" transform="translate(353.428 122.911)" fill="#8db2b2"/>
      <path id="Trazado_706319" data-name="Trazado 706319" d="M537.845,210.367h-2.4a9.4,9.4,0,0,0-9.4,9.4v2.658h21.2v-2.658a9.4,9.4,0,0,0-9.4-9.4" transform="translate(-188.265 -75.288)" fill="#ffc943"/>
      <path id="Trazado_706320" data-name="Trazado 706320" d="M535.893,213.031c.489.847-.2,2.159-1.533,2.93s-2.815.71-3.3-.137.2-2.159,1.533-2.93,2.814-.71,3.3.137" transform="translate(-190.003 -75.999)" fill="#ffd580"/>
      <path id="Trazado_706321" data-name="Trazado 706321" d="M538.188,279.492H504.109a21.36,21.36,0,0,0-21.36,21.36v34.079a21.36,21.36,0,0,0,21.36,21.36h34.079a21.36,21.36,0,0,0,21.36-21.36V300.852a21.36,21.36,0,0,0-21.36-21.36" transform="translate(-172.771 -100.027)" fill="#ef3f1d"/>
      <path id="Trazado_706322" data-name="Trazado 706322" d="M544.809,228.215H509.562a8.259,8.259,0,0,0-8.089,6.593l-1.853,9h55.131l-1.853-9a8.259,8.259,0,0,0-8.089-6.593" transform="translate(-178.809 -81.676)" fill="#ce2b15"/>
      <path id="Trazado_706323" data-name="Trazado 706323" d="M483.05,370.256a21.231,21.231,0,0,0,3.791,9.574l65.941,3.275a21.3,21.3,0,0,0,6.679-12.85Z" transform="translate(-172.879 -132.511)" fill="#9b3426"/>
      <path id="Trazado_706324" data-name="Trazado 706324" d="M547.785,238.5H488.019a14.339,14.339,0,0,0-14.339,14.339v72.012a6.255,6.255,0,0,0,6.255,6.255h75.934a6.255,6.255,0,0,0,6.255-6.255V252.839A14.339,14.339,0,0,0,547.785,238.5" transform="translate(-169.525 -85.357)" fill="#ef3f1d"/>
      <path id="Trazado_706325" data-name="Trazado 706325" d="M572.12,246.049h-9.68a9.432,9.432,0,0,0-9.432,9.432v78.327h28.544V255.481a9.432,9.432,0,0,0-9.432-9.432" transform="translate(-197.916 -88.058)" fill="#ce2b15"/>
      <path id="Trazado_706326" data-name="Trazado 706326" d="M512.887,333.807V255.481a9.432,9.432,0,0,0-9.432-9.432h-9.68a9.432,9.432,0,0,0-9.432,9.432v78.327Z" transform="translate(-173.341 -88.058)" fill="#ff7664"/>
      <rect id="Rectángulo_345412" data-name="Rectángulo 345412" width="24.991" height="24.991" transform="translate(330.705 201.87) rotate(-45)" fill="#fff"/>
      <rect id="Rectángulo_345413" data-name="Rectángulo 345413" width="20.547" height="20.547" transform="matrix(0.707, -0.707, 0.707, 0.707, 333.848, 201.869)" fill="#ffc943"/>
      <path id="Trazado_706327" data-name="Trazado 706327" d="M549.719,310.461s2.231-.656.4-4.07c-1.315,1.523-.055,3.466-.4,4.07" transform="translate(-196.661 -109.654)" fill="#fff"/>
      <path id="Trazado_706328" data-name="Trazado 706328" d="M544.984,308.315c-.946,3.046-4.568,2.1-3.1-2.1s-2.451-6.774-2.451-6.774c.56,4.551-6.833,4.551-6.833,11.835a6.331,6.331,0,0,0,3.985,5.88c-3.072-2.672.9-4.364,1.15-6.952a2.737,2.737,0,0,1,.631,2.6c-.473,1.483,1.05,1.956,1.431.879a1.038,1.038,0,0,1,1.286-.787,1.157,1.157,0,0,0-.447,1.26,3.751,3.751,0,0,1-.349,3.306,6.342,6.342,0,0,0,4.337-3.415l0,0c1.446-2.48.356-5.73.356-5.73" transform="translate(-190.613 -107.167)" fill="#fff"/>
      <path id="Trazado_706329" data-name="Trazado 706329" d="M473.681,363.484l88.443,1.188v-3.309H473.681Z" transform="translate(-169.526 -129.328)" fill="#9b3426"/>
      <path id="Trazado_706330" data-name="Trazado 706330" d="M562.034,362.023h-88.86a1.491,1.491,0,1,1,0-2.983h88.86a1.491,1.491,0,1,1,0,2.983" transform="translate(-168.811 -128.497)" fill="#ef3f1d"/>
      <path id="Trazado_706331" data-name="Trazado 706331" d="M500.354,362.023h-8.368a1.491,1.491,0,1,1,0-2.983h8.368a1.491,1.491,0,1,1,0,2.983" transform="translate(-175.543 -128.497)" fill="#ff7664"/>
      <path id="Trazado_706332" data-name="Trazado 706332" d="M473.681,270.983l88.443,1.188v-3.309H473.681Z" transform="translate(-169.526 -96.223)" fill="#9b3426"/>
      <path id="Trazado_706333" data-name="Trazado 706333" d="M562.034,269.523h-88.86a1.491,1.491,0,1,1,0-2.983h88.86a1.491,1.491,0,1,1,0,2.983" transform="translate(-168.811 -95.392)" fill="#ef3f1d"/>
      <path id="Trazado_706334" data-name="Trazado 706334" d="M500.354,269.523h-8.368a1.491,1.491,0,1,1,0-2.983h8.368a1.491,1.491,0,1,1,0,2.983" transform="translate(-175.543 -95.392)" fill="#ff7664"/>
    </g>
  </g>
</svg>
