<svg id="Grupo_999805" data-name="Grupo 999805" xmlns="http://www.w3.org/2000/svg" xmlns:xlink="http://www.w3.org/1999/xlink" width="773.69" height="715.004" viewBox="0 0 773.69 715.004">
  <defs>
    <clipPath id="clip-path">
      <rect id="Rectángulo_346041" data-name="Rectángulo 346041" width="773.69" height="715.004" fill="none"/>
    </clipPath>
    <clipPath id="clip-path-3">
      <rect id="Rectángulo_346038" data-name="Rectángulo 346038" width="28.25" height="142.335" transform="translate(744.917 151.994)" fill="none"/>
    </clipPath>
  </defs>
  <g id="Grupo_999804" data-name="Grupo 999804" clip-path="url(#clip-path)">
    <g id="Grupo_999803" data-name="Grupo 999803">
      <g id="Grupo_999802" data-name="Grupo 999802" clip-path="url(#clip-path)">
        <path id="Trazado_706956" data-name="Trazado 706956" d="M714.87,217.675l-79-33.328,7.787,18.328H528.87c-88.792,0-147.677,19.187-180.019,58.659-29.817,36.391-32.314,83.95-32.314,125.673V628.341h30V387.007c0-38.21,1.97-77.919,25.519-106.659,26.285-32.079,77.581-47.673,156.814-47.673H643.653L635.866,251Z" fill="#9808ff"/>
        <path id="Trazado_706957" data-name="Trazado 706957" d="M434.683,139.07,398.094,49.527l-36.58,89.543,21.58-12.534v518.3h30v-518.3Z" fill="#70d7fc"/>
        <path id="Trazado_706958" data-name="Trazado 706958" d="M656.959,319.674l-89.543-36.58,12.535,21.58H543.793c-28.115,0-50.475,8.222-66.461,24.437-30.995,31.437-30.233,85.15-29.677,124.37.071,5.016.137,9.754.137,14.193,0,53.335-.66,159.507-.666,160.573l30,.188c.008-1.067.668-107.332.668-160.761,0-4.651-.068-9.493-.141-14.619-.507-35.813-1.14-80.383,21.041-102.883,10.284-10.429,25.036-15.5,45.1-15.5h36.16l-12.537,21.589Z" fill="#9808ff"/>
        <path id="Trazado_706959" data-name="Trazado 706959" d="M517.3,343c-15.656-22.229-38.3-39.447-67.3-51.18-32.5-13.144-74.15-19.81-123.789-19.81H273.21l12.537-21.589L196.2,287.008l89.543,36.58-12.534-21.58H326.2c45.766,0,83.63,5.929,112.54,17.623,23.9,9.666,41.573,22.961,54.026,40.641,22.8,32.371,22.781,73.378,22.769,103.321l0,164.248h30l0-164.237c.012-32.041.031-80.461-28.242-120.606" fill="#08ffed"/>
        <path id="Trazado_706960" data-name="Trazado 706960" d="M221.154,459.218,233.875,437.4,144.267,473.83l89.477,36.742L221.4,489.236c30.818,1.96,33.864,11.306,33.864,33.261V628.341h30V522.5c0-47.454-25.137-60.974-64.113-63.279" fill="#08ffed"/>
        <path id="Trazado_706961" data-name="Trazado 706961" d="M563.974,529.335l-3.343,95.718L469.636,664.94V714.8l-35.207.1-35.452.1-.25-61.628A45.354,45.354,0,0,1,427.2,611.092c82.862-7.428,58.274-2.72,106.008-19.7l8.665-63.935c1.879-13.84,22.585-12.137,22.1,1.875" fill="#fbb040"/>
        <path id="Trazado_706962" data-name="Trazado 706962" d="M510.158,600.559l-76.6,33.267-9.256-21.31,76.6-33.268a8.537,8.537,0,0,1,11.232,4.43l2.455,5.649a8.539,8.539,0,0,1-4.43,11.232" fill="#ffc25f"/>
        <path id="Trazado_706963" data-name="Trazado 706963" d="M434.429,610.442V714.9l-35.452.1-.25-61.629A45.354,45.354,0,0,1,427.2,611.092Z" fill="#ffc25f"/>
        <path id="Trazado_706964" data-name="Trazado 706964" d="M234.191,529.335l3.342,95.718,91,39.887V714.8l35.2.1,35.456.1.245-61.628a45.341,45.341,0,0,0-28.469-42.284c-81.457-7.3-57.284-2.368-106.009-19.7l-8.669-63.935c-1.878-13.84-22.581-12.137-22.094,1.875" fill="#fbb040"/>
        <path id="Trazado_706965" data-name="Trazado 706965" d="M288,600.559l76.6,33.267,9.256-21.31-76.6-33.268a8.536,8.536,0,0,0-11.231,4.43l-2.454,5.649A8.538,8.538,0,0,0,288,600.559" fill="#ffc25f"/>
        <path id="Trazado_706966" data-name="Trazado 706966" d="M363.731,610.442V714.9l35.455.1.245-61.629a45.339,45.339,0,0,0-28.469-42.284Z" fill="#ffc25f"/>
        <rect id="Rectángulo_346036" data-name="Rectángulo 346036" width="19.474" height="2.429" transform="matrix(0.569, -0.822, 0.822, 0.569, 744.419, 265.056)" fill="#54c121"/>
        <path id="Trazado_706967" data-name="Trazado 706967" d="M771.753,227.793c-2.34-1.616-10.233.451-14.567,6.726s-3.672,14.252-1.135,16Z" fill="#92d313"/>
        <path id="Trazado_706968" data-name="Trazado 706968" d="M771.753,227.793l-15.7,22.73c2.441,1.687,10.232-.452,14.567-6.725s3.475-14.389,1.135-16.005" fill="#49a319"/>
        <path id="Trazado_706969" data-name="Trazado 706969" d="M773.167,174.978V194.07c0,13.731-11.64,25.439-25.523,26.982v73.277H742.3V221.107c-14.074-1.362-26.17-13.086-26.17-27.037V174.978h11.582v-18.69c0-5.772,8.609-5.676,8.609,0v18.69h16.653v-18.69c0-5.772,8.608-5.676,8.608,0v18.69Z" fill="#54c121"/>
        <rect id="Rectángulo_346037" data-name="Rectángulo 346037" width="2.43" height="19.323" transform="matrix(0.823, -0.569, 0.569, 0.823, 732.792, 250.613)" fill="#54c121"/>
        <path id="Trazado_706970" data-name="Trazado 706970" d="M718.489,227.793c2.339-1.616,10.232.451,14.566,6.726s3.672,14.252,1.135,16Z" fill="#92d313"/>
        <path id="Trazado_706971" data-name="Trazado 706971" d="M718.489,227.793l15.7,22.73c-2.441,1.687-10.23-.452-14.565-6.725s-3.476-14.389-1.136-16.005" fill="#49a319"/>
        <path id="Trazado_706972" data-name="Trazado 706972" d="M736.323,156.287v18.622h-8.609V156.287c0-5.771,8.609-5.676,8.609,0" fill="#91a6a8"/>
        <path id="Trazado_706973" data-name="Trazado 706973" d="M761.583,156.287v18.622h-8.608V156.287c0-5.771,8.608-5.676,8.608,0" fill="#91a6a8"/>
        <g id="Grupo_999801" data-name="Grupo 999801" opacity="0.3">
          <g id="Grupo_999800" data-name="Grupo 999800">
            <g id="Grupo_999799" data-name="Grupo 999799" clip-path="url(#clip-path-3)">
              <path id="Trazado_706974" data-name="Trazado 706974" d="M773.167,174.978V194.07c0,13.731-11.64,25.439-25.523,26.982v73.277h-2.727V174.978h8.058v-18.69c0-5.772,8.608-5.676,8.608,0v18.69Z" fill="#fff297"/>
            </g>
          </g>
        </g>
        <path id="Trazado_706975" data-name="Trazado 706975" d="M749.924,226.135H739.853a2.014,2.014,0,0,1-2.01-2.008v-1.292a2.015,2.015,0,0,1,2.01-2.008h10.071a2.015,2.015,0,0,1,2.01,2.008v1.292a2.014,2.014,0,0,1-2.01,2.008" fill="#91a6a8"/>
        <rect id="Rectángulo_346039" data-name="Rectángulo 346039" width="56.996" height="2.066" transform="translate(716.15 179.504)" fill="#49a319"/>
        <path id="Trazado_706976" data-name="Trazado 706976" d="M204.907,141.951l-2.712,8.607h131.7v-8.607Z" fill="#58a302"/>
        <path id="Trazado_706977" data-name="Trazado 706977" d="M272.284,139.255h-4.238v-85.9h2.7Z" fill="#0a8d9e"/>
        <path id="Trazado_706978" data-name="Trazado 706978" d="M268.046,53.359v85.9h-4.239l1.541-85.9Z" fill="#3dc0cd"/>
        <path id="Trazado_706979" data-name="Trazado 706979" d="M282.4,135.724H253.69l-4.786,7.062h38.28Z" fill="#313c3b"/>
        <path id="Trazado_706980" data-name="Trazado 706980" d="M253.818,142.786l4.143-7.062h7.965l-2.12,7.062Z" fill="#475150"/>
        <path id="Trazado_706981" data-name="Trazado 706981" d="M243.593,32.222c-.314-1.611,2.574-13.57-12.361-11.788a11.158,11.158,0,0,0-19.615-.119,8.813,8.813,0,0,0-7.324,11.907Z" fill="#68dbe0"/>
        <path id="Trazado_706982" data-name="Trazado 706982" d="M318.354,34.67c-.271-1.39,2.222-11.708-10.665-10.171a9.628,9.628,0,0,0-16.924-.1,7.6,7.6,0,0,0-6.319,10.273Z" fill="#0a8d9e"/>
        <path id="Trazado_706983" data-name="Trazado 706983" d="M331.572,39.924c-.181-.925,1.477-7.786-7.094-6.764a6.4,6.4,0,0,0-11.255-.068,5.057,5.057,0,0,0-4.2,6.832Z" fill="#68dbe0"/>
        <path id="Trazado_706984" data-name="Trazado 706984" d="M314.247,86.16,277.059,64.69s-.916-3.689-3.79-5.429l1.116-1.931s7.991,2.952,13.035-.507l28.231,26.906Z" fill="#0a8d9e"/>
        <path id="Trazado_706985" data-name="Trazado 706985" d="M272.343,0V42.941s-2.737,2.638-2.807,6h-2.229s-1.44-8.4-6.957-11.036L269.536,0Z" fill="#0a8d9e"/>
        <path id="Trazado_706986" data-name="Trazado 706986" d="M269.536,0l-2.23,48.938s-1.439-8.4-6.957-11.036Z" fill="#68dbe0"/>
        <path id="Trazado_706987" data-name="Trazado 706987" d="M315.651,83.73l-41.267-26.4s7.992,2.952,13.036-.507Z" fill="#68dbe0"/>
        <path id="Trazado_706988" data-name="Trazado 706988" d="M218.678,79.371,255.866,57.9s3.653,1.052,6.6-.567l1.114,1.931s-6.552,5.445-6.079,11.543l-37.418,11Z" fill="#0a8d9e"/>
        <path id="Trazado_706989" data-name="Trazado 706989" d="M220.081,81.8l43.5-22.538s-6.553,5.445-6.079,11.543Z" fill="#68dbe0"/>
        <path id="Trazado_706990" data-name="Trazado 706990" d="M276.339,55.177a7.916,7.916,0,1,1-7.916-7.916,7.916,7.916,0,0,1,7.916,7.916" fill="#68dbe0"/>
        <path id="Trazado_706991" data-name="Trazado 706991" d="M272.741,55.177a4.318,4.318,0,1,1-4.318-4.318,4.318,4.318,0,0,1,4.318,4.318" fill="#475150"/>
        <path id="Trazado_706992" data-name="Trazado 706992" d="M214.49,151.676h-3.5V82.4h2.228Z" fill="#0a8d9e"/>
        <path id="Trazado_706993" data-name="Trazado 706993" d="M210.988,82.4v69.279h-3.5L208.758,82.4Z" fill="#3dc0cd"/>
        <path id="Trazado_706994" data-name="Trazado 706994" d="M220.419,140.721H202.232l-3.032,5.533h24.25Z" fill="#313c3b"/>
        <path id="Trazado_706995" data-name="Trazado 706995" d="M202.313,146.254l2.624-5.533h5.046l-1.343,5.533Z" fill="#475150"/>
        <path id="Trazado_706996" data-name="Trazado 706996" d="M327.929,151.676h-3.5V82.4h2.227Z" fill="#0a8d9e"/>
        <path id="Trazado_706997" data-name="Trazado 706997" d="M324.427,82.4v69.279h-3.5L322.2,82.4Z" fill="#3dc0cd"/>
        <path id="Trazado_706998" data-name="Trazado 706998" d="M333.856,140.721H315.669l-3.031,5.533h24.25Z" fill="#313c3b"/>
        <path id="Trazado_706999" data-name="Trazado 706999" d="M315.751,146.254l2.624-5.533h5.047l-1.344,5.533Z" fill="#475150"/>
        <path id="Trazado_707000" data-name="Trazado 707000" d="M341.551,155.592h-147c-6.347,0-6.093-9.338,0-9.338h147c6.144,0,6.278,9.338,0,9.338" fill="#7ab72a"/>
        <path id="Trazado_707001" data-name="Trazado 707001" d="M313.227,120.255l6.185-34.93a8.055,8.055,0,0,0,3.147-4.473l1.814.321s-.04,7.037,4.07,9.978l-12.934,29.508Z" fill="#0a8d9e"/>
        <path id="Trazado_707002" data-name="Trazado 707002" d="M368.313,63.425,334.969,75.531a8.067,8.067,0,0,0-5.447-.489l-.627-1.73s6.112-3.485,6.605-8.514l32.02-3.553Z" fill="#0a8d9e"/>
        <path id="Trazado_707003" data-name="Trazado 707003" d="M367.52,61.245,328.894,73.311s6.113-3.484,6.606-8.513Z" fill="#68dbe0"/>
        <path id="Trazado_707004" data-name="Trazado 707004" d="M315.51,120.659l8.864-39.486s-.04,7.037,4.07,9.978Z" fill="#68dbe0"/>
        <path id="Trazado_707005" data-name="Trazado 707005" d="M291.553,44.134,318.71,66.955a8.06,8.06,0,0,0,2.3,4.962l-1.185,1.41s-6.076-3.552-10.676-1.464L290.062,45.908Z" fill="#0a8d9e"/>
        <path id="Trazado_707006" data-name="Trazado 707006" d="M290.061,45.908l29.764,27.419s-6.077-3.553-10.677-1.465Z" fill="#68dbe0"/>
        <path id="Trazado_707007" data-name="Trazado 707007" d="M326.6,82.085a6.54,6.54,0,1,1,3.915-8.379,6.54,6.54,0,0,1-3.915,8.379" fill="#68dbe0"/>
        <path id="Trazado_707008" data-name="Trazado 707008" d="M325.582,79.291a3.568,3.568,0,1,1,2.136-4.571,3.566,3.566,0,0,1-2.136,4.571" fill="#475150"/>
        <path id="Trazado_707009" data-name="Trazado 707009" d="M254.989,100.338l-34.75-7.124a8.068,8.068,0,0,0-4.387-3.267l.369-1.8s7.035.227,10.085-3.8l29.149,13.723Z" fill="#0a8d9e"/>
        <path id="Trazado_707010" data-name="Trazado 707010" d="M199.663,43.741l11.2,33.656a8.066,8.066,0,0,0-.635,5.433l-1.747.582s-3.319-6.206-8.333-6.834l-2.688-32.1Z" fill="#0a8d9e"/>
        <path id="Trazado_707011" data-name="Trazado 707011" d="M197.464,44.475l11.021,38.938s-3.319-6.207-8.333-6.834Z" fill="#68dbe0"/>
        <path id="Trazado_707012" data-name="Trazado 707012" d="M255.455,98.067l-39.233-9.923s7.034.228,10.085-3.8Z" fill="#68dbe0"/>
        <path id="Trazado_707013" data-name="Trazado 707013" d="M178.313,119.953l23.542-26.531a8.066,8.066,0,0,0,5.024-2.166l1.376,1.222s-3.714,5.978-1.752,10.633l-26.456,18.382Z" fill="#0a8d9e"/>
        <path id="Trazado_707014" data-name="Trazado 707014" d="M180.048,121.493l28.208-29.015s-3.714,5.978-1.752,10.633Z" fill="#68dbe0"/>
        <path id="Trazado_707015" data-name="Trazado 707015" d="M217.193,85.945a6.54,6.54,0,1,1-8.271-4.14,6.54,6.54,0,0,1,8.271,4.14" fill="#68dbe0"/>
        <path id="Trazado_707016" data-name="Trazado 707016" d="M214.373,86.885a3.568,3.568,0,1,1-4.512-2.258,3.567,3.567,0,0,1,4.512,2.258" fill="#475150"/>
        <path id="Trazado_707017" data-name="Trazado 707017" d="M736.948,368.314a12.979,12.979,0,1,1-12.979-12.979,12.979,12.979,0,0,1,12.979,12.979" fill="#19afb7"/>
        <path id="Trazado_707018" data-name="Trazado 707018" d="M734.321,368.314a10.352,10.352,0,1,1-10.352-10.352,10.353,10.353,0,0,1,10.352,10.352" fill="#85e8e8"/>
        <path id="Trazado_707019" data-name="Trazado 707019" d="M708.139,338.812a7.832,7.832,0,1,1-7.832-7.832,7.831,7.831,0,0,1,7.832,7.832" fill="#85e8e8"/>
        <path id="Trazado_707020" data-name="Trazado 707020" d="M682.711,351.249v97.463c-21.376,0-38.7-13.819-38.7-40.731s38.7-56.732,38.7-56.732" fill="#19afb7"/>
        <path id="Trazado_707021" data-name="Trazado 707021" d="M721.419,407.981c0,26.911-17.333,40.73-38.708,40.73V351.249s38.708,29.821,38.708,56.732" fill="#85e8e8"/>
        <path id="Trazado_707022" data-name="Trazado 707022" d="M708.155,429.837a8.771,8.771,0,1,1-3.346-11.944,8.77,8.77,0,0,1,3.346,11.944" fill="#fff"/>
        <path id="Trazado_707023" data-name="Trazado 707023" d="M730.729,366.067a3.767,3.767,0,1,1-1.437-5.129,3.766,3.766,0,0,1,1.437,5.129" fill="#fff"/>
        <path id="Trazado_707024" data-name="Trazado 707024" d="M706.037,338.629a2.752,2.752,0,1,1-1.05-3.747,2.752,2.752,0,0,1,1.05,3.747" fill="#fff"/>
        <path id="Trazado_707025" data-name="Trazado 707025" d="M653.047,419.227c1.757,15.988,13.139,24.187,26.93,24.187V419.227Z" fill="#85e8e8"/>
        <path id="Trazado_707026" data-name="Trazado 707026" d="M122.633,266.818c-8.08-3.643-20.646-1.6-26.546-5.61l.018.017-.858,1.933c-8.176-3.647-10.851-8.563-12.42-12.9-3.932-10.87-12.447-13.475-17.289-6.028-1.691,2.6-2.934,6.41-3.379,11.525L59.423,254.2a70.924,70.924,0,0,1,.755-13.818c5.4-33.378,36.59-33.32,56.159-18.966h-4.1c21.432,16.888,9.786,36.628,10.4,45.4" fill="#b5d305"/>
        <path id="Trazado_707027" data-name="Trazado 707027" d="M65.538,244.226c-1.691,2.6-2.934,6.41-3.379,11.524L59.423,254.2a70.924,70.924,0,0,1,.755-13.818Z" fill="#b77500"/>
        <path id="Trazado_707028" data-name="Trazado 707028" d="M91.287,226.69c7.891,6.444,19.022,15.668,28.419,34.462-3.813-17.749-20.5-33.275-25.52-37.827-2.172-1.974-5.272,1.428-2.9,3.365" fill="#e8fc2b"/>
        <path id="Trazado_707029" data-name="Trazado 707029" d="M93.542,312.8c8.289-3.138,15.727-13.471,22.738-14.8h-.025l-.761-1.972c8.36-3.2,13.729-1.619,17.907.341,10.466,4.906,18.33.727,16.488-7.962-.641-3.033-2.457-6.608-5.76-10.538l3.029-.842a70.9,70.9,0,0,1,9.236,10.3c19.784,27.419-2.311,49.434-26.3,53.121l2.9-2.9c-27.1,3.213-32.819-18.981-39.452-24.751" fill="#83ad00"/>
        <path id="Trazado_707030" data-name="Trazado 707030" d="M149.889,288.4c-.641-3.032-2.457-6.607-5.76-10.537l3.03-.843a70.95,70.95,0,0,1,9.235,10.306Z" fill="#b77500"/>
        <path id="Trazado_707031" data-name="Trazado 707031" d="M144.083,319.009c-10.136,1.022-24.529,2.372-44.465-4.272,15.247,9.854,38.027,9.031,44.793,8.7,2.931-.141,2.719-4.739-.328-4.431" fill="#b5d305"/>
        <path id="Trazado_707032" data-name="Trazado 707032" d="M59.995,270.891c.113,8.861,7.279,19.385,6.134,26.43l.009-.024,2.113-.04c.151,8.952-3.174,13.455-6.445,16.71-8.19,8.157-6.953,16.977,1.843,18.217,3.069.436,7.049-.049,11.872-1.809l-.245,3.135a70.787,70.787,0,0,1-12.843,5.154c-32.531,9.213-45.661-19.079-40.921-42.88l1.731,3.715c6.249-26.561,29.063-24.348,36.752-28.608" fill="#8da500"/>
        <path id="Trazado_707033" data-name="Trazado 707033" d="M63.649,332.184c3.068.436,7.049-.049,11.872-1.809l-.245,3.135a70.815,70.815,0,0,1-12.843,5.154Z" fill="#b77500"/>
        <path id="Trazado_707034" data-name="Trazado 707034" d="M36.874,316.26c2.507-9.874,6.161-23.861,19.223-40.32C41.621,286.9,34.6,308.583,32.6,315.054c-.87,2.8,3.522,4.176,4.276,1.206" fill="#b5d305"/>
        <path id="Trazado_707035" data-name="Trazado 707035" d="M99.962,599.087c-11.844-27.125.632-57.895,14.746-62.231,20.067-6.168,27.405,20.282,4.634,16.708.15,6.474,7.565,14.972,19.246,13.157,24.793-3.855,26.09-50.441-8.736-58.253-41.734-9.362-88.75,25.094-102.24,90.619Z" fill="#1ba2d4"/>
        <path id="Trazado_707036" data-name="Trazado 707036" d="M135.051,598.252c-2.953-6.762.157-14.434,3.677-15.515,5-1.537,6.832,5.057,1.155,4.164a3.949,3.949,0,0,0,4.8,3.282c6.181-.961,6.505-12.577-2.177-14.523-10.4-2.333-22.126,6.255-25.49,22.592Z" fill="#70d7fc"/>
        <path id="Trazado_707037" data-name="Trazado 707037" d="M143.736,522.008c.469-6.59,6.125-11.381,9.365-10.775,4.6.859,3.315,6.849-.816,3.782a3.539,3.539,0,0,0,2.442,4.6c5.3,1.806,10.385-7.269,4.308-12.421-7.281-6.177-20.145-4.237-29.6,7.32Z" fill="#1ba2d4"/>
        <path id="Trazado_707038" data-name="Trazado 707038" d="M151.284,545.841c.47-6.589,6.125-11.381,9.364-10.775,4.607.862,3.316,6.849-.815,3.785a3.535,3.535,0,0,0,2.44,4.594c5.3,1.807,10.386-7.269,4.31-12.421-7.28-6.175-20.145-4.237-29.6,7.32Z" fill="#1ba2d4"/>
        <path id="Trazado_707039" data-name="Trazado 707039" d="M85.549,518.254c12.786,2.352,24.7-6.062,25.141-12.533.63-9.2-11.417-9.693-7.61-.312-2.784.586-7.16-1.736-7.554-6.913-.831-10.991,18.964-16.206,25.791-2.093,8.179,16.914-1.854,40.471-28.531,52.794Z" fill="#1ba2d4"/>
        <path id="Trazado_707040" data-name="Trazado 707040" d="M44.764,582.252a2.563,2.563,0,1,1-2.513-2.058,2.322,2.322,0,0,1,2.513,2.058" fill="#70d7fc"/>
        <path id="Trazado_707041" data-name="Trazado 707041" d="M77.065,551.362a3.948,3.948,0,1,1-3.948-3.947,3.946,3.946,0,0,1,3.948,3.947" fill="#70d7fc"/>
        <path id="Trazado_707042" data-name="Trazado 707042" d="M90.444,575.642a4.9,4.9,0,1,1-4.895-4.9,4.893,4.893,0,0,1,4.895,4.9" fill="#70d7fc"/>
        <path id="Trazado_707043" data-name="Trazado 707043" d="M165.572,580.536a3.774,3.774,0,1,1-3.774-3.773,3.773,3.773,0,0,1,3.774,3.773" fill="#70d7fc"/>
        <path id="Trazado_707044" data-name="Trazado 707044" d="M35.371,589.358c-.8-10.992,4.377-20.987,10.073-22.744,10.466-3.214,14.3,10.589,2.42,8.723.078,3.374,3.947,7.808,10.034,6.861,12.942-2.01,13.618-26.314-4.551-30.392C31.549,546.924,7.061,564.91,0,599.087H186.407c-77.126-11.2-123.781-11.845-151.036-9.729" fill="#70d7fc"/>
      </g>
    </g>
  </g>
</svg>
