<svg id="Grupo_999396" data-name="Grupo 999396" xmlns="http://www.w3.org/2000/svg" xmlns:xlink="http://www.w3.org/1999/xlink" width="105.998" height="109.578" viewBox="0 0 105.998 109.578">
  <defs>
    <clipPath id="clip-path">
      <rect id="Rectángulo_345282" data-name="Rectángulo 345282" width="105.999" height="109.578" fill="none"/>
    </clipPath>
  </defs>
  <g id="Grupo_999395" data-name="Grupo 999395" clip-path="url(#clip-path)">
    <path id="Trazado_704946" data-name="Trazado 704946" d="M53,5.019a53,53,0,1,1-53,53,53,53,0,0,1,53-53" transform="translate(0 -1.44)" fill="#2e0877"/>
    <path id="Trazado_704947" data-name="Trazado 704947" d="M102.058,51.694H135.23v49.355c0,5.109-7.426,7.8-16.586,7.8s-16.586-2.689-16.586-7.8Z" transform="translate(-29.281 -14.831)" fill="#f8a92f" fill-rule="evenodd"/>
    <path id="Trazado_704948" data-name="Trazado 704948" d="M118.643,38.722c9.16,0,16.586,4.142,16.586,9.25s-7.426,9.25-16.586,9.25-16.586-4.142-16.586-9.25,7.426-9.25,16.586-9.25" transform="translate(-29.281 -11.11)" fill="#ffc141"/>
    <path id="Trazado_704949" data-name="Trazado 704949" d="M120.277,42.894a19.361,19.361,0,0,0-9.752,2.392c-.9.548-2.772,1.933-2.772,3.258s1.87,2.71,2.772,3.259a21.051,21.051,0,0,0,19.493,0c.9-.548,2.771-1.933,2.771-3.26s-1.87-2.71-2.771-3.258a19.355,19.355,0,0,0-9.742-2.391" transform="translate(-30.915 -12.305)" fill="#f8a92f" fill-rule="evenodd"/>
    <path id="Trazado_704950" data-name="Trazado 704950" d="M121.449,51.962a1.014,1.014,0,1,1,.945-1.8,3.639,3.639,0,0,0,.7.3,3.055,3.055,0,0,0,.843.1,3.116,3.116,0,0,0,1.113-.183,3.132,3.132,0,0,0-1.113-.184,4.949,4.949,0,0,1-2.157-.459,1.853,1.853,0,0,1,0-3.518,4.3,4.3,0,0,1,1.132-.362,1.014,1.014,0,0,1,2,.006c.179.032.359.071.531.115a3.442,3.442,0,0,1,1.292.574,1.015,1.015,0,0,1-1.256,1.6c-.019-.015-.037-.031-.055-.046a1.988,1.988,0,0,0-.49-.167,4.381,4.381,0,0,0-.994-.15,3.074,3.074,0,0,0-1.114.187,3.12,3.12,0,0,0,1.114.183,4.96,4.96,0,0,1,2.157.459,1.852,1.852,0,0,1,0,3.517,4.341,4.341,0,0,1-1.14.367,1.014,1.014,0,0,1-1.972.015,4.331,4.331,0,0,1-.436-.1,5.5,5.5,0,0,1-1.1-.459ZM125.3,50.38c.019.024.028.036.028,0s-.011-.024-.029,0Zm-2.753-2.4c0,.036.009.024.028,0-.024-.024-.034-.038-.034,0Z" transform="translate(-34.575 -12.918)" fill="#d69128" fill-rule="evenodd"/>
    <path id="Trazado_704951" data-name="Trazado 704951" d="M118.643,105.342c9.16,0,16.586-2.689,16.586-7.8V90.7c0,5.109-7.426,7.8-16.586,7.8s-16.586-2.689-16.586-7.8v6.849c0,5.106,7.426,7.8,16.586,7.8m0-27.373c9.16,0,16.586-2.689,16.586-7.8V63.324c0,5.109-7.426,7.8-16.586,7.8s-16.586-2.689-16.586-7.8v6.844c0,5.112,7.426,7.8,16.586,7.8m0,13.686c-9.16,0-16.586-2.689-16.586-7.8V77.01c0,5.109,7.426,7.8,16.586,7.8s16.586-2.689,16.586-7.8v6.844c0,5.112-7.425,7.8-16.586,7.8" transform="translate(-29.281 -18.168)" fill="#d69128" fill-rule="evenodd"/>
    <path id="Trazado_704952" data-name="Trazado 704952" d="M51.391,73.554H84.563v33.884c0,3.508-7.426,6.782-16.586,6.782s-16.586-3.272-16.586-6.782Z" transform="translate(-14.744 -21.103)" fill="#f8a92f" fill-rule="evenodd"/>
    <path id="Trazado_704953" data-name="Trazado 704953" d="M67.977,60.582c9.16,0,16.586,4.142,16.586,9.25s-7.426,9.25-16.586,9.25-16.586-4.142-16.586-9.25,7.426-9.25,16.586-9.25" transform="translate(-14.744 -17.381)" fill="#ffc141"/>
    <path id="Trazado_704954" data-name="Trazado 704954" d="M69.611,64.753a19.361,19.361,0,0,0-9.752,2.392c-.9.548-2.772,1.933-2.772,3.258s1.87,2.71,2.772,3.259a21.051,21.051,0,0,0,19.493,0c.9-.548,2.771-1.933,2.771-3.26s-1.87-2.71-2.771-3.258a19.355,19.355,0,0,0-9.742-2.391" transform="translate(-16.379 -18.577)" fill="#f8a92f" fill-rule="evenodd"/>
    <path id="Trazado_704955" data-name="Trazado 704955" d="M70.783,73.822a1.014,1.014,0,1,1,.945-1.8,3.638,3.638,0,0,0,.7.3,3.056,3.056,0,0,0,.843.1,3.116,3.116,0,0,0,1.113-.183,3.132,3.132,0,0,0-1.113-.184,4.949,4.949,0,0,1-2.157-.459,1.853,1.853,0,0,1,0-3.518,4.3,4.3,0,0,1,1.132-.362,1.014,1.014,0,0,1,2,.006c.179.032.359.071.531.115a3.442,3.442,0,0,1,1.292.574,1.015,1.015,0,0,1-1.256,1.6c-.019-.015-.037-.031-.055-.046a1.988,1.988,0,0,0-.49-.167,4.381,4.381,0,0,0-.994-.15,3.074,3.074,0,0,0-1.114.187,3.12,3.12,0,0,0,1.114.183,4.959,4.959,0,0,1,2.157.459,1.852,1.852,0,0,1,0,3.517,4.341,4.341,0,0,1-1.14.367,1.014,1.014,0,0,1-1.972.015,4.329,4.329,0,0,1-.436-.1,5.5,5.5,0,0,1-1.1-.459Zm3.854-1.582c.019.024.028.036.028,0s-.011-.024-.029,0Zm-2.753-2.4c0,.036.009.024.028,0-.024-.024-.034-.038-.034,0Z" transform="translate(-20.039 -19.19)" fill="#d69128" fill-rule="evenodd"/>
    <path id="Trazado_704956" data-name="Trazado 704956" d="M67.977,99.829c9.16,0,16.586-2.689,16.586-7.8V85.184c0,5.109-7.426,7.8-16.586,7.8s-16.586-2.689-16.586-7.8v6.844c0,5.112,7.426,7.8,16.586,7.8m0,13.686c-9.16,0-16.586-2.689-16.586-7.8V98.87c0,5.109,7.426,7.8,16.586,7.8s16.586-2.689,16.586-7.8v6.844c0,5.112-7.425,7.8-16.586,7.8" transform="translate(-14.744 -24.44)" fill="#d69128" fill-rule="evenodd"/>
    <path id="Trazado_704957" data-name="Trazado 704957" d="M1.618,88.983H34.79v23.9c0,3.508-7.426,6.782-16.586,6.782s-16.586-3.272-16.586-6.782Z" transform="translate(-0.464 -25.53)" fill="#f8a92f" fill-rule="evenodd"/>
    <path id="Trazado_704958" data-name="Trazado 704958" d="M18.2,76.011c9.16,0,16.586,4.142,16.586,9.25s-7.426,9.25-16.586,9.25S1.618,90.37,1.618,85.261s7.426-9.25,16.586-9.25" transform="translate(-0.464 -21.808)" fill="#ffc141"/>
    <path id="Trazado_704959" data-name="Trazado 704959" d="M19.838,80.183a19.361,19.361,0,0,0-9.752,2.392c-.9.548-2.772,1.933-2.772,3.258s1.87,2.71,2.772,3.259a21.051,21.051,0,0,0,19.493,0c.9-.548,2.771-1.933,2.771-3.26s-1.87-2.71-2.771-3.258a19.355,19.355,0,0,0-9.742-2.391" transform="translate(-2.099 -23.004)" fill="#f8a92f" fill-rule="evenodd"/>
    <path id="Trazado_704960" data-name="Trazado 704960" d="M21.01,89.252a1.014,1.014,0,1,1,.945-1.8,3.639,3.639,0,0,0,.7.3,3.055,3.055,0,0,0,.843.1,3.116,3.116,0,0,0,1.113-.183,3.133,3.133,0,0,0-1.113-.184,4.949,4.949,0,0,1-2.157-.459,1.853,1.853,0,0,1,0-3.518,4.3,4.3,0,0,1,1.132-.362,1.014,1.014,0,0,1,2,.006c.179.032.359.071.531.115a3.442,3.442,0,0,1,1.292.574,1.015,1.015,0,0,1-1.256,1.6c-.019-.015-.037-.031-.055-.046a1.989,1.989,0,0,0-.49-.167,4.422,4.422,0,0,0-.994-.15,3.09,3.09,0,0,0-1.114.188,3.12,3.12,0,0,0,1.114.183,4.96,4.96,0,0,1,2.157.459,1.852,1.852,0,0,1,0,3.517,4.34,4.34,0,0,1-1.14.367,1.014,1.014,0,0,1-1.972.015,4.331,4.331,0,0,1-.436-.1,5.5,5.5,0,0,1-1.1-.459Zm3.854-1.582c.019.024.028.036.028,0s-.011-.024-.029,0Zm-2.753-2.4c0,.036.009.024.028,0-.024-.024-.034-.038-.034,0Z" transform="translate(-5.758 -23.617)" fill="#d69128" fill-rule="evenodd"/>
    <path id="Trazado_704961" data-name="Trazado 704961" d="M18.2,115.258c9.16,0,16.586-2.689,16.586-7.8v-6.844c0,5.109-7.426,7.8-16.586,7.8s-16.586-2.689-16.586-7.8v6.844c0,5.112,7.426,7.8,16.586,7.8" transform="translate(-0.464 -28.866)" fill="#d69128" fill-rule="evenodd"/>
    <path id="Trazado_704962" data-name="Trazado 704962" d="M1.585,47.26S40.133,58.391,81.265,23.8l7.591,7.223L91.05.07,72.2,4.492,76.55,16.048S57.166,45.889,1.585,47.26" transform="translate(-0.455 -0.02)" fill="#136163"/>
    <path id="Trazado_704963" data-name="Trazado 704963" d="M1.559,47.225S41.7,55.824,81.183,18.72l6.565,6.946L90.351,0,69.068,5.307,74.986,11.4S57,42.4,1.559,47.225" transform="translate(-0.447 0)" fill="#1f8c94"/>
  </g>
</svg>
