<svg xmlns="http://www.w3.org/2000/svg" xmlns:xlink="http://www.w3.org/1999/xlink" width="216.511" height="168" viewBox="0 0 216.511 168">
  <defs>
    <clipPath id="clip-path">
      <rect id="Rectángulo_345967" data-name="Rectángulo 345967" width="216.511" height="128.829" fill="none"/>
    </clipPath>
    <clipPath id="clip-path-3">
      <rect id="Rectángulo_345891" data-name="Rectángulo 345891" width="9.25" height="3.125" transform="translate(132.456 33.607)" fill="none"/>
    </clipPath>
    <clipPath id="clip-path-4">
      <rect id="Rectángulo_345893" data-name="Rectángulo 345893" width="9.25" height="3.124" transform="translate(132.456 44.722)" fill="none"/>
    </clipPath>
    <clipPath id="clip-path-5">
      <rect id="Rectángulo_345895" data-name="Rectángulo 345895" width="9.25" height="3.123" transform="translate(132.456 55.84)" fill="none"/>
    </clipPath>
    <clipPath id="clip-path-6">
      <rect id="Rectángulo_345897" data-name="Rectángulo 345897" width="9.25" height="3.126" transform="translate(132.456 67.88)" fill="none"/>
    </clipPath>
    <clipPath id="clip-path-7">
      <rect id="Rectángulo_345899" data-name="Rectángulo 345899" width="9.25" height="3.128" transform="translate(132.456 78.995)" fill="none"/>
    </clipPath>
    <clipPath id="clip-path-8">
      <rect id="Rectángulo_345901" data-name="Rectángulo 345901" width="9.25" height="3.126" transform="translate(132.456 90.112)" fill="none"/>
    </clipPath>
    <clipPath id="clip-path-9">
      <rect id="Rectángulo_345903" data-name="Rectángulo 345903" width="9.25" height="3.128" transform="translate(132.456 101.227)" fill="none"/>
    </clipPath>
    <clipPath id="clip-path-11">
      <rect id="Rectángulo_345906" data-name="Rectángulo 345906" width="29.118" height="15.801" transform="translate(40.395 73.471)" fill="none"/>
    </clipPath>
    <clipPath id="clip-path-13">
      <rect id="Rectángulo_345910" data-name="Rectángulo 345910" width="15.324" height="1.933" transform="translate(69.493 87.401)" fill="none"/>
    </clipPath>
    <clipPath id="clip-path-15">
      <rect id="Rectángulo_345928" data-name="Rectángulo 345928" width="12.321" height="38.872" transform="translate(69.95 84.664)" fill="none"/>
    </clipPath>
    <clipPath id="clip-path-17">
      <rect id="Rectángulo_345931" data-name="Rectángulo 345931" width="29.119" height="15.801" transform="translate(81.527 73.471)" fill="none"/>
    </clipPath>
    <clipPath id="clip-path-19">
      <rect id="Rectángulo_345935" data-name="Rectángulo 345935" width="15.324" height="1.933" transform="translate(110.625 87.401)" fill="none"/>
    </clipPath>
    <clipPath id="clip-path-21">
      <rect id="Rectángulo_345954" data-name="Rectángulo 345954" width="13.314" height="1.075" transform="translate(86.232 117.361)" fill="none"/>
    </clipPath>
    <clipPath id="clip-path-22">
      <rect id="Rectángulo_345956" data-name="Rectángulo 345956" width="13.269" height="0.791" transform="translate(83.056 120.268)" fill="none"/>
    </clipPath>
    <clipPath id="clip-path-24">
      <rect id="Rectángulo_345960" data-name="Rectángulo 345960" width="13.268" height="0.793" transform="translate(79.896 123.06)" fill="none"/>
    </clipPath>
  </defs>
  <g id="Grupo_999983" data-name="Grupo 999983" transform="translate(-1073.553 -15425)">
    <ellipse id="Elipse_7909" data-name="Elipse 7909" cx="84.5" cy="84" rx="84.5" ry="84" transform="translate(1097.309 15425)" fill="#25ffff" opacity="0.5"/>
    <g id="Grupo_999721" data-name="Grupo 999721" transform="translate(1073.553 15464.171)">
      <g id="Grupo_999720" data-name="Grupo 999720" clip-path="url(#clip-path)">
        <rect id="Rectángulo_345877" data-name="Rectángulo 345877" width="14.056" height="1.036" transform="translate(136.663 98.703)" fill="#5e5d5d"/>
        <rect id="Rectángulo_345878" data-name="Rectángulo 345878" width="1.012" height="24.251" transform="translate(150.107 75.488)" fill="#5e5d5d"/>
        <rect id="Rectángulo_345879" data-name="Rectángulo 345879" width="19.31" height="0.933" transform="translate(150.151 75.505)" fill="#5e5d5d"/>
        <path id="Trazado_706846" data-name="Trazado 706846" d="M102.062,122.9,89.649,66.632V34.326H32.814V66.632H32.9L19.145,122.9Z" fill="#123d46"/>
        <path id="Trazado_706847" data-name="Trazado 706847" d="M89.649,66.633V34.323H68.066v32.31L80.477,122.9h21.584Z" fill="#217482"/>
        <rect id="Rectángulo_345880" data-name="Rectángulo 345880" width="9.283" height="91.398" transform="translate(132.423 32.526)" fill="#bababa"/>
        <rect id="Rectángulo_345881" data-name="Rectángulo 345881" width="4.641" height="91.398" transform="translate(137.065 32.526)" fill="#e8e3e8"/>
        <rect id="Rectángulo_345882" data-name="Rectángulo 345882" width="12.335" height="1.853" transform="translate(130.964 31.754)" fill="#4c4b4c"/>
        <rect id="Rectángulo_345883" data-name="Rectángulo 345883" width="12.335" height="1.854" transform="translate(130.964 42.868)" fill="#4c4b4c"/>
        <rect id="Rectángulo_345884" data-name="Rectángulo 345884" width="12.335" height="1.855" transform="translate(130.964 53.985)" fill="#4c4b4c"/>
        <rect id="Rectángulo_345885" data-name="Rectángulo 345885" width="12.335" height="1.852" transform="translate(130.964 66.028)" fill="#4c4b4c"/>
        <rect id="Rectángulo_345886" data-name="Rectángulo 345886" width="12.335" height="1.853" transform="translate(130.964 77.143)" fill="#4c4b4c"/>
        <rect id="Rectángulo_345887" data-name="Rectángulo 345887" width="12.335" height="1.853" transform="translate(130.964 88.26)" fill="#4c4b4c"/>
        <rect id="Rectángulo_345888" data-name="Rectángulo 345888" width="12.335" height="1.852" transform="translate(130.964 99.376)" fill="#4c4b4c"/>
        <rect id="Rectángulo_345889" data-name="Rectángulo 345889" width="12.335" height="1.852" transform="translate(130.964 111.419)" fill="#4c4b4c"/>
        <g id="Grupo_999681" data-name="Grupo 999681">
          <g id="Grupo_999680" data-name="Grupo 999680" clip-path="url(#clip-path)">
            <g id="Grupo_999661" data-name="Grupo 999661" opacity="0.1">
              <g id="Grupo_999660" data-name="Grupo 999660">
                <g id="Grupo_999659" data-name="Grupo 999659" clip-path="url(#clip-path-3)">
                  <rect id="Rectángulo_345890" data-name="Rectángulo 345890" width="9.25" height="3.125" transform="translate(132.456 33.607)"/>
                </g>
              </g>
            </g>
            <g id="Grupo_999664" data-name="Grupo 999664" opacity="0.1">
              <g id="Grupo_999663" data-name="Grupo 999663">
                <g id="Grupo_999662" data-name="Grupo 999662" clip-path="url(#clip-path-4)">
                  <rect id="Rectángulo_345892" data-name="Rectángulo 345892" width="9.25" height="3.124" transform="translate(132.456 44.723)"/>
                </g>
              </g>
            </g>
            <g id="Grupo_999667" data-name="Grupo 999667" opacity="0.1">
              <g id="Grupo_999666" data-name="Grupo 999666">
                <g id="Grupo_999665" data-name="Grupo 999665" clip-path="url(#clip-path-5)">
                  <rect id="Rectángulo_345894" data-name="Rectángulo 345894" width="9.25" height="3.123" transform="translate(132.456 55.84)"/>
                </g>
              </g>
            </g>
            <g id="Grupo_999670" data-name="Grupo 999670" opacity="0.1">
              <g id="Grupo_999669" data-name="Grupo 999669">
                <g id="Grupo_999668" data-name="Grupo 999668" clip-path="url(#clip-path-6)">
                  <rect id="Rectángulo_345896" data-name="Rectángulo 345896" width="9.25" height="3.126" transform="translate(132.456 67.88)"/>
                </g>
              </g>
            </g>
            <g id="Grupo_999673" data-name="Grupo 999673" opacity="0.1">
              <g id="Grupo_999672" data-name="Grupo 999672">
                <g id="Grupo_999671" data-name="Grupo 999671" clip-path="url(#clip-path-7)">
                  <rect id="Rectángulo_345898" data-name="Rectángulo 345898" width="9.25" height="3.128" transform="translate(132.456 78.995)"/>
                </g>
              </g>
            </g>
            <g id="Grupo_999676" data-name="Grupo 999676" opacity="0.1">
              <g id="Grupo_999675" data-name="Grupo 999675">
                <g id="Grupo_999674" data-name="Grupo 999674" clip-path="url(#clip-path-8)">
                  <rect id="Rectángulo_345900" data-name="Rectángulo 345900" width="9.25" height="3.126" transform="translate(132.456 90.112)"/>
                </g>
              </g>
            </g>
            <g id="Grupo_999679" data-name="Grupo 999679" opacity="0.1">
              <g id="Grupo_999678" data-name="Grupo 999678">
                <g id="Grupo_999677" data-name="Grupo 999677" clip-path="url(#clip-path-9)">
                  <rect id="Rectángulo_345902" data-name="Rectángulo 345902" width="9.25" height="3.128" transform="translate(132.456 101.227)"/>
                </g>
              </g>
            </g>
          </g>
        </g>
        <path id="Trazado_706848" data-name="Trazado 706848" d="M69.832,122.661l-28.733.208-.7-49.4,29.165,13.5Z" fill="#c1c1bf"/>
        <rect id="Rectángulo_345905" data-name="Rectángulo 345905" width="15.227" height="35.675" transform="matrix(1, -0.007, 0.007, 1, 69.567, 86.993)" fill="#dbdbdb"/>
        <g id="Grupo_999686" data-name="Grupo 999686">
          <g id="Grupo_999685" data-name="Grupo 999685" clip-path="url(#clip-path)">
            <g id="Grupo_999684" data-name="Grupo 999684" opacity="0.1">
              <g id="Grupo_999683" data-name="Grupo 999683">
                <g id="Grupo_999682" data-name="Grupo 999682" clip-path="url(#clip-path-11)">
                  <path id="Trazado_706849" data-name="Trazado 706849" d="M40.395,76.026,69.512,89.271V86.886L40.395,73.47Z"/>
                </g>
              </g>
            </g>
          </g>
        </g>
        <path id="Trazado_706850" data-name="Trazado 706850" d="M39.2,73.238,69.566,87.4l-.073-3.173L39.08,70.121Z" fill="#424141"/>
        <rect id="Rectángulo_345908" data-name="Rectángulo 345908" width="19.505" height="3.178" transform="translate(69.493 84.223)" fill="#515151"/>
        <path id="Trazado_706851" data-name="Trazado 706851" d="M39.081,70.121l19.107-.254L89,84.224h-19.5Z" fill="#605f5f"/>
        <g id="Grupo_999691" data-name="Grupo 999691">
          <g id="Grupo_999690" data-name="Grupo 999690" clip-path="url(#clip-path)">
            <g id="Grupo_999689" data-name="Grupo 999689" opacity="0.1">
              <g id="Grupo_999688" data-name="Grupo 999688">
                <g id="Grupo_999687" data-name="Grupo 999687" clip-path="url(#clip-path-13)">
                  <rect id="Rectángulo_345909" data-name="Rectángulo 345909" width="15.324" height="1.933" transform="translate(69.493 87.401)"/>
                </g>
              </g>
            </g>
          </g>
        </g>
        <rect id="Rectángulo_345912" data-name="Rectángulo 345912" width="43.863" height="1.859" transform="translate(41.139 121.677)" fill="#06808b"/>
        <rect id="Rectángulo_345913" data-name="Rectángulo 345913" width="18.326" height="22.444" transform="translate(45.88 97.071)" fill="#abbfc4"/>
        <rect id="Rectángulo_345914" data-name="Rectángulo 345914" width="17.232" height="22.444" transform="translate(46.974 97.071)" fill="#021315"/>
        <rect id="Rectángulo_345915" data-name="Rectángulo 345915" width="17.232" height="0.607" transform="translate(46.974 96.716)" fill="#ddd"/>
        <rect id="Rectángulo_345916" data-name="Rectángulo 345916" width="17.232" height="0.227" transform="translate(46.974 97.096)" fill="#8d8d8e"/>
        <rect id="Rectángulo_345917" data-name="Rectángulo 345917" width="17.23" height="0.607" transform="translate(47.001 117.031)" fill="#ddd"/>
        <rect id="Rectángulo_345918" data-name="Rectángulo 345918" width="17.23" height="0.228" transform="translate(47.001 117.41)" fill="#8d8d8e"/>
        <rect id="Rectángulo_345919" data-name="Rectángulo 345919" width="17.23" height="0.607" transform="translate(47.001 118.249)" fill="#ddd"/>
        <rect id="Rectángulo_345920" data-name="Rectángulo 345920" width="17.23" height="0.229" transform="translate(47.001 118.627)" fill="#8d8d8e"/>
        <rect id="Rectángulo_345921" data-name="Rectángulo 345921" width="17.23" height="0.608" transform="translate(47.001 115.815)" fill="#ddd"/>
        <rect id="Rectángulo_345922" data-name="Rectángulo 345922" width="17.23" height="0.229" transform="translate(47.001 116.194)" fill="#8d8d8e"/>
        <rect id="Rectángulo_345923" data-name="Rectángulo 345923" width="6.002" height="2.402" transform="translate(58.345 116.033)" fill="#343434"/>
        <rect id="Rectángulo_345924" data-name="Rectángulo 345924" width="9.181" height="2.749" transform="translate(55.148 118.418)" fill="#343434"/>
        <rect id="Rectángulo_345925" data-name="Rectángulo 345925" width="12.358" height="2.807" transform="translate(52.011 121.034)" fill="#343434"/>
        <rect id="Rectángulo_345926" data-name="Rectángulo 345926" width="17.359" height="18.446" transform="translate(46.739 97.478)" fill="#021315"/>
        <rect id="Rectángulo_345927" data-name="Rectángulo 345927" width="4.814" height="2.027" transform="translate(60.432 95.498)" fill="#217482"/>
        <g id="Grupo_999696" data-name="Grupo 999696">
          <g id="Grupo_999695" data-name="Grupo 999695" clip-path="url(#clip-path)">
            <g id="Grupo_999694" data-name="Grupo 999694" opacity="0.1">
              <g id="Grupo_999693" data-name="Grupo 999693">
                <g id="Grupo_999692" data-name="Grupo 999692" clip-path="url(#clip-path-15)">
                  <path id="Trazado_706852" data-name="Trazado 706852" d="M81.6,84.664l-11.654,38.7,12.321.173Z"/>
                </g>
              </g>
            </g>
          </g>
        </g>
        <path id="Trazado_706853" data-name="Trazado 706853" d="M110.965,122.661l-28.733.208-.705-49.4,29.164,13.5Z" fill="#c1c1bf"/>
        <rect id="Rectángulo_345930" data-name="Rectángulo 345930" width="15.229" height="35.675" transform="translate(110.699 86.993) rotate(-0.414)" fill="#dbdbdb"/>
        <g id="Grupo_999701" data-name="Grupo 999701">
          <g id="Grupo_999700" data-name="Grupo 999700" clip-path="url(#clip-path)">
            <g id="Grupo_999699" data-name="Grupo 999699" opacity="0.1">
              <g id="Grupo_999698" data-name="Grupo 999698">
                <g id="Grupo_999697" data-name="Grupo 999697" clip-path="url(#clip-path-17)">
                  <path id="Trazado_706854" data-name="Trazado 706854" d="M81.527,76.026l29.119,13.245V86.886L81.527,73.47Z"/>
                </g>
              </g>
            </g>
          </g>
        </g>
        <path id="Trazado_706855" data-name="Trazado 706855" d="M80.332,73.238,110.7,87.4l-.073-3.173-30.412-14.1Z" fill="#424141"/>
        <rect id="Rectángulo_345933" data-name="Rectángulo 345933" width="19.504" height="3.178" transform="translate(110.625 84.223)" fill="#515151"/>
        <path id="Trazado_706856" data-name="Trazado 706856" d="M80.213,70.121l19.107-.254,30.809,14.357h-19.5Z" fill="#605f5f"/>
        <g id="Grupo_999706" data-name="Grupo 999706">
          <g id="Grupo_999705" data-name="Grupo 999705" clip-path="url(#clip-path)">
            <g id="Grupo_999704" data-name="Grupo 999704" opacity="0.1">
              <g id="Grupo_999703" data-name="Grupo 999703">
                <g id="Grupo_999702" data-name="Grupo 999702" clip-path="url(#clip-path-19)">
                  <rect id="Rectángulo_345934" data-name="Rectángulo 345934" width="15.324" height="1.933" transform="translate(110.625 87.401)"/>
                </g>
              </g>
            </g>
          </g>
        </g>
        <rect id="Rectángulo_345937" data-name="Rectángulo 345937" width="43.863" height="1.859" transform="translate(82.271 121.677)" fill="#06808b"/>
        <rect id="Rectángulo_345938" data-name="Rectángulo 345938" width="18.325" height="22.444" transform="translate(87.012 97.071)" fill="#abbfc4"/>
        <rect id="Rectángulo_345939" data-name="Rectángulo 345939" width="17.231" height="22.444" transform="translate(88.106 97.071)" fill="#021315"/>
        <rect id="Rectángulo_345940" data-name="Rectángulo 345940" width="17.23" height="0.607" transform="translate(88.106 96.716)" fill="#ddd"/>
        <rect id="Rectángulo_345941" data-name="Rectángulo 345941" width="17.23" height="0.227" transform="translate(88.106 97.096)" fill="#8d8d8e"/>
        <rect id="Rectángulo_345942" data-name="Rectángulo 345942" width="17.231" height="0.607" transform="translate(88.132 117.031)" fill="#ddd"/>
        <rect id="Rectángulo_345943" data-name="Rectángulo 345943" width="17.231" height="0.228" transform="translate(88.132 117.41)" fill="#8d8d8e"/>
        <rect id="Rectángulo_345944" data-name="Rectángulo 345944" width="17.231" height="0.607" transform="translate(88.132 118.249)" fill="#ddd"/>
        <rect id="Rectángulo_345945" data-name="Rectángulo 345945" width="17.231" height="0.229" transform="translate(88.132 118.627)" fill="#8d8d8e"/>
        <rect id="Rectángulo_345946" data-name="Rectángulo 345946" width="17.231" height="0.608" transform="translate(88.132 115.815)" fill="#ddd"/>
        <rect id="Rectángulo_345947" data-name="Rectángulo 345947" width="17.231" height="0.229" transform="translate(88.132 116.194)" fill="#8d8d8e"/>
        <rect id="Rectángulo_345948" data-name="Rectángulo 345948" width="6.003" height="2.402" transform="translate(99.476 116.033)" fill="#343434"/>
        <rect id="Rectángulo_345949" data-name="Rectángulo 345949" width="9.182" height="2.749" transform="translate(96.28 118.418)" fill="#343434"/>
        <rect id="Rectángulo_345950" data-name="Rectángulo 345950" width="13.304" height="2.403" transform="translate(86.232 116.033)" fill="#494949"/>
        <rect id="Rectángulo_345951" data-name="Rectángulo 345951" width="13.246" height="2.724" transform="translate(83.056 118.413)" fill="#494949"/>
        <rect id="Rectángulo_345952" data-name="Rectángulo 345952" width="13.304" height="2.8" transform="translate(79.88 121.047)" fill="#494949"/>
        <g id="Grupo_999714" data-name="Grupo 999714">
          <g id="Grupo_999713" data-name="Grupo 999713" clip-path="url(#clip-path)">
            <g id="Grupo_999709" data-name="Grupo 999709" opacity="0.1">
              <g id="Grupo_999708" data-name="Grupo 999708">
                <g id="Grupo_999707" data-name="Grupo 999707" clip-path="url(#clip-path-21)">
                  <rect id="Rectángulo_345953" data-name="Rectángulo 345953" width="13.314" height="1.075" transform="translate(86.232 117.361)"/>
                </g>
              </g>
            </g>
            <g id="Grupo_999712" data-name="Grupo 999712" opacity="0.1">
              <g id="Grupo_999711" data-name="Grupo 999711">
                <g id="Grupo_999710" data-name="Grupo 999710" clip-path="url(#clip-path-22)">
                  <rect id="Rectángulo_345955" data-name="Rectángulo 345955" width="13.269" height="0.791" transform="translate(83.056 120.268)"/>
                </g>
              </g>
            </g>
          </g>
        </g>
        <rect id="Rectángulo_345958" data-name="Rectángulo 345958" width="12.356" height="2.807" transform="translate(93.143 121.034)" fill="#343434"/>
        <g id="Grupo_999719" data-name="Grupo 999719">
          <g id="Grupo_999718" data-name="Grupo 999718" clip-path="url(#clip-path)">
            <g id="Grupo_999717" data-name="Grupo 999717" opacity="0.1">
              <g id="Grupo_999716" data-name="Grupo 999716">
                <g id="Grupo_999715" data-name="Grupo 999715" clip-path="url(#clip-path-24)">
                  <rect id="Rectángulo_345959" data-name="Rectángulo 345959" width="13.268" height="0.793" transform="translate(79.896 123.06)"/>
                </g>
              </g>
            </g>
          </g>
        </g>
        <rect id="Rectángulo_345962" data-name="Rectángulo 345962" width="17.501" height="18.446" transform="translate(87.871 97.478)" fill="#021315"/>
        <rect id="Rectángulo_345963" data-name="Rectángulo 345963" width="4.814" height="2.027" transform="translate(101.564 95.498)" fill="#217482"/>
        <rect id="Rectángulo_345964" data-name="Rectángulo 345964" width="17.919" height="2.027" transform="translate(83.81 95.498)" fill="#123d46"/>
        <path id="Trazado_706857" data-name="Trazado 706857" d="M183.459,0V1.65h10.808V5.074h-2.419l.082,1.649h3.659V0Z" fill="#5e5d5d"/>
        <path id="Trazado_706858" data-name="Trazado 706858" d="M192.84,49.36l1.338.992-.5-10.183-1.291-.011Z" fill="#5e5d5d"/>
        <path id="Trazado_706859" data-name="Trazado 706859" d="M191.12,14.461l1.072-.028.233.357-.4-8.066-.08-1.65h-8.165v1.65h6.956Z" fill="#5e5d5d"/>
        <path id="Trazado_706860" data-name="Trazado 706860" d="M194.676,60.443l-.4-8.112-1.339-.992.448,9.1Z" fill="#5e5d5d"/>
        <path id="Trazado_706861" data-name="Trazado 706861" d="M193.595,38.517l-1.032-20.945L191.6,16.1l-.4.01,1.1,22.4Z" fill="#5e5d5d"/>
        <path id="Trazado_706862" data-name="Trazado 706862" d="M194.757,62.1l-1.289-.007,2.731,55.4H183.781v1.651h13.79Z" fill="#5e5d5d"/>
        <path id="Trazado_706863" data-name="Trazado 706863" d="M193.676,40.169l15.4.134L192.424,14.79l-.233-.357-1.072.028-7.338.195v1.651l7.418-.2.4-.009.961,1.472,13.744,21.057-12.712-.111-1.29-.012-8.523-.074v1.65l8.6.076Z" fill="#5e5d5d"/>
        <path id="Trazado_706864" data-name="Trazado 706864" d="M194.757,62.1l15.349.064L194.178,50.353l-1.338-.992-.774-.574-8.285.107v1.651l7.946-.1,1.211.9,1.338.991,11,8.157-10.6-.044-1.29,0-9.605-.042v1.65l9.687.041Z" fill="#5e5d5d"/>
        <path id="Trazado_706865" data-name="Trazado 706865" d="M206.4,124.6H159.62v-6.724H206.4Zm-45.307-1.651h43.834v-3.423H161.091Z" fill="#5e5d5d"/>
        <path id="Trazado_706866" data-name="Trazado 706866" d="M169.287,1.65h19.22V5.074h-19.22ZM168,6.723h21.794V0H168Z" fill="#424141"/>
        <path id="Trazado_706867" data-name="Trazado 706867" d="M191.777,119.135H166.018L171.643,5.074h14.509Zm-24.387-1.651h23.017L184.944,6.723H172.852Z" fill="#424141"/>
        <path id="Trazado_706868" data-name="Trazado 706868" d="M200.6,124.6H159.687v-6.724H200.6Zm-39.63-1.651h38.342v-3.423H160.974Z" fill="#424141"/>
        <path id="Trazado_706869" data-name="Trazado 706869" d="M167.064,118.995l-.719-1.37,22.492-19.436-20.55-23,17.943-25.8L170.747,29.923,185.033,5.4l1.031.988-13.61,23.362,15.555,19.562-17.9,25.725,20.834,23.316Z" fill="#424141"/>
        <path id="Trazado_706870" data-name="Trazado 706870" d="M190.72,118.984l-23.3-21.159L187.67,75.061,169.416,50.389,185.528,29,171.74,6.408l1.014-1.019,14.479,23.725-.391.517L171.2,50.4,189.525,75.17,169.5,97.685l21.966,19.951Z" fill="#424141"/>
        <path id="Trazado_706871" data-name="Trazado 706871" d="M203.285,40.3l-47.309-.412L171.094,14.84l15.3-.407Zm-44.7-2.041,41.926.367L185.807,16.1l-14.071.375Z" fill="#424141"/>
        <path id="Trazado_706872" data-name="Trazado 706872" d="M204.313,62.16l-49.263-.21,16.178-12.97,15.045-.193Zm-44.8-1.841,39.972.168L185.934,50.441l-14.33.186Z" fill="#424141"/>
        <rect id="Rectángulo_345965" data-name="Rectángulo 345965" width="216.51" height="6.219" transform="translate(0 122.61)" fill="#5e5d5d"/>
        <rect id="Rectángulo_345966" data-name="Rectángulo 345966" width="41.039" height="6.725" transform="translate(159.256 117.322)" fill="#424141"/>
      </g>
    </g>
  </g>
</svg>
