<svg xmlns="http://www.w3.org/2000/svg" width="125.309" height="123" viewBox="0 0 125.309 123">
  <g id="Grupo_999984" data-name="Grupo 999984" transform="translate(-180 -15924)">
    <circle id="Elipse_5148" data-name="Elipse 5148" cx="52.5" cy="52.5" r="52.5" transform="translate(180 15933)" fill="#ad84ff"/>
    <g id="Grupo_999380" data-name="Grupo 999380" transform="translate(5625.659 22466.617)">
      <rect id="Rectángulo_5300" data-name="Rectángulo 5300" width="123" height="123" transform="translate(-5443.351 -6542.617)" fill="none"/>
      <g id="central-electrica" transform="translate(-5431.682 -6529.814)">
        <g id="Grupo_55393" data-name="Grupo 55393" transform="translate(1.434 89.947)">
          <rect id="Rectángulo_5302" data-name="Rectángulo 5302" width="48" height="7" transform="translate(-0.103 0.25)" fill="#b9aba5"/>
        </g>
        <g id="Grupo_55394" data-name="Grupo 55394" transform="translate(15.892 11.124)">
          <path id="Trazado_107105" data-name="Trazado 107105" d="M26.892,62.032l3.178,6.357H11l3.178-6.357V8H26.892Z" transform="translate(-11 -8)" fill="#f6e4ca"/>
        </g>
        <g id="Grupo_55395" data-name="Grupo 55395" transform="translate(12.713 1.589)">
          <path id="Trazado_107106" data-name="Trazado 107106" d="M34.427,2l-3.178,9.535H12.178L9,2Z" transform="translate(-9 -2)" fill="#dbc5a7"/>
        </g>
        <g id="Grupo_55396" data-name="Grupo 55396" transform="translate(81.048 23.838)">
          <path id="Trazado_107107" data-name="Trazado 107107" d="M52,16v6.357h6.357V16" transform="translate(-52 -16)" fill="#b9aba5"/>
        </g>
        <g id="Grupo_55397" data-name="Grupo 55397" transform="translate(71.513 11.124)">
          <path id="Trazado_107108" data-name="Trazado 107108" d="M52.357,20.713H65.07a6.357,6.357,0,0,0,6.357-6.357V8H46v6.357A6.357,6.357,0,0,0,52.357,20.713Z" transform="translate(-46 -8)" fill="#9d8980"/>
        </g>
        <g id="Grupo_55398" data-name="Grupo 55398" transform="translate(74.691 1.589)">
          <path id="Trazado_107109" data-name="Trazado 107109" d="M48,11.535V5.178A3.177,3.177,0,0,1,51.178,2h0a3.177,3.177,0,0,1,3.178,3.178v6.357" transform="translate(-48 -2)" fill="#d8dce4"/>
        </g>
        <g id="Grupo_55399" data-name="Grupo 55399" transform="translate(87.404 1.589)">
          <path id="Trazado_107110" data-name="Trazado 107110" d="M56,11.535V5.178A3.177,3.177,0,0,1,59.178,2h0a3.177,3.177,0,0,1,3.178,3.178v6.357" transform="translate(-56 -2)" fill="#d8dce4"/>
        </g>
        <g id="Grupo_55400" data-name="Grupo 55400" transform="translate(0 88.994)">
          <path id="Trazado_107111" data-name="Trazado 107111" d="M50.264,66.535H2.589A1.588,1.588,0,0,1,1,64.946V58.589A1.588,1.588,0,0,1,2.589,57H50.264a1.588,1.588,0,0,1,1.589,1.589v6.357A1.588,1.588,0,0,1,50.264,66.535ZM4.178,63.357h44.5V60.178H4.178Z" transform="translate(-1 -57)"/>
        </g>
        <g id="Grupo_55401" data-name="Grupo 55401" transform="translate(3.383 11.124)">
          <path id="Trazado_107112" data-name="Trazado 107112" d="M5.9,88.237,3.129,86.68l14.1-25.064V8H20.4V62.032a1.571,1.571,0,0,1-.205.779Z" transform="translate(-3.129 -8)"/>
        </g>
        <g id="Grupo_55402" data-name="Grupo 55402" transform="translate(30.194 11.124)">
          <path id="Trazado_107113" data-name="Trazado 107113" d="M34.508,88.237,20.2,62.811A1.571,1.571,0,0,1,20,62.032V8h3.178V61.615l14.1,25.063Z" transform="translate(-20 -8)"/>
        </g>
        <g id="Grupo_55403" data-name="Grupo 55403" transform="translate(15.728 69.697)">
          <rect id="Rectángulo_5303" data-name="Rectángulo 5303" width="19" height="3" transform="translate(-0.396 -0.5)"/>
        </g>
        <g id="Grupo_55404" data-name="Grupo 55404" transform="translate(11.589 70.388)">
          <rect id="Rectángulo_5304" data-name="Rectángulo 5304" width="26.97" height="3.178" transform="translate(0 19.07) rotate(-45)"/>
        </g>
        <g id="Grupo_55405" data-name="Grupo 55405" transform="translate(17.946 70.389)">
          <rect id="Rectángulo_5305" data-name="Rectángulo 5305" width="3.178" height="26.97" transform="translate(0 2.247) rotate(-45)"/>
        </g>
        <g id="Grupo_55406" data-name="Grupo 55406" transform="translate(0 54.032)">
          <path id="Trazado_107114" data-name="Trazado 107114" d="M50.264,47.713H2.589a1.59,1.59,0,0,1-.954-2.861l12.713-9.535A1.585,1.585,0,0,1,15.3,35H37.551a1.585,1.585,0,0,1,.954.318l12.713,9.535a1.589,1.589,0,0,1-.954,2.861ZM7.357,44.535H45.5l-8.475-6.357H15.832Z" transform="translate(-1 -35)"/>
        </g>
        <g id="Grupo_55407" data-name="Grupo 55407" transform="translate(0.244 56.595)">
          <rect id="Rectángulo_5306" data-name="Rectángulo 5306" width="2" height="14" transform="translate(0.087 -0.397)"/>
        </g>
        <g id="Grupo_55408" data-name="Grupo 55408" transform="translate(47.89 56.595)">
          <rect id="Rectángulo_5307" data-name="Rectángulo 5307" width="2" height="14" transform="translate(0.442 -0.397)"/>
        </g>
        <g id="Grupo_55409" data-name="Grupo 55409" transform="translate(0 34.962)">
          <path id="Trazado_107115" data-name="Trazado 107115" d="M50.264,35.713H2.589a1.59,1.59,0,0,1-.954-2.861l12.713-9.535A1.585,1.585,0,0,1,15.3,23H37.551a1.585,1.585,0,0,1,.954.318l12.713,9.535a1.589,1.589,0,0,1-.954,2.861ZM7.357,32.535H45.5l-8.475-6.357H15.832Z" transform="translate(-1 -23)"/>
        </g>
        <g id="Grupo_55410" data-name="Grupo 55410" transform="translate(0.244 37.536)">
          <rect id="Rectángulo_5308" data-name="Rectángulo 5308" width="2" height="13" transform="translate(0.087 -0.338)"/>
        </g>
        <g id="Grupo_55411" data-name="Grupo 55411" transform="translate(47.89 37.536)">
          <rect id="Rectángulo_5309" data-name="Rectángulo 5309" width="2" height="13" transform="translate(0.442 -0.338)"/>
        </g>
        <g id="Grupo_55412" data-name="Grupo 55412" transform="translate(0 15.892)">
          <path id="Trazado_107116" data-name="Trazado 107116" d="M50.264,23.713H2.589a1.59,1.59,0,0,1-.954-2.861l12.713-9.535A1.585,1.585,0,0,1,15.3,11H37.551a1.585,1.585,0,0,1,.954.318l12.713,9.535a1.589,1.589,0,0,1-.954,2.861ZM7.357,20.535H45.5l-8.475-6.357H15.832Z" transform="translate(-1 -11)"/>
        </g>
        <g id="Grupo_55413" data-name="Grupo 55413" transform="translate(0.244 18.477)">
          <rect id="Rectángulo_5310" data-name="Rectángulo 5310" width="2" height="13" transform="translate(0.087 -0.28)"/>
        </g>
        <g id="Grupo_55414" data-name="Grupo 55414" transform="translate(47.89 18.477)">
          <rect id="Rectángulo_5311" data-name="Rectángulo 5311" width="2" height="13" transform="translate(0.442 -0.28)"/>
        </g>
        <g id="Grupo_55415" data-name="Grupo 55415" transform="translate(11.124 0)">
          <path id="Trazado_107117" data-name="Trazado 107117" d="M31.838,13.713H12.768a1.586,1.586,0,0,1-1.507-1.087L8.083,3.091A1.586,1.586,0,0,1,9.589,1H35.016a1.588,1.588,0,0,1,1.508,2.091l-3.178,9.535A1.589,1.589,0,0,1,31.838,13.713ZM13.913,10.535h16.78l2.118-6.357H11.795Z" transform="translate(-8 -1)"/>
        </g>
        <g id="Grupo_55416" data-name="Grupo 55416" transform="translate(17.481 16.21)">
          <path id="Trazado_107118" data-name="Trazado 107118" d="M25.349,61.418,12.636,51.883a1.589,1.589,0,0,1,0-2.543l11.018-8.264L12.636,32.813a1.589,1.589,0,0,1,0-2.543l11.018-8.264L12.636,13.743,14.541,11.2l12.713,9.535a1.589,1.589,0,0,1,0,2.543L16.238,31.541l11.018,8.264a1.589,1.589,0,0,1,0,2.543L16.238,50.611l11.018,8.264Z" transform="translate(-12 -11.2)"/>
        </g>
        <g id="Grupo_55417" data-name="Grupo 55417" transform="translate(69.924 9.535)">
          <path id="Trazado_107119" data-name="Trazado 107119" d="M65.659,22.892H52.946A7.955,7.955,0,0,1,45,14.946V8.589A1.588,1.588,0,0,1,46.589,7H72.016a1.588,1.588,0,0,1,1.589,1.589v6.357A7.955,7.955,0,0,1,65.659,22.892ZM48.178,10.178v4.768a4.773,4.773,0,0,0,4.768,4.768H65.659a4.773,4.773,0,0,0,4.768-4.768V10.178Z" transform="translate(-45 -7)"/>
        </g>
        <g id="Grupo_55418" data-name="Grupo 55418" transform="translate(73.102 0)">
          <path id="Trazado_107120" data-name="Trazado 107120" d="M56.535,12.124H53.357V5.768a1.589,1.589,0,0,0-3.178,0v6.357H47V5.768a4.768,4.768,0,1,1,9.535,0Z" transform="translate(-47 -1)"/>
        </g>
        <g id="Grupo_55419" data-name="Grupo 55419" transform="translate(85.815 0)">
          <path id="Trazado_107121" data-name="Trazado 107121" d="M64.535,12.124H61.357V5.768a1.589,1.589,0,0,0-3.178,0v6.357H55V5.768a4.768,4.768,0,1,1,9.535,0Z" transform="translate(-55 -1)"/>
        </g>
        <g id="Grupo_55420" data-name="Grupo 55420" transform="translate(71.715 16.094)">
          <rect id="Rectángulo_5312" data-name="Rectángulo 5312" width="25" height="2" transform="translate(-0.384 0.103)"/>
        </g>
        <g id="Grupo_55421" data-name="Grupo 55421" transform="translate(79.459 22.248)">
          <path id="Trazado_107122" data-name="Trazado 107122" d="M58.946,24.535H52.589A1.588,1.588,0,0,1,51,22.946V15h3.178v6.357h3.178V16.589h3.178v6.357A1.588,1.588,0,0,1,58.946,24.535Z" transform="translate(-51 -15)"/>
        </g>
        <g id="Grupo_55422" data-name="Grupo 55422" transform="translate(49.264 30.194)">
          <path id="Trazado_107123" data-name="Trazado 107123" d="M62.194,88.334a6.363,6.363,0,0,1-6.357-6.357v-44.5a3.178,3.178,0,0,0-6.357,0V80.389a7.955,7.955,0,0,1-7.946,7.946H32V85.156h9.535A4.773,4.773,0,0,0,46.3,80.389V37.481a6.357,6.357,0,1,1,12.713,0v44.5a3.178,3.178,0,1,0,6.357,0V20h3.178V81.978A6.363,6.363,0,0,1,62.194,88.334Z" transform="translate(-32 -20)"/>
        </g>
      </g>
    </g>
  </g>
</svg>
